<?xml version="1.0" encoding="utf-8"?>
<!-- Generator: Adobe Illustrator 23.0.3, SVG Export Plug-In . SVG Version: 6.00 Build 0)  -->
<svg version="1.1" id="Layer_1" xmlns="http://www.w3.org/2000/svg" xmlns:xlink="http://www.w3.org/1999/xlink" x="0px" y="0px"
	 viewBox="0 0 100 100" style="enable-background:new 0 0 100 100;" xml:space="preserve">
<style type="text/css">
	.st0{fill:#8E8E8E;}
</style>
<title>passion</title>
<g>
	<g id="Layer_1-2">
		<g id="passion">
			<path class="st0" d="M62,95.3c-1,0-2.1,0-3.2,0c-0.9,0.1-1.7-0.4-1.8-1.3c0-0.1,0-0.2,0-0.3c-0.7-5-1.4-10-2-15
				c-0.6-4.4-1.2-8.8-1.8-13.2c-0.1-1.8-1.6-3.2-3.4-3.2c-1.8,0-3.1,1.2-3.4,3.2c-1.3,9.1-2.5,18.2-3.8,27.3
				c-0.3,2.3-0.4,2.4-2.7,2.4c-1.9,0-3.8,0-5.7,0c-1.4,0-1.8-0.5-1.6-1.9l5.2-38c0.7-5,1.3-10.1,2.1-15.1c0.4-2.1-0.3-4.2-1.8-5.6
				c-6.5-6.4-13-12.9-19.5-19.3c-1.6-1.6-1.6-1.9,0-3.4c1.1-1.1,2.2-2.2,3.3-3.3c1.2-1.2,1.6-1.2,2.8,0.1
				c5.7,5.7,11.5,11.4,17.2,17.1c1,1.1,2.4,1.6,3.8,1.6c2.8-0.1,5.6-0.1,8.4,0c1.3,0.1,2.7-0.5,3.6-1.5C63.5,20.2,69.3,14.5,75,8.8
				c1.4-1.4,1.7-1.4,3.1,0c1.2,1.1,2.3,2.3,3.5,3.5c1.2,1.2,1.2,1.6,0,2.8c-6.2,6.2-12.3,12.5-18.7,18.6c-2.3,2-3.4,5.1-2.8,8.2
				c2.4,16.8,4.6,33.8,6.8,50.7c0.1,0.4,0.1,0.8,0.1,1.1c0.2,1.2-0.4,1.6-1.5,1.7L62,95.3z M47.2,32c0.4,0.6,0.8,1.2,1.2,1.7
				c0.7,0.8,1,1.9,0.6,2.9c-0.8,2.9-1.3,5.8-2.1,8.7c-0.3,0.7,0,1.5,0.7,1.8c2.5,1.7,2.4,1.7,4.8,0c0.6-0.3,0.9-1.1,0.7-1.8
				c-0.8-3.1-1.5-6.3-2.2-9.4c-0.1-0.6,0-1.2,0.3-1.7c0.5-0.8,1-1.5,1.5-2.2L47.2,32z"/>
			<path class="st0" d="M59.3,14.1c0,5.2-4.2,9.3-9.4,9.3s-9.3-4.2-9.3-9.4c0-5.1,4.2-9.3,9.3-9.3C55.2,4.7,59.3,8.9,59.3,14.1
				C59.3,14,59.3,14.1,59.3,14.1z M50,14.3L50,14.3c-1,0.1-2.1,0-3.1,0.1s-1.3,0.6-1.1,1.5c0.6,2.3,2.9,3.8,5.3,3.2
				c1.5-0.4,2.8-1.6,3.2-3.1c0.2-1-0.2-1.6-1.3-1.6C52,14.2,51,14.3,50,14.3z"/>
		</g>
	</g>
</g>
</svg>
