<?xml version="1.0" encoding="utf-8"?>
<!-- Generator: Adobe Illustrator 21.0.0, SVG Export Plug-In . SVG Version: 6.00 Build 0)  -->
<svg version="1.1" id="Layer_1" xmlns="http://www.w3.org/2000/svg" xmlns:xlink="http://www.w3.org/1999/xlink" x="0px" y="0px"
	 viewBox="0 0 100 100" style="enable-background:new 0 0 100 100;" xml:space="preserve">
<style type="text/css">
	.st0{fill:#161616;}
</style>
<g>
	<path class="st0" d="M93.4,66.4c-0.3,1.5-0.5,3.1-0.9,4.6c-0.2,0.8-0.4,1.5-0.6,2.3c-0.4,0.9-1.2,1.4-2,1.2c-1-0.3-1.4-1.1-1.2-2.1
		c0.4-2.4,0.9-4.8,1.3-7.2c0.2-0.8,0.5-1.3,1.3-1.4c0.8-0.2,1.4,0.2,1.8,0.8c0.1,0.1,0.2,0.3,0.3,0.4C93.4,65.5,93.4,66,93.4,66.4z"
		/>
	<path class="st0" d="M65.6,34.5c1.7,0.3,3.3,0.5,4.9,0.8c0.5,0.1,1.1,0.4,1.4,0.6c0.5,0.4,0.6,1.2,0.4,1.8c-0.3,0.7-0.9,1.1-1.6,1
		c-1.4-0.2-2.8-0.4-4.2-0.6c-0.3,0-0.5-0.1-0.8-0.1c-2.4,16.3-11.6,25.5-28.1,27.9c0.4,2,0.9,4,1.3,6c0.1,0.4,0.3,0.8,0.4,1.2
		c0.3,1-0.3,1.8-1.2,2c-0.9,0.3-1.8-0.2-2-1.2c-0.5-1.9-1-3.8-1.4-5.8c-0.2-0.8-0.2-1.7-0.3-2.6c-9.9-0.8-17.7-5.2-23.1-13.5
		C7.5,46.2,6,39.7,6.8,32.8c1.7-14.6,13.5-25,27.1-26C49.1,5.6,64.7,17.1,65.6,34.5z M62.2,34.5C61.4,20.6,49.1,8.8,33.7,10.2
		C18.9,11.5,7.9,25.1,10.3,40.4c2.2,13.9,14.6,21.8,24.2,21.8c0.5-7.4,3.4-13.8,8.6-19C48.4,37.9,54.8,35.1,62.2,34.5z M38,62.2
		c11.8-0.4,23.4-10.7,24.1-24.1C49.3,38.6,38.4,49.8,38,62.2z"/>
	<path class="st0" d="M92.7,57.7c0,0.9-0.6,1.6-1.4,1.8c-0.8,0.2-1.6-0.4-2-1.3c-0.5-1.5-1-2.9-1.4-4.4c-0.3-0.7-0.7-1.4-1-2.1
		c-0.4-1.1-0.2-2,0.6-2.4c0.9-0.4,1.8-0.2,2.3,0.8c1.2,2.3,2.1,4.7,2.8,7.3C92.7,57.5,92.7,57.6,92.7,57.7z"/>
	<path class="st0" d="M60.2,93.3c-2.7-0.4-5.3-1-7.8-2.1c-0.9-0.4-1.2-1.3-0.9-2.1c0.3-0.8,1.2-1.2,2-1c2.4,0.6,4.7,1.2,7.1,1.9
		c1,0.3,1.5,1.1,1.4,1.9C62,92.8,61.3,93.3,60.2,93.3z"/>
	<path class="st0" d="M66.4,91.6c0-0.8,0.4-1.4,1.3-1.7c2.3-0.7,4.7-1.4,7-2c1-0.3,1.9,0.1,2.2,0.9c0.4,0.9,0,1.8-0.9,2.2
		c-2.5,1.2-5,1.9-7.6,2.3C67.3,93.4,66.4,92.6,66.4,91.6z"/>
	<path class="st0" d="M78.1,38.3c0.2,0.1,0.5,0.2,0.8,0.4c2,1.5,4,3,6,4.6c0.9,0.7,0.9,1.9,0.2,2.6c-0.7,0.7-1.6,0.6-2.5-0.1
		c-1.8-1.4-3.6-2.8-5.5-4.3c-0.8-0.6-1.1-1.2-0.8-2C76.6,38.6,77.1,38.3,78.1,38.3z"/>
	<path class="st0" d="M41.3,78.3c0.6,0.4,1.1,0.6,1.4,1.1c1.6,1.6,3.1,3.3,4.7,5c0.9,0.9,1,1.9,0.3,2.6c-0.6,0.7-1.7,0.8-2.6-0.1
		c-1.8-1.8-3.5-3.6-5.2-5.4c-0.5-0.5-0.6-1.2-0.3-1.9C40.2,79.1,40.8,78.8,41.3,78.3z"/>
	<path class="st0" d="M81.7,87.2c-0.4-0.4-1-0.6-1.3-1.1c-0.4-0.5-0.3-1.2,0.1-1.7c0.2-0.2,0.4-0.4,0.5-0.5c1.4-1.6,2.9-3.2,4.4-4.8
		c0.5-0.6,1.1-1.2,2-0.9c1.2,0.3,1.8,1.7,0.9,2.8c-1.2,1.6-2.7,3.1-4,4.7c-0.4,0.4-0.7,0.7-1.2,1C82.7,86.8,82.2,86.9,81.7,87.2z"/>
	<path class="st0" d="M14.2,34.9c0.5-6.2,3.1-11.5,7.9-15.5c0.3-0.2,0.4-0.4,0.8-0.5c0.7-0.4,1.5-0.1,2,0.4c0.4,0.6,0.5,1.3,0.1,2
		c-0.2,0.3-0.4,0.4-0.6,0.7c-4.3,3.6-6.5,8.3-6.7,13.9c0,0.3,0,0.5-0.1,0.7c-0.2,0.8-0.9,1.2-1.7,1.2s-1.3-0.4-1.5-1.2
		C14.2,36.1,14.3,35.5,14.2,34.9z"/>
	<path class="st0" d="M35.2,14.4c0.4,0,0.9-0.1,1.2,0c0.8,0.1,1.3,0.8,1.3,1.6c0,0.7-0.5,1.4-1.2,1.6c-0.4,0.1-0.7,0.1-1,0.1
		c-1.4,0.2-2.9,0.4-4.4,0.6c-1.2,0.2-2-0.2-2.3-1.2c-0.3-1,0.4-1.9,1.4-2.1c1.6-0.4,3.2-0.6,4.8-0.9C35.2,14.3,35.2,14.3,35.2,14.4z
		"/>
</g>
</svg>
