<?xml version="1.0" encoding="utf-8"?>
<!-- Generator: Adobe Illustrator 24.3.0, SVG Export Plug-In . SVG Version: 6.00 Build 0)  -->
<svg version="1.1" id="Layer_1" xmlns="http://www.w3.org/2000/svg" xmlns:xlink="http://www.w3.org/1999/xlink" x="0px" y="0px"
	 viewBox="0 0 100 100" style="enable-background:new 0 0 100 100;" xml:space="preserve">
<style type="text/css">
	.st0{fill:#0093ED;}
	.st1{fill:#FFFFFF;}
</style>
<circle class="st0" cx="50" cy="50" r="48"/>
<path class="st1" d="M82.5,59.1V43.9c0-0.9-0.6-1.8-1.5-2.1L48,31.2c-0.4-0.1-0.9-0.1-1.3,0l-33,10.7c-1.2,0.4-1.8,1.6-1.4,2.8
	c0.2,0.7,0.7,1.2,1.4,1.4l16.5,5.3v8.4c0.1,2.2,2.1,4.2,5.7,5.7c7.4,2.9,15.6,2.9,22.9,0c3.7-1.6,5.7-3.7,5.7-5.8v-8.3L78.2,47v12.1
	c-2.1,0.9-3.5,3-3.5,5.3v7.5c0,1.2,1,2.2,2.2,2.2h7c1.2,0,2.2-1,2.2-2.2v-7.5C86.1,62,84.7,59.9,82.5,59.1z M56.3,61.7
	c-5.8,2.1-12.2,2.1-18.1,0c-1.4-0.4-2.7-1.2-3.7-2.2v-6.7l12.1,3.9c0.2,0.1,0.4,0.1,0.7,0.1c0.2,0,0.5,0,0.7-0.1l12-3.9v6.7
	C59,60.5,57.7,61.2,56.3,61.7z M47.3,52.2l-25.9-8.3l25.9-8.3l25.9,8.3L47.3,52.2z M81.6,69.6H79v-5.3c0.1-0.7,0.7-1.3,1.4-1.2
	c0.6,0.1,1.1,0.6,1.2,1.2V69.6z"/>
</svg>
