<?xml version="1.0" encoding="utf-8"?>
<!-- Generator: Adobe Illustrator 21.0.0, SVG Export Plug-In . SVG Version: 6.00 Build 0)  -->
<svg version="1.1" id="Layer_1" xmlns="http://www.w3.org/2000/svg" xmlns:xlink="http://www.w3.org/1999/xlink" x="0px" y="0px"
	 viewBox="0 0 89 72" style="enable-background:new 0 0 89 72;" xml:space="preserve">
<title>Artboard 1</title>
<path d="M10.9,58.4H16c0.7,0,1.3-0.6,1.3-1.3c0-0.7-0.6-1.3-1.3-1.3h-3.2l1.1-2.5h61.1l1.1,2.5H21.2c-0.7,0-1.3,0.6-1.3,1.3
	c0,0.7,0.6,1.3,1.3,1.3l0,0H78c0.7,0,1.3-0.6,1.3-1.3c0-0.2,0-0.4-0.1-0.5L77,51.5c-0.2-0.5-0.7-0.8-1.2-0.8H13.1
	c-0.5,0-1,0.3-1.2,0.8l-2.1,5.1c-0.3,0.7,0,1.4,0.7,1.7C10.6,58.4,10.8,58.4,10.9,58.4z"/>
<path d="M88.1,64.2l-6.3-14.8c-0.6-1.4-1.7-2.5-3-3.2c1.2-1.2,1.9-2.8,1.9-4.5V7.2c0-3.5-2.8-6.4-6.4-6.3l0,0H14.9
	c-3.5,0-6.3,2.8-6.4,6.3v34.5c0,1.7,0.7,3.3,1.9,4.5c-1.4,0.7-2.4,1.9-3,3.2L0.9,64.2c-0.1,0.2-0.1,0.3-0.1,0.5
	c0,3.5,2.8,6.4,6.4,6.4h74.6c3.5,0,6.4-2.8,6.4-6.4C88.2,64.6,88.2,64.4,88.1,64.2z M11.1,7.2c0-2.1,1.8-3.8,3.8-3.8h59.2
	c2.1,0,3.8,1.8,3.8,3.8v34.5c0,2.1-1.8,3.8-3.8,3.8H14.9c-2.1,0-3.8-1.8-3.8-3.8C11.1,41.7,11.1,7.2,11.1,7.2z M9.6,50.5
	c0.6-1.4,2-2.3,3.5-2.3h62.7c1.6,0,2.9,0.9,3.5,2.3l5.6,13H4.1L9.6,50.5z M50.9,66.1v2.5H38.2V66L50.9,66.1z M3.6,66.1h31.9v2.5H7.2
	C5.6,68.6,4.2,67.6,3.6,66.1L3.6,66.1z M81.8,68.6H53.5V66h31.9C84.8,67.6,83.4,68.6,81.8,68.6L81.8,68.6z"/>
<g id="bc490fd7-c70c-4e53-8169-3d317b7fe54a">
	<path d="M61.6,9.8c-0.2-0.3-0.5-0.4-0.9-0.4H32.2c-0.3,0-0.7,0.2-0.9,0.4c-0.2,0.3-0.3,0.6-0.2,0.9l4.4,20.8
		c0.1,0.5,0.6,0.9,1.1,0.9h6.5v4.4c0,1.9,1.5,3.3,3.3,3.3s3.3-1.5,3.3-3.3v-4.4h6.5c0.5,0,1-0.4,1.1-0.9l4.4-20.8
		C61.9,10.4,61.8,10,61.6,9.8z M47.6,36.8c0,0.6-0.5,1.1-1.1,1.1s-1.1-0.5-1.1-1.1v-4.4h2.1C47.6,32.4,47.6,36.8,47.6,36.8z
		 M55.4,30.2h-18L37,28.1h18.9L55.4,30.2z M56.3,25.8H36.6l-3-14.3h2.2l2,4.8c0.2,0.4,0.6,0.7,1,0.7c0.1,0,0.3,0,0.4-0.1
		c0.6-0.2,0.9-0.9,0.6-1.5l0,0l-1.5-3.9H41l1.2,2.6c0.2,0.4,0.6,0.7,1.1,0.7c0.2,0,0.3,0,0.4-0.1c0.6-0.2,0.8-0.9,0.6-1.5l0,0
		l-0.8-1.8h2l1.1,2.6c0.2,0.4,0.6,0.7,1.1,0.7c0.2,0,0.3,0,0.4-0.1c0.6-0.2,0.8-0.9,0.6-1.5l0,0l-0.7-1.8h2.1l2.1,4.9
		c0.2,0.4,0.6,0.7,1.1,0.7c0.2,0,0.3,0,0.5-0.1c0.6-0.3,0.8-0.9,0.6-1.5l0,0l-1.9-3.9h2l1.1,2.6c0.2,0.4,0.6,0.7,1.1,0.7
		c0.2,0,0.3,0,0.4-0.1c0.6-0.2,0.8-0.9,0.6-1.5l0,0l-0.8-1.9h2.8L56.3,25.8z"/>
</g>
</svg>
