<?xml version="1.0" encoding="utf-8"?>
<!-- Generator: Adobe Illustrator 24.3.0, SVG Export Plug-In . SVG Version: 6.00 Build 0)  -->
<svg version="1.1" id="Layer_1" xmlns="http://www.w3.org/2000/svg" xmlns:xlink="http://www.w3.org/1999/xlink" x="0px" y="0px"
	 viewBox="0 0 100 100" style="enable-background:new 0 0 100 100;" xml:space="preserve">
<style type="text/css">
	.st0{fill:#0093ED;}
	.st1{fill:#FFFFFF;stroke:#FFFFFF;stroke-width:0.5;stroke-miterlimit:10;}
</style>
<circle class="st0" cx="50" cy="50" r="48"/>
<path class="st1" d="M78.4,47h-1.8c-0.3-1.6-1.2-3.1-2.4-4.3c1.3-4.3-1.2-8.9-5.5-10.1c-0.1,0-0.3-0.1-0.4-0.1
	c-1.1-4.4-5.5-7.1-9.9-6.1c-0.1,0-0.3,0.1-0.4,0.1c-1.5-1.6-3.7-2.5-5.9-2.5c-2.3,0-4.5,0.9-6.1,2.5c-4.3-1.3-8.9,1.2-10.2,5.5
	c0,0.1-0.1,0.2-0.1,0.4c-4.4,1.1-7.1,5.5-6,9.9c0,0.1,0.1,0.3,0.1,0.4c-1.2,1.2-2,2.7-2.4,4.3h-1.8c-0.9,0-1.6,0.7-1.6,1.6
	c0,9.6,5,18.6,13.1,23.7v2.8c0,2.7,2.2,4.9,4.9,4.9h20c2.7,0,4.9-2.2,4.9-4.9v-2.8c8.1-5.1,13.1-14,13.1-23.7
	C80,47.7,79.3,47,78.4,47z M32.7,44.6c0.7-0.5,0.9-1.3,0.5-2c-1.2-2.4-0.1-5.4,2.3-6.5c0.5-0.3,1.1-0.4,1.7-0.5
	c0.8-0.1,1.4-0.7,1.5-1.5c0.2-2.7,2.6-4.7,5.3-4.5c0.6,0.1,1.1,0.2,1.7,0.5c0.7,0.3,1.6,0.1,2-0.5c1-1.3,2.6-2.1,4.3-2.1
	c1.6,0,3.1,0.8,4,2.1c0.5,0.7,1.4,0.9,2.2,0.5c2.4-1.2,5.4-0.1,6.5,2.3c0.3,0.5,0.4,1.1,0.5,1.7c0.1,0.8,0.7,1.4,1.5,1.5
	c2.7,0.2,4.7,2.6,4.5,5.3c0,0.6-0.2,1.2-0.5,1.7c-0.3,0.7-0.1,1.6,0.6,2c0.9,0.6,1.5,1.5,1.8,2.5H30.9C31.2,46,31.8,45.2,32.7,44.6z
	 M63.6,75.1c0,0.9-0.7,1.6-1.6,1.6H42c-0.9,0-1.6-0.7-1.6-1.6v-1.9h23.2L63.6,75.1z M64.4,69.9H39.6c-7.1-4.1-11.7-11.5-12.3-19.7
	h49.3C76.1,58.4,71.5,65.8,64.4,69.9z"/>
<circle class="st1" cx="58.7" cy="38.8" r="1.6"/>
<circle class="st1" cx="65.2" cy="42" r="1.6"/>
<circle class="st1" cx="38.8" cy="38.8" r="1.6"/>
</svg>
