<?xml version="1.0" encoding="utf-8"?>
<!-- Generator: Adobe Illustrator 24.3.0, SVG Export Plug-In . SVG Version: 6.00 Build 0)  -->
<svg version="1.1" id="Layer_1" xmlns="http://www.w3.org/2000/svg" xmlns:xlink="http://www.w3.org/1999/xlink" x="0px" y="0px"
	 viewBox="0 0 100 100" style="enable-background:new 0 0 100 100;" xml:space="preserve">
<style type="text/css">
	.st0{fill:#0093ED;}
	.st1{fill:#FFFFFF;}
</style>
<circle class="st0" cx="50" cy="50" r="48"/>
<path class="st1" d="M67.2,68c-1.1-0.6-2.5-0.1-3.1,1c-3.6,7.2-12.3,10.1-19.5,6.5c-7.2-3.6-10.1-12.3-6.5-19.5
	c0.9-1.8,2.1-3.3,3.6-4.6c1-0.8,1.1-2.3,0.3-3.3s-2.3-1.1-3.3-0.3c-8.1,6.8-9.1,18.9-2.2,27s18.9,9.1,27,2.2c2-1.7,3.6-3.7,4.7-6
	C68.8,70,68.4,68.6,67.2,68z"/>
<path class="st1" d="M73.2,63.9L60.5,52.5c-0.4-0.4-1-0.6-1.5-0.5h-9.4v-2.7h7.6c1.3,0,2.3-1,2.3-2.3c0-1.3-1-2.3-2.3-2.3h-7.6v-1.4
	c5.7-1.3,9.3-6.9,8-12.7s-6.9-9.3-12.7-8s-9.3,6.9-8,12.7c0.9,4,4,7.1,8,8v11c0,1.3,1,2.3,2.3,2.3c0,0,0,0,0,0h10.8l12,10.8
	c1,0.8,2.5,0.6,3.3-0.4C74.1,66.1,74,64.8,73.2,63.9L73.2,63.9z M41.3,33c0-3.3,2.7-6,6-6s6,2.7,6,6s-2.7,6-6,6S41.3,36.3,41.3,33z"
	/>
</svg>
