<?xml version="1.0" encoding="utf-8"?>
<!-- Generator: Adobe Illustrator 24.3.0, SVG Export Plug-In . SVG Version: 6.00 Build 0)  -->
<svg version="1.1" id="Layer_1" xmlns="http://www.w3.org/2000/svg" xmlns:xlink="http://www.w3.org/1999/xlink" x="0px" y="0px"
	 viewBox="0 0 100 100" style="enable-background:new 0 0 100 100;" xml:space="preserve">
<style type="text/css">
	.st0{fill:#0093ED;}
	.st1{fill:#FFFFFF;}
</style>
<circle class="st0" cx="50" cy="50" r="48"/>
<g id="surface1">
	<path class="st1" d="M58,46.6c0,1.2-1,2.2-2.1,2.2c0,0,0,0,0,0h-2.2v2.2c0,1.2-1,2.1-2.2,2.1c-1.2,0-2.1-1-2.1-2.1v-2.2h-2.2
		c-1.2,0-2.1-1-2.1-2.2c0-1.2,1-2.1,2.1-2.1h2.2v-2.1c0-1.2,1-2.1,2.2-2.1c1.2,0,2.1,1,2.1,2.1v2.2h2.1C57,44.5,58,45.4,58,46.6
		C58,46.6,58,46.6,58,46.6z M79,59.5c0,1.2-1,2.2-2.2,2.2l0,0H65v3.4c0.1,1.2-0.8,2.2-2,2.3c-1.2,0.1-2.2-0.8-2.3-2
		c0-0.1,0-0.2,0-0.3v-3.4H42.3v3.4c0.1,1.2-0.8,2.2-2,2.3c-1.2,0.1-2.2-0.8-2.3-2c0-0.1,0-0.2,0-0.3v-3.4h-6.4v7.7
		c0,2.4,1.9,4.3,4.3,4.3h31.4c2.4,0,4.3-1.9,4.3-4.3c0-1.2,1-2.2,2.2-2.2s2.2,1,2.2,2.2c0,4.7-3.9,8.6-8.6,8.6l0,0H35.8
		c-4.7,0-8.6-3.8-8.6-8.6v-7.7h-1.1c-1.2,0-2.2-1-2.2-2.1c0,0,0,0,0,0V40.2c0-4.7,3.9-8.6,8.6-8.6h8.2v-2.1c0-3.6,2.9-6.4,6.4-6.4
		h8.6c3.6,0,6.4,2.9,6.4,6.4v2.1h8.2c4.7,0,8.6,3.9,8.6,8.6V59.5z M45.1,31.6H58v-2.1c0-1.2-1-2.1-2.2-2.1h-8.6
		c-1.2,0-2.1,1-2.1,2.1V31.6z M74.7,57.4V40.2c0-2.4-1.9-4.3-4.3-4.3H32.6c-2.4,0-4.3,1.9-4.3,4.3v17.2H74.7z"/>
</g>
</svg>
