<?xml version="1.0" encoding="utf-8"?>
<!-- Generator: Adobe Illustrator 24.3.0, SVG Export Plug-In . SVG Version: 6.00 Build 0)  -->
<svg version="1.1" id="Layer_1" xmlns="http://www.w3.org/2000/svg" xmlns:xlink="http://www.w3.org/1999/xlink" x="0px" y="0px"
	 viewBox="0 0 100 100" style="enable-background:new 0 0 100 100;" xml:space="preserve">
<style type="text/css">
	.st0{fill:#0093ED;}
	.st1{fill:#FFFFFF;}
</style>
<circle class="st0" cx="50" cy="50" r="48"/>
<g id="cart_shop_buy_retail">
	<path class="st1" d="M66.2,68.4c-3.6,0-6.5,2.9-6.5,6.5c0,3.6,2.9,6.5,6.5,6.5c3.6,0,6.5-2.9,6.5-6.5l0,0
		C72.7,71.3,69.8,68.4,66.2,68.4z M66.2,77c-1.2,0-2.2-1-2.2-2.1s1-2.2,2.1-2.2s2.2,1,2.2,2.1c0,0,0,0,0,0C68.4,76,67.4,77,66.2,77
		C66.2,77,66.2,77,66.2,77L66.2,77z"/>
	<path class="st1" d="M53.3,68.4H36.1c-1.2,0.1-2.2-0.8-2.3-2c-0.1-1.2,0.8-2.2,2-2.3c0.1,0,0.2,0,0.3,0h34.5c1.1,0,1.9-0.8,2.1-1.8
		L77,36.4c0.2-1.2-0.6-2.3-1.8-2.5h-0.3H40.4c-1.2-0.1-2.2,0.8-2.3,2s0.8,2.2,2,2.3c0.1,0,0.2,0,0.3,0h31.9l-3.6,21.5H41.9
		L29.5,26.7c-0.3-0.8-1.1-1.4-2-1.4h-4.3c-1.2,0-2.2,1-2.2,2.1c0,1.2,1,2.2,2.2,2.2H26l11.3,30.2h-1.2c-3.6,0-6.5,2.8-6.5,6.4
		c0,2.9,2,5.5,4.8,6.3c-1.4,3.3,0.2,7.1,3.5,8.5s7.1-0.2,8.5-3.5c0.6-1.5,0.7-3.2,0.1-4.7h6.9c1.2-0.1,2.1-1.1,2-2.3
		C55.2,69.3,54.4,68.4,53.3,68.4z M42.5,74.8c0,1.2-1,2.2-2.2,2.2s-2.2-1-2.2-2.2s1-2.2,2.2-2.2c0,0,0,0,0,0
		C41.6,72.7,42.5,73.6,42.5,74.8z"/>
</g>
</svg>
