<?xml version="1.0" encoding="utf-8"?>
<!-- Generator: Adobe Illustrator 24.3.0, SVG Export Plug-In . SVG Version: 6.00 Build 0)  -->
<svg version="1.1" id="Layer_1" xmlns="http://www.w3.org/2000/svg" xmlns:xlink="http://www.w3.org/1999/xlink" x="0px" y="0px"
	 viewBox="0 0 100 100" style="enable-background:new 0 0 100 100;" xml:space="preserve">
<style type="text/css">
	.st0{fill:#0093ED;}
	.st1{fill:#FFFFFF;}
</style>
<circle class="st0" cx="50" cy="50" r="48"/>
<path class="st1" d="M75,31.4c0-3.5-2.8-6.4-6.3-6.4c0,0-0.1,0-0.1,0h-0.1c-1.7,0-3.3,0.7-4.5,2l-9.5,9.8l-24.7-8.2l-7.3,7.3
	l20.7,12.7l-8.5,8.9L28,56.4l-7,7l11.5,4l4,11.5l7-7l-1.1-6.7l8.9-8.5l12.8,20.7l7.3-7.3l-8.2-24.7L73,36C74.3,34.8,75,33.2,75,31.4
	z M70.8,33.7L59.6,44.5l8.2,24.8l-3.1,3.1L52,51.8L39.1,64.1l1.1,6.7l-2.3,2.3L35,65l-8.2-2.8l2.3-2.3l6.7,1.1L48.2,48L27.6,35.3
	l3.1-3.1l24.8,8.2l10.8-11.3c0.6-0.6,1.4-1,2.3-1l0,0c1.8,0,3.2,1.4,3.2,3.2c0,0,0,0,0,0.1C71.8,32.2,71.5,33.1,70.8,33.7z"/>
</svg>
