<?xml version="1.0" encoding="utf-8"?>
<!-- Generator: Adobe Illustrator 24.3.0, SVG Export Plug-In . SVG Version: 6.00 Build 0)  -->
<svg version="1.1" id="Layer_1" xmlns="http://www.w3.org/2000/svg" xmlns:xlink="http://www.w3.org/1999/xlink" x="0px" y="0px"
	 viewBox="0 0 100 100" style="enable-background:new 0 0 100 100;" xml:space="preserve">
<style type="text/css">
	.st0{fill:#0093ED;}
	.st1{fill:#FFFFFF;}
</style>
<circle class="st0" cx="50" cy="50" r="48"/>
<path class="st1" d="M55,20.2c-15.4,0-28,11.7-28,26.3c0.2,1.5,0.4,5.7-1.6,8c-1.1,1.2-2.8,1.8-4.4,1.7c-1.1,0-2,0.9-2,2
	c0,6,5,10.2,14.9,12.3c0.1,0,0.3,0,0.4,0c1,0,1.8-0.6,2-1.6c0.2-1.1-0.5-2.1-1.5-2.4c0,0,0,0,0,0C28.2,65.2,24.4,63,23.3,60
	c2-0.3,3.8-1.4,5.2-2.9C32,52.9,31,46.2,31,46.2c0-12.1,10.8-22,24-22s24,9.9,24,22c0,8.3-5,15.8-13.1,19.6c-1,0.4-1.5,1.6-1,2.6
	c0,0,0,0,0,0c0.4,1,1.6,1.5,2.6,1c0,0,0,0,0,0C77.1,64.9,83,56,83,46.2C83,31.9,70.4,20.2,55,20.2z"/>
<path class="st1" d="M59.4,69.9c-0.1-1.1-1.1-1.9-2.2-1.8c0,0,0,0,0,0c-0.7,0.1-1.5,0.1-2.2,0.1c-4.1,0-7.4-0.1-10.3-0.3
	c-1.1-0.1-2.1,0.7-2.2,1.8c0,0,0,0,0,0c-0.1,1.1,0.7,2.1,1.8,2.1c0,0,0,0,0,0c3,0.2,6.4,0.4,10.6,0.4c0.9,0,1.7,0,2.6-0.1
	C58.7,72,59.5,71,59.4,69.9C59.4,69.9,59.4,69.9,59.4,69.9z"/>
<path class="st1" d="M63,64.2c-4.4,0-8,3.6-8,8s3.6,8,8,8s8-3.6,8-8S67.4,64.2,63,64.2z M63,76.2c-2.2,0-4-1.8-4-4s1.8-4,4-4
	c2.2,0,4,1.8,4,4S65.2,76.2,63,76.2z"/>
<path class="st1" d="M39,64.2c-4.4,0-8,3.6-8,8s3.6,8,8,8s8-3.6,8-8S43.4,64.2,39,64.2z M39,76.2c-2.2,0-4-1.8-4-4s1.8-4,4-4
	s4,1.8,4,4S41.2,76.2,39,76.2z"/>
<path class="st1" d="M47.1,38.2L47.1,38.2c-1.1,0-2,0.9-2,2s0.9,2,2,2s2-0.9,2-2S48.2,38.2,47.1,38.2z"/>
<path class="st1" d="M63.1,38.2L63.1,38.2c-1.1,0-2,0.9-2,2s0.9,2,2,2s2-0.9,2-2S64.2,38.2,63.1,38.2z"/>
<path class="st1" d="M65.4,48.2c-1.1-0.2-2.1,0.4-2.4,1.5c-1,4.4-5.4,7.2-9.9,6.2c-3.1-0.7-5.5-3.1-6.2-6.2
	c-0.3-1.1-1.4-1.7-2.4-1.4c-1,0.3-1.7,1.3-1.5,2.3c1.5,6.6,8.1,10.7,14.7,9.2c4.6-1,8.2-4.6,9.2-9.2C67.2,49.6,66.5,48.5,65.4,48.2
	C65.4,48.3,65.4,48.3,65.4,48.2z"/>
</svg>
