<?xml version="1.0" encoding="utf-8"?>
<!-- Generator: Adobe Illustrator 24.3.0, SVG Export Plug-In . SVG Version: 6.00 Build 0)  -->
<svg version="1.1" id="Layer_1" xmlns="http://www.w3.org/2000/svg" xmlns:xlink="http://www.w3.org/1999/xlink" x="0px" y="0px"
	 viewBox="0 0 100 100" style="enable-background:new 0 0 100 100;" xml:space="preserve">
<style type="text/css">
	.st0{fill:#0093ED;}
	.st1{fill:#FFFFFF;}
</style>
<circle class="st0" cx="50" cy="50" r="48"/>
<path class="st1" d="M37,59.3c-0.9-0.1-1.6-0.8-1.6-1.8c0-0.7,0.4-1.3,1.1-1.6c0.8-0.3,1.8,0.1,2.7,1.1c0.6,0.7,1.6,0.8,2.3,0.2
	c0,0,0,0,0,0c0.7-0.6,0.8-1.6,0.2-2.3c-0.8-1-1.8-1.7-3-2.1V51c0-0.9-0.7-1.6-1.6-1.6c-0.9,0-1.6,0.7-1.6,1.6v1.9l0,0
	c-1.9,0.7-3.2,2.6-3.2,4.6c0,1.3,0.5,2.6,1.4,3.5c0.9,1,2.2,1.5,3.5,1.5c0.9,0,1.6,0.8,1.6,1.7c0,0.6-0.4,1.2-1,1.5
	c-0.9,0.3-1.9,0-2.5-0.7c-0.7-0.6-1.7-0.6-2.3,0.1c-0.6,0.7-0.6,1.7,0.1,2.3l0,0c0.7,0.7,1.5,1.2,2.4,1.5v1.9c0,0.9,0.7,1.6,1.6,1.6
	c0.9,0,1.6-0.7,1.6-1.6v-1.9c2.6-0.9,3.9-3.7,3-6.3C41,60.6,39.1,59.3,37,59.3L37,59.3z"/>
<path class="st1" d="M72.3,23.2c-3.8-1.5-7.9-2.3-12-2.2c-9.1,0-17.6,3.4-17.6,8.8V43c-6.8-2-14.1-0.1-19.1,5
	c-7.5,7.7-7.3,19.9,0.3,27.4c6.2,6.1,15.8,7.3,23.3,2.9c3.3,1.8,7.9,2.8,13,2.8c4.1,0.1,8.2-0.7,12-2.2c3.7-1.6,5.7-4,5.7-6.6V29.8
	C78,27.2,76,24.8,72.3,23.2z M37.3,77.5c-8.8,0-15.9-7.2-15.8-15.9c0-8.8,7.2-15.9,15.9-15.8s15.9,7.2,15.8,15.9c0,0,0,0,0,0
	C53.3,70.4,46.2,77.5,37.3,77.5C37.4,77.5,37.4,77.5,37.3,77.5z M74.5,72.2c0,2.2-5.5,5.3-14.2,5.3c-3.3,0.1-6.7-0.5-9.8-1.6
	l0.6-0.5c1.6-1.5,2.8-3.3,3.8-5.3c1.8,0.3,3.6,0.4,5.4,0.4c4.6,0,10.4-0.9,14.2-3.4V72.2z M74.5,61.7c0,2.2-5.5,5.3-14.2,5.3
	c-1.4,0-2.8-0.1-4.2-0.3c0.4-1.6,0.7-3.3,0.7-5c0-0.7,0-1.3-0.1-2c1.2,0.1,2.4,0.2,3.6,0.2c4.6,0,10.4-0.9,14.2-3.4V61.7z M74.5,51
	c0,2.2-5.5,5.3-14.2,5.3c-1.5,0-2.9-0.1-4.4-0.3c-0.9-3-2.6-5.8-4.8-8c3,0.8,6.1,1.2,9.2,1.2c4.6,0,10.4-0.9,14.2-3.4V51z
	 M74.5,40.5c0,2.2-5.5,5.3-14.2,5.3c-3.6,0.1-7.1-0.6-10.5-1.9c-2.2-1-3.6-2.3-3.6-3.4v-5.3c3.8,2.5,9.5,3.4,14.1,3.4
	s10.4-0.9,14.2-3.4V40.5z M60.3,35.1c-8.6,0-14.1-3.1-14.1-5.3s5.5-5.3,14.1-5.3s14.2,3.1,14.2,5.3S69,35.1,60.3,35.1z"/>
</svg>
