<?xml version="1.0" encoding="utf-8"?>
<!-- Generator: Adobe Illustrator 23.0.3, SVG Export Plug-In . SVG Version: 6.00 Build 0)  -->
<svg version="1.1" id="Layer_1" xmlns="http://www.w3.org/2000/svg" xmlns:xlink="http://www.w3.org/1999/xlink" x="0px" y="0px"
	 viewBox="0 0 100 100" style="enable-background:new 0 0 100 100;" xml:space="preserve">
<style type="text/css">
	.st0{fill:#8E8E8E;}
</style>
<title>quality</title>
<g>
	<g id="Layer_1-2">
		<g id="quality">
			<path class="st0" d="M79.8,21.5c-0.1,0.7-0.2,1.5-0.3,2.2c-0.5,2.2,0.6,4.6,2.6,5.6c0.9,0.5,1.8,1.1,2.6,1.8
				c1.5,1.5,1.8,3.7,0.7,5.5c-0.4,0.7-0.8,1.3-1.3,1.9c-1.3,1.7-1.3,4.1,0,5.9c0.4,0.6,0.9,1.2,1.3,1.9c1.2,2.1,0.6,4.9-1.4,6.3
				c-0.7,0.5-1.4,0.8-2.1,1.3c-1.8,1-2.7,3-2.3,5c0.2,1,0.3,2,0.4,3.1c-0.1,2.4-2.1,4.4-4.6,4.5c-0.7,0-1.3,0.1-2,0.2
				c-1.9,0.2-3.4,1.5-4,3.3c-0.3,0.8-0.5,1.7-0.8,2.5c-0.9,2.4-3.4,3.6-5.8,2.8c-0.8-0.2-1.5-0.6-2.2-0.8c-1.9-0.8-4.1-0.3-5.4,1.3
				c-0.6,0.6-1.1,1.2-1.7,1.8c-1.8,1.7-4.5,1.7-6.4,0.1c-0.5-0.5-1-1.1-1.5-1.6c-1.4-1.7-3.8-2.3-5.9-1.3c-0.7,0.3-1.4,0.6-2.1,0.8
				c-2.4,0.7-4.9-0.5-5.8-2.8c-0.2-0.7-0.5-1.3-0.6-2c-0.5-2.2-2.4-3.7-4.7-3.8c-0.5,0-0.9-0.1-1.4-0.1c-2.7,0.1-4.9-2.1-4.9-4.7
				c0-0.4,0-0.9,0.1-1.3c0.1-0.7,0.2-1.3,0.3-2c0.1-1.8-0.8-3.5-2.3-4.4c-0.8-0.5-1.6-0.9-2.4-1.4c-2-1.4-2.6-4-1.5-6.1
				c0.3-0.6,0.7-1.2,1.1-1.7c1.6-2.3,1.6-4.2,0-6.5c-0.9-1-1.5-2.3-1.7-3.6c-0.1-1.7,0.7-3.3,2.1-4.2c0.6-0.4,1.3-0.8,2-1.2
				c1.8-1,2.8-3.1,2.4-5.2c-0.2-1.2-0.3-2.4-0.2-3.6c0.3-2,1.9-3.6,3.9-3.8c0.7-0.1,1.4-0.1,2.1-0.2c2.2-0.1,4-1.5,4.6-3.6
				c0.1-0.5,0.3-1,0.4-1.4c1-3.3,3.8-4.6,6.9-3.4c0.8,0.3,1.5,0.6,2.3,0.8c1.6,0.4,3.2-0.1,4.3-1.3c0.6-0.6,1.2-1.3,1.8-2
				C48.3,4.3,51.2,4.2,53,6c0.5,0.5,0.9,1,1.4,1.5c1.4,1.8,3.9,2.3,5.9,1.3c1.1-0.5,2.4-0.9,3.6-1c2.1,0,3.9,1.4,4.4,3.4
				c0.2,0.5,0.3,1,0.4,1.5c0.5,2.2,2.6,3.8,4.9,3.8c0.7,0,1.3,0.1,2,0.1C78.1,17,79.9,19.1,79.8,21.5z M50,65.8
				c13.3,0,24.1-10.8,24.1-24.2c0-13.3-10.8-24.1-24.2-24.1c-13.3,0-24.1,10.8-24.1,24.1C25.9,55,36.7,65.7,50,65.8z"/>
			<path class="st0" d="M41.8,79.4c-2.4,4.5-4.8,8.7-7.1,12.9c-0.4,0.8-1.2,1.3-2.1,1.5c-2.7,0.5-5.3,1-8,1.5
				c-1.4,0.3-2.7-0.4-3.2-1.7c-1.1-2.6-2.1-5.2-3.2-7.9c-0.3-0.8-0.2-1.7,0.2-2.4c2-3.6,4-7.2,5.9-10.8c0.3-0.6,0.8-0.5,1.3-0.4
				c0.3,0.1,0.6,0.4,0.7,0.7c0.8,3.3,3.1,6,6.2,7.3c2.3,0.9,4.8,1,7.2,0.1C40.3,80,40.9,79.8,41.8,79.4z"/>
			<path class="st0" d="M75.7,95.3c-1.8-0.3-3.8-0.7-5.9-1.1c-4.2-0.8-3.6-0.3-5.8-4.2c-1.7-3.1-3.4-6.1-5-9.2
				c-0.2-0.4-0.3-0.8-0.3-1.2c0.4,0,0.8,0.1,1.2,0.2c3.3,1.5,7.1,1.1,10.1-1c2.1-1.5,3.6-3.7,4.1-6.2c0.2-0.3,0.4-0.6,0.6-0.9
				c0.3,0.2,0.7,0.4,0.8,0.7c2,3.5,3.9,7,5.8,10.5c0.6,1,0.7,2.2,0.2,3.3c-1,2.3-1.9,4.7-2.8,7C78.4,94.5,77.1,95.4,75.7,95.3z"/>
			<path class="st0" d="M42.6,48.1c0,1.6,0,3.2,0,4.9c0,2-0.6,2.6-2.6,2.6c-1.1,0-2.3,0-3.4,0c-1.5,0.1-2.7-1-2.8-2.5
				c0-0.1,0-0.2,0-0.3c0-3.6,0-7.1,0-10.7c-0.1-1.4,1-2.6,2.4-2.7c0,0,0,0,0,0c1.6-0.1,3.1-0.1,4.7,0c0.5,0.1,0.9,0.2,1.4,0.5
				c1.5-2.1,3.2-4.1,4.5-6.3c1.2-2.1,2.2-4.4,3.1-6.6c0.2-0.6,0.2-1.2,0.2-1.8c0-1.6,0.7-2.1,2.2-1.6c1.5,0.4,2.5,1.8,2.4,3.4
				c-0.1,1.2-0.3,2.5-0.6,3.7c-0.3,1.4-0.7,2.8-0.9,4.2s0.2,1.5,1.5,1.3c2.1-0.6,4.4-0.7,6.6-0.5c0.6,0.1,1.1,0.2,1.6,0.4
				c1.4,0.5,2.2,2.1,1.7,3.5c0,0,0,0,0,0c-0.2,0.5-0.1,1.1,0.2,1.5c0.8,1.1,0.8,2.6-0.1,3.7c-0.3,0.3-0.4,0.8-0.2,1.2
				c0.5,1.3,0.1,2.9-1,3.8c-0.4,0.3-0.5,0.8-0.4,1.2c0.1,1.4-0.6,2.8-1.9,3.4c-1.6,0.8-3.4,1.2-5.2,1.1c-2.1,0-4.2-0.1-6.4-0.2
				c-3.7-0.1-5.2-1.4-6-5c-0.1-0.7-0.3-1.4-0.4-2.1L42.6,48.1z"/>
		</g>
	</g>
</g>
</svg>
