<svg xmlns="http://www.w3.org/2000/svg" viewBox="0 0 89.48 72"><title>Asset 8</title><g id="Layer_2" data-name="Layer 2"><g id="Layer_1-2" data-name="Layer 1"><path d="M89.37,64.93l-6.5-15.17a6.51,6.51,0,0,0-3.13-3.31,6.54,6.54,0,0,0,1.89-4.6V6.55A6.56,6.56,0,0,0,75.06,0H14.42A6.56,6.56,0,0,0,7.87,6.55v35.3a6.5,6.5,0,0,0,1.87,4.6,6.55,6.55,0,0,0-3.15,3.31L.11,64.93a1.31,1.31,0,0,0-.11.52A6.56,6.56,0,0,0,6.56,72H82.92a6.56,6.56,0,0,0,6.56-6.55A1.31,1.31,0,0,0,89.37,64.93ZM10.49,6.55a3.94,3.94,0,0,1,3.93-3.93H75.06A3.94,3.94,0,0,1,79,6.55v35.3a4,4,0,0,1-3.93,3.94H14.42a4,4,0,0,1-3.93-3.94ZM9,50.79a3.92,3.92,0,0,1,3.61-2.38H76.85a3.92,3.92,0,0,1,3.61,2.38l5.72,13.35H3.3Zm42.27,16v2.62H38.19V66.76Zm-48.44,0H35.57v2.62h-29a4,4,0,0,1-3.72-2.65Zm80.07,2.62h-29V66.76H86.63a4,4,0,0,1-3.71,2.62Z"/><path d="M10.39,58.89h5.24a1.31,1.31,0,1,0,0-2.62H12.37l1.13-2.62H76l1.13,2.62H20.87a1.31,1.31,0,1,0,0,2.62H79.09a1.31,1.31,0,0,0,1.21-1.82l-2.25-5.25a1.31,1.31,0,0,0-1.2-.79H12.63a1.31,1.31,0,0,0-1.2.79L9.18,57.07a1.31,1.31,0,0,0,1.21,1.82Z"/><path d="M57.27,15.26a.9.9,0,0,0-.68-.32H33.52l-.65-2.79a.86.86,0,0,0-.85-.67H28.27a.85.85,0,0,0-.87.85.87.87,0,0,0,.87.87h3.06l4.38,19a.87.87,0,0,0,.85.67H53.93a.87.87,0,0,0,0-1.74H37.25l-.67-2.89H54a.87.87,0,0,0,.85-.67L57.43,16A.87.87,0,0,0,57.27,15.26Zm-4,11.23H36.18l-2.27-9.82H55.5Z"/><path d="M40.11,34a3.18,3.18,0,1,0,3.18,3.18A3.18,3.18,0,0,0,40.11,34Zm0,4.62a1.45,1.45,0,0,1,0-2.89,1.45,1.45,0,1,1,0,2.89Z"/><path d="M50.51,34a3.18,3.18,0,1,0,3.19,3.18A3.18,3.18,0,0,0,50.51,34Zm0,4.62A1.45,1.45,0,1,1,52,37.19,1.44,1.44,0,0,1,50.51,38.63Z"/></g></g></svg>