<svg id="Layer_1" data-name="Layer 1" xmlns="http://www.w3.org/2000/svg" viewBox="0 0 100 100"><title>2</title><path d="M45.05,36.59H55.67a.83.83,0,0,0,0-1.65H45.05a.83.83,0,1,0,0,1.65Z"/><path d="M69.27,17H27.61a.83.83,0,0,0-.83.83v9.11h-.32a6.22,6.22,0,0,0-6.2,6.2v30a6.22,6.22,0,0,0,6.2,6.2H48v9.85H37.76a.83.83,0,1,0,0,1.66H60.58a.83.83,0,1,0,0-1.66H49.68V69.29H71.24a6.2,6.2,0,0,0,6.19-6.2V53.23l.13-.11,6.75,6.75a.84.84,0,0,0,.8.22.85.85,0,0,0,.59-.59.84.84,0,0,0-.22-.81L78.73,52a12.91,12.91,0,0,0-.56-17.64c-.24-.23-.48-.46-.74-.68v-.49a6.2,6.2,0,0,0-6.19-6.2H70.1V17.83A.83.83,0,0,0,69.27,17Zm-.83,40.52h-40V28.05h40v2.49a12.9,12.9,0,0,0,0,25.78Zm0-38.87v7.74h-40V18.65Zm-42,10h.32V57.52H21.92V33.14A4.54,4.54,0,0,1,26.46,28.6Zm44.78,39H26.46a4.54,4.54,0,0,1-4.54-4.54V59.18H75.78v3.91A4.55,4.55,0,0,1,71.24,67.63Zm4.54-10.11H70.1V56.28a12.92,12.92,0,0,0,5.68-1.85ZM77,51.38A11.24,11.24,0,1,1,68.44,32.2v0H70a11.23,11.23,0,0,1,6.1,2.45,11.61,11.61,0,0,1,.91.82,11.25,11.25,0,0,1,0,15.89ZM71.24,28.6a4.54,4.54,0,0,1,4.47,3.79,12.69,12.69,0,0,0-5.61-1.82v-2Z"/><path d="M55.67,49H45.05a.83.83,0,0,0,0,1.66H55.67a.83.83,0,0,0,0-1.66Z"/><path d="M32.06,25a2.21,2.21,0,1,0-2.21-2.21A2.21,2.21,0,0,0,32.06,25Zm0-2.76a.55.55,0,0,1,.56.55.56.56,0,0,1-1.11,0A.55.55,0,0,1,32.06,22.24Z"/><path d="M36.21,29.41a6.36,6.36,0,1,0,6.35,6.35A6.35,6.35,0,0,0,36.21,29.41Zm0,11.05a4.7,4.7,0,1,1,4.69-4.7A4.69,4.69,0,0,1,36.21,40.46Z"/><path d="M37.86,25a2.21,2.21,0,1,0-2.21-2.21A2.21,2.21,0,0,0,37.86,25Zm0-2.76a.55.55,0,0,1,.56.55.56.56,0,0,1-1.11,0A.55.55,0,0,1,37.86,22.24Z"/><path d="M43.66,25a2.21,2.21,0,1,0-2.21-2.21A2.2,2.2,0,0,0,43.66,25Zm0-2.76a.55.55,0,0,1,.56.55.56.56,0,0,1-1.11,0A.55.55,0,0,1,43.66,22.24Z"/><path d="M36.21,43.5a6.35,6.35,0,1,0,6.35,6.35A6.35,6.35,0,0,0,36.21,43.5Zm0,11a4.7,4.7,0,1,1,4.69-4.7A4.69,4.69,0,0,1,36.21,54.55Z"/><path d="M45.05,32.45h3.71a.83.83,0,1,0,0-1.66H45.05a.83.83,0,1,0,0,1.66Z"/><path d="M45.05,46.54h3.71a.83.83,0,0,0,0-1.66H45.05a.83.83,0,0,0,0,1.66Z"/><path d="M39.3,35.1l-3.55-2.63a.83.83,0,0,0-1.32.67v5.25a.83.83,0,0,0,.46.74.81.81,0,0,0,.86-.08l3.55-2.62a.81.81,0,0,0,.34-.67A.79.79,0,0,0,39.3,35.1Zm-3.21,1.65v-2l1.33,1Z"/><path d="M39.3,49.18l-3.55-2.62a.83.83,0,0,0-.86-.07.82.82,0,0,0-.46.74v5.25a.85.85,0,0,0,.46.74.81.81,0,0,0,.86-.08l3.55-2.62a.83.83,0,0,0,0-1.34Zm-3.21,1.65v-2l1.33,1Z"/></svg>