<?xml version="1.0" encoding="utf-8"?>
<!-- Generator: Adobe Illustrator 21.0.0, SVG Export Plug-In . SVG Version: 6.00 Build 0)  -->
<svg version="1.1" id="Capa_1" xmlns="http://www.w3.org/2000/svg" xmlns:xlink="http://www.w3.org/1999/xlink" x="0px" y="0px"
	 viewBox="0 0 100 100" style="enable-background:new 0 0 100 100;" xml:space="preserve">
<style type="text/css">
	.st0{fill:#161616;}
</style>
<g>
	<path class="st0" d="M78.7,27.1c-0.1,0-0.3,0-0.3,0C74.1,15.2,62.7,7,50,7s-24.1,8.2-28.3,20.1c-0.1,0-0.3,0-0.3,0
		c-2.4,0-4.3,1.9-4.3,4.3v11.4c0,2.4,1.9,4.3,4.3,4.3s4.3-1.9,4.3-4.3V31.4c0-1.2-0.5-2.3-1.3-3.1C28.1,17.5,38.5,10,50,10
		s21.9,7.5,25.7,18.3c-0.8,0.8-1.3,1.9-1.3,3.1v11.4c0,1.8,1.1,3.4,2.8,4c-0.4,3-2.7,5.2-5.7,5.9c-0.1-1.5-0.9-2.8-2-3.5
		c2.3-3.7,3.5-7.8,3.5-12.1c-0.1-12.7-10.3-23-23-23S27.1,24.5,27.1,37.1S37.3,60,50,60c2.1,0,4.1-0.3,6.1-0.8
		c0.7,0.5,1.6,0.8,2.5,0.8h8.6c2.4,0,4.3-1.9,4.3-4.3v-0.1c4.5-0.6,8-4.2,8.5-8.7c1.7-0.6,3-2.2,3-4.1V31.4
		C82.9,29,81,27.1,78.7,27.1z M22.8,42.8c0,0.8-0.6,1.4-1.4,1.4S20,43.6,20,42.8V31.4c0-0.8,0.6-1.4,1.4-1.4c0.2,0,0.3,0,0.5,0.1
		c0.1,0.1,0.2,0.1,0.3,0.1c0.4,0.3,0.7,0.7,0.7,1.2L22.8,42.8L22.8,42.8z M30,37.1c0-11.1,9-20,20-20s20,9,20,20
		c0,4.1-1.2,8-3.6,11.4h-7.9c-0.9,0-1.7,0.3-2.4,0.7c-1.1,0.8-1.9,2.1-1.9,3.6v2.9c0,0.1,0,0.2,0,0.3l0,0c0,0.3,0.1,0.4,0.1,0.7
		c-1.5,0.3-2.9,0.5-4.4,0.5C38.9,57.2,30,48.2,30,37.1z M68.6,55.8c0,0.8-0.6,1.4-1.4,1.4h-8.6c-0.3,0-0.7-0.2-1-0.4l-0.1-0.1
		c-0.2-0.2-0.3-0.5-0.3-1l0,0v-2.9c0-0.5,0.3-1,0.6-1.2c0.1-0.1,0.2-0.1,0.3-0.2c0.1,0,0.2-0.1,0.3-0.1c0.1,0,0.2,0,0.3,0h8.6l0,0
		c0.8,0,1.4,0.6,1.4,1.4V55.8z M80.1,42.8c0,0.8-0.6,1.4-1.4,1.4s-1.4-0.6-1.4-1.4V31.4c0-0.5,0.3-1,0.7-1.2c0.1,0,0.2-0.1,0.3-0.1
		c0.2-0.1,0.3-0.1,0.5-0.1c0.8,0,1.4,0.6,1.4,1.4L80.1,42.8L80.1,42.8z"/>
	<path class="st0" d="M64.9,62.8H35.1c-9.2,0-16.6,7.4-16.6,16.6v12c0,0.8,0.6,1.4,1.4,1.4h60.1c0.8,0,1.4-0.6,1.4-1.4V79.5
		C81.5,70.3,74,62.8,64.9,62.8z M78.7,90.1L78.7,90.1h-7.2v-8.6c0-0.8-0.6-1.4-1.4-1.4c-0.8,0-1.4,0.6-1.4,1.4v8.6H32.9v-8.6
		c0-0.8-0.6-1.4-1.4-1.4s-1.4,0.6-1.4,1.4v8.6h-8.6V79.5c-0.2-7.6,6-13.8,13.6-13.8h29.7c7.6,0,13.8,6.2,13.8,13.8V90.1z"/>
</g>
</svg>
