<svg id="Layer_1" data-name="Layer 1" xmlns="http://www.w3.org/2000/svg" viewBox="0 0 100 100"><title>3</title><path d="M44.86,60.57H40.61V56.32a1.07,1.07,0,0,0-1.06-1.07H35.3a1.07,1.07,0,0,0-1.07,1.07v4.25H30a1.06,1.06,0,0,0-1.06,1.06v4.25A1.07,1.07,0,0,0,30,66.94h4.25v4.25a1.07,1.07,0,0,0,1.07,1.07h4.25a1.07,1.07,0,0,0,1.06-1.07V66.94h4.25a1.06,1.06,0,0,0,1.06-1.06V61.63A1,1,0,0,0,44.86,60.57ZM43.8,64.82H39.55a1.07,1.07,0,0,0-1.07,1.06v4.25H36.36V65.88a1.07,1.07,0,0,0-1.06-1.06H31.05V62.69H35.3a1.07,1.07,0,0,0,1.06-1.06V57.38h2.12v4.25a1.07,1.07,0,0,0,1.07,1.06H43.8Z"/><path d="M84.07,61.82c-.81-7.32-7.69-14.18-15-15a16.75,16.75,0,0,0-1.87-.11H55.49V42.5H53.36V40.38a4.25,4.25,0,0,0-4.25-4.26H43.8a2.13,2.13,0,1,1,0-4.25h17a4.25,4.25,0,0,0,0-8.5H55.49a2.13,2.13,0,0,1-2.13-2.12V17H51.24v4.25a4.25,4.25,0,0,0,4.25,4.25H60.8a2.13,2.13,0,1,1,0,4.25h-17a4.25,4.25,0,0,0,0,8.5h5.31a2.14,2.14,0,0,1,2.13,2.13V42.5H49.11v4.25H37.42a16.75,16.75,0,0,0-1.87.11c-7.33.79-14.2,7.64-15,15A17,17,0,0,0,46.36,78.22,10.29,10.29,0,0,1,51,76.57a18.52,18.52,0,0,1,2.47,0,10.5,10.5,0,0,1,4.75,1.66,17,17,0,0,0,25.83-16.4ZM51.24,44.63h2.12v2.12H51.24Zm27,29.05a14.86,14.86,0,0,1-18.9,2.73,12.68,12.68,0,0,0-5.72-2c-.45,0-.9-.05-1.35-.05s-1,0-1.44.05a12.4,12.4,0,0,0-5.61,2A14.87,14.87,0,0,1,22.64,62.05c.7-6.29,6.84-12.4,13.13-13.08a13.14,13.14,0,0,1,1.65-.09H67.18a12.88,12.88,0,0,1,1.64.09c6.3.68,12.44,6.79,13.14,13.08A14.73,14.73,0,0,1,78.27,73.68Z"/><path d="M67.18,53.13a4.25,4.25,0,1,0,4.25,4.25A4.25,4.25,0,0,0,67.18,53.13Zm0,6.37a2.13,2.13,0,1,1,2.12-2.12A2.13,2.13,0,0,1,67.18,59.5Z"/><path d="M67.18,65.88a4.25,4.25,0,1,0,4.25,4.25A4.25,4.25,0,0,0,67.18,65.88Zm0,6.38a2.13,2.13,0,1,1,2.12-2.13A2.14,2.14,0,0,1,67.18,72.26Z"/><path d="M59.74,59.5A4.26,4.26,0,1,0,64,63.75,4.25,4.25,0,0,0,59.74,59.5Zm0,6.38a2.13,2.13,0,1,1,2.12-2.13A2.14,2.14,0,0,1,59.74,65.88Z"/><path d="M74.62,59.5a4.26,4.26,0,1,0,4.25,4.25A4.25,4.25,0,0,0,74.62,59.5Zm0,6.38a2.13,2.13,0,1,1,2.12-2.13A2.14,2.14,0,0,1,74.62,65.88Z"/></svg>