<?xml version="1.0" encoding="utf-8"?>
<!-- Generator: Adobe Illustrator 21.0.0, SVG Export Plug-In . SVG Version: 6.00 Build 0)  -->
<svg version="1.1" id="light" xmlns="http://www.w3.org/2000/svg" xmlns:xlink="http://www.w3.org/1999/xlink" x="0px" y="0px"
	 viewBox="0 0 100 100" style="enable-background:new 0 0 100 100;" xml:space="preserve">
<style type="text/css">
	.st0{fill:#161616;}
</style>
<g>
	<path class="st0" d="M89,84.9H78.8V39.2c0-0.9-0.7-1.7-1.7-1.7c-0.9,0-1.7,0.7-1.7,1.7v45.7H51.7v-39c0-0.9-0.7-1.7-1.7-1.7
		s-1.7,0.7-1.7,1.7v39H24.6V69.6c0-0.9-0.7-1.7-1.7-1.7c-0.9,0-1.7,0.7-1.7,1.7v15.2H11c-0.9,0-1.7,0.7-1.7,1.7
		c0,0.9,0.7,1.7,1.7,1.7H89c0.9,0,1.7-0.7,1.7-1.7S89.9,84.9,89,84.9z"/>
	<path class="st0" d="M22.9,61.2C28.5,61.2,33,56.7,33,51c0-2-0.6-3.8-1.5-5.3l12.1-10.5c1.7,1.4,4,2.2,6.4,2.2
		c5.6,0,10.2-4.5,10.2-10.2c0-0.2,0-0.5,0-0.8l7.7-1.9c1.6,3.6,5.1,6,9.3,6c5.6,0,10.2-4.5,10.2-10.2s-4.6-10.1-10.2-10.1
		C71.6,10.3,67,15,67,20.5c0,0.2,0,0.5,0,0.8l-7.7,1.9c-1.6-3.6-5.1-6-9.3-6c-5.6,0-10.2,4.5-10.2,10.2c0,2,0.6,3.8,1.5,5.3
		l-12,10.5c-1.7-1.4-4-2.3-6.4-2.3c-5.6,0-10.2,4.5-10.2,10.2S17.3,61.2,22.9,61.2z M77.1,13.7c3.7,0,6.8,3.1,6.8,6.8
		s-3.1,6.8-6.8,6.8c-3.1,0-5.7-2.1-6.5-5c0-0.1,0-0.1,0-0.2c0-0.1,0-0.1-0.1-0.2c-0.1-0.5-0.2-1-0.2-1.5
		C70.3,16.8,73.3,13.7,77.1,13.7z M50,20.5c3.1,0,5.7,2.1,6.5,5c0,0.1,0,0.1,0,0.2c0,0.1,0,0.1,0.1,0.2c0.1,0.5,0.2,1,0.2,1.5
		c0,3.7-3.1,6.8-6.8,6.8s-6.8-3.1-6.8-6.8S46.3,20.5,50,20.5z M22.9,44.2c3.7,0,6.8,3.1,6.8,6.8s-3.1,6.8-6.8,6.8s-6.8-3.1-6.8-6.8
		S19.1,44.2,22.9,44.2z"/>
</g>
</svg>
