<?xml version="1.0" encoding="utf-8"?>
<!-- Generator: Adobe Illustrator 23.0.3, SVG Export Plug-In . SVG Version: 6.00 Build 0)  -->
<svg version="1.1" id="Layer_1" xmlns="http://www.w3.org/2000/svg" xmlns:xlink="http://www.w3.org/1999/xlink" x="0px" y="0px"
	 viewBox="0 0 100 100" style="enable-background:new 0 0 100 100;" xml:space="preserve">
<style type="text/css">
	.st0{fill:#8E8E8E;}
</style>
<title>growth</title>
<g>
	<g id="Layer_1-2">
		<g id="growth">
			<path class="st0" d="M27.9,46.2l-3.2,3.2c-3.7,3.7-7.4,7.3-11,11.1c-2.6,2.7-5.5,0.8-6.6-1.6c-0.5-1.2-0.2-2.7,0.9-3.5L20.4,43
				l4.9-4.9c1.1-1.4,3.2-1.6,4.6-0.5c0.2,0.1,0.3,0.3,0.5,0.5c5.8,5.8,11.6,11.6,17.4,17.4c0.2,0.2,0.3,0.4,0.5,0.7L79.4,25
				c-0.3-0.3-0.7-0.6-1.1-1c-1.1-1.2-2.3-2.3-3.4-3.4c-0.5-0.4-0.8-1.1-0.6-1.7c0.2-0.7,0.8-1.1,1.6-1.1l4.4-0.2l10.4-0.5
				c1.8-0.1,2.5,0.5,2.4,2.4c-0.2,4.7-0.4,9.4-0.7,14.1c0,0.4-0.1,0.8-0.2,1.1c-0.3,0.8-1.2,1.3-2,1c-0.3-0.1-0.5-0.2-0.7-0.4
				c-1.4-1.3-2.7-2.7-4.1-4l-0.8-0.8c-0.2,0.3-0.4,0.6-0.6,0.9c-11,11-21.9,22-32.9,33c-0.9,1.2-2.5,1.6-3.9,1c-0.5-0.2-1-0.6-1.4-1
				C40.1,58.5,34.3,52.8,28.6,47C28.4,46.8,28.2,46.5,27.9,46.2z"/>
			<path class="st0" d="M84.2,37v51.4c0,2.6-1.2,3.8-3.8,3.8h-6.3c-1.8,0.2-3.4-1.1-3.6-2.9c0-0.2,0-0.5,0-0.7c0-8.6,0-28.8,0-37.4
				c0-0.4,0.1-0.7,0.4-1c4.3-4.3,8.5-8.6,12.8-12.9C83.9,37.3,84,37.1,84.2,37z"/>
			<path class="st0" d="M48.7,7.8c2.2,0,2.2,0,2.3,2.3c0,1.5,0,1.5,1.6,1.8c1.1,0.2,2.2,0.5,3.2,0.9c0.9,0.3,1.1,0.7,0.8,1.6
				s-0.5,1.7-0.7,2.5c-0.3,1.1-0.6,1.2-1.6,0.8c-1.8-0.9-3.9-1.2-5.9-1c-1,0-2,0.7-2.3,1.7c-0.2,1,0.3,2,1.2,2.5
				c1,0.6,2.1,1.1,3.2,1.6c1.3,0.5,2.5,1.2,3.8,1.9c2.6,1.5,4,4.5,3.6,7.5c-0.3,2.8-2.1,5.3-4.8,6.3c-0.4,0.2-0.8,0.3-1.3,0.5
				c-0.6,0.1-1.1,0.7-1,1.4c0,0.8,0,1.5,0,2.3c0,0.6-0.4,1-0.9,1.1c0,0,0,0-0.1,0c-0.8,0-1.6,0-2.4,0c-0.5,0.1-1-0.3-1.1-0.9
				c0-0.1,0-0.2,0-0.2c0-0.6,0-1.2,0-1.8c0.1-0.8-0.3-1.1-1.1-1.3c-1.5-0.3-3-0.7-4.4-1.2c-1.3-0.5-1.4-0.8-1-2.1
				c0.2-0.9,0.5-1.7,0.7-2.6s0.5-0.8,1.3-0.6c1.6,0.6,3.2,1.1,4.8,1.4c1.1,0.1,2.3,0,3.3-0.4c1.3-0.4,2-1.7,1.6-3
				c-0.2-0.5-0.5-1-1-1.3c-0.7-0.5-1.4-0.9-2.2-1.2c-1.5-0.7-3-1.3-4.5-2c-3.6-1.7-5.2-5.9-3.5-9.5c0.8-1.7,2.2-3,3.9-3.7
				c1.8-0.7,2.5-1.6,2.3-3.5c-0.2-1.3,0.2-1.5,1.5-1.5H48.7z"/>
			<path class="st0" d="M27.5,52.6v35.9c0,2.6-1.2,3.8-3.8,3.8h-6.3c-1.8,0.2-3.4-1.1-3.5-2.9c0-0.2,0-0.4,0-0.5
				c0-3.7,0-19.1,0-22.8c0-0.4,0.2-0.8,0.5-1c0.7-0.5,1.4-1,2-1.6c3.4-3.4,6.8-6.8,10.2-10.2c0.2-0.2,0.4-0.5,0.6-0.7L27.5,52.6z"/>
			<path class="st0" d="M64.7,56.8c0.3,0.8,0.5,1.5,0.6,2.3c0.1,6,0,23.7,0,29.7c0.1,1.8-1.3,3.3-3.1,3.3c-0.1,0-0.2,0-0.3,0h-7
				c-1.7,0.1-3.2-1.3-3.3-3c0-0.1,0-0.2,0-0.3c0-2.6,0-16.9,0-19.5c0-0.3,0.2-0.6,0.4-0.8c0.6-0.6,1.3-1,1.9-1.6
				c3.2-3.2,6.4-6.4,9.6-9.6c0.2-0.2,0.4-0.5,0.6-0.7L64.7,56.8z"/>
			<path class="st0" d="M33.4,57.4c0.2,0.3,0.3,0.5,0.6,0.8c3,3,6,6.1,9,9c0.9,0.8,1.8,1.4,2.9,2c0.3,0.2,0.5,0.3,0.5,0.8
				c0,2.4,0,16.5,0,19c0.1,1.7-1.3,3.2-3,3.3c-0.1,0-0.2,0-0.4,0h-6.9c-1.8,0.1-3.3-1.2-3.4-3c0-0.2,0-0.3,0-0.5
				c0-5.9,0-23.6,0-29.5c0-0.6,0.1-1.2,0.3-1.8L33.4,57.4z"/>
		</g>
	</g>
</g>
</svg>
