<svg xmlns="http://www.w3.org/2000/svg" viewBox="0 0 89.48 72"><title>Asset 10</title><g id="Layer_2" data-name="Layer 2"><g id="Layer_1-2" data-name="Layer 1"><path d="M89.37,64.93l-6.5-15.17a6.51,6.51,0,0,0-3.13-3.31,6.54,6.54,0,0,0,1.89-4.6V6.55A6.56,6.56,0,0,0,75.06,0H14.42A6.56,6.56,0,0,0,7.87,6.55v35.3a6.5,6.5,0,0,0,1.87,4.6,6.55,6.55,0,0,0-3.15,3.31L.11,64.93a1.31,1.31,0,0,0-.11.52A6.56,6.56,0,0,0,6.56,72H82.92a6.56,6.56,0,0,0,6.56-6.55A1.31,1.31,0,0,0,89.37,64.93ZM10.49,6.55a3.94,3.94,0,0,1,3.93-3.93H75.06A3.94,3.94,0,0,1,79,6.55v35.3a4,4,0,0,1-3.93,3.94H14.42a4,4,0,0,1-3.93-3.94ZM9,50.79a3.92,3.92,0,0,1,3.61-2.38H76.85a3.92,3.92,0,0,1,3.61,2.38l5.72,13.35H3.3Zm42.27,16v2.62H38.19V66.76Zm-48.44,0H35.57v2.62h-29a4,4,0,0,1-3.72-2.65Zm80.07,2.62h-29V66.76H86.63a4,4,0,0,1-3.71,2.62Z"/><path d="M10.39,58.89h5.24a1.31,1.31,0,1,0,0-2.62H12.37l1.13-2.62H76l1.13,2.62H20.87a1.31,1.31,0,1,0,0,2.62H79.09a1.31,1.31,0,0,0,1.21-1.82l-2.25-5.25a1.31,1.31,0,0,0-1.2-.79H12.63a1.31,1.31,0,0,0-1.2.79L9.18,57.07a1.31,1.31,0,0,0,1.21,1.82Z"/><path d="M56.67,28.9h-.93v-14a.93.93,0,0,0-.27-.65L49.91,8.66a1,1,0,0,0-.66-.28H32.44a.93.93,0,0,0-.93.93V14h-.92a2.78,2.78,0,0,0-2.79,2.78v3.71a2.79,2.79,0,0,0,2.79,2.78h.92V39.1a.93.93,0,0,0,.93.93H54.81a.93.93,0,0,0,.93-.93v-.93h.93a2.79,2.79,0,0,0,2.78-2.78V31.68A2.79,2.79,0,0,0,56.67,28.9Zm.92,2.78v1.09a2.82,2.82,0,0,0-.92-.16H51.1a.92.92,0,0,0-.92.93v.12l-3-2,3-2v.12a.93.93,0,0,0,.92.93h5.57A.92.92,0,0,1,57.59,31.68ZM50.18,11.55,52.57,14H50.18ZM30.59,15.8h5.56a.92.92,0,0,0,.92-.93v-.13l3,2-3,2v-.13a.93.93,0,0,0-.92-.93H30.59a2.84,2.84,0,0,0-.93.16V16.73A.93.93,0,0,1,30.59,15.8Zm0,5.56a.93.93,0,1,1,0-1.85h.92v1.85ZM53.88,38.17H33.37V19.51h1.85v.93a.93.93,0,0,0,1.44.77l5.62-3.71a.92.92,0,0,0,.42-.77.94.94,0,0,0-.42-.78l-5.62-3.7a.92.92,0,0,0-1.44.77V14H33.37V10.24h15v4.63a.93.93,0,0,0,.93.93h4.63V28.9H52V28a.93.93,0,0,0-1.44-.77L45,30.91a.92.92,0,0,0,0,1.54l5.56,3.71A.92.92,0,0,0,52,35.39v-.93h1.85Zm2.79-1.85h-.93V34.46h.93a.93.93,0,0,1,0,1.86Z"/><path d="M43.69,19.51h5.56a.93.93,0,0,0,0-1.86H43.69a.93.93,0,0,0,0,1.86Z"/><path d="M43.69,23.22h5.56a.93.93,0,1,0,0-1.86H43.69a.93.93,0,1,0,0,1.86Z"/><path d="M41.77,28.9H36.15a.93.93,0,1,0,0,1.86h5.62a.93.93,0,0,0,0-1.86Z"/><path d="M41.77,32.61H36.15a.93.93,0,1,0,0,1.85h5.62a.93.93,0,1,0,0-1.85Z"/><path d="M36.15,27.05h13.1a.93.93,0,0,0,0-1.86H36.15a.93.93,0,0,0,0,1.86Z"/></g></g></svg>