<svg id="Layer_1" data-name="Layer 1" xmlns="http://www.w3.org/2000/svg" viewBox="0 0 100 100"><defs><style>.cls-1{stroke:#fff;stroke-miterlimit:10;stroke-width:0.03px;}</style></defs><title>4</title><path class="cls-1" d="M26.66,21.2l6.46,4.69c.27-.68.49-1.33.79-1.94.12-.25.39-.58.61-.59a1.14,1.14,0,0,1,.79.45c.78,1.11,1.51,2.25,2.26,3.38.12.19.25.37.42.6a13.83,13.83,0,0,1,.91-1.5c.22-.29.58-.67.85-.65s.6.46.72.78c.6,1.57,1.14,3.17,1.72,4.81l.58-.28c.82-.4,1.33-.1,1.26.8-.12,1.46-.26,2.91-.4,4.36-.06.62-.14,1.24-.21,1.89,1.11-.48,1.51-.31,1.63.86s.07,2.32.08,3.49a5.34,5.34,0,0,1-.07.71c.08,0,.11.09.14.09,1.25.11,1.53.37,1.09,1.57-.56,1.54-1.33,3-2,4.5-.08.17-.21.31-.3.48a11.41,11.41,0,0,1-5,5.23,4.41,4.41,0,0,0-1.27,1.31,2.83,2.83,0,0,0-.32,3.29,15.47,15.47,0,0,1,1.24,5.59,5.15,5.15,0,0,1-.62,3,2.75,2.75,0,0,1-1,1.07,1.12,1.12,0,0,0-.71,1.31c.05.52,0,1,0,1.57a.89.89,0,0,1-.53,1c-.13.07-.21.36-.21.55,0,2.07,0,4.14-.07,6.2,0,1.27,0,1.3-1.28,1.47-.18,1-.37,2-.55,3s-.29,1-1.17,1c-2.42,0-1.95.32-2.85-2-.17-.43-.34-.85-.49-1.29s-.33-1-1.08-.93c-.2,0-.52-.43-.63-.72s-.22-.92-.41-1.4c-.09.42-.18.84-.26,1.27a1,1,0,0,1-1.05.92.78.78,0,0,0-.54.42c-.42,1-.79,2-1.16,3a1,1,0,0,1-1.09.73q-.72,0-1.44,0c-.63,0-.9-.26-1-.86-.14-1-.33-1.89-.5-2.83,0-.14-.08-.28-.11-.4-1.14-.13-1.23-.22-1.23-1.38V73.13c-.76-.16-.84-.68-.79-1.29,0-.25,0-.5,0-.75A1.92,1.92,0,0,0,17,69c-1.33-.82-1.46-2.37-1.42-3.81a19.67,19.67,0,0,1,1.55-6.54A1.8,1.8,0,0,0,16.94,57c-.8-1.64-2.23-2.52-3.63-3.49a5.55,5.55,0,0,1-1.43-1.43,29.3,29.3,0,0,1-3.7-6.8,6.93,6.93,0,0,1-.26-1c-.13-.76.11-1,.87-1.09l.33,0c0-1.08,0-2.12,0-3.16a7.48,7.48,0,0,1,.14-1.24c.23-1.07.59-1.24,1.63-.73-.1-1-.21-1.85-.3-2.76-.11-1.14-.23-2.28-.28-3.43a1.23,1.23,0,0,1,.36-.94c.19-.13.64,0,.94.16a7.18,7.18,0,0,1,1,.61,16.44,16.44,0,0,1,.16-1.82,8.22,8.22,0,0,1,.55-1.91c.38-.82.78-.87,1.54-.36l.46.28c.15-1.09.3-2.13.45-3.17.05-.4.09-.79.15-1.18.11-.7.48-1,1.15-.73,1.41.49,2.8,1,4.18,1.55-.14-.57-.28-1.25-.48-1.93a1,1,0,0,1,.39-1.19h.38l4.2,2.16c.21-.77-.24-1.63.56-2.16ZM43.91,39.65l-.21,0a2.9,2.9,0,0,1-.64.48c-.26.12-.66.27-.82.15a1.08,1.08,0,0,1-.35-.83c.08-1,.25-2.07.37-3.11.14-1.21.25-2.43.38-3.68-1.12.37-1.27.29-1.62-.68-.05-.15-.12-.31-.17-.46l-1.3-3.69c-.34.57-.6,1-.89,1.48-.39.6-.89.62-1.3,0s-.78-1.18-1.18-1.78-.91-1.37-1.41-2.14l-.53,1.33a.78.78,0,0,0-.05.18c-.1.95-.48,1.11-1.28.53l-5.15-3.78c-.17-.13-.35-.25-.61-.43V24c0,1.17-.39,1.41-1.41.89l-3.35-1.69c0,.23.05.38.08.51a12.19,12.19,0,0,0,1.26,3.7.68.68,0,0,1-.29,1.1c-.51.19-.73-.15-.93-.57a4.37,4.37,0,0,0-.7-1.1,9.47,9.47,0,0,0-4.64-2.59c-.22,1.6-.43,3.15-.65,4.7-.12.81-.59,1-1.28.56l-.88-.6c0,.1-.1.15-.1.21-.07,1.16-.11,2.32-.21,3.48a1.49,1.49,0,0,1-.33,1c-.17.13-.64,0-.93-.16a8.29,8.29,0,0,1-1.09-.67c.09.9.16,1.66.24,2.43.16,1.43.36,2.86.48,4.29a1,1,0,0,1-.36.83c-.16.11-.56,0-.82-.16a3.48,3.48,0,0,1-.66-.5l-.2.1c.1,1.2.17,2.4.3,3.6.11.91-.07,1.19-1,1.23a3.66,3.66,0,0,0-.37,0,7.44,7.44,0,0,0,.39,1.07c1.06,1.91,2.11,3.83,3.26,5.69A9.91,9.91,0,0,0,14.6,53c-.08-1-.18-1.89-.21-2.77s0-1.63,0-2.45c0-1.21,0-1.22,1.18-1.35,0,0,.06-.05.11-.09l-1.05-3.53c-.13-.45-.46-1,0-1.33.29-.19.82,0,1.31,0A9.94,9.94,0,0,1,16,40c0-.29.21-.7.43-.79a1.11,1.11,0,0,1,.87.25c.52.4,1,.87,1.51,1.36l.59-1c.58-1,1-1,1.71-.18.57.62,1.14,1.24,1.78,1.92a4.53,4.53,0,0,1,.21-.92c.15-.32.33-.81.57-.86a1.46,1.46,0,0,1,1,.41c.62.54,1.18,1.15,1.78,1.75a12.53,12.53,0,0,1,.88-1c1-1,2-2,3.15-2.84a4.67,4.67,0,0,1,1.89-.75,1.62,1.62,0,0,1,1.82,1c.34.83.75,1.63,1.17,2.52.58-.53,1-1,1.51-1.35.27-.2.72-.42,1-.32s.37.58.42.92a10.93,10.93,0,0,1,0,1.53c.24-.15.34-.26.45-.27.27,0,.65-.12.8,0s.19.54.23.82a1.09,1.09,0,0,1-.11.42l-1.1,3.71c1.31.23,1.35.23,1.3,1.57-.07,1.69.35,3.43-.42,5.09A5.21,5.21,0,0,0,41,51.74c1.15-1.76,2.2-3.6,3.24-5.42A13,13,0,0,0,45,44.54c-1.4-.1-1.47-.22-1.32-1.55C43.8,41.88,43.83,40.76,43.91,39.65ZM24.19,41.74a6.72,6.72,0,0,1-.24,1c-.15.32-.33.78-.59.85s-.67-.22-.92-.46c-.72-.71-1.39-1.48-2.08-2.22l-.08.06L19.62,42c-.39.61-.77.66-1.33.18l-.91-.82c-.41.8.56,2.12-1.1,2.29l.77,2.57c.38,1.28.23,1.48-1.12,1.54a.66.66,0,0,0-.15.05,15.13,15.13,0,0,0,.05,3.93A15.45,15.45,0,0,0,21,59.64,9.26,9.26,0,0,0,32.69,60a16,16,0,0,0,5.49-7.73c.55-1.48.15-3,.27-4.5l-.4,0c-1.06,0-1.29-.34-1-1.37s.55-1.83.83-2.76c-.81-.05-1-.24-1-1,0-.4,0-.81,0-1.36-.45.41-.76.71-1.09,1-.5.42-.88.36-1.24-.19-.2-.3-.38-.62-.56-.93-.45.77-.81,1.5-1.26,2.17A29.14,29.14,0,0,1,26,49.85a.73.73,0,0,1-.67.06,1,1,0,0,1-.35-.66,1.45,1.45,0,0,1,.16-.65c.55-1.65,1.11-3.3,1.66-4.91C25.55,43.46,25.15,42.28,24.19,41.74ZM34.91,71.67V61c-.31.34-.52.59-.74.84L27.8,69.11c-.71.82-.94.81-1.66,0-1.5-1.77-3-3.54-4.49-5.3L19.26,61v10.7Zm-.75,8.15V73.11H20v6.7h5.46c.27-1.25.52-2.47.78-3.7.11-.54.1-1.27.84-1.25s.69.72.8,1.24c.26,1.24.51,2.48.76,3.72ZM27,68l5.24-6a11,11,0,0,1-10.34,0Zm0-20.84a19.57,19.57,0,0,0,4.7-4.69,6,6,0,0,0,1.23-3.1c0-.71-.23-1-.86-.64-1.43.7-2.79,1.49-3.3,3.18-.28.95-.64,1.89-1,2.84ZM17.86,60.75l-.08,0c-.1.33-.22.65-.3,1a10.65,10.65,0,0,0-.47,5A1.8,1.8,0,0,0,17.86,68ZM36.33,68c1.58-1,.91-5.32,0-7.22ZM30.26,81.23c.33.87.6,1.68,1,2.45.08.17.45.26.7.29s.45-.11.47-.22c.18-.83.31-1.66.46-2.52ZM21.83,84c.35-.07.91,0,1-.24a25.35,25.35,0,0,0,1-2.56H21.3c.13.77.26,1.51.39,2.24A5.57,5.57,0,0,0,21.83,84Z"/><path class="cls-1" d="M33.67,51.05a2.46,2.46,0,0,1-2.28,2.58,2.57,2.57,0,0,1-.05-5.11A2.46,2.46,0,0,1,33.67,51.05Zm-2.89-1a1,1,0,1,0,2.06,0,1.06,1.06,0,0,0-1.05-1.15A1.08,1.08,0,0,0,30.78,50Z"/><path class="cls-1" d="M24.92,51.1a2.44,2.44,0,0,1-2.33,2.53,2.57,2.57,0,0,1,.05-5.11A2.45,2.45,0,0,1,24.92,51.1ZM24.11,50A1,1,0,1,0,22,50a1.07,1.07,0,0,0,1.09,1.12A1.12,1.12,0,0,0,24.11,50Z"/><path class="cls-1" d="M84.87,53.17c-.33.81-.72,1.6-1,2.43-.76,2.5-1.46,5-2.19,7.54a1.21,1.21,0,0,1-.21.49,10.22,10.22,0,0,1-.84.63c-.21-.28-.55-.55-.6-.86-.16-1-.22-2-.32-3.11l-2.13,1c.3,1.29.65,2.53.87,3.79a7.8,7.8,0,0,1-.58,5.52,6.46,6.46,0,0,1-1.64,1.7,1.38,1.38,0,0,0-.54,1.8c.27.61.58,1.21.87,1.81.37.78.32,1-.31,1.64a11.18,11.18,0,0,1-3.47,2.2,1.29,1.29,0,0,0-.66.7c-.49,1.43-.91,2.88-1.35,4.33-.29.92-.38,1-1.37,1-.14,0-.27,0-.41,0-.65,0-1-.27-1-.93-.15-1.32-.35-2.64-.63-4-.18,1.33-.38,2.66-.53,4a.87.87,0,0,1-1,.89h-.4c-1,0-1.12-.07-1.41-1-.42-1.37-.84-2.72-1.23-4.09a1.21,1.21,0,0,0-.84-.91,9.27,9.27,0,0,1-3.56-2.17c-.65-.63-.71-.91-.33-1.7l1-2a1,1,0,0,0-.46-1.49,5.15,5.15,0,0,1-2.45-4.61,16.18,16.18,0,0,1,.81-5.39c.1-.34.2-.68.32-1.05L54.83,60.1c-.11,1.07-.23,2.1-.32,3.13,0,.47-.12,1-.66,1s-.73-.38-.9-.82a52,52,0,0,1-3.47-17.65,20,20,0,0,1,1.66-8.84A11.7,11.7,0,0,1,58,30.58a30,30,0,0,1,13.38-1.13c.67.08,1.05,0,1.18-.71a5.58,5.58,0,0,1,.34-.94c.32-.87.5-1,1.44-.75.25-1.55.49-3.1.73-4.65.08-.49.21-1,.8-1,.27,0,.54.25.77.36.76-.81,1.51-1.66,2.32-2.44a6.52,6.52,0,0,1,1.35-1c.59-.35,1.08-.11,1.25.56.09.34.15.69.21,1a19.35,19.35,0,0,1,2.44-.24c2.5.07,4,1.6,4.87,3.75a15.13,15.13,0,0,1,1.11,6.26A69.73,69.73,0,0,0,92,46.12a25.33,25.33,0,0,1,.6,7.42,10.19,10.19,0,0,1-2.73,6.23c-.58.65-1,.61-1.5-.1a19,19,0,0,1-3.12-6c0-.14-.1-.28-.16-.43ZM60.64,45.54l.13.05c.63-1.09,1.18-2.24,1.89-3.26s1-2.09-.19-3.08a1,1,0,0,1,0-.92.6.6,0,0,1,1,0,6.83,6.83,0,0,1,1,1.16,17.27,17.27,0,0,1,2.21,7.14c.11.78.18,1.58.27,2.37,1.77-3,3.6-6,3.87-9.54a.7.7,0,1,1,1.4.12c-.06.66-.19,1.32-.28,2,0,.24-.13.53,0,.71.6,1.13,1.24,2.23,1.87,3.34.22-1.69.31-3.33.38-5,0-.46.18-.89.67-.93s.72.34.82.8c.21,1,.43,2,.65,3q.63,2.85,1.24,5.7a.69.69,0,0,0,.23-.41c.18-1.14.31-2.29.56-3.42.06-.29.46-.5.7-.75.24.25.49.5.71.77.06.07,0,.21,0,.33q.61,6.44,1.24,12.88c0,.45.1.89.15,1.33a.43.43,0,0,0,.21-.3c.61-2.67,1.34-5.31,1.79-8a28.19,28.19,0,0,0-.27-11.85,10.89,10.89,0,0,0-8.58-8.37,30.86,30.86,0,0,0-14.08,0,10.64,10.64,0,0,0-8,6.69,18.61,18.61,0,0,0-1.17,5.11,40.7,40.7,0,0,0,1.51,14.26c.22.84.48,1.68.73,2.51l.12,0Q54,53.5,54.63,47.05a10,10,0,0,1,.19-1.66c.09-.3.44-.53.67-.79a5.11,5.11,0,0,1,.74.73,2,2,0,0,1,.14.71c.17,1.08.34,2.17.52,3.25.74-2.92,1.37-5.83,2-8.74.1-.47.29-.91.83-.87s.64.52.66,1C60.46,42.3,60.55,43.92,60.64,45.54ZM89.15,58.33a8.68,8.68,0,0,0,2-4.33,25.39,25.39,0,0,0-.62-8,70.54,70.54,0,0,1-1.72-14.55c0-1.73-.18-3.46-.36-5.18a8.64,8.64,0,0,0-.6-2.17c-1-2.62-2.86-3.49-5.6-2.73-1.42.4-1.55.32-1.85-1.08,0,0,0-.06-.12-.14A10.36,10.36,0,0,0,77.7,23c-.33.52-.62,1.06-1.39.74l-.6,3.86a6.64,6.64,0,0,0,.79,0c1.93-.24,2.71.17,3.66,1.9a2.44,2.44,0,0,0,.83.94c.19.11.59-.15.9-.25,1.31-.41,2.14.19,2.17,1.57a2,2,0,0,1,0,.6c-.29,1-.62,2.08-.91,3.12a1.18,1.18,0,0,0,0,.74A23.4,23.4,0,0,1,85,47.47c-.06,1.08-.15,2.16-.23,3.26,1-.47,1.26-.31,1.44.75l.06.33A15.89,15.89,0,0,0,89.15,58.33Zm-13.72-12a3.09,3.09,0,0,0,.07,2.14A4,4,0,0,1,75,52.64a2.59,2.59,0,0,1-4.35,0,4.27,4.27,0,0,1-.74-3.42,3.44,3.44,0,0,1,2.61-2.92L71.3,44.16c-1.41,2.48-2.79,4.94-4.18,7.39-.22.37-.53.82-1,.58a1.46,1.46,0,0,1-.54-1c-.18-1.54-.23-3.1-.44-4.64-.18-1.33-.51-2.63-.77-3.95h-.22l-2.23,3.9a2.81,2.81,0,0,1,2.05,1,4.46,4.46,0,0,1,0,5.5,2.6,2.6,0,0,1-4.24-.17,4.45,4.45,0,0,1-.62-3.87,14.14,14.14,0,0,0,.18-2.45l-.22,0c0,.14-.08.27-.11.41-.47,2.17-1,4.34-1.41,6.52-.1.45-.3.85-.79.84s-.66-.43-.73-.89-.19-1.15-.29-1.76c-.07.08-.12.11-.13.15-.21,2.12-.42,4.24-.6,6.37a.71.71,0,0,0,.34.56,22.36,22.36,0,0,0,3.5,1.58,33.46,33.46,0,0,0,14.29.65A15.84,15.84,0,0,0,79,59a.8.8,0,0,0,.49-1c-.12-.63-.13-1.28-.19-1.92-.14-1.49-.29-3-.44-4.48a8.8,8.8,0,0,0-.43,1.79c-.07.43-.29.87-.73.78a1.33,1.33,0,0,1-.75-.79,18.9,18.9,0,0,1-.45-2C76.17,49.7,75.8,48,75.43,46.33ZM74.11,72.9V65.83a3.56,3.56,0,0,1-4-2.84.47.47,0,0,0-.35-.28c-1.74,0-3.47,0-5.25,0a3.56,3.56,0,0,1-3.86,3.14V72.9ZM59.33,76.44c3.4,3.73,12.86,3.72,15.92,0-.26-.54-.5-1.12-.82-1.65a.89.89,0,0,0-.64-.39c-4.34,0-8.67,0-13,0a.8.8,0,0,0-.57.31C59.88,75.25,59.61,75.86,59.33,76.44ZM75.59,71a3.24,3.24,0,0,0,1.48-2.21c.48-2.45-.18-4.75-.89-7-.5-.06-.6.17-.6.58,0,1.27,0,2.54,0,3.8ZM59.18,71c0-3.06,0-6,0-8.86,0-.17-.27-.34-.5-.6a16.27,16.27,0,0,0-1.1,6.33A3.78,3.78,0,0,0,59.18,71ZM73.7,29.78c2.48.58,4.81,1.31,6.66,3.1l.49-.41a27.88,27.88,0,0,1-2-2.45,1.76,1.76,0,0,0-2-1.08c-.9.06-1.8,0-2.81,0ZM61.27,48.24a1.36,1.36,0,1,0,1.37-1.35A1.38,1.38,0,0,0,61.27,48.24ZM74.11,62.18l-1.32.19-1.21.21a1.9,1.9,0,0,0,2.53,1.71ZM60.66,64.31A1.87,1.87,0,0,0,63,62.52l-2.36-.37Zm10,16-1.77.25.51,3.34h.15ZM65.34,84l.14,0,.43-3.37-1.73-.21Zm7.51-37a1.19,1.19,0,0,0-.68,1.26,1.31,1.31,0,0,0,1,1.17,1,1,0,0,0,1.15-.26Zm9.59-13.91-1,.82.55.64Z"/></svg>