<?xml version="1.0" encoding="utf-8"?>
<!-- Generator: Adobe Illustrator 21.0.0, SVG Export Plug-In . SVG Version: 6.00 Build 0)  -->
<svg version="1.1" id="Layer_1" xmlns="http://www.w3.org/2000/svg" xmlns:xlink="http://www.w3.org/1999/xlink" x="0px" y="0px"
	 viewBox="0 0 100 100" style="enable-background:new 0 0 100 100;" xml:space="preserve">
<style type="text/css">
	.st0{fill:#161616;}
</style>
<g id="time">
	<path class="st0" d="M88.4,24.3H73.1c-3.9-12.8-17.5-19.9-30.2-16c-7.7,2.4-13.7,8.4-16,16H11.6c-2.4,0-4.2,1.9-4.2,4.2v45.6
		c0,2.4,1.9,4.2,4.2,4.2h28.2l-1,5.7h-1.7c-0.4,0-0.9,0.2-1.1,0.5l-4.2,5.7c-0.4,0.6-0.4,1.5,0.3,2c0.3,0.2,0.5,0.3,0.9,0.3h34.2
		c0.8,0,1.4-0.6,1.4-1.4c0-0.3-0.1-0.6-0.3-0.9L64,84.6c-0.3-0.4-0.7-0.5-1.1-0.5h-1.7l-1-5.7h28.2c2.4,0,4.2-1.9,4.2-4.2V28.6
		C92.7,26.3,90.8,24.3,88.4,24.3z M28.8,30.1c0.2-2.7,0.9-5.5,2.1-8l3.6,2.1l1.4-2.5l-3.7-2.1c1.6-2.3,3.5-4.3,5.8-5.8l2.1,3.7
		l2.5-1.4l-2.1-3.6c2.5-1.2,5.2-1.9,8-2.1v4.2h2.8v-4.4c2.7,0.2,5.5,0.9,8,2.1l-2.1,3.6l2.5,1.4l2.1-3.7c2.3,1.6,4.3,3.5,5.8,5.8
		l-3.5,2.3l1.4,2.5l3.6-2.1c1.2,2.5,1.9,5.2,2.1,8H67v2.8h4.2c-0.2,2.7-0.9,5.5-2.1,8l-3.6-2.1l-1.4,2.5l3.7,2.1
		c-1.6,2.3-3.5,4.3-5.8,5.8l-2.1-3.7l-2.5,1.4l2.1,3.6c-2.5,1.2-5.2,1.9-8,2.1v-4.2h-2.8v4.2c-2.7-0.2-5.5-0.9-8-2.1l2.1-3.6
		l-2.5-1.4l-2.1,3.7c-2.3-1.6-4.3-3.5-5.8-5.8l3.7-2.1l-1.4-2.5L31,40.9c-1.2-2.5-1.9-5.2-2.1-8h4.2v-2.8H28.8z M62.1,87l2.1,2.8
		H35.8l2.1-2.8H62.1z M41.7,84.1l1-5.7h14.6l1,5.7H41.7z M89.8,74.1c0,0.8-0.6,1.4-1.4,1.4H11.6c-0.8,0-1.4-0.6-1.4-1.4v-4.2h79.7
		C89.8,69.9,89.8,74.1,89.8,74.1z M89.8,67H10.2V28.6c0-0.8,0.6-1.4,1.4-1.4h14.6c-0.3,1.4-0.4,2.8-0.4,4.2
		c0,13.4,10.8,24.2,24.2,24.2s24.2-10.8,24.2-24.2c0-1.4-0.2-2.8-0.4-4.2h14.6c0.8,0,1.4,0.6,1.4,1.4V67z"/>
	<path class="st0" d="M49.3,32.7c0.4,0.3,1,0.3,1.4,0l10-5.7l-1.4-2.5L51.4,29V17.2h-2.8v14.3C48.6,31.9,48.9,32.5,49.3,32.7z"/>
	<path class="st0" d="M13,61.4h22.7v2.8H13V61.4z"/>
	<path class="st0" d="M69.9,50h2.8v2.8h-2.8V50z"/>
	<path class="st0" d="M64.2,55.6H87v2.8H64.2V55.6z"/>
	<path class="st0" d="M64.2,61.4H87v2.8H64.2V61.4z"/>
	<path class="st0" d="M75.7,50H87v2.8H75.7V50z"/>
	<path class="st0" d="M27.3,50h2.8v2.8h-2.8V50z"/>
	<path class="st0" d="M13,55.6h22.7v2.8H13V55.6z"/>
	<path class="st0" d="M13,50h11.4v2.8H13V50z"/>
</g>
</svg>
