<?xml version="1.0" encoding="utf-8"?>
<!-- Generator: Adobe Illustrator 24.3.0, SVG Export Plug-In . SVG Version: 6.00 Build 0)  -->
<svg version="1.1" id="Layer_1" xmlns="http://www.w3.org/2000/svg" xmlns:xlink="http://www.w3.org/1999/xlink" x="0px" y="0px"
	 viewBox="0 0 667.8 541.7" style="enable-background:new 0 0 667.8 541.7;" xml:space="preserve">
<style type="text/css">
	.st0{fill:#E2EDFD;}
	.st1{fill:#2C4481;}
	.st2{fill:none;stroke:#FFFFFF;stroke-width:0.764;stroke-linecap:round;stroke-linejoin:round;stroke-miterlimit:10;}
	.st3{fill:#0093ED;}
	.st4{fill:none;stroke:#FFFFFF;stroke-width:1.3;stroke-linecap:round;stroke-linejoin:round;stroke-miterlimit:10;}
	.st5{fill:#EE54A1;}
	.st6{fill:none;stroke:#FFFFFF;stroke-width:2.1361;stroke-linecap:round;stroke-linejoin:round;stroke-miterlimit:10;}
	.st7{fill:#FFFFFF;}
	.st8{fill:#FF9243;}
	.st9{font-family:'ArialMT';}
	.st10{font-size:18.6896px;}
	.st11{fill:none;stroke:#000000;stroke-width:1.3;stroke-linecap:round;stroke-linejoin:round;stroke-miterlimit:10;}
	.st12{fill:none;stroke:#000000;stroke-width:0.75;stroke-miterlimit:10;}
	.st13{fill:none;stroke:#FFFFFF;stroke-width:1.0186;stroke-linecap:round;stroke-linejoin:round;stroke-miterlimit:10;}
	.st14{fill:#FDC0AE;}
	.st15{fill:#323441;}
	.st16{fill:#1D3570;}
	.st17{clip-path:url(#SVGID_2_);}
	.st18{fill:#E71115;}
	.st19{fill:none;stroke:#000000;stroke-width:0.5111;stroke-linecap:round;stroke-linejoin:round;stroke-miterlimit:10;}
</style>
<g>
	<g>
		<g>
			<g>
				<path class="st0" d="M358,531.9H162.2c-15.7,0-28.5-12.7-28.5-28.5V65c0-15.7,12.7-28.5,28.5-28.5H358
					c15.7,0,28.5,12.7,28.5,28.5v438.5C386.4,519.2,373.7,531.9,358,531.9z"/>
				<g>
					<path class="st1" d="M358,46.3c10.3,0,18.7,8.4,18.7,18.7v438.5c0,10.3-8.4,18.7-18.7,18.7H162.2c-10.3,0-18.7-8.4-18.7-18.7
						V65c0-10.3,8.4-18.7,18.7-18.7H358 M358,36.5H162.2c-15.7,0-28.5,12.7-28.5,28.5v438.5c0,15.7,12.7,28.5,28.5,28.5H358
						c15.7,0,28.5-12.7,28.5-28.5V65C386.4,49.3,373.7,36.5,358,36.5L358,36.5z"/>
				</g>
				<g>
					<g>
						<path class="st1" d="M306.7,47.5v4.2h-93.3v-4.2H306.7 M316.5,37.8H203.7v15.4c0,4.6,3.7,8.3,8.3,8.3h96.3
							c4.6,0,8.3-3.7,8.3-8.3L316.5,37.8L316.5,37.8z"/>
					</g>
				</g>
				<line class="st2" x1="239.1" y1="47.6" x2="282.3" y2="47.6"/>
			</g>
			<g>
				<g>
					<path class="st1" d="M307.3,477.5H174.1c-4.4,0-7.9-3.5-7.9-7.9v-112c0-4.4,3.5-7.9,7.9-7.9h133.2c4.4,0,7.9,3.5,7.9,7.9v111.9
						C315.2,473.9,311.7,477.5,307.3,477.5z"/>
					<g>
						<path class="st3" d="M221.5,405.2h-31.3c-1.7,0-3.2-1.4-3.2-3.2v-31.3c0-1.7,1.4-3.2,3.2-3.2h31.3c1.7,0,3.2,1.4,3.2,3.2V402
							C224.7,403.8,223.3,405.2,221.5,405.2z"/>
						<line class="st4" x1="237.5" y1="379.5" x2="271.5" y2="379.5"/>
						<line class="st4" x1="237.5" y1="391.6" x2="292.4" y2="391.6"/>
						<line class="st4" x1="187.1" y1="420.9" x2="224.7" y2="420.9"/>
						<line class="st4" x1="187.1" y1="433.4" x2="292.4" y2="433.4"/>
						<line class="st4" x1="187.1" y1="447.2" x2="292.4" y2="447.2"/>
					</g>
				</g>
				<g>
					<ellipse class="st5" cx="81.1" cy="159.1" rx="30.2" ry="30.2"/>
					<polyline class="st6" points="68.9,160.5 78.3,167.5 94.6,150.7 					"/>
				</g>
				<g>
					<path class="st3" d="M200.3,322.6H96.5c-2.9,0-5.2-2.3-5.2-5.2v-73.2c0-2.9,2.3-5.2,5.2-5.2h103.9c2.9,0,5.2,2.3,5.2,5.2v73.2
						C205.5,320.3,203.2,322.6,200.3,322.6z"/>
					<g>
						<path class="st7" d="M166,274c0-10-8.1-18-18-18c-10,0-18,8.1-18,18c0,3.3,0.9,6.4,2.5,9.1l0,0l0.1,0.1
							c0.7,1.2,1.5,2.2,2.4,3.2l13.1,17.3l13.1-17.3c0.9-1,1.8-2.1,2.5-3.3l0,0l0,0C165.1,280.4,166,277.3,166,274z M148,281.9
							c-4.4,0-7.9-3.6-7.9-7.9s3.6-7.9,7.9-7.9c4.4,0,7.9,3.6,7.9,7.9S152.3,281.9,148,281.9z"/>
					</g>
				</g>
				<g>
					<path class="st7" d="M349.3,226.7H170.8c-4.4,0-7.9-3.5-7.9-7.9V106.9c0-4.4,3.5-7.9,7.9-7.9h178.6c4.4,0,7.9,3.5,7.9,7.9
						v111.9C357.2,223.2,353.7,226.7,349.3,226.7z"/>
					<g>
						<g>
							<path class="st1" d="M209,162.4h-27.5c-1.5,0-2.8-1.2-2.8-2.8v-27.5c0-1.5,1.2-2.8,2.8-2.8H209c1.5,0,2.8,1.2,2.8,2.8v27.5
								C211.8,161.1,210.6,162.4,209,162.4z"/>
							<path class="st1" d="M251.1,162.4h-27.5c-1.5,0-2.8-1.2-2.8-2.8v-27.5c0-1.5,1.2-2.8,2.8-2.8h27.5c1.5,0,2.8,1.2,2.8,2.8
								v27.5C253.8,161.1,252.6,162.4,251.1,162.4z"/>
							<path class="st1" d="M293.1,162.4h-27.5c-1.5,0-2.8-1.2-2.8-2.8v-27.5c0-1.5,1.2-2.8,2.8-2.8h27.5c1.5,0,2.8,1.2,2.8,2.8
								v27.5C295.9,161.1,294.6,162.4,293.1,162.4z"/>
							<path class="st5" d="M335.1,162.4h-27.5c-1.5,0-2.8-1.2-2.8-2.8v-27.5c0-1.5,1.2-2.8,2.8-2.8h27.5c1.5,0,2.8,1.2,2.8,2.8
								v27.5C337.9,161.1,336.7,162.4,335.1,162.4z"/>
						</g>
						<g>
							<path class="st1" d="M209,206.9h-27.5c-1.5,0-2.8-1.2-2.8-2.8v-27.5c0-1.5,1.2-2.8,2.8-2.8H209c1.5,0,2.8,1.2,2.8,2.8v27.5
								C211.8,205.6,210.6,206.9,209,206.9z"/>
							<path class="st1" d="M251.1,206.9h-27.5c-1.5,0-2.8-1.2-2.8-2.8v-27.5c0-1.5,1.2-2.8,2.8-2.8h27.5c1.5,0,2.8,1.2,2.8,2.8
								v27.5C253.8,205.6,252.6,206.9,251.1,206.9z"/>
							<path class="st1" d="M293.1,206.9h-27.5c-1.5,0-2.8-1.2-2.8-2.8v-27.5c0-1.5,1.2-2.8,2.8-2.8h27.5c1.5,0,2.8,1.2,2.8,2.8
								v27.5C295.9,205.6,294.6,206.9,293.1,206.9z"/>
							<path class="st1" d="M335.1,206.9h-27.5c-1.5,0-2.8-1.2-2.8-2.8v-27.5c0-1.5,1.2-2.8,2.8-2.8h27.5c1.5,0,2.8,1.2,2.8,2.8
								v27.5C337.9,205.6,336.7,206.9,335.1,206.9z"/>
						</g>
						<text transform="matrix(1 0 0 1 178.82 121.2871)" class="st8 st9 st10">october</text>
					</g>
				</g>
				<g>
					<path class="st7" d="M352.1,322.6H235.2c-2.9,0-5.2-2.3-5.2-5.2v-73.2c0-2.9,2.3-5.2,5.2-5.2H352c2.9,0,5.2,2.3,5.2,5.2v73.2
						C357.2,320.3,354.9,322.6,352.1,322.6z"/>
					<path class="st1" d="M340.7,267.5h-91.9c-1.5,0-2.8-1.2-2.8-2.8v-13.5c0-1.5,1.2-2.8,2.8-2.8h91.9c1.5,0,2.8,1.2,2.8,2.8v13.5
						C343.5,266.3,342.2,267.5,340.7,267.5z"/>
					<g>
						<line class="st11" x1="247.4" y1="279.9" x2="291.7" y2="279.9"/>
						<line class="st11" x1="247.4" y1="290.7" x2="342.2" y2="290.7"/>
						<line class="st11" x1="247.4" y1="302.7" x2="342.2" y2="302.7"/>
					</g>
				</g>
				<g>
					<path class="st5" d="M413.5,450.3H344c-3.5,0-6.3-2.8-6.3-6.3v-60.7c0-3.5,2.8-6.3,6.3-6.3h69.5c3.5,0,6.3,2.8,6.3,6.3V444
						C419.8,447.5,417,450.3,413.5,450.3z"/>
					<path class="st7" d="M395,410.4l-2.7-0.5c-0.3-1.2-0.8-2.3-1.4-3.4l1.6-2.2c0.6-0.8,0.5-1.9-0.2-2.7l-1.6-1.6
						c-0.7-0.7-1.8-0.8-2.7-0.2l-2.2,1.6c-1.1-0.6-2.2-1.1-3.4-1.4l-0.5-2.8c-0.2-1-1-1.7-2-1.7h-2.3c-1,0-1.9,0.7-2,1.7l-0.5,2.7
						c-1.2,0.3-2.3,0.8-3.4,1.4l-2.2-1.5c-0.8-0.6-1.9-0.5-2.7,0.2l-1.6,1.6c-0.7,0.7-0.8,1.8-0.2,2.7l1.6,2.2
						c-0.6,1.1-1.1,2.2-1.4,3.4l-2.7,0.5c-1,0.2-1.7,1-1.7,2v2.3c0,1,0.7,1.9,1.7,2l2.7,0.5c0.3,1.2,0.8,2.3,1.4,3.4l-1.6,2.2
						c-0.6,0.8-0.5,1.9,0.2,2.7l1.6,1.6c0.7,0.7,1.8,0.8,2.7,0.2l2.2-1.6c1.1,0.6,2.2,1.1,3.4,1.4l0.5,2.7c0.2,1,1,1.7,2,1.7h2.3
						c1,0,1.9-0.7,2-1.7l0.5-2.7c1.2-0.3,2.3-0.8,3.4-1.4l2.2,1.5c0.8,0.6,1.9,0.5,2.7-0.2l1.6-1.6c0.7-0.7,0.8-1.8,0.2-2.7
						l-1.6-2.3c0.6-1.1,1.1-2.2,1.4-3.4l2.7-0.5c1-0.2,1.7-1,1.7-2v-2.3C396.7,411.4,396,410.6,395,410.4z M378.7,420.7
						c-4,0-7.2-3.2-7.2-7.2s3.2-7.2,7.2-7.2s7.2,3.2,7.2,7.2l0,0C385.9,417.6,382.7,420.7,378.7,420.7z"/>
				</g>
			</g>
		</g>
		<line class="st12" x1="14.3" y1="531.9" x2="662.8" y2="531.9"/>
	</g>
</g>
<g>
	<g>
		<g>
			<path class="st1" d="M488.7,60.8H540c12.7,0,22.9-10.3,22.9-22.9l0,0c0-12.7-10.3-22.9-22.9-22.9h-51.3
				c-12.7,0-22.9,10.3-22.9,22.9l0,0C465.8,50.6,476,60.8,488.7,60.8z"/>
			<polygon class="st1" points="506.8,55.8 490.1,72.1 487.1,54.6 			"/>
		</g>
		<g>
			<path class="st7" d="M506.6,30.6c-2.4-2.3-6.2-2.3-8.6,0.1l-1.5,1.6l-1.6-1.6c-2.4-2.3-6.2-2.3-8.6,0.1c-2.3,2.4-2.3,6.2,0.1,8.6
				l5.9,5.8l0,0c0.9,0.9,2.1,1.5,3.3,1.7c1.9,0.3,3.8-0.3,5.2-1.7l5.8-5.9C509.1,36.8,509,32.9,506.6,30.6z"/>
			<line class="st13" x1="518.2" y1="32.6" x2="541.8" y2="32.6"/>
			<line class="st13" x1="518.2" y1="39.2" x2="530.7" y2="39.2"/>
		</g>
	</g>
	<g>
		<g>
			<g>
				<g>
					<g>
						<path class="st5" d="M440.8,516.1l-15.1,8.3c-1.6,0.9-2.6,2.9-2.1,4.8c0.4,1.5,1.7,2.7,5,2.7c7.5,0.1,40.4-5.4,40.4-5.4v4.7
							l15.4,0.1c0,0,1-22.4-3.7-25.3L440.8,516.1z"/>
						<path class="st14" d="M461,499.6l-20.2,16.5c0,0,2.6,7.5,14.1,2.5s25.9-12.5,25.9-12.5l-2.1-8.6L461,499.6z"/>
					</g>
					<polygon class="st14" points="478.8,497.5 480.9,437.6 460.8,436 460.8,506.1 					"/>
				</g>
				<polygon class="st15" points="443.1,257.8 451.5,491 490.3,491 492.3,239 				"/>
			</g>
			<g>
				<path class="st15" d="M447.5,253.8L467,367.4c2.4,14,16.7,22.6,30.2,18l0,0c9.9-3.4,16.3-13,15.5-23.4l-3.7-51.6
					c-1.9-17.5,2.5-40.2-16.7-71.3L447.5,253.8z"/>
				<g>
					<g>
						<g>
							<path class="st5" d="M550.2,510.4l-8.4,15c-0.9,1.6-0.6,3.8,0.8,5.2c1.1,1.1,2.8,1.4,5.7-0.4c6.4-3.8,31.5-26,31.5-26l2.5,4
								l13.1-8.1c0,0-11.1-19.5-16.5-19.5L550.2,510.4z"/>
							<path class="st14" d="M558.6,485.7l-8.4,24.7c0,0,6.2,4.9,13.3-5.4s15.4-24.3,15.4-24.3l-6.4-6.2L558.6,485.7z"/>
						</g>
						<polygon class="st14" points="572.5,474.5 542.5,422.6 524.7,431.8 561.9,491.3 						"/>
					</g>
					<polygon class="st15" points="469.9,375.3 542.1,483 575.8,461.4 506,344.2 					"/>
				</g>
			</g>
		</g>
		<g>
			<path class="st16" d="M416.1,69.3c0,0-16-2.1-18.1,13.1c-1.6,11.3,3.6,16.9-0.4,26s3.6,17.2,3.6,17.2s19,8.8,39.7-9.2L416.1,69.3
				z"/>
			<polygon class="st14" points="422.3,120.1 431,142.7 449.2,137.8 432.4,105.3 			"/>
			<polygon points="426.4,130.9 430.2,114.3 423.4,122.9 			"/>
			<path class="st14" d="M414,72.7c0,0-10.8,2.3-10.8,16c0,0-0.5,5.2,0.2,19.5c0.5,10.1,5.3,17.1,14.8,16.2
				c4.6-0.5,9.4-3.3,13.8-6.9l6.1-6.2c14-17.1-0.6-42.8-22.3-38.9C415.1,72.4,414.6,72.5,414,72.7z"/>
			<path class="st14" d="M404.1,100.2l-3.8,6.7c-0.4,0.7-0.2,1.8,0.7,1.9l5,0.6L404.1,100.2z"/>
			<path class="st16" d="M429.6,96.2c0.4-3.1,2.5-24.7-13.7-21.9c-2.5,0.4-3.8-2.9-1.6-4.3c5.8-3.6,15-6.1,28.2-1
				c5.4,2.1,12.8,9.2,12.8,16.2c0,15-5,22.6-13.8,30.3c-0.5,0.4-1.2,0.3-1.4-0.3l-5.7-10.9v-0.1c-0.6-2-3.8-6.2-4.7-7.3
				C429.7,96.7,429.6,96.5,429.6,96.2z"/>
			<path class="st16" d="M418.8,69c-20.4,9.4,9.4,31.7,9.4,31.7l0,0l8.4-16.5C436.6,84.2,422.2,67.4,418.8,69z"/>
			<g>
				<path d="M405.3,87.7l10.8,3.6c0,0-1.9-3.5-5.7-5.3C405.2,83.5,405.3,87.7,405.3,87.7z"/>
				<g>
					<g>
						<g>
							<path id="XMLID_2_" class="st7" d="M407.6,95c0,0,3.6,0.8,3.7,4.4s-3.8,3.4-3.8,3.4S404.1,98.4,407.6,95z"/>
						</g>
						<g>
							<g>
								<g>
									<g>
										<g>
											<defs>
												<path id="SVGID_1_" d="M407.6,95c0,0,3.6,0.8,3.7,4.4s-3.8,3.4-3.8,3.4S404.1,98.4,407.6,95z"/>
											</defs>
											<clipPath id="SVGID_2_">
												<use xlink:href="#SVGID_1_"  style="overflow:visible;"/>
											</clipPath>
											<path class="st17" d="M408.3,94.1c0,0,2.8,5.2-0.8,8.7c-3.6,3.5,0,0,0,0l-2-0.2l-0.1-5.8L408.3,94.1z"/>
										</g>
									</g>
								</g>
							</g>
						</g>
					</g>
					<g>
						<path d="M406.7,94.3c0.6,0,1.2,0.2,1.7,0.4c0.5,0.2,1,0.5,1.5,0.9c0.4,0.4,0.8,0.8,1.1,1.3c0.3,0.5,0.4,1,0.6,1.6
							c0,0.1,0,0.2-0.1,0.2s-0.2,0-0.2-0.1l0,0c-0.2-0.5-0.4-1-0.7-1.4c-0.3-0.4-0.6-0.8-1.1-1c-0.4-0.3-0.9-0.5-1.3-0.6
							c-0.5-0.1-1-0.2-1.4-0.2l0,0c-0.3,0-0.5-0.2-0.6-0.5C406.1,94.5,406.3,94.3,406.7,94.3C406.6,94.3,406.7,94.3,406.7,94.3z"/>
					</g>
				</g>
				<path class="st18" d="M404,111.4c-1.3,0.2-1.4,1.7-0.2,2.2c0,0-1.6,1.6,0.8,2.1s4.6-3.5,4.6-3.5
					C406.3,112.8,405.7,111.1,404,111.4z"/>
			</g>
			<path class="st16" d="M431.1,105.4c1.3,9.1,0.2,19.1,0.2,19.1s25.7,8.3,37.4-21c0,0-7.5-2.9-9.7-9.3c-2.3-6.4,0-28.7-30-28
				C428.9,66.2,429.7,95.2,431.1,105.4z"/>
			<g>
				<path class="st14" d="M441,100.5c0.5,3.8-2.2,7.3-6,7.7c-3.8,0.5-7.3-2.2-7.7-6c-0.5-3.8,2.2-7.3,6-7.7
					C437.1,94.1,440.5,96.7,441,100.5z"/>
				<path class="st19" d="M431.1,104.3c0,0,0.3-5.3,4.6-5.4"/>
			</g>
		</g>
		<g>
			<g>
				<g>
					<path class="st14" d="M475.8,155.2l42.6,34.5c6.1,5.2,6.6,14.5,1,20.3l0,0c-5.1,5.3-13.4,5.8-19,1.1l-46.2-36.6L475.8,155.2z"
						/>
					<path class="st5" d="M501.4,167.8c0,0-1.8,13.7-25.7,29.5l-32.5-24.2c-9.1-6.7-10.4-19.8-2.9-28.3l0,0c6.2-7,16.6-8.5,24.6-3.5
						L501.4,167.8z"/>
				</g>
				<g>
					<g>
						<path class="st14" d="M500.6,211.5l42.2,54.2l10.4-12.1l-31.6-60.3c-5.1-6.9-15.3-7.6-21.2-1.3l0,0
							C495.1,197.4,495.2,206.1,500.6,211.5z"/>
					</g>
					<g>
						<path class="st14" d="M540.4,263.4l-0.4,2.7c-0.6,3.6-0.3,7.4,0.8,10.9l2,6.2c0.5,1.5,2.2,2.2,3.5,1.5l0,0
							c1.2-0.6,1.8-1.8,1.7-3.1l-0.6-6.9l13.7,19.4c0.6,1,2,1.1,2.9,0.4l0.6-0.5c0.7-0.6,0.9-1.6,0.4-2.4l-8.8-13.4l12.2,14
							c0.7,0.9,2.1,1,2.9,0.2l0.4-0.4c0.7-0.7,0.8-1.8,0.2-2.6l-10.1-13l9.8,8.2c0.9,0.8,2.4,0.6,3-0.5l0.1-0.2
							c0.4-0.7,0.3-1.7-0.3-2.3l-9.6-9.2l6,3.6c1.1,0.9,2.8,0.3,3.1-1.1l0,0c0.2-0.7,0-1.4-0.5-1.8l-24.5-22.9l-5,5.7
							C542,258,540.8,260.6,540.4,263.4z"/>
					</g>
				</g>
			</g>
			<path class="st5" d="M443.3,137.1c0,0-16.7-1.6-17,28.6c-0.2,30.3,9.3,44.6,16.8,92.1c0,0,28.4-3.5,49.2-18.8
				C492.3,239,493.6,127.7,443.3,137.1z"/>
			<g>
				<g>
					<path class="st14" d="M439.9,177.6l-39.6,37.9c-5.9,5.4-15.2,4.7-20.2-1.6l0,0c-4.6-5.7-4-14,1.3-19l42.1-41.2L439.9,177.6z"/>
					<g>
						<path class="st5" d="M429.1,201.6c0,0-13.8-0.5-28-28.6l27.8-29.4c7.8-8.2,20.9-8,28.4,0.5l0,0c6.2,7,6.4,17.5,0.6,24.8
							L429.1,201.6z"/>
						<line class="st19" x1="432.9" y1="197.3" x2="452" y2="175.6"/>
					</g>
				</g>
				<g>
					<g>
						<path class="st14" d="M399.7,195.4l-56.4-42.7l-7.4,11.6l44.6,50c5.4,6.4,15.3,6.4,20.7-0.1l0,0
							C405.9,208.6,405.2,200.2,399.7,195.4z"/>
					</g>
					<g>
						<path class="st14" d="M350.7,164.5c-2.1,7.1-9,6.9-22.6,3.1c-7.2-2-9.8-7.1-7.7-14.2c2.1-7.1,9.6-11.2,16.8-9.1
							C344.4,146.3,352.9,157.3,350.7,164.5z"/>
						<path class="st14" d="M339.8,145.2l-17.2-10c-1.1-0.8-2.7-0.5-3.5,0.6l0,0c-0.7,1-0.5,2.2,0.4,3l13.4,11.3L339.8,145.2z"/>
					</g>
				</g>
			</g>
		</g>
	</g>
</g>
</svg>
