<?xml version="1.0" encoding="utf-8"?>
<!-- Generator: Adobe Illustrator 24.3.0, SVG Export Plug-In . SVG Version: 6.00 Build 0)  -->
<svg version="1.1" id="Layer_1" xmlns="http://www.w3.org/2000/svg" xmlns:xlink="http://www.w3.org/1999/xlink" x="0px" y="0px"
	 viewBox="0 0 204.2 206.3" style="enable-background:new 0 0 204.2 206.3;" xml:space="preserve">
<style type="text/css">
	.st0{fill:#040962;}
	.st1{fill:#111A75;}
	.st2{fill:#3C4AA0;}
	.st3{fill:#B4B0FA;}
	.st4{fill:#1D3570;}
	.st5{fill:#101A77;}
	.st6{fill:#FFC2B0;}
	.st7{fill:#EE54A1;}
	.st8{fill:#323441;}
	.st9{fill:#FF8DA3;}
	.st10{fill:#FFFFFF;}
	.st11{fill:#FFCB9C;}
	.st12{fill:#FCBFAC;}
	.st13{fill:#F9FBFC;}
	.st14{fill:#6161C9;}
	.st15{fill:#7F7FDD;}
	.st16{opacity:0.28;fill:#6161C9;enable-background:new    ;}
	.st17{fill:#553F77;}
	.st18{fill:#5A91FF;}
	.st19{fill:#362656;}
	.st20{fill:#7859B5;}
	.st21{fill:#735F99;}
	.st22{fill:#FF6498;}
	.st23{fill:#FFEE4D;}
	.st24{fill:#A4A4F4;}
</style>
<g>
	<g id="Layer_2_1_">
		<g id="Layer_1-2">
			<ellipse class="st0" cx="111.7" cy="197" rx="3.6" ry="4.5"/>
			<ellipse class="st0" cx="149.5" cy="197" rx="3.6" ry="4.5"/>
			<path class="st1" d="M149.9,187.3h-10.8c-3,0-5.4-2.4-5.4-5.4v-42.7h-6.9v42.7c0,3-2.4,5.4-5.4,5.4c0,0,0,0,0,0h-11.1
				c-1.6,0-3,1.3-3,2.9v5.9c0,0.4,0.3,0.7,0.7,0.7h2.7c0.4,0,0.7-0.3,0.7-0.7v-2.3c0-1.7,1.3-3,3-3h32.7c1.6,0,3,1.4,2.9,3v2.3
				c0,0.4,0.3,0.7,0.7,0.7h2.7c0.4,0,0.7-0.3,0.7-0.7v-5.9c0-1.6-1.4-3-3-2.9H149.9z"/>
			<path class="st2" d="M126.7,139.3h6.6c1.1,0,1.9,0.9,1.9,1.9v0.9c0,1.1-0.9,1.9-1.9,1.9h-6.6c-1.1,0-1.9-0.9-1.9-1.9v-0.9
				C124.7,140.2,125.6,139.3,126.7,139.3z"/>
			<path class="st1" d="M164.7,134.2v4.4c0,1.1-0.9,2-2,2h-60v-6.3L164.7,134.2z"/>
			<path class="st1" d="M178.2,61.1l-13.5,73.1h-15.9c0,0,4.5-1.6,5.2-11.8c0.3-5.2-0.4-12.6-3.1-23.2h0.8c3.1,0,5.6-2.5,5.6-5.6
				V54.9c0-0.6-0.1-1.2-0.2-1.7h14.7c3.7,0,6.7,3,6.7,6.7C178.3,60.3,178.3,60.7,178.2,61.1z"/>
			<path class="st3" d="M172,61.1l-13.5,73.1h-9.7c0,0,4.5-1.6,5.2-11.8c0.3-5.2-0.4-12.6-3.1-23.2h0.8c3.1,0,5.6-2.5,5.6-5.6V54.9
				c0-0.6-0.1-1.2-0.2-1.7h8.4c3.7,0,6.7,3,6.7,6.7C172.1,60.3,172.1,60.7,172,61.1z"/>
			<path class="st4" d="M150.8,47.7L150.8,47.7c-2.4-8.7-3.6-17.6-3.8-26.6c0-13.8-5.4-18.5-11.1-18.5h-12.3
				c-6.7,0-12.3,5.3-12.7,12c-0.2,5.1-0.7,10.2-1.6,15.3c-1.5,7.4-4.7,21.8-7.4,29.3s-0.6,14,6.1,14.1c0,0-0.6,13.7,17.6,9.9
				c17.2-3.5,28.8-8.7,27-29.5C152.4,51.7,151.8,49.6,150.8,47.7z"/>
			<path class="st5" d="M117.1,18.2c-1.1,0.1-2.2-0.2-3.1-0.8c-0.9-0.6-1.4-1.5-1.4-2.6c-0.4-5.2,3.8-8.4,4-8.5
				c0.1-0.1,0.3-0.1,0.4,0c0.1,0.1,0.1,0.3,0,0.4c0,0-4.2,3.2-3.8,8.1c0,0.9,0.4,1.7,1.1,2.2c2.3,1.5,7,0,7.1-0.1
				c0.1,0,0.3,0,0.3,0.2s0,0.3-0.2,0.3l0,0C120.2,17.9,118.7,18.2,117.1,18.2z"/>
			<path class="st5" d="M135,16.5c-0.1,0-0.3-0.1-0.3-0.3c-0.1-2.3-0.3-4.5-0.6-6.8c0-0.1,0-0.3,0.2-0.3c0,0,0,0,0,0
				c0.1,0,0.3,0,0.3,0.2c0.4,2.3,0.6,4.6,0.6,6.9C135.3,16.4,135.2,16.5,135,16.5L135,16.5z"/>
			<path class="st6" d="M155.5,50.4c-21.6,11.4-37.7,7-43.3,4.8c0.7-0.6,1.4-1.1,2.2-1.6c3.1-1.8,7.3-4.4,9.9-6.1
				c1.8-1.3,2.8-3.3,2.9-5.5c0.1-1.5,0-2.9-0.3-4.3h-1.8c-5.3,0-9.5-4.3-9.5-9.5V16.3H135l2.6,23.3c0.5,4.6,4.4,8.1,9,8.1h3.2
				C152.1,47.7,154.2,48.7,155.5,50.4z"/>
			<path class="st7" d="M134.4,113.2c3.7,1.9,9.9,10.3,19.5,9.2c0.3-5.2-0.4-12.6-3.1-23.2h0.8c3.1,0,5.6-2.5,5.6-5.6V54.9
				c0-1.7-0.6-3.3-1.6-4.6c-21.6,11.4-37.7,7-43.3,4.8c-1.5,1.3-2.8,2.8-3.8,4.5L95.1,82c-0.8,1.4-2.3,2.2-3.9,2.2h-1.3v12.6h3.6
				c2,0,4-0.9,5.3-2.4l15-17.4c0,0,3.7,12.7-0.7,32.8l0,0C113,109.8,130.1,111,134.4,113.2z"/>
			<path class="st6" d="M95.9,195.2c-0.8,0.9-1.7,1.8-2.6,2.6c1.4,0.8,2.6,1.9,3.4,3.2c2-1.9,4.5-3.1,7.2-3.4
				c-0.4-1.2-1-2.4-1.7-3.5l0.1-10.1h-7.9L95.9,195.2z"/>
			<path class="st7" d="M96.7,201c-0.8-1.4-2-2.5-3.4-3.2c-2.9,2.6-6.4,4.4-10.2,5.1c0,0-2.2-0.2-3.2,1.3c-0.3,0.4-0.1,1,0.3,1.2
				c0.1,0.1,0.2,0.1,0.3,0.1c7.9,1.1,15.9,1.1,23.7,0c0.7-0.1,1.3-0.8,1.2-1.5c-0.3-2.2-0.8-4.3-1.5-6.3
				C101.2,197.9,98.7,199.1,96.7,201z"/>
			<path class="st8" d="M85.9,125c-6.1,1.7-2.3,20.5-2.3,20.5l0,0c0,0.3,2.8,22.3,1.9,23.9s-2.3,5.4,1.9,8.3c0,0-1.9,7.1,4.9,6.3
				h9.9l0.4-49.9H115C107.5,130.8,90.6,123.7,85.9,125z"/>
			<path class="st8" d="M134.4,113.2c-4.3-2.2-21.4-3.4-21.4-3.4l0,0c0,0-19.9-4.4-24.5,0s-22.8,24.9-24.3,30.6
				c-0.6,2-0.6,4.1,0,6.1c0,0-3.5,1.4-4.5,3.5c-2.2,4.5,2.2,8,2.2,8l0,0c0,0,2.7,0.6,6.2,4.9l15.6-17.4l0,0c0,0-3.8-18.8,2.3-20.4
				c4.7-1.3,21.5,5.8,29.1,9.2h33.7c0,0,4.5-1.6,5.2-11.8C144.2,123.5,138.1,115.1,134.4,113.2z"/>
			<path class="st6" d="M61.9,158L61.9,158l-6,10.7c0,0-1.2-0.3-3.1-0.8c0.7,1.4,1.3,3.2,1,4.5c2-0.1,3.9,0.5,5.5,1.8
				c0.3-0.8,0.7-1.6,1-2.5l7.8-8.7C64.5,158.6,61.9,158,61.9,158z"/>
			<path class="st7" d="M53.8,172.4c0.3-1.2-0.3-3.1-1-4.5c-3.7-1.1-9.8-3-13.2-5.1c-0.5-0.3-1.1-0.2-1.4,0.2c-0.3,0.4-0.3,1,0,1.4
				c2,2.5,9.3,11.1,15.5,14.4c1.2,0.6,2.6,0.3,3.4-0.8c0.9-1.2,1.6-2.5,2.2-3.9C57.7,172.9,55.8,172.3,53.8,172.4z"/>
			<path class="st6" d="M132.4,37.7c0,0-2.6,4.3-5.2,4.3c0.1-1.5,0-2.9-0.3-4.3L132.4,37.7z"/>
			<path class="st9" d="M113.7,77.2c-0.1,0-0.2-0.1-0.2-0.2c0-0.1-2.9-8.7,1.9-16.7c0.1-0.1,0.2-0.2,0.4-0.1
				c0.1,0.1,0.2,0.2,0.1,0.4c-4.7,7.8-1.9,16.2-1.8,16.3c0.1,0.1,0,0.3-0.1,0.3C113.8,77.2,113.8,77.2,113.7,77.2L113.7,77.2z"/>
			<path class="st9" d="M119.9,91.7c-0.1,0-0.2-0.1-0.3-0.2c0-0.1,0.1-0.3,0.2-0.3l27.7-3.8l-1.7-28c0-0.1,0.1-0.3,0.2-0.3
				c0.1,0,0.3,0.1,0.3,0.2l1.7,28.2c0,0.1-0.1,0.3-0.2,0.3L119.9,91.7L119.9,91.7z"/>
			<path class="st9" d="M119.9,99.4c-0.1,0-0.2,0-0.2-0.1l-0.6-0.9c-0.1-0.1,0-0.3,0.1-0.3c0,0,0,0,0,0c0.1-0.1,0.3,0,0.4,0.1
				c0,0,0,0,0,0l0.5,0.8l30.1-0.1l0,0c0.1,0,0.2,0.2,0.2,0.3c0,0.1-0.1,0.2-0.2,0.2C150.1,99.3,119.9,99.4,119.9,99.4z"/>
			<path class="st10" d="M123.9,29.3c0,0-2.4-1-2.8-0.4s1.2,1.4,3.2,1.4s3.7-1.3,3.2-2S123.9,29.3,123.9,29.3z"/>
			<path class="st11" d="M124.5,32c-0.5,0-1-0.1-1.4-0.3c-0.1-0.1-0.2-0.2-0.1-0.4c0.1-0.1,0.2-0.2,0.3-0.1c0.7,0.3,1.6,0.3,2.3,0
				c0.1-0.1,0.3,0,0.3,0.1c0,0,0,0,0,0c0.1,0.1,0,0.3-0.1,0.4C125.5,31.9,125,32,124.5,32z"/>
			<path class="st11" d="M123.5,27.2c-0.4,0-0.8-0.1-1.2-0.4c-0.1-0.1-0.1-0.1-0.1-0.2V20c0-0.8-0.5-1.4-1.2-1.7
				c-0.1,0-0.2-0.2-0.2-0.3c0,0,0,0,0,0c0-0.1,0.2-0.2,0.3-0.2c0,0,0,0,0,0c1,0.3,1.6,1.2,1.6,2.2v6.4c0.5,0.3,1.1,0.3,1.6-0.1
				c0.1-0.1,0.3-0.1,0.4,0c0.1,0.1,0.1,0.3,0,0.4c0,0,0,0-0.1,0.1C124.3,27,123.9,27.2,123.5,27.2z"/>
			<path class="st0" d="M127.3,21c-0.6,0-1.1,0.5-1.1,1.1c0,0.6,0.5,1.1,1.1,1.1c0.6,0,1.1-0.5,1.1-1.1
				C128.4,21.5,127.9,21,127.3,21C127.3,21,127.3,21,127.3,21z"/>
			<path class="st0" d="M118.8,21c-0.6,0-1.1,0.5-1.1,1.1s0.5,1.1,1.1,1.1c0.6,0,1.1-0.5,1.1-1.1C119.9,21.5,119.4,21,118.8,21
				L118.8,21z"/>
			<circle class="st12" cx="130.6" cy="24.8" r="1.8"/>
			<path class="st12" d="M118.8,24.8c0,1-0.8,1.8-1.8,1.8c0,0,0,0,0,0c-0.5,0-1-0.2-1.3-0.6v-2.4c0.3-0.4,0.8-0.6,1.3-0.6
				C117.9,22.9,118.7,23.7,118.8,24.8C118.8,24.7,118.8,24.7,118.8,24.8z"/>
			<path class="st0" d="M130.1,18.6H130c-3.2-0.9-4.4,0-4.4,0c-0.1,0.1-0.3,0.1-0.4,0c-0.1-0.1-0.1-0.3,0.1-0.4c0.1,0,1.4-1.1,4.9,0
				c0.1,0,0.2,0.2,0.2,0.3C130.3,18.6,130.2,18.6,130.1,18.6z"/>
			<path class="st0" d="M116.5,18.6c-0.1,0-0.2-0.1-0.2-0.1c-0.1-0.1,0-0.3,0.1-0.4c1.2-0.5,2.6-0.6,3.9-0.2c0.1,0,0.2,0.2,0.2,0.3
				s-0.2,0.2-0.3,0.2c-1.1-0.3-2.4-0.3-3.5,0.2C116.6,18.6,116.5,18.6,116.5,18.6z"/>
			<path class="st10" d="M141.3,7.3l-8.7-5c-1.4-2.3-4.4-3.1-6.7-1.7c-0.6,0.3-1.1,0.8-1.5,1.4c-2.2-1-3.6-0.4-4.2-0.1
				c-1.6-2.1-4.6-2.5-6.7-0.9c-2.1,1.6-2.5,4.6-0.9,6.7c1.6,2.1,4.6,2.5,6.7,0.9c1.9-1.5,2.5-4.2,1.2-6.3c0.4-0.3,1.6-0.8,3.6,0.1
				c-1.3,2.3-0.5,5.3,1.8,6.7c2.3,1.3,5.3,0.5,6.7-1.8c0.4-0.7,0.6-1.6,0.6-2.4c0-0.6-0.1-1.1-0.3-1.7l8,4.6c0,0,0.1,0,0.1,0
				c0.1,0,0.2-0.1,0.2-0.1C141.4,7.5,141.4,7.4,141.3,7.3z M116.4,9.2c-2.4,0-4.3-1.9-4.3-4.3s1.9-4.4,4.3-4.4
				c2.4,0,4.3,1.9,4.3,4.3c0,0,0,0,0,0C120.8,7.3,118.8,9.2,116.4,9.2z M128.4,9.2c-2.4,0-4.3-1.9-4.3-4.4c0-2.4,1.9-4.3,4.4-4.3
				c2.4,0,4.3,1.9,4.3,4.3C132.8,7.3,130.8,9.2,128.4,9.2C128.4,9.2,128.4,9.2,128.4,9.2L128.4,9.2z"/>
			<path class="st13" d="M177.3,91.3L177.3,91.3v-1.9c0-0.2-0.2-0.4-0.4-0.4h-9.1c-0.2,0-0.4,0.2-0.4,0.4v11.1
				c0,0.2,0.2,0.4,0.4,0.4h9.1c0.2,0,0.4-0.2,0.4-0.4v-2.3l0,0c1.9-0.4,3.2-2.2,2.8-4.1C179.8,92.7,178.7,91.5,177.3,91.3
				L177.3,91.3z M177.3,97.1L177.3,97.1v-4.8l0,0c1.3,0.4,2.1,1.7,1.7,3C178.8,96.2,178.2,96.9,177.3,97.1z"/>
			<polygon class="st0" points="170.6,107.9 167.2,107.9 134.9,203.1 138.3,203.1 168.9,112.8 199.5,203.1 202.9,203.1 			"/>
			<polygon class="st0" points="33.6,107.9 1.4,203.1 4.7,203.1 35.3,112.8 66,203.1 69.3,203.1 37,107.9 			"/>
			<polygon class="st14" points="45.3,75.7 42.2,88.1 39.4,99.6 23,99.6 29.5,80.9 31.3,75.7 			"/>
			<polygon class="st10" points="46.3,75.7 43.1,88.7 40.5,99.6 24.1,99.6 30.4,81.4 32.3,75.7 			"/>
			<path class="st15" d="M18,98.2h26c0.7,0,1.3,0.6,1.3,1.3v0.2c0,0.7-0.6,1.3-1.3,1.3H18c-0.7,0-1.3-0.6-1.3-1.3v-0.2
				C16.8,98.8,17.3,98.2,18,98.2z"/>
			<polygon class="st16" points="46.3,75.7 43.1,88.7 42.2,88.1 30.4,81.4 29.5,80.9 31.3,75.7 			"/>
			<path class="st15" d="M73.2,79.3H13.6c-0.9,0-1.7-0.7-1.9-1.6L4.4,39.5c-0.1-0.4,0-0.8,0.2-1.1l0.2-0.2c0.2-0.3,0.6-0.5,1-0.5
				h59.6c0.9,0,1.7,0.7,1.9,1.6l7.3,38.3c0.1,0.4,0,0.8-0.2,1.1l-0.2,0.2C73.9,79.1,73.5,79.3,73.2,79.3z"/>
			<path class="st10" d="M73.2,78.1H14.5c-0.9,0-1.7-0.7-1.9-1.6L5.5,39.2c-0.2-0.7,0.2-1.3,0.9-1.5c0.1,0,0.2,0,0.4,0h58.7
				c0.9,0,1.7,0.7,1.9,1.6l7.1,37.4c0.2,0.7-0.2,1.3-0.9,1.5C73.4,78.1,73.3,78.1,73.2,78.1z"/>
			<path class="st17" d="M72.4,76.8H14.8c-0.3,0-0.6-0.2-0.7-0.6l-7-36.6c-0.1-0.2,0.1-0.5,0.3-0.6c0.1,0,0.1,0,0.2,0h57.5
				c0.3,0,0.6,0.2,0.7,0.6l7,36.6c0.1,0.2-0.1,0.5-0.3,0.5C72.5,76.8,72.4,76.8,72.4,76.8z"/>
			<path class="st18" d="M9.8,42.9h0.9c0.2,0,0.4-0.1,0.4-0.3c0,0,0-0.1,0-0.1C11,42.2,10.7,42,10.5,42H9.6c-0.2,0-0.4,0.1-0.4,0.3
				c0,0,0,0.1,0,0.1C9.3,42.7,9.5,42.9,9.8,42.9z"/>
			<path class="st19" d="M18.5,42.9h8.8c0.2,0,0.4-0.2,0.4-0.4c0,0,0-0.1,0-0.1c-0.1-0.2-0.3-0.4-0.5-0.4h-8.8
				c-0.2,0-0.4,0.1-0.4,0.3c0,0,0,0.1,0,0.1C18.1,42.7,18.3,42.8,18.5,42.9z"/>
			<path class="st20" d="M29,42.9h0.9c0.2,0,0.4-0.2,0.4-0.4c0,0,0-0.1,0-0.1C30.2,42.2,30,42,29.8,42h-0.9c-0.2,0-0.4,0.2-0.4,0.4
				c0,0,0,0.1,0,0.1C28.6,42.7,28.8,42.8,29,42.9z"/>
			<path class="st20" d="M37.8,42.9h2.9c0.2,0,0.4-0.1,0.4-0.3c0,0,0-0.1,0-0.1c0-0.3-0.3-0.4-0.5-0.4h-2.9c-0.2,0-0.4,0.1-0.4,0.3
				c0,0,0,0.1,0,0.1C37.3,42.7,37.6,42.9,37.8,42.9z"/>
			<path class="st21" d="M31.7,42.9h4.4c0.2,0,0.4-0.1,0.4-0.3c0,0,0-0.1,0-0.1c-0.1-0.2-0.3-0.4-0.5-0.4h-4.4
				c-0.2,0-0.4,0.2-0.4,0.4c0,0,0,0.1,0,0.1C31.2,42.7,31.4,42.9,31.7,42.9z"/>
			<path class="st21" d="M12.4,42.9h4.4c0.2,0,0.4-0.1,0.4-0.3c0,0,0-0.1,0-0.1c-0.1-0.2-0.3-0.4-0.5-0.4h-4.4
				c-0.2,0-0.4,0.1-0.4,0.3c0,0,0,0.1,0,0.1C11.9,42.7,12.2,42.9,12.4,42.9z"/>
			<path class="st21" d="M23.3,45c-0.1-0.2-0.3-0.4-0.5-0.4h-9.6c-0.2,0-0.4,0.2-0.4,0.4c0,0,0,0.1,0,0.1c0.1,0.2,0.3,0.4,0.5,0.4
				H23C23.2,45.4,23.4,45.3,23.3,45C23.3,45,23.3,45,23.3,45z"/>
			<path class="st22" d="M11.4,44.6h-1.3c-0.2,0-0.4,0.1-0.4,0.3c0,0,0,0.1,0,0.1c0.1,0.2,0.3,0.4,0.5,0.4h1.3
				c0.2,0,0.4-0.1,0.4-0.3c0-0.1,0-0.1,0-0.2C11.9,44.8,11.7,44.6,11.4,44.6z"/>
			<path class="st21" d="M33.3,44.6h-8.8c-0.2,0-0.4,0.2-0.4,0.4c0,0,0,0.1,0,0.1c0.1,0.2,0.3,0.4,0.5,0.4h8.8
				c0.2,0,0.4-0.1,0.4-0.3c0,0,0-0.1,0-0.1C33.8,44.8,33.6,44.6,33.3,44.6z"/>
			<path class="st20" d="M36.6,45.5c0.2,0,0.4-0.2,0.4-0.4c0,0,0-0.1,0-0.1c-0.1-0.2-0.3-0.4-0.5-0.4h-1.3c-0.2,0-0.4,0.1-0.4,0.3
				c0,0,0,0.1,0,0.1c0.1,0.2,0.3,0.4,0.5,0.4H36.6z"/>
			<path class="st21" d="M41,44.6h-2.8c-0.2,0-0.4,0.2-0.4,0.4c0,0,0,0.1,0,0.1c0.1,0.3,0.3,0.4,0.5,0.4h2.9c0.2,0,0.4-0.1,0.4-0.3
				c0,0,0-0.1,0-0.1C41.5,44.8,41.3,44.6,41,44.6z"/>
			<path class="st20" d="M30.9,48.1c0.2,0,0.4-0.1,0.4-0.3c0,0,0-0.1,0-0.1c-0.1-0.2-0.3-0.4-0.5-0.4h-0.9c-0.2,0-0.4,0.2-0.4,0.4
				c0,0,0,0.1,0,0.1c0.1,0.2,0.3,0.4,0.5,0.4H30.9z"/>
			<path class="st23" d="M10.8,48.1h0.9c0.2,0,0.4-0.2,0.4-0.4c0,0,0-0.1,0-0.1c-0.1-0.2-0.3-0.4-0.5-0.4h-0.9
				c-0.2,0-0.4,0.1-0.4,0.3c0,0,0,0.1,0,0.1C10.3,47.9,10.5,48.1,10.8,48.1z"/>
			<path class="st18" d="M32.2,47.7c0.1,0.2,0.3,0.4,0.5,0.4h4.4c0.2,0,0.4-0.2,0.4-0.4c0,0,0-0.1,0-0.1c-0.1-0.2-0.3-0.4-0.5-0.4
				h-4.4c-0.2,0-0.4,0.1-0.4,0.3C32.1,47.6,32.2,47.6,32.2,47.7z"/>
			<path class="st18" d="M13.4,48.1h4.4c0.2,0,0.4-0.1,0.4-0.3c0,0,0-0.1,0-0.1c-0.1-0.2-0.3-0.4-0.5-0.4h-4.4
				c-0.2,0-0.4,0.2-0.4,0.4c0,0,0,0.1,0,0.1C12.9,47.9,13.2,48.1,13.4,48.1z"/>
			<path class="st18" d="M41.5,47.2h-2.9c-0.2,0-0.4,0.2-0.4,0.4c0,0,0,0.1,0,0.1c0.1,0.2,0.3,0.4,0.5,0.4h2.9
				c0.2,0,0.4-0.1,0.4-0.3c0,0,0-0.1,0-0.1C42,47.4,41.8,47.2,41.5,47.2z"/>
			<path class="st20" d="M19.5,48.1h8.8c0.2,0,0.4-0.2,0.4-0.4c0,0,0-0.1,0-0.1c-0.1-0.3-0.3-0.4-0.5-0.4h-8.8
				c-0.2,0-0.4,0.1-0.4,0.3c0,0,0,0.1,0,0.1C19.1,47.9,19.3,48.1,19.5,48.1z"/>
			<path class="st21" d="M42,49.8h-2.8c-0.2,0-0.4,0.2-0.4,0.4c0,0,0,0.1,0,0.1c0.1,0.2,0.3,0.4,0.5,0.4h2.9c0.2,0,0.4-0.1,0.4-0.3
				c0,0,0-0.1,0-0.1C42.5,50,42.3,49.8,42,49.8z"/>
			<path class="st19" d="M37.4,49.8h-1.3c-0.2,0-0.4,0.1-0.4,0.3c0,0,0,0.1,0,0.1c0.1,0.2,0.3,0.4,0.5,0.4h1.3
				c0.2,0,0.4-0.2,0.4-0.4c0,0,0-0.1,0-0.1C37.9,50,37.6,49.8,37.4,49.8z"/>
			<path class="st21" d="M34.8,50.3c-0.1-0.2-0.3-0.4-0.5-0.4h-8.8c-0.2,0-0.4,0.2-0.4,0.4c0,0,0,0.1,0,0.1c0.1,0.2,0.3,0.4,0.5,0.4
				h8.8c0.2,0,0.4-0.1,0.4-0.3C34.9,50.4,34.9,50.3,34.8,50.3z"/>
			<path class="st21" d="M13.8,50.3c0.1,0.2,0.3,0.4,0.5,0.4H24c0.2,0,0.4-0.2,0.4-0.4c0,0,0-0.1,0-0.1c-0.1-0.3-0.3-0.4-0.5-0.4
				h-9.6c-0.2,0-0.4,0.1-0.4,0.3C13.8,50.2,13.8,50.2,13.8,50.3z"/>
			<path class="st18" d="M12.4,49.8h-1.3c-0.2,0-0.4,0.2-0.4,0.4c0,0,0,0.1,0,0.1c0.1,0.3,0.3,0.4,0.5,0.4h1.3
				c0.2,0,0.4-0.1,0.4-0.3c0,0,0-0.1,0-0.1C12.9,50,12.7,49.8,12.4,49.8z"/>
			<path class="st18" d="M42.5,52.5h-1.1c-0.2,0-0.4,0.2-0.4,0.4c0,0,0,0.1,0,0.1c0.1,0.3,0.3,0.4,0.5,0.4h1.1
				c0.2,0,0.3-0.2,0.3-0.4c0,0,0,0,0-0.1C43,52.7,42.8,52.5,42.5,52.5z"/>
			<path class="st18" d="M33.2,52.9c-0.1-0.2-0.3-0.4-0.5-0.4h-0.9c-0.2,0-0.4,0.1-0.4,0.3c0,0,0,0.1,0,0.1c0.1,0.2,0.3,0.4,0.5,0.4
				h0.9C33,53.3,33.2,53.2,33.2,52.9C33.2,53,33.2,52.9,33.2,52.9z"/>
			<path class="st21" d="M30,52.5h-8.8c-0.2,0-0.4,0.2-0.4,0.4c0,0,0,0.1,0,0.1c0.1,0.2,0.3,0.4,0.5,0.4h8.8c0.2,0,0.4-0.1,0.4-0.3
				c0,0,0-0.1,0-0.1C30.5,52.6,30.3,52.5,30,52.5z"/>
			<path class="st21" d="M40.2,52.9c-0.1-0.2-0.3-0.4-0.5-0.4h-5.3c-0.2,0-0.4,0.2-0.4,0.4c0,0,0,0.1,0,0.1c0.1,0.3,0.3,0.4,0.5,0.4
				h5.2C40,53.3,40.2,53.2,40.2,52.9C40.2,53,40.2,52.9,40.2,52.9z"/>
			<path class="st20" d="M14.4,53.3h5.3c0.2,0,0.4-0.2,0.3-0.4c0,0,0,0,0-0.1c-0.1-0.3-0.3-0.4-0.5-0.4h-5.2c-0.2,0-0.4,0.2-0.4,0.4
				c0,0,0,0.1,0,0.1C13.9,53.1,14.1,53.3,14.4,53.3z"/>
			<path class="st22" d="M11.8,53.3h0.9c0.2,0,0.4-0.2,0.4-0.4c0,0,0-0.1,0-0.1c-0.1-0.3-0.3-0.4-0.5-0.4h-0.9
				c-0.2,0-0.4,0.2-0.4,0.4c0,0,0,0.1,0,0.1C11.3,53.2,11.5,53.3,11.8,53.3z"/>
			<path class="st23" d="M12.3,56h0.9c0.2,0,0.4-0.1,0.4-0.3c0,0,0-0.1,0-0.1c0-0.3-0.3-0.4-0.5-0.4h-0.9c-0.2,0-0.4,0.2-0.4,0.4
				c0,0,0,0.1,0,0.1C11.8,55.8,12,56,12.3,56z"/>
			<path class="st19" d="M14.9,56h4.4c0.2,0,0.4-0.2,0.4-0.4c0,0,0-0.1,0-0.1c-0.1-0.2-0.3-0.4-0.5-0.4h-4.4c-0.2,0-0.4,0.1-0.4,0.3
				c0,0,0,0.1,0,0.1C14.4,55.8,14.6,56,14.9,56z"/>
			<path class="st21" d="M38.4,55.1H34c-0.2,0-0.4,0.1-0.4,0.3c0,0,0,0.1,0,0.1c0.1,0.2,0.3,0.4,0.5,0.4h4.4c0.2,0,0.4-0.1,0.4-0.3
				c0,0,0-0.1,0-0.1C38.9,55.3,38.6,55.1,38.4,55.1z"/>
			<path class="st21" d="M43,55.1h-2.9c-0.2,0-0.4,0.1-0.4,0.3c0,0,0,0.1,0,0.1c0.1,0.2,0.3,0.4,0.5,0.4h2.9c0.2,0,0.4-0.1,0.4-0.3
				c0,0,0-0.1,0-0.1C43.5,55.3,43.3,55.1,43,55.1z"/>
			<path class="st18" d="M31.5,56h0.9c0.2,0,0.4-0.1,0.4-0.3c0,0,0-0.1,0-0.1c-0.1-0.2-0.3-0.4-0.5-0.4h-0.9c-0.2,0-0.4,0.1-0.4,0.3
				c0,0,0,0.1,0,0.1C31.1,55.8,31.3,56,31.5,56z"/>
			<path class="st21" d="M21,56h8.8c0.2,0,0.4-0.1,0.4-0.3c0,0,0-0.1,0-0.1c-0.1-0.2-0.3-0.4-0.5-0.4h-8.8c-0.2,0-0.4,0.2-0.4,0.4
				c0,0,0,0.1,0,0.1C20.6,55.8,20.8,56,21,56z"/>
			<path class="st21" d="M15.3,58.1c0.1,0.2,0.3,0.4,0.5,0.4h9.6c0.2,0,0.4-0.1,0.4-0.3c0,0,0-0.1,0-0.1c-0.1-0.2-0.3-0.4-0.5-0.4
				h-9.6c-0.2,0-0.4,0.1-0.4,0.3C15.3,58.1,15.3,58.1,15.3,58.1z"/>
			<path class="st22" d="M13.9,57.7h-1.3c-0.2,0-0.4,0.2-0.4,0.4c0,0,0,0.1,0,0.1c0.1,0.2,0.3,0.4,0.5,0.4h1.3
				c0.2,0,0.4-0.1,0.4-0.3c0,0,0-0.1,0-0.1C14.4,57.9,14.2,57.7,13.9,57.7z"/>
			<path class="st21" d="M36.3,58.1c-0.1-0.3-0.3-0.4-0.5-0.4h-8.8c-0.2,0-0.4,0.1-0.4,0.3c0,0,0,0.1,0,0.1c0.1,0.2,0.3,0.4,0.5,0.4
				H36C36.2,58.6,36.4,58.4,36.3,58.1C36.4,58.2,36.4,58.2,36.3,58.1z"/>
			<path class="st19" d="M39.1,58.6c0.2,0,0.4-0.1,0.4-0.3c0,0,0-0.1,0-0.1c-0.1-0.2-0.3-0.4-0.5-0.4h-1.3c-0.2,0-0.4,0.2-0.4,0.4
				c0,0,0,0.1,0,0.1c0.1,0.2,0.3,0.4,0.5,0.4H39.1z"/>
			<path class="st21" d="M43.5,57.7h-2.9c-0.2,0-0.4,0.1-0.4,0.3c0,0,0,0.1,0,0.1c0.1,0.2,0.3,0.4,0.5,0.4h2.9
				c0.2,0,0.4-0.1,0.4-0.3c0,0,0-0.1,0-0.1C44,57.9,43.8,57.7,43.5,57.7z"/>
			<path class="st20" d="M33.8,60.8c-0.1-0.2-0.3-0.4-0.5-0.4h-0.9c-0.2,0-0.4,0.1-0.4,0.3c0,0,0,0.1,0,0.1c0.1,0.2,0.3,0.4,0.5,0.4
				h0.9c0.2,0,0.4-0.1,0.4-0.3C33.8,60.8,33.8,60.8,33.8,60.8z"/>
			<path class="st19" d="M44,60.3h-2.9c-0.2,0-0.4,0.1-0.4,0.3c0,0,0,0.1,0,0.1c0.1,0.2,0.3,0.4,0.5,0.4h2.9c0.2,0,0.4-0.2,0.4-0.4
				c0,0,0-0.1,0-0.1C44.5,60.5,44.3,60.3,44,60.3z"/>
			<path class="st18" d="M22,61.2h8.8c0.2,0,0.4-0.1,0.4-0.3c0,0,0-0.1,0-0.1c-0.1-0.2-0.3-0.4-0.5-0.4h-8.8c-0.2,0-0.4,0.2-0.4,0.4
				c0,0,0,0.1,0,0.1C21.6,61,21.8,61.2,22,61.2z"/>
			<path class="st21" d="M15.9,61.2h4.4c0.2,0,0.4-0.2,0.4-0.4c0,0,0-0.1,0-0.1c-0.1-0.3-0.3-0.4-0.5-0.4h-4.4
				c-0.2,0-0.4,0.1-0.4,0.3c0,0,0,0.1,0,0.1C15.4,61,15.6,61.2,15.9,61.2z"/>
			<path class="st23" d="M13.3,61.2h0.9c0.2,0,0.4-0.1,0.4-0.3c0,0,0-0.1,0-0.1c-0.1-0.2-0.3-0.4-0.5-0.4h-0.9
				c-0.2,0-0.4,0.1-0.4,0.3c0,0,0,0.1,0,0.1C12.8,61,13,61.2,13.3,61.2z"/>
			<path class="st20" d="M35.2,61.2h4.4c0.2,0,0.4-0.1,0.4-0.3c0,0,0-0.1,0-0.1c-0.1-0.2-0.3-0.4-0.5-0.4H35c-0.2,0-0.4,0.1-0.4,0.3
				c0,0,0,0.1,0,0.1C34.7,61,34.9,61.2,35.2,61.2z"/>
			<path class="st20" d="M21.7,63.8c0.2,0,0.4-0.1,0.4-0.3c0,0,0-0.1,0-0.1c-0.1-0.2-0.3-0.4-0.5-0.4h-5.3c-0.2,0-0.4,0.1-0.4,0.3
				c0,0,0,0.1,0,0.1c0.1,0.2,0.3,0.4,0.5,0.4H21.7z"/>
			<path class="st20" d="M44.5,62.9h-1.1c-0.2,0-0.4,0.1-0.4,0.3c0,0,0,0.1,0,0.1c0.1,0.2,0.3,0.4,0.5,0.4h1.1
				c0.2,0,0.4-0.2,0.4-0.4c0,0,0-0.1,0-0.1C45,63.1,44.8,63,44.5,62.9z"/>
			<path class="st18" d="M33.9,63.8h0.9c0.2,0,0.4-0.1,0.4-0.3c0,0,0-0.1,0-0.1c-0.1-0.2-0.3-0.4-0.5-0.4h-0.9
				c-0.2,0-0.4,0.2-0.4,0.4c0,0,0,0.1,0,0.1C33.5,63.6,33.7,63.8,33.9,63.8z"/>
			<path class="st21" d="M23.4,63.8h8.8c0.2,0,0.4-0.2,0.4-0.4c0,0,0-0.1,0-0.1c-0.1-0.3-0.3-0.4-0.5-0.4h-8.8
				c-0.2,0-0.4,0.1-0.4,0.3c0,0,0,0.1,0,0.1C22.9,63.6,23.2,63.8,23.4,63.8z"/>
			<path class="st22" d="M13.8,63.8h0.9c0.2,0,0.4-0.1,0.4-0.3c0,0,0-0.1,0-0.1c-0.1-0.2-0.3-0.4-0.5-0.4h-0.9
				c-0.2,0-0.4,0.1-0.4,0.3c0,0,0,0.1,0,0.1C13.3,63.6,13.5,63.8,13.8,63.8z"/>
			<path class="st21" d="M36.5,63.8h5.3c0.2,0,0.4-0.1,0.4-0.3c0,0,0-0.1,0-0.1c-0.1-0.2-0.3-0.4-0.5-0.4h-5.3
				c-0.2,0-0.4,0.1-0.4,0.3c0,0,0,0.1,0,0.1C36.1,63.6,36.3,63.8,36.5,63.8z"/>
			<path class="st20" d="M45,65.6h-2.9c-0.2,0-0.4,0.1-0.4,0.3c0,0,0,0.1,0,0.1c0.1,0.2,0.3,0.4,0.5,0.4h2.9c0.2,0,0.4-0.1,0.4-0.3
				c0,0,0-0.1,0-0.1C45.5,65.7,45.3,65.6,45,65.6z"/>
			<path class="st18" d="M40.4,65.6h-1.3c-0.2,0-0.4,0.1-0.4,0.3c0,0,0,0.1,0,0.1c0.1,0.2,0.3,0.4,0.5,0.4h1.3
				c0.2,0,0.3-0.1,0.4-0.3c0,0,0-0.1,0-0.1C40.9,65.8,40.6,65.6,40.4,65.6z"/>
			<path class="st19" d="M26.8,65.6h-9.6c-0.2,0-0.4,0.1-0.4,0.3c0,0,0,0.1,0,0.1c0.1,0.2,0.3,0.4,0.5,0.4H27c0.2,0,0.4-0.1,0.4-0.3
				c0,0,0-0.1,0-0.1C27.3,65.7,27.1,65.6,26.8,65.6z"/>
			<path class="st21" d="M37.3,65.6h-8.8c-0.2,0-0.4,0.1-0.4,0.3c0,0,0,0.1,0,0.1c0.1,0.2,0.3,0.4,0.5,0.4h8.8
				c0.2,0,0.3-0.1,0.4-0.3c0,0,0-0.1,0-0.1C37.8,65.7,37.6,65.6,37.3,65.6z"/>
			<path class="st19" d="M48.5,42.9h8.8c0.2,0,0.4-0.2,0.4-0.4c0,0,0-0.1,0-0.1c-0.1-0.2-0.3-0.4-0.5-0.4h-8.8
				c-0.2,0-0.4,0.1-0.4,0.3c0,0,0,0.1,0,0.1C48,42.7,48.2,42.8,48.5,42.9z"/>
			<path class="st20" d="M59,42.9h0.9c0.2,0,0.4-0.2,0.4-0.4c0,0,0-0.1,0-0.1C60.2,42.2,60,42,59.7,42h-0.9c-0.2,0-0.4,0.1-0.4,0.3
				c0,0,0,0.1,0,0.1C58.5,42.7,58.7,42.9,59,42.9z"/>
			<path class="st21" d="M61.6,42.9h2.6c0.2,0,0.4-0.2,0.4-0.4c0,0,0-0.1,0-0.1C64.5,42.2,64.3,42,64,42h-2.5
				c-0.2,0-0.4,0.2-0.4,0.4c0,0,0,0.1,0,0.1C61.2,42.7,61.4,42.9,61.6,42.9z"/>
			<path class="st21" d="M42.4,42.9h4.4c0.2,0,0.4-0.1,0.4-0.3c0,0,0-0.1,0-0.1c0-0.3-0.3-0.4-0.5-0.4h-4.4c-0.2,0-0.4,0.1-0.4,0.3
				c0,0,0,0.1,0,0.1C41.9,42.7,42.1,42.9,42.4,42.9z"/>
			<path class="st21" d="M52.8,45c-0.1-0.2-0.3-0.4-0.5-0.4h-9.6c-0.2,0-0.4,0.1-0.4,0.3c0,0,0,0.1,0,0.1c0.1,0.2,0.3,0.4,0.5,0.4
				h9.6c0.2,0,0.4-0.1,0.4-0.3C52.8,45.1,52.8,45,52.8,45z"/>
			<path class="st21" d="M64.5,44.6H54c-0.2,0-0.4,0.1-0.4,0.3c0,0,0,0.1,0,0.1c0.1,0.2,0.3,0.4,0.5,0.4h10.5c0.2,0,0.4-0.2,0.4-0.4
				c0,0,0-0.1,0-0.1C65,44.8,64.8,44.6,64.5,44.6z"/>
			<path class="st20" d="M60.9,48.1c0.2,0,0.4-0.2,0.4-0.4c0,0,0-0.1,0-0.1c-0.1-0.3-0.3-0.4-0.5-0.4h-0.9c-0.2,0-0.4,0.2-0.4,0.4
				c0,0,0,0.1,0,0.1c0.1,0.2,0.3,0.4,0.5,0.4H60.9z"/>
			<path class="st18" d="M62.1,47.7c0.1,0.2,0.3,0.4,0.5,0.4H65c0.2,0,0.4-0.2,0.4-0.4c0,0,0-0.1,0-0.1c-0.1-0.2-0.3-0.4-0.5-0.4
				h-2.4C62.3,47.2,62.1,47.4,62.1,47.7C62.1,47.6,62.1,47.6,62.1,47.7z"/>
			<path class="st18" d="M43.4,48.1h4.4c0.2,0,0.4-0.1,0.4-0.3c0,0,0-0.1,0-0.1c-0.1-0.2-0.3-0.4-0.5-0.4h-4.4
				c-0.2,0-0.4,0.1-0.4,0.3c0,0,0,0.1,0,0.1C42.9,47.9,43.1,48.1,43.4,48.1z"/>
			<path class="st20" d="M49.5,48.1h8.8c0.2,0,0.4-0.2,0.4-0.4c0,0,0-0.1,0-0.1c-0.1-0.2-0.3-0.4-0.5-0.4h-8.8
				c-0.2,0-0.4,0.1-0.4,0.3c0,0,0,0.1,0,0.1C49,47.9,49.2,48.1,49.5,48.1z"/>
			<path class="st21" d="M65.9,50.3c-0.1-0.3-0.3-0.4-0.5-0.4h-9.9c-0.2,0-0.4,0.2-0.4,0.4c0,0,0,0.1,0,0.1c0.1,0.2,0.3,0.4,0.5,0.4
				h9.9C65.7,50.7,65.9,50.6,65.9,50.3C65.9,50.3,65.9,50.3,65.9,50.3z"/>
			<path class="st21" d="M43.8,50.3c0.1,0.2,0.3,0.4,0.5,0.4h9.6c0.2,0,0.4-0.2,0.4-0.4c0,0,0-0.1,0-0.1c-0.1-0.2-0.3-0.4-0.5-0.4
				h-9.6C43.9,49.8,43.8,50,43.8,50.3C43.8,50.2,43.8,50.3,43.8,50.3z"/>
			<path class="st18" d="M63.1,52.9c-0.1-0.2-0.3-0.4-0.5-0.4h-0.9c-0.2,0-0.4,0.1-0.4,0.3c0,0,0,0.1,0,0.1c0.1,0.2,0.3,0.4,0.5,0.4
				h0.9c0.2,0,0.4-0.1,0.4-0.3C63.1,53,63.1,52.9,63.1,52.9z"/>
			<path class="st21" d="M60,52.5h-8.8c-0.2,0-0.4,0.2-0.4,0.4c0,0,0,0.1,0,0.1c0.1,0.2,0.3,0.4,0.5,0.4h8.8c0.2,0,0.4-0.1,0.4-0.3
				c0,0,0-0.1,0-0.1C60.4,52.7,60.2,52.5,60,52.5z"/>
			<path class="st21" d="M66.6,52.9c-0.1-0.2-0.3-0.4-0.5-0.4h-1.8c-0.2,0-0.4,0.1-0.4,0.3c0,0,0,0.1,0,0.1c0.1,0.2,0.3,0.4,0.5,0.4
				h1.8c0.2,0,0.4-0.1,0.4-0.3C66.6,53,66.6,52.9,66.6,52.9z"/>
			<path class="st20" d="M44.4,53.3h5.2c0.2,0,0.4-0.1,0.4-0.3c0,0,0-0.1,0-0.1c-0.1-0.2-0.3-0.4-0.5-0.4h-5.3
				c-0.2,0-0.4,0.2-0.4,0.4c0,0,0,0.1,0,0.1C43.9,53.2,44.1,53.3,44.4,53.3z"/>
			<path class="st19" d="M44.8,56h4.4c0.2,0,0.4-0.1,0.4-0.3c0,0,0-0.1,0-0.1c-0.1-0.2-0.3-0.4-0.5-0.4h-4.4c-0.2,0-0.4,0.2-0.4,0.4
				c0,0,0,0.1,0,0.1C44.4,55.8,44.6,56,44.8,56z"/>
			<path class="st21" d="M66.2,55.1H64c-0.2,0-0.4,0.1-0.4,0.3c0,0,0,0.1,0,0.1c0.1,0.2,0.3,0.4,0.5,0.4h2.3c0.2,0,0.4-0.1,0.4-0.3
				c0,0,0-0.1,0-0.1C66.7,55.3,66.5,55.1,66.2,55.1z"/>
			<path class="st18" d="M61.5,56h0.9c0.2,0,0.4-0.1,0.4-0.3c0,0,0-0.1,0-0.1c-0.1-0.2-0.3-0.4-0.5-0.4h-0.9c-0.2,0-0.4,0.1-0.4,0.3
				c0,0,0,0.1,0,0.1C61,55.8,61.2,56,61.5,56z"/>
			<path class="st21" d="M51,56h8.8c0.2,0,0.4-0.1,0.4-0.3c0,0,0-0.1,0-0.1c-0.1-0.2-0.3-0.4-0.5-0.4h-8.8c-0.2,0-0.4,0.1-0.4,0.3
				c0,0,0,0.1,0,0.1C50.5,55.8,50.7,56,51,56z"/>
			<path class="st21" d="M45.3,58.1c0.1,0.2,0.3,0.4,0.5,0.4h9.6c0.2,0,0.4-0.1,0.4-0.3c0,0,0-0.1,0-0.1c-0.1-0.2-0.3-0.4-0.5-0.4
				h-9.6c-0.2,0-0.4,0.1-0.4,0.3C45.3,58.1,45.3,58.1,45.3,58.1z"/>
			<path class="st21" d="M67.6,58.1c-0.1-0.2-0.3-0.4-0.5-0.4H57c-0.2,0-0.4,0.1-0.4,0.3c0,0,0,0.1,0,0.1c0.1,0.2,0.3,0.4,0.5,0.4
				h10.1c0.2,0,0.4-0.1,0.4-0.3C67.6,58.2,67.6,58.2,67.6,58.1z"/>
			<path class="st20" d="M63.7,60.8c-0.1-0.2-0.3-0.4-0.5-0.4h-0.9c-0.2,0-0.4,0.1-0.4,0.3c0,0,0,0.1,0,0.1c0.1,0.2,0.3,0.4,0.5,0.4
				h0.9c0.2,0,0.4-0.1,0.4-0.3C63.7,60.8,63.7,60.8,63.7,60.8z"/>
			<path class="st18" d="M52,61.2h8.8c0.2,0,0.4-0.1,0.4-0.3c0,0,0-0.1,0-0.1c-0.1-0.2-0.3-0.4-0.5-0.4h-8.8c-0.2,0-0.4,0.2-0.4,0.4
				c0,0,0,0.1,0,0.1C51.5,61,51.7,61.2,52,61.2z"/>
			<path class="st21" d="M45.8,61.2h4.4c0.2,0,0.4-0.2,0.4-0.4c0,0,0-0.1,0-0.1c-0.1-0.2-0.3-0.4-0.5-0.4h-4.4
				c-0.2,0-0.4,0.1-0.4,0.3c0,0,0,0.1,0,0.1C45.4,61,45.6,61.2,45.8,61.2z"/>
			<path class="st20" d="M65.1,61.2h2.6c0.2,0,0.4-0.1,0.4-0.3c0,0,0-0.1,0-0.1c-0.1-0.2-0.3-0.4-0.5-0.4H65c-0.2,0-0.4,0.1-0.4,0.3
				c0,0,0,0.1,0,0.1C64.7,61,64.9,61.2,65.1,61.2z"/>
			<path class="st20" d="M51.6,63.8c0.2,0,0.4-0.1,0.4-0.3c0,0,0-0.1,0-0.1c-0.1-0.2-0.3-0.4-0.5-0.4h-5.3c-0.2,0-0.4,0.1-0.4,0.3
				c0,0,0,0.1,0,0.1c0.1,0.2,0.3,0.4,0.5,0.4H51.6z"/>
			<path class="st18" d="M63.9,63.8h0.9c0.2,0,0.4-0.2,0.4-0.4c0,0,0-0.1,0-0.1c-0.1-0.3-0.3-0.4-0.5-0.4h-0.9
				c-0.2,0-0.4,0.2-0.4,0.4c0,0,0,0.1,0,0.1C63.4,63.6,63.6,63.8,63.9,63.8z"/>
			<path class="st21" d="M53.4,63.8h8.8c0.2,0,0.4-0.2,0.4-0.4c0,0,0-0.1,0-0.1c-0.1-0.2-0.3-0.4-0.5-0.4h-8.8
				c-0.2,0-0.4,0.1-0.4,0.3c0,0,0,0.1,0,0.1C52.9,63.6,53.1,63.8,53.4,63.8z"/>
			<path class="st21" d="M66.5,63.8h1.9c0.2,0,0.4-0.1,0.4-0.3c0,0,0-0.1,0-0.1c-0.1-0.2-0.3-0.4-0.5-0.4h-1.9
				c-0.2,0-0.4,0.2-0.4,0.4c0,0,0,0.1,0,0.1C66,63.6,66.2,63.8,66.5,63.8z"/>
			<path class="st18" d="M68.8,65.6h-0.3c-0.2,0-0.4,0.2-0.4,0.4c0,0,0,0.1,0,0.1c0.1,0.2,0.3,0.4,0.5,0.4H69c0.2,0,0.4-0.1,0.4-0.3
				c0,0,0-0.1,0-0.1C69.3,65.7,69.1,65.6,68.8,65.6z"/>
			<path class="st19" d="M56.8,65.6h-9.6c-0.2,0-0.4,0.1-0.4,0.3c0,0,0,0.1,0,0.1c0.1,0.2,0.3,0.4,0.5,0.4h9.6
				c0.2,0,0.3-0.1,0.4-0.3c0,0,0-0.1,0-0.1C57.2,65.8,57,65.6,56.8,65.6z"/>
			<path class="st21" d="M67.3,65.6h-8.8c-0.2,0-0.4,0.1-0.4,0.3c0,0,0,0.1,0,0.1c0.1,0.2,0.3,0.4,0.5,0.4h8.8
				c0.2,0,0.4-0.1,0.4-0.3c0,0,0-0.1,0-0.1C67.7,65.7,67.5,65.6,67.3,65.6z"/>
			<path class="st18" d="M15.4,65.6h-1.3c-0.2,0-0.4,0.1-0.4,0.3c0,0,0,0.1,0,0.1c0.1,0.2,0.3,0.4,0.5,0.4h1.3
				c0.2,0,0.4-0.1,0.4-0.3c0,0,0-0.1,0-0.1C15.9,65.8,15.7,65.6,15.4,65.6z"/>
			<path class="st18" d="M14.7,68.6h0.9c0.2,0,0.4-0.2,0.4-0.4c0,0,0-0.1,0-0.1c-0.1-0.3-0.3-0.4-0.5-0.4h-0.9
				c-0.2,0-0.4,0.2-0.4,0.4c0,0,0,0.1,0,0.1C14.2,68.4,14.4,68.5,14.7,68.6z"/>
			<path class="st19" d="M23.4,68.6h8.8c0.2,0,0.4-0.1,0.4-0.3c0,0,0-0.1,0-0.1c-0.1-0.2-0.3-0.4-0.5-0.4h-8.8
				c-0.2,0-0.4,0.2-0.4,0.4c0,0,0,0.1,0,0.1C23,68.4,23.2,68.6,23.4,68.6z"/>
			<path class="st20" d="M34,68.6h0.9c0.2,0,0.4-0.1,0.4-0.3c0,0,0-0.1,0-0.1c-0.1-0.2-0.3-0.4-0.5-0.4h-0.9c-0.2,0-0.4,0.1-0.4,0.3
				c0,0,0,0.1,0,0.1C33.5,68.4,33.7,68.5,34,68.6z"/>
			<path class="st20" d="M42.7,68.6h2.9c0.2,0,0.4-0.1,0.4-0.3c0,0,0-0.1,0-0.1c-0.1-0.2-0.3-0.4-0.5-0.4h-2.9
				c-0.2,0-0.4,0.1-0.4,0.3c0,0,0,0.1,0,0.1C42.2,68.4,42.5,68.5,42.7,68.6z"/>
			<path class="st21" d="M36.6,68.6H41c0.2,0,0.4-0.1,0.4-0.3c0,0,0-0.1,0-0.1c0-0.3-0.3-0.4-0.5-0.4h-4.4c-0.2,0-0.4,0.1-0.4,0.3
				c0,0,0,0.1,0,0.1C36.1,68.4,36.3,68.6,36.6,68.6z"/>
			<path class="st21" d="M17.3,68.6h4.4c0.2,0,0.4-0.2,0.4-0.4c0,0,0-0.1,0-0.1c-0.1-0.2-0.3-0.4-0.5-0.4h-4.4
				c-0.2,0-0.4,0.2-0.4,0.4c0,0,0,0.1,0,0.1C16.8,68.4,17,68.5,17.3,68.6z"/>
			<path class="st21" d="M28.2,70.7c-0.1-0.2-0.3-0.4-0.5-0.4h-9.6c-0.2,0-0.4,0.1-0.4,0.3c0,0,0,0.1,0,0.1c0.1,0.2,0.3,0.4,0.5,0.4
				h9.6c0.2,0,0.4-0.1,0.4-0.3C28.2,70.8,28.2,70.8,28.2,70.7z"/>
			<path class="st22" d="M16.3,70.3H15c-0.2,0-0.4,0.2-0.4,0.4c0,0,0,0.1,0,0.1c0.1,0.2,0.3,0.4,0.5,0.4h1.3c0.2,0,0.4-0.1,0.4-0.3
				c0,0,0-0.1,0-0.1C16.8,70.5,16.6,70.3,16.3,70.3z"/>
			<path class="st21" d="M38.2,70.3h-8.8c-0.2,0-0.4,0.1-0.4,0.3c0,0,0,0.1,0,0.1c0.1,0.2,0.3,0.4,0.5,0.4h8.8
				c0.2,0,0.4-0.2,0.4-0.4c0,0,0-0.1,0-0.1C38.7,70.5,38.5,70.3,38.2,70.3z"/>
			<path class="st20" d="M41.5,71.2c0.2,0,0.4-0.1,0.4-0.3c0,0,0-0.1,0-0.1c-0.1-0.2-0.3-0.4-0.5-0.4H40c-0.2,0-0.4,0.2-0.4,0.4
				c0,0,0,0.1,0,0.1c0.1,0.2,0.3,0.4,0.5,0.4H41.5z"/>
			<path class="st21" d="M45.9,70.3H43c-0.2,0-0.4,0.1-0.4,0.3c0,0,0,0.1,0,0.1c0.1,0.2,0.3,0.4,0.5,0.4h2.9c0.2,0,0.4-0.1,0.4-0.3
				c0,0,0-0.1,0-0.1C46.4,70.5,46.2,70.3,45.9,70.3z"/>
			<path class="st20" d="M35.8,73.8c0.2,0,0.4-0.1,0.4-0.3c0,0,0-0.1,0-0.1c-0.1-0.2-0.3-0.4-0.5-0.4h-0.9c-0.2,0-0.4,0.1-0.4,0.3
				c0,0,0,0.1,0,0.1c0.1,0.2,0.3,0.4,0.5,0.4H35.8z"/>
			<path class="st23" d="M15.7,73.8h0.9c0.2,0,0.4-0.1,0.4-0.3c0,0,0-0.1,0-0.1c-0.1-0.2-0.3-0.4-0.5-0.4h-0.9
				c-0.2,0-0.4,0.1-0.4,0.3c0,0,0,0.1,0,0.1C15.2,73.6,15.4,73.8,15.7,73.8z"/>
			<path class="st18" d="M37.1,73.4c0.1,0.2,0.3,0.4,0.5,0.4H42c0.2,0,0.4-0.1,0.4-0.3c0,0,0-0.1,0-0.1c-0.1-0.2-0.3-0.4-0.5-0.4
				h-4.4c-0.2,0-0.4,0.1-0.4,0.3C37,73.3,37.1,73.3,37.1,73.4z"/>
			<path class="st18" d="M18.3,73.8h4.4c0.2,0,0.4-0.2,0.4-0.4c0,0,0-0.1,0-0.1c-0.1-0.2-0.3-0.4-0.5-0.4h-4.4
				c-0.2,0-0.4,0.1-0.4,0.3c0,0,0,0.1,0,0.1C17.8,73.6,18,73.8,18.3,73.8z"/>
			<path class="st18" d="M46.4,72.9h-2.9c-0.2,0-0.4,0.1-0.4,0.3c0,0,0,0.1,0,0.1c0.1,0.2,0.3,0.4,0.5,0.4h2.9
				c0.2,0,0.4-0.2,0.4-0.4c0,0,0-0.1,0-0.1C46.9,73.1,46.7,72.9,46.4,72.9z"/>
			<path class="st20" d="M24.4,73.8h8.8c0.2,0,0.4-0.1,0.4-0.3c0,0,0-0.1,0-0.1c-0.1-0.2-0.3-0.4-0.5-0.4h-8.8
				c-0.2,0-0.4,0.2-0.4,0.4c0,0,0,0.1,0,0.1C24,73.6,24.2,73.8,24.4,73.8z"/>
			<path class="st19" d="M53.4,68.6h8.8c0.2,0,0.4-0.1,0.4-0.3c0,0,0-0.1,0-0.1c-0.1-0.2-0.3-0.4-0.5-0.4h-8.8
				c-0.2,0-0.4,0.1-0.4,0.3c0,0,0,0.1,0,0.1C52.9,68.4,53.1,68.6,53.4,68.6z"/>
			<path class="st20" d="M63.9,68.6h0.9c0.2,0,0.4-0.1,0.4-0.3c0,0,0-0.1,0-0.1c-0.1-0.2-0.3-0.4-0.5-0.4h-0.9
				c-0.2,0-0.4,0.1-0.4,0.3c0,0,0,0.1,0,0.1C63.4,68.4,63.6,68.5,63.9,68.6z"/>
			<path class="st21" d="M66.5,68.6h2.8c0.2,0,0.4-0.1,0.4-0.3c0,0,0-0.1,0-0.1c-0.1-0.2-0.3-0.4-0.5-0.4h-2.8
				c-0.2,0-0.4,0.1-0.4,0.3c0,0,0,0.1,0,0.1C66.1,68.4,66.3,68.5,66.5,68.6z"/>
			<path class="st21" d="M47.2,68.6h4.4c0.2,0,0.4-0.1,0.4-0.3c0,0,0-0.1,0-0.1c-0.1-0.2-0.3-0.4-0.5-0.4h-4.4
				c-0.2,0-0.4,0.2-0.4,0.4c0,0,0,0.1,0,0.1C46.8,68.4,47,68.5,47.2,68.6z"/>
			<path class="st21" d="M57.7,70.7c-0.1-0.2-0.3-0.4-0.5-0.4h-9.6c-0.2,0-0.4,0.2-0.4,0.4c0,0,0,0.1,0,0.1c0.1,0.2,0.3,0.4,0.5,0.4
				h9.6C57.5,71.2,57.7,71,57.7,70.7C57.7,70.8,57.7,70.8,57.7,70.7z"/>
			<path class="st21" d="M69.7,70.3H58.9c-0.2,0-0.4,0.2-0.4,0.4c0,0,0,0.1,0,0.1c0.1,0.2,0.3,0.4,0.5,0.4h10.8
				c0.2,0,0.4-0.1,0.4-0.3c0,0,0-0.1,0-0.1C70.1,70.5,69.9,70.3,69.7,70.3z"/>
			<path class="st20" d="M65.8,73.8c0.2,0,0.4-0.1,0.4-0.3c0,0,0-0.1,0-0.1c-0.1-0.2-0.3-0.4-0.5-0.4h-0.9c-0.2,0-0.4,0.1-0.4,0.3
				c0,0,0,0.1,0,0.1c0.1,0.2,0.3,0.4,0.5,0.4H65.8z"/>
			<path class="st18" d="M67,73.4c0.1,0.2,0.3,0.4,0.5,0.4h2.8c0.2,0,0.4-0.1,0.4-0.3c0,0,0-0.1,0-0.1c-0.1-0.2-0.3-0.4-0.5-0.4
				h-2.8c-0.2,0-0.4,0.1-0.4,0.3C67,73.3,67,73.3,67,73.4z"/>
			<path class="st18" d="M48.2,73.8h4.4c0.2,0,0.4-0.2,0.4-0.4c0,0,0-0.1,0-0.1c-0.1-0.2-0.3-0.4-0.5-0.4h-4.4
				c-0.2,0-0.4,0.2-0.4,0.4c0,0,0,0.1,0,0.1C47.8,73.6,48,73.8,48.2,73.8z"/>
			<path class="st20" d="M54.4,73.8h8.8c0.2,0,0.4-0.1,0.4-0.3c0,0,0-0.1,0-0.1c-0.1-0.2-0.3-0.4-0.5-0.4h-8.8
				c-0.2,0-0.4,0.2-0.4,0.4c0,0,0,0.1,0,0.1C53.9,73.6,54.1,73.8,54.4,73.8z"/>
			<path class="st14" d="M191,108H13.2c-0.6,0-1-0.4-1-0.9c0,0,0,0,0-0.1l0,0c0-0.6,0.5-1.1,1.1-1.1H191c0.6,0,1.1,0.5,1.1,1.1l0,0
				C192,107.6,191.6,108,191,108z"/>
			<path class="st0" d="M2,100.9h200.2c1.1,0,2,0.9,2,2v1.4c0,1.1-0.9,2-2,2H2c-1.1,0-2-0.9-2-2v-1.4C0,101.8,0.9,100.9,2,100.9z"/>
			<path class="st6" d="M119.3,91.4l-6.8-2.2c-2.6-0.8-6.6,0.7-9.6,2.9c0,0-2,1.7-1.3,2.3s4.1-2.2,7-2.5c0,0-6.8,4.3-6.1,5.9
				c0.2,0.5,1.1,0.4,2.1,0c-0.2,0.3-0.2,0.5-0.1,0.7c0.4,0.4,2.3-0.3,4.1-1.1c-0.3,0.2-0.6,0.5-0.6,0.8c0.1,1,5.6-1.5,5.6-1.5
				s3.5,2.3,5.9,0.8C119.5,97.4,120.5,93.4,119.3,91.4z"/>
			<path class="st3" d="M39.3,98.2h77.6c0.7,0,1.3,0.6,1.3,1.3v0.2c0,0.7-0.6,1.3-1.3,1.3H39.3c-0.7,0-1.3-0.6-1.3-1.3v-0.2
				C38,98.8,38.6,98.2,39.3,98.2z"/>
			<path class="st15" d="M94.1,58.4l8,37.7c0.2,0.9-0.3,1.8-1.1,2c-0.2,0-0.3,0.1-0.5,0.1H39.2c-1.2-0.1-2.3-0.9-2.5-2.1l-7.9-37.7
				c-0.2-0.9,0.3-1.8,1.1-2c0.2,0,0.3-0.1,0.5-0.1h61.2C92.8,56.4,93.8,57.3,94.1,58.4z"/>
			<path class="st24" d="M92.2,58.4l8,37.7c0.3,0.9-0.3,1.8-1.1,2c-0.2,0.1-0.4,0.1-0.6,0.1H39.2c-1.2-0.1-2.3-0.9-2.5-2.1
				l-7.9-37.7c-0.2-0.9,0.3-1.8,1.1-2c0.2,0,0.3-0.1,0.5-0.1h59.3C90.9,56.4,91.9,57.3,92.2,58.4z"/>
			<path class="st10" d="M62.5,81.2c-2.2,0-3.9-1.8-3.9-3.9c0-2.2,1.8-3.9,3.9-3.9c2.2,0,3.9,1.8,3.9,3.9S64.7,81.2,62.5,81.2
				C62.5,81.2,62.5,81.2,62.5,81.2z M62.5,75c-1.3,0-2.3,1-2.3,2.3c0,1.3,1,2.3,2.3,2.3c1.3,0,2.3-1,2.3-2.3c0,0,0,0,0,0
				C64.8,76,63.8,75,62.5,75L62.5,75z"/>
		</g>
	</g>
</g>
</svg>
