<svg id="Layer_1" data-name="Layer 1" xmlns="http://www.w3.org/2000/svg" viewBox="0 0 89.48 72"><title>6</title><g id="Layer_1-2" data-name="Layer 1-2"><path d="M89.37,64.93l-6.5-15.17a6.51,6.51,0,0,0-3.13-3.31,6.54,6.54,0,0,0,1.89-4.6V6.55A6.56,6.56,0,0,0,75.06,0H14.42A6.56,6.56,0,0,0,7.87,6.55v35.3a6.5,6.5,0,0,0,1.87,4.6,6.55,6.55,0,0,0-3.15,3.31L.11,64.93a1.31,1.31,0,0,0-.11.52A6.56,6.56,0,0,0,6.56,72H82.92a6.56,6.56,0,0,0,6.56-6.55A1.31,1.31,0,0,0,89.37,64.93ZM10.49,6.55a3.94,3.94,0,0,1,3.93-3.93H75.06A4,4,0,0,1,79,6.55v35.3a4,4,0,0,1-3.93,3.94H14.42a4,4,0,0,1-3.93-3.94ZM9,50.79a3.92,3.92,0,0,1,3.61-2.38H76.85a3.92,3.92,0,0,1,3.61,2.38l5.72,13.35H3.3Zm42.27,16v2.62H38.19V66.76Zm-48.44,0H35.57v2.62h-29a4,4,0,0,1-3.72-2.65ZM82.9,69.41h-29V66.76H86.63a4,4,0,0,1-3.71,2.62Z"/><path d="M10.39,58.89h5.24a1.31,1.31,0,1,0,0-2.62H12.37l1.13-2.62H76l1.13,2.62H20.87a1.31,1.31,0,1,0,0,2.62H79.09a1.31,1.31,0,0,0,1.31-1.31,1.29,1.29,0,0,0-.1-.51l-2.25-5.25a1.31,1.31,0,0,0-1.2-.79H12.63a1.31,1.31,0,0,0-1.2.79L9.18,57.07a1.32,1.32,0,0,0,.7,1.72A1.25,1.25,0,0,0,10.39,58.89Z"/><path d="M60.4,30.08a7.79,7.79,0,0,0-6-2.31l-2.22-2.19,9.3-9.31a4.22,4.22,0,0,0,0-6l0,0L60,8.78a4.22,4.22,0,0,0-6,0l0,0-9.27,9.35-2.19-2.2A7.9,7.9,0,0,0,31,8.45l-1.31.66L34.61,14l-1.49,1.49-4.87-4.91-.66,1.29a7.92,7.92,0,0,0,7.48,11.5l2.19,2.21-8,8-2.54,10,10-2.49,8-8,2.19,2.19a7.92,7.92,0,0,0,7.53,8.29h.36a8.1,8.1,0,0,0,3.61-.87l1.31-.66-4.89-4.89,1.49-1.49,4.87,4.91.66-1.29A7.88,7.88,0,0,0,60.4,30.08ZM55.52,10.31a2.12,2.12,0,0,1,3,0L60,11.8a2.11,2.11,0,0,1,.61,1.49A2,2,0,0,1,60,14.78l-1.06,1.07-4.48-4.48ZM53,12.87l4.48,4.47-1.5,1.49-4.47-4.47Zm-19.53-3a5.76,5.76,0,0,1,4.49.9l-1.8,1.79Zm2.42,11.37-.51.06a5.8,5.8,0,0,1-6.38-7l4.18,4.19,6.27-6.27a5.79,5.79,0,0,1,1,4l-.06.51,2.88,2.9-4.51,4.51ZM50,15.85l1.49,1.49L33.15,35.66l-1.49-1.49ZM29.63,40.67l1.09-4.44,3.35,3.35Zm6.5-2-1.49-1.49L53,18.83l1.49,1.49ZM56,41.37a5.84,5.84,0,0,1-4.49-.89l1.8-1.8Zm4.47-4.47L56.3,32.68,50,39a5.81,5.81,0,0,1-1-4l.06-.51-2.88-2.86,4.51-4.51L53.63,30l.51-.06a5.79,5.79,0,0,1,6.47,5,5.88,5.88,0,0,1-.09,2Z"/></g></svg>