<svg id="Layer_1" data-name="Layer 1" xmlns="http://www.w3.org/2000/svg" viewBox="0 0 100 100"><title>5</title><path d="M58,36.69,56.81,38A24.06,24.06,0,0,0,36.7,32.45,23.36,23.36,0,0,0,20.55,42.92a24,24,0,0,0,6.87,33.45,24.27,24.27,0,0,0,33.07-6,16,16,0,0,1-6.93-7,14.47,14.47,0,0,1-1.21-9.77,7.67,7.67,0,0,0,.77.36A5.56,5.56,0,0,0,54,54c-.73,6.63,1.75,11.57,7.67,14.87.53-1,1.09-2,1.53-3a23.64,23.64,0,0,0,1.7-13.13c-.12-.78-.31-1.48.49-2a4,4,0,0,0,.73-1,24.4,24.4,0,0,1,.71,10.07,26.62,26.62,0,0,1-3.28,9.53,13.37,13.37,0,0,0,16.07-7.29,13.1,13.1,0,0,0-7.5-17.77c.44-.44.86-.89,1.32-1.28.1-.09.39,0,.55,0a14.05,14.05,0,0,1,7.7,8.36A15.16,15.16,0,0,1,63.13,71.32l-.72-.22C57,78.19,50,82.08,41,82.22a25.37,25.37,0,0,1-18.55-7.39A26,26,0,0,1,22.13,38,26.23,26.23,0,0,1,58,36.69Z"/><path d="M87.14,26a4,4,0,0,1-.5.71q-4.9,5-9.84,9.87L64.07,49.37A2.31,2.31,0,0,1,62.9,50c-2.75.63-5.48,1.31-8.22,2a3.87,3.87,0,0,1-.68.12c-.86,0-1.31-.51-1-1.32.66-2.1,1.35-4.2,2-6.29a5.68,5.68,0,0,0,.24-.77,5.8,5.8,0,0,1,1.87-3.07Q68,29.74,78.83,18.76a1.16,1.16,0,0,1,1-.42A8.05,8.05,0,0,1,87.14,26ZM58.48,41.77c1.08.88,2.09,1.66,3.06,2.49a8.83,8.83,0,0,1,1.08,1.27c.3.4.1.77-.15,1.1a.65.65,0,0,1-.93.18A11.84,11.84,0,0,1,60.6,46c-.88-.73-1.76-1.46-2.67-2.15-.23-.18-.55-.29-.71.18-.46,1.43-.95,2.84-1.41,4.26-.15.47.53,1.26,1,1.17,1.77-.37,3.54-.73,5.29-1.13a1.92,1.92,0,0,0,.87-.48q4.78-4.79,9.54-9.6,6.29-6.34,12.56-12.69a1,1,0,0,0,.28-.73,6.24,6.24,0,0,0-4.49-4.71,1,1,0,0,0-1.07.3q-10.47,10.5-21,21C58.66,41.54,58.54,41.7,58.48,41.77Z"/></svg>