<?xml version="1.0" encoding="utf-8"?>
<!-- Generator: Adobe Illustrator 21.0.0, SVG Export Plug-In . SVG Version: 6.00 Build 0)  -->
<svg version="1.1" id="Icons" xmlns="http://www.w3.org/2000/svg" xmlns:xlink="http://www.w3.org/1999/xlink" x="0px" y="0px"
	 viewBox="0 0 100 100" style="enable-background:new 0 0 100 100;" xml:space="preserve">
<style type="text/css">
	.st0{fill:#161616;}
</style>
<g>
	<path class="st0" d="M99.1,37.6L69.3,7.7c-0.3-0.3-0.6-0.4-1-0.4s-0.7,0.1-1,0.4l-6.4,6.4c-2.2,2.2-2.6,5.4-1.3,8.1
		c-2.5-0.4-5.2-0.3-7.7,0.1c-2.3,0.5-4.2,1.8-5.6,3.6c-2.1-0.9-4.3-1.4-6.5-1.3c2.2-2.7,2-6.7-0.5-9.3l-6.4-6.4
		c-0.6-0.6-1.4-0.6-2,0l-30,29.8l0,0c-0.6,0.6-0.6,1.4,0,2l6.4,6.4c1.3,1.3,3.1,2,4.9,2l0,0c1.7,0,3.3-0.6,4.6-1.7
		c-0.4,3.5,0,7,1.2,10.3l-1.5,1.5c-1.2,1.2-1.9,2.8-1.9,4.5c0,3.5,2.8,6.3,6.3,6.3l0,0c0.2,0,0.4,0,0.7,0c0,0.2,0,0.4,0,0.7
		c0,3.5,2.8,6.3,6.3,6.3c0.3,0,0.7,0,1-0.1c0,0.2,0,0.5,0,0.7c0,3.9,3.2,7.1,7,7.1c0.2,0,0.4,0,0.7,0c-0.3,1.9,0.3,4,1.8,5.5
		l0.4,0.4c1.2,1.2,2.8,1.9,4.5,1.8c1.7,0,3.3-0.7,4.5-1.8l1.5-1.5l1.8,1.8c1.2,1.2,2.9,1.9,4.7,1.9l0,0c1.8,0,3.4-0.7,4.7-1.9
		c1.5-1.5,2.1-3.5,1.9-5.5c0.3,0,0.5,0,0.8,0c1.8,0,3.4-0.7,4.7-1.9c1.5-1.5,2.2-3.6,1.9-5.6c0.3,0,0.5,0,0.8,0l0,0
		c1.8,0,3.6-0.7,4.9-2c1.6-1.6,2.2-3.7,2-5.7c0.3,0,0.6,0.1,0.9,0.1c1.7,0,3.4-0.7,4.7-1.9c2.6-2.6,2.6-6.7,0-9.3l-2.2-2.2
		c2.4-2.5,2.9-6.9,2.9-10.1c1.2,0.9,2.6,1.4,4.1,1.4l0,0c1.8,0,3.6-0.7,4.9-2l6.4-6.4C99.7,39.1,99.7,38.2,99.1,37.6z M9.3,45.1
		l-5.4-5.4l27.9-27.8l5.4,5.4c1.6,1.6,1.6,4.2,0,5.8l-2.7,2.7l-0.1,0.1L15.1,45.2C13.5,46.8,10.9,46.8,9.3,45.1z M18.6,66.2
		c-1.4-1.3-1.4-3.6-0.1-4.9l2.1-2.1c0.1,0,0.1-0.1,0.1-0.1l1.1-1.1l0,0c1.4-1.4,3.6-1.4,4.9,0c1.4,1.4,1.4,3.6,0,4.9L25,64.6
		l-1.7,1.7l0,0C22.1,67.5,20,67.5,18.6,66.2z M25.5,73.1c-1.4-1.4-1.4-3.6,0-4.9l0,0l3.3-3.3l0,0c0.7-0.7,1.5-1,2.5-1l0,0
		c0.9,0,1.8,0.4,2.5,1c1.4,1.4,1.4,3.6,0,4.9l-3.3,3.3C29.1,74.5,26.8,74.5,25.5,73.1z M33,80.6c-1.6-1.6-1.7-4.2-0.1-5.9l2.4-2.4
		c0.8-0.8,1.8-1.2,3-1.2l0,0c1.1,0,2.2,0.4,3,1.2c1.6,1.6,1.6,4.3,0,6l0,0L39,80.6C37.3,82.2,34.6,82.2,33,80.6z M45.7,88.5
		c-1.4,1.4-3.6,1.4-4.9,0l-0.4-0.4l0,0c-1.4-1.4-1.4-3.6,0-4.9l0.4-0.4c0.1-0.1,0.1-0.1,0.2-0.2l2.3-2.3l0.1-0.1l0.1-0.1l0.3-0.3
		l0,0c1.4-1.4,3.6-1.4,4.9,0l0.4,0.4c1.4,1.4,1.4,3.6,0,4.9L45.7,88.5z M80.9,66.2c-1.5,1.5-3.8,1.5-5.3,0L75.4,66l-0.1-0.1
		l-9.4-9.4l0,0L65.4,56c-0.5-0.5-1.4-0.5-2,0s-0.6,1.4,0,2l2.1,2.1l7.9,7.9c1.6,1.6,1.6,4.2,0,5.8c-1.6,1.6-4.2,1.6-5.8,0L60,66.3
		c-0.3-0.3-0.6-0.4-1-0.4s-0.7,0.1-1,0.4c-0.6,0.5-0.6,1.4,0,2l7.7,7.7c1.5,1.5,1.5,3.9,0,5.4s-3.9,1.5-5.4,0l0,0L57,78
		c-0.3-0.3-0.6-0.4-1-0.4s-0.7,0.1-1,0.4c-0.6,0.5-0.6,1.4,0,2l3.4,3.4l0,0c1.5,1.5,1.5,3.9,0,5.4s-3.9,1.5-5.4,0L51.2,87
		c2.3-2.5,2.3-6.4-0.1-8.8l-0.4-0.4c-1.5-1.5-3.5-2.1-5.4-1.8c0.2-2.1-0.5-4.2-2.1-5.8c-1.6-1.5-3.7-2.2-5.7-2
		c0.2-1.9-0.3-3.8-1.7-5.2c-1.4-1.4-3.3-2.1-5.1-1.9c0.2-1.9-0.4-3.8-1.9-5.3c-2.4-2.3-6.1-2.4-8.5-0.3c-1.1-3.8-1.1-7.9,0.2-11.7
		l15.8-15.7c2.8-1,5.9-1,8.6,0.2c-0.5,1.2-0.7,2.5-0.7,3.8v14.7c0,3.7,3,6.6,6.6,6.6c3.7,0,6.6-3,6.6-6.6v-9.5l20.3,20.3l0,0
		l3.3,3.3C82.4,62.4,82.4,64.8,80.9,66.2z M78.7,54.7L56.9,32.9c-0.3-0.3-0.6-0.4-1-0.4c-0.8,0-1.4,0.6-1.4,1.4v12.9
		c0,2.1-1.7,3.8-3.8,3.8s-3.8-1.7-3.8-3.8V32.1c0-3.4,2.3-6.3,5.5-7.1c3.5-0.6,7-0.4,10.3,0.8l17.9,18
		C80.9,46.5,80.9,52.3,78.7,54.7z M90.7,44c-0.8,0.8-1.8,1.2-2.9,1.2s-2.1-0.4-2.9-1.2l-1.7-1.7c-0.1-0.1-0.1-0.1-0.2-0.2L64.6,23.7
		l-0.1-0.1l-1.7-1.7l0,0c-1.6-1.6-1.6-4.2,0-5.8l5.4-5.4L96,38.6L90.7,44z"/>
	<path class="st0" d="M63.1,85.3L63.1,85.3L63.1,85.3z"/>
</g>
</svg>
