<?xml version="1.0" encoding="utf-8"?>
<!-- Generator: Adobe Illustrator 21.0.0, SVG Export Plug-In . SVG Version: 6.00 Build 0)  -->
<svg version="1.1" id="Layer_1" xmlns="http://www.w3.org/2000/svg" xmlns:xlink="http://www.w3.org/1999/xlink" x="0px" y="0px"
	 viewBox="0 0 89 72" style="enable-background:new 0 0 89 72;" xml:space="preserve">
<title>Artboard 1</title>
<path d="M88.7,64.6l-6.4-15c-0.6-1.4-1.7-2.6-3.1-3.3c1.2-1.2,1.9-2.8,1.9-4.6V6.9c0-3.6-2.9-6.5-6.5-6.5c0,0,0,0,0,0h-60
	C10.9,0.4,8,3.3,8,6.9v34.9c0,1.7,0.7,3.3,1.9,4.6c-1.4,0.7-2.5,1.8-3.1,3.3l-6.4,15c-0.1,0.2-0.1,0.3-0.1,0.5
	c0,3.6,2.9,6.5,6.5,6.5h75.6c3.6,0,6.5-2.9,6.5-6.5C88.8,65,88.7,64.8,88.7,64.6z M10.6,6.9c0-2.1,1.7-3.9,3.9-3.9h60
	c2.1,0,3.9,1.7,3.9,3.9v34.9c0,2.1-1.8,3.9-3.9,3.9h-60c-2.1,0-3.9-1.8-3.9-3.9V6.9z M9.2,50.6c0.6-1.4,2-2.4,3.6-2.4h63.6
	c1.6,0,3,0.9,3.6,2.4l5.7,13.2h-82L9.2,50.6z M51,66.5v2.6H38v-2.6L51,66.5z M3,66.5h32.4v2.6H6.7C5.1,69,3.6,68,3,66.5L3,66.5z
	 M82.3,69.1H53.6v-2.6H86C85.4,68,83.9,69,82.3,69.1L82.3,69.1z"/>
<path d="M10.5,58.7h5.2c0.7,0,1.3-0.6,1.3-1.3c0-0.7-0.6-1.3-1.3-1.3h-3.2l1.1-2.6h61.8l1.1,2.6H20.9c-0.7,0-1.3,0.6-1.3,1.3
	c0,0.7,0.6,1.3,1.3,1.3l0,0h57.6c0.7,0,1.3-0.6,1.3-1.3c0-0.2,0-0.3-0.1-0.5l-2.2-5.2c-0.2-0.5-0.7-0.8-1.2-0.8H12.7
	c-0.5,0-1,0.3-1.2,0.8l-2.2,5.2c-0.3,0.7,0,1.4,0.7,1.7C10.2,58.6,10.3,58.7,10.5,58.7z"/>
<path d="M59.9,8l-3.4,3.4l-0.7-0.7c-1.1-1.1-3-1.1-4.1,0l-0.8,0.8c-1.1-0.5-2.4-0.3-3.3,0.6l-3.4,3.4l-0.6-0.7
	c-0.3-0.5-0.9-0.6-1.4-0.3c-0.5,0.3-0.6,0.9-0.3,1.4c0.1,0.1,0.1,0.2,0.2,0.2l11,11c0.5,0.3,1.1,0.1,1.4-0.4c0.2-0.3,0.2-0.7,0-1
	l-0.6-0.7l3.4-3.4c0.9-0.9,1.1-2.2,0.6-3.3l0.8-0.8c1.1-1.1,1.1-3,0-4.1c0,0,0,0,0,0l-0.7-0.7l3.5-3.4c0.5-0.3,0.6-0.9,0.3-1.4
	c-0.3-0.5-0.9-0.6-1.4-0.3C60.1,7.8,60,7.9,59.9,8L59.9,8z M54.4,12.1l2.7,2.7c0.4,0.4,0.4,1,0,1.4l-0.7,0.7l-4-4.1l0.7-0.7
	C53.5,11.8,54,11.8,54.4,12.1z M55.8,20.3l-3.3,3.4l-6.9-6.9l3.4-3.4c0.4-0.4,1-0.4,1.4,0l0,0l5.5,5.5
	C56.1,19.3,56.2,19.9,55.8,20.3L55.8,20.3z"/>
<path d="M30.2,40.5l3-3l0.7,0.7c1.1,1.1,3,1.1,4.1,0l0.8-0.8c1.1,0.5,2.4,0.3,3.3-0.6l3.4-3.4l0.7,0.7c0.5,0.3,1.1,0.2,1.4-0.3
	c0.2-0.3,0.2-0.8,0-1.1l-2.1-2.1l3.4-3.4c0.4-0.4,0.4-1,0-1.4c-0.4-0.4-1-0.4-1.4,0l-3.4,3.4L40,25.1l3.5-3.4c0.4-0.4,0.4-1,0-1.4
	c-0.4-0.4-1-0.4-1.4,0l-3.4,3.4l-2.1-2.1c-0.5-0.3-1.1-0.2-1.4,0.3c-0.2,0.3-0.2,0.8,0,1.1l0.7,0.7l-3.4,3.4
	c-0.9,0.9-1.1,2.2-0.6,3.3l-0.8,0.8c-1.1,1.1-1.1,3,0,4.1l0.7,0.7l-3,3c-0.3,0.5-0.2,1.1,0.3,1.4C29.4,40.7,29.8,40.7,30.2,40.5
	L30.2,40.5z M35.2,36.8L32.5,34c-0.4-0.4-0.4-1,0-1.4l0.7-0.7l4.1,4.1l-0.7,0.7C36.2,37.1,35.6,37.1,35.2,36.8z M33.9,28.5l3.4-3.4
	l6.8,6.9l-3.4,3.4c-0.4,0.4-1,0.4-1.4,0l0,0l-5.5-5.5C33.5,29.5,33.6,28.9,33.9,28.5z"/>
</svg>
