<?xml version="1.0" encoding="utf-8"?>
<!-- Generator: Adobe Illustrator 24.3.0, SVG Export Plug-In . SVG Version: 6.00 Build 0)  -->
<svg version="1.1" id="Layer_1" xmlns="http://www.w3.org/2000/svg" xmlns:xlink="http://www.w3.org/1999/xlink" x="0px" y="0px"
	 viewBox="0 0 225 135.5" style="enable-background:new 0 0 225 135.5;" xml:space="preserve">
<style type="text/css">
	.st0{fill:#45B29D;}
	.st1{fill:#FFFFFF;}
	.st2{fill:#9B58B5;}
	.st3{fill:#DF4949;}
	.st4{fill:#154284;}
	.st5{fill:#F7F4EE;}
	.st6{fill:#AC5F1A;}
	.st7{fill:#32526E;}
	.st8{fill:#0093ED;}
	.st9{fill:#263E53;}
	.st10{fill:#2C3D4F;}
	.st11{fill:#323441;}
	.st12{fill:#FFC2B0;}
	.st13{fill:#FFAF9C;}
	.st14{fill:#263A45;}
	.st15{fill:#FFA55F;}
	.st16{fill:#099EC6;}
	.st17{fill:#1AA4E8;}
	.st18{fill:#F6E2CA;}
</style>
<g>
	<g>
		<g>
			<path class="st0" d="M28.2,105.2H17.3c-0.9,0-1.7-0.8-1.7-1.7V92.7c0-0.9,0.8-1.7,1.7-1.7h10.9c0.9,0,1.7,0.8,1.7,1.7v10.9
				C29.9,104.5,29.2,105.2,28.2,105.2z"/>
			<g>
				<g>
					<path class="st1" d="M25.2,97l1.4-1.5c-0.4-0.3-0.9-0.6-1.5-0.8l-0.7,1.7C24.7,96.5,24.9,96.7,25.2,97z"/>
					<path class="st1" d="M26.1,98.2L26.1,98.2l2.1-0.9c-0.3-0.5-0.7-0.9-1.1-1.3l-1.5,1.5C25.8,97.7,26,97.9,26.1,98.2z"/>
					<path class="st1" d="M18.9,96.7l-0.6-0.8c-0.4,0.3-0.7,0.7-0.9,1.1l0.7,0.5C18.4,97.2,18.6,96.9,18.9,96.7z"/>
					<path class="st1" d="M16.8,102.1H17c0-0.2-0.1-0.4-0.1-0.6h-0.3C16.7,101.7,16.7,101.9,16.8,102.1z"/>
					<path class="st1" d="M26.5,99.8l2.5-0.3c-0.1-0.3-0.1-0.6-0.3-0.9c-0.1-0.3-0.2-0.5-0.3-0.7L26.3,99
						C26.5,99.1,26.5,99.4,26.5,99.8z"/>
					<path class="st1" d="M17,99.6l-0.5-0.1c0,0.4,0,0.9,0,1.4h0.4C16.9,100.4,16.9,100,17,99.6z"/>
					<path class="st1" d="M17.7,98l-0.6-0.4c-0.2,0.4-0.4,0.9-0.5,1.3l0.6,0.1C17.3,98.7,17.5,98.3,17.7,98z"/>
					<path class="st1" d="M22.2,95.7l0.1-1.5c-0.5,0-1.1,0.1-1.6,0.3l0.4,1.3C21.5,95.7,21.8,95.6,22.2,95.7z"/>
					<path class="st1" d="M20.5,95.9l-0.4-1.2c-0.5,0.2-0.9,0.5-1.3,0.8l0.7,0.9C19.8,96.1,20.1,96,20.5,95.9z"/>
					<path class="st1" d="M23.8,96.1l0.7-1.6c-0.5-0.2-1-0.3-1.6-0.3l-0.1,1.6C23.2,95.8,23.5,95.9,23.8,96.1z"/>
				</g>
				<g>
					<path class="st1" d="M23.6,100.4c0.1,0.4-0.1,0.9-0.6,1s-0.9-0.1-1-0.6c-0.1-0.4,0.1-0.9,0.6-1C23.1,99.8,23.5,100,23.6,100.4z
						"/>
					<polygon class="st1" points="21.4,94.5 21.1,94.5 22.5,100.8 23.2,100.6 					"/>
				</g>
			</g>
			<g>
				<path class="st2" d="M15.4,111.1H4.5c-1.2,0-2.2-1-2.2-2.2v-11c0-1.2,1-2.2,2.2-2.2h10.9c1.2,0,2.2,1,2.2,2.2v10.9
					C17.6,110.1,16.6,111.1,15.4,111.1z"/>
				<g>
					<path class="st1" d="M10.6,97.7c2.9,0,4.7,1.9,4.7,4.7c0,2.5-1.6,3.7-2.9,3.7c-0.8,0-1.4-0.4-1.5-1l0,0
						c-0.4,0.6-1.1,0.9-1.7,0.9c-1,0-1.7-0.8-1.7-2c0-1.6,1.1-3.3,2.7-3.3c0.5,0,0.8,0.2,1.1,0.7l0,0l0.2-0.6h1l-0.6,2.9
						c-0.2,0.9,0,1.4,0.7,1.4c0.9,0,1.7-1,1.7-2.7c0-2.1-1.2-3.8-3.8-3.8c-2.4,0-4.8,2.1-4.8,5.2c0,2.7,1.8,4.1,4.1,4.1
						c0.8,0,1.6-0.2,2.2-0.6l0.4,0.9c-0.8,0.5-1.7,0.7-2.7,0.7c-2.7,0-5-1.7-5-5.1C4.6,100.2,7.3,97.7,10.6,97.7z M9.4,105
						c0.3,0,0.7-0.2,1.1-0.7l0.4-2c-0.2-0.3-0.4-0.5-0.8-0.5c-1,0-1.5,1.2-1.5,2.1C8.6,104.7,8.9,105,9.4,105z"/>
				</g>
			</g>
			<g>
				<path class="st3" d="M30.9,119.6h-11c-1.7,0-3.1-1.4-3.1-3.1v-11c0-1.7,1.4-3.1,3.1-3.1h11c1.7,0,3.1,1.4,3.1,3.1v11
					C33.9,118.2,32.5,119.6,30.9,119.6z"/>
				<g>
					<path class="st1" d="M28.9,109.7L28.9,109.7l0.1-1.9c0-2-1.6-3.6-3.6-3.6s-3.6,1.6-3.6,3.6v1.9h0.1c-0.5,0-0.9,0.4-0.9,0.9v6.3
						c0,0.5,0.4,0.9,0.9,0.9H29c0.5,0,0.9-0.4,0.9-0.9v-6.3C29.8,110.1,29.4,109.7,28.9,109.7z M26.4,116.1h-2.1l0.5-2.1
						c-0.5-0.2-0.8-0.7-0.8-1.3c0-0.7,0.6-1.4,1.4-1.4c0.7,0,1.4,0.6,1.4,1.4c0,0.6-0.3,1-0.8,1.3L26.4,116.1z M23.2,109.7v-1.9
						c0-1.2,1-2.2,2.2-2.2s2.2,1,2.2,2.2v1.9H23.2z"/>
				</g>
			</g>
		</g>
		<g>
			<path class="st3" d="M159.6,129.4l-14-8.1c-0.5-0.3-0.4-0.7,0.1-1l13.8-8c0.5-0.3,1.3-0.3,1.8-0.1l14,8.1c0.5,0.3,0.4,0.7-0.1,1
				l-13.8,8C160.9,129.6,160.1,129.6,159.6,129.4z"/>
			<g>
				<path class="st1" d="M166.8,117.8c2.9,1.7,2.8,3.9,0,5.6c-2.5,1.4-5.4,1.2-6.8,0.5c-0.8-0.5-1.1-1-0.5-1.5l0,0
					c-1,0.1-2-0.1-2.7-0.4c-1-0.6-1-1.5,0.3-2.2c1.6-0.9,4.5-1.3,6.1-0.3c0.5,0.3,0.6,0.6,0.4,1l0,0l0.8-0.2l1,0.6l-3.6,1.4
					c-1.2,0.4-1.4,0.8-0.7,1.2c0.9,0.5,2.8,0.4,4.5-0.5c2.1-1.2,2.7-2.9,0-4.5c-2.5-1.4-6.9-1.6-10.1,0.3c-2.8,1.6-2.3,3.5-0.1,4.8
					c0.8,0.5,1.8,0.8,2.8,0.9l-0.5,0.7c-1.3-0.2-2.4-0.6-3.4-1.2c-2.8-1.6-3.4-4,0-5.9C158.2,115.8,163.5,115.9,166.8,117.8z
					 M158.3,121.5c0.3,0.2,0.9,0.3,1.8,0.2l2.4-1c0.1-0.3,0-0.5-0.3-0.7c-1-0.6-2.8-0.2-3.7,0.4
					C157.7,120.8,157.7,121.2,158.3,121.5z"/>
			</g>
		</g>
	</g>
	<g>
		<path class="st4" d="M87,16.3v98.8c0,3.5,2.8,6.3,6.2,6.3h49.6c3.4,0,6.2-2.8,6.2-6.3V16.3c0-3.5-2.8-6.3-6.2-6.3H93.2
			C89.8,10,87,12.9,87,16.3z"/>
		<path class="st5" d="M127.7,14.6h-19.3c-0.7,0-1.3-0.6-1.3-1.3v-0.1c0-0.7,0.6-1.3,1.3-1.3h19.3c0.7,0,1.3,0.6,1.3,1.3v0.1
			C128.9,14,128.4,14.6,127.7,14.6z"/>
		<path class="st5" d="M94.5,110.6h47.1c2,0,3.7-1.7,3.7-3.7V20.2c0-2-1.7-3.7-3.7-3.7H94.5c-2,0-3.7,1.7-3.7,3.7v86.7
			C90.8,109,92.4,110.6,94.5,110.6z"/>
	</g>
	<path class="st0" d="M141.7,52.5H130c-0.5,0-0.8-0.4-0.8-0.8V40c0-0.5,0.4-0.8,0.8-0.8h11.6c0.5,0,0.8,0.4,0.8,0.8v11.6
		C142.5,52.1,142.1,52.5,141.7,52.5z"/>
	<path class="st2" d="M123.8,52.5h-11.6c-0.5,0-0.8-0.4-0.8-0.8V40c0-0.5,0.4-0.8,0.8-0.8h11.6c0.5,0,0.8,0.4,0.8,0.8v11.6
		C124.7,52.1,124.3,52.5,123.8,52.5z"/>
	<path class="st0" d="M123.5,73.6h-10.9c-0.7,0-1.2-0.5-1.2-1.2V61.2c0-0.5,0.4-0.8,0.8-0.8h11.3c0.7,0,1.2,0.5,1.2,1.2v10.9
		C124.7,73.1,124.1,73.6,123.5,73.6z"/>
	<path class="st1" d="M141.7,73.6H130c-0.5,0-0.8-0.4-0.8-0.8V61.2c0-0.5,0.4-0.8,0.8-0.8h11.6c0.5,0,0.8,0.4,0.8,0.8v11.6
		C142.5,73.3,142.1,73.6,141.7,73.6z"/>
	<path class="st2" d="M105.6,94.8H94.8c-0.7,0-1.2-0.5-1.2-1.2V82.7c0-0.7,0.5-1.2,1.2-1.2h10.9c0.7,0,1.2,0.5,1.2,1.2v10.9
		C106.8,94.3,106.3,94.8,105.6,94.8z"/>
	<path class="st3" d="M123.5,94.8h-10.9c-0.7,0-1.2-0.5-1.2-1.2V82.7c0-0.7,0.5-1.2,1.2-1.2h10.9c0.7,0,1.2,0.5,1.2,1.2v10.9
		C124.7,94.3,124.1,94.8,123.5,94.8z"/>
	<path class="st1" d="M141.3,94.8h-10.9c-0.7,0-1.2-0.5-1.2-1.2V82.7c0-0.7,0.5-1.2,1.2-1.2h10.9c0.7,0,1.2,0.5,1.2,1.2v10.9
		C142.5,94.3,142,94.8,141.3,94.8z"/>
	<path class="st1" d="M121.5,48l0.5,1.3l-0.6,0.6l-1.3-0.5l-0.9,0.4l-0.4,1.3l-0.8,0.1l-0.6-1.2l-0.9-0.2l-1.2,0.7l-0.7-0.5l0.3-1.4
		l-0.5-0.8l-1.4-0.2l-0.2-0.8l1.1-0.8l0.1-0.9l-0.9-1l0.4-0.8l1.4,0.1l0.7-0.7l-0.1-1.4l0.8-0.4l1,0.9l0.9-0.1l0.8-1.1l0.8,0.2
		l0.2,1.4l0.8,0.5l1.4-0.3l0.5,0.7l-0.7,1.2l0.2,0.9l1.2,0.6l-0.1,0.8L122,47L121.5,48z M119.9,43.9c-1-1-2.7-1-3.8,0
		c-1,1-1,2.7,0,3.8c1,1,2.7,1,3.8,0C120.9,46.6,120.9,45,119.9,43.9z"/>
	<g>
		<path class="st1" d="M118,82.9c-2.9,0-5.2,2.3-5.2,5.2c0,2.8,2.2,5,4.9,5.2c0.1,0,0.2,0,0.4,0c2.3,0,4.2-1.5,4.9-3.5
			c0.2-0.5,0.3-1.1,0.3-1.7C123.3,85.3,120.9,82.9,118,82.9z M122.1,89.6c-0.6,1.7-2.2,2.9-4.1,2.9c-0.1,0-0.2,0-0.3,0
			c-2.3-0.2-4-2-4-4.3c0-2.4,1.9-4.3,4.3-4.3s4.3,1.9,4.3,4.3C122.4,88.6,122.3,89.1,122.1,89.6z"/>
		<path class="st1" d="M116.6,85.7l4,2.3c0.1,0.1,0.1,0.2,0,0.3l-4,2.3c-0.1,0.1-0.3,0-0.3-0.2v-4.6
			C116.4,85.7,116.5,85.6,116.6,85.7z"/>
	</g>
	<g>
		<path class="st1" d="M94.9,91.6L94.9,91.6L94.9,91.6z"/>
		<path class="st1" d="M99.9,88.1c0.2,0.1,0.4,0.1,0.6,0l5-3.4c-0.1-0.2-0.3-0.3-0.5-0.3h-9.7c-0.2,0-0.4,0.1-0.5,0.3L99.9,88.1z"/>
		<path class="st1" d="M105.5,84.7l-4.2,3.3l4.1,3.4l0.1,0.1l-4.6-3.3l-0.4,0.3c-0.2,0.1-0.4,0.1-0.6,0l-0.4-0.3l-4.6,3.3v-0.1
			L99,88l-4.2-3.3c0,0.1,0,0.1,0,0.2v6.4c0,0.1,0,0.1,0,0.2c0,0,0.1,0.2,0.2,0.3l0,0c0.1,0,0.2,0.1,0.3,0.1h9.7c0.1,0,0.2,0,0.3-0.1
			l0,0l0,0l0,0l0,0l0.1-0.1l0,0l0,0c0,0,0,0,0-0.1s0-0.1,0-0.2V85C105.6,84.9,105.5,84.8,105.5,84.7z"/>
	</g>
	<path class="st3" d="M105.6,73.6H94.8c-0.7,0-1.2-0.5-1.2-1.2V61.2c0-0.5,0.4-0.8,0.8-0.8h11.3c0.7,0,1.2,0.5,1.2,1.2v10.9
		C106.8,73.1,106.3,73.6,105.6,73.6z"/>
	<path class="st1" d="M106,52.5H94.4c-0.5,0-0.8-0.4-0.8-0.8V40c0-0.5,0.4-0.8,0.8-0.8H106c0.5,0,0.8,0.4,0.8,0.8v11.6
		C106.8,52.1,106.5,52.5,106,52.5z"/>
	<g>
		<circle class="st1" cx="100.2" cy="70.1" r="1"/>
		<path class="st1" d="M100.2,66.2c1.1,0,2.1,0.4,2.8,1.2c0.2,0.2,0.2,0.6,0,0.9l-0.2,0.2c-0.2,0.2-0.6,0.2-0.9,0
			c-0.4-0.4-1-0.7-1.7-0.7s-1.3,0.3-1.7,0.7c-0.2,0.2-0.6,0.3-0.9,0l-0.2-0.2c-0.3-0.2-0.3-0.6,0-0.9
			C98.1,66.6,99.1,66.2,100.2,66.2z"/>
		<path class="st1" d="M105.3,66l-0.3,0.3c-0.2,0.2-0.6,0.2-0.9,0c-1-1-2.4-1.7-4-1.7s-3,0.6-4,1.7c-0.2,0.2-0.6,0.2-0.9,0L95.1,66
			c-0.3-0.2-0.3-0.6,0-0.9c1.3-1.3,3.1-2.2,5.1-2.2s3.8,0.8,5.1,2.2C105.6,65.3,105.6,65.7,105.3,66z"/>
	</g>
	<g>
		<path class="st1" d="M116.1,64.2L116.1,64.2c-0.2,0-0.4-0.2-0.4-0.4v-1.2c0-0.2,0.2-0.4,0.4-0.4l0,0c0.2,0,0.4,0.2,0.4,0.4v1.2
			C116.5,64,116.3,64.2,116.1,64.2z"/>
		<path class="st1" d="M119.8,64.2L119.8,64.2c-0.2,0-0.4-0.2-0.4-0.4v-1.2c0-0.2,0.2-0.4,0.4-0.4l0,0c0.2,0,0.4,0.2,0.4,0.4v1.2
			C120.2,64,120,64.2,119.8,64.2z"/>
		<path class="st1" d="M121.8,63.1h-1.4v1.1c0,0.2-0.2,0.4-0.4,0.4h-0.4c-0.2,0-0.4-0.2-0.4-0.4v-1.1h-2.6v1.1
			c0,0.2-0.2,0.4-0.4,0.4h-0.4c-0.2,0-0.4-0.2-0.4-0.4v-1.1h-1.3c-0.3,0-0.5,0.2-0.5,0.5v7.6c0,0.3,0.2,0.5,0.5,0.5h7.6
			c0.3,0,0.5-0.2,0.5-0.5v-7.6C122.3,63.4,122.1,63.1,121.8,63.1z M121.7,71.1h-7.3v-5.2h7.3V71.1z"/>
	</g>
	<g>
		<path class="st1" d="M140.6,43h-3.1v-0.2c0-0.2-0.2-0.3-0.3-0.3h-1l-0.3-0.6c-0.1-0.1-0.2-0.2-0.4-0.2h-2.2
			c-0.2,0-0.3,0.1-0.4,0.2l-0.3,0.6h-1c-0.2,0-0.3,0.2-0.3,0.3V43h-0.1c-0.4,0-0.7,0.3-0.7,0.7v5.8c0,0.4,0.3,0.7,0.7,0.7h9.4
			c0.4,0,0.7-0.3,0.7-0.7v-5.8C141.2,43.3,140.9,43,140.6,43z M134.4,48.8c-1.4,0-2.5-1.1-2.5-2.5s1.1-2.5,2.5-2.5s2.5,1.1,2.5,2.5
			S135.8,48.8,134.4,48.8z M139.6,45.6c-0.5,0-0.8-0.4-0.8-0.8c0-0.5,0.4-0.8,0.8-0.8c0.5,0,0.8,0.4,0.8,0.8
			C140.4,45.2,140.1,45.6,139.6,45.6z"/>
	</g>
	<g>
		<path class="st6" d="M55.6,112.3c-0.7,0.8-0.6,0.9-1.7,1.1c-0.8,0.1-1.9-0.4-2.2-0.6c-0.1,0-0.1,0-0.1,0.1l-0.3,1.8h4.1
			C55.4,114.7,56.2,111.5,55.6,112.3z"/>
		<path class="st7" d="M63.5,114.3v1.4c0,0-5-0.3-5.9-1.1c-1-0.9-2-1.8-2-1.8c-0.2-0.1-0.6-0.5-0.5-0.9s0.4-0.9,0.6-1.1
			c0,0,0.1-0.1,0.1,0c0.3,0.3,1.6,1.3,1.8,1.5c1.5,1.1,5.3,1.9,5.4,1.9C63.1,114.3,63.3,114.3,63.5,114.3z"/>
		<path class="st8" d="M63.4,115.7c-0.4-1.3-2.4-1.6-2.9-1.7c-1.8-0.4-3.3-1.3-3.9-1.7s-1.3,0.5-1.6,0.9s-0.8,0.7-1.5,0.6
			c-0.8-0.1-1.5-0.7-1.5-0.8c-0.1-0.1,0-0.3,0-0.3s-0.1,0-0.1-0.1c0,0-0.1,0-0.1,0.1c-0.1,0.2-0.3,0.6-0.3,0.7
			c-0.1,0.2-0.2,0.7-0.2,1.9l0.1,0.7l1.6,0.4C52.9,116.5,63.8,117,63.4,115.7z"/>
		<path class="st7" d="M65.1,114.5c0,0-0.1,0.4-0.2,0.4c-0.7,0.4-1.7,0.9-3.8,1c-1.4,0.1-3.9-0.2-5.2-0.3c-1.7,0-4.3,0.4-4.9-0.3
			c-0.1,0.4-0.1,0.8,0,1.1c0.1,0.3,0.2,0.4,0.5,0.5c1,0.3,2.7,0.1,4.1,0.1c2.2,0,5.2,0.7,7.7,0c0.7-0.2,1.3-0.4,1.7-0.7
			c0.5-0.3,0.7-0.5,0.7-0.6C65.9,115.1,65.5,114.6,65.1,114.5z"/>
		<path class="st9" d="M65.1,114.9c-0.2,0.2-1,0.5-1.7,0.7c0-0.1-0.1-0.1-0.1-0.2c-0.1-0.6-0.2-0.9-0.3-1.1c0.5,0,1.7,0,2.1,0.2l0,0
			l0,0C65.1,114.6,65.2,114.7,65.1,114.9z"/>
		<path class="st10" d="M55.5,112.5c-0.1,0.1-0.1,0.1-0.2,0.2c-0.2-0.2-0.3-0.4-0.3-0.7c0.1-0.4,0.4-0.9,0.6-1.1c0,0,0.1-0.1,0.1,0
			l0.1,0.1c-0.2,0.3-0.5,0.8-0.6,1.1C55.3,112.3,55.4,112.4,55.5,112.5z"/>
		<path class="st9" d="M65.8,115.5c-0.1,0.2-0.3,0.3-0.6,0.5c-3.6,1.8-6.5,0.7-9.5,0.7c-1.5,0-4,0.4-4.6-0.4c0-0.2,0-0.5,0-0.6
			c0.6,0.8,3,0.4,4.7,0.4c2.9,0,5.8,1.1,9.5-0.7c0.4-0.2,0.5-0.4,0.5-0.5C65.7,115.2,65.8,115.4,65.8,115.5z"/>
		<path class="st9" d="M60.6,114.9L60.6,114.9c-0.1,0-0.2-0.2-0.1-0.3l0.4-0.9c0-0.1,0.2-0.2,0.3-0.1l0,0c0.1,0,0.2,0.2,0.1,0.3
			l-0.4,0.9C60.9,114.9,60.7,114.9,60.6,114.9z"/>
		<path class="st9" d="M59,114.4L59,114.4c-0.1,0-0.2-0.2-0.1-0.3l0.4-0.9c0-0.1,0.2-0.2,0.3-0.1l0,0c0.1,0,0.2,0.2,0.1,0.3
			l-0.4,0.9C59.2,114.4,59.1,114.4,59,114.4z"/>
		<path class="st9" d="M57.4,113.7L57.4,113.7c-0.1,0-0.2-0.2-0.1-0.3l0.4-0.9c0-0.1,0.2-0.2,0.3-0.1l0,0c0.1,0,0.2,0.2,0.1,0.3
			l-0.4,0.9C57.7,113.7,57.5,113.8,57.4,113.7z"/>
	</g>
	<g>
		<path class="st7" d="M55.9,119.6c-0.5-1.2-2.3-1.5-2.9-1.7c-1.8-0.4-3.3-1.3-3.9-1.7c-0.4-0.3-0.9,0.1-1.2,0.5
			c-0.2-0.2-0.3-0.4-0.3-0.7c0.1-0.4,0.4-0.9,0.6-1.1c0,0,0.1-0.1,0.1,0c0.3,0.3,1.6,1.3,1.8,1.5c1.5,1.1,5.3,1.9,5.4,1.9l0,0
			c0.1,0.1,0.2,0.5,0.3,1.1C55.8,119.4,55.9,119.5,55.9,119.6z"/>
		<path class="st8" d="M55.9,119.6c-0.6,0.2-1.3,0.3-2.2,0.4c-1.4,0.1-4-0.2-5.2-0.3c-1.7,0-4.3,0.4-4.9-0.3
			c-0.1-1.2,0.1-1.7,0.2-1.9c0-0.1,0.2-0.5,0.3-0.7l0.1-0.1c0.1,0,0.1,0,0.1,0.1s0,0.2,0,0.3c0.1,0.1,0.8,0.7,1.5,0.8
			c0.8,0.1,1.2-0.2,1.5-0.6s0.9-1.3,1.6-0.9c0.7,0.4,2.1,1.3,3.9,1.7C53.6,118,55.4,118.3,55.9,119.6z"/>
		<path class="st7" d="M58.3,119.8c0,0.1-0.2,0.3-0.7,0.6c-0.4,0.2-1,0.4-1.7,0.7c-2.5,0.7-5.4,0-7.7,0c-1.4,0-3.1,0.3-4.1-0.1
			c-0.3-0.1-0.4-0.3-0.5-0.5c-0.1-0.4-0.1-0.8,0-1.1c0.6,0.7,3.2,0.3,4.9,0.3c1.2,0,3.7,0.3,5.2,0.3c0.9-0.1,1.6-0.2,2.2-0.4
			c0.7-0.2,1.5-0.6,1.7-0.7c0.1-0.1,0.1-0.1,0.1-0.2s-0.1-0.1-0.1-0.1C58,118.6,58.4,119.1,58.3,119.8z"/>
		<path class="st9" d="M57.6,118.8c-0.2,0.2-1,0.5-1.7,0.7c0-0.1-0.1-0.1-0.1-0.2c-0.1-0.6-0.2-0.9-0.3-1.1c0.5,0,1.7,0,2.1,0.2l0,0
			l0,0C57.7,118.5,57.8,118.6,57.6,118.8z"/>
		<path class="st9" d="M58.3,119.5c-0.1,0.2-0.3,0.3-0.6,0.5c-3.6,1.8-6.5,0.7-9.5,0.7c-1.5,0-4,0.4-4.6-0.4c0-0.2,0-0.5,0-0.6
			c0.6,0.8,3,0.4,4.7,0.4c2.9,0,5.8,1.1,9.5-0.7c0.4-0.2,0.5-0.4,0.5-0.5C58.3,119.1,58.3,119.3,58.3,119.5z"/>
		<path class="st9" d="M53.2,118.8L53.2,118.8c-0.1,0-0.2-0.2-0.1-0.3l0.4-0.9c0-0.1,0.2-0.2,0.3-0.1l0,0c0.1,0,0.2,0.2,0.1,0.3
			l-0.4,0.9C53.4,118.8,53.3,118.9,53.2,118.8z"/>
		<path class="st9" d="M51.5,118.3L51.5,118.3c-0.1,0-0.2-0.2-0.1-0.3l0.4-0.9c0-0.1,0.2-0.2,0.3-0.1l0,0c0.1,0,0.2,0.2,0.1,0.3
			l-0.4,0.9C51.8,118.3,51.6,118.4,51.5,118.3z"/>
		<path class="st9" d="M50,117.7L50,117.7c-0.1,0-0.2-0.2-0.1-0.3l0.4-0.9c0-0.1,0.2-0.2,0.3-0.1l0,0c0.1,0,0.2,0.2,0.1,0.3
			l-0.4,0.9C50.2,117.7,50.1,117.7,50,117.7z"/>
	</g>
	<g>
		<path class="st11" d="M58.9,94.7l-1.1,15.6l0.5,2.4c0,0-1.2,0.6-3,0.9c-1.6,0.3-4-0.2-4-0.2l0.4-13.5l0.5-9.4
			c-0.5,2.6-1,5.9-1.7,10l-1,12.4l0.5,3.3c0,0-2.2,1.3-2.9,1.5c-1.5,0.6-3.3-0.3-3.3-0.3s-0.3-11.5,0-15.5
			c0.5-9.2,2.1-11.3,1.1-31.6h16.9C61.5,74.1,61,78.2,58.9,94.7z"/>
	</g>
	<g>
		<path class="st0" d="M95.8,56.6l-11.3-3.1c-0.4-0.1-0.7-0.6-0.6-1L87,41.2c0.1-0.4,0.6-0.7,1-0.6l11.3,3.1c0.4,0.1,0.7,0.6,0.6,1
			L96.8,56C96.6,56.4,96.2,56.7,95.8,56.6z"/>
		<path class="st1" d="M96.1,47.4c-0.8,3-3,5.3-5.3,5.9c-0.9,0.2-1.9-0.2-2.5-0.6c-0.3-0.2-0.5-0.5-0.7-0.8l-0.2-0.8l2-0.9
			c0,0,0.7,1.1,1.1,1.2c0.4,0.1,0.6,0.1,0.9-0.1c0.2-0.2,3.3-3.7,3.3-3.7s0.2-0.6,0.1-0.8c-0.3-0.6-1.4-0.9-1.4-0.9l0.6-2.1l0,0
			c1.4,0.1,2.5,1.3,2.4,2.8C96.2,46.8,96.2,47.1,96.1,47.4z"/>
	</g>
	<g>
		<g>
			<path class="st12" d="M51.6,30.1c0.1-0.5,0-1.2-0.2-1.8c-0.7-2.8-1.6-9.3,4.2-9.5c6.7-0.2,6.4,3.6,6.4,6c0,0-0.2,0.5-0.2,0.7
				s0.9,2.3,0.8,3c0,0.3-0.4,0.2-0.8,0.2c0,0-0.2,0.1-0.3,0.4v0.4c0,0-0.1,0.2-0.4,0.3c0,0,0.1,0.3,0.1,0.5c0,0.1-0.6,0.8-0.6,0.8
				s0.5,1.7-1.2,1.7c-2.6-0.1-2.4,0.1-3.5,3.9L51.5,38l-0.7-4.8C50.8,33.2,51.5,30.7,51.6,30.1z"/>
			<path class="st13" d="M60.2,32.5L60.2,32.5c-0.2,0.1-0.4,0.1-0.7,0.1c-1.7-0.1-2.2,0-2.7,1c0,0,0,0,0,0.1
				c-0.8-0.5-2.1-1.6-2.2-1.7c-1.4-1.3-0.8-2.9-0.8-2.9C54,31.1,57.5,32.1,60.2,32.5z"/>
			<path class="st14" d="M62,21.8c-0.1,0.1-0.3,0.1-0.3,0.1c-0.2,0-0.4,0-0.6-0.2c-0.6-0.5-1.4-1.5-2-1.1s-0.4,1.3-0.2,1.8
				s-0.7,0.8-0.9,1.3s-0.2,0.9-0.1,1.5c0.1,0.6,0.2,0.8,0.2,0.8l-1.3,0.2c0,0-0.9-1.3-1.5-1.6c-0.6-0.3-1.4,0-1.7,1.1
				c-0.2,1.1,0.1,2.7,0.1,2.7s-1.1,0.9-2.3,1.4l0,0l-0.3,0.1c0.1-0.5,0-0.9-0.1-1.5c-1.2-4.9-0.6-9.6,4.4-9.8
				C58.4,18.5,61.2,19,62,21.8L62,21.8z"/>
			<g>
				<path class="st15" d="M55.9,27.9L55.9,27.9L55.9,27.9z"/>
				<path class="st13" d="M54.3,24.7c0.3-0.3,0.9-0.4,1.4,0.1c0,0,0.3,0.3,0.1,1s0.6,1.4,0,2.2c0,0-0.4,0.2-0.8-0.4
					c-0.5-0.6-0.7-0.9-0.8-1.2C54.1,26,53.8,25.2,54.3,24.7z"/>
			</g>
			<path class="st12" d="M55.4,25.7c0,0,0.4-0.5,0-0.8s-1.1,0.1-1.1,0.7c0,0,0.3-0.6,0.7-0.6s0.5,0.3,0.5,0.5c0,0-0.2,0.1-0.4,0.2
				s-0.2,0.3-0.2,0.5c0,0,0.1-0.2,0.2-0.3C55.2,25.7,55.2,25.7,55.4,25.7z"/>
			<path class="st12" d="M55.3,26l0.2-0.1c0,0,0,0.2,0,0.3c0.1,0.2,0.2,0.3,0.3,0.4c0,0.1-0.1,0.3-0.2,0.2c-0.1-0.1-0.4-0.3-0.6-0.3
				c-0.3,0-0.2-0.3-0.2-0.3C54.9,26.1,55.1,26.1,55.3,26z"/>
			<path class="st12" d="M55.9,27.9c0,0-0.4,0.4-1.1-0.2c-0.6-0.5-1.1-1.4-0.7-2.3c0,0.4,0.1,0.7,0.2,0.9c0.1,0.3,0.3,0.6,0.8,1.2
				C55.5,28.1,55.8,27.9,55.9,27.9z"/>
		</g>
		<path class="st8" d="M82.4,44.4L82,47.8l-1.6-0.1c-0.2,0-0.5,0-0.7,0.1s-0.5,0.2-0.8,0.1l-10.3-0.6L62.8,44l-1.1,13.9l-0.2,12.4
			H44.7l-0.1-18.2L44,49.8l-2.1,4.1L42.4,66c0,0.3-0.1,0.6-0.2,0.9c-0.1,0.2-0.2,0.5-0.2,0.8v1.6l-3.4,0.3L38.3,68
			c0-0.2-0.1-0.4-0.3-0.6s-0.3-0.5-0.3-0.7l-1.1-11c-0.1-0.8,0-1.6,0.2-2.4l3.5-14c0.3-1.2,1.2-2.3,2.4-2.8l8-3.6
			c2.2,2.4,3.6,3,4.6,2.8l0,0c0.6-0.1,1.1-0.6,1.4-1.1c0.2-0.7,0.4-1.1,0.6-1.4l4.1,1c0.7,0.2,1.3,0.5,1.9,1l6.7,6.3l8.2,1.6
			l1.3,0.3c0.3,0.1,0.6,0.2,0.8,0.4c0.2,0.2,0.4,0.3,0.7,0.4L82.4,44.4z"/>
		<polygon class="st16" points="69.4,43.7 69.3,40.9 69.9,41.4 71.1,41.6 		"/>
		<path class="st17" d="M43.7,42.5c-0.8,3.3-3,11.5-3,11.5l0.6,7.4c0.3-0.1,0.6-0.2,0.9-0.3l-0.4-7.3l2.1-4.1l0.7,2.4
			C44.8,48.5,44.3,45.2,43.7,42.5z"/>
		<path class="st17" d="M73.1,47.1l-4.2-0.3L61,39.7l0.8,18.2l1-13.9l5.7,3.4l4.3,0.3C72.9,47.5,73,47.3,73.1,47.1z"/>
	</g>
	<g>
		<g>
			<path class="st12" d="M43.6,72.4L43.6,72.4c-0.1-0.1-0.2-0.4-0.3-0.6c-0.1-0.1-0.3-0.9-0.7-1.6l-0.4,1.6c0.1,0.2,0.7,1.2,1,1.4
				c0.3,0.2,0.6,0,0.6-0.2L43.6,72.4z"/>
			<g>
				<path class="st18" d="M43.6,72.4c0,0.1,0.3,0.4,0.3,0.6c-0.1,0.1-0.2,0.1-0.2,0C43.4,72.9,43.4,72.5,43.6,72.4z"/>
			</g>
		</g>
		<g>
			<path class="st2" d="M42.8,85.3h-0.4c-3.6,0-6.4-2.9-6.4-6.4v-0.4c0-3.6,2.9-6.4,6.4-6.4h0.4c3.6,0,6.4,2.9,6.4,6.4v0.4
				C49.2,82.4,46.3,85.3,42.8,85.3z"/>
			<g>
				<circle class="st1" cx="42.5" cy="81.7" r="1"/>
				<path class="st1" d="M42.5,77.8c1.1,0,2.1,0.4,2.8,1.2c0.2,0.2,0.2,0.6,0,0.9L45.1,80c-0.2,0.2-0.6,0.2-0.9,0
					c-0.4-0.4-1-0.7-1.7-0.7s-1.3,0.3-1.7,0.7c-0.2,0.2-0.6,0.3-0.9,0l-0.2-0.2c-0.3-0.2-0.3-0.6,0-0.9
					C40.5,78.3,41.5,77.8,42.5,77.8z"/>
				<path class="st1" d="M47.7,77.6l-0.3,0.3c-0.2,0.2-0.6,0.2-0.9,0c-1-1-2.4-1.7-4-1.7s-3,0.6-4,1.7c-0.2,0.2-0.6,0.2-0.9,0
					l-0.3-0.3c-0.3-0.2-0.3-0.6,0-0.9c1.3-1.3,3.1-2.2,5.1-2.2s3.8,0.8,5.1,2.2C47.9,77,47.9,77.4,47.7,77.6z"/>
			</g>
		</g>
		<g>
			<path class="st12" d="M42.4,73.6c0-0.1-0.2-1.4-0.2-1.8l0.4-1.6c-0.1-0.1-0.2-0.3-0.4-0.3c-0.2-0.1-0.5-0.4-0.6-0.7
				c0,0,0-0.1,0-0.2l-2.7,0.3c0,0.3,0.1,0.6,0,0.7c0,0.1-0.2,0.5-0.3,1c-0.1,0.3-0.1,1-0.1,1.7c0.1,0.8,0.1,0.7,0.2,2.8
				c0,0.2,0.2,0.3,0.3,0.3c0.2,0,0.3-0.2,0.3-0.3c0,0-0.1-1.4,0-1.8c0-0.1,0.2-0.1,0.2,0c0,0.2,0.1,0.8,0.2,2.8
				c0,0.2,0.2,0.3,0.4,0.3s0.3-0.2,0.3-0.4l-0.1-2.6c0-0.2,0.3-0.2,0.3,0c0,0.1,0.3,2.9,0.3,2.9c0,0.2,0.2,0.4,0.4,0.3
				c0.2,0,0.4-0.2,0.3-0.4c0,0-0.2-2.2-0.2-3c0-0.1,0.2-0.1,0.2,0c0.3,1.8,0.3,1.8,0.4,2.4c0,0.2,0.2,0.3,0.4,0.3s0.3-0.2,0.3-0.4
				C42.5,75.4,42.5,74.5,42.4,73.6z"/>
			<g>
				<path class="st18" d="M42,76.1c0,0,0.1,0.1,0.3,0.1s0.2-0.2,0.2-0.2c0-0.1,0-0.2-0.1-0.3c0-0.1-0.1-0.1-0.2-0.1l0,0
					c-0.1,0-0.2,0.1-0.2,0.2C42,75.9,42,76,42,76.1z"/>
			</g>
			<g>
				<path class="st18" d="M38.8,75.6c0,0,0.1,0.1,0.2,0.1c0.2,0,0.2-0.2,0.2-0.2c0-0.1,0-0.2-0.1-0.2c-0.1-0.2-0.3-0.1-0.4,0
					C38.8,75.4,38.8,75.5,38.8,75.6z"/>
			</g>
			<g>
				<path class="st18" d="M39.8,76.5c0,0,0.1,0.1,0.3,0.1s0.2-0.2,0.2-0.2c0-0.1,0-0.2-0.1-0.3c0-0.1-0.1-0.1-0.2-0.1l0,0
					c-0.1,0-0.2,0.1-0.2,0.1C39.8,76.3,39.8,76.4,39.8,76.5z"/>
			</g>
			<g>
				<path class="st18" d="M41.5,76.7c0,0-0.1,0.2-0.3,0.2s-0.3-0.1-0.3-0.1c0-0.1,0-0.2,0-0.3c0-0.1,0.1-0.2,0.2-0.2l0,0
					c0.1,0,0.2,0,0.2,0.1C41.5,76.5,41.5,76.6,41.5,76.7z"/>
			</g>
		</g>
	</g>
	<g>
		<path class="st12" d="M85.4,44.7c0.1,0,0.4,0.1,0.6,0.1l-1,3.9c-0.5-0.1-1-0.3-1.3-0.4c-0.5-0.3-0.9-0.5-1-0.6s-0.5-0.1-0.8-0.2
			l0.4-2.9c0.1,0,0.2,0,0.2,0c0.3,0,0.7-0.3,0.9-0.4c0.1-0.1,0.3-0.3,0.5-0.3c0.8-0.2,1.6-0.3,1.8-0.3c0.2,0,0.5-0.1,0.7-0.2l0,0
			l0.7-0.1c0.2,0.1,0.3,0.5,0,0.7C86.9,44.3,85.6,44.7,85.4,44.7z"/>
		<g>
			<path class="st18" d="M87.1,43.3c-0.2,0-0.6,0.1-0.7,0.1c0.1,0.1,0.4,0.1,0.6,0.1l0,0C87.1,43.4,87.1,43.3,87.1,43.3L87.1,43.3
				L87.1,43.3z"/>
		</g>
	</g>
	<path class="st15" d="M86.5,44.9c-0.1,0-0.3,0-0.4,0C86.3,44.9,86.4,44.9,86.5,44.9z"/>
	<g>
		<polygon class="st9" points="213.5,103.4 214.7,103.2 216.1,105.7 214.1,107.7 		"/>
		<g>
			<path class="st7" d="M218.8,114.2c-1.3-0.2-2-2-2.2-2.5c-0.7-1.7-1.9-3-2.4-3.5c-0.4-0.4-0.1-0.9,0.2-1.3
				c-0.2-0.1-0.5-0.3-0.7-0.1c-0.4,0.2-0.8,0.6-1,0.8v0.1c0.3,0.3,1.6,1.3,1.8,1.5c1.4,1.2,2.9,4.8,3,4.9l0,0c0.2,0,0.5,0.1,1.1,0.1
				C218.7,114.2,218.8,114.2,218.8,114.2z"/>
			<path class="st8" d="M218.8,114.2c0.1-0.6,0.1-1.3-0.1-2.2c-0.2-1.4-1-3.8-1.3-5c-0.4-1.7-0.4-4.3-1.2-4.8
				c-1.2,0.2-1.7,0.4-1.8,0.5s-0.5,0.3-0.6,0.5c0,0-0.1,0.1,0,0.1c0,0.1,0,0.1,0.1,0.1s0.2-0.1,0.3,0c0.1,0,0.8,0.6,1,1.4
				c0.2,0.7,0,1.2-0.3,1.6s-1.1,1.2-0.6,1.7c0.5,0.6,1.7,1.8,2.4,3.5C216.9,112.3,217.5,114,218.8,114.2z"/>
			<path class="st7" d="M219.6,116.5c0.1,0,0.3-0.2,0.5-0.8c0.1-0.4,0.2-1.1,0.3-1.8c0.2-2.6-1.1-5.3-1.5-7.5
				c-0.3-1.3-0.3-3.1-0.9-4c-0.2-0.3-0.3-0.3-0.6-0.3c-0.4,0-0.8,0.1-1.1,0.2c0.8,0.5,0.9,3.1,1.2,4.8c0.3,1.2,1.1,3.6,1.3,5
				c0.1,0.9,0.1,1.6,0.1,2.2c-0.1,0.7-0.2,1.6-0.4,1.8c-0.1,0.1-0.1,0.1-0.2,0.1c-0.1,0-0.1,0-0.1,0
				C218.3,116.5,218.9,116.8,219.6,116.5z"/>
			<path class="st9" d="M218.5,116c0.1-0.2,0.3-1.1,0.4-1.8c-0.1,0-0.1,0-0.2-0.1c-0.6,0-1,0-1.1-0.1c0.1,0.4,0.3,1.7,0.6,2l0,0l0,0
				C218.2,116.2,218.3,116.3,218.5,116z"/>
			<path class="st9" d="M219.2,116.6c0.1-0.1,0.3-0.4,0.4-0.7c1-3.9-0.6-6.5-1.2-9.4c-0.3-1.5-0.4-4-1.3-4.5c-0.2,0-0.5,0.1-0.5,0.1
				c0.9,0.4,1,2.9,1.3,4.5c0.5,2.8,2.2,5.5,1.2,9.4c-0.1,0.4-0.3,0.5-0.4,0.6C218.9,116.6,219.1,116.7,219.2,116.6z"/>
			<path class="st9" d="M217.6,111.7L217.6,111.7c-0.1-0.1-0.2-0.1-0.3-0.1l-0.8,0.5c-0.1,0.1-0.1,0.2-0.1,0.3l0,0
				c0.1,0.1,0.2,0.1,0.3,0.1l0.8-0.5C217.7,111.9,217.7,111.8,217.6,111.7z"/>
			<path class="st9" d="M216.8,110.2L216.8,110.2c-0.1-0.1-0.2-0.1-0.3-0.1l-0.8,0.5c-0.1,0.1-0.1,0.2-0.1,0.3l0,0
				c0.1,0.1,0.2,0.1,0.3,0.1l0.8-0.5C216.8,110.4,216.8,110.3,216.8,110.2z"/>
			<path class="st9" d="M215.8,108.8L215.8,108.8c-0.1-0.1-0.2-0.1-0.3-0.1l-0.8,0.5c-0.1,0.1-0.1,0.2-0.1,0.3l0,0
				c0.1,0.1,0.2,0.1,0.3,0.1l0.8-0.5C215.9,109,215.9,108.9,215.8,108.8z"/>
		</g>
		<polygon class="st9" points="180.9,110.8 180.1,112.3 175.6,113 175.6,109.7 180.9,109.7 		"/>
		<g>
			<path class="st12" d="M178.5,54.3c-0.3-0.4-0.5-1-0.6-1.6c-0.6-2.7-2.5-8.5-7.5-6.3c-5.8,2.6-3.9,5.7-2.9,7.7
				c0,0,0.4,0.3,0.4,0.5c0.1,0.2,0.2,2.3,0.5,2.9c0.1,0.2,0.4,0,0.8-0.1c0,0,0.2,0,0.4,0.2l0.1,0.3c0,0,0.2,0.2,0.4,0.1
				c0,0,0,0.3,0.1,0.4c0.1,0.1,0.8,0.4,0.8,0.4s0.3,1.7,1.7,0.9c2.1-1.1,2-1,4.6,1.8l2.8-5.8C180.3,55.8,178.9,54.8,178.5,54.3z"/>
			<path class="st13" d="M172.2,60c0.2,0,0.4-0.1,0.6-0.2c1.4-0.8,1.8-1,2.7-0.2c0.5-0.8,1.2-2.3,1.2-2.4c0.7-1.7-0.5-2.8-0.5-2.8
				C176.9,56.1,174.4,58.4,172.2,60z"/>
			<path class="st14" d="M166.3,51.6c0.1,0,0.3,0,0.3,0c0.2-0.1,0.3-0.2,0.4-0.4c0.3-0.7,0.6-1.8,1.2-1.7c0.6,0.1,0.9,0.9,0.9,1.5
				s1,0.4,1.3,0.7s0.5,0.7,0.7,1.2c0.1,0.5,0.2,0.7,0.2,0.7l1.2-0.3c0,0,0.2-1.5,0.6-2c0.4-0.5,1.2-0.6,1.9,0.2s1,2.3,1,2.3
				s1.3,0.3,2.5,0.2l0,0h0.3c-0.2-0.4-0.4-0.8-0.5-1.3c-1-4.6-3.5-8.4-7.8-6.4C167.9,47.3,165.8,48.9,166.3,51.6L166.3,51.6z"/>
			<g>
				<path class="st15" d="M174,54.2L174,54.2L174,54.2z"/>
				<path class="st13" d="M174,50.8c-0.4-0.1-0.9,0-1.2,0.7c0,0-0.1,0.4,0.3,0.9c0.4,0.5,0.1,1.4,0.9,1.9c0,0,0.4,0,0.6-0.7
					c0.2-0.7,0.2-1,0.2-1.4C174.7,51.9,174.7,51,174,50.8z"/>
			</g>
			<path class="st12" d="M173.5,52.2c0,0-0.6-0.2-0.4-0.7c0.2-0.5,0.9-0.4,1.2,0.1c-0.7-0.6-1.2,0-1,0.4c0.4,0,0.6-0.1,0.8,0.3
				C173.9,52.1,173.7,52.1,173.5,52.2z"/>
			<path class="st12" d="M173.7,52.4h-0.3c0.3,0.3,0,0.6,0,0.7c0,0.1,0.2,0.2,0.2,0.1c0.1-0.1,0.2-0.4,0.4-0.5s0.1-0.3,0-0.3
				C174.1,52.3,173.9,52.4,173.7,52.4z"/>
			<path class="st13" d="M174,54.2c0.7,0.3,1.6-1.9,0.5-2.9c0.2,0.3,0.2,0.7,0.2,0.8c0.1,0.3,0,0.7-0.2,1.4
				C174.4,54.3,174,54.2,174,54.2z"/>
		</g>
		<g>
			<path class="st7" d="M169.1,113.6c0.5-1.2,2.3-1.5,2.9-1.7c1.8-0.4,3.3-1.3,3.9-1.7c0.4-0.3,0.9,0.1,1.2,0.5
				c0.2-0.2,0.3-0.4,0.3-0.7c-0.1-0.4-0.4-0.9-0.6-1.1c0,0-0.1-0.1-0.1,0c-0.3,0.3-1.6,1.3-1.8,1.5c-1.5,1.1-5.3,1.9-5.4,1.9l0,0
				c-0.1,0.1-0.2,0.5-0.3,1.1C169.2,113.4,169.2,113.5,169.1,113.6z"/>
			<path class="st8" d="M169.1,113.6c0.6,0.2,1.3,0.3,2.2,0.4c1.4,0.1,4-0.2,5.2-0.3c1.7,0,4.3,0.4,4.9-0.3c0.1-1.2-0.1-1.7-0.2-1.9
				c0-0.1-0.2-0.5-0.3-0.7l-0.1-0.1c-0.1,0-0.1,0-0.1,0.1s0,0.2,0,0.3c-0.1,0.1-0.8,0.7-1.5,0.8c-0.8,0.1-1.2-0.2-1.5-0.6
				s-0.9-1.3-1.6-0.9c-0.7,0.4-2.1,1.3-3.9,1.7C171.5,112,169.6,112.3,169.1,113.6z"/>
			<path class="st7" d="M166.7,113.8c0,0.1,0.2,0.3,0.7,0.6c0.4,0.2,1,0.4,1.7,0.7c2.5,0.7,5.4,0,7.7,0c1.4,0,3.1,0.3,4.1-0.1
				c0.3-0.1,0.4-0.3,0.5-0.5c0.1-0.4,0.1-0.8,0-1.1c-0.6,0.7-3.2,0.3-4.9,0.3c-1.2,0-3.7,0.3-5.2,0.3c-0.9-0.1-1.6-0.2-2.2-0.4
				c-0.7-0.2-1.5-0.6-1.7-0.7c-0.1-0.1-0.1-0.1-0.1-0.2s0.1-0.1,0.1-0.1C167,112.6,166.6,113.1,166.7,113.8z"/>
			<path class="st9" d="M167.4,112.8c0.2,0.2,1,0.5,1.7,0.7c0-0.1,0.1-0.1,0.1-0.2c0.1-0.6,0.2-0.9,0.3-1.1c-0.5,0-1.7,0-2.1,0.2
				l0,0l0,0C167.4,112.5,167.2,112.6,167.4,112.8z"/>
			<path class="st9" d="M166.7,113.5c0.1,0.2,0.3,0.3,0.6,0.5c3.6,1.8,6.5,0.7,9.5,0.7c1.5,0,4,0.4,4.6-0.4c0-0.2,0-0.5,0-0.6
				c-0.6,0.8-3,0.4-4.7,0.4c-2.9,0-5.8,1.1-9.5-0.7c-0.4-0.2-0.5-0.4-0.5-0.5C166.8,113.1,166.7,113.3,166.7,113.5z"/>
			<path class="st9" d="M171.9,112.8L171.9,112.8c0.1,0,0.2-0.2,0.1-0.3l-0.4-0.9c0-0.1-0.2-0.2-0.3-0.1l0,0c-0.1,0-0.2,0.2-0.1,0.3
				l0.4,0.9C171.6,112.8,171.7,112.9,171.9,112.8z"/>
			<path class="st9" d="M173.5,112.3L173.5,112.3c0.1,0,0.2-0.2,0.1-0.3l-0.4-0.9c0-0.1-0.2-0.2-0.3-0.1l0,0c-0.1,0-0.2,0.2-0.1,0.3
				l0.4,0.9C173.3,112.3,173.4,112.4,173.5,112.3z"/>
			<path class="st9" d="M175.1,111.7L175.1,111.7c0.1,0,0.2-0.2,0.1-0.3l-0.4-0.9c0-0.1-0.2-0.2-0.3-0.1l0,0c-0.1,0-0.2,0.2-0.1,0.3
				l0.4,0.9C174.8,111.7,174.9,111.7,175.1,111.7z"/>
		</g>
		<path class="st11" d="M214.6,108.6l-17.6,1.7c-2.5,0.2-4.8-1.6-5.1-4.1l-1.7-13.1l-10.5,1.7l1.5,15.6h-6.5l-0.3-1.9l0.8-0.5
			l-1-0.9l-2.3-16.5c-0.2-1.4,0.7-2.8,2.1-3.2l15.7-4.2h0.1l0,0l10.9-3.2c0.5,1.8,0.8,4.8-0.7,8.1l0,0l-1.2,16L214,103L214.6,108.6z
			"/>
		<g>
			<g>
				<g>
					<path class="st0" d="M155.8,88.7l-8.7,3.9c-1,0.4-2.1,0-2.5-0.9l-3.9-8.7c-0.4-1,0-2.1,0.9-2.5l8.7-3.9c1-0.4,2.1,0,2.5,0.9
						l3.9,8.7C157.2,87.2,156.8,88.3,155.8,88.7z"/>
				</g>
			</g>
		</g>
		<g>
			<path class="st12" d="M158,81c-0.3,0.1-0.6,0.3-0.7,0.4c-0.1,0.1-0.4,0.4-0.8,0.9c-0.2,0.2-0.7,0.5-1.2,0.8l-1.6-3.6
				c0.1,0,0.1-0.1,0.2-0.1c-0.2,0-1.5,0-1.9-0.2c-0.3-0.2-0.4-0.6-0.2-0.7l0.7-0.1l0,0c0.1,0,0.4,0,0.7-0.1c0.2,0,1-0.2,1.8-0.3
				c0.2,0,0.4,0.1,0.5,0.2c0.2,0.1,0.7,0.2,1,0.1c0,0,0.1,0,0.2-0.1L158,81z"/>
			<g>
				<path class="st18" d="M151.9,78.5c0.2-0.1,0.6-0.1,0.7-0.1C152.5,78.5,152.2,78.6,151.9,78.5L151.9,78.5
					C151.9,78.6,151.9,78.5,151.9,78.5L151.9,78.5L151.9,78.5z"/>
			</g>
		</g>
		<path class="st8" d="M207,69.4l3-2.1l-6.7-11.8c-0.5-0.8-1.4-1.2-2.3-1.3l-15.3-0.8l-2.9,0.9l-3.2,0.2c0.3,1.4-1,6.9-3.8,5.4
			l-2,3.9c-2.5,3-6.7,8.5-6.7,8.5l-10.9,5.9l1.3,3.1l12.6-3.5l8.6-7.4l0,0c8.5,5.5,11.1,12.6,11.1,12.6l0,0l10.9-3.2
			c-0.3-1.2-7-15.8-7-15.8l-1.4-4.1l7-0.8L207,69.4z"/>
		<path class="st17" d="M186.3,77.4c-1.7-2.2-4.2-4.6-7.6-6.8l0,0l-8.6,7.4l-12.6,3.5l-0.4-1l12-3.8v-1.3l1.2,0.5l6.2-6.4l-1.4-2.1
			C175.1,67.3,180.6,68.2,186.3,77.4z"/>
		<path class="st17" d="M197.5,72.6l-3.9-8.5l-1.4-4.1l7-0.8l7.7,10.2l0.6-0.4L200,58.9l0.6-1.1l-1.4,0.9l-6,0.5
			c-1.9,0.2-5-1.9-5-1.9S189.9,70.2,197.5,72.6z"/>
		<path class="st1" d="M146.6,79.8c-2.7,1.2-3.8,4.3-2.6,7s4.3,3.8,7,2.6c2.7-1.2,3.8-4.3,2.6-7C152.4,79.8,149.2,78.6,146.6,79.8z
			 M149.7,85.9l-0.5-1.2l2-0.9c0.2,0.5,0.3,0.9,0.4,1.4C150.9,85.4,150.3,85.7,149.7,85.9z M148.9,84.2l-0.5-1.2
			c0.6-0.3,1.2-0.6,1.7-1c0.3,0.4,0.5,0.8,0.8,1.3L148.9,84.2z M153.1,83c0.2,0.6,0.3,1.3,0.3,2c-0.4,0-0.9,0.1-1.3,0.2
			c-0.1-0.5-0.3-1-0.5-1.5L153.1,83z M152.9,82.4l-1.5,0.7c-0.2-0.5-0.5-0.9-0.8-1.4c0.4-0.3,0.8-0.6,1-0.9
			C152.1,81.3,152.6,81.8,152.9,82.4z M150.2,81.3c-0.5-0.6-1.2-1.1-1.7-1.4c0.9-0.1,1.8,0.2,2.6,0.6
			C150.8,80.8,150.5,81.1,150.2,81.3z M148.1,82.5l-1-2.3c0.8-0.2,1.8,0.4,2.6,1.4C149.3,81.9,148.7,82.2,148.1,82.5z M151.6,85.8
			c0.2,1.4-0.1,2.5-0.7,2.9l-1-2.3C150.5,86.2,151.1,86,151.6,85.8z M152.1,88c0.2-0.6,0.2-1.4,0.1-2.3c0.4-0.1,0.8-0.2,1.2-0.2
			C153.2,86.5,152.7,87.3,152.1,88z M147.8,83.3l0.5,1.2l-2,0.9c-0.2-0.5-0.3-0.9-0.4-1.4C146.6,83.8,147.2,83.5,147.8,83.3z
			 M148.6,85l0.5,1.2c-0.6,0.3-1.2,0.6-1.7,1c-0.3-0.4-0.5-0.8-0.8-1.3L148.6,85z M144.4,86.3c-0.2-0.6-0.3-1.3-0.3-2
			c0.4,0,0.8-0.1,1.3-0.2c0.1,0.5,0.3,1,0.5,1.5L144.4,86.3z M145.3,83.5c-0.4,0.1-0.8,0.1-1.2,0.2c0.2-0.9,0.6-1.7,1.3-2.4
			C145.2,81.9,145.2,82.7,145.3,83.5z M146.1,86.1c0.2,0.5,0.5,0.9,0.8,1.3c-0.4,0.3-0.7,0.6-1,0.9c-0.5-0.4-1-0.9-1.3-1.6
			L146.1,86.1z M147.3,87.9c0.5,0.6,1.2,1.1,1.8,1.4c-0.9,0.1-1.8-0.2-2.7-0.7C146.6,88.4,147,88.1,147.3,87.9z M149.4,86.7l1,2.3
			c-0.8,0.2-1.8-0.4-2.7-1.4C148.2,87.3,148.8,87,149.4,86.7z M145.9,83.4c-0.2-1.3,0.1-2.4,0.7-2.9l1,2.3
			C147,83,146.4,83.2,145.9,83.4z"/>
		<g>
			<g>
				<path class="st12" d="M207.9,73L207.9,73c0-0.1-0.1-0.4-0.2-0.6c0-0.1-0.4-0.9-0.5-1.6l1.3,0.9c0,0.2,0.2,1.4,0.1,1.7
					c-0.1,0.3-0.5,0.4-0.6,0.2L207.9,73z"/>
				<g>
					<path class="st18" d="M207.9,73c0,0.1,0,0.5,0.2,0.7c0.1,0,0.2,0,0.2-0.1C208.3,73.4,208.1,73,207.9,73z"/>
				</g>
			</g>
			<g>
				<path class="st3" d="M212.3,86.1l9.1-7.4c0.3-0.3,0.4-0.8,0.1-1.1l-7.4-9.1c-0.3-0.3-0.8-0.4-1.1-0.1l-9.1,7.4
					c-0.3,0.3-0.4,0.8-0.1,1.1l7.4,9.1C211.4,86.3,212,86.4,212.3,86.1z"/>
				<g>
					<path class="st1" d="M213.8,80.2c0.3,0.4,1,0.5,1.4,0.1c0.4-0.3,0.5-1,0.1-1.4s-1-0.5-1.4-0.1
						C213.5,79.2,213.4,79.8,213.8,80.2z"/>
					<path class="st1" d="M212.1,76.6c-0.8,0.7-1.3,1.7-1.4,2.7c0,0.3,0.2,0.7,0.6,0.7h0.3c0.3,0,0.6-0.2,0.7-0.6
						c0.1-0.6,0.4-1.2,0.9-1.6s1.2-0.6,1.8-0.5c0.3,0,0.6-0.2,0.7-0.5v-0.3c0-0.3-0.2-0.7-0.6-0.7C214,75.6,212.9,75.9,212.1,76.6z"
						/>
					<path class="st1" d="M208,79.7h0.4c0.3,0,0.6-0.2,0.7-0.6c0.1-1.4,0.8-2.8,2-3.8s2.7-1.4,4.1-1.2c0.3,0,0.6-0.2,0.7-0.5v-0.4
						c0-0.3-0.2-0.7-0.5-0.7c-1.9-0.2-3.8,0.3-5.3,1.6c-1.6,1.3-2.4,3.1-2.6,4.9C207.4,79.3,207.7,79.7,208,79.7z"/>
				</g>
			</g>
			<g>
				<path class="st12" d="M209.6,73.2c-0.1-0.1-0.7-1.2-1-1.5l-1.3-0.9c0-0.2,0-0.4,0.1-0.5c0.1-0.2,0.1-0.6,0-0.9
					c0,0,0-0.1-0.1-0.2l2.3-1.5c0.2,0.2,0.3,0.5,0.4,0.6c0.1,0.1,0.5,0.3,0.9,0.6c0.2,0.2,0.7,0.7,1.1,1.2c0.4,0.6,0.3,0.6,1.6,2.3
					c0.1,0.1,0.1,0.3-0.1,0.4c-0.1,0.1-0.3,0.1-0.4-0.1c0,0-0.8-1.1-1.1-1.4c-0.1-0.1-0.2,0-0.2,0.1c0.1,0.2,0.4,0.7,1.6,2.3
					c0.1,0.2,0.1,0.4-0.1,0.5c-0.2,0.1-0.4,0.1-0.5-0.1l-1.5-2.1c-0.1-0.2-0.3,0-0.2,0.2c0,0.1,1.6,2.4,1.6,2.4
					c0.1,0.2,0.1,0.4-0.1,0.5c-0.2,0.1-0.4,0.1-0.5-0.1c0,0-1.3-1.8-1.7-2.4c-0.1-0.1-0.2,0-0.2,0.1c0.9,1.6,0.9,1.6,1.3,2.1
					c0.1,0.2,0.1,0.4-0.1,0.5c-0.2,0.1-0.4,0.1-0.5-0.1C210.6,74.8,210,73.9,209.6,73.2z"/>
				<g>
					<path class="st18" d="M211.4,74.9c0,0,0,0.2-0.1,0.3c-0.2,0.1-0.3,0-0.3,0c-0.1-0.1-0.1-0.2-0.1-0.2c0-0.1,0-0.2,0.1-0.2l0,0
						c0.1,0,0.2,0,0.2,0C211.3,74.8,211.4,74.9,211.4,74.9z"/>
				</g>
				<g>
					<path class="st18" d="M213.6,72.5c0,0,0,0.1-0.1,0.2s-0.3,0-0.3,0c-0.1-0.1-0.1-0.2-0.1-0.2c0-0.2,0.2-0.3,0.3-0.2
						C213.5,72.4,213.5,72.4,213.6,72.5z"/>
				</g>
				<g>
					<path class="st18" d="M213.4,73.8c0,0,0,0.2-0.1,0.3c-0.1,0.1-0.3,0-0.3,0c-0.1-0.1-0.1-0.2-0.1-0.2c0-0.1,0-0.2,0.1-0.2l0,0
						c0.1-0.1,0.2-0.1,0.2,0C213.3,73.7,213.3,73.7,213.4,73.8z"/>
				</g>
				<g>
					<path class="st18" d="M212.2,75.1c0,0,0.1,0.1,0.3,0s0.1-0.3,0.1-0.3c-0.1-0.1-0.1-0.2-0.2-0.2c-0.1,0-0.2,0-0.3,0l0,0
						c-0.1,0.1-0.1,0.1-0.1,0.2C212.1,74.9,212.1,75,212.2,75.1z"/>
				</g>
			</g>
		</g>
	</g>
</g>
</svg>
