<?xml version="1.0" encoding="utf-8"?>
<!-- Generator: Adobe Illustrator 21.0.0, SVG Export Plug-In . SVG Version: 6.00 Build 0)  -->
<svg version="1.1" id="Layer_1" xmlns="http://www.w3.org/2000/svg" xmlns:xlink="http://www.w3.org/1999/xlink" x="0px" y="0px"
	 viewBox="0 0 25 25" style="enable-background:new 0 0 25 25;" xml:space="preserve">
<style type="text/css">
	.st0{fill:#151515;}
</style>
<g>
	<path class="st0" d="M17.8,5.7C17.5,6,17.2,6.3,17,6.5c-1.1-0.6-2.2-1.4-3.4-1.8C10.1,3.6,7,4.4,4.5,6.9c-2.6,2.6-3.3,5.7-2.1,9.2
		C3.6,19.5,6,21.5,9.5,22c6.3,1,11.5-5.1,9.8-11.3C19,9.6,19,9.6,19.9,8.6c1.9,3.1,1.7,9.1-2.8,12.7C12.9,24.7,6.3,24,2.8,19.7
		c-3.6-4.4-3-10.9,1.3-14.5C8.6,1.5,14.8,2.5,17.8,5.7z"/>
	<path class="st0" d="M10.8,14.8c3.8-5.3,8.4-9.7,13.7-13.3c-1.1,1.3-2.3,2.7-3.4,4c-2.8,3.4-5.4,6.9-7.8,10.6c-0.5,0.7-1,1.4-2,1.7
		c-1,0.3-2.1,0-2.7-0.9c-1.2-1.6-2.4-3.2-3.5-4.9c-0.4-0.6-0.3-0.8,0.2-1.2c0.8-0.6,2.1-0.3,2.9,0.6c0.7,0.9,1.3,1.8,2,2.7
		C10.4,14.3,10.6,14.5,10.8,14.8z"/>
</g>
</svg>
