<?xml version="1.0" encoding="utf-8"?>
<!-- Generator: Adobe Illustrator 21.0.0, SVG Export Plug-In . SVG Version: 6.00 Build 0)  -->
<svg version="1.1" id="Capa_1" xmlns="http://www.w3.org/2000/svg" xmlns:xlink="http://www.w3.org/1999/xlink" x="0px" y="0px"
	 viewBox="0 0 115 107" style="enable-background:new 0 0 115 107;" xml:space="preserve">
<style type="text/css">
	.st0{fill:#666666;}
</style>
<title>tech-icon1</title>
<g>
	<path class="st0" d="M46.6,80.9C38,80.8,31.1,63.6,31.1,54.8c0-14.4,10.8-17.5,14.9-17.5c1.8,0,3.8,0.7,5.6,1.4
		c1.3,0.4,2.5,0.9,3.2,0.9c0.4,0,1.4-0.4,2.3-0.7c1.8-0.7,4.2-1.7,7-1.7l0,0c2.1,0,8.2,0.4,11.9,6l0.9,1.3l-1.3,1
		c-1.8,1.3-5,3.8-5,8.7c0,5.8,3.7,8,5.5,9.1c0.8,0.4,1.6,1,1.6,2c0,0.7-5.5,15.6-13.6,15.6c-2,0-3.3-0.6-4.6-1.1
		c-1.3-0.5-2.3-1-4.1-1c-0.9,0-2,0.4-3.3,0.9C50.6,80.2,48.7,80.9,46.6,80.9L46.6,80.9z"/>
	<path class="st0" d="M65,24c0.2,7.5-5.2,12.8-10.6,12.5C53.5,30.4,59.8,24,65,24z"/>
</g>
</svg>
