<?xml version="1.0" encoding="utf-8"?>
<!-- Generator: Adobe Illustrator 23.0.3, SVG Export Plug-In . SVG Version: 6.00 Build 0)  -->
<svg version="1.1" id="Layer_1" xmlns="http://www.w3.org/2000/svg" xmlns:xlink="http://www.w3.org/1999/xlink" x="0px" y="0px"
	 viewBox="0 0 100 100" style="enable-background:new 0 0 100 100;" xml:space="preserve">
<title>bonus_structure</title>
<g>
	<g id="Layer_1-2">
		<g id="bonus_structure">
			<path d="M61.4,73.7H40.1c-0.7-0.1-1.2-0.7-1.2-1.4c0.1-0.6,0.5-1.1,1.2-1.2h21.3c0.9,0,1.7-0.4,2.3-1l0.2-0.2l0.1-0.1
				c0.5-0.6,0.8-1.3,0.8-2.1c0-1.8-1.5-3.3-3.3-3.3h-12c-0.4,0-0.7-0.1-0.9-0.4c-3.2-3.5-7.8-5.5-12.5-5.5H20.7
				c-0.7,0-1.3-0.6-1.3-1.3s0.6-1.3,1.3-1.3H36c5.3,0,10.3,2.2,14,6h11.4c3.2,0,5.9,2.6,5.9,5.9c0,1.3-0.4,2.6-1.3,3.6l-0.1,0.2
				c-0.1,0.1-0.2,0.3-0.4,0.4C64.4,73.1,63,73.7,61.4,73.7z"/>
			<path d="M50.7,88.6c-3.1,0-6.2-0.5-9.1-1.6l-21.4-7.7c-0.7-0.2-1-1-0.8-1.6c0.2-0.7,1-1,1.6-0.8l0,0l21.3,7.8
				c6.3,2.3,13.4,1.9,19.4-1.2l28.9-14.8c-3.2-2.5-7.5-3.2-11.3-1.9l-13.9,5C65.2,71.9,65,72,64.8,72c-0.7,0-1.3-0.5-1.3-1.2l0,0
				c0-0.4,0.1-0.7,0.4-0.9c0.1-0.1,0.3-0.2,0.4-0.3l14-5.1c4.8-1.7,10.1-0.7,14,2.5l1.2,1c0.5,0.5,0.6,1.3,0.1,1.8
				c-0.1,0.1-0.2,0.2-0.4,0.3L62.9,85.7C59.1,87.6,54.9,88.6,50.7,88.6z"/>
			<path d="M20.7,82.9H7.1c-0.7,0-1.3-0.6-1.3-1.3V54.1c0-0.7,0.6-1.3,1.3-1.3h13.6c0.7,0,1.3,0.6,1.3,1.3v27.5
				C21.9,82.3,21.4,82.8,20.7,82.9z M8.3,80.4h11.1v-25H8.3V80.4z"/>
			<path d="M62,56.4c-12.4,0-22.5-10.1-22.5-22.5s10-22.5,22.5-22.5s22.5,10.1,22.5,22.5l0,0C84.5,46.3,74.4,56.4,62,56.4z M62,13.9
				c-11,0-20,9-20,20s9,20,20,20s20-9,20-20S73.1,13.9,62,13.9z"/>
			<path d="M62,35.2c-3.8-0.1-6.8-3.3-6.7-7.1s3.3-6.8,7.1-6.7c3.7,0.1,6.7,3.2,6.7,6.9c0.1,0.7-0.5,1.3-1.2,1.4s-1.3-0.5-1.4-1.2
				c0-0.1,0-0.2,0-0.2c0.1-2.5-1.9-4.7-4.4-4.8c-2.5-0.1-4.7,1.9-4.8,4.4s1.9,4.7,4.4,4.8l0,0H62c0.7,0.1,1.2,0.7,1.2,1.4
				C63.1,34.6,62.6,35.1,62,35.2L62,35.2z"/>
			<path d="M62,46.5c-3.9,0.1-7.1-3-7.2-6.9c0.1-0.7,0.7-1.2,1.4-1.2c0.6,0.1,1.1,0.5,1.2,1.2c-0.1,2.6,1.8,4.7,4.4,4.9
				c2.6,0.1,4.7-1.8,4.9-4.4c0.1-2.6-1.8-4.7-4.4-4.9l0,0H62c-0.7,0.1-1.3-0.5-1.4-1.2c-0.1-0.7,0.5-1.3,1.2-1.4c0.1,0,0.2,0,0.2,0
				c3.8-0.1,7,3,7,6.8c0.1,3.7-2.8,6.8-6.6,7H62V46.5z"/>
			<path d="M62,48.6c-0.7,0-1.2-0.5-1.3-1.2v-27c-0.1-0.7,0.5-1.3,1.2-1.4c0.7-0.1,1.3,0.5,1.4,1.2c0,0.1,0,0.2,0,0.2v26.9
				C63.2,48,62.7,48.6,62,48.6z"/>
		</g>
	</g>
</g>
</svg>
