<?xml version="1.0" encoding="utf-8"?>
<!-- Generator: Adobe Illustrator 21.0.0, SVG Export Plug-In . SVG Version: 6.00 Build 0)  -->
<svg version="1.1" id="Capa_1" xmlns="http://www.w3.org/2000/svg" xmlns:xlink="http://www.w3.org/1999/xlink" x="0px" y="0px"
	 viewBox="0 0 115 107" style="enable-background:new 0 0 115 107;" xml:space="preserve">
<style type="text/css">
	.st0{fill:#666666;}
</style>
<title>tech-icon1</title>
<g>
	<path class="st0" d="M75.2,78.9c-0.1,0-0.2,0-0.3,0c-0.1-0.1-0.3-0.1-0.5-0.2c-6.5-1.6-13.1-3.4-19.6-5c-0.3-0.1-0.5-0.2-0.7-0.5
		c-0.8-1.5-1.7-3.1-2.5-4.6c-0.1-0.3-0.3-0.4-0.6-0.4c-1.7,0-3.5,0-5.2,0c-0.4,0-0.6-0.1-0.8-0.4c-4.9-4.7-9.7-9.4-14.6-14.2
		c-0.1-0.1-0.2-0.2-0.3-0.3c0.1-0.1,0.1-0.1,0.2-0.2c4.9-4.8,9.9-9.6,14.7-14.4c0.1-0.1,0.4-0.2,0.7-0.2c1.8,0,3.5,0,5.3,0
		c0.3,0,0.5-0.1,0.7-0.4c0.9-1.5,1.8-3.1,2.8-4.6c0.1-0.2,0.4-0.4,0.6-0.4c5.1-1.3,10.2-2.6,15.3-3.9c1.6-0.4,3.3-0.9,4.9-1.3
		c0.1,0,0.1,0,0.2,0c0,0.1,0,0.2,0.1,0.4c1.4,5.2,2.8,10.4,4.3,15.6c0.4,1.3,0.7,2.7,1.1,4c0,0.1,0,0.2,0,0.3
		c-0.1,0.1-0.1,0.1-0.1,0.1c-1,1.6-1.9,3.1-2.8,4.8c-0.1,0.1-0.1,0.4,0,0.6c0.8,1.5,1.6,3.1,2.5,4.6c0.1,0.3,0.2,0.6,0.1,0.9
		c-1.7,6.2-3.4,12.4-5.1,18.6C75.4,78.2,75.3,78.6,75.2,78.9z M72.3,68.7c0.1-0.2,0.1-0.3,0.1-0.4c1.4-4.7,2.8-9.5,4.1-14.2
		c0.1-0.3,0.1-0.7,0-1c-1.1-4-2.3-7.9-3.4-11.9c-0.3-0.9-0.5-1.8-0.8-2.8c-0.1,0.1-0.1,0.1-0.1,0.2c-2.9,4.9-5.8,9.8-8.8,14.7
		c-0.1,0.3-0.1,0.5,0.1,0.7c2.8,4.8,5.8,9.6,8.6,14.4C72,68.4,72.1,68.5,72.3,68.7z M68,35.5c-0.1,0-0.2,0-0.2,0
		c-5.1,1.3-10.2,2.5-15.3,3.9c-0.2,0.1-0.4,0.2-0.7,0.4c-3.7,3.5-7.3,7.1-11,10.6c-0.1,0.1-0.1,0.1-0.2,0.2c0.1,0,0.2,0,0.3,0
		c5.9,0,11.7,0,17.6,0c0.4,0,0.4-0.2,0.6-0.4c2.8-4.8,5.7-9.5,8.5-14.3C67.8,35.8,67.8,35.7,68,35.5z M68,71.3
		c-0.1-0.2-0.1-0.3-0.2-0.4c-2.9-4.9-5.8-9.7-8.7-14.6C58.9,56,58.7,56,58.4,56c-5.7,0-11.4,0-17,0c-0.1,0-0.4,0-0.6,0
		c0.1,0.2,0.3,0.3,0.4,0.4c3.5,3.4,7.1,7,10.6,10.4c0.2,0.2,0.5,0.4,0.8,0.4c3.4,0.9,6.7,1.7,10,2.5C64.4,70.4,66.1,70.8,68,71.3z"
		/>
</g>
</svg>
