<?xml version="1.0" encoding="utf-8"?>
<!-- Generator: Adobe Illustrator 24.3.0, SVG Export Plug-In . SVG Version: 6.00 Build 0)  -->
<svg version="1.1" id="Layer_1" xmlns="http://www.w3.org/2000/svg" xmlns:xlink="http://www.w3.org/1999/xlink" x="0px" y="0px"
	 viewBox="0 0 834.2 541.7" style="enable-background:new 0 0 834.2 541.7;" xml:space="preserve">
<style type="text/css">
	.st0{fill:#FAFAFA;}
	.st1{opacity:0.29;}
	.st2{fill:#E0E0E0;}
	.st3{fill:#EBEBEB;}
	.st4{fill:#F5F5F5;}
	.st5{fill:#263238;}
	.st6{fill:#455A64;}
	.st7{fill:#201E26;}
	.st8{fill:#0093ED;}
	.st9{fill:#E8505B;}
	.st10{fill:#0082D1;}
	.st11{fill:#FFBE9D;}
	.st12{opacity:0.5;}
	.st13{fill:#FFFFFF;}
	.st14{opacity:0.4;}
	.st15{opacity:0.2;}
	.st16{fill:#EB996E;}
	.st17{fill:#259DDB;}
</style>
<g>
	<g id="Layer_1-2">
		<g>
			<polygon class="st0" points="781.7,260.3 780.6,248.7 828.6,252.2 828.6,260.3 			"/>
		</g>
		<g>
			<polygon class="st0" points="783.3,248.9 783.3,242.1 827.9,242.1 827,252.1 			"/>
		</g>
		<g>
			<polygon class="st0" points="778.9,235.9 779.8,242.1 823.9,242.1 823.9,235.9 			"/>
		</g>
		<g class="st1">
			<g>
				<polygon class="st2" points="783.3,242.1 783.3,243.6 826.4,242.1 				"/>
			</g>
		</g>
		<g class="st1">
			<g>
				<polygon class="st2" points="783.3,248.9 827,252.1 827.2,250.5 				"/>
			</g>
		</g>
		<g class="st1">
			<g>
				<polygon class="st2" points="807.3,246.3 814.9,245.3 826.4,246.3 				"/>
			</g>
		</g>
		<g class="st1">
			<g>
				<polygon class="st2" points="781.2,255.5 795.5,255.5 781.3,256.5 				"/>
			</g>
		</g>
		<g class="st1">
			<g>
				<path class="st2" d="M794.5,239l29.3-0.9C823.9,238.8,794.5,239,794.5,239z"/>
			</g>
		</g>
		<g>
			<rect x="722.8" y="216.3" class="st2" width="50.1" height="6.7"/>
		</g>
		<g>
			<path class="st0" d="M729.6,216.6c0.2,0,0.3,1.4,0.3,3.1s-0.1,3.1-0.3,3.1C729.2,220.8,729.2,218.6,729.6,216.6z"/>
		</g>
		<g>
			<path class="st0" d="M728.5,216.4c0.2,0,0.3,1.4,0.3,3.1s-0.1,3.1-0.3,3.1C728.1,220.6,728.1,218.5,728.5,216.4z"/>
		</g>
		<g>
			<path class="st0" d="M769,216.6c0.2,0,0.3,1.4,0.3,3.1s-0.1,3.1-0.3,3.1C768.6,220.8,768.6,218.6,769,216.6z"/>
		</g>
		<g>
			<path class="st0" d="M767.9,216.4c0.2,0,0.3,1.4,0.3,3.1s-0.1,3.1-0.3,3.1C767.5,220.6,767.5,218.5,767.9,216.4z"/>
		</g>
		<g>
			<path class="st0" d="M761.4,219.8c0,0.2-5.7,0.3-12.8,0.3s-12.8-0.1-12.8-0.3s5.7-0.3,12.8-0.3S761.4,219.7,761.4,219.8z"/>
		</g>
		<g>
			<rect x="722.5" y="246.5" class="st2" width="50.2" height="13.4"/>
		</g>
		<g>
			<path class="st0" d="M773.3,256.1c-0.1,0.1-0.2,0.1-0.3,0.2c-0.3,0.1-0.5,0.3-0.8,0.4c-1.1,0.5-2.2,0.8-3.4,1
				c-1.9,0.3-3.8,0.1-5.5-0.8c-1.1-0.6-2-1.4-2.6-2.4c-0.8-1.1-1.1-2.5-0.9-3.9c0.1-0.7,0.4-1.4,0.9-2s1.3-1,2.1-1
				c0.8,0.1,1.6,0.5,2.1,1.1c0.6,0.6,0.9,1.4,1,2.3c0.1,1.8-0.5,3.5-1.7,4.8c-1.3,1.3-3,2.2-4.8,2.4c-1.9,0.2-3.8-0.1-5.6-0.7
				c-1.9-0.6-3.6-1.7-4.9-3.3c-0.7-0.8-1.1-1.8-1.1-2.9c-0.1-1.1,0.3-2.2,1.1-3c0.4-0.4,1-0.7,1.6-0.7s1.2,0.1,1.6,0.5
				c0.9,0.6,1.6,1.6,1.8,2.7c0.4,2.2-0.3,4.4-2,5.9c-1.6,1.3-3.6,2.2-5.7,2.3c-2,0.2-4,0-5.8-0.6s-3.4-1.8-4.5-3.5
				c-1-1.6-1.2-3.6-0.5-5.3c0.3-0.9,1.1-1.5,2-1.7s1.8,0.1,2.5,0.6c1.3,1.1,1.7,2.9,1.2,4.5c-0.5,1.4-1.4,2.6-2.5,3.6
				c-1.9,1.6-4.4,2.6-6.9,2.7c-1.9,0.1-3.8-0.4-5.5-1.2c-1.1-0.5-2-1.3-2.8-2.1c-0.2-0.2-0.4-0.4-0.6-0.7c-0.1-0.1-0.1-0.2-0.2-0.3
				c1.1,1.2,2.3,2.1,3.7,2.8c3.9,1.9,8.6,1.3,11.9-1.5c1.1-0.9,1.9-2,2.4-3.4s0.1-3-1-4c-0.6-0.5-1.4-0.6-2.1-0.5
				c-0.8,0.2-1.4,0.7-1.6,1.4c-0.6,1.6-0.4,3.4,0.5,4.8c1,1.5,2.4,2.7,4.2,3.2c1.8,0.6,3.7,0.7,5.6,0.5c1.9-0.1,3.8-0.9,5.3-2.1
				c1.5-1.3,2.2-3.3,1.8-5.3c-0.2-0.9-0.8-1.8-1.6-2.3c-0.7-0.5-1.8-0.5-2.5,0.1c-0.6,0.7-1,1.6-0.9,2.5s0.4,1.8,1,2.6
				c1.2,1.4,2.8,2.5,4.6,3.1c1.7,0.6,3.5,0.9,5.3,0.7c1.7-0.1,3.3-0.9,4.5-2.2c1.1-1.1,1.7-2.7,1.6-4.3c-0.1-1.5-1.1-2.7-2.6-3
				c-0.7,0-1.3,0.3-1.7,0.8s-0.7,1.1-0.8,1.8c-0.2,1.2,0.1,2.5,0.8,3.6c0.6,0.9,1.5,1.7,2.5,2.3c1.6,0.8,3.5,1.1,5.3,0.9
				c1.2-0.2,2.3-0.4,3.4-0.9C772.9,256.2,773.3,256.1,773.3,256.1z"/>
		</g>
		<g>
			<rect x="727" y="223.2" class="st3" width="45.7" height="23.2"/>
		</g>
		<g>
			<path class="st2" d="M734.6,224c0.2,0,0.3,5,0.3,11.2s-0.1,11.2-0.3,11.2s-0.3-5-0.3-11.2S734.4,224,734.6,224z"/>
		</g>
		<g>
			<path class="st2" d="M738.1,223.7c0.2,0,0.3,5,0.3,11.1s-0.1,11.1-0.3,11.1s-0.3-5-0.3-11.1S737.9,223.7,738.1,223.7z"/>
		</g>
		<g>
			<path class="st2" d="M767.5,223c0.2,0,0.3,5.2,0.3,11.7s-0.1,11.7-0.3,11.7s-0.3-5.2-0.3-11.7S767.3,223,767.5,223z"/>
		</g>
		<g>
			<path class="st2" d="M763.5,223.3c0.2,0,0.3,5.1,0.3,11.4s-0.1,11.4-0.3,11.4s-0.3-5.1-0.3-11.4S763.3,223.3,763.5,223.3z"/>
		</g>
		<g>
			<rect x="708.5" y="259.5" class="st4" width="67.9" height="219.9"/>
		</g>
		<g>
			<rect x="776.5" y="259.5" class="st2" width="57.7" height="219.8"/>
		</g>
		<g>
			<rect x="713.8" y="268.4" class="st2" width="54.5" height="47.4"/>
		</g>
		<g>
			<rect x="713.8" y="321.1" class="st2" width="54.5" height="47.4"/>
		</g>
		<g>
			<rect x="713.8" y="373.9" class="st2" width="54.5" height="47.4"/>
		</g>
		<g>
			<rect x="713.8" y="426.6" class="st2" width="54.5" height="47.4"/>
		</g>
		<g>
			<path class="st0" d="M741.1,277.2c0,1-0.9,1.9-1.9,1.9s-1.9-0.9-1.9-1.9s0.9-1.9,1.9-1.9S741.1,276.1,741.1,277.2L741.1,277.2z"
				/>
		</g>
		<g>
			<path class="st0" d="M741.1,330.5c0,1-0.8,1.9-1.9,1.9c-1,0-1.9-0.8-1.9-1.9c0-1,0.8-1.9,1.9-1.9l0,0
				C740.2,328.6,741.1,329.5,741.1,330.5z"/>
		</g>
		<g>
			<path class="st0" d="M741.1,383.9c0,1-0.9,1.9-1.9,1.9s-1.9-0.9-1.9-1.9s0.9-1.9,1.9-1.9S741.1,382.8,741.1,383.9L741.1,383.9z"
				/>
		</g>
		<g>
			<path class="st0" d="M741.1,437.2c0,1-0.8,1.9-1.9,1.9c-1,0-1.9-0.8-1.9-1.9c0-1,0.8-1.9,1.9-1.9l0,0
				C740.2,435.3,741.1,436.2,741.1,437.2z"/>
		</g>
		<g>
			<rect x="708.5" y="479.4" class="st2" width="7.8" height="44.1"/>
		</g>
		<g>
			<rect x="768.3" y="479.4" class="st2" width="7.8" height="44.1"/>
		</g>
		<g>
			<rect x="825.5" y="479.4" class="st2" width="7.8" height="44.1"/>
		</g>
		<g>
			
				<rect x="1.3" y="50.1" transform="matrix(1 -5.410336e-03 5.410336e-03 1 -1.5567 4.019055e-02)" class="st2" width="10.7" height="475.3"/>
		</g>
		<g>
			
				<rect x="26.9" y="50" transform="matrix(1 -5.410336e-03 5.410336e-03 1 -1.5558 0.1787)" class="st2" width="10.7" height="475.3"/>
		</g>
		<g>
			
				<rect x="250.6" y="48.8" transform="matrix(1 -5.410336e-03 5.410336e-03 1 -1.5461 1.389)" class="st2" width="10.7" height="475.3"/>
		</g>
		<g>
			
				<rect x="276.2" y="48.6" transform="matrix(1 -5.410336e-03 5.410336e-03 1 -1.5446 1.5275)" class="st2" width="10.7" height="475.3"/>
		</g>
		<g>
			
				<rect x="0" y="49.4" transform="matrix(1 -5.410336e-03 5.410336e-03 1 -0.2944 0.7734)" class="st2" width="285.6" height="10.8"/>
		</g>
		<g>
			
				<rect x="0.5" y="146.9" transform="matrix(1 -5.410336e-03 5.410336e-03 1 -0.8013 0.7775)" class="st2" width="285.6" height="3.2"/>
		</g>
		<g>
			
				<rect x="1" y="238.9" transform="matrix(1 -5.410336e-03 5.410336e-03 1 -1.2991 0.7815)" class="st2" width="285.6" height="3.2"/>
		</g>
		<g>
			
				<rect x="1.5" y="330.9" transform="matrix(1 -5.410336e-03 5.410336e-03 1 -1.7969 0.7856)" class="st2" width="285.6" height="3.2"/>
		</g>
		<g>
			
				<rect x="2" y="422.9" transform="matrix(1 -5.410336e-03 5.410336e-03 1 -2.2946 0.7896)" class="st2" width="285.6" height="3.2"/>
		</g>
		<g>
			
				<rect x="117.8" y="369.2" transform="matrix(1 -5.410336e-03 5.410336e-03 1 -2.1407 0.78)" class="st3" width="50.6" height="53.7"/>
		</g>
		<g>
			
				<rect x="168.2" y="368.9" transform="matrix(1 -5.410336e-03 5.410336e-03 1 -2.1383 1.0527)" class="st4" width="50.6" height="53.7"/>
		</g>
		<g>
			<path class="st2" d="M117.7,384c33.6,0.3,67.3,0.1,101-0.5c0.2,0,0.4-0.2,0.3-0.5c0-0.2-0.2-0.3-0.3-0.3
				c-33.6-0.2-67.3-0.1-100.9,0.6c-0.2,0-0.3,0.2-0.3,0.4C117.5,383.9,117.6,384,117.7,384L117.7,384z"/>
		</g>
		<g>
			
				<rect x="116.7" y="167.1" transform="matrix(1 -5.410336e-03 5.410336e-03 1 -1.0084 0.7345)" class="st3" width="37.1" height="39.3"/>
		</g>
		<g>
			
				<rect x="153.6" y="166.9" transform="matrix(1 -5.410336e-03 5.410336e-03 1 -1.0068 0.9341)" class="st4" width="37.1" height="39.3"/>
		</g>
		<g>
			<path class="st2" d="M116.6,178.1c24.6,0.2,49.3,0.1,73.9-0.3c0.2,0,0.4-0.2,0.3-0.5c0-0.2-0.2-0.3-0.3-0.3
				c-24.6-0.1-49.3,0-73.9,0.4c-0.2,0-0.3,0.2-0.3,0.3C116.3,177.9,116.5,178.1,116.6,178.1z"/>
		</g>
		<g>
			
				<rect x="93.6" y="205.8" transform="matrix(1 -5.410336e-03 5.410336e-03 1 -1.1982 0.6917)" class="st3" width="67.3" height="32"/>
		</g>
		<g>
			
				<rect x="160.6" y="205.5" transform="matrix(1 -5.410336e-03 5.410336e-03 1 -1.1956 1.0542)" class="st4" width="67.3" height="32"/>
		</g>
		<g>
			<path class="st2" d="M93.5,215c44.7,0.5,89.6,0.1,134.3-0.7c0.2,0,0.4-0.2,0.4-0.4s-0.2-0.4-0.4-0.4
				c-44.7-0.2-89.6-0.2-134.3,0.8c-0.2,0-0.3,0.2-0.3,0.3C93.2,214.8,93.3,215,93.5,215z"/>
		</g>
		<g>
			
				<rect x="96" y="80.9" transform="matrix(0.9999 -1.000050e-02 1.000050e-02 0.9999 -1.1333 1.0502)" class="st3" width="16.9" height="65.9"/>
		</g>
		<g>
			
				<rect x="78.3" y="99.3" transform="matrix(1 -5.410336e-03 5.410336e-03 1 -0.6656 0.4712)" class="st2" width="16.9" height="47.9"/>
		</g>
		<g>
			
				<rect x="112.6" y="93.6" transform="matrix(1 -5.410336e-03 5.410336e-03 1 -0.649 0.6821)" class="st2" width="26.3" height="53.4"/>
		</g>
		<g>
			
				<rect x="138.5" y="93.5" transform="matrix(1 -5.410336e-03 5.410336e-03 1 -0.6482 0.7738)" class="st3" width="8.4" height="53.4"/>
		</g>
		<g>
			
				<rect x="146.9" y="105.8" transform="matrix(1 -5.410336e-03 5.410336e-03 1 -0.6814 0.8194)" class="st2" width="8.4" height="41.1"/>
		</g>
		<g>
			
				<rect x="58.2" y="291.4" transform="matrix(0.3793 -0.9253 0.9253 0.3793 -222.1605 268.5934)" class="st2" width="61.8" height="16.9"/>
		</g>
		<g>
			
				<rect x="106.6" y="265.5" transform="matrix(1 -5.410336e-03 5.410336e-03 1 -1.6131 0.6268)" class="st3" width="16.9" height="65.9"/>
		</g>
		<g>
			
				<rect x="132.2" y="277.7" transform="matrix(1 -5.410336e-03 5.410336e-03 1 -1.6448 0.7909)" class="st2" width="26.3" height="53.4"/>
		</g>
		<g>
			
				<rect x="126.4" y="258" transform="matrix(1 -5.410336e-03 5.410336e-03 1 -1.592 0.7036)" class="st3" width="5.7" height="73.2"/>
		</g>
		<g>
			
				<rect x="123.5" y="269.4" transform="matrix(1 -5.410336e-03 5.410336e-03 1 -1.6229 0.6804)" class="st4" width="2.9" height="61.8"/>
		</g>
		<g>
			
				<rect x="158.8" y="328.2" transform="matrix(1 -5.410293e-03 5.410293e-03 1 -1.7808 1.0312)" class="st4" width="61.8" height="2.9"/>
		</g>
		<g>
			
				<rect x="160" y="310.2" transform="matrix(0.9999 -1.000050e-02 1.000050e-02 0.9999 -3.1778 1.9529)" class="st3" width="67.4" height="17.1"/>
		</g>
		<g>
			
				<rect x="158.5" y="293.9" transform="matrix(1 -5.410336e-03 5.410336e-03 1 -1.6337 1.0083)" class="st2" width="54.1" height="17.1"/>
		</g>
		<g>
			<circle class="st2" cx="646.6" cy="40" r="40"/>
		</g>
		<g>
			<path class="st0" d="M664.8,41.2c-0.5,0.1-0.9,0.1-1.4,0.1l-3.9,0.1c-3.3,0.1-7.9,0.1-13.1,0.1h-0.3v-2.9c0-5.8,0-11,0.1-14.8
				c0-1.8,0.1-3.3,0.1-4.5c0-0.5,0-1.1,0.1-1.6c0.1,0.5,0.2,1.1,0.1,1.6c0,1.2,0.1,2.7,0.1,4.5c0.1,3.8,0.1,9,0.1,14.8v2.6l-0.3-0.3
				c5.2,0,9.8,0.1,13.1,0.1l3.9,0.1C663.8,41.1,664.3,41.1,664.8,41.2z"/>
		</g>
		<g>
			<path class="st0" d="M646.5,6.6c0.2,0,0.3,1.5,0.3,3.4s-0.2,3.4-0.3,3.4s-0.3-1.5-0.3-3.4S646.3,6.6,646.5,6.6z"/>
		</g>
		<g>
			<path class="st0" d="M664.8,12c0.1,0.1-0.8,1.3-2.1,2.6s-2.5,2.2-2.6,2.1s0.8-1.3,2.1-2.6S664.6,11.8,664.8,12z"/>
		</g>
		<g>
			<path class="st0" d="M675.4,23.6c0.1,0.2-1.2,1-2.7,1.9s-2.8,1.7-2.9,1.5s1-1.2,2.6-2.1S675.3,23.4,675.4,23.6z"/>
		</g>
		<g>
			<path class="st0" d="M681.7,40.9c0,0.2-2,0.3-4.6,0.3s-4.6-0.2-4.6-0.3s2-0.3,4.6-0.3S681.7,40.7,681.7,40.9z"/>
		</g>
		<g>
			<path class="st0" d="M618.1,40.3c0,0.2-1.9,0.3-4.3,0.3s-4.3-0.2-4.3-0.3s1.9-0.3,4.3-0.3S618.1,40.1,618.1,40.3z"/>
		</g>
		<g>
			<path class="st0" d="M622.6,53.1c0.1,0.1-1.3,1.5-3.2,3s-3.5,2.7-3.7,2.5s1.3-1.5,3.2-3S622.5,53,622.6,53.1z"/>
		</g>
		<g>
			<path class="st0" d="M633.7,63.1c0.2,0.1-0.9,1.8-2.2,3.9s-2.3,3.8-2.4,3.7s0.6-2,1.8-4.1S633.5,63,633.7,63.1z"/>
		</g>
		<g>
			<path class="st0" d="M646.5,75.9c-0.2,0-0.3-2.1-0.3-4.6s0.2-4.6,0.3-4.6s0.3,2.1,0.3,4.6S646.7,75.9,646.5,75.9z"/>
		</g>
		<g>
			<path class="st0" d="M666.3,69.8c-0.1,0.2-1.9-0.8-3.8-2.5s-3.2-3.3-3-3.5s1.6,1.3,3.5,2.9S666.4,69.6,666.3,69.8z"/>
		</g>
		<g>
			<path class="st0" d="M675.5,59.8c-0.1,0.1-1.5-1-3.1-2.6s-2.8-3-2.6-3.1s1.5,1,3.1,2.6S675.7,59.7,675.5,59.8z"/>
		</g>
		<g>
			<path class="st0" d="M622.2,28c-0.1,0.1-1.4-0.9-2.7-2.2s-2.4-2.6-2.2-2.7s1.4,0.9,2.7,2.2S622.3,27.8,622.2,28z"/>
		</g>
		<g>
			<path class="st0" d="M633.6,15.9c-0.1,0.1-1.3-0.8-2.7-2.2s-2.3-2.6-2.2-2.7s1.3,0.8,2.7,2.2S633.8,15.8,633.6,15.9z"/>
		</g>
		<g>
			<rect x="338.7" y="131.5" class="st2" width="116.3" height="76.5"/>
		</g>
		<g>
			<rect x="342.8" y="134.6" class="st0" width="108.2" height="69.9"/>
		</g>
		<g>
			<rect x="379.2" y="160.1" class="st2" width="35.3" height="19.2"/>
		</g>
		<g>
			<path class="st5" d="M827.2,524.1c0,0.2-173.1,0.3-386.7,0.3s-386.7-0.2-386.7-0.3s173.1-0.3,386.7-0.3S827.2,523.9,827.2,524.1z
				"/>
		</g>
		<g>
			<rect x="488.7" y="328" class="st6" width="140.7" height="27.3"/>
		</g>
		<g>
			<rect x="401" y="307.1" class="st7" width="83.3" height="4"/>
		</g>
		<g>
			<polygon class="st7" points="497.3,311.2 512.9,252.6 447.9,252.6 433.7,311.2 			"/>
		</g>
		<g>
			<polygon class="st2" points="437.6,306.8 495.7,306.8 509.2,255.3 450.8,255.3 			"/>
		</g>
		<g>
			<rect x="368.1" y="323.2" class="st6" width="4.2" height="200.9"/>
		</g>
		<g>
			<rect x="372.3" y="323.8" class="st7" width="4.2" height="200.3"/>
		</g>
		<g>
			<rect x="627.3" y="323.2" class="st6" width="4.2" height="200.9"/>
		</g>
		<g>
			<rect x="631.6" y="323.8" class="st5" width="4.2" height="200.3"/>
		</g>
		<g>
			<rect x="349.9" y="311.5" class="st6" width="319.6" height="16.5"/>
		</g>
		<g>
			<path class="st5" d="M565.4,339.7c0,1.7-1.4,3.1-3.1,3.1c-1.7,0-3.1-1.4-3.1-3.1s1.4-3.1,3.1-3.1l0,0
				C564,336.6,565.4,338,565.4,339.7z"/>
		</g>
		<g>
			<path class="st8" d="M317.7,399.7l-28.6-116.5c-1.7-7.1,2.6-14.3,9.7-16.1c1-0.3,2.1-0.4,3.2-0.4h67.7c6,0,11.3,4.1,12.8,9.9
				l30.1,115.9c1.8,7.1-2.4,14.3-9.5,16.2c-1,0.3-2.1,0.4-3.2,0.4l-69.1,0.7C324.6,409.9,319.2,405.7,317.7,399.7z"/>
		</g>
		<g>
			<path class="st9" d="M302.4,266.7c-7.8,0-14.1,6.3-14.1,14.1c0,1.1,0.1,2.2,0.4,3.3l30.5,125.7h22.7L302.4,266.7z"/>
		</g>
		<g>
			<path class="st10" d="M360.1,373.5h73.5c5.3,0,9.6,4.3,9.6,9.6v17.3c0,5.3-4.3,9.6-9.6,9.6h-73.5c-5.3,0-9.6-4.3-9.6-9.6v-17.3
				C350.5,377.8,354.8,373.5,360.1,373.5z"/>
		</g>
		<g>
			<path class="st10" d="M363.3,409.9l-1.4-36.4h-30l-29.5-106.8c-7.8,0-14.1,6.3-14.1,14.1c0,1.1,0.1,2.2,0.4,3.3l30.5,125.7h1l0,0
				h43.1V409.9z"/>
		</g>
		<g>
			<path class="st2" d="M338.2,313.3c-0.2,0.7-0.2,1.4,0.1,2.1c0.3,0.7,0.8,1.2,1.5,1.5c1.3,0.3,2.5-0.5,2.8-1.8
				c0.1-0.5,0.1-0.9-0.1-1.4c-0.4-0.6-1-1.1-1.7-1.2s-1.4,0-2,0.3c0,0,0.1-0.2,0.4-0.5c0.5-0.3,1.1-0.4,1.7-0.3
				c0.9,0.1,1.7,0.6,2.2,1.4c0.7,1.5,0.1,3.2-1.4,3.9c-0.6,0.3-1.3,0.4-2,0.2c-0.8-0.3-1.5-1-1.8-1.9c-0.2-0.6-0.2-1.2,0-1.7
				C338,313.4,338.2,313.3,338.2,313.3z"/>
		</g>
		<g>
			<path class="st2" d="M337.3,330.6c-0.4-0.7-0.7-1.5-0.8-2.3c-0.6-4,0.9-8.1,4-10.7c0.6-0.6,1.3-1,2.1-1.3
				c0.1,0.1-0.7,0.6-1.8,1.6c-2.7,2.7-4.1,6.5-3.8,10.3C337.1,329.7,337.4,330.6,337.3,330.6z"/>
		</g>
		<g>
			<path class="st2" d="M332,303.6c0.2,0,0.3,2.8,2.1,5.5s4.2,4.1,4.1,4.3c-0.6-0.1-1.2-0.4-1.6-0.8c-2.5-1.7-4.1-4.3-4.6-7.2
				C331.8,304.3,331.9,303.6,332,303.6z"/>
		</g>
		<g>
			<path class="st2" d="M328.7,314.3c0.1-0.2,1.9,0.9,4.4,1.4s4.6,0.3,4.6,0.5s-2.1,0.8-4.7,0.2S328.6,314.4,328.7,314.3z"/>
		</g>
		<g>
			<path class="st2" d="M373.6,313.3c-0.2,0.7-0.2,1.4,0,2.1c0.3,0.7,0.8,1.2,1.5,1.5c1.3,0.3,2.5-0.5,2.8-1.8
				c0.1-0.5,0.1-0.9-0.1-1.3c-0.4-0.6-1-1.1-1.7-1.2s-1.4,0-2,0.3c0,0,0.1-0.2,0.4-0.5c0.5-0.3,1.1-0.4,1.7-0.3
				c0.9,0.1,1.7,0.6,2.2,1.4c0.7,1.4,0.1,3.2-1.4,3.9c-0.6,0.3-1.4,0.4-2,0.2c-0.8-0.3-1.5-1-1.7-1.9c-0.2-0.6-0.2-1.2,0-1.7
				C373.4,313.4,373.6,313.3,373.6,313.3z"/>
		</g>
		<g>
			<path class="st2" d="M372.7,330.6c-0.4-0.7-0.7-1.5-0.8-2.3c-0.6-4,0.9-8.1,4-10.7c0.6-0.6,1.3-1,2.1-1.3
				c0.1,0.1-0.7,0.6-1.8,1.6c-1.4,1.3-2.4,2.9-3.1,4.7c-0.6,1.8-0.9,3.7-0.8,5.6C372.6,329,372.7,329.8,372.7,330.6z"/>
		</g>
		<g>
			<path class="st2" d="M367.4,303.6c0.2,0,0.3,2.8,2.1,5.5s4.2,4.1,4.1,4.3c-0.6-0.1-1.2-0.4-1.6-0.8c-1.2-0.8-2.2-1.9-3-3.1
				s-1.3-2.6-1.5-4.1C367.3,304.8,367.3,304.2,367.4,303.6z"/>
		</g>
		<g>
			<path class="st2" d="M364.1,314.3c0.1-0.2,1.9,0.9,4.4,1.4s4.5,0.3,4.6,0.5s-2.1,0.8-4.7,0.2S364,314.4,364.1,314.3z"/>
		</g>
		<g>
			<path class="st7" d="M434.2,420.1H325.6c-3,0-5.4-2.4-5.4-5.4l0,0c0-3,2.4-5.4,5.4-5.4h108.7c3,0,5.4,2.4,5.4,5.3l0,0l0,0
				C439.6,417.7,437.2,420.1,434.2,420.1L434.2,420.1z"/>
		</g>
		<g>
			<polygon class="st7" points="333.2,420.1 315.3,524.1 320.2,524.1 343.7,420.1 			"/>
		</g>
		<g>
			<polygon class="st7" points="375.4,420.1 356.4,524.1 361.3,524.1 385.9,420.1 			"/>
		</g>
		<g>
			<polygon class="st7" points="422,420.1 443.2,524.1 438.3,524.1 411.5,420.1 			"/>
		</g>
		<g>
			<path class="st5" d="M614.8,96.7c-15.6-1.8-23.9,7.8-27.4,15.2s-4.3,15.8-4.8,24s-0.6,16.5-2.7,24.4c-1.1,4.1-2.8,8.1-3.3,12.4
				s0.3,8.9,3.5,11.8"/>
		</g>
		<g>
			<path class="st5" d="M630,104.8c4.1,8.4,1.1,18.5,3.2,27.7c0.9,3.8,2.7,7.2,4,10.9c2.7,7.3,3.8,15,4.9,22.7c0.5,3.9,1,8-0.8,11.5
				c-2,3.8-6.4,5.8-10.6,5.8c-5.8-0.1-11-3.5-13.5-8.8c-1.8-3.9-1.7-8.4-1.7-12.7c0.3-18.7,0.6-37.4,3.8-55.8"/>
		</g>
		<g>
			<path class="st11" d="M701.7,147.1l-9.7-3.7c-1.2-0.5-2.6,0.1-3,1.3c-0.1,0.2-0.1,0.4-0.1,0.6c-0.3,2.3-1.8,8.6-3.4,6.4
				c0-0.1-0.1-0.1-0.1-0.1c-2.3-3.3-5.1-5-6.3-5c-0.8,0.1-1.3,0.8-1.2,1.5c0,0.3,0.2,0.6,0.4,0.8c0.1,0.2,0.3,0.3,0.4,0.4l0.2,0.2
				c1,0.9,1.9,2,2.7,3.1c0.7,1,1.3,2.1,1.7,3.3c0.4,1.3,0.7,2.5,0.9,3.4l-0.6,6.5l-12,32.4l-21-21.8c0,0-11.1,24.8-11.4,25.6
				c-0.2,0.6,10.5,11.7,17.5,18.9c7.6,7.9,20.2,8,28.1,0.4c2.7-2.6,4.6-6,5.5-9.7l9.1-45.7h-0.2l1-3.3l3-12.7
				C703.4,148.7,702.8,147.5,701.7,147.1z"/>
		</g>
		<g>
			<path class="st8" d="M661.5,448.4l0.2-12.2l-22.8-0.6l-0.5,17.8l1.4,0.1c6.3,0.5,32,2.1,36.2,1
				C680.8,453.3,661.5,448.4,661.5,448.4z"/>
		</g>
		<g class="st12">
			<g>
				<path class="st13" d="M646.6,453.5c-0.3-1.9-1.3-3.7-2.8-4.9c-1.5-1.2-3.4-1.9-5.3-1.8l-0.2,6.4L646.6,453.5z"/>
			</g>
		</g>
		<g class="st14">
			<g>
				<path class="st13" d="M670.9,451.1c0,0,6.8,2.1,5.9,3.2s-26.9,0.4-38.4-0.9V453l30.4,1C668.7,454,669.5,451.2,670.9,451.1z"/>
			</g>
		</g>
		<g>
			<path class="st7" d="M638,453c0.1,0,0.3,0.1,0.4,0.1l1.1,0.1l4.1,0.3c3.5,0.2,8.3,0.5,13.7,0.6s10.2,0.2,13.7,0.1l4.2-0.1h1.1
				h0.4h-0.4h-1.1H671c-3.5,0-8.3-0.1-13.7-0.2s-10.2-0.4-13.7-0.5l-4.2-0.2h-1.1L638,453z"/>
		</g>
		<g>
			<path class="st8" d="M726.5,373.5l-5.3-11l-20.6,9.8l7.6,16.1l1.3-0.5c5.8-2.4,29.5-12.6,32.8-15.5
				C745.9,369.2,726.5,373.5,726.5,373.5z"/>
		</g>
		<g class="st12">
			<g>
				<path class="st13" d="M715.5,384.8c-1.1-1.6-2.8-2.7-4.7-3.1s-3.9-0.2-5.5,0.8l2.7,5.8L715.5,384.8z"/>
			</g>
		</g>
		<g class="st14">
			<g>
				<path class="st13" d="M736.1,371.7c0,0,7-1.1,6.7,0.2s-23.8,12.6-34.6,16.6L708,388l27.6-12.8
					C735.6,375.2,734.9,372.3,736.1,371.7z"/>
			</g>
		</g>
		<g>
			<path class="st7" d="M707.6,388.2c0.1,0,0.3-0.1,0.4-0.1l1-0.4l3.8-1.6c3.2-1.4,7.6-3.4,12.5-5.7s9.2-4.5,12.3-6.1l3.7-1.9l1-0.5
				l0.3-0.2l-0.4,0.1l-1,0.5l-3.7,1.9c-3.1,1.6-7.5,3.7-12.3,6s-9.2,4.3-12.4,5.7l-3.8,1.7l-1,0.5
				C707.9,388,707.7,388.1,707.6,388.2z"/>
		</g>
		<g>
			<path class="st7" d="M705.4,382.3c0,0,0.6-0.3,1.5-0.7c1.3-0.4,2.7-0.5,4-0.2s2.5,1,3.5,2c0.7,0.7,1,1.3,1.1,1.3
				c0-0.1-0.1-0.3-0.2-0.4c-0.2-0.4-0.5-0.7-0.8-1c-1-1-2.2-1.7-3.5-2.1c-1.4-0.3-2.8-0.2-4.1,0.3c-0.4,0.1-0.8,0.3-1.1,0.6
				C705.6,382.2,705.5,382.2,705.4,382.3z"/>
		</g>
		<g>
			<path class="st8" d="M557.8,208.4l4.7-22.8c3.8-21.4,34.8-23.6,34.8-23.6l23.6-0.4c0,0,17.5-2.4,28.2,9.8
				c11.2,12.6,17,18.8,17,18.8l-16.3,26l-11.1-11.5c2.1,3.6,3.2,7.7,3.3,11.9c0,7-7.3,10.2-7.3,10.2l-1.8,17.7l9,17.3l-74,16.4
				c1.5-12.4,0.6-21.9,6.4-31.2l5.7-34.6L557.8,208.4z"/>
		</g>
		<g>
			<path class="st7" d="M567.6,278.2c0,0,104.6-30.5,114-26.1S730.2,366,730.2,366l-30,14.6L662,287.3c0,0-74.3,28.9-86.2,26.5
				S567.6,278.2,567.6,278.2z"/>
		</g>
		<g>
			<path class="st7" d="M611.8,275.1c1.5,0.5,58.8,19.3,62.8,26.7S671,441.7,671,441.7l-35.1,3.7l2.1-129.9l-62.8-1.6L611.8,275.1z"
				/>
		</g>
		<g>
			<path class="st6" d="M574.9,313.9c0.3,0,0.6,0,0.9-0.1l2.6-0.5c2.3-0.4,5.5-1.1,9.6-1.9c8.1-1.7,19.2-4.3,31.4-7.8
				c6.1-1.8,11.8-3.6,17-5.4s9.8-3.6,13.6-5.2c1.9-0.8,3.6-1.5,5.1-2.2s2.8-1.3,3.8-1.8l2.4-1.2c0.3-0.1,0.6-0.3,0.8-0.5
				c-0.3,0.1-0.6,0.2-0.9,0.3l-2.4,1.1c-1,0.5-2.3,1-3.8,1.7s-3.2,1.4-5.2,2.1c-3.8,1.6-8.5,3.2-13.6,5s-10.9,3.6-17,5.3
				c-12.1,3.5-23.2,6.2-31.3,8l-9.6,2.2l-2.6,0.6C575.5,313.7,575.2,313.7,574.9,313.9z"/>
		</g>
		<g>
			<path class="st6" d="M675.5,331.2c0.2-0.6,0.3-1.2,0.3-1.9c0.1-1.3,0.3-3,0.5-5.1c0.2-2.2,0.4-4.7,0.7-7.5c0.4-3.1,0.4-6.2,0-9.3
				c-0.6-3.1-2.3-5.9-4.7-8c-1.9-1.7-4.1-3.1-6.4-4.1c-1.6-0.7-3.1-1.3-4.8-1.9c-0.6-0.2-1.2-0.4-1.8-0.5c0,0.1,2.5,1,6.3,2.9
				c2.3,1.1,4.3,2.5,6.2,4.1c2.3,2,3.8,4.7,4.4,7.7c0.4,3,0.4,6.1,0,9.1c-0.2,2.8-0.4,5.3-0.5,7.5c-0.1,2-0.2,3.7-0.3,5.1
				C675.4,330,675.4,330.6,675.5,331.2z"/>
		</g>
		<g>
			<path class="st6" d="M679.2,110.8c0,0,8.8-1.7,21.4-13.2s18.8-27,20.4-26.9s8.2-2.7,19.9,24.8s6.6,33.7,4.1,33.6
				s-19.2-5.3-29.8-4.4s-24.3,6-24.3,6L679.2,110.8z"/>
		</g>
		<g>
			<path class="st5" d="M660.3,125.1l2.8,5.8l1.3,2.6c1.7,3.5,5.9,5.1,9.5,3.6l18.9-6l-10.2-25.2l-19,9.4
				C660,117.1,658.5,121.5,660.3,125.1z"/>
		</g>
		<g>
			<path class="st5" d="M670.8,134.5l5.6,11.9l3-0.7l19,16.4l5.8-10.5c0,0-11.4-5.3-13.4-9.5s0.5-5,0.5-5l-5.2-6.3L670.8,134.5z"/>
		</g>
		<g>
			<path class="st5" d="M739.9,96c6.2,14.9,8.6,28.1,5.3,29.5s-11-9.6-17.2-24.5s-8.6-28.1-5.3-29.5S733.7,81.1,739.9,96z"/>
		</g>
		<g>
			<polygon class="st6" points="658.4,133.2 663.5,131.8 660.6,125.7 656.7,128 			"/>
		</g>
		<g>
			<polygon class="st6" points="687.9,132.9 674,141.2 672.4,137.8 			"/>
		</g>
		<g>
			<polygon class="st6" points="660.6,125.7 663.5,131.8 662.5,132.1 660.1,126 			"/>
		</g>
		<g class="st15">
			<g>
				<path d="M692,129.1c0,0,3.6-1.2,3.5-1.2"/>
			</g>
		</g>
		<g>
			<path class="st6" d="M664,127.2c0.1,0.2,2.6-0.8,5.7-2s5.5-2.5,5.5-2.6s-2.6,0.8-5.7,2S664,127,664,127.2z"/>
		</g>
		<g>
			<path class="st6" d="M662.6,123.6c0.1,0.2,2.4-0.7,5.2-2s5-2.4,4.9-2.6s-2.4,0.7-5.2,2S662.5,123.4,662.6,123.6z"/>
		</g>
		<g>
			<path class="st6" d="M665.9,131c0,0.1,0.6,0,1.6-0.3c0.5-0.1,1.1-0.3,1.7-0.5s1.3-0.5,2-0.8c2.8-1.2,5-2.4,4.9-2.6
				s-2.4,0.8-5.2,2c-0.7,0.3-1.3,0.6-2,0.9s-1.2,0.4-1.6,0.6C666.8,130.4,666.3,130.7,665.9,131z"/>
		</g>
		<g>
			<path class="st6" d="M726.4,92.4c0,0,7.7-4.5,11.6,5.9s-4.2,11.8-4.2,11.8C730.5,104.6,728,98.6,726.4,92.4z"/>
		</g>
		<g>
			<path class="st5" d="M718.7,79.9c0,0.7,0.1,1.3,0.2,2c0.2,1.3,0.5,3.1,0.9,5.3l1,3.6l0.5,2c0.1,0.3,0.2,0.7,0.3,1.1
				s0.2,0.7,0.4,1.1l1.6,4.5l0.4,1.2c0.1,0.4,0.3,0.8,0.5,1.2l1.1,2.4l1.1,2.4c0.2,0.4,0.3,0.8,0.5,1.2s0.4,0.7,0.6,1.1l2.3,4.2
				c0.2,0.3,0.4,0.7,0.5,1s0.4,0.6,0.6,0.9l1.2,1.7l2.1,3.1c1.4,1.8,2.6,3.2,3.4,4.2c0.4,0.5,0.8,1,1.3,1.5
				c-0.3-0.6-0.7-1.1-1.1-1.7l-3.2-4.3l-2-3.1l-1.1-1.7c-0.2-0.3-0.4-0.6-0.6-0.9s-0.4-0.6-0.5-1l-2.3-4.2c-0.2-0.4-0.4-0.7-0.6-1.1
				s-0.3-0.8-0.5-1.1l-1.1-2.3l-1.1-2.3c-0.2-0.4-0.4-0.8-0.5-1.2l-0.4-1.2c-0.6-1.5-1.1-3-1.6-4.4c-0.1-0.4-0.3-0.7-0.4-1
				s-0.2-0.7-0.3-1l-0.6-2c-0.4-1.3-0.7-2.5-1-3.6c-0.5-2.2-0.8-4-1.1-5.3C719.1,81.2,718.9,80.6,718.7,79.9z"/>
		</g>
		<g>
			<path class="st11" d="M692.2,144c-0.3,1.7-0.2,3.5,0.2,5.2c0.1,0.6,0.5,1.3,1.1,1.2c0.3-0.1,0.6-0.3,0.7-0.6c0.6-0.9,0.9-1.9,1-3
				c-0.3,1.6-0.2,3.2,0.3,4.7c0.2,0.7,0.6,1.5,1.4,1.5s1.4-0.8,1.5-1.6c0-0.8,0.1-1.6,0.2-2.4c-0.2,1.6-0.2,3.1-0.1,4.7
				c0,0.5,0.1,1,0.3,1.4s0.6,0.8,1.1,0.8s1-0.3,1.2-0.8s0.4-1,0.4-1.5c0.2-1.7,0.3-3.5,0.4-5.2"/>
		</g>
		<g>
			<path class="st5" d="M636.5,163.4c0-0.3,0.9-0.4,2.2-1.1c1.8-1,3.3-2.5,4.3-4.3c0.7-1.2,1.1-2.6,1.3-3.9c0.2-1.6,0.1-3.2-0.3-4.8
				c-1-3.7-2.8-7.3-5.1-10.4c-2.4-3.5-5-6.9-6.8-10.5c-1.6-3.2-2.5-6.7-2.6-10.2c-0.1-2.4,0.2-4.7,0.9-7c0.5-1.6,1-2.4,1.2-2.3
				s0.2,1,0.1,2.5c-0.1,2.2,0,4.4,0.2,6.5c0.4,3.2,1.5,6.2,3,9c1.7,3.2,4.2,6.4,6.8,10s4.7,7.6,5.4,11.7c0.4,1.9,0.4,4,0,5.9
				c-0.3,1.7-1,3.3-2,4.7c-1.3,2.1-3.4,3.6-5.9,4.3C637.5,163.9,636.5,163.6,636.5,163.4z"/>
		</g>
		<g>
			<path class="st11" d="M619.8,161.5c0.2-4.9,0.4-9.5,0.4-9.5s9.9-1.3,10.3-11.4s-0.6-33.5-0.6-33.5l-18.3-8.8l-15.9,18.2
				l-0.2,44.5c0,6.7,5.4,12.2,12.1,12.2l0,0l0,0C614.2,173.3,619.6,168.1,619.8,161.5z"/>
		</g>
		<g>
			<path class="st5" d="M627.7,124.3c0,0.7-0.6,1.3-1.3,1.3s-1.3-0.6-1.3-1.3c0-0.7,0.6-1.2,1.2-1.3
				C627.1,123,627.7,123.6,627.7,124.3z"/>
		</g>
		<g>
			<path class="st5" d="M629.4,122.7c-0.2,0.2-1.1-0.6-2.5-0.7s-2.4,0.6-2.5,0.5s0.1-0.4,0.5-0.7c0.6-0.4,1.3-0.6,2-0.6
				s1.4,0.3,2,0.8C629.4,122.3,629.5,122.6,629.4,122.7z"/>
		</g>
		<g>
			<path class="st5" d="M613.1,124.3c0,0.7-0.6,1.3-1.3,1.3s-1.3-0.6-1.3-1.3c0-0.7,0.6-1.2,1.2-1.3
				C612.5,123,613.1,123.6,613.1,124.3z"/>
		</g>
		<g>
			<path class="st5" d="M614.3,123c-0.2,0.2-1.1-0.6-2.5-0.7s-2.4,0.6-2.5,0.5s0.1-0.4,0.5-0.7c1.2-0.9,2.9-0.8,4,0.2
				C614.3,122.6,614.4,122.9,614.3,123z"/>
		</g>
		<g>
			<path class="st5" d="M619.5,134.7c0.7-0.2,1.5-0.3,2.2-0.4c0.3,0,0.7-0.1,0.7-0.3c0-0.4,0-0.8-0.2-1.1l-1-2.9
				c-1.4-4.1-2.4-7.4-2.2-7.5c1.1,2.4,2,4.8,2.8,7.3l1,2.9c0.2,0.5,0.3,1,0.2,1.5c-0.1,0.3-0.3,0.5-0.6,0.5
				c-0.2,0.1-0.4,0.1-0.6,0.1C621,134.8,620.2,134.8,619.5,134.7z"/>
		</g>
		<g>
			<path class="st16" d="M620.2,152c-4.7-0.1-9.3-1.6-13.2-4.3c0,0,3.1,7.4,13,6.8L620.2,152z"/>
		</g>
		<g>
			<path class="st16" d="M619,138.2c-0.2-0.9-0.8-1.6-1.6-1.9c-0.6-0.3-1.2-0.3-1.8,0s-0.9,0.9-0.8,1.5c0.2,0.7,0.7,1.2,1.4,1.3
				s1.4,0.1,2-0.1c0.2,0,0.4-0.1,0.5-0.2C619,138.7,619,138.5,619,138.2"/>
		</g>
		<g>
			<path class="st5" d="M615.6,134.6c-0.1,0-0.3,0.4-0.2,1c0.2,1.8,1.7,3.2,3.5,3.3c0.7,0,1-0.2,1-0.3s-1.6-0.1-2.8-1.3
				S615.8,134.6,615.6,134.6z"/>
		</g>
		<g>
			<path class="st5" d="M630.7,105.9c-0.7,6.1-5.9,10.6-12,10.7c0.9-2,1.8-4,2.8-6.1c-2.4,2.8-5,5.8-8.3,7.5s-7.8,1.9-10.6-0.5
				c-0.9,2.5-0.9,5.2-1.8,7.8s-2.8,12.9-5.5,12.5c-2.4-0.4-4.1-10.8-4.8-13.2c-1.7-6.5,0.4-13.7,4.7-18.8c5.3-6.2,13.1-9.5,21.2-9
				c3.6,0.1,7,1.4,9.9,3.5c2.5,2,4.2,4.7,4.9,7.8"/>
		</g>
		<g>
			<path class="st5" d="M631.1,118.1c-1.4-1.2-2.4-2.8-2.8-4.5c-0.4-1.8-0.6-3.6-0.7-5.4c0-0.5,0-1.2,0.6-1.3s0.9,0.4,1.1,0.8
				c1.8,3.4,2.4,7.2,1.8,11l-0.3-0.3"/>
		</g>
		<g>
			<path class="st5" d="M591.2,112.7c-5.8,21.9-7.7,44.8-4.7,64.2c0.3,2-0.3,4.1,0.4,6c0.6,2,2.2,3.5,4.3,3.9c1.9,0.2,4-1,5.6,0
				c1.2,0.8,1.5,2.4,2.5,3.5c1.3,1.3,3.2,1.8,4.9,1.2s3.1-1.8,4.1-3.3c3.6-5.1,3.5-11.9,1.7-17.9s-4.8-11.5-6.6-17.4
				c-3.4-11.1-2.4-23-1.4-34.5l0.9-10.1"/>
		</g>
		<g>
			<path class="st11" d="M647.4,205.2c4.7-4.8,4.3-5.3,3.7-5.8c-1.7-1.3-8.7,8.2-8.3,5.3s9.8-10.5,7.9-11.8
				c-2.4-1.6-9.5,8.4-10.2,9.2s-1.8-0.1-1.2-0.8c0.9-1,10.2-11.7,7.8-13.3c-1.3-0.9-2.7,1.7-2.7,1.7s-8,10.7-9.1,9.9s3.4-7.2,5-9.3
				s1.4-3.7-0.1-3.7c-1,0-6.2,6.2-7.8,8.2s-5.9,7.8-6,3.2c0-0.1,0-0.1,0-0.2c0-4.6-1.6-8.1-2.7-8.8c-0.8-0.4-1.7-0.1-2.1,0.7
				c-0.2,0.3-0.2,0.7-0.1,1c0,0.2,0.1,0.4,0.2,0.6c0,0.1,0.1,0.2,0.1,0.3c0.3,1.5,0.5,3.1,0.5,4.7c0.1,1.4-0.1,2.8-0.6,4.1
				c-0.5,1.5-1,2.8-1.4,3.9l-0.7,0.8l-38.6,22v-18.4c0,0-21.3-0.9-22.1-0.3c-0.5,0.4-2,17.9,0,29.3c2.1,12.3,13.8,20.7,26.1,18.6
				c4.3-0.7,8.2-2.7,11.5-5.6l32.1-29.2l0.1,0.1l4.6-3.8l0.9-1.4l1.1-1C639.5,212.2,643.5,208.8,647.4,205.2z"/>
		</g>
		<g>
			<path class="st11" d="M253.2,212.9c0,0,17.6,38.5,18.7,40s23.1,15.5,23.1,15.5l21.4-1.2L292,241.6L271.5,201L253.2,212.9z"/>
		</g>
		<g>
			<path class="st5" d="M200.5,121.4c0.4,1.1-0.2,2.3-1.3,2.7c-0.5,0.2-1.1,0.2-1.6,0c-1.4-0.6-1.7-2.6-1.5-4.1s0.6-3.2-0.1-4.6
				c-0.7-1-1.6-1.8-2.5-2.5c-1.6-1.4-2.4-3.5-2.2-5.6s1.7-3.9,3.6-4.7c2-0.7,4.6-0.2,6-1.8c1.1-1.1,1-2.9,1.8-4.2
				c1.2-2.1,4-2.5,6.4-2.3s4.8,0.8,7.1,0.1c1.9-0.6,3.4-2,5.2-3c5.1-2.7,11.5-0.7,14.2,4.4c1.5,2.9,1.6,6.3,0.3,9.2
				c-0.6,1.5-1.7,2.7-3.1,3.4"/>
		</g>
		<g>
			<path class="st11" d="M202.8,162.1l22.6-1.8c0.1-2.6,0-12.8,0-12.8s9.4-1.5,9.5-10.9s-1.5-31-1.5-31l0,0
				c-10.9-4.7-23.4-3.1-32.8,4.1l-1.4,1.1L202.8,162.1z"/>
		</g>
		<g>
			<path class="st5" d="M230.2,121.6c-0.6-0.5-0.6-1.4-0.1-1.9c0.5-0.6,1.4-0.6,1.9-0.1s0.6,1.4,0.1,1.9
				C231.6,122.1,230.8,122.1,230.2,121.6L230.2,121.6z"/>
		</g>
		<g>
			<path class="st5" d="M233.5,119.7c-0.1,0.2-1.1-0.5-2.4-0.6s-2.2,0.7-2.4,0.5s0.1-0.4,0.5-0.7c1.1-0.8,2.7-0.8,3.8,0
				C233.4,119.3,233.6,119.6,233.5,119.7z"/>
		</g>
		<g>
			<path class="st5" d="M217.8,120.8c0.6,0.4,0.8,1.2,0.5,1.9c-0.4,0.6-1.2,0.8-1.9,0.5s-0.8-1.2-0.5-1.9l0,0
				C216.3,120.6,217.1,120.4,217.8,120.8C217.7,120.8,217.7,120.8,217.8,120.8z"/>
		</g>
		<g>
			<path class="st5" d="M219.4,120.8c-0.1,0.2-1.1-0.5-2.4-0.6s-2.2,0.7-2.4,0.5s0.1-0.4,0.5-0.7c0.6-0.4,1.2-0.6,1.9-0.6
				s1.3,0.2,1.9,0.6C219.4,120.4,219.5,120.7,219.4,120.8z"/>
		</g>
		<g>
			<path class="st5" d="M224.6,131.5c0.7-0.3,1.4-0.4,2.1-0.4c0.3,0,0.6-0.1,0.6-0.3c0-0.3-0.1-0.7-0.2-1l-1-2.6
				c-1.4-3.8-2.4-6.8-2.2-6.9s1.5,2.9,2.9,6.7l1,2.7c0.2,0.4,0.3,0.9,0.2,1.4c-0.1,0.3-0.3,0.5-0.6,0.5c-0.2,0-0.4,0.1-0.6,0.1
				C226.1,131.6,225.3,131.6,224.6,131.5z"/>
		</g>
		<g>
			<path class="st13" d="M220.4,132.9c2,0.9,4.2,1.5,6.3,1.9c-0.9,1.4-2.7,2-4.2,1.4C219.7,135.1,220.4,132.9,220.4,132.9z"/>
		</g>
		<g>
			<path class="st16" d="M225.4,147.4c-4.3,0.1-8.6-1.1-12.2-3.5c0,0,2.9,6.8,12.3,5.9L225.4,147.4z"/>
		</g>
		<g>
			<path class="st5" d="M233.6,108c0,0-5.5,3.2-13.2,0c-5-2.1-10.8-2.8-12-1.8s-1.1,6.1-5.8,7.9c0,0,1,9.5-2.8,9.5s-2.6-15-2.6-15
				l9-5.2l10-2.7l9.7,0.6l7.6,1.5L233.6,108z"/>
		</g>
		<g>
			<path class="st11" d="M200.3,120.6c-0.2-0.1-6.5-1.9-6.2,4.5c0.2,6.4,6.6,4.9,6.6,4.7S200.3,120.6,200.3,120.6z"/>
		</g>
		<g>
			<path class="st16" d="M198.7,127.4c0,0-0.1,0.1-0.3,0.2c-0.3,0.1-0.6,0.1-0.8,0c-0.9-0.5-1.4-1.4-1.4-2.4c0-0.5,0.1-1.1,0.3-1.6
				c0.1-0.4,0.4-0.7,0.8-0.9c0.3-0.1,0.5,0,0.7,0.3c0.1,0.2,0.1,0.3,0.1,0.3s0.1-0.1,0.1-0.4c0-0.2-0.1-0.3-0.3-0.4
				s-0.4-0.2-0.6-0.1c-0.5,0.1-1,0.5-1.1,1c-0.3,0.6-0.4,1.2-0.3,1.8c0,1.2,0.7,2.2,1.7,2.7c0.3,0.1,0.7,0,1-0.2
				C198.7,127.6,198.7,127.5,198.7,127.4z"/>
		</g>
		<g>
			<path class="st5" d="M196,100.7c-0.1-0.2,1-0.6,2.3-0.2s1.9,1.4,1.8,1.5s-0.9-0.5-2-0.8S196,100.9,196,100.7z"/>
		</g>
		<g>
			<path class="st5" d="M199.6,96.7c0.2,0,0.2,1.4,0.5,2.9s1,2.7,0.9,2.8s-1.2-0.9-1.5-2.6S199.5,96.6,199.6,96.7z"/>
		</g>
		<g>
			<path class="st5" d="M227.2,117.6c-0.2-0.3,1-1.3,2.8-1.4s3.1,0.8,3,1.2s-1.4,0.1-2.9,0.2S227.4,117.9,227.2,117.6z"/>
		</g>
		<g>
			<path class="st5" d="M212.8,116.4c-0.2-0.3,1-1.3,2.8-1.4s3.1,0.8,3,1.2s-1.4,0.1-2.9,0.2S213,116.7,212.8,116.4z"/>
		</g>
		<g>
			<path class="st17" d="M159.6,513.2l-2.2,9.4c0,0-15.4,20-20.1,19c-3.1-0.6,0.7-5.8,6.6-21l1.2-6.3L159.6,513.2z"/>
		</g>
		<g>
			<path class="st5" d="M136.6,538.7c0.2,0.3,0.5,0.6,0.8,0.8c1,0.4,2.1,0.3,2.9-0.4c2.7-2.3,5.3-4.7,7.6-7.2c2.9-3,5.2-5.9,6.9-8
				l2-2.5l0.5-0.7c0.1-0.2,0.2-0.2,0.2-0.2s0,0.1-0.1,0.3l-0.5,0.7c-0.4,0.6-1.1,1.5-1.9,2.6c-2.2,2.8-4.4,5.5-6.9,8
				c-2.4,2.6-5,5-7.7,7.2c-0.5,0.4-1.1,0.6-1.7,0.6c-0.5,0-0.9-0.1-1.4-0.3c-0.3-0.1-0.5-0.3-0.6-0.6
				C136.7,538.8,136.7,538.8,136.6,538.7z"/>
		</g>
		<g>
			<path class="st5" d="M138.8,532.3c0.4-0.2,0.8-0.2,1.3-0.1c1,0.1,2,0.4,2.9,1c0.9,0.5,1.6,1.3,2.1,2.2c0.2,0.4,0.3,0.8,0.3,1.2
				c-0.1,0-0.1-0.5-0.5-1.1c-0.5-0.9-1.2-1.6-2.1-2.1c-0.8-0.5-1.8-0.9-2.8-1C139.3,532.2,138.8,532.3,138.8,532.3z"/>
		</g>
		<g>
			<path class="st5" d="M153.4,527.6c-0.1-0.1-0.1-0.3-0.2-0.5c-0.1-0.4-0.2-0.9-0.3-1.3c-0.2-1.5,0-3,0.7-4.3s1.8-2.4,3.1-3
				c0.4-0.2,0.8-0.3,1.3-0.4c0.2,0,0.3,0,0.5,0c-0.6,0.2-1.1,0.4-1.7,0.6c-1.3,0.7-2.3,1.7-2.9,3c-0.7,1.3-0.9,2.7-0.8,4.1
				C153.2,526.9,153.4,527.6,153.4,527.6z"/>
		</g>
		<g class="st14">
			<g>
				<path d="M157.4,522.7l1.1-4.5c0,0-3.8,0.7-4.7,3.5c-0.6,1.5-0.8,3.2-0.7,4.8l-8.2,8.8c0,0-2.1-4-5.8-3c0,0-2.9,6.4-2.8,8.1
					c0.1,1.8,2,1.4,2.6,1.1c2.7-1.6,5.2-3.5,7.3-5.8C150.5,531.1,155.3,525.4,157.4,522.7z"/>
			</g>
		</g>
		<g>
			<path class="st17" d="M236.1,518l0.1-12.5l-23.5-0.3l-0.3,18.3l1.5,0.1c6.5,0.4,32.9,1.8,37.3,0.5C256,522.7,236.1,518,236.1,518
				z"/>
		</g>
		<g class="st14">
			<g>
				<path d="M220.9,523.4c-0.3-2-1.4-3.8-2.9-5c-1.5-1.3-3.5-1.9-5.5-1.8l-0.1,6.6L220.9,523.4z"/>
			</g>
		</g>
		<g class="st14">
			<g>
				<path d="M245.8,520.7c0,0,7,2.1,6.1,3.2s-27.7,0.8-39.5-0.4l0.1-0.5l31.3,0.7C243.7,523.7,244.4,520.7,245.8,520.7z"/>
			</g>
		</g>
		<g>
			<path class="st5" d="M212,523c0.1,0,0.3,0,0.4,0l1.2,0.1l4.3,0.2c3.6,0.2,8.6,0.3,14.1,0.4s10.5,0,14.1,0l4.3-0.1h1.2h0.4h-0.4
				h-1.2H246c-3.6,0-8.6,0-14.1,0s-10.5-0.2-14.1-0.3l-4.3-0.1h-1.2L212,523z"/>
		</g>
		<g>
			<path class="st5" d="M243.7,524c0.3-1.4,1.1-2.7,2.3-3.6C244.5,521,243.6,522.4,243.7,524z"/>
		</g>
		<g>
			<path class="st5" d="M212.6,516.5c0,0.1,0.7,0,1.7,0.1c1.4,0.2,2.7,0.7,3.8,1.6c1.1,0.9,1.9,2.1,2.3,3.4c0.4,1,0.4,1.7,0.4,1.7
				c0-0.2,0-0.3,0-0.5c0-0.4-0.1-0.9-0.2-1.3c-0.8-2.8-3.3-4.9-6.3-5.1c-0.4,0-0.9,0-1.3,0C212.9,516.5,212.7,516.5,212.6,516.5z"/>
		</g>
		<g>
			<polyline class="st7" points="252,269 241.1,512.6 204.5,513.4 210.6,309.4 169.4,514.9 134.7,514.9 181.1,269 			"/>
		</g>
		<g>
			<polygon class="st6" points="171.3,511.6 170.4,515.2 134.7,515.7 135.2,510.1 			"/>
		</g>
		<g>
			<path class="st6" d="M143.4,511.5c0.2,0,0.3,0.5,0.2,1s-0.3,1-0.5,0.9s-0.3-0.5-0.2-1S143.2,511.4,143.4,511.5z"/>
		</g>
		<g>
			<path class="st6" d="M144.8,503.5c0.2,0,0.2,1,0,2s-0.5,2-0.7,1.9s-0.2-1,0-2S144.6,503.4,144.8,503.5z"/>
		</g>
		<g>
			<path class="st6" d="M146.1,495.5c0.2,0,0.2,1,0,2s-0.5,2-0.7,1.9s-0.2-1,0-2S145.9,495.5,146.1,495.5z"/>
		</g>
		<g>
			<path class="st6" d="M147.4,487.5c0.2,0,0.2,1,0,2s-0.5,2-0.7,1.9s-0.2-1,0-2S147.3,487.5,147.4,487.5z"/>
		</g>
		<g>
			<path class="st6" d="M148.8,479.5c0.2,0,0.2,1,0,2s-0.5,2-0.7,1.9s-0.2-1,0-2S148.6,479.5,148.8,479.5z"/>
		</g>
		<g>
			<path class="st6" d="M150.1,471.5c0.2,0,0.2,1,0,2s-0.5,2-0.7,1.9s-0.2-1,0-2S150,471.5,150.1,471.5z"/>
		</g>
		<g>
			<path class="st6" d="M151.5,463.6c0.2,0,0.2,1,0,2s-0.5,2-0.7,1.9s-0.2-1,0-2S151.3,463.5,151.5,463.6z"/>
		</g>
		<g>
			<path class="st6" d="M152.8,455.6c0.2,0,0.2,1,0,2s-0.5,2-0.7,1.9s-0.2-1,0-2S152.7,455.6,152.8,455.6z"/>
		</g>
		<g>
			<path class="st6" d="M154.2,447.6c0.2,0,0.2,1,0,2s-0.5,2-0.7,1.9s-0.2-1,0-2S154,447.6,154.2,447.6z"/>
		</g>
		<g>
			<path class="st6" d="M155.6,439.6c0.2,0,0.2,1,0,2s-0.5,2-0.7,1.9s-0.2-1,0-2S155.4,439.6,155.6,439.6z"/>
		</g>
		<g>
			<path class="st6" d="M156.9,431.6c0.2,0,0.2,1,0,2.1s-0.5,2-0.7,1.9s-0.2-1,0-2S156.8,431.6,156.9,431.6z"/>
		</g>
		<g>
			<path class="st6" d="M158.3,423.7c0.2,0,0.2,1,0,2s-0.5,2-0.7,1.9s-0.2-1,0-2.1S158.1,423.6,158.3,423.7z"/>
		</g>
		<g>
			<path class="st6" d="M159.7,415.7c0.2,0,0.2,1,0,2.1s-0.5,2-0.7,1.9s-0.2-1,0-2S159.5,415.7,159.7,415.7z"/>
		</g>
		<g>
			<path class="st6" d="M161.1,407.7c0.2,0,0.2,1,0,2s-0.5,2-0.7,1.9s-0.2-1,0-2.1S160.9,407.7,161.1,407.7z"/>
		</g>
		<g>
			<path class="st6" d="M162.5,399.8c0.2,0,0.2,1,0,2s-0.5,2-0.7,1.9s-0.2-1,0-2S162.3,399.7,162.5,399.8z"/>
		</g>
		<g>
			<path class="st6" d="M163.9,391.8c0.2,0,0.2,1,0,2s-0.5,2-0.7,1.9s-0.2-1,0-2S163.7,391.8,163.9,391.8z"/>
		</g>
		<g>
			<path class="st6" d="M165.3,383.8c0.2,0,0.2,1,0,2s-0.5,2-0.7,1.9s-0.2-1,0-2S165.1,383.8,165.3,383.8z"/>
		</g>
		<g>
			<path class="st6" d="M166.8,375.9c0.2,0,0.2,1,0,2.1s-0.5,2-0.7,1.9s-0.2-1,0-2.1S166.6,375.8,166.8,375.9z"/>
		</g>
		<g>
			<path class="st6" d="M168.2,367.9c0.2,0,0.2,1,0,2s-0.5,2-0.7,1.9s-0.2-1,0-2S168,367.9,168.2,367.9z"/>
		</g>
		<g>
			<path class="st6" d="M169.6,359.9c0.2,0,0.2,1,0,2s-0.5,2-0.7,1.9s-0.2-1,0-2S169.5,359.9,169.6,359.9z"/>
		</g>
		<g>
			<path class="st6" d="M171.1,352c0.2,0,0.2,1,0,2s-0.5,2-0.7,1.9s-0.2-1,0-2.1S170.9,351.9,171.1,352z"/>
		</g>
		<g>
			<path class="st6" d="M172.6,344c0.2,0,0.2,1,0,2s-0.5,2-0.7,1.9s-0.2-1,0-2S172.4,344,172.6,344z"/>
		</g>
		<g>
			<path class="st6" d="M174.1,336.1c0.2,0,0.2,1,0,2s-0.5,2-0.7,1.9s-0.2-1,0-2S173.9,336,174.1,336.1z"/>
		</g>
		<g>
			<path class="st6" d="M175.6,328.1c0.2,0,0.2,1,0,2.1s-0.5,2-0.7,1.9s-0.2-1,0-2S175.4,328.1,175.6,328.1z"/>
		</g>
		<g>
			<path class="st6" d="M177.1,320.1c0.2,0,0.2,1,0,2.1s-0.5,2-0.7,1.9s-0.2-1,0-2S176.9,320.1,177.1,320.1z"/>
		</g>
		<g>
			<path class="st6" d="M178.7,312.2c0.2,0,0.2,1,0,2s-0.5,2-0.7,1.9s-0.2-1,0-2S178.5,312.2,178.7,312.2z"/>
		</g>
		<g>
			<path class="st6" d="M180.2,304.3c0.2,0,0.2,1-0.1,2s-0.5,2-0.7,1.9s-0.2-1,0.1-2S180.1,304.2,180.2,304.3z"/>
		</g>
		<g>
			<path class="st6" d="M181.8,296.3c0.2,0,0.2,1-0.1,2s-0.6,2-0.7,1.9s-0.2-1,0.1-2.1S181.6,296.3,181.8,296.3z"/>
		</g>
		<g>
			<path class="st6" d="M183.4,288.4c0.2,0,0.2,1-0.1,2.1s-0.6,2-0.7,1.9s-0.2-1,0.1-2S183.2,288.4,183.4,288.4z"/>
		</g>
		<g>
			<path class="st6" d="M185,280.5c0.2,0,0.2,1-0.1,2s-0.6,2-0.8,1.9s-0.1-1,0.1-2.1S184.9,280.4,185,280.5z"/>
		</g>
		<g>
			<path class="st6" d="M186.3,274.5c0.2,0,0.2,0.5,0.1,1s-0.4,1-0.5,0.9s-0.2-0.5-0.1-1S186.1,274.5,186.3,274.5z"/>
		</g>
		<g>
			<path class="st6" d="M210.8,511.4c0.2,0,0.3,0.5,0.3,1c0,0.5-0.2,1-0.4,1s-0.3-0.5-0.3-1S210.6,511.4,210.8,511.4z"/>
		</g>
		<g>
			<path class="st6" d="M211.1,503.3c0.2,0,0.3,0.9,0.3,2s-0.2,2-0.4,2s-0.3-0.9-0.3-2S211,503.3,211.1,503.3z"/>
		</g>
		<g>
			<path class="st6" d="M211.4,495.2c0.2,0,0.3,0.9,0.3,2s-0.2,2-0.4,2s-0.3-0.9-0.3-2S211.2,495.2,211.4,495.2z"/>
		</g>
		<g>
			<path class="st6" d="M211.6,487.1c0.2,0,0.3,0.9,0.3,2s-0.2,2-0.4,2s-0.3-0.9-0.3-2S211.4,487,211.6,487.1z"/>
		</g>
		<g>
			<path class="st6" d="M211.8,478.9c0.2,0,0.3,0.9,0.3,2s-0.2,2-0.4,2s-0.3-0.9-0.3-2S211.6,478.9,211.8,478.9z"/>
		</g>
		<g>
			<path class="st6" d="M212,470.8c0.2,0,0.3,0.9,0.3,2s-0.2,2-0.4,2s-0.3-0.9-0.3-2S211.8,470.8,212,470.8z"/>
		</g>
		<g>
			<path class="st6" d="M212.3,462.7c0.2,0,0.3,0.9,0.3,2s-0.2,2-0.4,2s-0.3-0.9-0.3-2S212.1,462.7,212.3,462.7z"/>
		</g>
		<g>
			<path class="st6" d="M212.6,454.6c0.2,0,0.3,0.9,0.3,2s-0.2,2-0.4,2s-0.3-0.9-0.3-2S212.4,454.5,212.6,454.6z"/>
		</g>
		<g>
			<path class="st6" d="M212.9,446.4c0.2,0,0.3,0.9,0.3,2s-0.2,2-0.4,2s-0.3-0.9-0.3-2S212.8,446.4,212.9,446.4z"/>
		</g>
		<g>
			<path class="st6" d="M213.2,438.3c0.2,0,0.3,0.9,0.3,2s-0.2,2-0.4,2s-0.3-0.9-0.3-2S213,438.3,213.2,438.3z"/>
		</g>
		<g>
			<path class="st6" d="M213.5,430.2c0.2,0,0.3,0.9,0.3,2s-0.2,2-0.4,2s-0.3-0.9-0.3-2S213.3,430.2,213.5,430.2z"/>
		</g>
		<g>
			<path class="st6" d="M213.7,422.1c0.2,0,0.3,0.9,0.3,2s-0.2,2-0.4,2s-0.3-0.9-0.3-2S213.5,422.1,213.7,422.1z"/>
		</g>
		<g>
			<path class="st6" d="M213.9,413.9c0.2,0,0.3,0.9,0.3,2s-0.2,2-0.4,2s-0.3-0.9-0.3-2S213.7,413.9,213.9,413.9z"/>
		</g>
		<g>
			<path class="st6" d="M214,405.8c0.2,0,0.3,0.9,0.3,2s-0.2,2-0.4,2s-0.3-0.9-0.3-2S213.8,405.8,214,405.8z"/>
		</g>
		<g>
			<path class="st6" d="M214.1,397.7c0.2,0,0.3,0.9,0.3,2s-0.2,2-0.4,2s-0.3-0.9-0.3-2S213.9,397.7,214.1,397.7z"/>
		</g>
		<g>
			<path class="st6" d="M214.1,389.6c0.2,0,0.3,0.9,0.3,2s-0.2,2-0.4,2s-0.3-0.9-0.3-2S214,389.6,214.1,389.6z"/>
		</g>
		<g>
			<path class="st6" d="M214.2,381.4c0.2,0,0.3,0.9,0.3,2s-0.1,2-0.4,2s-0.3-0.9-0.3-2S214,381.4,214.2,381.4z"/>
		</g>
		<g>
			<path class="st6" d="M214.1,373.3c0.2,0,0.3,0.9,0.4,2s-0.1,2-0.3,2s-0.4-0.9-0.4-2S214,373.3,214.1,373.3z"/>
		</g>
		<g>
			<path class="st6" d="M214.1,365.2c0.2,0,0.4,0.9,0.4,2s-0.1,2-0.3,2s-0.4-0.9-0.4-2S213.9,365.2,214.1,365.2z"/>
		</g>
		<g>
			<path class="st6" d="M214,357.1c0.2,0,0.4,0.9,0.4,2s-0.1,2-0.3,2s-0.4-0.9-0.4-2S213.8,357.1,214,357.1z"/>
		</g>
		<g>
			<path class="st6" d="M213.8,348.9c0.2,0,0.4,0.9,0.4,2s-0.1,2-0.3,2s-0.4-0.9-0.4-2S213.6,348.9,213.8,348.9z"/>
		</g>
		<g>
			<path class="st6" d="M213.6,340.8c0.2,0,0.4,0.9,0.4,2s-0.1,2-0.3,2s-0.4-0.9-0.4-2S213.5,340.8,213.6,340.8z"/>
		</g>
		<g>
			<path class="st6" d="M213.4,332.7c0.2,0,0.4,0.9,0.4,2s-0.1,2-0.3,2s-0.4-0.9-0.4-2S213.2,332.7,213.4,332.7z"/>
		</g>
		<g>
			<path class="st6" d="M212.9,324.6c0.2,0,0.4,0.9,0.5,2s0,2-0.2,2s-0.4-0.9-0.5-2S212.7,324.6,212.9,324.6z"/>
		</g>
		<g>
			<path class="st6" d="M212.1,316.5c0.2,0,0.4,0.9,0.6,2s0.1,2-0.1,2.1s-0.4-0.9-0.6-2S212,316.5,212.1,316.5z"/>
		</g>
		<g>
			<path class="st6" d="M211.4,310.5c0.2,0,0.4,0.4,0.5,0.9s0,1-0.2,1s-0.4-0.4-0.5-0.9S211.2,310.5,211.4,310.5z"/>
		</g>
		<g>
			<polygon class="st6" points="242,513.8 203.4,514.4 203.7,508 242,508.2 			"/>
		</g>
		<g>
			<path class="st6" d="M216.7,272.1c0.1,0.5,0.1,1,0,1.5c0,1.1-0.1,2.5-0.1,4.1c-0.1,3.5-0.4,8.2-0.7,13.5
				c-0.2,2.6-0.3,5.1-0.5,7.4s-0.2,4.4-0.9,6.1c-0.5,1.4-1.5,2.4-2.8,3c-0.4,0.1-0.7,0.2-1.1,0.2c-0.3,0-0.4,0-0.4-0.1
				c0.5-0.1,1-0.2,1.4-0.4c1.2-0.6,2.1-1.7,2.5-2.9c0.5-1.9,0.7-3.9,0.7-5.9c0.1-2.3,0.3-4.8,0.4-7.4c0.3-5.3,0.7-10,0.9-13.5
				c0.1-1.6,0.3-3,0.4-4.1C216.4,273.1,216.5,272.6,216.7,272.1z"/>
		</g>
		<g>
			<path class="st6" d="M212.9,275.3c0-0.1,0.6,0,0.8,0.8c0.1,0.5,0,1-0.3,1.4c-0.4,0.5-1.1,0.6-1.7,0.3c-0.6-0.2-1-0.8-1-1.4
				c0-0.5,0.3-0.9,0.7-1.2c0.7-0.4,1.2-0.1,1.2,0s-0.5,0-0.9,0.4c-0.2,0.2-0.4,0.5-0.4,0.8c0.1,0.5,0.6,0.9,1.2,0.8
				c0.1,0,0.3-0.1,0.4-0.2c0.2-0.2,0.3-0.5,0.3-0.8C213.2,275.6,212.9,275.4,212.9,275.3z"/>
		</g>
		<g>
			<path class="st6" d="M178.5,281.1c0-0.1,1.2,0.4,3.1,0.7c5.1,0.8,10.3-1.5,13.1-5.9c1.1-1.6,1.5-2.8,1.6-2.8
				c-0.2,1.1-0.6,2.1-1.2,3c-2.8,4.7-8.2,7.2-13.6,6.1C180.5,282.1,179.4,281.7,178.5,281.1z"/>
		</g>
		<g>
			<path class="st6" d="M239.3,272.1c0.1,0,0.1,1,0.6,2.5c1.2,4,4.6,7,8.7,7.6c1.6,0.3,2.6,0.2,2.6,0.3c-0.8,0.3-1.7,0.4-2.6,0.2
				c-4.4-0.4-8.1-3.7-9.1-8C239.2,273.9,239.1,273,239.3,272.1z"/>
		</g>
		<g>
			<path class="st6" d="M259.9,277.7l-78.7-5.3l0.9-38.8l0.1-28.1l-8.8,12.9L149.9,194l26.1-25.1l0,0c4.4-4.6,9.9-8.1,15.9-10.3
				c3.2-1.2,6.6-1.8,10-1.9l0,0c7.8,2.5,16.2,2.5,24.1,0c1,0.1,2.3,0.2,4,0.4c10.5,1.2,20.2,5.9,27.7,13.3l25.1,36.5l-28.3,14.7
				l-3.4-11.4C251.2,210.3,260,269.9,259.9,277.7z"/>
		</g>
		<g>
			<path class="st5" d="M181.3,206.9c-0.2-0.1,1-2.2,2.5-4.6s3-4.4,3.1-4.2s-1,2.2-2.5,4.6S181.5,207,181.3,206.9z"/>
		</g>
		<g>
			<polygon class="st9" points="259.9,337.9 102.7,308 113.8,250.9 271.1,280.8 284.1,312.3 			"/>
		</g>
		<g>
			<polygon class="st10" points="259.9,337.9 102.7,308 113.8,250.9 271.1,280.8 284.1,312.3 			"/>
		</g>
		<g>
			<polygon class="st8" points="257.8,332.8 103.9,302.7 115.1,245.6 269,275.7 281.9,307.2 			"/>
		</g>
		<g>
			<path class="st13" d="M164,278l-9.6,14.5l-2.2-0.4l-4.1-16.9l2.4,0.4l3.4,13.9l8-11.9L164,278z"/>
		</g>
		<g>
			<path class="st13" d="M173.4,291.8l-8.3-1.5l-2.4,3.6l-2.3-0.4l9.9-14.5l2.2,0.4l4.4,17l-2.4-0.4L173.4,291.8z M173,289.9l-2-8.3
				l-4.7,7.1L173,289.9z"/>
		</g>
		<g>
			<path class="st13" d="M179,288.8c0.8-4.6,4.9-7.4,9.7-6.6c2.3,0.3,4.3,1.6,5.5,3.5l-1.7,1.2c-0.9-1.4-2.4-2.4-4.1-2.6
				c-3.3-0.7-6.6,1.4-7.3,4.7c-0.7,3.3,1.4,6.6,4.7,7.3c0.1,0,0.3,0.1,0.4,0.1c1.7,0.3,3.4-0.1,4.8-1.1l1.2,1.7
				c-1.8,1.4-4.2,1.9-6.4,1.4c-4.4-0.6-7.5-4.6-7-9C178.9,289.1,179,288.9,179,288.8z"/>
		</g>
		<g>
			<path class="st13" d="M205.5,297.4l-8.4-1.4l-2.4,3.6l-2.3-0.4l9.9-14.5l2.2,0.4l4.4,17l-2.4-0.4L205.5,297.4z M205,295.5l-2-8.3
				l-4.7,7.1L205,295.5z"/>
		</g>
		<g>
			<path class="st13" d="M227.4,289.1l-2.7,15.7l-1.8-0.3l-7.4-13.4l-2.1,11.7l-2.2-0.4l2.7-15.7l1.8,0.3l7.4,13.4l2.1-11.7
				L227.4,289.1z"/>
		</g>
		<g>
			<path class="st13" d="M234.9,292.5l-5.4-0.9l0.3-2l13,2.3l-0.3,2l-5.4-0.9l-2.4,13.8l-2.2-0.4L234.9,292.5z"/>
		</g>
		<g>
			<path class="st11" d="M140.5,282.5l1.5,3.7c0.6,2.2,1.4,4.3,2.4,6.3c0.5,1,1.2,1.9,2,2.7c1,1,2.1,1.9,3.3,2.6
				c0.7,0.3,1,1,0.8,1.7c-0.1,0.4-0.5,0.7-0.8,0.8c-1.1,0.2-4.4-1.2-7.1-4.4s-2.6,3.4-2.6,5.8s-0.4,9.8-1.1,10.3
				c-1.1,0.9-2.2-0.1-2.1-2.5s-0.3-9.5-1.5-9.5s-1.1,12.2-1.1,12.2s0.5,2.6-1,2.7c-2.6,0.2-1.8-12.7-1.7-13.9
				c0.1-0.9-1.3-0.8-1.3,0.1s0.4,12.1-2.2,12.3c-2,0.2,0.5-10.6-0.8-12.9s-1.1,8.4-3.1,8.5c-0.7,0-1.3,0-0.6-6.2s5.6-23,5.6-23
				l11.7,2.8"/>
		</g>
		<g>
			<path class="st11" d="M169.6,215.1c0,0-16.5,13.6-17.6,18.3s-9,56.5-9,56.5l-16.1-2.4c0,0,0.8-64.4,6.5-70.6
				c5.7-6.3,19.7-20.9,19.7-20.9L169.6,215.1z"/>
		</g>
		<g>
			<path class="st16" d="M134.5,223.7c0,0-0.2-0.1-0.5-0.5c-0.3-0.6-0.5-1.2-0.4-1.9c0.1-1,0.6-1.9,1.5-2.5c1-0.7,2.4-0.8,3.5-0.2
				c0.6,0.3,1,0.8,1.2,1.5c0.2,0.6,0.1,1.2-0.1,1.8c-0.5,1-1.7,1.3-2.6,0.8c0,0-0.1,0-0.1-0.1c-0.6-0.4-0.8-1.2-0.6-1.9
				c0.2-0.5,0.5-0.6,0.5-0.5s-0.2,0.2-0.3,0.6c-0.1,0.6,0.1,1.1,0.6,1.5c0.7,0.4,1.6,0.1,2-0.7c0.2-0.4,0.2-0.9,0.1-1.4
				c-0.2-0.5-0.5-0.9-1-1.2c-1.5-0.7-3.3-0.2-4,1.3c-0.1,0.3-0.2,0.6-0.3,0.9C134,222.1,134.1,222.9,134.5,223.7z"/>
		</g>
		<g>
			<path class="st11" d="M303,267.1c0,0,15.1-5.3,16.1-4.5c0.6,0.5,2.5,4.2,3.9,6.9c0.5,1.1,0.1,2.4-1,2.9c-0.3,0.1-0.6,0.2-1,0.2
				l0,0c-0.8,0-1.5-0.4-1.9-1.1l-2.5-4.5L303,267.1z"/>
		</g>
		<g>
			<path class="st11" d="M309,267.1c0,0,15.1-5.3,16.1-4.5c0.6,0.5,2.5,4.2,3.9,6.9c0.5,1.1,0.1,2.4-1,2.9c-0.3,0.1-0.6,0.2-1,0.2
				l0,0c-0.8,0-1.5-0.4-1.9-1.1l-2.5-4.5L309,267.1z"/>
		</g>
		<g>
			<path class="st11" d="M314.9,267.1c0,0,15.1-5.3,16.1-4.5c0.6,0.5,2.5,4.2,3.9,6.9c0.5,1.1,0.1,2.4-1,2.9c-0.3,0.1-0.6,0.2-1,0.2
				l0,0c-0.8,0-1.5-0.4-1.9-1.1l-2.5-4.5L314.9,267.1z"/>
		</g>
		<g>
			<path class="st16" d="M322.7,269c-0.6-0.8-1-1.6-1.3-2.5c-0.4-0.9-0.8-1.8-1.4-2.6c-0.3-0.4-0.7-0.8-1.2-0.9
				c-0.6,0-1.2,0.1-1.7,0.4c-5.2,1.5-8.8,3.8-9,3.6c0.7-0.7,1.5-1.2,2.4-1.6c2-1.1,4.2-2,6.4-2.6c0.6-0.3,1.4-0.4,2.1-0.4
				c0.7,0.2,1.2,0.6,1.6,1.2c0.6,0.9,1,1.8,1.4,2.8C322.2,267.2,322.5,268.1,322.7,269z"/>
		</g>
		<g>
			<path class="st16" d="M328.3,268.7c-0.1,0-0.3-0.6-0.8-1.6c-0.6-1.3-1.3-2.5-2.1-3.7c-0.4-0.6-1.1-0.8-1.8-0.7
				c-0.6,0.1-1.2,0.3-1.8,0.5c-1.1,0.4-1.8,0.3-1.8,0.2s0.7-0.1,1.6-0.6c0.6-0.3,1.2-0.5,1.9-0.6c0.4-0.1,0.9-0.1,1.3,0.1
				c0.5,0.2,0.8,0.4,1.1,0.8C328,265.9,328.5,268.6,328.3,268.7z"/>
		</g>
		<g>
			<path class="st16" d="M334.2,268.7c-0.1,0-0.3-0.6-0.8-1.6c-0.6-1.3-1.3-2.5-2.1-3.7c-0.4-0.6-1.1-0.8-1.8-0.7
				c-0.6,0.1-1.2,0.3-1.8,0.5c-1.1,0.4-1.9,0.3-1.8,0.2s0.7-0.1,1.6-0.6c0.6-0.3,1.2-0.5,1.9-0.6c0.4-0.1,0.9-0.1,1.3,0.1
				c0.5,0.2,0.9,0.4,1.1,0.8C333.9,265.9,334.5,268.6,334.2,268.7z"/>
		</g>
		<g>
			<path class="st8" d="M529.3,115.6c2.6-1.1,4.2-3.7,4.2-6.5c0.2-3.7-2.6-6.8-6.2-7c-3.7-0.2-6.8,2.6-7,6.2c0,0.2,0,0.5,0,0.7
				c-0.1,2.9,1.6,5.5,4.2,6.6c-10.2,1.5-9.7,12.6-9.7,12.6l24.1,0.1C538.9,128.4,539.4,117.2,529.3,115.6z"/>
		</g>
		<g>
			<path class="st7" d="M518,112.9c0-0.1,0.5,0,1.5-0.3c1.3-0.4,2.4-1.1,3.3-2.2c2-2.5,1.5-6.2-1-8.2s-6.2-1.5-8.2,1
				c-1.6,2-1.6,4.9-0.1,7c0.8,1.1,1.9,1.9,3.2,2.3C517.4,112.8,518,112.8,518,112.9c-0.1,0-0.3,0-0.4,0c-0.4,0-0.8,0-1.1-0.1
				c-1.4-0.3-2.6-1.1-3.5-2.3c-1.3-1.7-1.6-4-0.9-6.1c1.3-3.3,5-5,8.3-3.7c1.8,0.7,3.2,2.1,3.8,4c0.7,2.1,0.3,4.3-1.1,6
				c-0.9,1.1-2.2,1.9-3.6,2.2c-0.4,0.1-0.8,0.1-1.1,0.1C518.2,112.9,518,112.9,518,112.9z"/>
			<path class="st7" d="M518.1,113.4L518.1,113.4c-0.2,0-0.4,0-0.5,0l0,0c-0.4,0-0.8,0-1.2-0.1c-1.5-0.4-2.8-1.2-3.8-2.5
				c-1.4-1.9-1.8-4.3-0.9-6.6c1.4-3.6,5.4-5.4,8.9-4c2,0.7,3.5,2.3,4.1,4.3c0.7,2.2,0.3,4.7-1.2,6.5c-1,1.2-2.4,2-3.9,2.3
				c-0.4,0.1-0.8,0.1-1.2,0.1C518.3,113.4,518.2,113.4,518.1,113.4z M518.1,101.5c-1.6,0-3.2,0.7-4.2,2.1c-1.5,1.9-1.5,4.4-0.1,6.4
				c0.7,1,1.7,1.8,2.9,2.1c0.5,0.1,0.9,0.2,1.1,0.3c0.1,0,0.1,0,0.2,0c0.1,0,0.1,0,0.1,0c0.2,0,0.6-0.1,1.2-0.2c1.2-0.3,2.3-1,3-2
				c1.8-2.3,1.4-5.7-0.9-7.5C520.4,101.9,519.3,101.5,518.1,101.5z"/>
		</g>
		<g>
			<path class="st7" d="M509.3,118.4c-0.2-0.1,0.9-1.7,2.3-3.6c1.4-1.9,2.7-3.3,2.8-3.2s-0.9,1.7-2.3,3.6S509.5,118.5,509.3,118.4z"
				/>
			<path class="st7" d="M509.2,118.9l-0.2-0.1l0,0l-0.2-0.1l-0.1-0.2c0-0.2-0.1-0.6,2.4-4c2.5-3.3,3-3.4,3.1-3.4h0.2l0.2,0.1
				c0.3,0.3,0.6,0.5-2.2,4.3C510.8,117.7,509.7,118.8,509.2,118.9L509.2,118.9z"/>
		</g>
		<g>
			<path class="st7" d="M552,128.3c0,0,0.2,0.2,0.5,0.7l1.5,2.1c1.3,1.9,3.1,4.6,5.5,8c0,0.1,0,0.2-0.1,0.2h-0.1H544
				c-0.1,0-0.2-0.1-0.2-0.2V139l0,0l0.3,0.3c-4.1,3.8-9.2,6.4-14.6,7.7c-6.5,1.5-13.2,1-19.4-1.4c-3.4-1.3-6.5-3.2-9.3-5.4
				c-2.9-2.4-5.4-5.3-7.3-8.6c-9.1-15.8-3.6-36,12.2-45c15.2-8.7,34.6-4,44.1,10.7c2.4,3.8,4,8.1,4.7,12.6c0.1,0.5,0.1,1,0.2,1.5
				s0.1,1,0.1,1.4c0,0.9,0.1,1.8,0.1,2.7c0,1.6-0.2,3.1-0.4,4.6c-0.3,2.1-0.9,4.2-1.7,6.2c-0.3,0.7-0.5,1.2-0.7,1.5
				C552.2,127.9,552.1,128.1,552,128.3c0.1-0.2,0.1-0.4,0.2-0.5c0.1-0.4,0.3-0.9,0.6-1.6c1.2-3.5,1.9-7.1,1.9-10.8
				c0-0.8-0.1-1.7-0.1-2.6c0-0.4,0-0.9-0.1-1.4s-0.2-1-0.2-1.4c-2.7-17.7-19.2-29.9-36.9-27.3c-17.7,2.7-29.9,19.2-27.3,36.9
				c0.6,4.1,2,8.1,4.2,11.7c1.9,3.2,4.3,6.1,7.1,8.5c2.7,2.3,5.8,4.1,9.1,5.4c3.1,1.2,6.4,2,9.7,2.1c3.1,0.2,6.2,0,9.3-0.7
				c5.3-1.3,10.3-3.8,14.4-7.5c0.1-0.1,0.2-0.1,0.3,0s0.1,0.2,0,0.3l0,0l-0.3-0.3c0.2-0.1,0.5-0.1,0.7-0.1h3.8h4l7,0.1l-0.1,0.2
				c-2.3-3.5-4.1-6.3-5.4-8.2l-1.4-2.1C552.1,128.5,552,128.3,552,128.3z"/>
			<path class="st7" d="M522.2,148.3c-4.1,0-8.2-0.8-12.1-2.3c-3.4-1.3-6.6-3.2-9.4-5.5c-3-2.5-5.4-5.4-7.4-8.8
				c-9.2-16-3.6-36.5,12.4-45.7c15.5-8.9,35.1-4.1,44.8,10.9c2.5,3.9,4.1,8.2,4.7,12.8v0.2c0.1,0.4,0.1,0.9,0.2,1.3
				c0,0.3,0.1,0.7,0.1,1c0,0.2,0,0.3,0,0.4c0,0.4,0,0.8,0,1.2c0,0.5,0.1,1,0,1.5c0,1.6-0.2,3.2-0.4,4.7c-0.4,2.2-0.9,4.3-1.7,6.3
				c-0.3,0.8-0.5,1.3-0.7,1.6c0,0.1-0.1,0.2-0.1,0.3c0.1,0.1,0.2,0.3,0.3,0.5l1.5,2.1c0.6,0.9,1.4,2.1,2.3,3.4l2.9,4.3h0.5l-0.3,0.5
				c0.1,0.3,0,0.6-0.3,0.8l-0.2,0.1l-0.2,0.4l-0.2-0.3h-14.6l-0.1,0.2l-0.1-0.1c-4.1,3.7-9.2,6.3-14.6,7.5
				C527.2,148,524.7,148.3,522.2,148.3z M522.3,82.8c-1.6,0-3.2,0.1-4.8,0.4c-17.4,2.6-29.5,18.9-26.9,36.3c0.6,4.1,2,8,4.1,11.5
				c1.8,3.2,4.2,6,7,8.3c2.7,2.2,5.7,4,8.9,5.3c3.1,1.2,6.3,1.9,9.6,2.1c3.1,0.2,6.2,0,9.2-0.7c5.1-1.2,9.8-3.6,13.7-7l-0.3-0.2
				l0.5-0.2l0.1-0.4l0.4,0.3c0,0,0,0,0.1,0c0.2,0,0.4-0.1,0.6,0h7.7l5.8,0.1c-1.4-2.1-2.5-3.8-3.5-5.3l-2.6-3.9l0,0l-1.5,2.6l1-3.8
				c0.1-0.2,0.1-0.4,0.2-0.6c0.1-0.3,0.3-0.8,0.6-1.5c1.2-3.4,1.9-7,1.9-10.6c0-0.6,0-1.1-0.1-1.7v-0.9c0-0.4,0-0.9-0.1-1.3
				c-0.1-0.3-0.1-0.7-0.2-1c0-0.2,0-0.3-0.1-0.5c-1.3-8.4-5.7-15.9-12.6-21C535.6,84.9,529.1,82.8,522.3,82.8z"/>
		</g>
	</g>
</g>
</svg>
