<?xml version="1.0" encoding="utf-8"?>
<!-- Generator: Adobe Illustrator 25.2.3, SVG Export Plug-In . SVG Version: 6.00 Build 0)  -->
<svg version="1.1" id="Layer_1" xmlns="http://www.w3.org/2000/svg" xmlns:xlink="http://www.w3.org/1999/xlink" x="0px" y="0px"
	 width="750px" height="540px" viewBox="0 0 750 540" style="enable-background:new 0 0 750 540;" xml:space="preserve">
<title>Cloud configuration</title>
<metadata><?xpacket begin="﻿" id="W5M0MpCehiHzreSzNTczkc9d"?>
<x:xmpmeta xmlns:x="adobe:ns:meta/" x:xmptk="Adobe XMP Core 6.0-c006 79.164648, 2021/01/12-15:52:29        ">
   <rdf:RDF xmlns:rdf="http://www.w3.org/1999/02/22-rdf-syntax-ns#">
      <rdf:Description rdf:about=""
            xmlns:dc="http://purl.org/dc/elements/1.1/"
            xmlns:xmp="http://ns.adobe.com/xap/1.0/"
            xmlns:xmpMM="http://ns.adobe.com/xap/1.0/mm/"
            xmlns:stEvt="http://ns.adobe.com/xap/1.0/sType/ResourceEvent#">
         <dc:title>
            <rdf:Alt>
               <rdf:li xml:lang="x-default">Cloud configuration</rdf:li>
            </rdf:Alt>
         </dc:title>
         <xmp:MetadataDate>2021-05-13T16:52:25-10:00</xmp:MetadataDate>
         <xmpMM:InstanceID>xmp.iid:f80d552f-8a0d-4ad5-a648-39b6f64b9aea</xmpMM:InstanceID>
         <xmpMM:DocumentID>xmp.did:f80d552f-8a0d-4ad5-a648-39b6f64b9aea</xmpMM:DocumentID>
         <xmpMM:OriginalDocumentID>xmp.did:f80d552f-8a0d-4ad5-a648-39b6f64b9aea</xmpMM:OriginalDocumentID>
         <xmpMM:History>
            <rdf:Seq>
               <rdf:li>
                  <rdf:Description>
                     <stEvt:action>saved</stEvt:action>
                     <stEvt:instanceID>xmp.iid:f80d552f-8a0d-4ad5-a648-39b6f64b9aea</stEvt:instanceID>
                     <stEvt:when>2021-05-13T16:52:25-10:00</stEvt:when>
                     <stEvt:softwareAgent>Adobe Bridge 2021 (Macintosh)</stEvt:softwareAgent>
                     <stEvt:changed>/metadata</stEvt:changed>
                  </rdf:Description>
               </rdf:li>
            </rdf:Seq>
         </xmpMM:History>
      </rdf:Description>
   </rdf:RDF>
</x:xmpmeta>
                                                                                                    
                                                                                                    
                                                                                                    
                                                                                                    
                                                                                                    
                                                                                                    
                                                                                                    
                                                                                                    
                                                                                                    
                                                                                                    
                                                                                                    
                                                                                                    
                                                                                                    
                                                                                                    
                                                                                                    
                                                                                                    
                                                                                                    
                                                                                                    
                                                                                                    
                                                                                                    
                           
<?xpacket end="w"?></metadata>
<style type="text/css">
	.st0{fill:#F6F8FB;}
	.st1{fill:#FFFFFF;}
	.st2{fill:#DEDEDE;}
	.st3{fill:#34495E;}
	.st4{fill:#F2F2F2;}
	.st5{fill:#CF4D27;}
	.st6{fill:#FFB600;}
	.st7{fill:#464646;}
	.st8{fill:#1D1D1B;}
	.st9{fill:#283A4D;}
	.st10{fill:#5D6D7E;}
	.st11{fill:#E0301E;}
	.st12{fill:#E8E8E8;}
	.st13{fill:#E6EAEE;}
	.st14{fill:#E6625C;}
	.st15{fill:#CDD3DA;}
	.st16{fill:#AAB5BD;}
	.st17{fill:#D4D6D8;}
	.st18{fill:#7D7D7D;}
</style>
<g id="Group_17229">
	<g id="Layer_2_1_">
		<g id="Group_17192">
			<g id="Group_17185">
				<g id="Group_17183">
					<path id="Path_34713" class="st0" d="M342.7,481.3c-0.7-0.6-1.1-1.3-1.3-2.2l-3.8-20h-50.2l-3.8,20c-0.3,1.8-1.9,3.1-3.7,3.1
						h65.2C344.2,482.2,343.4,481.8,342.7,481.3z"/>
					<path id="Path_34714" class="st1" d="M355,482.3c-0.1-0.1-0.2-0.1-0.3-0.1h-84.3c-0.2,0-0.4,0.2-0.5,0.4l0,0v0.3
						c0,0.9,1.9,2.3,3.7,2.3h77.8c1.8,0,3.7-1.4,3.7-2.3v-0.3C355.1,482.5,355.1,482.4,355,482.3z"/>
					<path id="Path_34715" class="st2" d="M345.1,482.2c-1.8,0-3.4-1.3-3.7-3.1l-3.8-20h-50.2l23.1,23.1H345.1z"/>
				</g>
				<path id="Path_34716" class="st3" d="M424.2,295.3c0-1.7-0.7-3.3-1.9-4.5c-1.2-1.2-2.8-1.9-4.5-1.9H207.2
					c-3.5,0-6.4,2.9-6.4,6.4V437h223.4V295.3z"/>
				<path id="Path_34717" class="st4" d="M424.2,452.7c0,3.5-2.9,6.4-6.4,6.4l0,0H207.2c-3.5,0-6.4-2.9-6.4-6.4V437h223.4V452.7z"/>
				<path id="Rectangle_94315" class="st3" d="M393.5,445.8h9.8c1.1,0,1.9,0.9,1.9,1.9l0,0v0.6c0,1.1-0.9,1.9-1.9,1.9l0,0h-9.8
					c-1.1,0-1.9-0.9-1.9-1.9l0,0l0,0v-0.6C391.6,446.7,392.4,445.8,393.5,445.8L393.5,445.8z"/>
				<g id="Group_17184">
					<rect id="Rectangle_94316" x="212.1" y="300.2" class="st1" width="200.8" height="125.5"/>
					<rect id="Rectangle_94317" x="220.4" y="307.2" class="st5" width="55.6" height="16.7"/>
					<rect id="Rectangle_94318" x="284.7" y="307.2" class="st2" width="121.2" height="16.7"/>
					<rect id="Rectangle_94319" x="219.1" y="401.2" class="st2" width="186.8" height="5.5"/>
					<rect id="Rectangle_94320" x="219.1" y="413.2" class="st2" width="186.8" height="5.5"/>
					<rect id="Rectangle_94321" x="219.1" y="363" class="st6" width="55.6" height="31.7"/>
					<rect id="Rectangle_94322" x="284.7" y="363" class="st6" width="55.6" height="31.7"/>
					<rect id="Rectangle_94323" x="350.3" y="363" class="st6" width="55.6" height="31.7"/>
					<rect id="Rectangle_94324" x="219.1" y="330.4" class="st2" width="186.8" height="26.1"/>
				</g>
			</g>
			<g id="Group_17187">
				<path id="Path_34718" class="st7" d="M155,381.1c0-2.2,1.8-4,4-4.1h66.5c2.2,0,4,1.8,4,4.1v100.1c0,2.2-1.8,4-4,4H159
					c-2.2,0-4-1.8-4.1-4L155,381.1z"/>
				<path id="Rectangle_94325" class="st8" d="M188.1,476.6h8.2c1,0,1.8,0.8,1.8,1.8v0.5c0,1-0.8,1.8-1.8,1.8h-8.2
					c-1,0-1.8-0.8-1.8-1.8v-0.5C186.3,477.4,187.1,476.6,188.1,476.6z"/>
				<path id="Path_34719" class="st9" d="M192.2,384.1c-1,0-1.9-0.8-1.9-1.9c0-1,0.8-1.9,1.9-1.9s1.9,0.8,1.9,1.9l0,0
					C194.1,383.3,193.3,384.1,192.2,384.1L192.2,384.1z"/>
				<path id="Path_34720" class="st10" d="M192.2,383.1c-0.4,0-0.8-0.3-0.8-0.8s0.3-0.8,0.8-0.8s0.8,0.3,0.8,0.8l0,0
					C193,382.7,192.7,383.1,192.2,383.1z"/>
				<g id="Group_17186">
					<rect id="Rectangle_94326" x="159.2" y="387.6" class="st1" width="66.1" height="84.5"/>
					<rect id="Rectangle_94327" x="164" y="392.4" class="st11" width="25.9" height="10"/>
					<rect id="Rectangle_94328" x="194.6" y="392.4" class="st2" width="25.9" height="10"/>
					<rect id="Rectangle_94329" x="164" y="456.8" class="st12" width="56.4" height="3.3"/>
					<rect id="Rectangle_94330" x="164" y="464" class="st12" width="56.4" height="3.3"/>
					<rect id="Rectangle_94331" x="164" y="428.6" class="st6" width="25.9" height="24.2"/>
					<rect id="Rectangle_94332" x="194.6" y="428.6" class="st6" width="25.9" height="24.2"/>
					<rect id="Rectangle_94333" x="164" y="406.4" class="st6" width="56.4" height="18.4"/>
				</g>
			</g>
			<path id="Path_34721" class="st13" d="M229.1,482.9c0.3-0.5,0.4-1.1,0.4-1.8v-22l0,0v-42h-14c-3.3,0-6,2.7-6,6v57.3
				c0,1.3,0.5,2.6,1.3,3.7l1,1h13.8C227.1,485.1,228.4,484.3,229.1,482.9z"/>
			<g id="Group_17189">
				<path id="Rectangle_94334" class="st7" d="M215.4,418.6h27c2.6,0,4.6,2.1,4.6,4.6l0,0v57.4c0,2.6-2.1,4.6-4.6,4.6l0,0h-27
					c-2.6,0-4.6-2.1-4.6-4.6l0,0v-57.4C210.8,420.6,212.9,418.6,215.4,418.6L215.4,418.6z"/>
				<path id="Rectangle_94335" class="st8" d="M226,478.8h5.8c0.6,0,1.1,0.5,1.1,1.1v0.5c0,0.6-0.5,1.1-1.1,1.1H226
					c-0.6,0-1.1-0.5-1.1-1.1v-0.5C224.9,479.3,225.4,478.8,226,478.8z"/>
				<path id="Path_34722" class="st9" d="M230.3,423.6c0,0.7-0.6,1.3-1.3,1.3s-1.3-0.6-1.3-1.3c0-0.7,0.6-1.3,1.3-1.3l0,0l0,0
					C229.7,422.2,230.3,422.8,230.3,423.6z"/>
				<path id="Path_34723" class="st10" d="M229.6,423.6c0,0.3-0.2,0.6-0.6,0.7c-0.3,0-0.6-0.2-0.7-0.6c0-0.3,0.2-0.6,0.6-0.7h0.1
					C229.3,423,229.6,423.3,229.6,423.6L229.6,423.6L229.6,423.6z"/>
				<g id="Group_17188">
					<rect id="Rectangle_94336" x="213.4" y="428.6" class="st1" width="31" height="46.5"/>
					<rect id="Rectangle_94337" x="215.8" y="431" class="st14" width="26.2" height="4"/>
					<rect id="Rectangle_94338" x="215.8" y="468.5" class="st12" width="26.2" height="1.3"/>
					<rect id="Rectangle_94339" x="215.8" y="471.4" class="st12" width="26.2" height="1.3"/>
					<rect id="Rectangle_94340" x="215.8" y="446.4" class="st6" width="26.2" height="20.5"/>
					<rect id="Rectangle_94341" x="215.8" y="436.6" class="st2" width="26.2" height="8.3"/>
				</g>
			</g>
			<g id="Group_17191">
				<path id="Path_34724" class="st3" d="M628.1,471.6c0,2.9-2.3,5.2-5.2,5.2H475.5c-2.9,0-5.2-2.3-5.2-5.2l0,0v-94.2
					c0-2.9,2.3-5.2,5.2-5.2l0,0h147.4c2.9,0,5.2,2.3,5.2,5.2l0,0L628.1,471.6L628.1,471.6z"/>
				<path id="Path_34725" class="st9" d="M551,376.3c0,1-0.8,1.8-1.8,1.8s-1.8-0.8-1.8-1.8s0.8-1.8,1.8-1.8l0,0l0,0
					C550.2,374.5,551,375.3,551,376.3L551,376.3z"/>
				<path id="Path_34726" class="st10" d="M549.9,376.3c0,0.4-0.3,0.7-0.7,0.7s-0.8-0.2-0.8-0.6s0.2-0.8,0.6-0.8c0.1,0,0.1,0,0.2,0
					C549.6,375.6,549.9,375.9,549.9,376.3z"/>
				<path id="Path_34727" class="st15" d="M646,479.9c-2.9,3.4-7.2,5.3-11.6,5.3H464c-4.5,0-8.7-1.9-11.6-5.3H646z"/>
				<path id="Path_34728" class="st1" d="M646,479.9H452.4v-2.2c0-0.5,0.4-0.9,0.9-0.9h191.9c0.5,0,0.9,0.4,0.9,0.9l0,0l0,0
					L646,479.9z"/>
				<path id="Path_34729" class="st16" d="M567.2,477.4c0,0.3-0.1,0.5-0.3,0.7s-0.5,0.3-0.7,0.3h-33.9c-0.6,0-1-0.4-1-1l0,0v-0.5h36
					L567.2,477.4z"/>
				<g id="Group_17190">
					<rect id="Rectangle_94342" x="478.5" y="380.2" class="st1" width="141.4" height="88.4"/>
					<rect id="Rectangle_94343" x="484.4" y="385.2" class="st14" width="39.1" height="11.7"/>
					<rect id="Rectangle_94344" x="529.6" y="385.2" class="st12" width="85.3" height="11.7"/>
					<rect id="Rectangle_94345" x="483.4" y="451.4" class="st12" width="131.5" height="3.9"/>
					<rect id="Rectangle_94346" x="483.4" y="459.8" class="st12" width="131.5" height="3.9"/>
					<rect id="Rectangle_94347" x="483.4" y="424.5" class="st5" width="39.1" height="22.3"/>
					<rect id="Rectangle_94348" x="529.6" y="424.5" class="st5" width="39.1" height="22.3"/>
					<rect id="Rectangle_94349" x="575.8" y="424.5" class="st5" width="39.1" height="22.3"/>
					<rect id="Rectangle_94350" x="483.4" y="401.5" class="st17" width="131.5" height="18.4"/>
				</g>
			</g>
		</g>
		<g id="Group_17227">
			<path id="Path_34749" class="st5" d="M608.5,57.6c-2.3,0-4.6,0.2-6.8,0.7c0-0.1,0-0.2,0-0.4c-0.2-30.4-25-54.8-55.4-54.6
				c-24.8,0.2-46.4,16.9-52.8,40.9c-21.6-4.8-43.1,8.9-47.8,30.5s8.9,43.1,30.5,47.8c2.9,0.6,5.8,1,8.7,0.9h123.7
				c18.2,0,33-14.8,33-33S626.7,57.6,608.5,57.6L608.5,57.6z"/>
			<path id="Path_34750" class="st5" d="M214.6,71.4c-1.4,0-2.7,0.1-4.1,0.4c0-0.1,0-0.2,0-0.2c0-18.1-14.7-32.7-32.8-32.7
				c-14.9,0-27.9,10.1-31.7,24.6c-12.9-2.9-25.7,5.2-28.6,18.1s5.2,25.7,18.1,28.6c1.7,0.4,3.4,0.6,5.1,0.6h74
				c10.9,0,19.7-8.8,19.7-19.7C234.2,80.2,225.4,71.4,214.6,71.4L214.6,71.4z"/>
			<path id="Path_34751" class="st4" d="M479.4,121.6c-3.5,0-7.1,0.4-10.6,1.1c0-0.2,0-0.4,0-0.6c-0.1-46.9-38.1-84.8-85-84.8
				c-38.7,0-72.4,26.2-82.1,63.7c-33.4-7.6-66.6,13.3-74.2,46.7c-7.6,33.4,13.3,66.6,46.7,74.2c4.6,1.1,9.4,1.6,14.1,1.5h191
				c28.1,1.3,52-20.5,53.2-48.7c1.3-28.1-20.5-52-48.7-53.2C482.5,121.5,481,121.5,479.4,121.6L479.4,121.6z"/>
			<g id="Group_17226">
				<rect id="Rectangle_94406" x="212.1" y="171.1" class="st8" width="142.1" height="7"/>
				<g id="Group_17212">
					<path id="Rectangle_94407" class="st6" d="M205.7,125.7h155c1.1,0,2,0.9,2,2v41.5c0,1.1-0.9,2-2,2h-155c-1.1,0-2-0.9-2-2v-41.5
						C203.8,126.6,204.6,125.7,205.7,125.7z"/>
					<rect id="Rectangle_94408" x="208.4" y="130.3" class="st1" width="149.6" height="36.2"/>
					<g id="Group_17205">
						<g id="Group_17204">
							<path id="Path_34752" class="st18" d="M348,148.4c0,2.3-1.9,4.2-4.2,4.2c-2.3,0-4.2-1.9-4.2-4.2s1.9-4.2,4.2-4.2l0,0
								C346.1,144.2,348,146.1,348,148.4L348,148.4z"/>
							<g id="Group_17203">
								<g id="Group_17200">
									<rect id="Rectangle_94409" x="224.1" y="139.4" class="st18" width="3.6" height="3.6"/>
									<rect id="Rectangle_94410" x="235.4" y="139.4" class="st18" width="3.7" height="3.6"/>
									<rect id="Rectangle_94411" x="246.7" y="139.4" class="st18" width="3.7" height="3.6"/>
									<rect id="Rectangle_94412" x="258" y="139.4" class="st18" width="3.7" height="3.6"/>
									<rect id="Rectangle_94413" x="269.3" y="139.4" class="st18" width="3.6" height="3.6"/>
								</g>
								<g id="Group_17201">
									<rect id="Rectangle_94414" x="224.1" y="153.7" class="st18" width="3.6" height="3.6"/>
									<rect id="Rectangle_94415" x="235.4" y="153.7" class="st18" width="3.7" height="3.6"/>
									<rect id="Rectangle_94416" x="246.7" y="153.7" class="st18" width="3.7" height="3.6"/>
									<rect id="Rectangle_94417" x="258" y="153.7" class="st18" width="3.7" height="3.6"/>
									<rect id="Rectangle_94418" x="269.3" y="153.7" class="st18" width="3.6" height="3.6"/>
								</g>
								<g id="Group_17202">
									<rect id="Rectangle_94419" x="229.6" y="146.6" class="st18" width="3.6" height="3.7"/>
									<rect id="Rectangle_94420" x="240.9" y="146.6" class="st18" width="3.7" height="3.7"/>
									<rect id="Rectangle_94421" x="252.2" y="146.6" class="st18" width="3.7" height="3.7"/>
									<rect id="Rectangle_94422" x="263.5" y="146.6" class="st18" width="3.6" height="3.7"/>
									<rect id="Rectangle_94423" x="274.8" y="146.6" class="st18" width="3.7" height="3.7"/>
									<rect id="Rectangle_94424" x="293.4" y="146.6" class="st18" width="31.2" height="3.7"/>
								</g>
							</g>
						</g>
					</g>
					<g id="Group_17208">
						<rect id="Rectangle_94425" x="362.6" y="131.9" class="st8" width="6.6" height="33"/>
						<g id="Group_17207">
							<g id="Group_17206">
								<path id="Path_34753" class="st0" d="M367,135.2c0,0.6-0.4,1-0.9,1c0,0,0,0-0.1,0c-0.6,0-1-0.4-1-0.9c0,0,0,0,0-0.1
									c0-0.6,0.4-1,1-1.1l0,0C366.5,134.2,367,134.6,367,135.2z"/>
								<path id="Path_34754" class="st0" d="M367,161.6c0,0.6-0.4,1-1,1s-1-0.4-1-1c0-0.5,0.4-1,1-1l0,0
									C366.5,160.6,367,161,367,161.6L367,161.6z"/>
							</g>
						</g>
					</g>
					<g id="Group_17211">
						<rect id="Rectangle_94426" x="197.2" y="131.9" class="st8" width="6.6" height="33"/>
						<g id="Group_17210">
							<g id="Group_17209">
								<path id="Path_34755" class="st0" d="M201.5,135.2c0,0.6-0.4,1-0.9,1c0,0,0,0-0.1,0c-0.6,0-1-0.4-1-0.9c0,0,0,0,0-0.1
									c0-0.6,0.4-1,1-1.1C201,134.1,201.5,134.6,201.5,135.2C201.5,135.1,201.5,135.2,201.5,135.2z"/>
								<path id="Path_34756" class="st0" d="M201.5,161.6c0,0.6-0.4,1-1,1s-1-0.4-1-1c0-0.5,0.4-1,0.9-1
									C201,160.6,201.5,161,201.5,161.6L201.5,161.6z"/>
							</g>
						</g>
					</g>
				</g>
				<g id="Group_17225">
					<path id="Path_34757" class="st6" d="M362.6,221.5c0,1.1-0.9,2-2,2H205.7c-1.1,0-2-0.9-2-2V180c0-1.1,0.9-2,2-2h154.9
						c1.1,0,2,0.9,2,2L362.6,221.5z"/>
					<rect id="Rectangle_94427" x="208.4" y="182.7" class="st1" width="149.6" height="36.2"/>
					<g id="Group_17218">
						<g id="Group_17217">
							<path id="Path_34758" class="st18" d="M348,200.8c0,2.3-1.8,4.2-4.1,4.2c-2.3,0-4.2-1.8-4.2-4.1s1.8-4.2,4.1-4.2l0,0l0,0
								C346.1,196.6,348,198.5,348,200.8z"/>
							<g id="Group_17216">
								<g id="Group_17213">
									<rect id="Rectangle_94428" x="224.1" y="191.8" class="st18" width="3.6" height="3.6"/>
									<rect id="Rectangle_94429" x="235.4" y="191.8" class="st18" width="3.7" height="3.6"/>
									<rect id="Rectangle_94430" x="246.7" y="191.8" class="st18" width="3.7" height="3.6"/>
									<rect id="Rectangle_94431" x="258" y="191.8" class="st18" width="3.7" height="3.6"/>
									<rect id="Rectangle_94432" x="269.3" y="191.8" class="st18" width="3.6" height="3.6"/>
								</g>
								<g id="Group_17214">
									<rect id="Rectangle_94433" x="224.1" y="206.1" class="st18" width="3.6" height="3.7"/>
									<rect id="Rectangle_94434" x="235.4" y="206.1" class="st18" width="3.7" height="3.7"/>
									<rect id="Rectangle_94435" x="246.7" y="206.1" class="st18" width="3.7" height="3.7"/>
									<rect id="Rectangle_94436" x="258" y="206.1" class="st18" width="3.7" height="3.7"/>
									<rect id="Rectangle_94437" x="269.3" y="206.1" class="st18" width="3.6" height="3.7"/>
								</g>
								<g id="Group_17215">
									<rect id="Rectangle_94438" x="229.6" y="198.9" class="st18" width="3.6" height="3.6"/>
									<rect id="Rectangle_94439" x="240.9" y="198.9" class="st18" width="3.7" height="3.6"/>
									<rect id="Rectangle_94440" x="252.2" y="198.9" class="st18" width="3.7" height="3.6"/>
									<rect id="Rectangle_94441" x="263.5" y="198.9" class="st18" width="3.6" height="3.6"/>
									<rect id="Rectangle_94442" x="274.8" y="198.9" class="st18" width="3.7" height="3.6"/>
									<rect id="Rectangle_94443" x="293.4" y="198.9" class="st18" width="31.2" height="3.6"/>
								</g>
							</g>
						</g>
					</g>
					<g id="Group_17221">
						<rect id="Rectangle_94444" x="362.6" y="184.3" class="st8" width="6.6" height="33"/>
						<g id="Group_17220">
							<g id="Group_17219">
								<path id="Path_34759" class="st0" d="M367,187.5c0,0.6-0.5,1-1,1c-0.6,0-1-0.5-0.9-1.1s0.5-1,1.1-0.9
									C366.6,186.6,367,187,367,187.5L367,187.5z"/>
								<path id="Path_34760" class="st0" d="M367,214c0,0.6-0.4,1-1,1s-1-0.5-1-1c0-0.6,0.5-1,1-1l0,0
									C366.6,212.9,367,213.4,367,214C367,213.9,367,214,367,214z"/>
							</g>
						</g>
					</g>
					<g id="Group_17224">
						<rect id="Rectangle_94445" x="197.2" y="184.3" class="st8" width="6.6" height="33"/>
						<g id="Group_17223">
							<g id="Group_17222">
								<path id="Path_34761" class="st0" d="M201.5,187.5c0,0.6-0.5,1-1,1s-1-0.5-1-1s0.5-1,1-1S201.4,186.9,201.5,187.5
									L201.5,187.5L201.5,187.5z"/>
								<path id="Path_34762" class="st0" d="M201.5,214c0,0.6-0.4,1-1,1s-1-0.4-1-1c0-0.5,0.4-1,0.9-1
									C201,213,201.5,213.4,201.5,214L201.5,214z"/>
							</g>
						</g>
					</g>
				</g>
			</g>
		</g>
		<g id="Group_17228">
			<path id="Path_34763" class="st2" d="M142.5,530h-41.2v-2.1h39.1V359.3h35.5v-83h92.4v-52.9h2.1v55H178v83h-35.5V530z"/>
			<path id="Path_34764" class="st2" d="M233.5,253.9h-83.7v-78.3H27v-2.1h124.9v78.3h79.5v-28.4h2.1V253.9z"/>
			<path id="Path_34765" class="st2" d="M616.4,241.3H413.1v-17.9h2.1v15.8h199v-31.3h2.1L616.4,241.3z"/>
			<path id="Path_34767" class="st2" d="M714.3,442.8h-41.9V352h-199v-88.2h-153v-40.4h2.1v38.2h153v88.2h199v90.7h39.7L714.3,442.8
				z"/>
			<path id="Path_34768" class="st2" d="M20.9,170.3c2.4,0,4.3,1.9,4.3,4.2c0,2.4-1.9,4.3-4.2,4.3s-4.3-1.9-4.3-4.2l0,0l0,0
				C16.6,172.2,18.5,170.3,20.9,170.3z M20.9,168.2c-3.5,0-6.4,2.9-6.4,6.4s2.9,6.4,6.4,6.4s6.4-2.9,6.4-6.4
				C27.3,171.1,24.4,168.2,20.9,168.2L20.9,168.2z"/>
			<path id="Path_34769" class="st2" d="M95.9,524.7c2.3,0,4.2,1.9,4.2,4.3c0,2.3-1.9,4.2-4.3,4.2c-2.3,0-4.2-1.9-4.2-4.2
				S93.5,524.7,95.9,524.7L95.9,524.7z M95.9,522.6c-3.5,0-6.4,2.9-6.4,6.4s2.9,6.4,6.4,6.4s6.4-2.9,6.4-6.4S99.4,522.6,95.9,522.6
				L95.9,522.6z"/>
			<path id="Path_34771" class="st2" d="M720.7,437.5c2.4,0,4.3,1.9,4.3,4.2c0,2.4-1.9,4.3-4.2,4.3s-4.3-1.9-4.3-4.2l0,0
				C716.4,439.4,718.3,437.5,720.7,437.5z M720.7,435.4c-3.5,0-6.4,2.9-6.4,6.4s2.9,6.4,6.4,6.4s6.4-2.9,6.4-6.4l0,0
				C727,438.2,724.2,435.4,720.7,435.4L720.7,435.4z"/>
			<path id="Path_34772" class="st2" d="M615.3,198.8c2.4,0,4.3,1.9,4.3,4.2c0,2.4-1.9,4.3-4.2,4.3c-2.4,0-4.3-1.9-4.3-4.2l0,0
				C611.1,200.7,613,198.8,615.3,198.8z M615.3,196.6c-3.5,0-6.4,2.9-6.4,6.4s2.9,6.4,6.4,6.4s6.4-2.9,6.4-6.4l0,0
				C621.7,199.5,618.8,196.6,615.3,196.6L615.3,196.6z"/>
		</g>
	</g>
</g>
</svg>
