<?xml version="1.0" encoding="utf-8"?>
<!-- Generator: Adobe Illustrator 24.3.0, SVG Export Plug-In . SVG Version: 6.00 Build 0)  -->
<svg version="1.1" id="Layer_1" xmlns="http://www.w3.org/2000/svg" xmlns:xlink="http://www.w3.org/1999/xlink" x="0px" y="0px"
	 viewBox="0 0 260 80" style="enable-background:new 0 0 260 80;" xml:space="preserve">
<style type="text/css">
	.st0{fill:#0093ED;}
	.st1{fill:#FFFFFF;}
</style>
<g id="Layer_2_1_">
	<g id="Layer_1-2">
		<rect y="0" class="st0" width="260" height="80"/>
		<path class="st1" d="M61.5,54c-2.5-2.6-5.1-5.1-7.7-7.7c-0.9-1-2.3-1.4-3.6-1.1c-0.9,0.2-1.8,0.7-2.5,1.5l-4.2,4.2
			c-0.3,0.3-0.7,0.6-1.2,0.3c-1.1-0.6-2.2-1.1-3.3-1.8c-3.6-2.3-6.8-5.2-9.6-8.5c-2-2.2-3.6-4.6-4.9-7.3c-0.4-0.8-0.3-1,0.3-1.7
			c1.5-1.5,2.9-2.9,4.3-4.4c1.6-1.5,1.8-4,0.3-5.6c-0.1-0.1-0.2-0.2-0.3-0.3c-2.4-2.5-4.8-4.9-7.3-7.3c-1.5-1.7-4.1-1.8-5.7-0.3
			c-0.1,0.1-0.2,0.2-0.3,0.3c-1.6,1.6-3.2,3.1-4.7,4.7c-0.8,0.8-1.4,1.9-1.7,3c-0.4,1.7-0.5,3.4-0.1,5.1c0.6,3.4,1.7,6.7,3.4,9.8
			c5.5,10.9,14.2,19.8,25,25.5c2.9,1.6,6,2.9,9.2,3.7c1,0.2,2,0.4,3,0.5h2.3c0.4-0.1,0.8-0.2,1.2-0.3c1.3-0.3,2.5-1,3.5-2
			c1.2-1.2,2.4-2.5,3.7-3.7c1-0.9,1.8-2.1,2.2-3.4v-0.9C62.5,55.5,62.1,54.7,61.5,54z"/>
		<g>
			<polygon class="st1" points="71.9,63.4 74.9,63.4 74.9,58.1 79.6,58.1 79.6,55.7 74.9,55.7 74.9,52.6 79.9,52.6 79.9,50.2 
				71.9,50.2 			"/>
			<path class="st1" d="M89.2,57.2L89.2,57.2c1.1-0.5,2.3-1.6,2.3-3.3c0-1.2-0.4-2.1-1.2-2.8c-0.9-0.7-2.3-1-4.2-1
				c-1.6,0-3,0.1-3.9,0.3v13h2.9v-5.2H86c1.2,0,1.8,0.5,2.1,2.1c0.4,1.6,0.7,2.7,0.9,3.1h3c-0.3-0.5-0.7-2.2-1.1-3.7
				C90.6,58.5,90.1,57.6,89.2,57.2z M86.2,56.1H85v-3.6c0.2,0,0.6-0.1,1.3-0.1c1.4,0,2.2,0.6,2.2,1.8C88.6,55.3,87.7,56.1,86.2,56.1
				z"/>
			<polygon class="st1" points="96.6,57.8 101.4,57.8 101.4,55.4 96.6,55.4 96.6,52.6 101.7,52.6 101.7,50.2 93.7,50.2 93.7,63.4 
				102,63.4 102,61 96.6,61 			"/>
			<polygon class="st1" points="107,57.8 111.8,57.8 111.8,55.4 107,55.4 107,52.6 112.1,52.6 112.1,50.2 104,50.2 104,63.4 
				112.3,63.4 112.3,61 107,61 			"/>
			<path class="st1" d="M125,52.4c1,0,1.9,0.2,2.5,0.5l0.6-2.4c-0.5-0.3-1.7-0.6-3.2-0.6c-4,0-7.1,2.5-7.1,7c0,3.8,2.3,6.6,6.8,6.6
				c1.6,0,2.8-0.3,3.4-0.6l-0.4-2.3c-0.6,0.2-1.6,0.4-2.5,0.4c-2.6,0-4.2-1.7-4.2-4.3C120.8,53.9,122.6,52.4,125,52.4z"/>
			<path class="st1" d="M135,50c-3.9,0-6.4,3-6.4,6.9c0,3.8,2.3,6.7,6.1,6.7s6.4-2.6,6.4-7C141.2,53,139,50,135,50z M134.9,61.2
				c-2,0-3.2-1.8-3.2-4.4c0-2.6,1.2-4.5,3.2-4.5s3.2,2,3.2,4.4C138.1,59.3,136.9,61.2,134.9,61.2z"/>
			<path class="st1" d="M151.3,54.1c0,2,0.1,3.8,0.3,5.5h-0.1c-0.6-1.5-1.4-3.1-2.1-4.5l-2.7-4.8h-3.5v13.2h2.7v-4
				c0-2.2,0-4-0.1-5.8h0.1c0.6,1.5,1.5,3.3,2.3,4.7l2.8,5.1h3.1V50.2h-2.7v3.9H151.3z"/>
			<path class="st1" d="M161.6,55.6c-1.7-0.6-2.4-1-2.4-1.9c0-0.7,0.6-1.3,1.9-1.3c1.3,0,2.2,0.4,2.7,0.6l0.7-2.4
				c-0.8-0.4-1.9-0.7-3.3-0.7c-3.1,0-4.9,1.7-4.9,4c0,1.9,1.4,3.1,3.6,3.9c1.6,0.6,2.2,1,2.2,1.9s-0.7,1.4-2.1,1.4
				c-1.3,0-2.5-0.4-3.3-0.8l-0.6,2.5c0.7,0.4,2.2,0.8,3.7,0.8c3.6,0,5.3-1.9,5.3-4.1C165,57.6,163.9,56.4,161.6,55.6z"/>
			<path class="st1" d="M174.7,57.8c0,2.3-0.9,3.4-2.4,3.4s-2.4-1.2-2.4-3.4v-7.6h-3v7.4c0,4.2,1.9,6.1,5.2,6.1c3.4,0,5.4-1.9,5.4-6
				v-7.4h-2.9L174.7,57.8L174.7,57.8z"/>
			<polygon class="st1" points="183.2,50.2 180.2,50.2 180.2,63.4 188.4,63.4 188.4,60.9 183.2,60.9 			"/>
			<polygon class="st1" points="197.2,50.2 187.1,50.2 187.1,52.7 190.6,52.7 190.6,63.4 193.6,63.4 193.6,52.7 197.2,52.7 			"/>
			<path class="st1" d="M200.4,50.2l-4,13.2h3.1l0.9-3.4h3.7l1,3.4h3.2l-4.1-13.2H200.4z M200.8,57.8l0.8-2.8
				c0.2-0.8,0.4-1.8,0.6-2.5l0,0c0.2,0.8,0.4,1.8,0.7,2.5l0.8,2.8H200.8z"/>
			<polygon class="st1" points="207.5,52.7 211,52.7 211,63.4 214,63.4 214,52.7 217.5,52.7 217.5,50.2 207.5,50.2 			"/>
			<rect x="219.1" y="50.2" class="st1" width="3" height="13.2"/>
			<path class="st1" d="M230.4,50c-3.9,0-6.4,3-6.4,6.9c0,3.8,2.3,6.7,6.1,6.7s6.4-2.6,6.4-7C236.6,53,234.4,50,230.4,50z
				 M230.3,61.2c-2,0-3.2-1.8-3.2-4.4c0-2.6,1.2-4.5,3.2-4.5s3.2,2,3.2,4.4C233.5,59.3,232.3,61.2,230.3,61.2z"/>
			<path class="st1" d="M246.6,50.2v3.9c0,2,0.1,3.8,0.3,5.5h-0.1c-0.6-1.5-1.4-3.1-2.1-4.5l-2.7-4.8h-3.5v13.2h2.7v-4
				c0-2.2,0-4-0.1-5.8h0.1c0.6,1.5,1.5,3.3,2.3,4.7l2.8,5.1h3.1V50.2H246.6z"/>
			<polygon class="st1" points="75,31.6 76.9,31.6 76.9,18.9 81.2,18.9 81.2,17.4 70.6,17.4 70.6,18.9 75,18.9 			"/>
			<path class="st1" d="M86.9,30.3L86.9,30.3l0.2,1.3h1.7c-0.1-0.7-0.2-1.6-0.2-2.5v-3.8c0-2.1-0.8-4.2-3.9-4.2
				c-1.3,0-2.5,0.4-3.4,0.9l0.4,1.2c0.7-0.5,1.7-0.8,2.7-0.8c2.1,0,2.3,1.5,2.3,2.4V25c-4,0-6.2,1.3-6.2,3.8c0,1.5,1.1,2.9,3.1,2.9
				C85.2,31.9,86.3,31.2,86.9,30.3z M82.4,28.7c0-2,2.3-2.4,4.3-2.3v1.8c0,0.2,0,0.4-0.1,0.6c-0.3,0.9-1.1,1.7-2.5,1.7
				C83.3,30.5,82.4,29.9,82.4,28.7z"/>
			<path class="st1" d="M96.6,31.9c2.4,0,4.7-1.8,4.7-5.5c0-3.1-1.9-5.2-4.3-5.2c-1.7,0-2.9,0.7-3.6,2l0,0l-0.1-1.8h-1.7
				c0,1,0.1,2,0.1,3.3v11.1h1.8v-5.6l0,0C94.1,31.3,95.3,31.9,96.6,31.9z M93.4,27.5v-1.8c0-0.3,0.1-0.5,0.1-0.8
				c0.4-1.4,1.5-2.3,2.8-2.3c2,0,3.1,1.8,3.1,3.8c0,2.4-1.1,4-3.1,4c-1.3,0-2.5-0.9-2.8-2.2C93.5,28,93.4,27.7,93.4,27.5z"/>
			<path class="st1" d="M113.3,21.1c-0.7,0-1.4,0.2-1.9,0.5c-0.6,0.3-1,0.8-1.3,1.3l0,0v-6.4h-1.9v15h1.9v-6.2c0-0.4,0-0.6,0.1-0.9
				c0.3-1,1.3-1.9,2.5-1.9c1.8,0,2.4,1.4,2.4,3.1v5.9h1.9v-6.1C116.9,22,114.7,21.1,113.3,21.1z"/>
			<path class="st1" d="M124,21.1c-3,0-4.8,2.4-4.8,5.5s1.9,5.2,5,5.2c1.6,0,2.8-0.3,3.4-0.6l-0.3-1.3c-0.7,0.3-1.5,0.5-2.8,0.5
				c-1.9,0-3.5-1-3.5-3.6h7.2c0-0.2,0.1-0.5,0.1-0.9C128.2,24.1,127.3,21.1,124,21.1z M121,25.5c0.1-1.3,1-3,2.9-3
				c2.1,0,2.6,1.8,2.6,3H121z"/>
			<path class="st1" d="M130.5,31.6h1.8v-5.5c0-0.3,0-0.6,0.1-0.9c0.3-1.4,1.2-2.4,2.5-2.4c0.3,0,0.4,0,0.6,0.1v-1.8
				c-0.2,0-0.3-0.1-0.5-0.1c-1.3,0-2.4,0.9-2.8,2.2h-0.1l-0.1-2h-1.6c0.1,1,0.1,2,0.1,3.2V31.6z"/>
			<path class="st1" d="M144.6,29.9c-0.7,0.3-1.5,0.5-2.8,0.5c-1.9,0-3.5-1-3.5-3.6h7.2c0-0.2,0.1-0.5,0.1-0.9
				c0-1.9-0.9-4.8-4.2-4.8c-3,0-4.8,2.4-4.8,5.5s1.9,5.2,5,5.2c1.6,0,2.8-0.3,3.4-0.6L144.6,29.9z M141.2,22.5c2.1,0,2.6,1.8,2.6,3
				h-5.4C138.4,24.2,139.3,22.5,141.2,22.5z"/>
			<path class="st1" d="M156.9,21.4h-2.5v-0.6c0-1.6,0.4-3,2-3c0.5,0,0.9,0.1,1.2,0.2l0.3-1.4c-0.4-0.1-0.9-0.3-1.6-0.3
				c-0.9,0-1.8,0.3-2.5,1c-0.9,0.8-1.2,2.1-1.2,3.6v0.5h-1.4v1.4h1.4v8.8h1.8v-8.8h2.5V21.4z"/>
			<path class="st1" d="M162.6,21.1c-2.8,0-5.1,2-5.1,5.4c0,3.2,2.1,5.3,4.9,5.3c2.5,0,5.1-1.7,5.1-5.4
				C167.5,23.3,165.5,21.1,162.6,21.1z M162.5,30.5c-1.8,0-3.1-1.7-3.1-3.9c0-2,1-4,3.2-4s3.1,2.2,3.1,3.9
				C165.6,28.8,164.3,30.5,162.5,30.5z"/>
			<path class="st1" d="M169.9,31.6h1.8v-5.5c0-0.3,0-0.6,0.1-0.9c0.3-1.4,1.2-2.4,2.5-2.4c0.3,0,0.4,0,0.6,0.1v-1.8
				c-0.2,0-0.3-0.1-0.5-0.1c-1.3,0-2.4,0.9-2.8,2.2h-0.1l-0.1-2h-1.6c0.1,1,0.1,2,0.1,3.2V31.6z"/>
			<path class="st1" d="M180.5,28.9c0,1.5,1.1,2.9,3.1,2.9c1.5,0,2.6-0.7,3.1-1.5h0.1l0.1,1.3h1.7c-0.1-0.7-0.2-1.6-0.2-2.5v-3.8
				c0-2.1-0.8-4.2-3.9-4.2c-1.3,0-2.5,0.4-3.4,0.9l0.4,1.2c0.7-0.5,1.7-0.8,2.7-0.8c2.1,0,2.3,1.5,2.3,2.4V25
				C182.7,25.1,180.5,26.4,180.5,28.9z M186.7,26.4v1.8c0,0.2,0,0.4-0.1,0.6c-0.3,0.9-1.1,1.7-2.5,1.7c-1,0-1.8-0.6-1.8-1.8
				C182.4,26.7,184.7,26.4,186.7,26.4z"/>
		</g>
	</g>
</g>
</svg>
