<?xml version="1.0" encoding="utf-8"?>
<!-- Generator: Adobe Illustrator 21.0.0, SVG Export Plug-In . SVG Version: 6.00 Build 0)  -->
<svg version="1.1" id="Capa_1" xmlns="http://www.w3.org/2000/svg" xmlns:xlink="http://www.w3.org/1999/xlink" x="0px" y="0px"
	 viewBox="0 0 115 107" style="enable-background:new 0 0 115 107;" xml:space="preserve">
<style type="text/css">
	.st0{fill:#666666;}
</style>
<title>tech-icon1</title>
<g>
	<path class="st0" d="M75.3,29c-0.1,0.1-0.2,0.3-0.4,0.4C64.5,39.8,54.1,50.3,43.6,60.7c-0.1,0.1-0.2,0.2-0.3,0.2
		c-2.5-2.5-5-5-7.6-7.6c0.1-0.1,0.3-0.1,0.4-0.3c7.9-7.9,15.8-15.8,23.8-23.7c0.1-0.1,0.2-0.3,0.4-0.4C65.3,29,70.3,29,75.3,29z"/>
	<path class="st0" d="M60.3,78c-0.1-0.1-0.2-0.3-0.4-0.4c-4.2-4.2-8.3-8.3-12.5-12.5c-0.1-0.1-0.2-0.2-0.4-0.4
		c0.1-0.1,0.2-0.2,0.3-0.4c4.2-4.2,8.4-8.4,12.6-12.6c0.1-0.1,0.4-0.3,0.6-0.3c4.8,0,9.6,0,14.4,0c0.1,0,0.1,0,0.1,0
		c-4.3,4.3-8.7,8.7-13.1,13.1c0.2,0.2,0.4,0.4,0.5,0.5c4.1,4.1,8.2,8.3,12.4,12.4c0.1,0.1,0.2,0.3,0.4,0.4C70.3,78,65.3,78,60.3,78z
		"/>
</g>
</svg>
