<?xml version="1.0" encoding="utf-8"?>
<!-- Generator: Adobe Illustrator 24.3.0, SVG Export Plug-In . SVG Version: 6.00 Build 0)  -->
<svg version="1.1" id="Layer_1" xmlns="http://www.w3.org/2000/svg" xmlns:xlink="http://www.w3.org/1999/xlink" x="0px" y="0px"
	 viewBox="0 0 225 176.7" style="enable-background:new 0 0 225 176.7;" xml:space="preserve">
<style type="text/css">
	.st0{fill:#0093ED;}
	.st1{opacity:0.6;fill:#FFFFFF;enable-background:new    ;}
	.st2{opacity:0.6;}
	.st3{fill:#FFFFFF;}
	.st4{fill:#3D4959;}
	.st5{fill:#D6E0EA;}
	.st6{fill:#EDEDED;}
	.st7{opacity:0.2;fill:#FFFFFF;enable-background:new    ;}
	.st8{fill:#425160;}
	.st9{fill:#F3F9FF;}
	.st10{fill:#41566D;}
	.st11{fill:#E4EFF7;}
	.st12{fill:#DDE9F2;}
	.st13{fill:#55738E;}
</style>
<g>
	<path class="st0" d="M37.4,51.8c0.8-7.9,7.6-14.1,15.7-14.1c3,0,5.8,0.8,8.2,2.3c2.4-1.7,5.3-2.7,8.5-2.7c7.4,0,13.6,5.5,14.6,12.6
		c7,1.6,12.1,7.8,12.1,15.3c0,8.7-7,15.7-15.7,15.7H43.1c-8.3,0-15.1-6.8-15.1-15.1C28,59.5,31.9,54.1,37.4,51.8z"/>
	<path class="st1" d="M75.9,63.8c0.2-0.9,0.3-1.8,0.3-2.7s-0.1-1.8-0.3-2.7l-2.1-0.3c-0.2-0.9-0.6-1.7-1-2.5l1.3-1.7
		c-1-1.5-2.3-2.9-3.9-3.9l-1.7,1.3c-0.8-0.4-1.6-0.8-2.5-1l-0.3-2.1c-0.9-0.2-1.8-0.3-2.7-0.3s-1.9,0.1-2.7,0.3L60,50.3
		c-0.9,0.2-1.7,0.6-2.5,1L55.6,50c-1.5,1-2.8,2.3-3.9,3.9l1.3,1.7c-0.4,0.8-0.8,1.6-1,2.5l-2.1,0.3c-0.2,0.9-0.3,1.8-0.3,2.7
		s0.1,1.8,0.3,2.7l2.1,0.3c0.2,0.9,0.6,1.7,1,2.5l-1.3,1.7c1,1.5,2.3,2.8,3.9,3.9l1.7-1.3c0.8,0.4,1.6,0.8,2.5,1l0.3,2.1
		c0.9,0.2,1.8,0.3,2.7,0.3s1.8-0.1,2.7-0.3l0.3-2.1c0.9-0.2,1.7-0.6,2.5-1l1.7,1.3c1.5-1,2.9-2.3,3.9-3.9l-1.3-1.7
		c0.5-0.8,0.8-1.6,1-2.5L75.9,63.8z M62.9,67.5c-3.5,0-6.4-2.9-6.4-6.4s2.9-6.4,6.4-6.4s6.4,2.9,6.4,6.4S66.4,67.5,62.9,67.5z"/>
	<path class="st0" d="M123.5,37c0.8-7.9,7.6-14.1,15.7-14.1c3,0,5.8,0.8,8.2,2.3c2.4-1.7,5.3-2.7,8.5-2.7c7.4,0,13.6,5.5,14.6,12.6
		c7,1.6,12.1,7.8,12.1,15.3c0,8.7-7,15.7-15.7,15.7h-37.8c-8.3,0-15.1-6.8-15.1-15.1C114.1,44.6,118,39.2,123.5,37z"/>
	<g class="st2">
		<path class="st3" d="M141.6,50.3c0-2.1,1.1-3.3,2.7-3.3c1.5,0,2.6,1.2,2.6,3.3s-1.1,3.3-2.6,3.3C142.7,53.6,141.6,52.4,141.6,50.3
			z M146,50.3c0-1.7-0.7-2.5-1.7-2.5s-1.7,0.8-1.7,2.5s0.7,2.5,1.7,2.5S146,52,146,50.3z"/>
		<path class="st3" d="M147.8,50.3c0-2.1,1.1-3.3,2.7-3.3c1.5,0,2.6,1.2,2.6,3.3s-1.1,3.3-2.6,3.3C148.9,53.6,147.8,52.4,147.8,50.3
			z M152.2,50.3c0-1.7-0.7-2.5-1.7-2.5s-1.7,0.8-1.7,2.5s0.7,2.5,1.7,2.5S152.2,52,152.2,50.3z"/>
		<path class="st3" d="M156,47.1v6.5h-0.9v-5.7h-1.5v-0.8H156z"/>
		<path class="st3" d="M157.4,50.3c0-2.1,1.1-3.3,2.7-3.3c1.5,0,2.6,1.2,2.6,3.3s-1.1,3.3-2.6,3.3C158.5,53.6,157.4,52.4,157.4,50.3
			z M161.8,50.3c0-1.7-0.7-2.5-1.7-2.5s-1.7,0.8-1.7,2.5s0.7,2.5,1.7,2.5S161.8,52,161.8,50.3z"/>
		<path class="st3" d="M165.6,47.1v6.5h-0.9v-5.7h-1.5v-0.8H165.6z"/>
		<path class="st3" d="M167,50.3c0-2.1,1.1-3.3,2.7-3.3c1.5,0,2.6,1.2,2.6,3.3s-1.1,3.3-2.6,3.3C168.1,53.6,167,52.4,167,50.3z
			 M171.4,50.3c0-1.7-0.7-2.5-1.7-2.5s-1.7,0.8-1.7,2.5s0.7,2.5,1.7,2.5S171.4,52,171.4,50.3z"/>
		<path class="st3" d="M175.2,47.1v6.5h-0.9v-5.7h-1.5v-0.8H175.2z"/>
	</g>
	<g>
		<g>
			<g>
				<g>
					<path class="st0" d="M74.3,121.4c0-7.5-4.9-13.9-11.7-16c-1-7.8-7.6-13.8-15.7-13.8c-3.2,0-6.3,1-8.8,2.7
						c-2.5-1.7-5.5-2.7-8.8-2.7c-8.1,0-14.7,6-15.7,13.8c-6.8,2.1-11.7,8.5-11.7,16c0,9.3,7.5,16.8,16.8,16.8h39.2l0,0l0,0l0,0
						C67,138,74.3,130.6,74.3,121.4z"/>
				</g>
				<g>
					<g>
						<rect x="36.2" y="130" class="st4" width="42.8" height="3.2"/>
						<rect x="36.2" y="114.6" class="st4" width="42.8" height="3.2"/>
					</g>
					<path class="st5" d="M80.9,146.7H34.1c-1.2,0-2.2-1-2.2-2.2v-9.9c0-1.2,1-2.2,2.2-2.2h46.8c1.2,0,2.2,1,2.2,2.2v9.9
						C83.1,145.7,82.1,146.7,80.9,146.7z"/>
					<path class="st6" d="M53.1,132.4l-2.3,14.3H34.1c-1.2,0-2.2-1-2.2-2.2v-9.9c0-1.2,1-2.2,2.2-2.2L53.1,132.4L53.1,132.4z"/>
					<rect x="35" y="135.6" class="st4" width="44.9" height="8"/>
					<g>
						<path class="st0" d="M76.4,139.6c0,0.8-0.6,1.4-1.4,1.4s-1.4-0.6-1.4-1.4c0-0.8,0.6-1.4,1.4-1.4
							C75.8,138.2,76.4,138.8,76.4,139.6z"/>
						<path class="st0" d="M70.4,139.6c0,0.7-0.5,1.2-1.2,1.2s-1.2-0.5-1.2-1.2s0.5-1.2,1.2-1.2C69.9,138.4,70.4,138.9,70.4,139.6z"
							/>
						<path class="st3" d="M64.7,139.6c0,0.7-0.5,1.2-1.2,1.2s-1.2-0.5-1.2-1.2s0.5-1.2,1.2-1.2C64.2,138.4,64.7,138.9,64.7,139.6z"
							/>
						<path class="st0" d="M58.9,139.6c0,0.7-0.5,1.2-1.2,1.2s-1.2-0.5-1.2-1.2s0.5-1.2,1.2-1.2C58.4,138.4,58.9,138.9,58.9,139.6z"
							/>
						<path class="st3" d="M53.2,139.6c0,0.7-0.5,1.2-1.2,1.2s-1.2-0.5-1.2-1.2s0.5-1.2,1.2-1.2C52.6,138.4,53.2,138.9,53.2,139.6z"
							/>
					</g>
					<path class="st5" d="M79.1,131H35.9c-2.2,0-4-1.8-4-4v-6.3c0-2.2,1.8-4,4-4h43.2c2.2,0,4,1.8,4,4v6.3
						C83.1,129.2,81.3,131,79.1,131z"/>
					<path class="st6" d="M55.7,116.7L53.4,131H34.1c-1.2,0-2.2-1-2.2-2.2v-9.9c0-1.2,1-2.2,2.2-2.2L55.7,116.7L55.7,116.7z"/>
					<rect x="35.1" y="119.9" class="st4" width="44.9" height="8"/>
					<path class="st5" d="M79.1,115.6H35.9c-2.2,0-4-1.8-4-4v-6.3c0-2.2,1.8-4,4-4h43.2c2.2,0,4,1.8,4,4v6.3
						C83.1,113.8,81.3,115.6,79.1,115.6z"/>
					<path class="st6" d="M58.2,101.3l-2.3,14.3H34.1c-1.2,0-2.2-1-2.2-2.2v-9.9c0-1.2,1-2.2,2.2-2.2L58.2,101.3L58.2,101.3z"/>
					<rect x="35" y="104.4" class="st4" width="44.9" height="8"/>
					<g>
						<circle class="st0" cx="75" cy="123.9" r="1.4"/>
						<path class="st0" d="M70.4,123.9c0,0.7-0.5,1.2-1.2,1.2s-1.2-0.5-1.2-1.2s0.5-1.2,1.2-1.2S70.4,123.2,70.4,123.9z"/>
						<path class="st3" d="M64.7,123.9c0,0.7-0.5,1.2-1.2,1.2s-1.2-0.5-1.2-1.2s0.5-1.2,1.2-1.2S64.7,123.2,64.7,123.9z"/>
						<path class="st0" d="M58.9,123.9c0,0.7-0.5,1.2-1.2,1.2s-1.2-0.5-1.2-1.2s0.5-1.2,1.2-1.2S58.9,123.2,58.9,123.9z"/>
						<path class="st3" d="M53.2,123.9c0,0.7-0.5,1.2-1.2,1.2s-1.2-0.5-1.2-1.2s0.5-1.2,1.2-1.2C52.6,122.7,53.2,123.2,53.2,123.9z"
							/>
					</g>
					<g>
						<path class="st0" d="M76.4,108.4c0,0.8-0.6,1.4-1.4,1.4s-1.4-0.6-1.4-1.4s0.6-1.4,1.4-1.4C75.8,107.1,76.4,107.7,76.4,108.4z"
							/>
						<path class="st3" d="M70.4,108.4c0,0.7-0.5,1.2-1.2,1.2s-1.2-0.5-1.2-1.2s0.5-1.2,1.2-1.2C69.9,107.3,70.4,107.8,70.4,108.4z"
							/>
						<path class="st3" d="M64.7,108.4c0,0.7-0.5,1.2-1.2,1.2s-1.2-0.5-1.2-1.2s0.5-1.2,1.2-1.2C64.2,107.3,64.7,107.8,64.7,108.4z"
							/>
						<path class="st0" d="M58.9,108.4c0,0.7-0.5,1.2-1.2,1.2s-1.2-0.5-1.2-1.2s0.5-1.2,1.2-1.2C58.4,107.3,58.9,107.8,58.9,108.4z"
							/>
						<path class="st0" d="M53.2,108.4c0,0.7-0.5,1.2-1.2,1.2s-1.2-0.5-1.2-1.2s0.5-1.2,1.2-1.2C52.6,107.3,53.2,107.8,53.2,108.4z"
							/>
					</g>
				</g>
			</g>
		</g>
		<g>
			<g>
				<g>
					<path class="st0" d="M142.6,124.9c0-5.9-3.9-10.9-9.3-12.6c-0.8-6.2-6-10.9-12.4-10.9c-2.6,0-4.9,0.8-6.9,2.1
						c-2-1.3-4.4-2.1-6.9-2.1c-6.4,0-11.6,4.8-12.4,10.9c-5.4,1.7-9.3,6.7-9.3,12.6c0,7.3,5.9,13.2,13.2,13.2h30.9l0,0l0,0l0,0
						C136.8,138,142.6,132.2,142.6,124.9z"/>
				</g>
				<g>
					<g>
						<rect x="92.7" y="152.8" class="st4" width="42.8" height="3.2"/>
						<rect x="92.7" y="137.4" class="st4" width="42.8" height="3.2"/>
					</g>
					<path class="st5" d="M137.4,169.5H90.6c-1.2,0-2.2-1-2.2-2.2v-9.9c0-1.2,1-2.2,2.2-2.2h46.8c1.2,0,2.2,1,2.2,2.2v9.9
						C139.6,168.6,138.7,169.5,137.4,169.5z"/>
					<path class="st6" d="M109.7,155.2l-2.3,14.3H90.6c-1.2,0-2.2-1-2.2-2.2v-9.9c0-1.2,1-2.2,2.2-2.2L109.7,155.2L109.7,155.2z"/>
					<rect x="91.6" y="158.4" class="st4" width="44.9" height="8"/>
					<g>
						<path class="st0" d="M132.9,162.4c0,0.8-0.6,1.4-1.4,1.4c-0.8,0-1.4-0.6-1.4-1.4c0-0.8,0.6-1.4,1.4-1.4
							C132.3,161,132.9,161.6,132.9,162.4z"/>
						<path class="st0" d="M127,162.4c0,0.7-0.5,1.2-1.2,1.2s-1.2-0.5-1.2-1.2s0.5-1.2,1.2-1.2S127,161.7,127,162.4z"/>
						<path class="st3" d="M121.2,162.4c0,0.7-0.5,1.2-1.2,1.2s-1.2-0.5-1.2-1.2s0.5-1.2,1.2-1.2S121.2,161.7,121.2,162.4z"/>
						<path class="st0" d="M115.5,162.4c0,0.7-0.5,1.2-1.2,1.2s-1.2-0.5-1.2-1.2s0.5-1.2,1.2-1.2
							C114.9,161.2,115.5,161.7,115.5,162.4z"/>
						<path class="st3" d="M109.7,162.4c0,0.7-0.5,1.2-1.2,1.2s-1.2-0.5-1.2-1.2s0.5-1.2,1.2-1.2S109.7,161.7,109.7,162.4z"/>
					</g>
					<path class="st5" d="M135.6,153.9H92.4c-2.2,0-4-1.8-4-4v-6.3c0-2.2,1.8-4,4-4h43.2c2.2,0,4,1.8,4,4v6.3
						C139.6,152.1,137.8,153.9,135.6,153.9z"/>
					<path class="st6" d="M112.2,139.6l-2.3,14.3H90.6c-1.2,0-2.2-1-2.2-2.2v-9.9c0-1.2,1-2.2,2.2-2.2L112.2,139.6L112.2,139.6z"/>
					<rect x="91.5" y="142.7" class="st4" width="44.9" height="8"/>
					<path class="st5" d="M135.6,138.4H92.4c-2.2,0-4-1.8-4-4v-6.3c0-2.2,1.8-4,4-4h43.2c2.2,0,4,1.8,4,4v6.3
						C139.6,136.6,137.8,138.4,135.6,138.4z"/>
					<path class="st6" d="M114.7,124.1l-2.3,14.3H90.6c-1.2,0-2.2-1-2.2-2.2v-9.9c0-1.2,1-2.2,2.2-2.2H114.7L114.7,124.1z"/>
					<rect x="91.6" y="127.3" class="st4" width="44.9" height="8"/>
					<g>
						<path class="st0" d="M132.9,146.7c0,0.8-0.6,1.4-1.4,1.4c-0.8,0-1.4-0.6-1.4-1.4c0-0.8,0.6-1.4,1.4-1.4
							C132.3,145.3,132.9,146,132.9,146.7z"/>
						<path class="st0" d="M127,146.7c0,0.7-0.5,1.2-1.2,1.2s-1.2-0.5-1.2-1.2s0.5-1.2,1.2-1.2S127,146.1,127,146.7z"/>
						<path class="st3" d="M121.2,146.7c0,0.7-0.5,1.2-1.2,1.2s-1.2-0.5-1.2-1.2s0.5-1.2,1.2-1.2S121.2,146.1,121.2,146.7z"/>
						<path class="st0" d="M115.5,146.7c0,0.7-0.5,1.2-1.2,1.2s-1.2-0.5-1.2-1.2s0.5-1.2,1.2-1.2
							C114.9,145.5,115.5,146.1,115.5,146.7z"/>
						<path class="st3" d="M109.7,146.7c0,0.7-0.5,1.2-1.2,1.2s-1.2-0.5-1.2-1.2s0.5-1.2,1.2-1.2S109.7,146.1,109.7,146.7z"/>
					</g>
					<g>
						<path class="st0" d="M132.9,131.3c0,0.8-0.6,1.4-1.4,1.4c-0.8,0-1.4-0.6-1.4-1.4s0.6-1.4,1.4-1.4
							C132.3,129.9,132.9,130.5,132.9,131.3z"/>
						<path class="st3" d="M127,131.3c0,0.7-0.5,1.2-1.2,1.2s-1.2-0.5-1.2-1.2s0.5-1.2,1.2-1.2S127,130.6,127,131.3z"/>
						<path class="st3" d="M121.2,131.3c0,0.7-0.5,1.2-1.2,1.2s-1.2-0.5-1.2-1.2s0.5-1.2,1.2-1.2S121.2,130.6,121.2,131.3z"/>
						<path class="st0" d="M115.5,131.3c0,0.7-0.5,1.2-1.2,1.2s-1.2-0.5-1.2-1.2s0.5-1.2,1.2-1.2
							C114.9,130.1,115.5,130.6,115.5,131.3z"/>
						<path class="st0" d="M109.7,131.3c0,0.7-0.5,1.2-1.2,1.2s-1.2-0.5-1.2-1.2s0.5-1.2,1.2-1.2S109.7,130.6,109.7,131.3z"/>
					</g>
				</g>
			</g>
		</g>
		<g>
			<g>
				<g>
					<path class="st0" d="M222.9,121.4c0-7.5-4.9-13.9-11.7-16c-1-7.8-7.6-13.8-15.7-13.8c-3.2,0-6.3,1-8.8,2.7
						c-2.5-1.7-5.5-2.7-8.8-2.7c-8.1,0-14.7,6-15.7,13.8c-6.8,2.1-11.7,8.5-11.7,16c0,9.3,7.5,16.8,16.8,16.8h39.2l0,0l0,0l0,0
						C215.6,138,222.9,130.6,222.9,121.4z"/>
				</g>
				<g>
					<g>
						<rect x="149.3" y="130" class="st4" width="42.8" height="3.2"/>
						<rect x="149.3" y="114.6" class="st4" width="42.8" height="3.2"/>
					</g>
					<path class="st5" d="M194,146.7h-46.8c-1.2,0-2.2-1-2.2-2.2v-9.9c0-1.2,1-2.2,2.2-2.2H194c1.2,0,2.2,1,2.2,2.2v9.9
						C196.2,145.7,195.2,146.7,194,146.7z"/>
					<path class="st6" d="M166.2,132.4l-2.3,14.3h-16.7c-1.2,0-2.2-1-2.2-2.2v-9.9c0-1.2,1-2.2,2.2-2.2L166.2,132.4L166.2,132.4z"/>
					<rect x="148.1" y="135.6" class="st4" width="44.9" height="8"/>
					<g>
						<path class="st0" d="M189.5,139.6c0,0.8-0.6,1.4-1.4,1.4c-0.8,0-1.4-0.6-1.4-1.4c0-0.8,0.6-1.4,1.4-1.4
							C188.9,138.2,189.5,138.8,189.5,139.6z"/>
						<circle class="st0" cx="182.3" cy="139.6" r="1.2"/>
						<path class="st3" d="M177.8,139.6c0,0.7-0.5,1.2-1.2,1.2s-1.2-0.5-1.2-1.2s0.5-1.2,1.2-1.2
							C177.2,138.4,177.8,138.9,177.8,139.6z"/>
						<path class="st0" d="M172,139.6c0,0.7-0.5,1.2-1.2,1.2s-1.2-0.5-1.2-1.2s0.5-1.2,1.2-1.2C171.5,138.4,172,138.9,172,139.6z"/>
						<path class="st3" d="M166.2,139.6c0,0.7-0.5,1.2-1.2,1.2s-1.2-0.5-1.2-1.2s0.5-1.2,1.2-1.2
							C165.7,138.4,166.2,138.9,166.2,139.6z"/>
					</g>
					<path class="st5" d="M192.2,131H149c-2.2,0-4-1.8-4-4v-6.3c0-2.2,1.8-4,4-4h43.2c2.2,0,4,1.8,4,4v6.3
						C196.2,129.2,194.4,131,192.2,131z"/>
					<path class="st6" d="M168.8,116.7l-2.3,14.3h-19.3c-1.2,0-2.2-1-2.2-2.2v-9.9c0-1.2,1-2.2,2.2-2.2L168.8,116.7L168.8,116.7z"/>
					<rect x="148.1" y="119.9" class="st4" width="44.9" height="8"/>
					<path class="st5" d="M192.2,115.6H149c-2.2,0-4-1.8-4-4v-6.3c0-2.2,1.8-4,4-4h43.2c2.2,0,4,1.8,4,4v6.3
						C196.2,113.8,194.4,115.6,192.2,115.6z"/>
					<path class="st6" d="M171.3,101.3l-2.3,14.3h-21.8c-1.2,0-2.2-1-2.2-2.2v-9.9c0-1.2,1-2.2,2.2-2.2L171.3,101.3L171.3,101.3z"/>
					<rect x="148.1" y="104.5" class="st4" width="44.9" height="8"/>
					<g>
						<path class="st0" d="M189.5,123.9c0,0.8-0.6,1.4-1.4,1.4c-0.8,0-1.4-0.6-1.4-1.4s0.6-1.4,1.4-1.4S189.5,123.1,189.5,123.9z"/>
						<path class="st0" d="M183.5,123.9c0,0.7-0.5,1.2-1.2,1.2s-1.2-0.5-1.2-1.2s0.5-1.2,1.2-1.2S183.5,123.2,183.5,123.9z"/>
						<path class="st3" d="M177.8,123.9c0,0.7-0.5,1.2-1.2,1.2s-1.2-0.5-1.2-1.2s0.5-1.2,1.2-1.2
							C177.2,122.7,177.8,123.2,177.8,123.9z"/>
						<path class="st0" d="M172,123.9c0,0.7-0.5,1.2-1.2,1.2s-1.2-0.5-1.2-1.2s0.5-1.2,1.2-1.2S172,123.2,172,123.9z"/>
						<path class="st3" d="M166.2,123.9c0,0.7-0.5,1.2-1.2,1.2s-1.2-0.5-1.2-1.2s0.5-1.2,1.2-1.2S166.2,123.2,166.2,123.9z"/>
					</g>
					<g>
						<path class="st0" d="M189.5,108.4c0,0.8-0.6,1.4-1.4,1.4c-0.8,0-1.4-0.6-1.4-1.4s0.6-1.4,1.4-1.4
							C188.9,107.1,189.5,107.7,189.5,108.4z"/>
						<path class="st3" d="M183.5,108.4c0,0.7-0.5,1.2-1.2,1.2s-1.2-0.5-1.2-1.2s0.5-1.2,1.2-1.2C183,107.3,183.5,107.8,183.5,108.4
							z"/>
						<path class="st3" d="M177.8,108.4c0,0.7-0.5,1.2-1.2,1.2s-1.2-0.5-1.2-1.2s0.5-1.2,1.2-1.2
							C177.2,107.3,177.8,107.8,177.8,108.4z"/>
						<path class="st0" d="M172,108.4c0,0.7-0.5,1.2-1.2,1.2s-1.2-0.5-1.2-1.2s0.5-1.2,1.2-1.2C171.5,107.3,172,107.8,172,108.4z"/>
						<path class="st0" d="M166.2,108.4c0,0.7-0.5,1.2-1.2,1.2s-1.2-0.5-1.2-1.2s0.5-1.2,1.2-1.2
							C165.7,107.3,166.2,107.8,166.2,108.4z"/>
					</g>
				</g>
			</g>
		</g>
		<g>
			<path class="st0" d="M145.7,62.8H82.3c-5.8,0-10.5-4.7-10.5-10.5V16.2c0-4.9,3.9-8.8,8.8-8.8h66.8c4.9,0,8.8,3.9,8.8,8.8v36.1
				C156.2,58.1,151.5,62.8,145.7,62.8z"/>
			<path class="st7" d="M113.3,7.4H76.7c-2.7,0-4.8,2.2-4.8,4.8V57c0,3.2,2.6,5.8,5.8,5.8h24.6L113.3,7.4z"/>
			<path class="st8" d="M147.4,71.9H80.6c-4.9,0-8.8-3.9-8.8-8.8V16.5h84.4v46.6C156.2,68,152.3,71.9,147.4,71.9z"/>
			<path class="st9" d="M74.1,65V16.5H154V65c0,2.6-2.1,4.7-4.7,4.7H78.8C76.2,69.6,74.1,67.5,74.1,65z"/>
			<g>
				<path class="st8" d="M129,53.7v-5l-3.4-0.5c-0.3-1.1-0.7-2.2-1.3-3.1l2.1-2.7l-3.5-3.5l-2.8,2.1c-1-0.6-2-1-3.1-1.3l-0.5-3.4h-5
					l-0.5,3.4c-1.1,0.3-2.2,0.7-3.1,1.3l-2.7-2.1l-3.5,3.5l2.1,2.7c-0.6,1-1,2-1.3,3.1L99,48.8v5l3.4,0.5c0.3,1.1,0.7,2.2,1.3,3.1
					l-2.1,2.7l3.5,3.5l2.7-2.1c1,0.6,2,1,3.1,1.3l0.5,3.4h5l0.5-3.4c1.1-0.3,2.2-0.7,3.1-1.3l2.8,2.1l3.5-3.5l-2.1-2.8
					c0.6-1,1-2,1.3-3.1L129,53.7z M114,58.8c-4.2,0-7.5-3.4-7.5-7.5s3.3-7.5,7.5-7.5c4.1,0,7.5,3.4,7.5,7.5S118.2,58.8,114,58.8z"/>
				<path class="st4" d="M114,58.8c-4.1,0-7.5-3.4-7.5-7.5s3.3-7.5,7.5-7.5v-7.5h-2.5l-0.5,3.4c-1.1,0.3-2.2,0.7-3.1,1.3l-2.7-2.1
					l-3.5,3.5l2.1,2.7c-0.6,1-1,2-1.3,3.1L99,48.8v5l3.4,0.5c0.3,1.1,0.7,2.2,1.3,3.1l-2.1,2.7l3.5,3.5l2.7-2.1c1,0.6,2,1,3.1,1.3
					l0.5,3.4h2.5L114,58.8L114,58.8z"/>
			</g>
			<path class="st10" d="M147.5,33.7v-3.5l-2.4-0.3c-0.2-0.8-0.5-1.5-0.9-2.2l1.5-2l-2.5-2.5l-2,1.5c-0.7-0.4-1.4-0.7-2.2-0.9
				l-0.3-2.4H135l-0.3,2.4c-0.8,0.2-1.5,0.5-2.2,0.9l-1.9-1.5l-2.5,2.5l1.5,2c-0.4,0.7-0.7,1.4-0.9,2.2l-2.4,0.3v3.5l2.4,0.3
				c0.2,0.8,0.5,1.5,0.9,2.2l-1.5,2l2.5,2.5l1.9-1.5c0.7,0.4,1.4,0.7,2.2,0.9l0.3,2.4h3.5l0.3-2.4c0.8-0.2,1.5-0.5,2.2-0.9l2,1.5
				l2.5-2.5l-1.5-2c0.4-0.7,0.7-1.4,0.9-2.2L147.5,33.7z M136.8,37.3c-3,0-5.3-2.4-5.3-5.3s2.4-5.4,5.3-5.4c3,0,5.3,2.4,5.3,5.4
				S139.7,37.3,136.8,37.3z"/>
			<rect x="77" y="19.3" class="st5" width="26.7" height="2.2"/>
			<rect x="77" y="24.5" class="st5" width="26.7" height="2.2"/>
			<rect x="77" y="29.8" class="st5" width="26.7" height="2.2"/>
			<rect x="77" y="35" class="st5" width="20.9" height="2.2"/>
			<rect x="77" y="40.3" class="st5" width="20.9" height="2.2"/>
			<g>
				<path class="st3" d="M136.3,12c0,1-0.8,1.9-1.9,1.9c-1,0-1.9-0.8-1.9-1.9c0-1,0.8-1.9,1.9-1.9C135.4,10.2,136.3,11,136.3,12z"/>
				<path class="st3" d="M143.9,12c0,1-0.8,1.9-1.9,1.9c-1,0-1.9-0.8-1.9-1.9c0-1,0.8-1.9,1.9-1.9C143,10.2,143.9,11,143.9,12z"/>
				<path class="st3" d="M151.4,12c0,1-0.8,1.9-1.9,1.9c-1,0-1.9-0.8-1.9-1.9c0-1,0.8-1.9,1.9-1.9C150.6,10.2,151.4,11,151.4,12z"/>
			</g>
			<g>
				<path class="st0" d="M132.1,63.9c0,0.8-0.7,1.5-1.5,1.5s-1.5-0.7-1.5-1.5s0.7-1.5,1.5-1.5C131.4,62.4,132.1,63.1,132.1,63.9z"/>
				<path class="st0" d="M138.5,63.9c0,0.8-0.7,1.5-1.5,1.5s-1.5-0.7-1.5-1.5s0.7-1.5,1.5-1.5S138.5,63.1,138.5,63.9z"/>
				<path class="st0" d="M145.5,63.9c0,1.2-0.9,2.1-2.1,2.1c-1.2,0-2.1-0.9-2.1-2.1s0.9-2.1,2.1-2.1S145.5,62.8,145.5,63.9z"/>
				<path class="st0" d="M151.3,63.9c0,0.8-0.7,1.5-1.5,1.5s-1.5-0.7-1.5-1.5s0.7-1.5,1.5-1.5C150.7,62.4,151.3,63.1,151.3,63.9z"/>
				<path class="st0" d="M79.7,63.9c0,0.8-0.7,1.5-1.5,1.5s-1.5-0.7-1.5-1.5s0.7-1.5,1.5-1.5S79.7,63.1,79.7,63.9z"/>
				<path class="st0" d="M86.1,63.9c0,0.8-0.7,1.5-1.5,1.5s-1.5-0.7-1.5-1.5s0.7-1.5,1.5-1.5C85.5,62.4,86.1,63.1,86.1,63.9z"/>
				<path class="st0" d="M92.5,63.9c0,0.8-0.7,1.5-1.5,1.5s-1.5-0.7-1.5-1.5s0.7-1.5,1.5-1.5C91.9,62.4,92.5,63.1,92.5,63.9z"/>
				<path class="st0" d="M99,63.9c0,0.8-0.7,1.5-1.5,1.5S96,64.7,96,63.9s0.7-1.5,1.5-1.5S99,63.1,99,63.9z"/>
			</g>
		</g>
	</g>
	<path class="st11" d="M66.5,21.8v-4.1l-2.8-0.4c-0.2-0.9-0.6-1.8-1.1-2.6l1.7-2.2l-2.9-2.9l-2.3,1.7c-0.8-0.5-1.6-0.8-2.6-1.1
		l-0.4-2.8H52l-0.4,2.8c-0.9,0.2-1.8,0.6-2.6,1.1l-2.2-1.7L44,12.5l1.7,2.2c-0.5,0.8-0.8,1.6-1.1,2.6l-2.8,0.4v4.1l2.8,0.4
		c0.2,0.9,0.6,1.8,1.1,2.6L44,27l2.9,2.9l2.2-1.7c0.8,0.5,1.6,0.9,2.6,1.1l0.4,2.8h4.1l0.4-2.8c0.9-0.2,1.8-0.6,2.6-1.1l2.3,1.7
		l2.9-2.9l-1.7-2.3c0.5-0.8,0.8-1.7,1.1-2.6L66.5,21.8z M54.2,24.9c-2.8,0-5.1-2.3-5.1-5.1s2.3-5.1,5.1-5.1s5.1,2.3,5.1,5.1
		S57,24.9,54.2,24.9z"/>
	<path class="st12" d="M193.3,78.1v-3.5l-2.4-0.3c-0.2-0.8-0.5-1.5-0.9-2.2l1.5-1.9l-2.5-2.5l-2,1.5c-0.7-0.4-1.4-0.7-2.2-0.9
		l-0.3-2.4H181l-0.3,2.4c-0.8,0.2-1.5,0.5-2.2,0.9l-1.9-1.5l-2.5,2.5l1.5,1.9c-0.4,0.7-0.7,1.4-0.9,2.2l-2.4,0.3v3.5l2.4,0.3
		c0.2,0.8,0.5,1.5,0.9,2.2l-1.5,1.9l2.5,2.5l1.9-1.5c0.7,0.4,1.4,0.7,2.2,0.9l0.3,2.4h3.5l0.3-2.4c0.8-0.2,1.5-0.5,2.2-0.9l2,1.5
		l2.5-2.5l-1.5-2c0.4-0.7,0.7-1.4,0.9-2.2L193.3,78.1z M182.6,80.7c-2.4,0-4.4-2-4.4-4.4s2-4.4,4.4-4.4s4.4,2,4.4,4.4
		S185.1,80.7,182.6,80.7z"/>
	<path class="st11" d="M162.6,158.9v-2.3l-1.6-0.2c-0.1-0.5-0.3-1-0.6-1.5l1-1.3l-1.6-1.7l-1.3,1c-0.4-0.3-0.9-0.5-1.5-0.6l-0.2-1.6
		h-2.3l-0.2,1.6c-0.5,0.1-1,0.3-1.5,0.6l-1.3-1l-1.7,1.7l1,1.3c-0.3,0.4-0.5,0.9-0.6,1.5l-1.6,0.2v2.3l1.6,0.2
		c0.1,0.5,0.3,1,0.6,1.5l-1,1.3l1.7,1.6l1.3-1c0.4,0.3,0.9,0.5,1.5,0.6l0.2,1.6h2.3l0.2-1.6c0.5-0.1,1-0.3,1.5-0.6l1.3,1l1.6-1.6
		l-1-1.3c0.3-0.5,0.5-1,0.6-1.5L162.6,158.9z M155.6,160.7c-1.6,0-2.9-1.3-2.9-2.9s1.3-2.9,2.9-2.9c1.6,0,2.9,1.3,2.9,2.9
		S157.2,160.7,155.6,160.7z"/>
	<g>
		<path class="st12" d="M162.4,19.3c0,0.8-0.7,1.5-1.5,1.5s-1.5-0.7-1.5-1.5s0.7-1.5,1.5-1.5S162.4,18.5,162.4,19.3z"/>
		<path class="st12" d="M168.8,19.3c0,0.8-0.7,1.5-1.5,1.5s-1.5-0.7-1.5-1.5s0.7-1.5,1.5-1.5S168.8,18.5,168.8,19.3z"/>
		<path class="st12" d="M175.8,19.3c0,1.2-0.9,2.1-2.1,2.1c-1.2,0-2.1-0.9-2.1-2.1s0.9-2.1,2.1-2.1
			C174.9,17.2,175.8,18.2,175.8,19.3z"/>
		<path class="st12" d="M181.6,19.3c0,0.8-0.7,1.5-1.5,1.5s-1.5-0.7-1.5-1.5s0.7-1.5,1.5-1.5C181,17.8,181.6,18.5,181.6,19.3z"/>
	</g>
	<g>
		<path class="st12" d="M73.8,152.8c0-0.8,0.7-1.5,1.5-1.5s1.5,0.7,1.5,1.5s-0.7,1.5-1.5,1.5S73.8,153.7,73.8,152.8z"/>
		<path class="st12" d="M67.4,152.8c0-0.8,0.7-1.5,1.5-1.5s1.5,0.7,1.5,1.5s-0.7,1.5-1.5,1.5S67.4,153.7,67.4,152.8z"/>
		<path class="st12" d="M60.4,152.8c0-1.2,0.9-2.1,2.1-2.1c1.2,0,2.1,0.9,2.1,2.1c0,1.2-0.9,2.1-2.1,2.1
			C61.3,154.9,60.4,154,60.4,152.8z"/>
		<path class="st12" d="M54.6,152.8c0-0.8,0.7-1.5,1.5-1.5s1.5,0.7,1.5,1.5s-0.7,1.5-1.5,1.5C55.2,154.3,54.6,153.7,54.6,152.8z"/>
	</g>
	<g>
		<g>
			<g>
				<g>
					<rect x="148.1" y="98.4" class="st13" width="2.5" height="1.5"/>
					<rect x="148.1" y="95.6" class="st13" width="2.5" height="1.5"/>
					<rect x="148.1" y="92.8" class="st13" width="2.5" height="1.5"/>
					<rect x="148.1" y="90" class="st13" width="2.5" height="1.5"/>
					<rect x="148.1" y="87.2" class="st13" width="2.5" height="1.5"/>
					<rect x="148.1" y="84.4" class="st13" width="2.5" height="1.5"/>
					<rect x="148.1" y="81.6" class="st13" width="2.5" height="1.5"/>
					<rect x="148.1" y="78.8" class="st13" width="2.5" height="1.5"/>
					<rect x="148.1" y="76" class="st13" width="2.5" height="1.5"/>
					<rect x="148.1" y="73.2" class="st13" width="2.5" height="1.5"/>
				</g>
			</g>
		</g>
		<g>
			<g>
				<g>
					<rect x="112.8" y="98.4" class="st13" width="2.5" height="1.5"/>
					<rect x="112.8" y="95.6" class="st13" width="2.5" height="1.5"/>
					<rect x="112.8" y="92.8" class="st13" width="2.5" height="1.5"/>
					<rect x="112.8" y="90" class="st13" width="2.5" height="1.5"/>
					<rect x="112.8" y="87.2" class="st13" width="2.5" height="1.5"/>
					<rect x="112.8" y="84.4" class="st13" width="2.5" height="1.5"/>
					<rect x="112.8" y="81.6" class="st13" width="2.5" height="1.5"/>
					<rect x="112.8" y="78.8" class="st13" width="2.5" height="1.5"/>
					<rect x="112.8" y="76" class="st13" width="2.5" height="1.5"/>
					<rect x="112.8" y="73.2" class="st13" width="2.5" height="1.5"/>
				</g>
			</g>
		</g>
		<g>
			<g>
				<g>
					<rect x="77.4" y="98.4" class="st13" width="2.5" height="1.5"/>
					<rect x="77.4" y="95.6" class="st13" width="2.5" height="1.5"/>
					<rect x="77.4" y="92.8" class="st13" width="2.5" height="1.5"/>
					<rect x="77.4" y="90" class="st13" width="2.5" height="1.5"/>
					<rect x="77.4" y="87.2" class="st13" width="2.5" height="1.5"/>
					<rect x="77.4" y="84.4" class="st13" width="2.5" height="1.5"/>
					<rect x="77.4" y="81.6" class="st13" width="2.5" height="1.5"/>
					<rect x="77.4" y="78.8" class="st13" width="2.5" height="1.5"/>
					<rect x="77.4" y="76" class="st13" width="2.5" height="1.5"/>
					<rect x="77.4" y="73.2" class="st13" width="2.5" height="1.5"/>
				</g>
			</g>
		</g>
	</g>
</g>
</svg>
