<?xml version="1.0" encoding="utf-8"?>
<!-- Generator: Adobe Illustrator 21.0.0, SVG Export Plug-In . SVG Version: 6.00 Build 0)  -->
<svg version="1.1" id="Capa_1" xmlns="http://www.w3.org/2000/svg" xmlns:xlink="http://www.w3.org/1999/xlink" x="0px" y="0px"
	 viewBox="0 0 115 107" style="enable-background:new 0 0 115 107;" xml:space="preserve">
<style type="text/css">
	.st0{fill:#666666;stroke:#666666;stroke-miterlimit:10;}
</style>
<title>tech-icon1</title>
<g>
	<path class="st0" d="M56,35c1.2-1.1,2.5-2.1,3.7-3c1.7-1.2,3.5-2.2,5.6-2.6c2.5-0.4,4.6,0.7,5.7,2.9c0.7,1.6,1,3.3,0.9,5
		c-0.1,1.9-0.5,3.7-0.7,5.5c0,0.2-0.1,0.4-0.1,0.5c1.3,0.5,2.6,1,3.9,1.6c1.7,0.7,3.4,1.7,4.6,3.2c2.1,2.4,2.2,5.1,0.1,7.5
		c-0.3,0.4-0.7,0.7-1.1,1.1c-2.1,1.7-4.5,2.7-7.1,3.6c-0.2,0.1-0.4,0.1-0.7,0.2c0.2,1.2,0.6,2.4,0.7,3.6c0.4,2.4,0.6,4.7-0.2,7.1
		c-0.6,2-1.7,3.5-3.9,4c-1.4,0.4-2.9,0.1-4.2-0.4c-2.7-1.1-4.9-2.8-6.9-4.7c-0.1-0.1-0.2-0.2-0.4-0.3c0,0-0.1,0-0.1-0.1
		c-0.3,0.3-0.6,0.6-0.9,0.9c-2,1.8-4.1,3.4-6.7,4.3c-1.1,0.4-2.2,0.6-3.4,0.4c-1.7-0.2-2.9-1.2-3.8-2.7c-0.7-1.4-1-2.9-1.1-4.4
		C40,65.7,40.4,63.3,41,61c0.1-0.2,0.1-0.4,0.1-0.6c-1-0.4-2.1-0.7-3-1.1c-1.7-0.7-3.4-1.6-4.9-2.9c-1.2-1.1-2.2-2.4-2.4-4.1
		c-0.2-1.5,0.3-2.7,1.2-3.9c1.3-1.7,3.1-2.8,5-3.7c1.2-0.6,2.6-1,3.9-1.6c-0.1-0.7-0.3-1.6-0.5-2.4c-0.4-2.4-0.6-4.8,0.1-7.2
		c0.1-0.3,0.2-0.6,0.3-0.9c1.1-2.7,3.4-3.9,6.2-3.4c2.3,0.5,4.2,1.7,6.1,3.1C54.2,33.3,55.1,34.2,56,35z M56.1,60.2
		c1.5-0.1,3-0.1,4.5-0.2c0.2,0,0.6-0.2,0.7-0.4c1.4-2.3,2.7-4.6,4-7c0.1-0.2,0.1-0.6,0-0.7c-1.3-2.7-2.8-5.3-4.5-7.8
		c-0.1-0.2-0.4-0.4-0.6-0.4c-2.7,0-5.3,0-8,0c-0.2,0-0.5,0.2-0.7,0.4c-1.7,2.5-3.2,5.1-4.5,7.8c-0.1,0.2-0.1,0.6,0,0.7
		c1.3,2.3,2.6,4.6,3.9,6.9c0.2,0.3,0.4,0.4,0.7,0.4C53.1,60,54.6,60.2,56.1,60.2z M57.6,68.1c1.2,0.9,2.4,2,3.7,2.9
		c1.2,0.9,2.6,1.6,4,1.9c1.9,0.4,3.3-0.3,4-2.2c0.1-0.2,0.1-0.4,0.2-0.6c0.4-1.9,0.3-3.8,0.1-5.7c-0.2-1.2-0.4-2.4-0.7-3.5
		c-2.2,0.3-4.2,0.6-6.3,0.9c-0.1,0-0.2,0.1-0.3,0.2C60.7,64.2,59.2,66.1,57.6,68.1z M43.4,61.1c-0.7,2.4-1.1,4.9-0.9,7.5
		c0.1,0.9,0.2,1.7,0.6,2.6c0.6,1.5,1.7,2.1,3.2,1.9c0.3,0,0.6-0.1,0.8-0.2c3-0.9,5.2-2.8,7.4-4.9c0-0.1,0-0.1-0.1-0.2
		c-1.5-1.9-2.9-3.7-4.4-5.5c-0.1-0.1-0.2-0.2-0.4-0.2C47.5,61.7,45.5,61.4,43.4,61.1z M54.5,36.6c-1.6-1.5-3.2-2.9-5.2-3.9
		c-0.7-0.4-1.6-0.7-2.4-0.9c-2.2-0.5-3.5,0.3-4.2,2.5c-0.1,0.1-0.1,0.3-0.1,0.4c-0.4,1.9-0.2,3.9,0.1,5.8c0.1,0.8,0.3,1.6,0.4,2.2
		c2.4-0.4,4.7-0.7,7-1.1c0.2,0,0.4-0.1,0.5-0.2C51.9,39.8,53.1,38.2,54.5,36.6z M69,42.7c0.2-1.2,0.5-2.5,0.6-3.8
		c0.2-1.7,0.2-3.5-0.4-5.1c-0.6-1.7-1.9-2.5-3.8-2.1c-0.5,0.1-1,0.2-1.5,0.4c-2.4,1.1-4.4,2.7-6.3,4.5c1.3,1.6,2.6,3.2,3.9,4.9
		c0.1,0.1,0.2,0.1,0.4,0.2C64.2,42,66.6,42.3,69,42.7z M70.6,45.5c-0.1,0.1-0.1,0.2-0.1,0.2c-0.8,2.1-1.6,4.2-2.4,6.3
		c-0.1,0.2-0.1,0.5,0,0.7c0.7,1.7,1.4,3.5,2.1,5.2c0.1,0.1,0.1,0.2,0.2,0.4c1-0.4,1.9-0.7,2.9-1.1c0.8-0.4,1.6-0.7,2.4-1.2
		c1.1-0.6,2-1.3,2.7-2.2c1-1.3,1-2.7,0-4c-0.4-0.4-0.7-0.9-1.2-1.2c-1.4-1.2-3.1-1.9-4.8-2.6C71.8,45.9,71.1,45.7,70.6,45.5z
		 M41.8,58.3c0.1-0.1,0.1-0.1,0.1-0.2c0.7-1.9,1.5-3.7,2.2-5.6c0.1-0.2,0-0.4-0.1-0.6c-0.6-1.6-1.2-3.1-1.9-4.7
		c-0.2-0.6-0.4-1.1-0.6-1.7c-0.4,0.1-0.8,0.2-1.2,0.4c-2.1,0.7-4.2,1.6-5.8,3.2c-2,1.9-2,3.8,0,5.6C36.7,56.6,39.3,57.5,41.8,58.3z
		 M59.4,62.3c-2.3,0-4.5,0-6.8,0c1.2,1.4,2.2,2.7,3.4,4.1C57.2,65,58.3,63.7,59.4,62.3z M68.4,44.9c-1.7-0.3-3.4-0.6-5.1-0.9
		c1.1,2,2.2,3.8,3.4,5.7C67.3,48.1,67.8,46.5,68.4,44.9z M43.8,44.9c0.6,1.6,1.1,3.2,1.7,4.8c1.1-1.9,2.2-3.7,3.3-5.7
		C47,44.3,45.4,44.6,43.8,44.9z M68.2,58.9c-0.5-1.4-1-2.6-1.5-4C65.8,56.6,65,58,64,59.7C65.4,59.4,66.7,59.2,68.2,58.9z
		 M45.5,54.9c-0.5,1.3-1,2.6-1.5,4c1.4,0.2,2.7,0.5,4.2,0.7C47.3,58,46.4,56.6,45.5,54.9z M56.1,38.2c-0.9,1.1-1.7,2.1-2.7,3.2
		c1.8,0,3.5,0,5.3,0c-0.4-0.6-0.8-1.1-1.2-1.5C57.1,39.3,56.6,38.8,56.1,38.2z"/>
	<path class="st0" d="M60.9,52.3c0,2.6-2.1,4.7-4.7,4.7s-4.7-2.1-4.7-4.7s2.1-4.7,4.7-4.7S60.9,49.7,60.9,52.3z"/>
</g>
</svg>
