<?xml version="1.0" encoding="utf-8"?>
<!-- Generator: Adobe Illustrator 21.0.0, SVG Export Plug-In . SVG Version: 6.00 Build 0)  -->
<svg version="1.1" id="Layer_1" xmlns="http://www.w3.org/2000/svg" xmlns:xlink="http://www.w3.org/1999/xlink" x="0px" y="0px"
	 viewBox="0 0 150 150" style="enable-background:new 0 0 150 150;" xml:space="preserve">
<style type="text/css">
	.st0{fill:#666666;}
</style>
<title>Asset 2</title>
<g id="Layer_2">
	<g id="Layer_1-2">
		<path class="st0" d="M84.6,77.3c0-12.1,9.9-21.9,22-21.9c12.1,0,21.9,9.9,21.9,22c0,12.1-9.9,21.9-22,21.9c0,0,0,0-0.1,0
			C94.3,99.3,84.5,89.5,84.6,77.3C84.6,77.4,84.6,77.3,84.6,77.3z M110.3,90v-8.3h8.9v-8.5h-8.9v-8.3h-7.8v8.3h-9c0,2.7,0,5.3,0,7.9
			c0,0.2,0.5,0.5,0.8,0.6c2,0.1,4,0,6.1,0h2.1V90L110.3,90z"/>
		<path class="st0" d="M74.3,63.6c0.3-3.2,0.5-6.3,0.7-9.5h1.4c3.7,0,7.4,0,11.1,0c0.8,0.1,1.7-0.3,2.2-1c1.3-1.6,2.9-3,4.4-4.5
			c2.3-2.3,4.6-4.5,6.8-6.9c0.9-1.1,2.3-1.7,3.7-1.8c3.1,0,6.3,0,9.4,0.1c2.3,0,3.9,1.8,3.9,4.3c0,2.2-1.8,4.1-4,4.1
			c-0.1,0-0.1,0-0.2,0c-2.2,0-4.4,0-6.6,0c-0.5,0-1.1,0.3-1.5,0.6c-1.1,1-2.1,2.1-3.2,3.1c-0.5,0.5-1.1,0.8-1.7,1
			c-5.9,1.4-11.2,4.9-14.6,9.9c-0.2,0.3-0.5,0.4-0.8,0.5C81.7,63.7,78.1,63.6,74.3,63.6z"/>
		<path class="st0" d="M71.3,66.5c-0.4,4.9-0.8,9.7-1.2,14.5H49.6c-0.4-4.8-0.8-9.6-1.2-14.5H71.3z"/>
		<path class="st0" d="M28.6,81l-3.8-14.5h20.8c0.4,4.8,0.8,9.6,1.2,14.5H28.6z"/>
		<path class="st0" d="M47.4,54.2h24.9c-0.3,3.2-0.5,6.3-0.8,9.4H48.2L47.4,54.2z"/>
		<path class="st0" d="M21.6,54.2h23c0.3,3.1,0.5,6.2,0.8,9.5h-1.1c-6.4,0-12.9,0-19.3,0c-0.8,0-1-0.2-1.2-1
			C23.1,59.9,22.3,57.1,21.6,54.2z"/>
		<path class="st0" d="M86.9,102.6c0,4.1-3.4,7.4-7.4,7.4c-4.1-0.1-7.6-3.4-7.4-7.4c0.2-4.3,3.2-7.4,7.6-7.4c4,0,7.3,3.2,7.3,7.2
			C86.9,102.4,86.9,102.5,86.9,102.6z"/>
		<path class="st0" d="M40.6,109.9c-4.1,0.3-7.6-2.8-7.8-6.9c-0.2-3.8,2.5-7.2,6.3-7.7c4-0.6,7.8,2.2,8.4,6.2c0.6,4-2.2,7.8-6.2,8.4
			C41,109.9,40.8,109.9,40.6,109.9z"/>
		<path class="st0" d="M69.8,83.9c-0.2,2.8-0.5,5.6-0.7,8.4H50.6c-0.2-2.8-0.5-5.5-0.7-8.4H69.8z"/>
		<path class="st0" d="M47.7,92.3H31.6c-0.7-2.8-1.5-5.6-2.3-8.4H47L47.7,92.3z"/>
		<path class="st0" d="M72.9,81c0.4-4.8,0.7-9.6,1.2-14.5h10c-2.2,4.5-3,9.5-2.3,14.5H72.9z"/>
		<path class="st0" d="M71.9,92.2c0.2-2.8,0.5-5.6,0.7-8.4c3.1,0,6.2,0,9.2,0c0.3,0,0.5,0.2,0.7,0.5c0.8,2.9,2.2,5.6,4.1,7.9
			L71.9,92.2z"/>
	</g>
</g>
</svg>
