<?xml version="1.0" encoding="utf-8"?>
<!-- Generator: Adobe Illustrator 21.0.0, SVG Export Plug-In . SVG Version: 6.00 Build 0)  -->
<svg version="1.1" id="Layer_1" xmlns="http://www.w3.org/2000/svg" xmlns:xlink="http://www.w3.org/1999/xlink" x="0px" y="0px"
	 viewBox="0 0 150 150" style="enable-background:new 0 0 150 150;" xml:space="preserve">
<style type="text/css">
	.st0{fill:#666666;}
</style>
<title>Asset 1</title>
<g id="Layer_2">
	<g id="Layer_1-2">
		<path class="st0" d="M75.1,44.7c0.2,0.1,0.3,0.2,0.5,0.3l51,19.6l0.6,0.3c-0.2,0.1-0.4,0.2-0.5,0.2c-6.7,2.4-13.5,4.9-20.2,7.2
			c-4.8,1.6-9.7,3-14.6,4.5c-5.4,1.7-10.9,3.3-16.3,5c-0.4,0.1-0.8,0.1-1.1,0c-10.1-3.1-20.2-6.2-30.3-9.3c-0.9-0.3-1.8-0.6-2.7-1
			l0.8-0.3c1.2-0.4,2.4-0.8,3.6-1.1c0.8-0.2,1.3-0.8,1.4-1.6c-0.1,0-0.3,0-0.4,0.1c-2.2,0.5-4.3,1-6.5,1.4c-0.3,0-0.5,0.2-0.5,0.5
			c0,0,0,0,0,0c-0.2,4.5-0.5,9.1-0.7,13.6c-0.2,3.2-0.4,6.4-0.6,9.6c0,0.3-0.2,0.6-0.5,0.7c-3.1,1.5-6.1,1.3-9.2-0.1
			c-0.2-0.1-0.3-0.3-0.3-0.5c-0.2-2.1,0-4.3,0.5-6.3c1.3-5.6,3.1-11.1,5.5-16.3c0.4-0.9,0.8-1.9,1.2-2.8c0.1-0.2,0.3-0.4,0.5-0.4
			c1-0.3,2-0.5,3.1-0.7c-0.2-0.4-0.6-0.7-1.1-0.6c-1,0.1-2.1,0.2-3.1,0.3c-0.3,0-0.5,0.2-0.6,0.4c-0.2,0.5-0.5,1-0.8,1.6l-11.1-4
			c0.3-0.1,0.4-0.2,0.6-0.3L74.2,45c0.2-0.1,0.5-0.2,0.7-0.3H75.1z"/>
		<path class="st0" d="M73,105.3c-1-0.1-2.1-0.1-3.1-0.2c-5.5-0.3-10.9-1.4-16-3.4c-2.2-0.8-4.2-1.9-6-3.3c-0.8-0.6-1.6-1.4-2.3-2.2
			c-1.2-1.3-1.8-3.1-1.8-4.9c0.1-4.9,0-9.9,0-14.8v-0.7c0.3,0.1,0.5,0.1,0.7,0.2l30,9.2c0.3,0.1,0.7,0.1,1,0c10-3.1,20-6.1,30-9.2
			l0.7-0.2c0,0.2,0,0.4,0,0.5c0,5.2,0,10.4,0,15.6c0,1.3-0.5,2.6-1.3,3.7c-1,1.3-2.2,2.5-3.6,3.4c-3.1,2-6.5,3.4-10.1,4.3
			c-4.2,1.1-8.5,1.7-12.8,1.9c-0.5,0-1,0.1-1.4,0.1L73,105.3z"/>
	</g>
</g>
</svg>
