<?xml version="1.0" encoding="utf-8"?>
<!-- Generator: Adobe Illustrator 23.0.3, SVG Export Plug-In . SVG Version: 6.00 Build 0)  -->
<svg version="1.1" id="Layer_1" xmlns="http://www.w3.org/2000/svg" xmlns:xlink="http://www.w3.org/1999/xlink" x="0px" y="0px"
	 viewBox="0 0 100 100" style="enable-background:new 0 0 100 100;" xml:space="preserve">
<title>employee_priority</title>
<g>
	<g id="Layer_1-2">
		<path id="employee_priority" d="M50,45.2c11,0,19.8-8.9,19.8-19.8S61,5.6,50,5.6s-19.8,8.9-19.8,19.8C30.2,36.3,39.1,45.2,50,45.2
			z M50,8.4c9.4,0,17,7.6,17,17s-7.6,17-17,17s-17-7.6-17-17C33,16,40.6,8.4,50,8.4z M93,91.7h-3.2V63.8c0-3.3-1.7-6.4-4.7-8.1
			l-16.5-9.5c-0.4-0.2-0.9-0.2-1.4,0c-3.2,1.7-6.6,3-10.2,3.8c-0.5,0.1-0.9,0.5-1,1l-3.6,13.9h-5L43.8,51c-0.1-0.5-0.5-0.9-1-1
			c-3.5-0.8-6.9-2.1-10-3.8c-0.4-0.2-0.9-0.2-1.4,0l-16.6,9.6c-2.9,1.6-4.7,4.7-4.7,8.1v27.8H7c-0.8-0.1-1.4,0.5-1.5,1.3
			c-0.1,0.8,0.5,1.4,1.3,1.5c0.1,0,0.2,0,0.2,0H93c0.8-0.1,1.3-0.7,1.3-1.5C94.3,92.2,93.7,91.7,93,91.7L93,91.7z M58.6,52.5
			c3.3-0.8,6.4-2,9.4-3.5l15.9,9.1c2,1.1,3.3,3.3,3.3,5.7v27.9H75.6l6.8-21.6c0.7-2.1-0.5-4.4-2.6-5c-0.4-0.1-0.8-0.2-1.2-0.2H55.3
			L58.6,52.5z M72.6,91.7H27.4l-7.1-22.4c-0.2-0.6,0.1-1.3,0.8-1.5c0.1,0,0.2-0.1,0.4-0.1h57.2c0.4,0,0.8,0.2,1,0.5
			c0.2,0.3,0.3,0.7,0.2,1.1L72.6,91.7z M12.9,63.8c0-2.3,1.2-4.5,3.3-5.7L32.1,49c2.9,1.5,6,2.7,9.2,3.5l3.3,12.4H21.4
			c-2.2,0-4,1.8-4,4c0,0.4,0.1,0.8,0.2,1.2l6.9,21.6H12.9V63.8z M50,73.4c-3.4,0-6.2,2.8-6.2,6.2c0,3.4,2.8,6.2,6.2,6.2
			s6.2-2.8,6.2-6.2c0,0,0,0,0,0C56.2,76.2,53.4,73.5,50,73.4z M50,83.1c-1.9,0-3.4-1.5-3.4-3.4c0-1.9,1.5-3.4,3.4-3.4
			c1.9,0,3.4,1.5,3.4,3.4c0,0,0,0,0,0C53.4,81.5,51.9,83.1,50,83.1z"/>
	</g>
</g>
</svg>
