<?xml version="1.0" encoding="utf-8"?>
<!-- Generator: Adobe Illustrator 23.0.3, SVG Export Plug-In . SVG Version: 6.00 Build 0)  -->
<svg version="1.1" id="Layer_1" xmlns="http://www.w3.org/2000/svg" xmlns:xlink="http://www.w3.org/1999/xlink" x="0px" y="0px"
	 viewBox="0 0 100 100" style="enable-background:new 0 0 100 100;" xml:space="preserve">
<title>helthy</title>
<g>
	<g id="Layer_1-2">
		<g id="helthy">
			<path d="M5.6,49.8c0,22.3,18,40.4,40.4,40.4c4.4,0,8.7-0.7,12.9-2.1c2.7,1.5,5.7,2.3,8.7,2.3c1.1,0,2.2-0.1,3.4-0.3l0,0
				c1.2,0.3,2.5,0.4,3.8,0.4c5.6-0.1,10.8-2.6,14.3-7c10.2-11.7,2.9-28.6,2.6-29.4c-0.3-0.5-0.8-0.9-1.4-0.8c-1.3,0.1-2.7,0.3-4,0.6
				c1.5-22.3-15.4-41.5-37.7-43C27.4,9.6,8.7,24.7,5.8,45.7C5.6,47.1,5.6,48.4,5.6,49.8z M8.6,49.8c0-8.4,2.8-16.5,8-23.1
				c-2.8,6.4-3.4,13.5-1.5,20.2c2.5,8.3,10.1,11,16.8,13.3c6.4,2.3,10.4,3.9,10.4,8.3c0,3.9-1.5,4.2-3.5,4.7
				c-0.8,0.1-1.6,0.4-2.3,0.8c-2.4,1.4-5.4,0.9-7.2-1.2c-0.8-0.9-2.1-1.3-3.3-1.2c-2.5,0.3-4.8,3.1-6.1,5C12.7,69.6,8.6,60,8.6,49.8
				z M54.9,80.8c-7-9.3-2.3-21.8-0.7-25.4c3.8,0.8,16.7,4.2,20.3,15.3c2.6,8.1-0.7,13.3-2.7,15.5L61.7,66.6L59,68l10.1,19.5
				C66.1,87.9,60,87.5,54.9,80.8z M86.8,81.7c-3,3.8-7.6,6-12.5,5.9c4.1-5,5.2-11.8,3-17.8c-0.8-2.5-2.1-4.9-3.8-7
				c5.6-4.7,13.1-6,15.8-6.4C90.6,60.1,94.5,72.9,86.8,81.7L86.8,81.7z M83.5,49.8c0,1.6-0.1,3.2-0.3,4.9c-1.9,0.5-3.7,1.2-5.4,2
				c0.4-3.3,0-6.7-1-9.9c-0.5-1.6-2-1.7-3-1.8c-0.4,0-0.8-0.1-1.2-0.2c-3.5-1.8-4.9-4.6-6.3-7.6c-1-2.7-2.7-5.1-5-6.9
				c-2.1-1.5-4.8-2-7.4-1.5c-1.7,0.2-2.5,0.3-3.5-0.8c-0.6-0.6-0.5-0.9-0.4-1.1c0.4-1.5,3.7-3.5,5.8-4.1c0.8-0.2,1.5-0.8,1.7-1.6
				c0.5-1.4-0.5-2.8-1.4-4.1c-0.2-0.3-0.6-0.8-0.7-1.1c0.9-0.7,1.9-1.2,3-1.6C73.4,19.6,83.5,33.8,83.5,49.8L83.5,49.8z M54.1,13.2
				c-0.9,0.5-1.5,1.3-1.8,2.3c0,1.2,0.5,2.5,1.3,3.4c0.3,0.4,0.6,0.8,0.8,1.3c-2,0.7-6.6,3-7.4,6.1c-0.3,1.4,0.1,2.9,1.2,3.9
				c1.6,1.6,3.9,2.2,6,1.6c1.8-0.4,3.8-0.1,5.3,1c1.9,1.3,2.9,3.3,4,5.7c1.5,3.2,3.2,6.7,7.7,9c0.7,0.3,1.4,0.5,2.2,0.5l0.5,0
				c1.2,4.4,1.3,8.1,0.2,10.7c-0.9,0.6-1.8,1.3-2.7,2c-7.1-6.9-17.4-8.3-17.9-8.4c-0.6-0.1-1.2,0.2-1.5,0.8
				c-0.4,0.7-8.9,17.1,0.5,29.5c1,1.3,2,2.4,3.2,3.5c-11.8,3.2-24.4,0.4-33.7-7.4c1.2-1.8,3-3.9,4.3-4.1c0.3,0,0.6,0.1,0.8,0.3
				c2.8,3.1,7.3,3.7,10.8,1.6c0.4-0.2,0.9-0.3,1.4-0.4c2.2-0.5,5.8-1.2,5.8-7.5c0-6.7-6.3-8.9-12.4-11c-6.3-2.2-12.9-4.5-15-11.4
				c-3.9-12.8,4.9-24.9,6.2-26.6C32.7,13.2,43.6,10.9,54.1,13.2z"/>
			<path d="M21,37.7c-0.7,3.1-1,7.3,1.6,9.4c0.8,0.7,1.8,1.1,2.8,1.1c1.5-0.2,3-0.8,4.1-1.9c0.4-0.3,0.8-0.7,1.2-0.9
				c0.5,0,2-0.2,2.4-2.4c0.5-2.4-0.5-7.8-3.4-9c-1.5-0.5-3.1-0.6-4.6-0.2C23.1,34.1,21.5,35.6,21,37.7L21,37.7z M25.7,36.6
				c1-0.2,2-0.2,2.9,0.1c0.2,0.1,0.7,0.6,1.1,1.8c0.4,1.2,0.6,2.6,0.4,3.9c-1,0.3-1.9,0.8-2.6,1.5c-1.7,1.4-2.2,1.6-3.1,0.8
				c-1.1-0.9-1.3-3.3-0.5-6.4C24.1,37.4,24.8,36.8,25.7,36.6L25.7,36.6z"/>
		</g>
	</g>
</g>
</svg>
