<?xml version="1.0" encoding="utf-8"?>
<!-- Generator: Adobe Illustrator 24.3.0, SVG Export Plug-In . SVG Version: 6.00 Build 0)  -->
<svg version="1.1" id="Layer_1" xmlns="http://www.w3.org/2000/svg" xmlns:xlink="http://www.w3.org/1999/xlink" x="0px" y="0px"
	 viewBox="0 0 80 40" style="enable-background:new 0 0 80 40;" xml:space="preserve">
<style type="text/css">
	.st0{fill:#747475;}
	.st1{fill:#0093ED;}
	.st2{fill:#1496CF;}
</style>
<path class="st0" d="M33.6,29.6c-0.3-1.1-0.6-2.2-1-3.3c-0.2-0.5-0.6-0.9-1-1.2c-1.3-0.6-2.8-1.2-4.2-1.7c-0.2-0.1-0.3-0.1-0.5-0.1
	L25,28.8h-1.4c-0.4,0.1-0.9,0.1-1.3,0H22l-1.9-5.6c-1.7,0.7-3.3,1.3-4.8,2.1c-0.4,0.2-0.7,0.5-0.8,0.9c-0.4,1.1-0.8,2.2-1,3.4
	c-0.3,0.8,0.2,1.7,1,2c0.2,0.1,0.4,0.1,0.6,0.1h16.8c0.9,0.1,1.6-0.5,1.7-1.4C33.7,30.1,33.7,29.8,33.6,29.6z"/>
<path class="st0" d="M37.5,21c-0.5-0.1-0.9-0.2-1.3-0.3c-0.4-0.1-0.8-0.2-1.2-0.4c-0.9-0.4-0.8-0.4-0.6-1.3c0.1-0.7,0-1.4-0.3-2
	c-0.5-1.4-0.4-3,0.3-4.4c1.1-2.4,3.9-3.5,6.4-2.5c2.5,1,3.9,3.8,3.1,6.4c-0.1,0.2-0.1,0.4-0.2,0.6c-0.4,0.9-0.2,1.8,0.3,2.6
	c-0.9,0.9-2.3,0.9-3.5,1.2c0,0.2,0.1,0.4,0.1,0.6c0.4,1.3-0.1,2.8-1.2,3.6c-0.2,0.2-0.5,0.2-0.7,0c0,0,0,0,0,0l0,0
	c-1.1-0.8-1.6-2.3-1.2-3.6L37.5,21z"/>
<path class="st0" d="M27.8,14.5v0.7c0,0.3,0.2,0.5,0.4,0.6c0.2,0,0.4,0.1,0.5,0.3c0.2,0.9-0.2,1.9-0.9,2.5c-0.2,0.2-0.3,0.4-0.4,0.6
	c-0.5,1.5-1.6,2.7-3,3.3c-0.6,0.3-1.3,0.3-1.9,0c-1.4-0.6-2.5-1.8-3-3.2c-0.1-0.3-0.4-0.4-0.6-0.7s-0.4-0.3-0.5-0.6
	s-0.2-0.9-0.3-1.3c-0.1-0.3,0.1-0.7,0.4-0.8c0.1,0,0.2,0,0.2,0c0.5,0,0.4-0.3,0.4-0.6c-0.1-1,0-2,0.4-2.9c0.9-1.9,3-2.9,5.1-2.4
	C26.6,10.5,28,12.4,27.8,14.5z"/>
<path class="st0" d="M6.3,21.7L8,26.6l0.3-0.1C8.2,25,8.9,23.4,8,22h2.5c-0.7,1.4-0.1,2.9-0.3,4.4l0.3,0.1l1.7-4.9l4.2,1.7l-1.3,0.6
	c-1,0.4-1.8,1.3-2.1,2.3c-0.2,0.8-0.5,1.5-0.7,2.2c-0.1,0.2-0.3,0.4-0.6,0.4H1.8c-0.7,0-1.3-0.5-1.3-1.2c0,0,0,0,0,0v-0.4
	c0.3-1.1,0.7-2.2,1.1-3.3c0.1-0.3,0.3-0.5,0.6-0.6c0.5-0.3,1-0.5,1.6-0.7C4.7,22.4,5.5,22.1,6.3,21.7z"/>
<path class="st0" d="M5.4,14.7c0-0.7,0.1-1.4,0.2-2.1c0.5-2,2.5-3.3,4.5-2.8c1.6,0.4,2.8,1.8,2.9,3.5v1c0,0.4,0,0.6,0.4,0.6
	c0.2,0,0.3,0.2,0.4,0.3c0.2,0.8-0.2,1.6-0.8,2.1c-0.2,0.2-0.3,0.4-0.4,0.6c-0.4,1.1-1.2,2.1-2.3,2.7c-0.6,0.3-1.4,0.3-2,0
	C7.2,20,6.4,19,6,17.9c-0.2-0.3-0.4-0.6-0.7-0.8c-0.5-0.5-0.7-1.1-0.6-1.8C4.9,15.3,5.2,15,5.4,14.7z"/>
<path class="st0" d="M42.3,22.3c0.9,0.2,1.8,0.5,2.6,0.9c0.9,0.4,1.5,1.2,1.6,2.2c0.1,0.6,0.1,1.3,0.1,1.9c0,0.9-0.7,1.6-1.6,1.6
	c0,0,0,0,0,0h-9.7c-0.2-0.1-0.4-0.2-0.5-0.4c-0.2-0.5-0.4-1-0.5-1.6c-0.2-1.3-1-2.4-2.1-3c1-0.8,2.2-1.3,3.4-1.5
	c-0.9,0.7-1.2,1.9-0.8,2.9l1.3-0.9l2.1,2.7c0.7,0.9,0.8,0.8,1.5,0s1.1-1.4,1.6-2.1c0.3-0.5,0.6-0.5,1-0.2l0.9,0.7
	C43.5,24.3,43.2,23.1,42.3,22.3z"/>
<path class="st1" d="M22.1,24.2c0.3,0.7,0.4,1.5,0.4,2.3c0,0-0.1,2.3-0.1,2.8h2.3c0,0,0-1-0.1-2.1c0,0-0.3-2.2,0.4-3L22.1,24.2z"/>
<polygon class="st2" points="22.4,29.2 23.5,30.2 24.7,29.2 "/>
<path class="st1" d="M55.4,24.4h-5.6v-1.1l1-0.9c0.5-0.4,0.9-0.8,1.1-1c0.3-0.3,0.5-0.6,0.8-0.9c0.2-0.2,0.4-0.5,0.5-0.8
	c0.1-0.2,0.2-0.5,0.2-0.7c0-0.3-0.1-0.6-0.3-0.8c-0.3-0.2-0.6-0.4-1-0.3c-0.6,0-1.2,0.3-1.7,0.7l-0.5-1.3c0.3-0.3,0.7-0.5,1.2-0.6
	c0.5-0.2,1-0.2,1.4-0.2c0.7,0,1.4,0.2,2,0.7c0.5,0.5,0.8,1.1,0.7,1.8c0,0.3-0.1,0.6-0.2,0.9c-0.1,0.3-0.3,0.6-0.5,0.9
	c-0.2,0.3-0.4,0.5-0.7,0.8c-0.2,0.2-0.5,0.5-0.8,0.8l-0.7,0.6l0,0h3L55.4,24.4z"/>
<path class="st1" d="M62.3,16.5V18h-3.1l-0.2,1.2c0.2,0,0.3,0,0.5,0c0.7,0,1.5,0.2,2.1,0.6c0.7,0.4,1.1,1.2,1,2
	c0,0.4-0.1,0.7-0.2,1.1c-0.2,0.3-0.4,0.6-0.7,0.9c-0.3,0.3-0.7,0.5-1.1,0.6c-0.5,0.2-0.9,0.2-1.4,0.2c-0.4,0-0.9-0.1-1.3-0.2
	c-0.3-0.1-0.6-0.2-0.9-0.3l0.3-1.4c0.3,0.1,0.5,0.2,0.8,0.3c0.3,0.1,0.7,0.1,1,0.1c0.3,0,0.5,0,0.8-0.1c0.2-0.1,0.4-0.2,0.6-0.4
	c0.2-0.2,0.2-0.4,0.2-0.7c0-0.9-0.7-1.3-2.2-1.3c-0.4,0-0.7,0-1.1,0.1l0.5-4.2H62.3z"/>
<path class="st1" d="M66.8,16.3c0.4,0,0.8,0.1,1.1,0.2c0.3,0.1,0.6,0.3,0.8,0.6c0.2,0.3,0.4,0.6,0.6,0.9c0.2,0.4,0.3,0.7,0.3,1.1
	c0.1,0.4,0.1,0.8,0.1,1.3c0,0.7-0.1,1.5-0.3,2.2c-0.2,0.6-0.5,1.1-1,1.4c-0.9,0.6-2,0.7-3,0.2c-0.4-0.2-0.7-0.5-0.9-0.9
	c-0.2-0.4-0.4-0.9-0.5-1.3c-0.1-0.5-0.2-1.1-0.2-1.6c0-0.5,0.1-1.1,0.2-1.6c0.1-0.5,0.3-0.9,0.6-1.3c0.2-0.4,0.6-0.7,0.9-0.9
	C65.9,16.5,66.4,16.3,66.8,16.3z M66.8,17.7c-0.3,0-0.6,0.2-0.8,0.7c-0.2,0.6-0.3,1.3-0.3,2c0,0.7,0.1,1.4,0.3,2
	c0.1,0.4,0.5,0.7,0.8,0.7c0.4,0,0.6-0.2,0.8-0.7c0.2-0.6,0.3-1.3,0.3-2C67.9,18.6,67.5,17.7,66.8,17.7L66.8,17.7z"/>
<path class="st1" d="M73.6,17.9h1.2v2.7h2.5v1.1h-2.5v2.7h-1.2v-2.7h-2.5v-1.1h2.5V17.9z"/>
</svg>
