<?xml version="1.0" encoding="utf-8"?>
<!-- Generator: Adobe Illustrator 21.0.0, SVG Export Plug-In . SVG Version: 6.00 Build 0)  -->
<svg version="1.1" id="Capa_1" xmlns="http://www.w3.org/2000/svg" xmlns:xlink="http://www.w3.org/1999/xlink" x="0px" y="0px"
	 viewBox="0 0 115 107" style="enable-background:new 0 0 115 107;" xml:space="preserve">
<style type="text/css">
	.st0{fill:#666666;}
</style>
<title>tech-icon1</title>
<g>
	<path class="st0" d="M91.3,53c0,0.6,0,1.1,0,1.7c0,0.1-0.1,0.3-0.1,0.5c-0.1,1.3-0.4,2.5-0.9,3.7c-1.3,3.1-3.4,5.6-6,7.7
		c-3.3,2.7-6.9,4.4-10.9,5.8c-4.6,1.5-9.2,2.3-14,2.4c-3.6,0.1-7.2-0.1-10.9-0.7c-3.1-0.5-6.1-1.3-9-2.5c-4.7-1.8-8.9-4.4-12.2-8.4
		c-1.8-2.3-3-4.8-3.4-7.7c0-0.2-0.1-0.4-0.1-0.7c0-0.6,0-1.2,0-1.8c0-0.1,0.1-0.3,0.1-0.5c0.1-1.8,0.7-3.5,1.6-5.2
		c1.7-3.2,4.3-5.6,7.2-7.7c2.7-1.8,5.5-3.2,8.6-4.2c4.4-1.5,8.9-2.3,13.4-2.5c3.3-0.1,6.5-0.1,9.8,0.4c2.9,0.4,5.8,1,8.6,1.9
		c2.3,0.7,4.5,1.6,6.6,2.8c2.7,1.5,5.2,3.3,7.4,5.6c1.7,1.8,3,3.9,3.6,6.4C91,50.9,91,52,91.3,53z M68.1,65.3c0-0.1,0-0.1,0.1-0.2
		c0.3-1.6,0.6-3.3,0.9-4.9c0.1-0.3,0.1-0.4,0.4-0.4c1,0,2.1,0,3.2,0.1c3.3,0.1,6.1-1.6,7.5-4.5c0.9-1.8,1.3-3.8,1.1-6
		c-0.2-3-2.3-5-5.3-5c-1.5,0-3,0-4.5,0c-1.2,0-2.4,0-3.6,0c-1.2,7-2.3,14-3.5,21C65.6,65.3,66.9,65.3,68.1,65.3z M38.7,59.9
		c1.3,0,2.4,0,3.7,0c1.9,0,3.6-0.5,5.2-1.8c1.3-1,2.1-2.4,2.6-4c0.6-1.8,0.9-3.7,0.5-5.6c-0.5-2.5-2.4-4.1-5-4.1c-2.6,0-5.2,0-7.8,0
		c-0.1,0-0.3,0-0.5,0c-1.2,7-2.3,14-3.5,21c0.4,0,0.8,0,1.3,0c0.4,0,0.8,0,1.2,0c0.4,0,1,0.1,1.3-0.1c0.3-0.2,0.2-0.8,0.4-1.3
		C38.3,62.6,38.5,61.2,38.7,59.9z M54,59.9c0-0.1,0.1-0.1,0.1-0.2c0.7-3.8,1.3-7.6,1.9-11.4c0.1-0.4,0.2-0.4,0.5-0.4
		c1.2,0,2.3,0,3.5,0c0.9,0,1.3,0.4,1.4,1.3c0,0.2,0,0.4,0,0.7c-0.4,2.6-0.7,5.2-1.2,7.8c-0.1,0.8-0.3,1.6-0.4,2.4c1.3,0,2.6,0,3.8,0
		c0-0.1,0.1-0.1,0.1-0.1c0.6-3.6,1.3-7.2,1.8-10.9c0.4-2.3-0.9-3.9-3-4.3c-0.8-0.1-1.6-0.1-2.4-0.1c-1.1,0-2.1,0-3.3,0
		c0.3-1.9,0.7-3.8,1-5.6c-1.3,0-2.4,0-3.7,0c-0.1,0-0.3,0.2-0.3,0.4c-0.2,1.4-0.5,2.8-0.7,4.2c-0.8,4.8-1.6,9.7-2.4,14.5
		c-0.1,0.7-0.2,1.3-0.4,2C51.4,59.9,52.7,59.9,54,59.9z"/>
	<path class="st0" d="M69.6,56.5c0.5-3,1-5.9,1.5-8.8c1.4,0,2.8-0.1,4.1,0c1,0.1,1.7,0.8,1.8,1.8c0.3,1.9,0,3.7-1.1,5.3
		c-0.7,1-1.7,1.6-3,1.6C71.9,56.5,70.8,56.5,69.6,56.5z"/>
	<path class="st0" d="M39.3,56.5c0.3-2,0.7-3.9,1-5.8c0.1-0.9,0.3-1.7,0.4-2.6c0.1-0.3,0.1-0.4,0.5-0.4c1.1,0,2.1,0,3.3,0
		c1.4,0,2.3,0.8,2.4,2.2c0.1,1.6-0.1,3.2-0.9,4.6c-0.7,1.2-1.7,1.9-3,2C41.6,56.6,40.4,56.5,39.3,56.5z"/>
</g>
</svg>
