<?xml version="1.0" encoding="utf-8"?>
<!-- Generator: Adobe Illustrator 24.3.0, SVG Export Plug-In . SVG Version: 6.00 Build 0)  -->
<svg version="1.1" id="Layer_1" xmlns="http://www.w3.org/2000/svg" xmlns:xlink="http://www.w3.org/1999/xlink" x="0px" y="0px"
	 viewBox="0 0 100 89" style="enable-background:new 0 0 100 89;" xml:space="preserve">
<style type="text/css">
	.st0{fill-rule:evenodd;clip-rule:evenodd;fill:#010101;}
	.st1{fill:#0093ED;}
	.st2{fill:#010101;}
</style>
<g>
	<path class="st0" d="M84.4,23.4c-0.2-1.6-0.7-2.9-1.2-3.9c-0.4,0.4-1.2,1.3-2,0.9l-1-0.5l-1.1-0.5c-0.8-0.4-0.6-1.5-0.5-2.1
		c-1.1,0.3-2.4,0.7-3.8,1.5c0-2.1,0.6-4.1,1.1-4.8c1-1.3,2.2-1.8,3.3-2.1c1.3-4.5,4.3-9.1,9.7-9.9c2.7,4.7,1,9.9-1.7,13.7
		c0.4,1,0.7,2.3,0.4,3.9C87.3,20.4,86,22.1,84.4,23.4z M86.2,7.3c1,0.5,1.4,1.7,0.9,2.6c-0.5,1-1.7,1.4-2.6,0.9
		c-1-0.5-1.4-1.7-0.9-2.6C84,7.2,85.2,6.8,86.2,7.3z"/>
	<path class="st1" d="M10.5,11L37.1,66c3.2-0.4,8.1-2.1,10.7-7.9l-26.1-53c-1.1-2-3.2-3.3-5.5-3.3h-0.1C11.4,1.9,8.3,6.9,10.5,11z"
		/>
	<path class="st1" d="M68.8,57.4c-7.1,8.6-14.2,18.6-25.9,20.1c1.2,2.3,2.4,4.7,3.6,7c1.9,3.6,7,3.6,8.9,0
		C59.9,75.3,64.2,66.3,68.8,57.4z"/>
	<path class="st2" d="M82.3,30.7C77.1,40,69.4,51.8,63.7,58.5c-6,7.1-12.2,14.9-21.4,15.9C38,74.8,34.6,74,31,71.8
		c-4.7-3.4-8.2-8.4-8.2-15.5c0.1-2.8,0.4-4.7,1.6-7.9c-0.8,3.6-0.8,6.8-0.2,9.4C26,66.3,32,70.2,38.8,69.7c0.6-0.1,1.3-0.2,2-0.4
		c4.3-1.2,7.2-4.2,9.1-6.8c0.9-1.3,1.6-2.5,2.2-3.4c3-4.9,5.5-9.8,6.4-11.5c5.4-10.7,5.6-11.2,9.3-18c1.1-2,1.9-4.1,3.2-6
		c0-0.1,0.1-0.1,0.1-0.2C76,16.6,86.4,23.4,82.3,30.7z"/>
</g>
</svg>
