<?xml version="1.0" encoding="utf-8"?>
<!-- Generator: Adobe Illustrator 21.0.0, SVG Export Plug-In . SVG Version: 6.00 Build 0)  -->
<svg version="1.1" id="Capa_1" xmlns="http://www.w3.org/2000/svg" xmlns:xlink="http://www.w3.org/1999/xlink" x="0px" y="0px"
	 viewBox="0 0 115 107" style="enable-background:new 0 0 115 107;" xml:space="preserve">
<style type="text/css">
	.st0{fill:#666666;}
</style>
<title>tech-icon1</title>
<g>
	<path class="st0" d="M24.4,34.1v-1c0-0.3,0.2-0.6,0.6-0.6h16c0.2,0,0.3,0.1,0.4,0.2c0.4,0.3,0.8,0.6,1.1,1.1
		c5.1,8.6,10.2,17.3,15.2,25.9c0.2,0.5,0.6,0.6,1.1,0.4c5.4-1.4,10.8-2.7,16.2-4l0,0c0.4-0.1,0.6-0.6,0.3-0.9l0,0
		c-1.8-2.7-3.7-5.3-5.4-8c-1-1.5-0.2-2.5,1.9-2.4c2.4,0.1,4.9-0.2,7.1-1c1.5-0.5,2.4-0.3,3.1,1.1c1.5,3,3.3,5.7,5.7,8
		c1.4,1.4,1.1,2.5-0.4,2.9c-2,0.5-4.1,1-6.2,1.5c-0.1,0-0.1,0-0.2,0c-0.4,0.1-0.6,0.6-0.3,0.9c0,0,0,0.1,0.1,0.1
		c1.9,2.9,4,5.8,5.9,8.7c1,1.4,0.7,2.1-0.9,2.7c-4.9,1.6-9.7,3.2-14.5,4.9c-1.9,0.6-3.8,1.3-5.7,1.9c-0.2,0.1-0.4,0-0.6-0.2
		c-0.4-0.4-0.8-0.7-1.1-1.1c-2.2-3.7-4.4-7.5-6.6-11.2c-0.2-0.5-0.5-0.6-1.1-0.5c-4.3,1.1-8.5,2.1-12.8,3.2
		c-1.3,0.3-1.6,0.2-2.3-1.1c-2.8-5.5-5.8-11-8.6-16.5c-2.6-5-5.2-9.9-7.8-14.9C24.4,34.3,24.4,34.2,24.4,34.1z"/>
</g>
</svg>
