<?xml version="1.0" encoding="utf-8"?>
<!-- Generator: Adobe Illustrator 21.0.0, SVG Export Plug-In . SVG Version: 6.00 Build 0)  -->
<svg version="1.1" id="Layer_1" xmlns="http://www.w3.org/2000/svg" xmlns:xlink="http://www.w3.org/1999/xlink" x="0px" y="0px"
	 viewBox="0 0 150 150" style="enable-background:new 0 0 150 150;" xml:space="preserve">
<style type="text/css">
	.st0{fill:#666666;}
</style>
<title>Asset 7</title>
<g id="Layer_2">
	<g id="Layer_1-2">
		<path class="st0" d="M112.6,54.9c-12.4-20.4-31.1-6.2-31.1-6.2c-1.5,1-3.2,1.6-5,1.7h-5c-1.8-0.1-3.5-0.7-5-1.7
			c0,0-18.7-14.2-31.1,6.2S28,97.5,28,97.5c0.9,5.4,3.8,9.1,9.2,8.6s17.3-14.7,17.3-14.7c1.2-1.3,2.8-2,4.5-2.1H89
			c1.7,0.1,3.4,0.9,4.5,2.1c0,0,11.8,14.2,17.3,14.7s8.3-3.2,9.2-8.6C120,97.5,125.1,75.3,112.6,54.9z M62.7,71.5h-6.4v6.2
			c-1,0.7-2.2,1-3.5,1c-1.1,0.1-2.2-0.4-3-1.1v-6.1h-6.1c0,0-0.8-0.8-1-2.8c-0.1-1.3,0.2-2.6,0.8-3.7H50v-6.4c1-0.5,2.1-0.7,3.2-0.7
			c1.1,0,2.3,0.3,3.3,0.8v6.3h6.1c0.6,0.9,1,1.9,1.1,3C63.7,69.2,63.3,70.4,62.7,71.5z M92.3,78.6c-2.8,0-5.1-2.3-5.1-5.1
			s2.3-5.1,5.1-5.1s5.1,2.3,5.1,5.1C97.4,76.3,95.1,78.6,92.3,78.6C92.3,78.6,92.3,78.6,92.3,78.6z M92.3,64.5
			c-2.8,0-5.1-2.3-5.1-5.1c0-2.8,2.3-5.1,5.1-5.1s5.1,2.3,5.1,5.1C97.4,62.2,95.1,64.5,92.3,64.5C92.3,64.5,92.3,64.5,92.3,64.5z
			 M105,72.1c-2.8,0-5.1-2.2-5.1-5.1c0-2.8,2.2-5.1,5.1-5.1c2.8,0,5.1,2.2,5.1,5.1c0,0,0,0,0,0C110.1,69.8,107.8,72.1,105,72.1
			C105,72.1,105,72.1,105,72.1L105,72.1z"/>
	</g>
</g>
</svg>
