<?xml version="1.0" encoding="utf-8"?>
<!-- Generator: Adobe Illustrator 23.0.3, SVG Export Plug-In . SVG Version: 6.00 Build 0)  -->
<svg version="1.1" id="Layer_1" xmlns="http://www.w3.org/2000/svg" xmlns:xlink="http://www.w3.org/1999/xlink" x="0px" y="0px"
	 viewBox="0 0 100 100" style="enable-background:new 0 0 100 100;" xml:space="preserve">
<style type="text/css">
	.st0{stroke:#000000;stroke-width:0.4;stroke-miterlimit:10;}
</style>
<title>game</title>
<g>
	<g id="Layer_1-2">
		<g id="game">
			<path class="st0" d="M71.5,41.6H57.7v-6.7c0-0.6-0.4-1-1-1h-6.2v-7.8c0-0.1,0-0.2-0.1-0.3c0-0.1,0.1-0.2,0.1-0.3
				c0.2-4.2,3.7-7.4,7.8-7.3c4,0.1,7.1,3.3,7.3,7.3c0,0.1,0,0.3,0.1,0.4c0,0.1-0.1,0.2-0.1,0.4c0,5.3,4.3,9.6,9.6,9.6c0,0,0,0,0,0
				h15.4c0.6,0,1-0.5,1-1c0-0.6-0.5-1-1-1H75.1c-4.2,0-7.5-3.4-7.6-7.5c0,0,0,0,0,0c0-0.1,0-0.3-0.1-0.4c0.1-0.1,0.1-0.2,0.1-0.4
				c-0.2-5.3-4.6-9.5-9.9-9.3c-5.1,0.2-9.1,4.2-9.3,9.3c0,0.1,0,0.2,0.1,0.3c0,0.1-0.1,0.2-0.1,0.3v7.8h-6.2c-0.6,0-1,0.4-1,1v6.7
				H28.6c-11.7,0-21.2,9.5-21.2,21.2c0,11.7,9.5,21.2,21.2,21.2c6.5,0,12.7-3,16.6-8.2h9.5c4,5.2,10.1,8.2,16.6,8.2
				c11.7,0,21.3-9.5,21.3-21.2C92.7,51.2,83.2,41.7,71.5,41.6C71.5,41.6,71.5,41.6,71.5,41.6z M43.2,35.9h12.5v5.7H43.2V35.9z
				 M71.5,82c-6,0-11.7-2.9-15.3-7.7c-0.2-0.3-0.5-0.4-0.8-0.4H44.7c-0.3,0-0.6,0.1-0.8,0.4c-6.3,8.5-18.3,10.3-26.8,3.9
				S6.9,59.9,13.2,51.4c3.6-4.9,9.4-7.8,15.4-7.7h42.9c10.6,0,19.2,8.6,19.2,19.2S82.1,82.1,71.5,82L71.5,82z"/>
			<path class="st0" d="M53.6,54v-5.5c0-0.6-0.4-1-1-1h-15c-0.6,0-1,0.4-1,1V54c0,0.6,0.4,1,1,1h15C53.2,55,53.6,54.5,53.6,54z
				 M51.6,53h-13v-3.5h13V53z"/>
			<path class="st0" d="M35.5,58.7h-4.7V54c0-0.6-0.4-1-1-1h-6.9c-0.6,0-1,0.4-1,1v4.7h-4.7c-0.6,0-1,0.4-1,1v6.8c0,0.6,0.4,1,1,1
				h4.7v4.7c0,0.6,0.4,1,1,1h6.8c0.6,0,1-0.4,1-1v-4.7h4.7c0.6,0,1-0.4,1-1v-6.8C36.4,59.2,36,58.7,35.5,58.7z M34.5,65.6h-4.7
				c-0.6,0-1,0.4-1,1v4.7h-4.8v-4.7c0-0.6-0.4-1-1-1h-4.7v-4.8h4.7c0.6,0,1-0.4,1-1V55h4.8v4.7c0,0.6,0.4,1,1,1h4.7L34.5,65.6
				L34.5,65.6z"/>
			<path class="st0" d="M75.6,54c0-2.9-2.3-5.3-5.2-5.3c0,0-0.1,0-0.1,0c-1.6,0-3.1,0.7-4.1,1.9L60,56.7l0,0c-1.2,1-1.8,2.5-1.8,4
				c0,2.9,2.3,5.3,5.3,5.3c1.6,0,3.1-0.7,4.1-1.9l5.8-5.8C74.7,57.3,75.5,55.7,75.6,54z M72.1,56.6c-0.1,0-0.1,0.1-0.2,0.2L66,62.7
				l-0.1,0.1c-0.6,0.8-1.6,1.3-2.5,1.2c-1.8,0-3.2-1.4-3.3-3.2c0,0,0-0.1,0-0.1c0-0.9,0.4-1.8,1.1-2.4l0.1-0.1l6.2-6.1l0.1-0.1
				c0.6-0.8,1.6-1.3,2.6-1.2c1.8,0,3.2,1.4,3.3,3.2c0,0,0,0,0,0.1C73.5,55,73,56.1,72.1,56.6z"/>
			<path class="st0" d="M69.6,53.3c-0.8,0-1.4,0.6-1.4,1.4s0.6,1.4,1.4,1.4c0.8,0,1.4-0.6,1.4-1.4C71.1,53.9,70.5,53.3,69.6,53.3
				C69.7,53.3,69.7,53.3,69.6,53.3z M69.6,55.3c-0.3,0-0.6-0.4-0.5-0.7c0-0.3,0.3-0.5,0.5-0.5c0.3,0,0.6,0.2,0.6,0.6c0,0,0,0,0,0
				c0.1,0.3-0.1,0.6-0.4,0.6C69.8,55.3,69.7,55.3,69.6,55.3L69.6,55.3z"/>
			<path class="st0" d="M64.4,58.4c-0.8,0-1.4,0.6-1.4,1.4s0.6,1.4,1.4,1.4c0.8,0,1.4-0.6,1.4-1.4C65.9,59,65.3,58.4,64.4,58.4
				C64.5,58.4,64.5,58.4,64.4,58.4z M64.4,60.4c-0.3,0-0.6-0.3-0.6-0.6s0.3-0.6,0.6-0.6c0.3,0,0.6,0.3,0.6,0.6
				C65,60.1,64.7,60.4,64.4,60.4L64.4,60.4z"/>
			<path class="st0" d="M80.8,57.3c-1.6,0-3.1,0.7-4.1,1.9l-6.2,6.1l0,0c-1.1,1-1.8,2.5-1.8,4c0,2.9,2.3,5.3,5.2,5.3c0,0,0,0,0.1,0
				c1.6,0,3.1-0.7,4.1-1.9l5.8-5.8c1.3-1,2.1-2.6,2.1-4.2c0.1-2.8-2.1-5.2-4.9-5.4C81,57.3,80.9,57.3,80.8,57.3z M82.6,65.3
				c-0.1,0-0.1,0.1-0.2,0.2l-5.9,5.8l-0.1,0.1c-0.6,0.8-1.5,1.3-2.6,1.3c-1.8,0-3.3-1.4-3.3-3.2c0-1,0.4-1.9,1.1-2.5l0.1-0.1
				l6.2-6.2l0.1-0.1c0.6-0.8,1.6-1.3,2.6-1.2c1.8,0,3.2,1.4,3.3,3.2c0,0,0,0.1,0,0.1C84,63.8,83.5,64.8,82.6,65.3L82.6,65.3z"/>
			<path class="st0" d="M80.3,61.9c-0.8,0-1.4,0.6-1.4,1.4s0.6,1.4,1.4,1.4s1.4-0.6,1.4-1.4C81.7,62.6,81.1,62,80.3,61.9
				C80.3,61.9,80.3,61.9,80.3,61.9z M80.3,64c-0.3,0-0.6-0.4-0.5-0.7c0-0.3,0.3-0.5,0.5-0.5c0.3,0,0.6,0.2,0.6,0.6c0,0,0,0,0,0
				C80.8,63.7,80.6,64,80.3,64z"/>
			<path class="st0" d="M75,66.9c-0.8,0-1.4,0.6-1.4,1.4c0,0.8,0.6,1.4,1.4,1.4c0.8,0,1.4-0.6,1.4-1.4c0,0,0,0,0,0
				C76.4,67.6,75.8,67,75,66.9C75,66.9,75,66.9,75,66.9z M75,68.9c-0.3,0-0.6-0.3-0.6-0.6c0-0.3,0.3-0.6,0.6-0.6
				c0.3,0,0.6,0.3,0.6,0.6C75.6,68.7,75.3,68.9,75,68.9z"/>
		</g>
	</g>
</g>
</svg>
