<?xml version="1.0" encoding="utf-8"?>
<!-- Generator: Adobe Illustrator 21.0.0, SVG Export Plug-In . SVG Version: 6.00 Build 0)  -->
<svg version="1.1" id="Layer_1" xmlns="http://www.w3.org/2000/svg" xmlns:xlink="http://www.w3.org/1999/xlink" x="0px" y="0px"
	 viewBox="0 0 110 90" style="enable-background:new 0 0 110 90;" xml:space="preserve">
<style type="text/css">
	.st0{fill:#161616;stroke:#151515;stroke-width:0.2;stroke-miterlimit:10;}
</style>
<title>game</title>
<g id="Layer_2">
	<g id="Layer_1-2">
		<g id="_2">
			<path class="st0" d="M48.9,12.4h27.3c1.8,0,3.3,1.5,3.3,3.3S78,19,76.2,19l0,0H57.6c-0.8,0-1.5,0.7-1.5,1.5s0.7,1.5,1.5,1.5h18.6
				c3.5,0.2,6.5-2.6,6.7-6.1s-2.6-6.5-6.1-6.7c-0.2,0-0.4,0-0.6,0H48.9c-0.8,0-1.5,0.7-1.5,1.5S48.1,12.4,48.9,12.4z"/>
			<path class="st0" d="M73.4,39.1H56.5v-6.6c0-0.8-0.7-1.5-1.5-1.5H32.2c-2.4,0.1-4.5-1.8-4.6-4.2s1.8-4.5,4.2-4.6
				c0.1,0,0.2,0,0.3,0h27.1c0.8,0,1.5-0.7,1.5-1.5c0-0.8-0.7-1.5-1.5-1.5l0,0h-27c-4.1,0-7.5,3.3-7.5,7.5s3.3,7.5,7.5,7.5h21.2v5.1
				H36.5C25,39,15.7,48.3,15.6,59.8c-0.1,11.5,9.3,20.8,20.7,20.9c6.9,0,13.3-3.3,17.2-9h2.8c6.5,9.4,19.5,11.7,28.9,5.2
				C94.7,70.3,97,57.4,90.4,48C86.6,42.4,80.2,39.1,73.4,39.1z M65.5,42.1v5.4h-21v-5.4H65.5z M73.4,77.6c-6.1,0-11.7-3.1-14.9-8.3
				c-0.3-0.5-0.8-0.7-1.3-0.7h-4.4c-0.5,0-1,0.3-1.3,0.7C46.2,77.6,35.2,80,27,74.7c-8.2-5.2-10.7-16.2-5.4-24.4
				c3.2-5.1,8.9-8.2,14.9-8.2h4.9v7c0,0.8,0.7,1.5,1.5,1.5H67c0.8,0,1.5-0.7,1.5-1.5v-7h4.9c9.8,0.2,17.6,8.3,17.4,18.1
				C90.6,69.7,83,77.4,73.4,77.6z"/>
			<path class="st0" d="M67.4,70.5c-3,0-5.4-2.4-5.4-5.4s2.4-5.4,5.4-5.4s5.4,2.4,5.4,5.4c0,1.4-0.6,2.8-1.6,3.8l0,0
				C70.2,70,68.8,70.5,67.4,70.5z M70.1,67.9L70.1,67.9z M67.4,62.8c-1.3,0-2.3,1.1-2.3,2.4c0,1.3,1.1,2.3,2.4,2.3s2.3-1.1,2.3-2.4
				c0-0.6-0.3-1.2-0.7-1.6C68.6,63,68,62.8,67.4,62.8L67.4,62.8z"/>
			<path class="st0" d="M76.6,61c-3,0-5.4-2.4-5.4-5.4s2.4-5.4,5.4-5.4s5.4,2.4,5.4,5.4c0,1.4-0.6,2.8-1.6,3.8
				C79.4,60.5,78,61,76.6,61z M76.6,53.3c-1.3,0-2.3,1.1-2.3,2.4c0,1.3,1.1,2.3,2.4,2.3s2.3-1.1,2.3-2.4c0-0.6-0.3-1.2-0.7-1.6
				C77.8,53.5,77.2,53.3,76.6,53.3z"/>
			<path class="st0" d="M40.2,70.1h-6.6c-0.8,0-1.5-0.7-1.5-1.5V66h-2.6c-0.8,0-1.5-0.7-1.5-1.5V58c0-0.8,0.7-1.5,1.5-1.5h2.6v-2.6
				c0-0.8,0.7-1.5,1.5-1.5h6.5c0.8,0,1.5,0.7,1.5,1.5v2.6h2.6c0.8,0,1.5,0.7,1.5,1.5v6.5c0,0.8-0.7,1.5-1.5,1.5h-2.6v2.6
				C41.7,69.4,41,70.1,40.2,70.1L40.2,70.1z M35.2,67h3.5v-2.6c0-0.8,0.7-1.5,1.5-1.5h2.6v-3.5h-2.6c-0.8,0-1.5-0.7-1.5-1.5v-2.6
				h-3.5v2.6c0,0.8-0.7,1.5-1.5,1.5l0,0H31v3.5h2.6c0.8,0,1.5,0.7,1.5,1.5L35.2,67z"/>
		</g>
	</g>
</g>
</svg>
