<?xml version="1.0" encoding="utf-8"?>
<!-- Generator: Adobe Illustrator 23.0.3, SVG Export Plug-In . SVG Version: 6.00 Build 0)  -->
<svg version="1.1" id="Layer_1" xmlns="http://www.w3.org/2000/svg" xmlns:xlink="http://www.w3.org/1999/xlink" x="0px" y="0px"
	 viewBox="0 0 100 100" style="enable-background:new 0 0 100 100;" xml:space="preserve">
<title>growth</title>
<g>
	<g id="Layer_1-2">
		<g id="growth">
			<path d="M22.5,63.6H11.8c-0.6,0-1.1,0.5-1.1,1.1v23.6c0,0.6,0.5,1.1,1.1,1.1h10.7c0.6,0,1.1-0.5,1.1-1.1V64.6
				C23.6,64,23.1,63.6,22.5,63.6z M21.5,87.2h-8.6V65.7h8.6V87.2z"/>
			<path d="M44.4,42H33.7c-0.6,0-1.1,0.5-1.1,1.1v45.1c0,0.6,0.5,1.1,1.1,1.1h10.7c0.6,0,1.1-0.5,1.1-1.1V43.1
				C45.5,42.5,45,42,44.4,42C44.4,42,44.4,42,44.4,42z M43.4,87.2h-8.6v-43h8.6L43.4,87.2z"/>
			<path d="M66.3,50.1H55.6c-0.6,0-1.1,0.5-1.1,1c0,0,0,0,0,0v37.1c0,0.6,0.5,1.1,1.1,1.1h10.7c0.6,0,1.1-0.5,1.1-1.1V51.1
				C67.4,50.5,66.9,50.1,66.3,50.1C66.3,50.1,66.3,50.1,66.3,50.1z M65.2,87.2h-8.6v-35h8.6V87.2z"/>
			<path d="M88.2,29.7H77.5c-0.6,0-1,0.4-1.1,1v57.5c0,0.6,0.5,1.1,1.1,1.1h10.7c0.6,0,1.1-0.5,1.1-1.1V30.7
				C89.2,30.2,88.8,29.7,88.2,29.7z M87.2,87.2h-8.6V31.8h8.6V87.2z"/>
			<path d="M17,46.5c0.3,0,0.5-0.1,0.7-0.3l22.6-19.8l19.2,7.3c0.4,0.1,0.8,0.1,1.1-0.2l22.9-19l-1.2,5.7c-0.1,0.6,0.2,1.1,0.8,1.2
				c0.1,0,0.1,0,0.2,0c0.5,0,0.9-0.4,1-0.8l1.8-8.6c0.1-0.3,0-0.6-0.2-0.9c-0.2-0.3-0.5-0.4-0.8-0.4h-8.8c-0.6,0-1,0.5-1.1,1.1
				c0,0.6,0.5,1.1,1,1.1c0,0,0,0,0,0h5.9L59.7,31.5l-19.3-7.3c-0.4-0.1-0.8-0.1-1.1,0.2L16.3,44.6c-0.4,0.4-0.5,1.1-0.1,1.5
				C16.4,46.3,16.7,46.5,17,46.5z"/>
		</g>
	</g>
</g>
</svg>
