<?xml version="1.0" encoding="utf-8"?>
<!-- Generator: Adobe Illustrator 24.3.0, SVG Export Plug-In . SVG Version: 6.00 Build 0)  -->
<svg version="1.1" id="Layer_1" xmlns="http://www.w3.org/2000/svg" xmlns:xlink="http://www.w3.org/1999/xlink" x="0px" y="0px"
	 viewBox="0 0 80 40" style="enable-background:new 0 0 80 40;" xml:space="preserve">
<style type="text/css">
	.st0{fill:#0093ED;}
	.st1{fill:#757575;}
	.st2{fill:#1D8ECB;}
</style>
<path class="st0" d="M31.9,13.5c1.2,0.1,2.3,0.2,3.5,0.4c0.3,0,0.6,0.1,0.9,0.2c0.4,0.1,0.7,0.4,0.8,0.8c0.5,1.5,1,3,1.5,4.4
	c0.2,0.6,0,1.2-0.5,1.6c-0.6,0.3-1.3,0.1-1.6-0.5c0-0.1-0.1-0.2-0.1-0.2c-0.4-1.2-0.8-2.4-1.2-3.6c0-0.2-0.2-0.4-0.5-0.4
	c-1.5-0.1-2.9-0.3-4.4-0.5H30L29.8,18c-0.1,0.9-0.1,1.7-0.2,2.5c0,0.3-0.1,0.5-0.2,0.7c-0.7,1.3-1.5,2.8-2.3,4.1
	c-0.3,0.5-0.9,0.8-1.5,0.7s-0.9-0.6-0.8-1.2c0-0.1,0.1-0.3,0.2-0.4c0.5-1,1-2,1.6-2.9c0.5-0.8,0.7-1.7,0.7-2.6
	c0.1-1.6,0.2-3.2,0.5-4.7s0.7-2.8,1.1-4.2c0-0.1,0-0.2,0.1-0.4c-0.5,0.4-0.9,0.7-1.4,1c-0.7,0.4-1.2,1.1-1.3,1.9
	c-0.2,0.7-0.4,1.3-0.6,2c-0.1,0.4-0.5,0.7-0.9,0.6c0,0,0,0-0.1,0c-0.4-0.1-0.6-0.6-0.5-1V14c0.3-1.1,0.7-2.2,1-3.3
	c0.1-0.4,0.3-0.7,0.6-0.9c0.9-0.7,1.9-1.4,2.8-2.2c0.7-0.6,1.5-1,2.4-1.3c2.5-0.7,4.8-1.8,7.2-2.7c0.3-0.1,0.7-0.3,1.1-0.4
	c0.4-0.2,0.8,0,1,0.3c0.2,0.4,0,0.8-0.4,1l0,0l-6.1,3c-0.2,0.1-0.3,0.2-0.3,0.4c-0.4,1.7-0.8,3.4-1.2,5.2
	C31.9,13.3,31.9,13.4,31.9,13.5z"/>
<path class="st1" d="M55.9,29.4v8c0.1,0.5-0.2,0.9-0.7,1c-0.1,0-0.2,0-0.3,0h-3.4c-0.5,0-0.9-0.3-0.9-0.8c0-0.1,0-0.1,0-0.2V21.3
	c0-0.5,0.3-0.9,0.8-0.9h0.1c1.1,0,2.3,0,3.5,0c0.5,0,0.9,0.3,0.9,0.8c0,0.1,0,0.1,0,0.2C55.9,21.4,55.9,29.4,55.9,29.4z"/>
<path class="st1" d="M41.7,31.2V24c0-0.7,0.3-1,1-1H46c0.7,0,1.1,0.3,1.1,1v13.4c0.1,0.5-0.2,0.9-0.7,1c-0.1,0-0.2,0-0.3,0h-3.4
	c-0.7,0-1-0.3-1-1C41.7,37.4,41.7,31.2,41.7,31.2z"/>
<path class="st1" d="M38.2,33.4v4c0,0.8-0.3,1-1.1,1h-3.2c-0.7,0-1-0.3-1-1v-9.1c0-0.7,0.3-1,1-1h3.3c0.7,0,1,0.3,1,1V33.4z"/>
<path class="st0" d="M51.8,17.3l-0.5,0.2l-22.6,9.9L24.9,29c-0.1,0-0.2,0.1-0.3,0.1c-0.2,0-0.4-0.1-0.5-0.2
	c-0.1-0.2-0.1-0.4,0.1-0.5h0.1l0.9-0.4l25.9-11.3l0.4-0.2l-0.6-1.3c-0.2-0.5,0-0.8,0.5-0.7l3.9,0.5c0.5,0,0.6,0.4,0.3,0.8l-2.3,3.1
	c-0.4,0.5-0.7,0.4-0.9-0.1L51.8,17.3z"/>
<path class="st1" d="M29.3,35.2c0,0.8,0,1.6,0,2.3c0.1,0.5-0.3,0.9-0.7,0.9c-0.1,0-0.1,0-0.2,0H25c-0.5,0.1-0.9-0.3-0.9-0.7
	c0-0.1,0-0.2,0-0.2v-5.7c-0.1-0.5,0.3-0.9,0.7-0.9c0.1,0,0.2,0,0.2,0h3.4c0.7,0,1,0.3,1,1C29.4,32.6,29.3,34.4,29.3,35.2z"/>
<path class="st2" d="M31,1.6c1.2,0,2.1,0.9,2.1,2.1S32.2,5.8,31,5.8s-2.1-0.9-2.1-2.1S29.8,1.6,31,1.6z"/>
</svg>
