<?xml version="1.0" encoding="utf-8"?>
<!-- Generator: Adobe Illustrator 21.0.0, SVG Export Plug-In . SVG Version: 6.00 Build 0)  -->
<svg version="1.1" id="Capa_1" xmlns="http://www.w3.org/2000/svg" xmlns:xlink="http://www.w3.org/1999/xlink" x="0px" y="0px"
	 viewBox="0 0 115 107" style="enable-background:new 0 0 115 107;" xml:space="preserve">
<style type="text/css">
	.st0{fill:#666666;}
</style>
<title>tech-icon1</title>
<g>
	<path class="st0" d="M55.5,29c0.9,0,1.7,0,2.7,0c0.1,0.1,0.3,0.1,0.5,0.1c3.3,0.2,6.5,1.1,9.4,2.6C76,35.8,80.6,42.1,82,50.8
		c0.1,0.8,0.2,1.6,0.3,2.3c0,0.9,0,1.7,0,2.7c-0.1,0.1-0.1,0.3-0.1,0.5c-0.2,3.4-1.1,6.6-2.7,9.6c-4.1,7.8-10.4,12.4-19.1,13.8
		c-0.8,0.1-1.6,0.2-2.3,0.3c-0.9,0-1.7,0-2.7,0c-0.1-0.1-0.3-0.1-0.5-0.1c-3.3-0.2-6.6-1.1-9.5-2.6c-7.8-4.1-12.4-10.4-13.9-19.1
		c-0.1-0.8-0.2-1.6-0.3-2.3c0-0.9,0-1.7,0-2.7c0.1-0.1,0.1-0.3,0.1-0.5c0.2-3.4,1.1-6.7,2.7-9.7c4.1-7.7,10.4-12.2,19-13.7
		C53.9,29.1,54.7,29.1,55.5,29z M72.3,37.5c-6.6-5.5-13.8-7.3-21.9-5c-5.4,1.5-9.6,4.8-12.9,9.4c1.3,0,2.3,0,3.5,0
		c1.3-0.1,2.7-0.1,4.1-0.2c0.6,0,1,0.3,1.1,0.8c0.1,0.6-0.2,0.9-0.9,1.1c-0.2,0.1-0.5,0.1-0.7,0.1c-0.6,0.1-1.2,0.1-1.9,0.2
		c2.8,8.3,5.6,16.5,8.4,24.9c0.1-0.2,0.1-0.3,0.1-0.3c1.6-4.8,3.2-9.6,4.8-14.5c0.1-0.2,0.1-0.5-0.1-0.6c-1.1-3-2.2-6-3.3-9
		c-0.1-0.3-0.3-0.5-0.6-0.5c-0.7-0.1-1.3-0.1-2-0.2c-0.5-0.1-0.8-0.5-0.7-0.9c0.1-0.5,0.4-0.9,0.9-0.9c0.3,0,0.5,0.1,0.7,0.1
		c2.5,0.1,5,0.1,7.5,0.2c1.3,0,2.6-0.1,3.9-0.2c0.6,0,1,0.3,1.1,0.8c0.1,0.5-0.3,0.9-0.9,1c-0.2,0.1-0.5,0.1-0.7,0.1
		c-0.6,0.1-1.2,0.1-1.9,0.2c2.7,8.2,5.5,16.4,8.3,24.6c0.1-0.1,0.1-0.2,0.1-0.2c1.1-3.8,2.3-7.7,3.5-11.5c0.6-2.1,0.7-4.1,0.1-6.2
		c-0.5-1.7-1.3-3.1-2.2-4.6c-0.5-1-1.1-2-1.4-3.1c-0.6-2.2,0.6-4.4,2.7-5C71.4,37.6,71.8,37.6,72.3,37.5z M64.4,76.2
		c-2.4-6.5-4.8-13-7.1-19.5c-0.1,0-0.1,0-0.1,0c-2.3,6.6-4.6,13.2-6.9,19.8C53.3,77.9,61.3,77.7,64.4,76.2z M46.8,75.2
		c-3.7-10-7.3-20-11-30.1C30.9,56,35.5,69.8,46.8,75.2z M68.4,74.2c0.1,0,0.1,0.1,0.1,0.1c5.6-3.5,9.3-8.4,10.8-14.9
		c1.2-5.5,0.4-10.8-2.2-15.7C77,43.7,77,43.8,77,43.9c0.1,1.6,0.1,3.2-0.1,4.8c-0.3,1.9-0.9,3.7-1.6,5.6c-1.8,5.2-3.6,10.4-5.4,15.6
		C69.4,71.4,68.9,72.8,68.4,74.2z"/>
</g>
</svg>
