<?xml version="1.0" encoding="utf-8"?>
<!-- Generator: Adobe Illustrator 21.0.0, SVG Export Plug-In . SVG Version: 6.00 Build 0)  -->
<svg version="1.1" id="Layer_1" xmlns="http://www.w3.org/2000/svg" xmlns:xlink="http://www.w3.org/1999/xlink" x="0px" y="0px"
	 viewBox="0 0 150 150" style="enable-background:new 0 0 150 150;" xml:space="preserve">
<style type="text/css">
	.st0{fill:#666666;}
</style>
<title>Asset 3</title>
<g id="Layer_2">
	<g id="Layer_1-2">
		<path class="st0" d="M79.6,53c1.1,0.9,2.1,1.8,3,2.8c0.9,1.1,1.6,2.3,2.4,3.4c0.2,0.4,0.5,0.7,0.8,1c3,2.9,5.8,6,7.4,9.9
			c0.7,1.8,1.3,3.6,1.6,5.5c0.5,2.7-1.1,4.6-3.8,5.1c-5.6,1-11.2,2.1-16.8,3.1c-0.7,0.1-1.3,0.1-2,0c-0.6,0-0.6,0.2-0.5,0.6
			c0.1,0.3,0.2,0.6,0.4,0.8c3.8,8.2,7.6,16.3,11.4,24.5c1.8,3.7,0.1,7.5-3.7,8.6c-2.2,0.6-4.2-0.1-5.3-2.1c-1.6-2.9-3-5.9-4.4-8.9
			c-2.5-5.2-4.8-10.5-7.2-15.8c-0.1-0.3-0.3-0.5-0.5-1L62,91.9c-3.5,7.8-6.5,15.8-9.3,23.8c-0.5,1.4-1.1,2.8-2.6,3.5
			c-2.2,1-4.2,0.5-6-0.9s-2.7-3.4-2-5.7c1.1-3.5,2.3-6.9,3.6-10.3c3-8.1,6.4-16,10.3-23.7c1.9-3.7,3.3-7.6,5.1-11.3
			c3.4-7.2,7.4-14,12-20.5C79,38.4,87,33.2,97,31.1c1.9-0.4,3.8-0.7,5.7-0.9c2.7-0.2,5.1,1.8,5.3,4.5c0,0.2,0,0.4,0,0.5
			c0.1,1.9-1.3,3.6-3.2,3.7c-2,0.3-4,0.5-5.9,0.9C91,41.5,84.5,45.5,80,52.4C79.9,52.6,79.8,52.7,79.6,53z M76.3,74.3l0.2,0.3L85,73
			l-3.8-5.1L76.3,74.3z"/>
		<path class="st0" d="M93.5,60.4c-4.2,0-7.6-3.4-7.7-7.6c0-4.2,3.4-7.6,7.6-7.7c4.2,0,7.6,3.4,7.7,7.6S97.7,60.4,93.5,60.4z"/>
	</g>
</g>
</svg>
