<?xml version="1.0" encoding="utf-8"?>
<!-- Generator: Adobe Illustrator 24.3.0, SVG Export Plug-In . SVG Version: 6.00 Build 0)  -->
<svg version="1.1" id="Layer_1" xmlns="http://www.w3.org/2000/svg" xmlns:xlink="http://www.w3.org/1999/xlink" x="0px" y="0px"
	 viewBox="0 0 225 232.7" style="enable-background:new 0 0 225 232.7;" xml:space="preserve">
<style type="text/css">
	.st0{fill:#0093ED;}
	.st1{fill:#323442;}
	.st2{fill:#B66766;}
	.st3{fill:#282A3A;}
	.st4{fill:#FFFFFF;}
	.st5{fill:#01051A;}
	.st6{fill:#038DCA;}
	.st7{fill:#FDC0AE;}
	.st8{fill:#4C4C5B;}
	.st9{opacity:0.1;enable-background:new    ;}
	.st10{fill:#EEECF4;}
	.st11{fill:#A8B0B6;}
	.st12{fill:#CBD5DA;}
	.st13{fill:#1D3570;}
	.st14{fill:#F7F4EE;}
	.st15{fill:#323441;}
	.st16{fill:#18A4EA;}
	.st17{clip-path:url(#SVGID_2_);fill:#18A4EA;}
	.st18{fill:#FFC2B0;}
	.st19{clip-path:url(#SVGID_4_);fill:#18A4EA;}
	.st20{fill:#F4976E;}
	.st21{fill:#DF5D5F;}
	.st22{fill:#028FCC;}
	.st23{fill:none;stroke:#000517;stroke-width:0.45;stroke-linecap:round;stroke-miterlimit:10;}
	.st24{fill:#000517;}
	.st25{fill:#D01535;}
	.st26{clip-path:url(#SVGID_6_);fill:#FFFFFF;}
	.st27{fill:none;stroke:#9B112F;stroke-width:0.7335;stroke-miterlimit:10;}
	.st28{fill:#0E1623;}
	.st29{fill:#223249;}
	.st30{fill:#3B4C60;}
	.st31{fill:#15A0E5;}
	.st32{clip-path:url(#SVGID_8_);fill:#15A0E5;}
	.st33{clip-path:url(#SVGID_10_);fill:#0093ED;}
	.st34{opacity:0.7;}
	.st35{clip-path:url(#SVGID_12_);fill:#323441;}
	.st36{fill:#FFCF5C;}
	.st37{fill:#EE54A1;}
	.st38{fill:#2C4481;}
	.st39{fill:#21386D;}
	.st40{fill:#293D54;}
	.st41{fill:#FDD98A;}
	.st42{fill:#233B72;}
	.st43{opacity:0.1;fill:#020202;enable-background:new    ;}
	.st44{fill:#6C8DDB;}
	.st45{fill:#90AAE8;}
	.st46{fill:#1B1D28;}
	.st47{fill:#3F3C6B;}
	.st48{fill:#525078;}
	.st49{fill:#FF7D71;}
	.st50{fill:#49437B;}
	.st51{fill:#154284;}
</style>
<g>
	<path class="st0" d="M84.9,78.2c0,0-1.7,0.5-2.7,3S79,91.5,78.5,93.6s1.8,11.5,4.7,16.4l3.6-0.1c0,0-3.7-12.3-4-13.5
		c-0.2-1.2,3.2-8.2,3.2-8.2C87,84.8,86.8,81.3,84.9,78.2z"/>
	<path class="st1" d="M94.1,79.1h-0.4l-0.3,0.2l-0.2-0.2L92.7,79l-2.5-2.5l-5.8,2.4l-0.6,6.2c0.1,6.2,0.9,16.1,0.9,16.5
		s-1.1,3.7-1.7,5.8l8.9,0.4l8.9,0.4c-0.4-2-1.2-5.5-1.2-5.9s1.8-10.3,2.6-16.4v-6.2l-5.5-2.9L94.1,79.1z"/>
	<path class="st1" d="M96.5,138.5c-0.4,2.6-2.9,19.6-3.1,20.6c-0.2,0.9-0.7,0.7-1.6,0.6c-1-0.1-1.1-0.1-1.7-0.1s-0.6-0.4-0.6-1.1
		c0-0.5,1.1-21.6,1.2-24.1c0-2.4,1.2-15.7,1.2-21l-2.4,1.8c0,0,0.5-0.4,1.2-1.2v-1.3l1.2,0.1c1.1-1.3,2.1-3,2.1-4.6
		c3.1,0,5.2-0.6,6.5-1.2c0,0.4,0,0.9,0.1,1.3C101.2,114.3,98.4,125.8,96.5,138.5z"/>
	<path class="st1" d="M89.5,155.6c0.1-1.5,0.2-3.4,0.3-5.6c1.1,0.6,2.6,1.7,2.9,2.2c0.4,1,0.3,2.5,0,3.2
		C92.4,155.9,90.8,155.9,89.5,155.6L89.5,155.6z M90.4,138.6c0.1-1.9,0.1-3.1,0.1-4.1l0.9-14c2.4-2.5,5.2,2.9,5,6.5
		c-0.2,2.1-1.6,11.9-1.9,13C94.2,140.8,92.1,140.2,90.4,138.6z"/>
	<path class="st1" d="M83.4,106.5c-0.4,2.9-1.1,6.6-1.5,8.3c0,0-1.5,12.7-1.7,15c-0.2,2.2-0.7,3.6,1.9,6.6
		c2.6,3.1,13.8,16.7,14.6,17.1s2.5-1.7,2.6-3.9c0,0,0-1.1-0.5-1.5c-0.5-0.5-9.8-15.6-10.6-16.5c-0.7-1-0.5-1.4-0.2-2.6
		c0.3-1.1,2.6-8.3,4.5-13.6c0,0,1.5-3.9,1.4-7.2C91.1,108.2,87.7,107.8,83.4,106.5z"/>
	<path class="st1" d="M83.4,106.5c-0.4,2.4-0.9,5.5-1.3,7.4c0.4-0.7,1.1-1.7,1.7-2.1c1.2-0.6,2.8-1.3,4.3-0.6
		c1.5,0.6,1.7,3.5,0.6,7.3c-1,3.6-3,12.2-3.1,13.1c-0.2,0.9,0.2,0.1,0.7,0.4c0.4,0.3,7.9,13.8,9.3,15.2s0.9,3.9-0.9,4.7
		c0.7,0.7,1.3,1.6,1.7,1.8c0.4,0.3,2.5-1.7,2.6-3.9c0,0,0-1.1-0.5-1.5c-0.5-0.5-9.8-15.6-10.6-16.5c-0.7-1-0.5-1.4-0.2-2.6
		c0.3-1.1,2.6-8.3,4.5-13.6c0,0,1.5-3.9,1.4-7.2C91.1,108.2,87.7,107.8,83.4,106.5z"/>
	<path class="st2" d="M100.4,108.4c-1.4,0.4-4.2,1.2-8.6,1.1c-4.5-0.3-7.3-1.4-8.5-1.9c-0.1,0-0.1-0.2-0.1-0.4
		c0.1-0.4,0.1-0.9,0.2-1.3c0-0.3,0.1-0.3,0.2-0.3c0.9,0.4,3.4,1.6,8.2,1.9c4.7,0.2,7.4-0.6,8.3-1.1c0.1,0,0.2-0.1,0.2,0.3
		c0,0.3,0,0.7,0.1,1.1C100.6,108.2,100.5,108.3,100.4,108.4z"/>
	<path class="st3" d="M87.8,106.6h-0.2c-0.1,0-0.1,0-0.2,0.1l-0.3,2.1c0,0.1,0,0.2,0.1,0.2h0.2c0.1,0,0.1,0,0.2-0.1l0.3-2.1
		C87.9,106.7,87.9,106.6,87.8,106.6z"/>
	<path class="st4" d="M90.2,107l3.3,0.2c0.1,0,0.2,0.1,0.2,0.3l-0.1,2.2c0,0.1-0.1,0.3-0.2,0.3l-3.3-0.2c-0.1,0-0.2-0.1-0.2-0.3
		l0.1-2.2C90,107.1,90.1,107,90.2,107L90.2,107z M90.7,107.7C90.6,107.7,90.6,107.8,90.7,107.7l-0.2,1.3c0,0.1,0,0.1,0.1,0.1
		l2.5,0.1c0.1,0,0.1-0.1,0.1-0.1l0.1-1.2c0-0.1,0-0.1-0.1-0.1L90.7,107.7z"/>
	<path class="st3" d="M96,107h0.2c0.1,0,0.1,0.1,0.1,0.1l0.1,2.1c0,0.1-0.1,0.1-0.1,0.2h-0.2c-0.1,0-0.1-0.1-0.1-0.1l-0.1-2.1
		C95.9,107.1,96,107,96,107z"/>
	<path class="st5" d="M98.9,106.8h0.2c0.1,0,0.1,0,0.2,0.1l0.2,1.7c0,0.1,0,0.1-0.1,0.2h-0.2c-0.1,0-0.1,0-0.2-0.1l-0.2-1.7
		C98.8,106.9,98.8,106.9,98.9,106.8z"/>
	<path class="st5" d="M85,106.2h-0.2c-0.1,0-0.2,0-0.2,0.1l-0.4,1.6c0,0.1,0,0.2,0.1,0.2h0.2c0.1,0,0.2,0,0.2-0.1l0.4-1.6
		C85.1,106.3,85,106.2,85,106.2z"/>
	<polygon class="st6" points="93.9,80.7 94,81.5 94.2,99.8 92.1,104.5 90.4,99.5 92.5,81.3 92.7,80.6 93.2,81.1 	"/>
	<path class="st6" d="M93.9,80.7l0.1,0.7l0.3,18.3l-2.1,4.6c0,0,1.4-4.1,1.4-4.7c0.1-0.6,0.2-18.1,0-18.3S93,81.1,93,81.1l0.3-0.2
		l0.1,0.1L93.9,80.7z"/>
	<path class="st0" d="M89.8,102.6l0.5-26c0,0,0-0.2-0.1-0.2l-5.4,1.8c-0.1,0-1.2,0.4-1.4,2.1c-0.2,1.8,0.7,20.6,0.7,21.2
		c0,0.5-1.1,3.7-1.7,5.8s-0.9,2.8-0.9,3.1s0.4,0.5,0.6,0.6c0.3,0.1,6-2.5,6.7-3.6C89.8,106.2,89.8,102.6,89.8,102.6z"/>
	<path class="st7" d="M93.8,71.8L93.8,71.8c1.5,0.1,2.7,1.4,2.6,2.9l-0.1,2.1c-0.1,1.5-1.4,2.7-2.9,2.6l0,0
		c-1.5-0.1-2.7-1.4-2.6-2.9l0.1-2.1C91,72.9,92.3,71.7,93.8,71.8z"/>
	<path class="st3" d="M92.8,79.1H93v0.1c0,0.1,0,0.3,0,0.3l-0.2,0.1h-0.4C92.6,79.6,92.8,79.1,92.8,79.1z"/>
	<path class="st3" d="M93.9,79.2l-0.2-0.1c0,0-0.1,0-0.1,0.1s0,0.3,0,0.3l0.2,0.2h0.4C94.1,79.7,93.9,79.2,93.9,79.2z"/>
	<path class="st6" d="M92.5,81.3L92,79.8c0.5-0.5,2.1-0.4,2.6,0.1L94,81.3C93.6,81.3,92.9,81.2,92.5,81.3z"/>
	<path class="st6" d="M92.2,80.5L92,80c0.2-0.2,0.5-0.3,0.9-0.3L92.2,80.5L92.2,80.5z M93.4,79.5c0.5,0,1.1,0.2,1.3,0.4L94,81.3
		c-0.1-0.1-0.3-0.1-0.5-0.1c0.1-0.1,0.2-0.2,0.3-0.2c0,0,0.1-1.3,0-1.3L93.4,79.5z"/>
	<path class="st8" d="M96.2,76.4c0,0,0.2,0,0.3,0c0.1,0,0.3,0.6,0.4,0.9c0,0,0.1,0.2,0,0.6c-0.1,0.3-1.7,3.4-1.7,3.4s-0.1,0.1-0.3,0
		c-0.1-0.2-1.4-2.2-1.4-2.2l2.6-2.5L96.2,76.4z"/>
	<path class="st0" d="M94.4,102.9L96.6,77c0,0,0-0.2,0.1-0.2l5.1,2.4c0.1,0,1.1,0.5,1.2,2.2c0,1.8-2.9,20.4-2.9,21
		c0,0.5,0.7,3.9,1.2,5.9s0.5,2.8,0.5,3.1s-0.4,0.5-0.7,0.6c-0.3,0.1-5.7-3.1-6.3-4.4C94.1,106.4,94.4,102.9,94.4,102.9z"/>
	<path class="st6" d="M102.3,87.1c-0.9,6.1-2.1,14.9-2.2,15.3c0,0.5,0.7,3.9,1.2,5.9s0.5,2.8,0.5,3.1s-0.4,0.5-0.7,0.6
		c-0.1,0-1.3-0.5-2.7-1.4c0.9-0.9,1.6-1.9,1.6-2.5c-0.1-0.9-0.7-5.1-1-5.2c-0.2-0.1-0.6,0-0.4-0.2s0.6-0.7,0.7-1.5
		c0.1-0.9,1.3-12,1.6-13.7C101.3,85.8,101.9,86.2,102.3,87.1z"/>
	<path class="st8" d="M90.8,76.2c0,0-0.2,0-0.3,0c-0.1,0-0.4,0.5-0.5,0.9c0,0-0.2,0.2-0.1,0.6s1.4,3.5,1.4,3.5s0.1,0.2,0.3,0
		c0.2-0.1,1.6-2,1.6-2L91,76.5L90.8,76.2z"/>
	<path class="st9" d="M96.7,76.7l1.6,0.7c0.3,1,1.4,4.2,1.3,4.3c-0.1,0.1-1.9,0.4-1.9,0.4l1.5,0.7c0,0,0.1,0.1,0.1,0.3
		c0,0.2-3.7,15-4.7,18.9L96.7,76.7C96.6,77,96.6,76.7,96.7,76.7z"/>
	<path class="st10" d="M96.9,81.7l1.8,0.9c0,0,0.2,0.1,0.2,0.3c0,0.1-4.4,18.5-4.4,18.5l1.6-19.5L96.9,81.7z"/>
	<path class="st11" d="M95.2,94.3l1.1-12.4h0.1C95.8,86.9,95.2,94.3,95.2,94.3L95.2,94.3z"/>
	<path class="st4" d="M96.7,76.7l1.2,0.4c0,0,0.1,0,0.1,0.1s1.2,3.9,1.2,4s-0.1,0.2-0.2,0.3c-0.2,0.1-2.8,0.7-2.8,0.7L96.7,76.7
		C96.6,76.8,96.6,76.7,96.7,76.7z"/>
	<path class="st12" d="M96.7,76.7l1.1,0.4c0,0-0.7-0.2-0.9-0.2s-0.2,0.1-0.2,0.2s-0.2,2.2-0.4,5.1h-0.1L96.7,76.7
		C96.6,76.8,96.6,76.7,96.7,76.7z"/>
	<path class="st9" d="M90.2,76.4L88.5,77c-0.4,0.9-1.8,4.1-1.7,4.2c0.1,0.1,1.9,0.6,1.9,0.6l-1.5,0.6c0,0-0.1,0.1-0.1,0.3
		c0,0.2,2.1,15.3,2.8,19.3l0.5-25.4C90.4,76.6,90.4,76.4,90.2,76.4z"/>
	<path class="st10" d="M89.6,81.3L87.7,82c0,0-0.2,0.1-0.2,0.2s2.5,18.9,2.5,18.9l0.4-19.6L89.6,81.3z"/>
	<path class="st11" d="M90,94l0.2-12.4h-0.1C90.1,86.6,90,94,90,94L90,94z"/>
	<path class="st4" d="M90.2,76.4L89,76.7c0,0-0.1,0-0.1,0.1s-1.6,3.6-1.6,3.9c0,0.1,0,0.3,0.2,0.3c0.2,0.1,2.8,1.1,2.8,1.1l0.1-5.5
		C90.5,76.5,90.4,76.4,90.2,76.4z"/>
	<path class="st12" d="M90.2,76.4l-1.1,0.3c0,0,0.7-0.1,0.9-0.1s0.1,0.1,0.1,0.2s0,2.4-0.1,5.1h0.1L90.2,76.4
		C90.5,76.5,90.5,76.4,90.2,76.4z"/>
	<path class="st4" d="M85.1,87.3l2.1,0.1c0.1,0,0.2,0.1,0.2,0.2l0,0c0,0.1-0.1,0.2-0.2,0.2l-2.1-0.1c-0.1,0-0.2-0.1-0.2-0.2l0,0
		C85,87.3,85,87.3,85.1,87.3z"/>
	<g>
		<path class="st13" d="M92.7,61.7c0,0-0.2-2.7,2.5-2v0.2c-2.5-0.5-2.2,1.8-2.2,1.8H92.7z"/>
		<path class="st13" d="M96.1,59.8c0,0,2.7,0,1.9,2.6l-0.2-0.1c0.6-2.2-1.7-2.2-1.7-2.2L96.1,59.8z"/>
		<path class="st13" d="M95.7,59.5c1.2,0.2,2,1.3,1.9,2.5c-0.2,1.2-1.3,2-2.5,1.9c-1.2-0.2-2-1.3-1.9-2.5
			C93.4,60.2,94.4,59.4,95.7,59.5z"/>
	</g>
	<g>
		<path class="st7" d="M89.1,67.9L89.1,67.9L89.1,67.9L89.1,67.9c-0.7,0-1.4,0.5-1.5,1.3c-0.1,0.9,0.4,1.6,1.3,1.7s1.6-0.4,1.7-1.3
			c0.1-0.4-0.1-1-0.4-1.3c0,0.4-0.2,1-0.7,1l0.1-0.9C89.6,68.1,89.3,67.9,89.1,67.9z"/>
		<path class="st7" d="M99.8,69.4L99.8,69.4L99.8,69.4L99.8,69.4c0.7,0.2,1.2,0.9,1.1,1.6c-0.1,0.9-0.9,1.4-1.7,1.3
			s-1.4-0.9-1.3-1.7c0.1-0.4,0.3-0.9,0.7-1.1c-0.1,0.4-0.1,1,0.4,1.1l0.1-0.9C99.2,69.4,99.6,69.2,99.8,69.4z"/>
	</g>
	<path class="st7" d="M95.5,61.1L95.5,61.1c-2.8-0.4-5.5,1.6-5.8,4.4l-0.6,4.6c-0.4,2.8,1.6,5.5,4.4,5.8l0,0
		c2.8,0.4,5.5-1.6,5.8-4.4l0.6-4.6C100.3,64.1,98.3,61.5,95.5,61.1z"/>
	<path class="st7" d="M91,75c0.6,0.5,1.5,0.9,2.4,1l0,0c2.8,0.4,5.5-1.6,5.8-4.4l0.6-4.6c0.1-0.7,0-1.4-0.1-2
		c-0.4-0.3-1-0.5-1.6-0.7l-0.9,1.1c0,0,1.5,0.4,1.3,2.4C98.3,69.6,98,72,98,72s0,1-0.7,1.1s-1.6-0.2-1.6-0.2L90.9,73L91,75z"/>
	<path class="st4" d="M95.3,72.8c-0.1,0.7-0.7,1.2-1.5,1.1c-0.7-0.1-1.2-0.7-1.1-1.5l0,0c0-0.1,0.1-0.2,0.2-0.2l2.1,0.3
		C95.2,72.6,95.3,72.7,95.3,72.8L95.3,72.8z"/>
	<path class="st13" d="M92.2,70c0-0.1,0-0.2-0.1-0.3c-0.1-0.1-0.2-0.2-0.3-0.2c-0.1,0-0.2,0-0.3,0.1c-0.1,0.1-0.2,0.2-0.2,0.3
		c0,0.1-0.1,0.2-0.2,0.1c-0.1,0-0.2-0.1-0.1-0.2c0-0.2,0.1-0.4,0.3-0.5c0.2-0.1,0.4-0.2,0.6-0.2s0.4,0.1,0.5,0.3
		c0.1,0.2,0.2,0.4,0.2,0.6c0,0.1-0.1,0.2-0.2,0.1C92.2,70.2,92.1,70.1,92.2,70L92.2,70z M97.4,70.7c0-0.1,0-0.2-0.1-0.3
		c-0.1-0.1-0.2-0.2-0.3-0.2c-0.1,0-0.2,0-0.3,0.1c-0.1,0.1-0.2,0.2-0.2,0.3c0,0.1-0.1,0.2-0.2,0.1c-0.1,0-0.2-0.1-0.1-0.2
		c0-0.2,0.1-0.4,0.3-0.5c0.2-0.1,0.4-0.2,0.6-0.2s0.4,0.1,0.5,0.3s0.2,0.4,0.2,0.6c0,0.1-0.1,0.2-0.2,0.1
		C97.4,71,97.4,70.9,97.4,70.7L97.4,70.7z M97.7,69.1c-0.3-0.2-0.9-0.3-1.3-0.2c-0.1,0-0.2,0-0.2-0.1s0-0.2,0.1-0.2
		c0.5-0.2,1.2-0.1,1.6,0.2c0.1,0.1,0.1,0.2,0,0.2C98,69.1,97.8,69.1,97.7,69.1L97.7,69.1z M91.2,68.2c-0.1,0-0.2,0-0.2-0.1
		s0-0.2,0.1-0.2c0.5-0.2,1.2-0.1,1.6,0.2c0.1,0.1,0.1,0.2,0,0.2c-0.1,0.1-0.2,0.1-0.2,0C92.2,68.1,91.6,68.1,91.2,68.2z"/>
	<path class="st13" d="M89.1,69.4c0,0,0.4-0.2,0.6-1.6c0.2-1.3,0.1-1,0.2-1.7c0.1-0.6,0.7-1.8,2.1-1.6c1.4,0.2,2.9,0.4,2.9,0.4
		s1.5,0.2,2.9,0.4c1.4,0.2,1.7,1.5,1.6,2.1s0,0.3-0.2,1.7c-0.2,1.3,0.2,1.7,0.2,1.7c0.1-1.1,0.5-1.4,0.5-1.4s0.2-1.4,0.3-2.6
		c0.2-1.2,0-2.9-1.4-4.2c-1-0.9-2.1-1.4-3.3-1.6c-1.3-0.2-2.6,0-3.6,0.6c-1.7,0.9-2.4,2.5-2.5,3.7c-0.2,1.2-0.3,2.6-0.3,2.6
		S89.3,68.3,89.1,69.4z"/>
	<path class="st13" d="M90.8,64.8c0.3-0.2,0.7-0.3,1.3-0.3c1.4,0.2,2.9,0.4,2.9,0.4l2.2,0.3l0,0c2.9-0.6,1.4-2.9,1.4-2.9
		c-0.9-0.7-2-1.2-3.1-1.4c-1.3-0.2-2.6,0-3.6,0.6c-0.7,0.4-1.3,1-1.7,1.5C89.9,64,90.8,64.8,90.8,64.8z"/>
	<path class="st13" d="M98.3,62c-0.5-0.3-1.1-0.6-1.6-0.9c-0.6,2.5-4.1,2-5.5,0.7c-0.1,0.1-0.2,0.2-0.4,0.3
		C92,64.6,97.5,64.4,98.3,62z"/>
	<path class="st13" d="M89,67.9c0,0-0.2,1.6-0.4,2.8c-0.2,1.3,1.4,4.6,2.7,5.2s1.7,0.6,2,0.7c0.3,0,0.7,0.1,2.1-0.1
		c1.4-0.3,3.7-3,4-4.3s0.4-2.8,0.4-2.8l-0.6-0.5c-0.1,0.7-0.2,2.2-0.4,3.2c-0.2,1-0.9,1-1.8,1.1c-0.6,0.1-1.4,1.8-1.9,1.7
		c-0.5-0.1-0.9-0.3-1-0.4s-0.4-0.1-0.4-0.1s-0.3,0-0.4,0s-0.5,0.2-1.1,0.1c-0.5-0.1-0.7-1.9-1.4-2.2c-0.9-0.3-1.6-0.5-1.5-1.5
		c0.1-0.9,0.3-2.5,0.4-3.2L89,67.9z"/>
	<path class="st13" d="M94,71.9c0.1-0.1,0.3-0.2,0.5-0.2c0.4,0.1,0.5,0.1,0.7,0.1s0.4,0.2,0.7,0.6c0.3,0.4,0.4,0.4,0.7,0.5
		c0.3,0,0.4,0,0.5,0.1c0.1,0,0.1,0.1-0.1,0.3c-0.1,0.1-0.4,0.4-1,0.3s-1-0.1-1.4-0.2c-0.3,0-0.6-0.3-0.9-0.6c0-0.1-0.1-0.1-0.1-0.2
		c0,0-0.1,0.1-0.2,0.1c-0.2,0.2-0.5,0.4-1,0.3c-0.3,0-0.7-0.1-1.4-0.2c-0.6-0.1-0.7-0.4-0.9-0.6c-0.1-0.2-0.1-0.3,0-0.3
		s0.2,0,0.5,0.1c0.3,0,0.4,0.1,0.9-0.3c0.4-0.3,0.7-0.4,0.9-0.4c0.2,0,0.3,0,0.7,0.1C93.8,71.6,93.9,71.8,94,71.9z"/>
	<path class="st0" d="M101.8,79.1c0,0,1.5,0.9,2.1,2.1c0.6,1.3,3.4,7.1,4,8c0.5,1,1.1,0.5,1.6,0.1s6.2-5.5,6.2-5.5s0.2-0.1,0.2,0.2
		c0.1,0.3,0.9,2.6,1.1,3.2s-0.4,1.1-1.1,1.8c-0.6,0.7-6,5.4-6.9,6s-2.1,0.5-3.5-0.7c-1.4-1.3-4.7-5.2-4.7-5.2S99.9,83,101.8,79.1z"
		/>
	<path class="st9" d="M114.9,84.6c0.5-0.4,0.9-0.7,0.9-0.7s0.2-0.1,0.2,0.2c0.1,0.3,0.9,2.6,1.1,3.2s-0.4,1.1-1.1,1.8s-6,5.4-6.9,6
		s-2.1,0.5-3.5-0.7c-1.4-1.3-4.7-5.2-4.7-5.2s0-0.2-0.1-0.6c0-0.3,0.1-0.6,0.1-0.9c0.3-1.7,1-1.4,1.4-0.4s2.8,6,3.9,6.9
		c1.1,1,1.8,0.9,2.4,0.5c0.5-0.3,5-4.2,5.8-6C114.8,87.6,114.9,85.8,114.9,84.6z"/>
	<path class="st6" d="M101.6,155.9l1.8-3.1c0.1-0.2,0.1-0.5-0.2-0.7l-0.7-0.4c-0.2-0.1-0.5-0.1-0.7,0.2L100,155
		c-0.1,0.2-0.1,0.5,0.2,0.7l0.7,0.4C101.2,156.4,101.5,156.3,101.6,155.9z"/>
	<path class="st6" d="M97.8,160.9c0,0-0.2,0.1-0.5-0.1c-1.4-0.7,0.6-2.8,0.6-4c0-1-0.3-2.8-1.5-3.5c0,0-0.7-0.4-0.2-1.3
		c0.5-0.9,0.6-1.1,0.7-1.4c0.2-0.3,0.6-0.6,1.2-0.5c0,0,0.3-0.5,0.5-0.9c0.2-0.3,0.5-0.7,1.4-0.2s2.8,1.6,3,1.7s0.4,0.3,0.4,0.5
		c0,0,0.2,0.2,0.3,0.3c0,0.1-0.2,0.7-0.4,1.1c-0.2,0.2-1.1,0.9-1.1,0.9s-0.2,0.2-0.4,0c0,0-0.2-0.1-0.4,0.2
		c-0.2,0.3-0.3,1.1-0.3,1.2s0,0.2,0.2,0.3c0.1,0.1,0.1,1-0.4,1.9C100.3,158,97.8,160.9,97.8,160.9z"/>
	<path class="st6" d="M98.1,150.2c0,0,0.3-0.5,0.5-0.9c0.2-0.3,0.5-0.7,1.4-0.2s2.8,1.6,3,1.7c0.2,0.1,0.4,0.3,0.4,0.5
		c0,0,0.2,0.2,0.3,0.3c0,0.1-0.2,0.7-0.4,1.1c-0.2,0.2-1.1,0.9-1.1,0.9s-0.2,0.2-0.4,0c0,0-0.2-0.1-0.4,0.2
		c-0.2,0.3-0.3,1.1-0.3,1.2s0,0.2,0.2,0.3c0.1,0.1,0.1,1-0.4,1.9c-0.3,0.5-1.4,2-2.1,2.9c-0.7-0.7-0.6-1.5-0.3-2.1
		c0.4-0.7,0.9-1.5,1.9-3.3c1.1-1.9-0.1-3.2-0.9-3.6C98.6,150.5,98.1,150.2,98.1,150.2z"/>
	<path class="st6" d="M98.6,161.3l3.3-5.8c0.1-0.1,0-0.2-0.1-0.3l-0.3-0.2c-0.1-0.1-0.2,0-0.3,0.1l-3.3,5.8c-0.1,0.1,0,0.2,0.1,0.3
		l0.3,0.2C98.4,161.4,98.5,161.4,98.6,161.3z"/>
	<path class="st6" d="M101.5,156.3l2.6-4.5c0.1-0.1,0-0.2-0.1-0.3l-0.3-0.2c-0.1-0.1-0.2,0-0.3,0.1l-2.6,4.5c-0.1,0.1,0,0.2,0.1,0.3
		l0.3,0.2C101.3,156.4,101.4,156.4,101.5,156.3z"/>
	<g>
		<g>
			<path class="st6" d="M89.2,156.7c0,0,0.2-0.6,0.5-0.6s1.7,0,1.9,0c0.3,0,1.3,0.2,1.3,1.1c0,0,0.6,0.5,0.7,0.6s0.2,0.2,0.2,0.7
				c0,0.4,0,2.1,0,2.5c0,0.3,0.1,1.6-2,1.6s-3.4,0-4.1,0c-0.6,0-1.2-0.5-1.2-1.2c0-0.5,0.1-1.1,0.9-2.1c0.7-1.1,1.3-1.8,1.3-1.8
				S88.8,156.8,89.2,156.7z"/>
			<path class="st6" d="M91.6,156.1c0.3,0,1.2,0.3,1.2,1.1c0,0,0.6,0.5,0.7,0.6s0.2,0.2,0.2,0.7c0,0.4,0,2.1,0,2.5
				c0,0.3,0.1,1.6-2,1.6h-0.5l0.2-1.3c0,0,1-2.7,1-3.7C92.4,156.4,91.6,156.1,91.6,156.1z"/>
			<path class="st6" d="M86.4,161.2h7.3c0.2,0,0.3,0.1,0.3,0.3v0.6c0,0.2-0.1,0.3-0.3,0.3h-7.3c-0.2,0-0.3-0.1-0.3-0.3v-0.6
				C86.1,161.3,86.2,161.2,86.4,161.2z"/>
			<path class="st6" d="M91.6,161.5v0.6c0,0.1-0.1,0.3-0.2,0.3h-0.1h2.4c0.2,0,0.3-0.1,0.3-0.3v-0.6c0-0.2-0.1-0.3-0.3-0.3
				c0,0,0,0-0.1,0h-2.4C91.4,161.2,91.6,161.3,91.6,161.5z"/>
		</g>
	</g>
	<path class="st13" d="M94,70.2c0,0-0.5,0.5-0.6,0.7s0.4,0.4,0.5,0.3s0.2-0.5,0.3-0.9C94.2,70.2,94.1,70.1,94,70.2z"/>
	<path class="st9" d="M83,102.8c-0.4,0.5-1.1,1.7-2,0.4s-2.1-5.7-2.1-5.7c0.6,3.1,1.9,7.4,3.4,10.7c0.1-0.2,0.2-0.5,0.3-0.9
		c0.6-2,1.7-5.2,1.7-5.8v-0.1c-0.7-2.4-1.3-4.5-1.4-4.9s0.4-1.8,1-3.3c-0.1-2-0.2-4.2-0.2-6.2c0-0.1,0-0.2,0-0.2
		c-0.2-1.2-0.3-1.9-0.3-1.8c0,0.2,0,1.4,0,2.8c0,1.9,0,4.3,0.1,4.8c0,0.7-0.6,3.3-1,3.5c-0.2,0.1-0.9,0.2-0.6,0.3
		c0.2,0.1,0.9,0.4,1,0.7c0.1,0.3,1,3.4,1.1,3.9C83.7,101.5,83.4,102.2,83,102.8z"/>
	<path class="st9" d="M83.9,93.1c0.1,1.6,0.1,3.2,0.2,4.5c0,0,0.1-0.5,0.3-1.2c0.2-0.9,0.3-2.1,0.2-3.1c0-0.3-0.1-0.7-0.2-1.3
		c-0.1-0.7-0.2-1.7-0.3-2.7c-0.1-0.9-0.2-1.7-0.3-2.4C83.7,88.9,83.8,91.1,83.9,93.1z"/>
</g>
<g>
	<g>
		<g>
			<path class="st14" d="M156.7,161.4h-45.3c-4.1,0-7.3-3.2-7.3-7.3V51.3c0-4.1,3.2-7.3,7.3-7.3h45.3c4.1,0,7.3,3.2,7.3,7.3v102.9
				C164,158.1,160.8,161.4,156.7,161.4z"/>
			<g>
				<path class="st14" d="M156.2,47.2c2.6,0,4.6,2,4.6,4.6v101.8c0,2.6-2,4.6-4.6,4.6H112c-2.6,0-4.6-2-4.6-4.6V51.8
					c0-2.6,2-4.6,4.6-4.6H156.2 M156.2,44H112c-4.3,0-7.8,3.5-7.8,7.8v101.8c0,4.3,3.5,7.8,7.8,7.8h44.2c4.3,0,7.8-3.5,7.8-7.8V51.8
					C164,47.5,160.5,44,156.2,44L156.2,44z"/>
			</g>
			<g>
				<path class="st14" d="M147.4,44.3h-26.8v1.9c0,2,1.6,3.7,3.7,3.7h19.4c2,0,3.7-1.6,3.7-3.7L147.4,44.3L147.4,44.3z"/>
			</g>
			<line class="st14" x1="129.1" y1="46.6" x2="139.4" y2="46.6"/>
		</g>
	</g>
</g>
<g>
	<g>
		<path class="st15" d="M167.4,148.2c0,0-3.8,2.9-3.6,4s17.7,2,18.8,1.7c1-0.4-1.8-5.6-1.8-5.6L167.4,148.2L167.4,148.2z"/>
		<g>
			<g>
				<path class="st16" d="M179,125.1c0,0,3.5-1,5.6,0.9c1.6,1.4,6.8,8.5,6.3,9.7c-0.6,1.2-2.1,2.4-3.5,2.7s-7.2-7.6-7.2-7.6
					S178.2,126.3,179,125.1z"/>
				<g>
					<g>
						<g>
							<g>
								<g>
									<defs>
										<path id="SVGID_1_" d="M179,125.1c0,0,3.5-1,5.6,0.9c1.6,1.4,6.8,8.5,6.3,9.7c-0.6,1.2-2.1,2.4-3.5,2.7s-7.2-7.6-7.2-7.6
											S178.2,126.3,179,125.1z"/>
									</defs>
									<clipPath id="SVGID_2_">
										<use xlink:href="#SVGID_1_"  style="overflow:visible;"/>
									</clipPath>
									<polygon class="st17" points="183.9,124.8 187.5,135.7 187,125.3 									"/>
								</g>
							</g>
						</g>
					</g>
				</g>
			</g>
			<g>
				<path class="st18" d="M159.7,131.9c0,0-0.8-1.5-0.6-2.1c0.3-0.6-0.1-1.2,0-1.7c0.1-0.6,1.3-2.3,1.8-2.9c0.6-0.6,0.6-1.3,1.2-0.9
					c0.6,0.4-0.7,2.3-0.9,2.7c-0.3,0.4,0.4,4.8,0.4,4.8L159.7,131.9z"/>
				<g>
					<path class="st16" d="M168.7,125.9c0,0-3.6,0.8-4.6,3.1c-1,2.3-1.2,11,0,12c1.2,0.9,4,0.6,5.1-2.1
						C171.3,133.5,168.7,125.9,168.7,125.9z"/>
					<g>
						<g>
							<g>
								<g>
									<g>
										<defs>
											<path id="SVGID_3_" d="M168.7,125.9c0,0-3.6,0.8-4.6,3.1c-1,2.3-1.2,11,0,12c1.2,0.9,4,0.6,5.1-2.1
												C171.3,133.5,168.7,125.9,168.7,125.9z"/>
										</defs>
										<clipPath id="SVGID_4_">
											<use xlink:href="#SVGID_3_"  style="overflow:visible;"/>
										</clipPath>
										<path class="st19" d="M163.3,130.6c0,0,3.2,5.8,3.4,9.7c0.1,4-6.6-9.4-6.6-9.4L163.3,130.6z"/>
									</g>
								</g>
							</g>
						</g>
					</g>
					<path class="st0" d="M166.9,143.4c-0.3,2.9-0.8,5.7-0.8,5.7c0.6,0.6,4.1,1.7,8.1,1.8c2.8,0.1,5.6-0.1,7.9-1.1
						c0,0,0-3.9,0.1-7.3c0-2.1-0.3-6.2-0.6-10.2c0,0-0.9-3-1-4c-0.2-2-0.3-3.6-0.3-3.6s-3.8,0.6-5.6,0.6c-2.2,0-5.8,0.5-5.8,0.5
						s0.3,0.5,0.1,2.6c-0.1,1-0.8,3-0.8,3.5C167.9,136.3,167.1,141.4,166.9,143.4z"/>
					<g>
						<path class="st20" d="M173.5,124.4c0,0.7-0.3,1.6-0.3,1.6c0.2,0.1,0.7,0.5,1.6,0.4c0.6-0.1,1.1-0.4,1.3-0.5
							c0,0-0.4-1.1-0.5-2.1c0-0.3,0-0.6,0-0.8c0-1,0.3-1.9,0.5-2.4l-2.9,0.1c0,0.1,0,0.1,0.1,0.2c0.4,1.4,0.5,2.4,0.5,3
							C173.5,124.1,173.5,124.2,173.5,124.4z"/>
						<path class="st21" d="M173.5,124c0,0.2,0,0.4,0,0.5c0.9-0.4,1.6-0.9,2-1.5c0-1,0.3-1.9,0.5-2.4l-2.7,0.1
							c-0.1,0.1-0.2,0.1-0.3,0.2C173.3,121.7,173.5,122.7,173.5,124z"/>
						<g>
							<path class="st13" d="M175.2,109.5c0,0,4.1,3,5.2,2.1c1.1-0.9-4-3.4-4.9-2.9C174.7,109.2,175.2,109.5,175.2,109.5z"/>
							<path class="st13" d="M175.7,110c0,0,5.1,0.8,5.6-0.5s-5.1-1.2-5.7-0.5C175.1,109.9,175.7,110,175.7,110z"/>
							<path class="st13" d="M175.8,109.4c0,0,5.1-1,5.1-2.4c0.1-1.4-5.2,0.6-5.4,1.6C175.2,109.5,175.8,109.4,175.8,109.4z"/>
							<path class="st13" d="M175.4,109c0,0,4.4-2.6,4-4s-4.7,2.3-4.6,3.3C174.8,109.3,175.4,109,175.4,109z"/>
							<path class="st13" d="M175.6,108.4c0,0,3.2-4,2.4-5.1c-0.8-1.2-3.6,3.9-3.2,4.7C175.1,108.8,175.6,108.4,175.6,108.4z"/>
							<path class="st13" d="M175.2,107.8c0,0,1.7-4.9,0.5-5.6c-1.2-0.8-2,4.8-1.4,5.5C175,108.3,175.2,107.8,175.2,107.8z"/>
							<path class="st13" d="M174.7,107.1c0,0,0.2-5.1-1.2-5.5s-0.6,5.2,0.3,5.7C174.7,107.6,174.7,107.1,174.7,107.1z"/>
							<path class="st13" d="M173.7,107.3c0,0-0.7-5.1-2.1-5.2c-1.4-0.2,0.4,5.2,1.3,5.5C173.7,107.9,173.7,107.3,173.7,107.3z"/>
							<path class="st13" d="M173,108.2c0,0-1.2-5.6-2.8-5.7s0.7,5.8,1.8,6.1C173,108.9,173,108.2,173,108.2z"/>
							<path class="st13" d="M171.9,109.9c0,0-4.1,3-5.2,2.1c-1.1-0.9,4-3.4,4.9-2.9C172.4,109.5,171.9,109.9,171.9,109.9z"/>
							<path class="st13" d="M171.2,110.5c0,0-5.1,0.3-5.5-1.1c-0.5-1.4,5.2-0.6,5.7,0.2S171.2,110.5,171.2,110.5z"/>
							<path class="st13" d="M170.3,110.3c0,0-4.8-1.9-4.6-3.3s5,1.6,5.1,2.6C170.9,110.5,170.3,110.3,170.3,110.3z"/>
							<path class="st13" d="M170.6,109.8c0,0-4-3.3-3.3-4.6c0.6-1.3,4.2,3.1,4,4C171.1,110.2,170.6,109.8,170.6,109.8z"/>
							<path class="st13" d="M170.5,109.3c0,0-2.7-4.4-1.7-5.4s3,4.2,2.6,5.1C170.9,109.7,170.5,109.3,170.5,109.3z"/>
							<path class="st22" d="M169.6,109.4c0,0,4.1-5.2,8.5,0H169.6z"/>
							<path class="st18" d="M169.6,115.6c0.1,0.7,0.2,1.4-0.4,1.4c-0.6,0-1.7-0.6-1.7-1.3c-0.1-0.7,0.4-1.4,1-1.5
								C169,114.3,169.5,114.9,169.6,115.6z"/>
							<path class="st18" d="M168.3,115.2c0.3,4,3.4,7.8,6.2,7.6c2.2-0.1,5.4-4.3,5.1-8.4c-0.3-4-2.9-6.3-6.1-6.2
								C170.4,108.6,168,111.3,168.3,115.2z"/>
							<path class="st18" d="M179,115.1c0.1,0.7,0,1.4,0.6,1.4s1.7-0.7,1.6-1.5c-0.1-0.7-0.6-1.4-1.2-1.3
								C179.4,113.7,179,114.3,179,115.1z"/>
							<path class="st23" d="M173.8,115.8c0,0,0.2,0.5,0,0.7c0,0-0.7-0.2-0.9,0.4c-0.1,0.6,0.4,1,0.8,1"/>
							<path class="st24" d="M177.4,113.3c0,0-1.4-0.7-2,0.6L177.4,113.3z"/>
							<path class="st24" d="M172.4,114.1c0,0-0.8-1.3-2-0.5L172.4,114.1z"/>
							<path class="st13" d="M168.3,114.3c0,0,0.4,2.4,0.5,2.5s0.2,0.3,0.5,0.3c0.2,0-0.4-2.7-0.3-3.5c0.1-0.8,0.6-2.7,2.1-2.4
								c1.6,0.3,2.3,1.5,2.9,1.2c0.6-0.3,3-1.6,3.5-1.5s1.6,2.1,1.7,3s-0.2,2.2,0,2.1s0.6-0.4,0.6-2.2c0-0.9-0.4-6-5.9-6
								C168.2,107.8,167.9,113.2,168.3,114.3z"/>
							<path class="st25" d="M175.8,119.5c0,0.5-0.8,1.5-1.8,1.5s-1.8-1.1-1.8-1.5s0.8-0.6,1.8-0.6
								C174.9,118.9,175.8,119,175.8,119.5z"/>
							<path class="st24" d="M171.8,115.3c0,0.4-0.2,0.6-0.5,0.6s-0.5-0.3-0.5-0.6s0.2-0.6,0.5-0.6
								C171.6,114.7,171.8,115,171.8,115.3z"/>
							<path class="st24" d="M177,115.1c0,0.4-0.2,0.6-0.5,0.6s-0.5-0.3-0.5-0.6c0-0.4,0.2-0.6,0.5-0.6
								C176.8,114.4,177,114.7,177,115.1z"/>
							<g>
								<g>
									<g>
										<g>
											<g>
												<defs>
													<path id="SVGID_5_" d="M175.8,119.5c0,0.5-0.8,1.5-1.8,1.5s-1.8-1.1-1.8-1.5s0.8-0.6,1.8-0.6
														C174.9,118.9,175.8,119,175.8,119.5z"/>
												</defs>
												<clipPath id="SVGID_6_">
													<use xlink:href="#SVGID_5_"  style="overflow:visible;"/>
												</clipPath>
												<path class="st26" d="M175.5,118.9c0,0.5-0.7,0.8-1.6,0.8c-0.9,0-1.6-0.4-1.6-0.8c0-0.5,0.7-0.8,1.6-0.8
													C174.7,118.1,175.5,118.5,175.5,118.9z"/>
											</g>
										</g>
									</g>
								</g>
							</g>
						</g>
					</g>
					<line class="st27" x1="182.9" y1="136.7" x2="182.9" y2="136.7"/>
					<line class="st27" x1="183.6" y1="136.1" x2="183.6" y2="136.1"/>
					<g>
						<polygon class="st28" points="173,131.2 161.9,131.2 160.8,126 171.9,126 						"/>
						<polygon class="st29" points="172.7,125.3 161.2,125.3 160.8,126 171.9,126 						"/>
						<polygon class="st30" points="171.9,126 172.7,125.3 173.8,130.7 173,131.2 						"/>
					</g>
				</g>
				<g>
					<g>
						<path class="st31" d="M159.3,131.8c0.1,0.3,1.1,9.3,3.3,10.9c1.6,1.2,5.5,0.2,4.4-3.6c-1.5-4.7-5.1-8.6-5.5-8.6
							C160.7,130.7,159.1,131.1,159.3,131.8z"/>
						<g>
							<g>
								<g>
									<g>
										<g>
											<defs>
												<path id="SVGID_7_" d="M159.3,131.8c0.1,0.3,1.1,9.3,3.3,10.9c1.6,1.2,5.9,0.5,4.4-3.1c-1.9-4.5-5.1-9-5.5-9
													C160.7,130.7,159.1,131.1,159.3,131.8z"/>
											</defs>
											<clipPath id="SVGID_8_">
												<use xlink:href="#SVGID_7_"  style="overflow:visible;"/>
											</clipPath>
											<polygon class="st32" points="161.3,130 164.4,146.2 158.4,141.5 157.3,128.8 											"/>
										</g>
									</g>
								</g>
							</g>
						</g>
						<path class="st18" d="M160.2,130.9c0,0,1.8,0.6,2.5,0.5c0.6-0.3,0.6-0.6,0.6-0.6s0.9-0.2,1.1-0.9c0,0,0.6-0.5,0.7-1
							c0.1-0.6-0.6-0.6-0.8-0.4c-0.3,0.3-2.4,0.2-2.8,0c0,0,1.7-0.4,2.1-0.6c0.5-0.2,0.8-0.6,0.8-0.8s-0.2-0.6-0.6-0.3
							s-3.1,0.5-3.3,0.5s-0.6,0-0.6,0L160.2,130.9z"/>
					</g>
				</g>
				<g>
					<g>
						<g>
							<g>
								<g>
									<defs>
										<path id="SVGID_9_" d="M166.9,143.4c-0.3,2.9-0.8,5.7-0.8,5.7c0.6,0.6,4.1,1.7,8.1,1.8c2.8,0.1,5.6-0.1,7.9-1.1
											c0,0,0-3.9,0.1-7.3c0-2.1-0.3-6.2-0.6-10.2c0,0-0.9-3-1-4c-0.2-2-0.3-3.6-0.3-3.6s-3.8,0.6-5.6,0.6
											c-2.2,0-5.8,0.5-5.8,0.5s0.3,0.5,0.1,2.6c-0.1,1-0.8,3-0.8,3.5C167.9,136.3,167.1,141.4,166.9,143.4z"/>
									</defs>
									<clipPath id="SVGID_10_">
										<use xlink:href="#SVGID_9_"  style="overflow:visible;"/>
									</clipPath>
									<path class="st33" d="M180.9,130.4c0,0,1,17.4-0.4,21.2"/>
								</g>
							</g>
						</g>
					</g>
				</g>
			</g>
			<g>
				<path class="st18" d="M188.9,122.6c0,0,0.6-2,0.9-2.5c0.3-0.4-0.2-1.5-0.4-1.8c-0.2-0.4-0.1-0.6-0.2-0.9
					c-0.2-0.4-0.6,0.3-0.6,0.6c0,0-0.1-0.9-0.3-1.3c-0.2-0.3-0.7-0.1-0.8-0.1c-0.2-0.1-0.3-0.3-0.9-0.2c-0.6,0.2-0.6,0.6-0.9,0.7
					c-0.3,0.2-1,0.7-1.1,1s-0.6,0.8-0.6,1.4s1.1,2.4,1.5,2.6c0.3,0.3,1.1,0.9,1.4,1.1C187.1,123.4,188.9,122.6,188.9,122.6z"/>
				<path class="st31" d="M187.1,138.3c2.7,0.9,3.6,0.8,5,0c1.3-0.8,1.5-3.4,0.3-7.4c-0.9-3-2.5-8.4-2.9-8.7
					c-0.5-0.5-3.3,0.3-3.5,1.1c-0.2,0.8,0.7,9.5,0.7,11.5C186.8,135.9,186.5,138.1,187.1,138.3z"/>
			</g>
		</g>
		<g>
			<g>
				<path class="st18" d="M181.4,158.7c0,0,2.5,0.3,3.2,0.2c0.6-0.1,6.1,3.3,7,3.5c1.9,0.3,2.6-3.4,2.3-4.7s-5.3-1.2-6.1-1.7
					c-0.7-0.6-2-1.3-2.8-0.7c-0.7,0.6-3.5-0.2-3.5-0.2L181.4,158.7z"/>
				<path class="st15" d="M154.1,151.7c0.6-2.9,5.5-5,10.5-2.3c3.5,1.8,15.8,4.6,18.3,5.1c0.3,0.1,0.5,0.3,0.4,0.6
					c-0.1,1-0.5,3.6-0.8,4.1C182.1,159.8,152.4,159.7,154.1,151.7z"/>
			</g>
			<g class="st34">
				<g>
					<g>
						<g>
							<g>
								<defs>
									<path id="SVGID_11_" d="M193.9,157.6c-0.3-1.3-5.3-1.2-6.1-1.7c-0.7-0.6-2-1.3-2.8-0.7c-0.3,0.3-1,0.3-1.7,0.2
										c0-0.1,0-0.2,0-0.3c0-0.3-0.2-0.5-0.4-0.6c-2.5-0.6-14.8-3.3-18.3-5.1c-5-2.7-9.9-0.6-10.5,2.3c-1.7,8,28,8.2,28.4,7.4
										c0.1-0.1,0.1-0.2,0.2-0.4c0.7,0.1,1.6,0.1,1.9,0.1c0.6-0.1,6.1,3.3,7,3.5C193.5,162.6,194.1,159,193.9,157.6z"/>
								</defs>
								<clipPath id="SVGID_12_">
									<use xlink:href="#SVGID_11_"  style="overflow:visible;"/>
								</clipPath>
								<path class="st35" d="M190.8,155c0,0-5.9,4.9-11.9,5.9s-24.3-5-24.3-5l17.3-5L190.8,155z"/>
							</g>
						</g>
					</g>
				</g>
			</g>
		</g>
		<g>
			<path class="st18" d="M167,158.3c0,0-2.5,0.3-3.2,0.2s-6.1,3.3-7,3.5c-1.9,0.3-2.6-3.4-2.3-4.7s5.3-1.2,6.1-1.7
				c0.7-0.6,2-1.3,2.8-0.7c0.7,0.6,3.5-0.2,3.5-0.2L167,158.3z"/>
			<path class="st15" d="M194.2,151.3c-0.6-2.9-5.5-5-10.5-2.3c-3.5,1.8-15.8,4.6-18.3,5.1c-0.3,0.1-0.5,0.3-0.4,0.6
				c0.1,1,0.5,3.6,0.8,4.1C166.3,159.5,195.9,159.3,194.2,151.3z"/>
		</g>
	</g>
	<path class="st36" d="M158,112.9l1,0.9c0.1,0.1,0.2,0.1,0.3,0.1l1.4-0.2c0.3,0,0.5,0.2,0.4,0.5l-0.6,1.3c0,0.1,0,0.2,0,0.3l0.6,1.3
		c0.1,0.2-0.1,0.5-0.4,0.5l-1.4-0.2c-0.1,0-0.2,0-0.3,0.1l-1,0.9c-0.2,0.2-0.5,0.1-0.6-0.2l-0.3-1.4c0-0.1-0.1-0.2-0.2-0.2l-1.2-0.6
		c-0.2-0.1-0.2-0.5,0-0.6l1.2-0.6c0.1,0,0.2-0.1,0.2-0.2l0.3-1.4C157.5,112.9,157.8,112.8,158,112.9z"/>
	<path class="st36" d="M198.9,114.3l1,0.9c0.1,0.1,0.2,0.1,0.3,0.1l1.4-0.2c0.3,0,0.5,0.2,0.4,0.5l-0.6,1.3c0,0.1,0,0.2,0,0.3
		l0.6,1.3c0.1,0.2-0.1,0.5-0.4,0.5l-1.4-0.2c-0.1,0-0.2,0-0.3,0.1l-1,0.9c-0.2,0.2-0.5,0.1-0.6-0.2l-0.3-1.4c0-0.1-0.1-0.2-0.2-0.2
		l-1.2-0.6c-0.2-0.1-0.2-0.5,0-0.6l1.2-0.6c0.1,0,0.2-0.1,0.2-0.2l0.3-1.4C198.5,114.2,198.7,114.1,198.9,114.3z"/>
	<path class="st36" d="M162.3,144.4l-0.1,0.7c0,0.1,0,0.1,0.1,0.1l0.6,0.5c0.1,0.1,0.1,0.3-0.1,0.3l-0.7,0.2c-0.1,0-0.1,0-0.1,0.1
		l-0.3,0.6c-0.1,0.1-0.2,0.1-0.3,0l-0.4-0.6l-0.1-0.1l-0.7-0.1c-0.1,0-0.2-0.2-0.1-0.3l0.5-0.6v-0.1l-0.1-0.7c0-0.1,0.1-0.2,0.2-0.2
		l0.6,0.3h0.1l0.6-0.4C162.2,144.2,162.3,144.3,162.3,144.4z"/>
	<path class="st36" d="M154.6,137.8l-0.1,0.4v0.1l0.2,0.3c0,0.1,0,0.1-0.1,0.1h-0.4h-0.1l-0.2,0.3c0,0.1-0.1,0-0.2,0l-0.1-0.4
		c0,0,0,0-0.1-0.1l-0.4-0.1c-0.1,0-0.1-0.1,0-0.2l0.3-0.2c0,0,0,0,0-0.1v-0.4c0-0.1,0.1-0.1,0.1-0.1l0.3,0.2c0,0,0,0,0.1,0l0.4-0.1
		C154.5,137.7,154.6,137.8,154.6,137.8z"/>
	<path class="st36" d="M163,109.4l-0.2,0.1l0,0v0.2c0,0,0,0.1-0.1,0l-0.2-0.1l0,0l-0.2,0.1c0,0-0.1,0-0.1-0.1l0.1-0.2l0,0l-0.1-0.2
		v-0.1h0.2l0,0l0.1-0.2h0.1l0.1,0.2l0,0L163,109.4L163,109.4z"/>
</g>
<g>
	<g>
		<polygon class="st37" points="49.3,117.1 32,119.7 16.8,115 14.1,118.2 31.2,125.9 44.7,125.2 		"/>
		<polygon class="st37" points="59.1,121.2 67.5,134.3 77.7,143.1 74.9,146.5 62.8,139.1 53.6,127.7 		"/>
		<g>
			<g>
				<g>
					<polygon class="st1" points="36.9,146.4 36.4,167.1 40.3,193.7 43.5,193.7 45.8,169.2 50.6,144.7 					"/>
					<path class="st7" d="M43.5,193.4v1.6l-3.9,2c-0.5,0.2-1.2,0.1-1.5-0.3l-0.3-0.5c-0.2-0.7,1-1.8,1.6-2.4l0.9-0.7L43.5,193.4z"/>
				</g>
				<path class="st7" d="M54.5,194.2l-2.1,1.7c-0.3,0.3-0.4,0.9-0.2,1.2l0,0c0.2,0.3,0.6,0.5,1,0.4l4.5-1V194h-3.1v0.2H54.5z"/>
				<polygon class="st1" points="48.2,154.6 50.4,174.6 53.5,194.5 57.9,194.3 57.7,173.6 60.4,154.5 54.2,151.8 				"/>
			</g>
			<path class="st37" d="M49,117.2c0,0-5.8,2.6-10.8,12.7c-5,10.3-6.7,24.6-6.7,24.6s29.6,8.7,29.8,3.9c0,0,6.7-37.6-6.6-40.2
				C54,118.1,49.4,117,49,117.2z"/>
			<path class="st4" d="M50.6,117.3c-3.1,4.8-6,10.6-9.1,15.4c-1.8,2.9-2.4,6-3,9.2s-1.4,6.4-2,9.5c-0.3,1.4-0.5,2.7-0.9,4.1
				l12.5,2.9c-0.1-4-0.4-8-0.4-12c-0.1-3.6-0.3-7.8,0.9-11.3c0.6-1.7,1.3-3.4,1.9-5.1c1.2-3.2,1.9-6.4,3.1-9.6
				c0.1-0.2,0.1-2.1,0.1-2.4L50.6,117.3z"/>
		</g>
		<g>
			<path class="st7" d="M50.6,118.7c1-0.1,2-0.2,3-0.3c0-0.7,0-1.5-0.2-2.2c0.9-0.3,1.8-0.6,1.9-1.5c0-0.2,0-0.5-0.1-0.7
				c-0.2-1.1-0.4-2.1-0.6-3.1c-0.1-0.3-0.1-0.7-0.3-1.1c-0.4-0.5-1.1-0.7-1.8-0.9c-1.8-0.3-3.7,0.1-5,1.2c-0.3,0.3-0.6,0.6-0.9,1.1
				c-0.2,0.6-0.1,1.4,0.1,2c0.2,0.6,0.3,1.2,0.5,1.8c0.2,0.7,0.5,1.5,1.2,1.7c0.4,0.1,0.9,0.1,1.2,0.3
				C50.4,117.2,50.3,118.1,50.6,118.7z"/>
			<polygon class="st13" points="45,111.7 47.4,115 46.6,111.9 			"/>
			<path class="st13" d="M40.7,108.2c0-0.7,0.1-1.5,0.2-2.1c0.2-1.2,1.7-1.6,3-1.7c2.7-0.2,5.4-1.3,7.9-0.4c1.5,0.5,3.5,0.6,4.9,1.3
				c0.5,0.3,1.1,0.7,1.4,1.3c1.3,1.7,1.3,4.2,0,5.9c-0.3,0.4-0.6,0.7-1,1.1c-0.7,0.7-1.6,1.6-2.6,1.8c0-0.9,0.7-3.3,0.1-4.1
				c-1.1-1.1-3.5-0.6-4.8-0.4c-1.5,0.3-2.7,1.3-4.2,1.5c-1.1,0.1-2.4-0.3-3.2-0.7C41.2,110.8,40.8,109.5,40.7,108.2z"/>
		</g>
		<g>
			<path class="st38" d="M76.5,145.6c3.1-6.6,0.1-14.4-7.1-17.7c-4.7-2.1-10.1-1.8-14.2,0.5L41,121.9c-0.5-4.5-3.4-8.7-8.1-10.8
				c-7.1-3.2-15.6-0.7-19.5,5.6l0,0L1.6,138.4l0,0c-1.6,3.7,0.1,8.1,4.2,10c3.2,1.5,6.9,0.9,9.4-1.2l8.9-6.4l25.2,11.5l-0.1,10.5
				c-0.2,3.1,1.5,6.1,4.7,7.6c4.1,1.8,8.9,0.4,11.1-3l0,0L76.5,145.6L76.5,145.6z"/>
			<path class="st39" d="M76.5,145.6c0,0-14.3,24.9-27.3,19.1c0.4,2.4,2.1,4.5,4.6,5.7c4.1,1.8,8.9,0.4,11.1-3l0,0L76.5,145.6
				L76.5,145.6z"/>
			<path class="st40" d="M33.3,127.7l-3.5-1.6c-0.4-0.2-0.5-0.6-0.3-1.1l1.7-3.3c0.2-0.4,0-0.9-0.3-1.1l-3.5-1.6
				c-0.4-0.2-0.9,0-1.1,0.3l-1.7,3.3c-0.2,0.4-0.7,0.5-1.1,0.3l-3.4-1.6c-0.4-0.2-0.9,0-1.1,0.3l-1.7,3.3c-0.2,0.4,0,0.9,0.3,1.1
				l3.4,1.6c0.4,0.2,0.5,0.6,0.3,1.1l-1.7,3.2c-0.2,0.4,0,0.9,0.3,1.1l3.5,1.6c0.4,0.2,0.9,0,1.1-0.3l1.7-3.2
				c0.2-0.4,0.7-0.5,1.1-0.3l3.5,1.6c0.4,0.2,0.9,0,1.1-0.3l1.7-3.3C33.8,128.3,33.6,127.9,33.3,127.7z"/>
			<g>
				<ellipse class="st40" cx="64.8" cy="139.1" rx="2.8" ry="2.6"/>
				<ellipse class="st40" cx="57.3" cy="141.5" rx="2.8" ry="2.6"/>
				<ellipse class="st40" cx="67" cy="145.9" rx="2.8" ry="2.6"/>
				<ellipse class="st40" cx="59.9" cy="148.2" rx="2.8" ry="2.6"/>
			</g>
			<path class="st41" d="M32.9,126.7l-3.5-1.6c-0.4-0.2-0.5-0.6-0.3-1.1l1.7-3.3c0.2-0.4,0-0.9-0.3-1.1L27,118
				c-0.4-0.2-0.9,0-1.1,0.3l-1.7,3.3c-0.2,0.4-0.7,0.5-1.1,0.3l-3.4-1.6c-0.4-0.2-0.9,0-1.1,0.3l-1.7,3.3c-0.2,0.4,0,0.9,0.3,1.1
				l3.4,1.6c0.4,0.2,0.5,0.6,0.3,1.1l-1.7,3.2c-0.2,0.4,0,0.9,0.3,1.1l3.5,1.6c0.4,0.2,0.9,0,1.1-0.3l1.7-3.2
				c0.2-0.4,0.7-0.5,1.1-0.3l3.5,1.6c0.4,0.2,0.9,0,1.1-0.3l1.7-3.3C33.4,127.4,33.3,126.9,32.9,126.7z"/>
			<g>
				<ellipse class="st41" cx="64.3" cy="138.1" rx="2.8" ry="2.6"/>
				<ellipse class="st41" cx="57" cy="140.5" rx="2.8" ry="2.6"/>
				<ellipse class="st41" cx="66.6" cy="144.9" rx="2.8" ry="2.6"/>
				<ellipse class="st41" cx="59.4" cy="147.3" rx="2.8" ry="2.6"/>
			</g>
			<path class="st42" d="M32.8,115.2c2,1,3.7,2.4,5,4c-1.1-2.7-3.2-5-6.1-6.4c-6.1-2.8-13.5-0.4-16.5,5.1c-0.4,0.9-0.7,1.7-1,2.7
				C17.9,114.5,26,112.1,32.8,115.2z"/>
			<path class="st39" d="M1.2,142.8L1.2,142.8c0.4,2.4,2.1,4.5,4.6,5.7c3.2,1.5,6.9,0.9,9.4-1.2l8.7-6.2
				C23.8,141,13.3,148.2,1.2,142.8z"/>
			<polygon class="st39" points="49.3,148.3 38.3,143.3 27.4,138.4 24.1,140.8 36.6,146.5 49.3,152.3 			"/>
		</g>
		<path class="st7" d="M75.8,147c0.3,0.1,2.4-1.4,2.4-1.4v-3l-3.2-1.4l-1.1,2.6l2.4,2.1L75.8,147z"/>
	</g>
	<polygon class="st7" points="12.5,114.5 12.9,117.4 13.2,116.8 16.1,117.1 17.2,115.6 14.6,113.3 	"/>
</g>
<g>
	<path class="st0" d="M220.6,191.4c1.2,4.8-4,6.4-4,6.4c-0.4,3.8-1,9.1-3.9,11.6c-2.6,2.2-16.2-7.7-16.2-7.7c0-1.3,0.5-5.6,0.6-7.1
		c0.2-1.7-2.3-7.3-1.7-9.6c0.7-2.5,3.4-7.7,4.4-8.6c1-1,5.6-2.6,6.8-2.9c0,0,3.7-0.3,4.7,0s6.4,2.6,7.7,4.6
		C220.3,180.1,220.6,191.4,220.6,191.4z"/>
	<path class="st9" d="M200.4,183.3c-0.8,1.8-2.6,6.3-3,8.5c-0.5,2.1-1-2-1-2L200.4,183.3z"/>
	<path class="st43" d="M215.1,183c-0.5,2.6-0.6,12.9-0.4,14.6c0,0,4.9-1,3.8-5.1C217.5,188.2,215.1,183,215.1,183z"/>
	<path class="st18" d="M217.3,192c0.1,0.5,0.3,2.3,0.3,2.3s-6.3,0.1-8.7,0.3c-2.4,0.1-5.2,0.8-5.8,0.6s-2.2-1.4-4-0.3
		c-1.8,1.1-3.3,2.1,1.7,2.9c5,0.9,17.3,2.1,19.7,1.6c2.3-0.5,3.2-2,3-4.2c-0.2-2.1-0.6-3.9-0.6-3.9L217.3,192z"/>
	<path class="st0" d="M218.9,178c1.5,1.8,4.3,7.4,4.8,14.5c0,0-1.3,0.6-3.2,0.9s-3.4-0.2-3.4-0.2s-1.8-7.5-1.9-10.1
		S217.2,176,218.9,178z"/>
	<path class="st44" d="M197.6,197.5c-0.1-0.3,0.2-0.5,0.5-0.5l9,1c0.3,0,0.7,0.3,0.8,0.6s-0.2,0.5-0.5,0.5l-9-1
		C197.9,198,197.7,197.7,197.6,197.5z"/>
	<path class="st15" d="M199.6,199.1c-5.6-1.8-18.1-3.8-20.3-0.4c-2.9,4.5,7.3,11.3,7.3,11.3c1.6,0.6,14.8,3.8,18.4,1.8
		C208.7,209.8,205.3,200.9,199.6,199.1z"/>
	<path class="st45" d="M194.1,184c0.3,0,0.7,0.3,0.8,0.7l4.4,13c0.1,0.3-0.1,0.6-0.4,0.6l-16.2-1.2c-0.3,0-0.7-0.3-0.8-0.7l-4.4-13
		c-0.1-0.3,0.1-0.6,0.4-0.6L194.1,184z"/>
	<path class="st46" d="M190.6,204.9l-3.3-3c0,0,4.9,2.3,5.2,3.1C192.7,205.9,190.6,204.9,190.6,204.9z"/>
	<path class="st47" d="M183.4,210c-4.5-0.8-10.7,0-10.9,1.4c-0.3,1.5,4,2.7,5.6,2.8c1.6,0.2,6.8,0.1,7.8-1.5
		C186.8,211.1,184.7,210.2,183.4,210z"/>
	<path class="st15" d="M182.8,209.9c5.4-4.4,18.7-13.3,22-14.1s6.5-0.4,7.7,3.8s1.9,8.5,1,10.1c-1,1.6-4.7,4.9-7.1,4.9
		c-2.5-0.1-4.9-1.3-4.8-7.1c-3.6,2-13.1,5.4-15.4,5.6C183.6,212.7,182.8,209.9,182.8,209.9z"/>
	<path class="st46" d="M201.6,207.5c1.3-0.6,4.9-2.2,7-3.8c0,0-4.8,4.4-6.9,5.6C201.6,208.7,201.6,207.5,201.6,207.5z"/>
	<path class="st48" d="M188,211.2c0.3-2,3.2-2.1,4.7-1.9c1.5,0.3,4.3,1.4,5.2,1.5c1,0.2,3.4,0.4,4.3,1.1s0.4,2.9-1.4,2.8
		c-2.9-0.3-6.1,0-8.8-0.4C190,214.2,187.8,212.5,188,211.2z"/>
	<path class="st18" d="M212.3,167.9c-0.3,1.6-0.9,4.9-0.5,6.4c0.1,0.3-1.9,0.7-2.9,0.6c-1.1-0.1-3.4-0.5-3.3-0.8s0.2-1.8,0.1-2.6
		C205.5,170.6,212.3,167.9,212.3,167.9z"/>
	<path class="st49" d="M205.6,173.3c1.3,0.1,3.5-1.7,4.2-2.3s-4.1,1-4.1,1C205.7,172.4,205.6,173.3,205.6,173.3z"/>
	<path class="st18" d="M209.8,171c-2.1,1.4-4.1,1.5-5.1,0.9c-1.7-1.1-2.7-6.1-2-8.7c0.7-2.6,6.9-3.9,9.6,0.7
		C213.9,166.9,210.4,170.6,209.8,171z"/>
	<g>
		<path class="st50" d="M203.8,165.4L203.8,165.4c0.2-0.2,0.5-0.3,0.6-0.3c0.3,0,0.6,0.1,0.7,0.2c0,0,0.1,0,0.2,0c0,0,0-0.1,0-0.2
			c-0.2-0.2-0.6-0.3-0.9-0.3c-0.3,0-0.5,0.1-0.7,0.3C203.6,165.3,203.6,165.4,203.8,165.4C203.7,165.4,203.7,165.4,203.8,165.4z"/>
	</g>
	<path class="st50" d="M204.3,166.5c0,0.3,0.1,0.5,0.2,0.5s0.2-0.2,0.2-0.5s-0.1-0.5-0.2-0.5C204.4,166,204.3,166.2,204.3,166.5z"/>
	<g>
		<path class="st50" d="M206.3,165.4C206.3,165.4,206.4,165.4,206.3,165.4c0.2-0.2,0.5-0.3,0.6-0.3c0.3,0,0.6,0.1,0.7,0.2
			c0,0,0.1,0,0.2,0c0,0,0-0.1,0-0.2c-0.2-0.2-0.6-0.3-0.9-0.3s-0.5,0.1-0.7,0.3C206.2,165.3,206.2,165.4,206.3,165.4
			C206.2,165.4,206.3,165.4,206.3,165.4z"/>
	</g>
	<path class="st50" d="M206.8,166.5c0,0.3,0.1,0.5,0.2,0.5c0.1,0,0.2-0.2,0.2-0.5s-0.1-0.5-0.2-0.5
		C206.9,166,206.8,166.2,206.8,166.5z"/>
	<g>
		<path class="st50" d="M205.7,169.6c0.1,0,0.2,0,0.3,0s0.1-0.1,0.1-0.1l-0.1-0.1c-0.3,0-0.6,0-0.7,0c0-0.2,0.1-1,0.2-1.5
			c0-0.1,0-0.1-0.1-0.1s-0.1,0-0.1,0.1c0,0.2-0.2,1.4-0.2,1.5v0.1C205.3,169.6,205.5,169.6,205.7,169.6z"/>
	</g>
	<g>
		<path class="st50" d="M206.3,170.6c0.5,0,1-0.3,1.3-0.6c0.2-0.1,0.3-0.3,0.3-0.6c0-0.1,0-0.1-0.1-0.1s-0.1,0-0.1,0.1
			s-0.1,0.3-0.3,0.4c-0.3,0.3-1,0.6-1.4,0.5c-0.1,0-0.1,0-0.1,0.1s0,0.1,0.1,0.1C206.2,170.6,206.2,170.6,206.3,170.6z"/>
	</g>
	<path class="st13" d="M212.9,167c0.6,0.3,1.3-4.1,0.7-6.1s-2.1-2.1-3.5-2.2c-1.4-0.2-3.6-1.2-5.7-0.9c-2.1,0.3-3.3,4-2.4,5.2
		c1,1.1,5.9,1.2,7.7,0.2C209.6,163.2,210,165.8,212.9,167z"/>
	<path class="st18" d="M211.3,166.1c0.9-1.1,2.3-1.2,2.6-0.3c0.3,1-0.4,2.9-2,2.9C210.3,168.8,211,166.6,211.3,166.1z"/>
	<g>
		<path class="st50" d="M212.7,167.5C212.8,167.5,212.8,167.5,212.7,167.5c0.6-0.7,0.6-1.3,0.3-1.6c-0.2-0.2-0.5-0.2-0.9,0.1
			c0,0-0.1,0.1,0,0.1c0,0,0.1,0.1,0.1,0c0.2-0.2,0.4-0.2,0.6-0.1c0.2,0.2,0.2,0.8-0.2,1.3C212.6,167.4,212.6,167.5,212.7,167.5
			L212.7,167.5z"/>
	</g>
</g>
<g>
	<path class="st51" d="M129.4,89.9c-2.4-1.4-4.3-0.2-4.3,2.5v20c0,2.7,1.9,3.9,4.3,2.5l17.6-10.1c2.4-1.4,2.4-3.5,0-4.9L129.4,89.9z
		"/>
</g>
<g>
	<path class="st13" d="M48.3,113c0,0,0.2-0.4,0.7-0.7c0.7-0.4,1.1,0.3,1.1,0.3s-0.5-0.2-0.9-0.1C48.8,112.6,48.3,113,48.3,113z"/>
</g>
<g>
	<path class="st13" d="M53.1,113c0,0-0.2-0.4-0.7-0.7c-0.7-0.4-1.1,0.3-1.1,0.3s0.5-0.2,0.9-0.1C52.6,112.6,53.1,113,53.1,113z"/>
</g>
<g>
	<path class="st13" d="M50.8,115.1c-0.1,0-0.2,0-0.3-0.1c0,0,0,0,0-0.1l0.1-1.1c0,0,0-0.1,0.1-0.1c0,0,0.1,0,0.1,0.1l-0.1,1
		c0.1,0.1,0.2,0,0.3,0h0.1v0.1C51,115.1,50.9,115.1,50.8,115.1z"/>
</g>
<g>
	<g>
		<g>
			<g>
				<g>
					<g>
						<path class="st13" d="M49.6,113.5c0,0.3-0.1,0.5-0.2,0.5c-0.1,0-0.2-0.2-0.2-0.5s0.1-0.5,0.2-0.5
							C49.5,113.1,49.6,113.3,49.6,113.5z"/>
					</g>
				</g>
			</g>
		</g>
	</g>
	<g>
		<g>
			<g>
				<g>
					<g>
						<path class="st13" d="M51.8,113.5c0,0.3,0.1,0.5,0.2,0.5c0.1,0,0.2-0.2,0.2-0.5S52.1,113,52,113
							C51.9,113.1,51.8,113.3,51.8,113.5z"/>
					</g>
				</g>
			</g>
		</g>
	</g>
</g>
<g>
	<path class="st13" d="M50.7,116.1c-0.1,0-0.1,0-0.2,0c-0.3,0-0.5-0.1-0.5-0.2v-0.1h0.1l0,0c0,0,0.8,0.4,1.4-0.2h0.1v0.1
		C51.3,116,50.9,116.1,50.7,116.1z"/>
</g>
<g>
	<path class="st13" d="M50.8,116.4c-0.1,0-0.3,0-0.3,0s-0.1,0,0-0.1c0,0,0-0.1,0.1,0c0,0,0.3,0.1,0.5,0h0.1v0.1
		C51,116.4,50.9,116.4,50.8,116.4z"/>
</g>
</svg>
