<?xml version="1.0" encoding="utf-8"?>
<!-- Generator: Adobe Illustrator 24.3.0, SVG Export Plug-In . SVG Version: 6.00 Build 0)  -->
<svg version="1.1" id="Layer_1" xmlns="http://www.w3.org/2000/svg" xmlns:xlink="http://www.w3.org/1999/xlink" x="0px" y="0px"
	 viewBox="0 0 225 232.7" style="enable-background:new 0 0 225 232.7;" xml:space="preserve">
<style type="text/css">
	.st0{opacity:0.31;fill:#77AAE8;enable-background:new    ;}
	.st1{fill:#77AAE8;}
	.st2{opacity:0.21;fill:#038DCA;enable-background:new    ;}
	.st3{fill:#FFFFFF;}
	.st4{fill:#22D66F;}
	.st5{fill:#FFAB40;}
	.st6{opacity:0.82;}
	.st7{fill:#FC3A3A;}
	.st8{fill:#0093ED;}
	.st9{fill:#C6E0DD;}
	.st10{fill:#323442;}
	.st11{fill:#FFAC95;}
	.st12{fill:#E9928B;}
	.st13{fill:#EE54A1;}
	.st14{fill:#FDC0AE;}
	.st15{fill:none;stroke:#040707;stroke-miterlimit:10;}
	.st16{fill:#0C1B3C;}
	.st17{opacity:0.2;fill:#DE6667;enable-background:new    ;}
	.st18{fill:#8FB9CF;}
	.st19{fill:#7A9DB0;}
	.st20{fill:#B2D3E4;}
	.st21{opacity:0.15;fill:#FFFFFF;enable-background:new    ;}
	.st22{fill:#038DCA;}
	.st23{fill:#DCECEB;}
	.st24{fill:#040707;}
	.st25{opacity:0.51;}
	.st26{opacity:0.31;}
	.st27{fill:#B2E5E0;}
	.st28{opacity:0.42;}
</style>
<polygon class="st0" points="178,154.7 49.7,157.1 46.7,154.7 46.7,79.8 178,79.8 180.9,82.2 "/>
<polygon class="st0" points="178,74.4 49.7,76.8 46.7,74.4 46.7,65 178,65 180.9,67.3 "/>
<rect x="49.7" y="82.2" class="st1" width="131.3" height="74.9"/>
<rect x="54.6" y="89.8" class="st2" width="35.6" height="18.3"/>
<g>
	<rect x="135.9" y="135.4" class="st3" width="37.3" height="1.5"/>
	<rect x="135.9" y="141.3" class="st3" width="37.3" height="1.5"/>
	<rect x="135.9" y="147.3" class="st3" width="37.3" height="1.5"/>
	<path class="st3" d="M131.5,137.4L131.5,137.4c-0.8,0-1.3-0.6-1.3-1.3l0,0c0-0.7,0.6-1.3,1.3-1.3h0.1c0.7,0,1.3,0.6,1.3,1.3l0,0
		C132.6,136.8,132.2,137.4,131.5,137.4z"/>
	<path class="st3" d="M131.5,143.3L131.5,143.3c-0.8,0-1.3-0.6-1.3-1.3l0,0c0-0.7,0.6-1.3,1.3-1.3h0.1c0.7,0,1.3,0.6,1.3,1.3l0,0
		C132.6,142.7,132.2,143.3,131.5,143.3z"/>
	<path class="st3" d="M131.5,149.2L131.5,149.2c-0.8,0-1.3-0.6-1.3-1.3l0,0c0-0.7,0.6-1.3,1.3-1.3h0.1c0.7,0,1.3,0.6,1.3,1.3l0,0
		C132.6,148.8,132.2,149.2,131.5,149.2z"/>
</g>
<g>
	<rect x="60.3" y="113.5" class="st3" width="37.3" height="1.5"/>
	<rect x="60.3" y="119.4" class="st3" width="37.3" height="1.5"/>
	<path class="st3" d="M55.8,115.6L55.8,115.6c-0.8,0-1.3-0.6-1.3-1.3l0,0c0-0.7,0.6-1.3,1.3-1.3h0.1c0.7,0,1.3,0.6,1.3,1.3l0,0
		C57,115,56.5,115.6,55.8,115.6z"/>
	<path class="st3" d="M55.8,121.5L55.8,121.5c-0.8,0-1.3-0.6-1.3-1.3l0,0c0-0.7,0.6-1.3,1.3-1.3h0.1c0.7,0,1.3,0.6,1.3,1.3l0,0
		C57,120.9,56.5,121.5,55.8,121.5z"/>
</g>
<rect x="49.7" y="67.3" class="st1" width="131.3" height="9.4"/>
<g>
	<g>
		<path class="st4" d="M68.9,72.1c0,0.8-0.6,1.4-1.4,1.4s-1.4-0.6-1.4-1.4s0.6-1.4,1.4-1.4C68.2,70.7,68.9,71.3,68.9,72.1z"/>
	</g>
	<g>
		<circle class="st5" cx="61.8" cy="72.1" r="1.4"/>
	</g>
	<g class="st6">
		<circle class="st7" cx="56.3" cy="72.1" r="1.4"/>
	</g>
</g>
<g>
	<path class="st2" d="M184.4,127.1h-58.1c-1.3,0-2.3-1-2.3-2.3V92.2c0-1.3,1-2.3,2.3-2.3h58.1c1.3,0,2.3,1,2.3,2.3v32.7
		C186.6,126,185.6,127.1,184.4,127.1z"/>
	<path class="st8" d="M186.3,128.9h-58.1c-1.3,0-2.3-1-2.3-2.3V93.9c0-1.3,1-2.3,2.3-2.3h58.1c1.3,0,2.3,1,2.3,2.3v32.7
		C188.6,127.9,187.5,128.9,186.3,128.9z"/>
	<g>
		<g>
			<rect x="150" y="97.1" class="st3" width="1.7" height="26.6"/>
		</g>
		<g>
			<rect x="146.2" y="97.1" class="st3" width="1.7" height="26.6"/>
		</g>
		<g>
			<rect x="142.3" y="97.1" class="st3" width="1.7" height="26.6"/>
		</g>
		<g>
			<rect x="138.4" y="97.1" class="st3" width="1.7" height="26.6"/>
		</g>
		<g>
			<rect x="134.7" y="97.1" class="st3" width="1.7" height="26.6"/>
		</g>
		<g>
			<rect x="130.8" y="97.1" class="st3" width="1.7" height="26.6"/>
		</g>
	</g>
	<g>
		<rect x="150" y="115.4" class="st9" width="1.7" height="8.3"/>
	</g>
	<g>
		<rect x="146.2" y="106.4" class="st9" width="1.7" height="17.3"/>
	</g>
	<g>
		<g>
			<rect x="142.3" y="101.8" class="st10" width="1.7" height="21.8"/>
		</g>
	</g>
	<g>
		<g>
			<rect x="138.4" y="108.5" class="st10" width="1.7" height="15.1"/>
		</g>
	</g>
	<g>
		<g>
			<rect x="134.7" y="112.9" class="st10" width="1.7" height="10.8"/>
		</g>
	</g>
	<g>
		<g>
			<rect x="130.8" y="116.3" class="st10" width="1.7" height="7.4"/>
		</g>
	</g>
	<ellipse class="st3" cx="161.9" cy="100.4" rx="3.3" ry="3.3"/>
	<g>
		<rect x="168.6" y="97.1" class="st3" width="14.9" height="0.9"/>
		<rect x="168.6" y="99.9" class="st3" width="14.9" height="0.9"/>
		<rect x="168.6" y="102.7" class="st3" width="8.2" height="0.9"/>
	</g>
	<ellipse class="st3" cx="161.9" cy="112.6" rx="3.3" ry="3.3"/>
	<g>
		<rect x="168.6" y="109.3" class="st3" width="14.9" height="0.9"/>
		<rect x="168.6" y="112.1" class="st3" width="14.9" height="0.9"/>
		<rect x="168.6" y="114.9" class="st3" width="8.2" height="0.9"/>
	</g>
</g>
<g>
	<path class="st11" d="M122.9,116.8c0,0-3.4-4.2-5.2-4.8c-1.8-0.6,1.4,2.3,1.3,2.7s-1.9,2-0.8,3.3s3.2,1.5,3.2,1.5L122.9,116.8z"/>
	<polygon class="st11" points="149.6,117.5 144.2,117.5 143.7,115.7 142.9,113.1 145.6,111.7 146.9,111 	"/>
	<path class="st12" d="M145.6,111.7c-0.5,2-1.3,3.3-1.8,4l-0.8-2.5L145.6,111.7z"/>
	<path class="st11" d="M158.1,145.2l-0.7,0.3c0,0-0.7,1.7-0.7,2.6s-0.6,2.5-0.2,2.6c0.3,0.1,1.3-2,1.4-2.5c0.1-0.5,0.5,1.5,0.6,2
		c0.1,0.6-0.2,2.6,0,2.7c0.2,0.1,1.6-1.4,1.8-2.2c0.2-0.7,0.1-1.7,0.2-1.6c0.1,0.1,0.3,1.6,0.7,1.4c0.1-0.1-0.1-1.7-0.5-2.8
		c-0.3-1.1-0.8-3.1-0.8-3.1L158.1,145.2z"/>
	<path class="st13" d="M160.4,145.2c-0.7,0.8-2.8,0.3-2.8,0.3s-1-9.8-1.5-10.8c-0.3-0.6-1.9-3.5-3-5.3c-0.6-1-0.9-1.7-0.9-1.7
		s-0.2-1-0.5-2.5c-0.5-2.8-0.8-7,1-6.4l0,0c2.2,0.8,5.3,7.3,6.8,11.4c0.5,1.1,0.7,2,0.8,2.6C160.9,135.8,160.4,145.2,160.4,145.2z"
		/>
	<path class="st13" d="M165.8,184.3c-0.3,0.2,0.9,4.3,0.5,4.8c-0.5,0.5-3.4,3.8-3.4,3.8s-0.5-1.5-0.1-3c0.3-1.3,0.5-3.8-1.7-7
		c-0.3-0.6-0.8-1-1.3-1.6l3-4.1c0,0,1.1,1.6,2.3,2.6c0.2,0.2,0.3,0.3,0.6,0.5c1.3,0.9,4.4,4.7,4.4,4.7l-1.4,1.6
		C168.6,186.5,166.2,184.1,165.8,184.3z"/>
	<path class="st13" d="M135.9,187.2c0.2,1.6-0.6,6.4-0.6,6.4h-2c0,0,0.1-3.4-0.2-3.5c-0.5-0.1-2.6,3.5-3.3,3.5s-5,0-5,0
		s0.8-1.3,2.2-2c1.3-0.7,3.2-2.3,4.1-6.3c0.1-0.6,0.2-1,0.3-1.7l5-0.6c0,0-0.2,1.1-0.3,2.3C135.9,185.9,135.9,186.6,135.9,187.2z"/>
	<path class="st14" d="M131.4,183.5l5-0.6c0,0-0.2,1.1-0.3,2.3h-5C131.2,184.7,131.3,184.1,131.4,183.5z"/>
	<path class="st14" d="M165,179.8l-4,3.2c-0.3-0.6-0.8-1-1.3-1.6l3-4.1C162.8,177.2,163.9,178.8,165,179.8z"/>
	<path class="st10" d="M164.9,178.4l-4.8,4.2c0,0-3.4-3.6-6.8-7.4l0,0c-3.1-3.4-6-7-6.6-8.4c-0.6-1.5-0.9-4.1-1.3-6.1
		c-0.3-2-0.5-3.8-0.5-3.8l0.2-5.1l0.6-13.1l0.2-0.1l3.1-1.8h2c0,0,0.1,0.2,0.3,0.6c0.9,1.7,3.6,6.6,4,8.5c0.3,2.4-1.5,18.4-0.6,19.3
		S164.9,178.4,164.9,178.4z"/>
	<path class="st10" d="M145.4,160.6c-0.3,0.6-0.6,1-0.7,1.3c-0.9,1.6-7.7,22.2-7.7,22.2h-6.4c0,0,1.4-11.1,3.1-20
		c1.4-7.6,5.8-22.4,6.9-26.4c0.2-0.6,0.3-0.9,0.3-0.9h8.2c0,0,0.2,0.6,0.6,1.5c0.6,1.6,1.3,4.3,1.6,7
		C151.5,149,147.3,157.2,145.4,160.6z"/>
	<path class="st15" d="M129.6,185.5"/>
	<path class="st13" d="M153.8,125.8c-0.1,1.1-0.2,2.3-0.6,3.1c-0.1,0.2-0.1,0.5-0.2,0.6c-0.8,2.7-1.8,7.3-1.8,7.3
		c-0.8,0.3-1.6,0.7-2.5,0.8c-3.8,0.6-7.8-0.8-7.8-0.8s0.8-4.2-0.8-5.8c-1.5-1.7-1.9-3.9-1.9-3.9s-6.4,2.5-8,2.2
		c-1.6-0.3-9.5-9-9.5-9.5s2-2.7,2-2.7s7.8,6.9,8.1,6.9s7.8-4.7,10-5.8c1.6-0.9,4.4-1.5,5.7-1.7l0,0l0,0c0.5-0.1,0.7-0.1,0.7-0.1
		s0.2,0.1,0.5,0.2c1,0.5,3.8,1.5,4.9,2.7l0,0c0.2,0.2,0.5,0.5,0.5,0.7C153.8,120.8,154,123.4,153.8,125.8z"/>
	<path class="st11" d="M140.9,105.8c0,0-1.1,7.6,0.6,8.2c1.7,0.6,3.9-1.9,3.9-1.9s0.6-3,0-4.9C144.8,105.4,143.2,107.2,140.9,105.8z
		"/>
	<path class="st13" d="M148.8,137.5c-3.8,0.6-7.8-0.8-7.8-0.8s0.8-4.2-0.8-5.8c-1.5-1.7-1.9-3.9-1.9-3.9s3.4-1.9,3.2-0.7
		c-0.2,1.4-1.4,6,3.1,5.9C148.3,132.2,146.2,136.6,148.8,137.5z"/>
	<path class="st13" d="M159.6,130.2c-1-0.7-2.7-0.6-3.9-2.7c-0.6-1-1.3-1.6-1.9-1.8c-0.7-0.2-1.4-0.3-2-0.5
		c-1.1-0.2-2.4-0.6-3.6-1.9c-3-3.2-1.5-7-1.4-7.2l0,0l0,0c0,0,0.5,0,1.3,0c1,0.5,3.8,1.5,4.9,2.7l0,0
		C154.8,119.7,158,126.1,159.6,130.2z"/>
	<path class="st16" d="M173.1,126.8c-1.9,3.9-9.8,5.3-11.9,0.7c-2.5-5.3-4-4.1-8.1-3.8c-4.1,0.2-6.9-1.9-6.6-6.5
		c0.3-4.5-2.8-5.1-3.8-9.2c0-0.1,0-0.1,0-0.1c-0.3-1.5-1.9-1.9-1.9-1.9s-1-0.7,0-2.4s7.7-3.1,9.2,1.4c1.6,4.4,1.4,6.6,6.4,6.4
		s8.3,1.7,8.6,6.4c0.3,4.7,8.1,1.7,8.3,7C173.7,125.5,173.4,126.3,173.1,126.8z"/>
</g>
<g>
	<g>
		<path class="st16" d="M203.6,106.6l-1.3-3c0,0-2.3-2.4-1-4.4c1.3-1.9,6.8-2.4,8.1,4.8c0,0,1.9,0.1,2.3,1.9
			c0.3,1.9-1.4,3.2-1.9,4.5c-0.6,1.4-1.7,1.9-1.7,1.9l-2.2,0.3L203.6,106.6z"/>
		<path class="st14" d="M217,146.3c0,0-1.3,2-1.6,3.2c-0.3,1.1-0.6,1.5-0.3,1.7c0.2,0.2,0.9-0.9,1.3-1.5c0.3-0.6,0.5,1.5,0.5,2.3
			s-0.3,2,0,2.2c0.5,0,1.5-1.7,1.8-2.4s0.2-5.3,0.2-5.3H217V146.3z"/>
		<path class="st8" d="M213.6,187.9l-0.9,0.7c0,0-0.7,2.7-0.3,3.8h11c0,0-1-1.6-3.3-2.3c-2.2-0.7-2.8-0.9-3.2-1.5
			C216.5,188,213.6,187.9,213.6,187.9z"/>
		<path class="st8" d="M196.1,187.5l0.8,1c0,0,1,2.4,0.6,3.8h-9.2c0,0,0.1-1.6,1.7-2.3c1.6-0.7,2.8-1.5,2.8-1.5L196.1,187.5z"/>
		<rect x="212.3" y="192.3" class="st3" width="11" height="1.1"/>
		<rect x="188.2" y="192.3" class="st3" width="9.2" height="1.1"/>
		<polygon class="st14" points="216.9,188.5 212.7,188.5 212.3,186.6 212.1,184.6 216.5,183.9 216.7,186.6 		"/>
		<polygon class="st14" points="197.4,184.7 197.1,186.6 196.9,188.5 192.8,188.5 193,186.6 193.2,184.7 		"/>
		<polygon class="st17" points="193.2,184.7 197.4,184.7 197.1,186.6 193,186.6 		"/>
		<polygon class="st17" points="216.7,186.6 212.3,186.6 212.1,184.6 216.5,183.9 		"/>
		<path class="st10" d="M217.9,185.6h-6.6c0,0-5.1-18.3-5.7-20.9c-0.6-2.6-2.5-8.3-2.5-8.3l-5,29.2h-5.8c0,0-0.2-14.1,0-18.8
			c0.2-3.8,1.1-15.6,2.2-21.5c0.2-1.5,0.5-2.6,0.8-3.1c1.3-2.5,16,2.8,16,2.8s0.1,0.6,0.2,1.6c0.6,3.2,1.9,10.8,3.2,17.5
			C216.3,173.1,217.9,185.6,217.9,185.6z"/>
		<path class="st14" d="M188.7,110.5c0,0-0.3-1.9,0.5-3c0.8-1,2.8,0.6,2.8,0.6s1.3,1.4,0.7,2.7C191.9,112.1,188.7,110.5,188.7,110.5
			z"/>
		<path class="st8" d="M214.1,126.5c-0.8,4.7-2.2,9.9-1.9,12.3c0.3,4.3,0.5,5.9,0.8,6.8c0.2,0.8-3.6,1.5-7.8,0
			c-2-0.7-4.7-1.1-6.7-1.5c-2.3-0.3-4.1-0.3-4.1-0.3s1.1-6.3,1.6-9.5c0.3-3.3,0-7,0-7l0,0c-0.2,0.1-4.8,3.6-7.2,1.4
			c-0.3-0.3-0.6-0.8-0.8-1.4c-1.6-4.5,1.5-15.5,1.5-15.5l3.5,0.5c0,0-0.5,8.5-0.2,8.5c0.3,0.1,3.6-3,5.2-4.2c0.9-0.7,2.4-1,4-1.3
			c1.3-0.1,2.6-0.1,3.6,0c0,0,1.6,0,3.6,0.5c1.6,0.3,3.3,0.9,4.7,1.9C215.2,118.8,214.8,122.5,214.1,126.5z"/>
		<g>
			<path class="st8" d="M212.9,145.6c0.2,0.8-3.6,1.5-7.8,0c-2-0.7-4.7-1.1-6.7-1.5c0.8-1,2.2-1.9,4.9-2.7c6.8-2,0.3-5.5,4.2-7.7
				c3.9-2.3,4.2-9.2,4.2-9.2l2.5,2.2c-0.8,4.7-2.2,9.9-1.9,12.3C212.4,143.1,212.7,144.8,212.9,145.6z"/>
		</g>
		<path class="st3" d="M209.1,115.8c-1.7,3.2-6.6,6-6.6,6c-0.8-2.4-0.8-5.3-0.7-6.5c1.3-0.1,2.6-0.1,3.6,0
			C205.5,115.4,207.1,115.5,209.1,115.8z"/>
		<path class="st8" d="M211.4,117.5c0.8-0.9,2.6-0.1,4.8,3.1s4,10.2,4.4,12.6c0.3,2.4-0.2,10.7-1.4,14.3l-3.2-0.2
			c0,0-0.8-11.9-0.9-12.7c-0.1-0.8-2.6-7.2-3.8-10.7C210.4,120.4,210.3,118.8,211.4,117.5z"/>
		<path class="st14" d="M208.1,115.8c0,0.5-0.7,1.3-2.4,1.6s-3.8-0.9-3.1-1.7c0.2-0.3,0.3-0.9,0.5-1.6c0.1-1,0.1-2.2,0.1-2.2
			s3.6-3.4,3.6-1.6c0,1.7,1.3,2,1.3,2C207.7,114.3,208.1,115.4,208.1,115.8z"/>
		<path class="st17" d="M206.9,110.4c-1,2.4-2.5,3.4-3.8,3.9c0.1-1,0.1-2.2,0.1-2.2S206.9,108.6,206.9,110.4z"/>
		<g>
			<path class="st18" d="M193.3,108.5l-6.5,8.3c-0.1,0.1-0.2,0.2-0.3,0.2s-0.2,0-0.3-0.1c-0.9-0.8-1.1-2.2-0.3-3.1l5.5-7
				L193.3,108.5z"/>
			<path class="st19" d="M193.3,108.5l-6.5,8.3c-0.1,0.1-0.2,0.2-0.3,0.2c-0.5-0.8-0.5-1.7,0.1-2.5l5.5-7L193.3,108.5z"/>
			<path class="st18" d="M196.3,108c-0.9,1.3-1.9,2-2.3,1.8c-0.3-0.2,0.2-1.5,1.1-2.6c0.9-1.3,1.9-2,2.3-1.8
				C197.8,105.6,197.2,106.7,196.3,108z"/>
			
				<rect x="190.8" y="103.4" transform="matrix(0.6135 -0.7897 0.7897 0.6135 -8.8506 193.859)" class="st18" width="5.6" height="5.1"/>
			<path class="st19" d="M195.3,107.5l-2.4-1.8c-0.1-0.1-0.1-0.3,0-0.5l0,0c0.1-0.1,0.3-0.1,0.5,0l2.4,1.8c0.1,0.1,0.1,0.3,0,0.5
				l0,0C195.6,107.6,195.4,107.6,195.3,107.5z"/>
			<path class="st19" d="M196.1,106.1l-2.4-1.8c-0.1-0.1-0.1-0.3,0-0.5l0,0c0.1-0.1,0.3-0.1,0.5,0l2.4,1.8c0.1,0.1,0.1,0.3,0,0.5
				l0,0C196.4,106.3,196.3,106.3,196.1,106.1z"/>
			<path class="st19" d="M194.2,108.6l-2.4-1.8c-0.1-0.1-0.1-0.3,0-0.5l0,0c0.1-0.1,0.3-0.1,0.5,0l2.4,1.8c0.1,0.1,0.1,0.3,0,0.5
				l0,0C194.6,108.8,194.4,108.8,194.2,108.6z"/>
			<path class="st20" d="M192.2,104.8L192.2,104.8c-0.1,0.2-0.2,0.3-0.5,0.5c-0.1,0.2-0.3,0.3-0.5,0.5c-0.7,0.6-1.3,0.9-1.4,0.8l0,0
				l-17.2-6.4L183,86.9l10.5,15.1l0,0c0.2,0.1,0.1,0.7-0.2,1.3c-0.1,0.1-0.1,0.2-0.2,0.5c-0.1,0.1-0.2,0.3-0.3,0.5
				C192.5,104.4,192.4,104.7,192.2,104.8z"/>
			<path class="st21" d="M192.2,104.8L192.2,104.8l-14-10.6l1.7-2.3l12.7,12.4C192.5,104.4,192.4,104.7,192.2,104.8z"/>
			<path class="st21" d="M191.9,105.4c-0.1,0.2-0.3,0.3-0.5,0.5l-16.5-8.3l2.6-1.8L191.9,105.4z"/>
			<path class="st21" d="M192.9,103.8l-12.3-13.3l0.8-0.8l11.7,13.6C193.1,103.5,193,103.6,192.9,103.8z"/>
			<path class="st18" d="M179.6,95c-0.8,1-1.6,1.9-2.4,2.7l0,0c-2,1.9-3.8,3.1-4.4,2.5c-0.9-0.8,0.6-4.3,3.4-8s5.9-6,6.8-5.2
				c0.7,0.6,0.1,2.5-1.4,4.9C181.1,93,180.4,94,179.6,95z"/>
			<path class="st18" d="M179.5,103.2c-0.1-0.1-0.1-0.2,0-0.3c0.1-0.1,0.2-0.1,0.3,0c0.2,0.2,1.3-0.1,3-1.9l0.1-0.1
				c0.6-0.6,1.1-1.3,1.7-1.9c0.6-0.8,1.1-1.5,1.5-2.3c1.3-2,1.4-3.2,1-3.4c-0.1-0.1-0.1-0.2,0-0.3s0.2-0.1,0.3,0
				c0.9,0.7-0.3,3.1-0.9,4.1c-0.5,0.8-1,1.5-1.6,2.3s-1.3,1.5-1.8,2l-0.2,0.2C182.2,102.4,180.4,103.9,179.5,103.2z"/>
			<path class="st19" d="M179.6,95c-0.8,1-1.6,1.9-2.4,2.7l0,0c-1-1.4-1-3.2,0-4.5s3-1.8,4.4-1.1C181.1,93,180.4,94,179.6,95z"/>
			<path class="st21" d="M179.2,94.1c-0.2,0.3-0.7,0.5-0.9,0.3s-0.2-0.7,0.1-1c0.2-0.3,0.7-0.5,0.9-0.3
				C179.6,93.2,179.6,93.6,179.2,94.1z"/>
		</g>
		<path class="st14" d="M192.8,112.2c0,0-0.1-2.6-0.9-3.5c-0.8-0.9-1.4-0.7-1.3,0c0.1,0.7,0.7,2,0.1,3.2L192.8,112.2z"/>
		<path class="st3" d="M215.8,189.9l-0.2-0.1c0,0,0.2-0.6,1.5-1l0.1,0.2C216.1,189.4,215.8,189.9,215.8,189.9z"/>
		<path class="st3" d="M217.2,190.7H217c0,0,0.2-0.9,1.3-1.3v0.2C217.4,189.8,217.2,190.6,217.2,190.7z"/>
		<path class="st3" d="M218.9,190.7h-0.2c0,0,0-0.6,0.3-0.9l0.1,0.1C219,190.1,218.9,190.7,218.9,190.7z"/>
		<path class="st3" d="M194.1,189.3c-0.9-0.3-1.9-0.3-1.9-0.3v-0.2c0,0,1,0,2,0.3L194.1,189.3z"/>
		<path class="st3" d="M193.1,190c-1-0.5-1.8-0.5-1.8-0.5v-0.2C191.3,189.3,192.1,189.3,193.1,190L193.1,190z"/>
		<path class="st3" d="M191.4,190.4c-0.3-0.2-1-0.3-1.1-0.3v-0.2C190.3,189.9,191.1,190,191.4,190.4L191.4,190.4z"/>
		<g>
			<path class="st22" d="M196.6,122.3c-0.7,1.7-0.9,4.9-0.9,4.9l0,0c-0.2,0.1-4.8,3.6-7.2,1.4c-0.3-0.3-0.6-0.8-0.8-1.4
				c1.4,0.2,2.4,1.6,4,0C194.1,124.7,196.6,122.3,196.6,122.3z"/>
		</g>
		<path class="st14" d="M202.3,103.6c0,0-2.6,7-0.6,8.5c1.9,1.5,5.1-1.8,5.1-1.8s1.4,0.1,2-1c0.7-1.1-0.6-1.6-1.1-1.3
			c-0.6,0.3-1.3-0.2-0.8-1.5c0.5-1.4,0.2-1.4-0.7-1.3S202.4,104,202.3,103.6z"/>
	</g>
</g>
<g>
	<path class="st14" d="M52.9,105.2c0,0-0.9-3-0.9-3.9s0.9-3.6,1.4-3.6c0.5-0.1,1.4,5.1,1.8,5.8c0.5,0.7-0.3,1.7-0.3,1.7H52.9z"/>
	<g>
		<g>
			<polygon class="st14" points="9,170.4 5.9,166.8 7.1,165.7 9.6,163.2 12.5,166.5 10.1,169 			"/>
			<polygon class="st14" points="10.1,169 7.1,165.7 9.6,163.2 12.5,166.5 			"/>
			<path class="st8" d="M5.9,166.8l3.1,3.4c0,0-0.2,3,1.1,4.8c1.4,1.8,1.7,3.1,1.1,4.4L2,169.2L5.9,166.8z"/>
			<path class="st3" d="M1.6,169.6"/>
			<path class="st3" d="M10.9,179.8"/>
			<path class="st3" d="M9,171.5c-0.7-0.6-2.4-1-2.4-1v-0.2c0.1,0,1.7,0.5,2.5,1L9,171.5z"/>
			<path class="st3" d="M9.1,172.5c-0.9-0.3-2.2-0.2-2.2-0.2v-0.2c0,0,1.4-0.1,2.3,0.2L9.1,172.5z"/>
			<path class="st3" d="M7.6,173.9l-0.1-0.2c0,0,0.9-0.3,1.7-0.5v0.2C8.5,173.5,7.8,173.9,7.6,173.9z"/>
		</g>
		
			<rect x="5.8" y="167.9" transform="matrix(0.7404 -0.6722 0.6722 0.7404 -115.8856 49.6057)" class="st23" width="1" height="13.9"/>
	</g>
	<path class="st10" d="M32.8,139.7c0,0-0.1,0.3-0.1,0.9c-0.2,1.1-0.7,3.4-1.3,5.8c-0.8,3.1-1.7,6.4-2.7,8.1
		c-1.1,1.9-5.8,6.1-9.9,9.5c-3.5,2.8-6.5,5.2-6.5,5.2l-6.4-6.5c0,0,13.1-11.8,13.4-12.3s1.9-7.3,2.5-12.7c0.2-2.4,1-4.9,1.7-6.9
		c0.9-2.7,1.9-4.8,1.9-4.8l6.1,2.3l0.1,0.6l0.6,5.8L32.8,139.7z"/>
	<path class="st14" d="M45.4,98.4c0,0-1,0.8-1.8,2.5c-0.3,0.7-0.6,1.5-0.7,2.4c-0.5,3.3-6.3-0.2-6.3-0.2l2.8-5.9l2.3-1.3l1.8,1.3
		L45.4,98.4z"/>
	<path class="st22" d="M36.6,102.2c0,0,0.5-1.5,1.1-1.5s5.5,0.7,5.7,1.7c0.2,1.1,0,1.8,0,1.8L36.6,102.2z"/>
	<path class="st22" d="M54.7,107.3l0.5-2.2c0,0-2.2-0.6-3-0.5s-1.6,2.6-1.6,2.6L54.7,107.3L54.7,107.3z"/>
	<path class="st8" d="M42.4,118.6c0,0,3.1,0.8,9.4-5c6.5-5.8-5.3-3.5-5.3-3.5L42.4,118.6z"/>
	<rect x="34" y="171.9" class="st24" width="19.5" height="0.6"/>
	<path class="st24" d="M41.6,193.4l-6-27.4l-6,27.4l-0.6-0.1l6.3-28.8c0-0.1,0.1-0.2,0.2-0.2c0.1,0,0.2,0.1,0.2,0.2l6.3,28.8
		L41.6,193.4z"/>
	<g>
		<g>
			<polygon class="st14" points="41.7,177.2 37.1,177.2 37,175.5 36.7,171.9 41.2,171.9 41.5,175.5 			"/>
			<polygon class="st14" points="41.5,175.5 37,175.5 36.7,171.9 41.2,171.9 			"/>
			<path class="st8" d="M37.1,177.2h4.7c0,0,2,2.2,4.3,2.4s3.4,0.8,4,2.2H36.3L37.1,177.2z"/>
			<path class="st3" d="M36.3,182.1"/>
			<path class="st3" d="M50,182.1"/>
			<path class="st3" d="M40.3,179.1l-0.1-0.1c0.1,0,1.5-1,2.4-1.1v0.2C41.7,178.2,40.3,179.1,40.3,179.1z"/>
			<path class="st3" d="M41.8,180l-0.1-0.1c0,0,0.8-1.1,1.7-1.6l0.1,0.2C42.6,179,41.8,180,41.8,180z"/>
			<path class="st3" d="M43.4,180.6l-0.2-0.1c0,0,0.3-0.9,0.9-1.6l0.1,0.1C43.8,179.7,43.5,180.6,43.4,180.6z"/>
		</g>
		<rect x="36.3" y="181.7" class="st23" width="13.9" height="1"/>
	</g>
	<path class="st24" d="M61.3,193.4l-6-27.4l-6,27.4l-0.6-0.1l6.3-28.8c0-0.1,0.1-0.2,0.2-0.2s0.2,0.1,0.2,0.2l6.3,28.8L61.3,193.4z"
		/>
	<rect x="31.6" y="182.4" class="st24" width="19.7" height="0.6"/>
	<path class="st10" d="M44.5,174.7H35c0,0,0.2-15.8,0.2-18.6c0-2-1.9-5.3-3.9-9.7c-0.8-1.8-1.6-3.8-2.4-5.9c-1-3-1.6-5.6-1.9-7.5
		c-0.6-3-0.6-4.7-0.6-4.7l5.1,0.6l7.5,0.8c0,0,0.8,2.8,1.8,6.6c1.6,5.9,3.8,14.1,3.8,15.9C44.8,155.4,44.5,174.7,44.5,174.7z"/>
	<path class="st8" d="M70.5,106.7c0,0-8,7.7-10.2,8.3c-2.3,0.6-10.8-2.2-12.2-2.2c-0.7,0-1.9,4.5-3.3,9.4c-1.6,5.9-3,12.4-3,12.4
		s-4-1.6-10.3-2c-0.9-0.1-1.8-0.2-2.6-0.5c-4.4-1.1-6.1-4-6.1-4c6.4-9.1,6.5-17,7.7-21.9c1.4-4.9,6.6-5.2,10.6-4.1
		c1.7,0.6,5.6,1.3,7.3,1.8c1.7,0.6,10.8,4.1,11.5,4.1c0.6,0,8.1-4.2,8.1-4.2C70.3,104.1,70.5,106.7,70.5,106.7z"/>
	<path class="st14" d="M68.1,104.7c0,0,1.5-1.4,2.8-1.9c1.3-0.6,3.1-1.6,3.1-1s-1.6,1.4-1.6,1.4l4.8-0.5c0,0-2.2,2.2-3.9,2.6
		c-1.7,0.5-3.9,1.1-3.9,1.1L68.1,104.7z"/>
	
		<rect x="53.7" y="86.5" transform="matrix(0.9965 -8.311501e-02 8.311501e-02 0.9965 -7.6551 6.0051)" class="st8" width="29.2" height="16.9"/>
	
		<rect x="55.4" y="88.3" transform="matrix(0.9965 -8.311604e-02 8.311604e-02 0.9965 -7.6595 6.0012)" class="st3" width="25.7" height="13.4"/>
	<polygon class="st8" points="58.7,102.6 63.7,92.1 70.4,101.7 	"/>
	<polygon class="st8" points="69.8,101.7 73.7,93.5 78.8,101 	"/>
	<circle class="st8" cx="68.8" cy="91.5" r="1.7"/>
	<path class="st16" d="M47.8,90.2l1-1c0,0,0.1-1.8-1.7-4.2c-1.8-2.4-2.8-1.5-2,0s-1.6,0.7-3.9,0.5c-2.2-0.3-4,0-3,1.5
		c1.1,1.5,0.1,1.5-2.5,2.6c-2.7,1.1-2.3,2.7,0,3s0.8,1.5-1,3.4s-0.5,3,1.5,1.9c1.9-1,2.4,0.1,1.7,1.7s1.6,0.2,2.7-0.9
		c1-1.1,0.8,0.9,2.4-1.7C44.5,94.3,47.8,90.2,47.8,90.2z"/>
	<path class="st14" d="M45.4,98.4c0,0-1,0.8-1.8,2.5c-1.3-1.4-0.6-3.8-0.6-3.8l0.6-0.1L45.4,98.4z"/>
	<path class="st14" d="M48.7,89.2c0,0-0.3,3,0.2,4.5c0.6,1.5,1.1,1.6,0.5,2.2s-1.1,0.5-1.3,1.1c-0.1,0.7,0.1,3-1.6,3
		c-1.7-0.1-3.5-2.5-3.8-3.1c0,0-1.8-0.6-1.8-2s1.5-2,2-1.3c0.6,0.8,1.3-0.2,1.3-1.4c0-1.1,0.7-2.7,1.9-2.6
		C47.5,89.7,48.1,88.5,48.7,89.2z"/>
</g>
<path class="st16" d="M173.1,126.8c-1.9,3.9-9.8,5.3-11.9,0.7c-2.5-5.3-4-4.1-8.1-3.8c-4.1,0.2-6.9-1.9-6.6-6.5
	c0.3-4.5-2.8-5.1-3.8-9.2c0.1,0.6,0.9,3.1,3.3,3.9c2.7,0.9,5.1,3.4,3.9,6.3c-1.4,2.8,3.6,2.5,7.3-0.7c3.6-3.2,6.3,1.9,5.7,6.5
	C162.5,128.2,169.1,130.7,173.1,126.8z"/>
<g class="st25">
	<g class="st26">
		<circle class="st1" cx="168.6" cy="64" r="6"/>
	</g>
	<path class="st27" d="M170.9,61.9c-1.6-0.8-2.4,1.4-2.4,1.4s-0.9-2.2-2.4-1.3c-1.7,1-0.2,4.1,2.5,5.5
		C171.2,66,172.8,62.8,170.9,61.9z"/>
</g>
<g>
	<circle class="st3" cx="170" cy="65" r="6"/>
	<path class="st13" d="M172.4,62.8c-1.6-0.8-2.4,1.4-2.4,1.4s-0.9-2.2-2.4-1.3c-1.7,1-0.2,4.1,2.5,5.5
		C172.6,66.9,174.2,63.9,172.4,62.8z"/>
</g>
<g class="st25">
	<g class="st26">
		<circle class="st1" cx="198.6" cy="83.3" r="4.8"/>
	</g>
	<g>
		<polygon class="st27" points="198.6,81.7 200.2,80.8 199.8,82.6 201.2,83.9 199.4,84.2 198.6,85.8 197.6,84.2 195.9,83.9 
			197.2,82.6 196.9,80.8 		"/>
	</g>
</g>
<g>
	<circle class="st1" cx="199.8" cy="84.3" r="4.8"/>
	<polygon class="st5" points="199.8,82.6 201.4,81.8 201.1,83.6 202.4,84.9 200.6,85.1 199.8,86.8 199,85.1 197.2,84.9 198.4,83.6 
		198.2,81.8 	"/>
</g>
<path class="st22" d="M54.6,142.6v-15c0,0,5.2,1.4,6.6,6c1.4,4.8,6.3,6.7,8.8,5.2s2.4-5.6,5.7-6.9c3.3-1.4,5.3,2,9.3,5.9
	c3.9,3.9,9.1,4.7,13.3,1.1c4.1-3.5,8.1-4.4,11.1-1.3c3.1,3.2,4.5,3.5,8.1,2.8s5.8,2,5.8,2L54.6,142.6L54.6,142.6z"/>
<rect x="59.8" y="147.3" class="st3" width="63.4" height="1.4"/>
<path class="st3" d="M56.4,146.5L56.4,146.5c-0.8,0-1.5,0.7-1.5,1.5l0,0c0,0.8,0.7,1.5,1.5,1.5l0,0c0.8,0,1.5-0.7,1.5-1.5l0,0
	C57.9,147.2,57.2,146.5,56.4,146.5z"/>
<g class="st28">
	<path class="st22" d="M54.6,142.6h68.8c0,0-1.5-8.3-6.8-8.3s-4,7.3-10.9,5.5c-6.8-1.8-7.6-13.1-15-13.6s-9.1,9.9-13,9.9
		s-4.5-4.3-9.4-4.7c-4.9-0.2-4.5,6.9-8.1,7.3C56.6,139.1,54.5,141.4,54.6,142.6z"/>
</g>
<path class="st2" d="M114.2,108.1h-15c-0.9,0-1.6-0.7-1.6-1.6V91.4c0-0.9,0.7-1.6,1.6-1.6h15c0.9,0,1.6,0.7,1.6,1.6v15
	C115.8,107.4,115.1,108.1,114.2,108.1z"/>
<path class="st3" d="M116.2,109.9h-15c-0.9,0-1.6-0.7-1.6-1.6v-15c0-0.9,0.7-1.6,1.6-1.6h15c0.9,0,1.6,0.7,1.6,1.6v15
	C117.8,109.2,117.1,109.9,116.2,109.9z"/>
<polygon class="st8" points="105,105.9 112.4,100.8 105,95.7 "/>
</svg>
