<?xml version="1.0" encoding="utf-8"?>
<!-- Generator: Adobe Illustrator 24.3.0, SVG Export Plug-In . SVG Version: 6.00 Build 0)  -->
<svg version="1.1" id="image" xmlns="http://www.w3.org/2000/svg" xmlns:xlink="http://www.w3.org/1999/xlink" x="0px" y="0px"
	 viewBox="0 0 225 232" style="enable-background:new 0 0 225 232;" xml:space="preserve">
<style type="text/css">
	.st0{opacity:0.4;fill:#A8C4E5;enable-background:new    ;}
	.st1{fill:#2C4482;}
	.st2{fill:#21275E;}
	.st3{fill:#FFC2B0;}
	.st4{fill:#D0E7F4;}
	.st5{fill:#FFFFFF;}
	.st6{fill:#EE54A1;}
	.st7{fill:#EA8A6C;}
	.st8{fill:#A8C4E5;}
	.st9{fill:#E1EAF4;}
	.st10{opacity:0.77;fill:#A8C4E5;enable-background:new    ;}
	.st11{fill:url(#SVGID_1_);}
	.st12{fill:url(#SVGID_2_);}
	.st13{fill:#B6D4ED;}
	.st14{fill:#3755A3;}
	.st15{fill:#97CBFF;}
	.st16{fill:#D6EBFF;}
	.st17{opacity:0.33;fill:#FFFFFF;enable-background:new    ;}
	.st18{fill:#4C73DB;}
	.st19{opacity:0.12;fill:#028FCC;enable-background:new    ;}
	.st20{fill:#323441;}
	.st21{fill:#0093ED;}
	.st22{fill:#36475C;}
	.st23{fill:#ADD5F7;}
	.st24{fill:#4264BF;}
	.st25{fill:#DBEDFF;}
	.st26{opacity:0.46;fill:#FFFFFF;enable-background:new    ;}
	.st27{fill:#513554;}
	.st28{fill:#FCFEFF;}
	.st29{fill:#1D3570;}
	.st30{fill:#EDB2A1;}
	.st31{fill:#BBD6F2;}
	.st32{fill:#45446C;}
	.st33{fill:#8787CC;}
	.st34{fill:#52A5FF;}
	.st35{fill:#FF5C97;}
	.st36{fill:#3C5DB3;}
	.st37{opacity:0.27;fill:#4A70D6;enable-background:new    ;}
	.st38{fill:#E5419A;}
	.st39{fill:none;stroke:#FFFFFF;stroke-width:8;stroke-linecap:round;stroke-linejoin:round;stroke-miterlimit:10;}
</style>
<g>
	<path class="st0" d="M48.7,155.1c4.3,2.8,11.3,3.3,15.7,1s4.4-6.5,0.2-9.3c-4.3-2.8-11.3-3.3-15.7-1S44.4,152.3,48.7,155.1z"/>
	<g>
		<path class="st1" d="M46.6,71c0.3-0.8,0-1.6-0.8-1.9c-1-0.3-2.1-0.4-2.7,1.2c-0.6,1.8-2,5.2-2.9,7.5c-0.3,0.8,0.7,1.5,1.3,0.8
			c0.5-0.5,1-1.2,1.1-2.1c0,0-0.5,1.5-1.1,2.7c-0.3,0.6,0.3,1.3,1,1c1.1-0.4,2.4-1.3,2.4-3.1C44.9,75,45.9,72.5,46.6,71z"/>
		<ellipse transform="matrix(0.5461 -0.8377 0.8377 0.5461 -37.9077 71.6227)" class="st2" cx="47.1" cy="70.8" rx="1.6" ry="1"/>
		<path class="st3" d="M57.1,97.1c-0.3,0.1-0.6,0.3-0.9,0.3c-0.7,0.1-1.5-0.3-2.3-0.8c-0.1,0-0.1-0.1-0.2-0.1
			c-0.1-0.1-0.1-0.3,0-0.5c0.3-0.9,0.7-0.9,1.3-1.4c0.3-0.2,0.5-0.5,0.8-0.8c0.4-0.4,0.9-0.7,1.4-0.9l0,0c0.6-0.3,2.8-1.5,3.3,0.2
			c0.2,0.7,0.1,1.2-0.2,1.6c-0.4,0.6-0.7,0.8-1.2,1.2C58.4,96.4,57.7,96.8,57.1,97.1z"/>
		<path class="st3" d="M53.9,95.5c0.2-0.6,0.3-1,0.6-1.5c0.3-0.4,0.6-0.7,1.1-0.9c0.9-0.3,2.3-0.8,2.8-0.5c0.6,0.4,0,1.2-0.4,1.6
			c-0.8,0.9-2.1,1.5-3.1,1.9c-0.2,0.1-0.3,0-0.4-0.1c0,0.1,0.3-0.2,0.3-0.1C54.6,96.6,53.7,96.1,53.9,95.5z"/>
		<polygon class="st4" points="54.1,95.2 53.1,96.3 55.1,98.6 56.3,97.4 		"/>
		<path class="st1" d="M61.3,147.5l-4.7-3.5l-2.7-0.5c-0.9,3.5-0.5,3.1,0.5,4l4,2.5c2.1,1,2.8,1.1,4.1,0.6l0,0
			C63.3,149.8,62.6,148.8,61.3,147.5z"/>
		<path class="st1" d="M56.1,150.9l-4.7-3.5l-2.7-0.5c-0.9,3.5-0.5,3.1,0.5,4l4,2.5c2.1,1,2.8,1.1,4.1,0.6l0,0
			C58.1,153.2,57.4,152.2,56.1,150.9z"/>
		<g>
			<g>
				<path class="st5" d="M49.2,86.5c1.3-1.3,3.8-1.8,5.6-1.7c2.7,0,2.7-4.1,0-4.2c-2.9,0-6.4,0.9-8.5,3
					C44.3,85.5,47.3,88.4,49.2,86.5L49.2,86.5z"/>
			</g>
		</g>
		<g>
			<path class="st6" d="M57,84.7c0.4,6,1.2,12,2.6,17.9c0.6,2.8,5,1.6,4.3-1.2c-1.3-5.5-2-11-2.4-16.7C61.3,81.9,56.8,81.8,57,84.7
				L57,84.7z"/>
		</g>
		<g>
			<path class="st3" d="M56.1,107.4c0.2,12.2-0.5,24.2-2.5,36.3c-0.5,2.8,3.8,4,4.3,1.2c2.1-12.5,2.9-24.9,2.7-37.5
				C60.5,104.5,56,104.5,56.1,107.4L56.1,107.4z"/>
		</g>
		<g>
			<path class="st3" d="M50.2,110.9c-0.7,12.2-1.8,24.4-1.8,36.7c0,2.9,4.5,2.9,4.5,0c0-12.2,1.1-24.5,1.8-36.7
				C54.9,108,50.4,108,50.2,110.9L50.2,110.9z"/>
		</g>
		<path class="st6" d="M45.8,112.3c0.5,6.3,4.5,6.9,8.6,4.6s6.3-7.7,6.3-12.4c0,0-2.3-7-6.3-4.6C50.3,102.2,45.3,104.9,45.8,112.3z"
			/>
		<path class="st6" d="M59.7,86.2c0,0,2.7,4.2,2.4,6.8c-0.2,1.6-1.4,3.5-1.5,4c-1.4,4.3-0.6,5.6-0.8,6.7c0,0-0.9,4.1-10.9,0.2
			l-4.2-12.4L59.7,86.2z"/>
		<path class="st6" d="M45.4,94.3c-0.4-0.2-0.5-0.8-0.5-0.8c-0.3-2.2-1.5-3.2,0.9-7c0.4-0.6,5.6-3.3,9.6-4c1.9-0.3,3.8,0.7,4.6,2.5
			c0.5,1,0.9,3.1,0.9,3.1c0.2,4-1.6-1.3-1.9,1c0-0.1,0-0.1,0-0.2c0,0-0.5,3.8-0.9,6.7c-0.2,1.8-0.4,3.1-0.4,3.3l0,0l-6.8,5.4
			l-3.6-6.5l0,0L45.4,94.3z"/>
		<path class="st3" d="M55.2,82.4c0,0,3.4,3.5,0.5,6c-3,2.5-8-3.1-8-3.1C50.3,83.7,52.8,82.5,55.2,82.4z"/>
		<path class="st6" d="M60.7,104.5l2.4,16.6c0,0.2-0.1,0.4-0.2,0.6c-0.9,1.2-5.6,4.5-15.9,2.7c-1.2-0.2-1.4-0.3-1.4-1l0.6-13.2
			l6-0.1L60.7,104.5z"/>
		<path class="st3" d="M53.6,84.4l1.6-6.3l-3.9,1.2L50,84.5C49.7,85.4,52.4,87.6,53.6,84.4z"/>
		<g>
			<g>
				<path class="st5" d="M53.8,82.9c0.1,0.8,0.3,1.6,0.4,2.4c0.1,0.4,0.2,0.7,0.2,1.1c0.2,0.9,0.1,0.1,0,0.1c-0.7-0.1-1,0.2-1.8-0.1
					c-0.3-0.1-0.6-0.4-0.9-0.6c-1-0.6-1.7-1.2-2.5-2c-1.9-1.9-4.9,1.1-2.9,2.9c2.5,2.5,6.1,5.1,9.8,3.5c1.6-0.7,2.7-2,2.5-3.8
					c-0.1-0.7-0.2-1.4-0.4-2.1c-0.1-0.3-0.1-0.7-0.2-1c0-0.2-0.2-1.1-0.1-0.4C57.7,80.2,53.6,80.2,53.8,82.9L53.8,82.9z"/>
			</g>
		</g>
		<path class="st3" d="M55.2,82.6l0.9-0.3c1.9-0.6,3-2.6,2.4-4.5l-1.7-5.7c-0.6-1.9-2.6-3-4.5-2.4L51.4,70c-1.9,0.6-3,2.6-2.4,4.5
			l1.7,5.7C51.3,82.1,53.3,83.1,55.2,82.6z"/>
		<path class="st7" d="M54.3,82.7c-0.5,0.1-1.9,0-2.4-0.3c0,0,1.1,1.2,2.3,1.3L54.3,82.7z"/>
		<path class="st1" d="M52.6,71.7c0,0-1,5-2.4,6.5l0.5,0.9c0.5,0.9,0.5,2,0.1,2.9l-0.2,0.4c0,0-9.3-5.1-3.4-11.6
			c4-4.4,10.4-2.1,10.4,2.6L52.6,71.7z"/>
		<path class="st3" d="M50.1,80.7c0.7,0.3,1.2-0.1,1.2-0.8c0-0.7-0.5-1.5-1.2-1.7c-0.7-0.3-1.2,0.1-1.2,0.8
			C48.9,79.6,49.5,80.4,50.1,80.7z"/>
		<g>
			<path class="st3" d="M66.4,106.3l-1.5,1c-0.7,0.5-1.6,0.4-1.9-0.1l-0.2-0.4c-0.3-0.5,0-1.3,0.7-1.8l1.5-1
				c0.7-0.5,1.6-0.4,1.9,0.1l0.2,0.4C67.5,105,67.1,105.8,66.4,106.3z"/>
			<g>
				<path class="st8" d="M53.7,104.7v-0.4l0.5,0.2l0.1-0.2l11.8-6.8c0.1-0.1,0.4-0.1,0.6,0l5.1,2.9v-0.1l0.9,0.4v0.4l0,0
					c0,0,0,0.1-0.1,0.1l-12.3,7.1c-0.1,0.1-0.4,0.1-0.6,0l-5.9-3.4C53.8,104.8,53.7,104.8,53.7,104.7L53.7,104.7z"/>
				<path class="st9" d="M60.3,107.9l12.3-7.1c0.1-0.1,0.1-0.2,0-0.3l-5.9-3.4c-0.2-0.1-0.4-0.1-0.6,0l-12.3,7.1
					c-0.1,0.1-0.1,0.2,0,0.3l5.9,3.4C59.9,108,60.2,108,60.3,107.9z"/>
				<path class="st8" d="M59.5,103.3l3-1.7v-0.1l-1.4-0.8H61l-3,1.7v0.1L59.5,103.3C59.4,103.4,59.4,103.4,59.5,103.3z"/>
				<path class="st5" d="M60.6,99.9c0.1-0.3,0.3-0.7,0.6-0.9l12.2-6.9c0.1-0.1,0.2-0.1,0.3,0l0,0l0,0c0,0,0,0,0.1,0l0.4,0.4h-0.4
					l-1.2,7.5c-0.1,0.3-0.3,0.7-0.6,0.9l-11.6,6.6l-0.4,0.4v0.1c-0.2,0.1-0.8-0.3-0.8-0.3L60.6,99.9z"/>
				<path class="st1" d="M60.3,108.3l12.2-6.9c0.3-0.1,0.5-0.5,0.6-0.9l1.2-7.6c0.1-0.3-0.1-0.5-0.4-0.3l-12.2,6.9
					c-0.3,0.1-0.5,0.5-0.6,0.9l-1.2,7.6C59.8,108.3,60,108.4,60.3,108.3z"/>
				<path class="st5" d="M66.8,100.9c-0.1,0.4,0.3,0.5,0.8,0.2s1-0.9,1-1.3c0.1-0.4-0.3-0.5-0.8-0.2C67.3,100,66.8,100.5,66.8,100.9
					z"/>
			</g>
		</g>
		<g>
			<path class="st3" d="M44.3,88.2c-1.3,2.9-2.9,5.9-3.2,9.1c-0.2,2.3-0.5,6.1,1.2,8c1.6,1.8,4.3,1.5,6.4,1c1.3-0.3,2.6-0.7,3.8-1.1
				c0.6-0.2,1.1-0.3,1.7-0.5c0.2-0.1,0.8-0.1,0.6-0.2c2.1,0.5,3-2.7,0.9-3.2c-1.6-0.4-3.3,0.4-4.8,0.9c-1.4,0.4-4.2,1.7-5.7,1
				c-1.2-0.6-0.9-4.2-0.8-5.5c0.3-2.7,1.7-5.3,2.8-7.7C48.1,87.9,45.2,86.2,44.3,88.2L44.3,88.2z"/>
		</g>
		<g>
			<path class="st6" d="M43.6,87.8c-2.5,4.9-2.7,10.1-2.7,15.3c0,2.4,4.5,2.5,4.5,0.1c0-4.9,0.2-9.8,2.5-14.4
				C49,86.7,44.7,85.7,43.6,87.8L43.6,87.8z"/>
		</g>
		<path class="st3" d="M59.7,103.8l0.1-0.4c0.2-0.8-0.3-1.7-1.1-1.9l-2.5-0.7c-0.8-0.2-1.7,0.3-1.9,1.1l-0.1,0.4
			c-0.2,0.8,0.3,1.7,1.1,1.9l2.5,0.7C58.7,105.1,59.5,104.6,59.7,103.8z"/>
	</g>
</g>
<path class="st10" d="M109.1,189.4L109.1,189.4c-1.7-1-0.5-2.6,1.9-2.6l0,0c2.7,0,4.8-1.2,4.8-2.8v-0.8c0-1.5-2.2-2.8-4.8-2.8l0,0
	c-2.4,0-3.5-1.6-1.9-2.6l0,0c1.9-1.1,1.9-2.8,0-3.9l-1-0.6c-1.9-1.1-4.9-1.1-6.8,0l0,0c-1.7,1-4.5,0.3-4.5-1.1l0,0
	c0-1.5-2.2-2.8-4.8-2.8h-1.4c-2.7,0-4.8,1.2-4.8,2.8l0,0c0,1.4-2.8,2-4.5,1.1l0,0c-1.9-1.1-4.9-1.1-6.8,0l-1,0.6
	c-1.9,1.1-1.9,2.8,0,3.9c1.7,1,0.5,2.6-1.9,2.6l0,0c-2.7,0-4.8,1.2-4.8,2.8v0.8c0,1.5,2.2,2.8,4.8,2.8l0,0c2.4,0,3.5,1.6,1.9,2.6
	l0,0c-1.9,1.1-1.9,2.8,0,3.9l1,0.6c1.9,1.1,4.9,1.1,6.8,0c1.7-1,4.5-0.3,4.5,1.1c0,1.5,2.2,2.8,4.8,2.8H92c2.7,0,4.8-1.2,4.8-2.8
	l0,0c0-1.4,2.8-2,4.5-1.1l0,0c1.9,1.1,4.9,1.1,6.8,0l1-0.6C111,192.3,111,190.5,109.1,189.4z M82.8,188.5c-4.7-2.7-4.7-7.1-0.1-9.8
	s12.2-2.7,16.9,0c4.7,2.7,4.7,7.1,0.1,9.8C95.1,191.2,87.5,191.2,82.8,188.5z"/>
<path class="st10" d="M80.5,210.2L80.5,210.2c-1.1-0.6-0.3-1.7,1.2-1.7l0,0c1.8,0,3.2-0.8,3.2-1.8v-0.5c0-1-1.4-1.9-3.2-1.9l0,0
	c-1.6,0-2.4-1.1-1.3-1.7l0,0c1.3-0.7,1.2-1.9,0-2.6l-0.6-0.4c-1.3-0.7-3.3-0.7-4.5,0l0,0c-1.1,0.6-3,0.2-3-0.7l0,0
	c0-1-1.4-1.9-3.2-1.9h-0.9c-1.8,0-3.2,0.8-3.2,1.8l0,0c0,0.9-1.9,1.4-3,0.7l0,0c-1.3-0.7-3.3-0.7-4.5,0l-0.6,0.4
	c-1.3,0.7-1.2,1.9,0,2.6c1.1,0.6,0.3,1.7-1.2,1.7l0,0c-1.8,0-3.2,0.8-3.2,1.8v0.5c0,1,1.4,1.9,3.2,1.9l0,0c1.6,0,2.4,1.1,1.3,1.7
	l0,0c-1.3,0.7-1.2,1.9,0,2.6l0.6,0.4c1.3,0.7,3.3,0.7,4.5,0c1.1-0.6,3-0.2,3,0.7c0,1,1.4,1.9,3.2,1.9h0.9c1.8,0,3.2-0.8,3.2-1.8l0,0
	c0-0.9,1.9-1.4,3-0.7l0,0c1.3,0.7,3.3,0.7,4.5,0l0.6-0.4C81.8,212.1,81.8,211,80.5,210.2z M63,209.6c-3.1-1.8-3.1-4.7,0-6.5
	s8.2-1.8,11.3,0c3.1,1.8,3.1,4.7,0,6.5C71.2,211.4,66.2,211.4,63,209.6z"/>
<g>
	<path class="st1" d="M103.4,188.1L103.4,188.1c-1.7-1-0.5-2.6,1.9-2.6l0,0c2.7,0,4.8-1.2,4.8-2.8v-0.8c0-1.5-2.2-2.8-4.8-2.8l0,0
		c-2.4,0-3.5-1.6-1.9-2.6l0,0c1.9-1.1,1.9-2.8,0-3.9l-1-0.6c-1.9-1.1-4.9-1.1-6.8,0l0,0c-1.7,1-4.5,0.3-4.5-1.1l0,0
		c0-1.5-2.2-2.8-4.8-2.8h-1.4c-2.7,0-4.8,1.2-4.8,2.8l0,0c0,1.4-2.8,2-4.5,1.1l0,0c-1.9-1.1-4.9-1.1-6.8,0l-1,0.6
		c-1.9,1.1-1.9,2.8,0,3.9c1.7,1,0.5,2.6-1.9,2.6l0,0c-2.7,0-4.8,1.2-4.8,2.8v0.8c0,1.5,2.2,2.8,4.8,2.8l0,0c2.4,0,3.5,1.6,1.9,2.6
		l0,0c-1.9,1.1-1.9,2.8,0,3.9l1,0.6c1.9,1.1,4.9,1.1,6.8,0c1.7-1,4.5-0.3,4.5,1.1c0,1.5,2.2,2.8,4.8,2.8h1.4c2.7,0,4.8-1.2,4.8-2.8
		l0,0c0-1.4,2.8-2,4.5-1.1l0,0c1.9,1.1,4.9,1.1,6.8,0l1-0.6C105.3,190.9,105.3,189.2,103.4,188.1z M77.2,187.1
		c-4.7-2.7-4.7-7.1-0.1-9.8c4.7-2.7,12.2-2.7,16.9,0c4.7,2.7,4.7,7.1,0.1,9.8C89.4,189.9,81.8,189.8,77.2,187.1z"/>
	
		<linearGradient id="SVGID_1_" gradientUnits="userSpaceOnUse" x1="61.1" y1="826.6" x2="110.0496" y2="826.6" gradientTransform="matrix(1 0 0 1 0 -648)">
		<stop  offset="0" style="stop-color:#B0D6F7"/>
		<stop  offset="0.8835" style="stop-color:#568BC7"/>
	</linearGradient>
	<path class="st11" d="M103.4,184.4L103.4,184.4c-1.7-1-0.5-2.6,1.9-2.6l0,0c2.7,0,4.8-1.2,4.8-2.8v-0.8c0-1.5-2.2-2.8-4.8-2.8l0,0
		c-2.4,0-3.5-1.6-1.9-2.6l0,0c1.9-1.1,1.9-2.8,0-3.9l-1-0.6c-1.9-1.1-4.9-1.1-6.8,0l0,0c-1.7,1-4.5,0.3-4.5-1.1l0,0
		c0-1.5-2.2-2.8-4.8-2.8h-1.4c-2.7,0-4.8,1.2-4.8,2.8l0,0c0,1.4-2.8,2-4.5,1.1l0,0c-1.9-1.1-4.9-1.1-6.8,0l-1,0.6
		c-1.9,1.1-1.9,2.8,0,3.9c1.7,1,0.5,2.6-1.9,2.6l0,0c-2.7,0-4.8,1.2-4.8,2.8v0.8c0,1.5,2.2,2.8,4.8,2.8l0,0c2.4,0,3.5,1.6,1.9,2.6
		l0,0c-1.9,1.1-1.9,2.8,0,3.9l1,0.6c1.9,1.1,4.9,1.1,6.8,0c1.7-1,4.5-0.3,4.5,1.1c0,1.5,2.2,2.8,4.8,2.8h1.4c2.7,0,4.8-1.2,4.8-2.8
		l0,0c0-1.4,2.8-2,4.5-1.1l0,0c1.9,1.1,4.9,1.1,6.8,0l1-0.6C105.3,187.3,105.3,185.5,103.4,184.4z M77.2,183.5
		c-4.7-2.7-4.7-7.1-0.1-9.8c4.7-2.7,12.2-2.7,16.9,0c4.7,2.7,4.7,7.1,0.1,9.8S81.8,186.2,77.2,183.5z"/>
</g>
<g>
	<path class="st1" d="M76.1,208.5L76.1,208.5c-1.1-0.6-0.3-1.7,1.2-1.7l0,0c1.7,0,3.1-0.8,3.1-1.8v-0.5c0-1-1.4-1.8-3.1-1.8l0,0
		c-1.5,0-2.3-1.1-1.2-1.7l0,0c1.2-0.7,1.2-1.8,0-2.6l-0.6-0.4c-1.2-0.7-3.2-0.7-4.4,0l0,0c-1.1,0.6-2.9,0.2-2.9-0.7l0,0
		c0-1-1.4-1.8-3.1-1.8h-0.9c-1.7,0-3.1,0.8-3.1,1.8l0,0c0,0.9-1.8,1.3-2.9,0.7l0,0c-1.2-0.7-3.2-0.7-4.4,0l-0.6,0.4
		c-1.2,0.7-1.2,1.8,0,2.6c1.1,0.6,0.3,1.7-1.2,1.7l0,0c-1.7,0-3.1,0.8-3.1,1.8v0.5c0,1,1.4,1.8,3.1,1.8l0,0c1.5,0,2.3,1.1,1.2,1.7
		l0,0c-1.2,0.7-1.2,1.8,0,2.6l0.6,0.4c1.2,0.7,3.2,0.7,4.4,0c1.1-0.6,2.9-0.2,2.9,0.7c0,1,1.4,1.8,3.1,1.8h0.9
		c1.7,0,3.1-0.8,3.1-1.8l0,0c0-0.9,1.8-1.3,2.9-0.7l0,0c1.2,0.7,3.2,0.7,4.4,0l0.6-0.4C77.3,210.3,77.3,209.2,76.1,208.5z M59,207.8
		c-3-1.8-3.1-4.6,0-6.3c3-1.7,7.9-1.7,11,0c3,1.8,3.1,4.6,0,6.3C67,209.6,62.1,209.6,59,207.8z"/>
	
		<linearGradient id="SVGID_2_" gradientUnits="userSpaceOnUse" x1="48.6337" y1="850.35" x2="80.3781" y2="850.35" gradientTransform="matrix(1 0 0 1 0 -648)">
		<stop  offset="0" style="stop-color:#B0D6F7"/>
		<stop  offset="0.8835" style="stop-color:#568BC7"/>
	</linearGradient>
	<path class="st12" d="M76.1,206.1L76.1,206.1c-1.1-0.6-0.3-1.7,1.2-1.7l0,0c1.7,0,3.1-0.8,3.1-1.8v-0.5c0-1-1.4-1.8-3.1-1.8l0,0
		c-1.5,0-2.3-1.1-1.2-1.7l0,0c1.2-0.7,1.2-1.8,0-2.6l-0.6-0.4c-1.2-0.7-3.2-0.7-4.4,0l0,0c-1.1,0.6-2.9,0.2-2.9-0.7l0,0
		c0-1-1.4-1.8-3.1-1.8h-0.9c-1.7,0-3.1,0.8-3.1,1.8l0,0c0,0.9-1.8,1.3-2.9,0.7l0,0c-1.2-0.7-3.2-0.7-4.4,0l-0.6,0.4
		c-1.2,0.7-1.2,1.8,0,2.6c1.1,0.6,0.3,1.7-1.2,1.7l0,0c-1.7,0-3.1,0.8-3.1,1.8v0.5c0,1,1.4,1.8,3.1,1.8l0,0c1.5,0,2.3,1.1,1.2,1.7
		l0,0c-1.2,0.7-1.2,1.8,0,2.6l0.6,0.4c1.2,0.7,3.2,0.7,4.4,0c1.1-0.6,2.9-0.2,2.9,0.7c0,1,1.4,1.8,3.1,1.8h0.9
		c1.7,0,3.1-0.8,3.1-1.8l0,0c0-0.9,1.8-1.3,2.9-0.7l0,0c1.2,0.7,3.2,0.7,4.4,0l0.6-0.4C77.3,207.9,77.3,206.8,76.1,206.1z M59,205.5
		c-3-1.8-3.1-4.6,0-6.3c3-1.7,7.9-1.7,11,0c3,1.8,3.1,4.6,0,6.3C67,207.2,62.1,207.2,59,205.5z"/>
</g>
<g>
	<path class="st13" d="M170.9,198.3l-56.3-34.6c-3.4-2-6.1-7.2-6.1-11.7l-4.9-117.3c0-4.5,6.2-6.9,9.6-4.9L169,60.7
		c0.4,0.2,2.3,1.6,2.8,2.3c2,2.8,3.2,6.6,3.2,10.8v118.7c0,3,0.1,3.2-0.4,3.5L170.9,198.3z"/>
	<path class="st1" d="M166,198.7L109.5,166c-3.4-2-6-7.2-6-11.7V35.7c0-4.5,2.7-6.6,6.1-4.6l56.5,32.7c3.4,2,6,7.2,6,11.7V194
		C172.1,198.6,169.4,200.7,166,198.7z"/>
	<path class="st1" d="M174.5,84.3V91c0,0.5,0.3,0.7,0.6,0.5l-0.1-0.1c0.4-0.2,0.5-0.8,0.5-1.2v-6.8c0-0.5-0.1-0.7-0.5-0.5V83
		C174.7,83.2,174.5,83.8,174.5,84.3z"/>
	<path class="st1" d="M174.5,96.1v6.8c0,0.5,0.3,0.7,0.6,0.5l-0.1-0.1c0.4-0.2,0.5-0.8,0.5-1.2v-6.8c0-0.5-0.1-0.7-0.5-0.5v0.1
		C174.7,95.1,174.5,95.6,174.5,96.1z"/>
	<path class="st14" d="M147.7,60.2l-17.5-10.1c-0.6-0.4-1.1-1.3-1.1-2.1l0,0c0-0.8,0.5-1.2,1.1-0.8l17.5,10.1
		c0.6,0.4,1.1,1.3,1.1,2.1l0,0C148.8,60.2,148.3,60.5,147.7,60.2z"/>
	<path class="st15" d="M163.6,190.5l-52.2-30.1c-1.9-1.1-3.5-4.1-3.5-6.7V48.9c0-2.6,1.6-3.8,3.5-2.7l52.2,30.1
		c1.9,1.1,3.5,4.1,3.5,6.7v104.7C167.1,190.4,165.6,191.6,163.6,190.5z"/>
</g>
<polygon class="st16" points="182.7,95.8 135.8,68.7 135.8,96.3 182.7,123.4 "/>
<polygon class="st1" points="155,102.9 139.3,93.8 139.3,75.8 155,84.9 "/>
<path class="st5" d="M151.8,98.3c0-1.2-0.5-3.2-1-3.9l0,0c-0.2-0.3-0.5-0.6-0.7-0.8c-0.2-0.2-0.6-0.6-0.9-0.9
	c-0.1-0.1-0.2-0.2-0.3-0.3l0,0l-0.6-0.7c-0.1-0.1-0.2-0.2-0.3-0.4l-0.1-0.1v-0.1c0-0.3,0-0.6,0-0.9c0.3-0.1,0.4-0.4,0.5-0.9
	c0.4,0.3,0.5-0.3,0.6-0.7c0-0.3,0.1-1-0.3-1.3v-0.1c0-0.2,0.1-0.5,0.1-0.7c0-0.3,0-0.6-0.2-0.9c0-0.1-0.1-0.1-0.1-0.2s0-0.2-0.1-0.3
	c-0.3-0.8-0.8-1.6-1.3-2.1s-1.1-0.7-1.6-0.7c-0.4-0.1-0.9,0-0.9,0.7c0,0.1,0,0.2,0,0.3c-0.1,0-0.1,0-0.2,0.1
	c-0.1,0.2-0.1,0.4-0.1,0.7c0,0.3,0.1,0.6,0.1,0.9v0.1c-0.4-0.2-0.3,0.6-0.3,1c0.1,0.4,0.2,1.1,0.6,1.3c0,0.2,0.1,0.4,0.1,0.6
	c0.1,0.3,0.2,0.5,0.4,0.8l0,0c0,0.3,0,0.6,0,0.9v0.1h-0.1c-0.1,0-0.1,0.1-0.2,0.1l0,0h-0.2l0,0l0,0c-0.1,0-0.2,0-0.3,0l0,0l0,0
	c-0.1,0-0.3,0-0.4,0c-0.3,0-0.5,0-0.8-0.1c-0.2-0.1-0.5-0.1-0.7,0c-0.5,0.2-0.9,0.8-0.9,3.2l10.1,6.2L151.8,98.3z M148.7,88.5
	C148.7,88.6,148.7,88.6,148.7,88.5C148.7,88.6,148.7,88.6,148.7,88.5z"/>
<polygon class="st15" points="164.2,90.7 157.1,86.6 157.1,89 164.2,93.1 "/>
<polygon class="st15" points="170.2,101.9 156.8,94.1 156.8,91.7 170.2,99.5 "/>
<polygon class="st15" points="179.7,107.3 166.2,99.5 166.2,97.1 179.7,104.9 "/>
<polygon class="st15" points="179.7,112.6 166.2,104.8 166.2,102.4 179.7,110.2 "/>
<polygon class="st15" points="171.1,97.1 157.6,89.3 157.6,86.9 171.1,94.7 "/>
<polygon class="st15" points="169.9,107 156.4,99.2 156.4,96.8 169.9,104.6 "/>
<polygon class="st17" points="148.8,104.1 133.1,95 133.1,77 148.8,86.1 "/>
<g>
	<polygon class="st5" points="132.1,102.7 132.1,163.2 162.1,180.5 162.1,120 	"/>
	<polygon class="st15" points="155.9,131.8 142.4,124 142.4,121.7 155.9,129.4 	"/>
	<polygon class="st15" points="155.9,142.7 142.4,134.9 142.4,132.5 155.9,140.3 	"/>
	<polygon class="st15" points="155.9,153.5 142.4,145.8 142.4,143.4 155.9,151.1 	"/>
	<path class="st18" d="M138.9,123.3l-2.7-1.6c-0.4-0.2-0.7-0.9-0.7-1.4v-2.8c0-0.5,0.3-0.8,0.7-0.6l2.7,1.6c0.4,0.2,0.7,0.9,0.7,1.4
		v2.8C139.6,123.3,139.3,123.6,138.9,123.3z"/>
	<path class="st18" d="M138.9,135l-2.7-1.6c-0.4-0.2-0.7-0.9-0.7-1.4v-2.8c0-0.5,0.3-0.8,0.7-0.6l2.7,1.6c0.4,0.2,0.7,0.9,0.7,1.4
		v2.8C139.6,134.9,139.3,135.2,138.9,135z"/>
	<path class="st18" d="M138.9,146.6l-2.7-1.6c-0.4-0.2-0.7-0.9-0.7-1.4v-2.8c0-0.5,0.3-0.8,0.7-0.6l2.7,1.6c0.4,0.2,0.7,0.9,0.7,1.4
		v2.8C139.6,146.6,139.3,146.8,138.9,146.6z"/>
	<path class="st6" d="M146.8,168.9l-15.8-9.1c-2.2-1.2-3.9-4.6-3.9-7.5v-0.8c0-2.9,1.8-4.2,3.9-3l15.8,9.1c2.2,1.2,3.9,4.6,3.9,7.5
		v0.8C150.7,168.8,148.9,170.1,146.8,168.9z"/>
	<path class="st5" d="M145.3,162.8l-13.7-7.9c-0.3-0.2-0.5-0.6-0.5-1l0,0c0-0.4,0.2-0.5,0.5-0.4l13.7,7.9c0.3,0.2,0.5,0.6,0.5,1l0,0
		C145.8,162.8,145.6,163,145.3,162.8z"/>
</g>
<g>
	<path class="st19" d="M213.1,215.1c-6.4,3.4-17.2,3.5-24.2,0.2s-7.5-8.6-1.1-12s17.2-3.5,24.2-0.2
		C218.9,206.4,219.4,211.7,213.1,215.1z"/>
	<path class="st20" d="M210.2,206.3l1.8-5.9l2.1-2.1c2.9,2.5,2.3,2.4,2,3.8l-1.9,4.7c-1.2,2.2-1.7,2.7-3.1,3l0,0
		C209.9,209.5,209.9,208.2,210.2,206.3z"/>
	<g>
		<path class="st20" d="M213.2,201.9c-0.4,0-0.8-0.1-1.2-0.4c-0.3-0.2-7.4-4.9-10.1-12.6c-1.3-3.8-3.1-15.9-3.2-16.4
			c-0.2-1.2,0.7-2.4,1.9-2.5c1.2-0.2,2.4,0.7,2.5,1.9c0.5,3.4,2,12.7,3,15.6c2.2,6.3,8.3,10.3,8.3,10.4c1,0.7,1.3,2.1,0.6,3.1
			C214.6,201.5,213.9,201.9,213.2,201.9z"/>
	</g>
	<path class="st20" d="M184.9,207.1l5.6-2.7l2.9,0.1c0.2,3.8-0.2,3.3-1.4,4l-4.7,1.7c-2.4,0.6-3.2,0.6-4.3-0.2l0,0
		C182.3,209.1,183.2,208.2,184.9,207.1z"/>
	<g>
		<g>
			<path class="st20" d="M191.2,206.3c-1.1,0-2-0.8-2.2-1.9c-4.6-26.3,0.6-37.3,0.8-37.8c0.5-1.1,1.9-1.6,3-1c1.1,0.5,1.6,1.9,1.1,3
				c-0.1,0.2-4.7,10.6-0.4,35.1c0.2,1.2-0.6,2.4-1.8,2.6C191.4,206.3,191.3,206.3,191.2,206.3z"/>
		</g>
	</g>
	<g>
		<path class="st3" d="M183.4,144.4c-0.6,2.1-2.6,6-5.1,6.2c-3.9,0.3-3.7-9.2-3.8-11.2c-0.1-2.1-3.4-2.1-3.3,0
			c0.1,4.4,0.4,14.8,7.1,14.5c4.2-0.2,7.3-5,8.4-8.6C187.2,143.2,184,142.4,183.4,144.4L183.4,144.4z"/>
	</g>
	<path class="st21" d="M186.8,136.3c-2.1,1.7-3.6,4.6-5.1,7.7c-0.5,0.8-0.1,1.9,0.8,2.6l3,2.4c0.7,0.3,1.9-1,2.2-1.7l3.9-7.6
		c0.6-1.2,0.3-2.7-0.8-3.5l0,0C189.6,135.5,188.4,135.2,186.8,136.3z"/>
	<path class="st22" d="M199.7,139.7l-8-1.6l1-3.9c2.4-0.1,4.1,0.5,6.2,1.8L199.7,139.7z"/>
	<g>
		<path class="st20" d="M192.1,173.1c1.2,0.8,6.6,3.7,8.1,3.7c1.8,0,2.7-0.2,4-1.5c1.2-1.2,1.4-3.1,1.5-4.8c0-0.5,0-1-0.2-1.4
			c-0.2-0.5-0.7-0.8-1.1-1.1c-3.3-2.3-9.8-8-14.1-5.9C185.3,164.7,190.1,171.7,192.1,173.1z"/>
	</g>
	<path class="st21" d="M187.9,136.9c-0.9,1.3-0.7,2-0.6,3.6c0.1,1.6,1.3,3,2.8,3.3l16.1,3.8c0,0,3.1-5.1-0.2-6.8
		c-1.7-0.9-6.8-3.5-8.9-4.6C194,134.5,189.9,134,187.9,136.9z"/>
	<path class="st21" d="M188.1,165.2c0.3-0.7,0.5-16.1-0.9-26.9l18.3,7.8c0.2,8.2-0.5,14.7,0.9,24.6L188.1,165.2z"/>
	<path class="st21" d="M200.5,172.7c-4.5-1.4-9.1-3.4-11.7-6.3c-1.2-0.7-0.8-1.6,0.5-2.4l0,0c1.4-0.9,3.5-1,4.8-0.4l11.4,6
		c1.2,0.7,1.1,1.9-0.2,2.8l0,0C203.8,173.2,201.7,173.3,200.5,172.7z"/>
	<path class="st5" d="M195.5,138.6c0,0-1.9,0.1-2.5-3.3l-1.3-0.1c-0.2,0.1-0.6,0.1-0.7,1.2c-0.1,0.7,0,1.4,0.2,2l0.6,1.9
		c0.1,0.4,0.7,0.6,1,0.3L195.5,138.6z"/>
	<path class="st3" d="M194.4,138l-1.1-6.9l4.1,1.7l0.9,5.6C198.5,139.4,195.3,141.5,194.4,138z"/>
	<path class="st3" d="M194.3,137l-1,0.1c-2.2,0.2-4.2-1.4-4.4-3.6l-0.6-6.6c-0.2-2.2,1.4-4.2,3.6-4.4l1-0.1c2.2-0.2,4.2,1.4,4.4,3.6
		l0.6,6.6C198.1,134.8,196.5,136.7,194.3,137z"/>
	<path class="st1" d="M193.9,127.8c-1.4,0.8-3.3,1-4.9,0.5c-1.8-0.6-1.9-2.9-0.6-4.3c0.7-0.7,1.4-1.2,2.9-2c4.3-2.1,9.1-0.3,9.6,4.7
		c0,0,0.9,6.9-3.1,8.1l-0.1-0.4c-0.1-0.3-0.1-0.7,0.1-1c0.3-0.6,0.6-1.6-0.7-2.4c-0.6-0.4-1.2-1.3-1.2-2.1S194.6,127.4,193.9,127.8z
		"/>
	<path class="st3" d="M198.5,132.9c-0.5,0.6-1.2,0.5-1.6-0.1c-0.4-0.7-0.2-1.7,0.3-2.3s1.2-0.5,1.6,0.1
		C199.1,131.2,199,132.3,198.5,132.9z"/>
	<path class="st7" d="M194.2,137c0.6-0.1,1.9-0.7,2.1-0.7c0,0-1,1.1-2,1.6L194.2,137z"/>
	<path class="st5" d="M194.5,138.5c0,0,2.3,0.7,4.3-2.5l1.5,1.7c0.1,0.3,0.2,0.3-0.1,0.6l-2.8,3.3c-0.3,0.4-1,0.4-1.2,0L194.5,138.5
		z"/>
	<g>
		<path class="st23" d="M184.4,132.8l-6.3,2.1l0.8,2.2l6.3-2.1c0.4-0.1,0.5-0.7,0.3-1.4C185.3,133,184.8,132.6,184.4,132.8z"/>
		<path class="st23" d="M183.1,132.7l-9,3l1.1,3.2l9-3c0.6-0.2,0.8-1,0.5-1.9C184.3,133,183.6,132.5,183.1,132.7z"/>
		<path class="st1" d="M177.5,133.8L177.5,133.8l-11,3.4l0,0l0,0c-0.8,0.3-1,1.6-0.5,3.1c0.5,1.4,1.5,2.4,2.3,2.1l0,0l0,0l10.8-4
			l0,0c0.8-0.3,1.1-1.5,0.6-2.7C179.3,134.4,178.3,133.6,177.5,133.8z"/>
		<g>
			<path class="st24" d="M170.5,135.6L170.5,135.6l-5.3,1.3l2.4,6.5l4.8-2.1l0,0c1-0.3,1.3-1.9,0.8-3.4
				C172.6,136.3,171.4,135.3,170.5,135.6z"/>
			
				<ellipse transform="matrix(0.9466 -0.3223 0.3223 0.9466 -36.3175 61.0479)" class="st5" cx="166.2" cy="140.2" rx="2.4" ry="3.5"/>
			
				<ellipse transform="matrix(0.9466 -0.3223 0.3223 0.9466 -36.3175 61.0479)" class="st1" cx="166.2" cy="140.2" rx="1.9" ry="2.6"/>
		</g>
	</g>
	<path class="st3" d="M171.9,133.9h0.6c0.9,0,1.7,0.7,1.8,1.6v0.4c0,0.9-0.7,1.7-1.6,1.8h-0.6c-0.9,0-1.7-0.7-1.8-1.6v-0.4
		C170.3,134.8,171,134,171.9,133.9z"/>
	<g>
		<path class="st3" d="M204.8,145.2c1.5,3.3,3.9,6.1,5.5,9.3c3.1,6.1,4.1,12.9,4.5,19.6c0.1,2.1,3.4,2.1,3.3,0
			c-0.3-6.9-1.4-13.8-4.4-20.1c-1.7-3.7-4.3-6.8-6.1-10.5C206.7,141.6,203.9,143.3,204.8,145.2L204.8,145.2z"/>
	</g>
	<path class="st21" d="M202.5,144.5l4.7,7.6c1.8,1.8,6.1-2.1,4.7-3.8l-5.1-6.9c-0.9-1-2.4-1.3-3.5-0.5l0,0
		C202,141.8,201.7,143.3,202.5,144.5z"/>
	<path class="st24" d="M166,138.9c-0.2-0.6-0.9-0.7-1.3-0.2c-0.3,0.4-0.4,1.2,0.3,2.5C166.4,143.6,166.6,141.1,166,138.9z"/>
	<ellipse transform="matrix(0.8552 -0.5183 0.5183 0.8552 -48.033 106.0602)" class="st5" cx="165.8" cy="139" rx="0.4" ry="0.5"/>
</g>
<g>
	<path class="st25" d="M34.5,144c0.3,1.3,0.7,4.2-1.5,5.3c-0.3,0.2-0.7,0.2-1,0l-0.7-0.3c-0.7-0.3-0.9-1.1-0.6-1.8
		c0.5-0.8,1.1-2,1.3-3.2c0.2-0.8,0.9-1.2,1.7-0.9l0,0C34.1,143.3,34.4,143.6,34.5,144z"/>
	<path class="st19" d="M32.5,203.2c-5.5,3.2-14.3,3.1-19.8,0c-5.5-3.2-5.5-8.3-0.1-11.5c5.5-3.2,14.3-3.1,19.8,0
		C37.9,194.9,37.9,200.1,32.5,203.2z"/>
	<path class="st20" d="M31.2,198.3l-5.6-1.9l-1.7,1.4c-0.9,1.2-1.3,1.8-0.8,3c0.4,1,2,1.4,3,1.4l4.4-0.1c3.2,0.1,3.5-1,3.8-2l0,0
		C34.4,199,33.1,198.6,31.2,198.3z"/>
	<path class="st20" d="M18.7,190.5l-5.8,1.2l-0.8,2c-0.2,1.4-0.2,2.2,0.8,3c0.8,0.6,2.5,0.1,3.3-0.3l3.7-2.2
		c2.8-1.5,2.6-2.7,2.3-3.6l0,0C21.7,189.5,20.4,189.8,18.7,190.5z"/>
	<path class="st26" d="M25.2,114l-0.1,0.6c0,0-0.2,1.8-1.8,0.6c-1.7-1.2-1.3-3.5-1.3-3.5S23.4,111.8,25.2,114z"/>
	<path class="st27" d="M23.3,115.3c2.2,1.6,2.4-0.6,2.4-0.6l0,0V114c-2.3-2.6-4-2.8-4-2.8S21.1,113.7,23.3,115.3z M22.1,111.9
		c0,0,1.3,0.1,3.1,2.2l-0.1,0.5c0,0-0.2,1.6-1.8,0.4C21.8,113.8,22.1,111.9,22.1,111.9z"/>
	<polygon class="st27" points="26.5,115.3 25.2,114.4 25.3,113.6 26.5,114.5 	"/>
	<path class="st27" d="M21.8,111.9l-0.2-0.1c-0.1-0.1-0.2-0.3-0.2-0.5l0,0c0-0.2,0.1-0.2,0.2-0.2l0.2,0.1c0.1,0.1,0.2,0.3,0.2,0.5
		l0,0C22,111.9,21.9,111.9,21.8,111.9z"/>
	<path class="st27" d="M30.2,117.3l-0.2-0.1c-0.1-0.1-0.2-0.3-0.2-0.5l0,0c0-0.2,0.1-0.2,0.2-0.2l0.2,0.1c0.1,0.1,0.2,0.3,0.2,0.5
		l0,0C30.4,117.3,30.3,117.4,30.2,117.3z"/>
	<g>
		<g>
			<g>
				<g>
					<path class="st1" d="M30.1,116.3c0,0-1.9-1.7-4.3-1.8l0.1,0.7l0,0c0,0,0.3,2.3,2.7,3.2C30.9,119.4,30.1,116.3,30.1,116.3z
						 M28.5,118.1c-1.7-0.7-2-2.4-2-2.4l-0.1-0.6c1.9,0,3.3,1.4,3.3,1.4S30.2,118.8,28.5,118.1z"/>
				</g>
			</g>
			<g>
				<path class="st1" d="M26.9,116L26.9,116c0-0.1-0.1-0.2,0-0.2l0.5-0.4c0,0,0.1,0,0.2,0.1l0,0c0,0.1,0.1,0.2,0,0.2l-0.5,0.4
					C27,116.1,26.9,116.1,26.9,116z"/>
			</g>
		</g>
	</g>
	<path class="st28" d="M22.3,112.9L22.3,112.9c0-0.1-0.1-0.2,0-0.2l0.5-0.4c0,0,0.1,0,0.2,0.1l0,0c0,0.1,0.1,0.2,0,0.2l-0.5,0.4
		C22.4,113,22.3,112.9,22.3,112.9z"/>
	<path class="st3" d="M18.5,124.3l1.3-5.9l3.6,2.4l-1.1,5.3C22.2,127,18.2,126.2,18.5,124.3z"/>
	<path class="st3" d="M21.8,109.6c0,0-3.2-3-4.1,3c-0.6,4.2,1.3,8.2,4.5,10.3c2,1.3,4.8,0.4,5.2-1.6c1-3,1.4-5.8,0.8-8.4
		c0.5-2.5-1.3-1.9-4.3-2.5L21.8,109.6z"/>
	<path class="st29" d="M18.1,121c0,0-3.9-2.1-2.6-7.9c1.4-6.2,7-4.8,10.3-4.6c1.4,0.1,2.5,0.7,3.1,1.9c0.6,1.1,0.1,3.5-1.8,3.4
		c-0.8,0-0.7,2-1,2.7c-0.5,1.2-1.3,1.7-1.8,2.8c-0.4,1.1-2.4,2.6-3.5,2.6C18.8,121.8,18.1,121,18.1,121z"/>
	<path class="st1" d="M30.1,117.5l-5.4-0.3c-0.2,0-0.3-0.2-0.3-0.4l0,0c0-0.2,0.2-0.3,0.4-0.3l5.4,0.3c0.2,0,0.3,0.2,0.3,0.4l0,0
		C30.4,117.4,30.3,117.5,30.1,117.5z"/>
	<path class="st3" d="M25.4,118.2c-0.1,1-0.7,1.8-1.4,1.7c-0.1,0-0.2,0-0.2,0c-0.6-0.2-1-1-1-1.9c0.1-1,0.7-1.8,1.4-1.7
		C24.9,116.3,25.5,117.2,25.4,118.2z"/>
	<path class="st30" d="M38,138.5L38,138.5c-0.8-0.3-1.2-1.1-0.9-1.9l1.2-3.4c0.3-0.8,1.1-1.2,1.9-0.9l0,0c0.8,0.3,1.2,1.1,0.9,1.9
		l-1.2,3.4C39.7,138.3,38.8,138.8,38,138.5z"/>
	<g>
		<path class="st30" d="M13.6,132.4c1.6,3.2,4.3,5.9,7.7,7.2c4.7,1.7,9.6-0.4,13.4-3.2c1.7-1.3,0-4.2-1.7-2.9
			c-3.1,2.3-7,4.3-10.9,2.9c-2.6-1-4.5-3.2-5.7-5.6C15.5,128.8,12.6,130.5,13.6,132.4L13.6,132.4z"/>
	</g>
	<g>
		<path class="st20" d="M21.3,161.7c2.2,6.5,2.4,13.6,2.2,20.4c-0.2,5.1-1,10.2-0.8,15.3c0.1,3.3,5.3,3.4,5.2,0
			c-0.1-5.2,0.7-10.5,0.8-15.8c0.2-7.1-0.1-14.5-2.4-21.3C25.3,157.2,20.3,158.5,21.3,161.7L21.3,161.7z"/>
	</g>
	<g>
		<path class="st20" d="M10.9,155.9c1.2,4.3,1.7,8.7,2.1,13.1c0.2,2.6,0.5,5,0.3,7.6c-0.5,5.2-1.5,10.4-1.5,15.6
			c0,3.3,5.2,3.4,5.2,0c0-5.3,1-10.6,1.5-15.9c0.3-2.6-0.1-5.2-0.4-7.9c-0.5-4.7-1-9.4-2.3-13.9C15,151.3,10,152.6,10.9,155.9
			L10.9,155.9z"/>
	</g>
	<g>
		<path class="st20" d="M15.1,162.7L15.1,162.7c0.5,0.5-1.6-2.1-1-1.7c1.3,0.8,8.5,5.7,10,5.7c1.8,0,0.8-1.7,2.1-2.9
			c1.3-1.2,1.6-3,1.7-4.7c0-0.5,0.1-1-0.1-1.4c-0.2-0.5-0.6-0.8-1-1.1c-3.2-2.4-9.5-8.4-14-6.5C7.6,152.2,12.8,160.2,15.1,162.7z"/>
	</g>
	<path class="st21" d="M11.4,124.3c-1,1.2-0.8,2-0.8,3.7c0,1.6,1.2,3.1,2.7,3.5l16.1,4.5c0,0,0.9-6.2-2.2-8.1
		c-1.7-1-4.4-2.6-6.4-3.9C17.6,122.2,13.6,121.5,11.4,124.3z"/>
	<path class="st21" d="M10.5,153.4c-1-0.4-0.8-18,0.1-27.7l18.1,8.6c-0.1,8.3-1.1,14.8-0.1,24.9L10.5,153.4z"/>
	<path class="st21" d="M22.6,161c-4.5-1.6-8.7-3.4-11.2-6.5c-1.2-0.7-1.1-2,0.3-2.8l0,0c1.4-0.8,3.6-0.9,4.8-0.2l11.2,6.5
		c1.2,0.7,1.1,2-0.3,2.8l0,0C26,161.6,23.8,161.7,22.6,161z"/>
	<path class="st21" d="M28.8,134.3l-3-1.4c-0.1,8.1-1.1,14.5-0.1,24.5l0,0c0,0.6-0.4,1.2-1.2,1.6l0,0c-1.4,0.8-3.6,0.9-4.8,0.2
		c-2.1-0.8-4.2-1.6-6.1-2.6c2.5,1.9,5.7,3.2,9.1,4.4c1.2,0.7,3.4,0.6,4.8-0.2l0,0c0.8-0.5,1.2-1.1,1.2-1.6l0,0
		C27.6,149.1,28.7,142.5,28.8,134.3z"/>
	<path class="st5" d="M25.1,126.6c-4.2-0.6-7,1.6-8-4.3l0,0c0.6-0.4,1.4-0.2,1.8,0.4c0.7,1,2.2,1.7,3.9,1.5c0.5-0.1,1,0.2,1.3,0.6
		L25.1,126.6z"/>
	<g>
		<path class="st30" d="M25,132.1c0.2,2.7,0.2,5.5,1.1,8.1c0.9,2.4,2,5.5,4,7.2c5.2,4.5,8.9-6.5,9.9-9.9c0.7-2.1-2.6-1.9-3.2,0.1
			c-0.7,2.3-1.5,5.1-3.3,6.9c-0.8,0.8-1.1,0.7-1.8-0.3c-2.6-3.7-3-7.7-3.3-12C28.2,129.9,24.8,129.9,25,132.1L25,132.1z"/>
	</g>
	<path class="st21" d="M24,132c1,8.6,3.7,14,7.5,16.8c2,1.1,3.8-2,3.1-3.9c-3.7-3.3-5-8.5-5.4-14.4c-0.5-1.2-1.9-1.8-3.2-1.5l0,0
		C24.6,129.4,23.7,130.7,24,132z"/>
	<path class="st5" d="M34.5,143.7c0.3,1.3,0.7,4.2-1.5,5.3c-0.3,0.2-0.7,0.2-1,0l-0.7-0.3c-0.7-0.3-0.9-1.1-0.6-1.8
		c0.5-0.8,1.1-2,1.3-3.2c0.2-0.8,0.9-1.2,1.7-0.9l0,0C34.1,143,34.4,143.3,34.5,143.7z"/>
	<g>
		<g>
			<path class="st31" d="M38,138.3l-3.6-2.7c-0.2-0.2-0.3-0.5-0.1-0.8l3.6-7.2c0.1-0.3,0.4-0.4,0.6-0.2L42,130
				c0.2,0.2,0.3,0.5,0.1,0.8l-3.5,7.2c-0.1,0.2-0.2,0.2-0.4,0.2L38,138.3z"/>
			<path class="st31" d="M38.4,131c0,0-4.3,4.1-4.2,3.8l3.6-7.5h0.3c0.1,0,0.2,0,0.3,0.1L42,130c0.1,0.1,0.2,0.2,0.2,0.3L38.4,131z"
				/>
			<path class="st1" d="M37.6,138.3l-3.6-2.6c-0.2-0.2-0.3-0.5-0.1-0.8l3.6-7.2c0.1-0.3,0.4-0.4,0.6-0.2l3.6,2.6
				c0.2,0.2,0.3,0.5,0.1,0.8l-3.6,7.2C38.1,138.3,37.8,138.4,37.6,138.3z"/>
			<path class="st32" d="M41.7,131.4l-0.2,0.4l0,0l0,0c0,0,0.1,0,0.1-0.1l0.2-0.4C41.8,131.4,41.8,131.3,41.7,131.4L41.7,131.4
				L41.7,131.4z"/>
			<path class="st32" d="M41.3,132.1l-0.2,0.4l0,0l0,0c0,0,0.1,0,0.1-0.1l0.2-0.4C41.4,132.1,41.4,132.1,41.3,132.1L41.3,132.1
				C41.4,132.1,41.3,132.1,41.3,132.1z"/>
			<path class="st25" d="M38.2,137.1l-3.5-2.6l3.1-6.4l3.5,2.6l-3.1,6.2C38.1,137,38.2,137.1,38.2,137.1z"/>
			<path class="st33" d="M40.3,129.6l-1.1-0.8c0,0-0.1-0.1,0-0.1l0,0c0,0,0.1-0.1,0.1,0l1.1,0.8C40.4,129.5,40.5,129.6,40.3,129.6
				L40.3,129.6C40.4,129.6,40.3,129.7,40.3,129.6z"/>
		</g>
		<path class="st30" d="M39.4,137.3l0.4-0.9c-0.3,0-0.8,1.4-0.7,1.1v-4c0-0.3,0.3-0.5,0.6-0.5l0,0c0.3,0,0.6,0.3,0.6,0.5l-0.1,2
			C40.3,135.8,39.8,137.3,39.4,137.3z"/>
	</g>
</g>
<g>
	<path class="st5" d="M124.7,146.5l-17.9-9.8c-0.4-0.2-0.7-0.7-0.7-1.1l0.1-11.6c0-0.6,0.7-0.9,1.2-0.6l17.8,9.8
		c0.4,0.2,0.7,0.7,0.7,1.1l-0.1,11.8C125.7,146.4,125.1,146.7,124.7,146.5z"/>
	<path class="st34" d="M108.7,137.7l2.5-2.5c0.6-0.6,1.6-0.4,2,0.3l2.3,4.9l2.7-3.5c0.6-0.7,1.8-0.6,2.1,0.2l3.3,8.8L108.7,137.7z"
		/>
	<path class="st35" d="M113.1,130.1c0,0.8-0.5,1.2-1.2,0.8s-1.2-1.3-1.2-2.1s0.5-1.2,1.2-0.8S113.1,129.3,113.1,130.1z"/>
</g>
<g>
	<path class="st5" d="M154.6,73.6l-17.8-10.3c-0.4-0.2-0.7-0.7-0.7-1.2l0.1-11.8c0-0.6,0.6-0.9,1.2-0.6L155.1,60
		c0.4,0.2,0.7,0.7,0.7,1.1L155.6,73C155.6,73.5,155,73.8,154.6,73.6z"/>
</g>
<g>
	<polygon class="st16" points="86.7,104 127.1,127.3 127.1,60.2 86.7,36.9 	"/>
	<g>
		<path class="st1" d="M91,81.4c0.2,9.4,7,20.6,15.1,25.1c8.2,4.5,14.6,0.5,14.4-8.8c-0.2-9.4-7-20.6-15.1-25.1
			C97.2,68.1,90.8,72,91,81.4z M115.6,95c0.1,6.3-4.2,8.9-9.7,5.9s-10-10.5-10.1-16.8c-0.1-6.3,4.2-8.9,9.7-5.9
			C110.9,81.2,115.5,88.7,115.6,95z"/>
		<path class="st6" d="M105.4,72.6c-5-2.7-9.3-2.3-11.9,0.6l4.1,5.3c1.7-1.9,4.6-2.1,7.9-0.3c4.5,2.5,8.4,8.1,9.7,13.5l4.7,1.3
			C118,84.8,112.2,76.3,105.4,72.6z"/>
		<path class="st5" d="M94.9,94.7l3.6-1.6c-1.6-2.9-2.6-6.1-2.7-9c-0.1-2.7,0.7-4.7,2-5.9L94,72.6c-2,1.8-3.1,4.8-3,8.8
			C91,85.7,92.5,90.4,94.9,94.7z"/>
	</g>
	<path class="st5" d="M99.1,65.5l-4.8-2.8c-0.8-0.4-1.4-1.7-1.4-2.7l0,0c0-1,0.6-1.5,1.4-1.1l4.8,2.8c0.8,0.4,1.4,1.7,1.4,2.7l0,0
		C100.6,65.5,99.9,66,99.1,65.5z"/>
	<path class="st5" d="M109,70.4l-4.8-2.8c-0.8-0.4-1.4-1.7-1.4-2.7l0,0c0-1,0.6-1.5,1.4-1.1l4.8,2.8c0.8,0.4,1.4,1.7,1.4,2.7l0,0
		C110.5,70.4,109.8,70.8,109,70.4z"/>
	<path class="st5" d="M119,75.9l-4.8-2.8c-0.8-0.4-1.4-1.7-1.4-2.7l0,0c0-1,0.6-1.5,1.4-1.1l4.8,2.8c0.8,0.4,1.4,1.7,1.4,2.7l0,0
		C120.4,75.8,119.7,76.3,119,75.9z"/>
	<path class="st36" d="M121.3,67L94.6,51.6c-0.7-0.4-1.2-1.4-1.2-2.3l0,0c0-0.9,0.5-1.3,1.2-0.9l26.7,15.4c0.7,0.4,1.2,1.4,1.2,2.3
		l0,0C122.5,67,122,67.4,121.3,67z"/>
</g>
<path class="st37" d="M147.1,201.2c-7.1-4.3-18.7-4.4-25.9-0.4c-7.2,4-7.3,10.7-0.2,15c7.1,4.3,18.6,4.4,25.9,0.5
	C155,211.9,154.2,205.4,147.1,201.2z"/>
<path class="st38" d="M142.7,199.7c-6.7-4-17.8-4.2-24.6-0.4c-6.9,3.8-7,10.2-0.2,14.2c6.7,4,17.6,4.2,24.6,0.5
	C150.2,209.9,149.4,203.7,142.7,199.7z"/>
<path class="st6" d="M142.5,197.4c-6.7-4-17.8-4.2-24.6-0.4c-6.9,3.8-7,10.2-0.2,14.2c6.7,4,17.6,4.2,24.6,0.5
	C149.9,207.6,149.2,201.4,142.5,197.4z"/>
<polyline class="st39" points="127,201.3 125.7,205.9 136.5,203.4 "/>
<polygon class="st15" points="152.4,64 139,56.2 139,53.8 152.4,61.6 "/>
<polygon class="st15" points="152.4,69.5 139,61.7 139,59.3 152.4,67.1 "/>
</svg>
