<?xml version="1.0" encoding="utf-8"?>
<!-- Generator: Adobe Illustrator 24.3.0, SVG Export Plug-In . SVG Version: 6.00 Build 0)  -->
<svg version="1.1" id="Layer_1" xmlns="http://www.w3.org/2000/svg" xmlns:xlink="http://www.w3.org/1999/xlink" x="0px" y="0px"
	 viewBox="0 0 225 232.7" style="enable-background:new 0 0 225 232.7;" xml:space="preserve">
<style type="text/css">
	.st0{fill:#059ED3;}
	.st1{fill:#323441;}
	.st2{fill:#FFC2B0;}
	.st3{fill:#1D3570;}
	.st4{fill:#8E574A;}
	.st5{fill:#0093ED;}
	.st6{fill:#EE54A1;}
	.st7{fill:#FFFFFF;}
	.st8{fill:#FF5C97;}
	
		.st9{opacity:0.5;fill:#0093ED;stroke:#03ADE8;stroke-width:2;stroke-linecap:round;stroke-miterlimit:10;enable-background:new    ;}
	.st10{fill:#F7F5EF;}
	.st11{fill:#2C4482;}
	.st12{fill:#AFC6F5;}
	.st13{opacity:0.5;fill:none;stroke:#0A5DE2;stroke-width:2;stroke-linecap:round;stroke-miterlimit:10;enable-background:new    ;}
	.st14{fill:#1F1F89;}
	.st15{fill:#3878FF;}
	.st16{fill:#0A5DE2;}
	.st17{fill:#606060;}
	.st18{opacity:0.4;}
	.st19{opacity:0.5;fill:none;stroke:#028FCC;stroke-width:2;stroke-linecap:round;stroke-miterlimit:10;enable-background:new    ;}
	.st20{fill:#0688C9;}
	.st21{fill:#BCCCFD;}
	.st22{fill:#C9457B;}
</style>
<polygon class="st0" points="29.9,156 29.2,161.5 25.3,171.6 28.9,172.7 31.6,162.1 32,156.2 "/>
<polygon class="st1" points="21.6,182.6 23.3,200.2 22.7,215.6 28.7,215.6 29,214.5 24.9,213.9 27.1,200.2 29.1,183.3 "/>
<polygon class="st1" points="19.6,182.4 18.2,197.4 9.1,209.5 10.2,215.3 12.9,215.3 11.3,214.1 11,210.4 19.7,200.5 27.7,182.9 "/>
<polygon class="st2" points="32,156.2 31.9,150.6 30.8,150.5 29.9,156 "/>
<path class="st2" d="M21.1,163.9c-0.4,2-0.4,5.1,2.6,5.6c2.4,0.5,4.7-1,5.3-3.3v-0.1c0.4-2-0.3-4.6-3.4-5
	C23.6,160.8,21.7,162,21.1,163.9z"/>
<path class="st3" d="M23.3,169.4c-2.2-0.6-3-2.7-2.7-4.8c0.4-2.3,2.5-3.9,4.8-3.5h0.1l0.4,0.1c0,0.3,0,0.6-0.1,0.9
	c-0.4,1-1.2,1.8-2.2,2.1C23.6,164.2,23,168.7,23.3,169.4z"/>
<path class="st2" d="M23,164.5c-0.3,0-0.6,0-0.9,0.2c-0.9,0.5-0.6,1.8,0.2,2.2c0.3,0.1,0.5,0.2,0.8,0.2c0.2,0,0.5,0,0.7-0.1
	s0.3-0.3,0.4-0.6c0-0.2,0-0.5,0-0.7C24.1,165.1,23.6,164.7,23,164.5z"/>
<path class="st4" d="M30.1,149.9c0,0.7,0.6,1.3,1.3,1.3s1.3-0.6,1.3-1.3s-0.6-1.3-1.3-1.3l0,0C30.7,148.6,30.1,149.2,30.1,149.9
	L30.1,149.9z"/>
<path class="st5" d="M36,158.3l-1.9,0.6c-0.8,2.2-2.1,4.3-3.8,5.9l-3.6,3.5l-4.4,3L19,183.4l10.2,1l0.3-13.4l3.8-4.7
	c1.6-2,2.6-4.3,3.1-6.7L36,158.3z"/>
<path class="st6" d="M26.6,128.1h14.2c2.4,0,4.4,2,4.4,4.4v14.2c0,2.4-2,4.4-4.4,4.4H26.6c-2.4,0-4.4-2-4.4-4.4v-14.2
	C22.2,130.1,24.2,128.1,26.6,128.1z"/>
<path class="st2" d="M36.4,150.7c0,0.7,0.6,1.3,1.2,1.3c0.7,0,1.3-0.6,1.3-1.2c0-0.7-0.6-1.3-1.2-1.3l0,0
	C37,149.5,36.4,150,36.4,150.7L36.4,150.7z"/>
<polygon class="st2" points="33.9,159.6 36.4,160.5 38.5,151.3 37,151 "/>
<path class="st7" d="M39.3,136.8c0,3.2-5.8,11.8-5.8,11.8s-5.9-8.6-5.9-11.8c0.1-3.2,2.9-5.7,6.1-5.6
	C36.8,131.3,39.2,133.7,39.3,136.8z"/>
<path class="st8" d="M36.3,136.3c0,1.5-1.3,2.8-2.8,2.8s-2.8-1.3-2.8-2.8s1.3-2.8,2.8-2.8S36.3,134.7,36.3,136.3z"/>
<line class="st9" x1="4.2" y1="215.5" x2="49.4" y2="215.5"/>
<path class="st10" d="M95,54.6h42.1c2.4,0,4.3,1.9,4.3,4.3v100.8c0,2.4-1.9,4.3-4.3,4.3H95c-2.4,0-4.3-1.9-4.3-4.3V58.9
	C90.7,56.5,92.6,54.6,95,54.6z"/>
<path class="st11" d="M137.2,54.6H95c-2.4,0-4.3,1.9-4.3,4.3v4.4h50.8v-4.4C141.4,56.5,139.5,54.6,137.2,54.6z"/>
<path class="st11" d="M90.7,154.2v5.5c0,2.4,1.9,4.3,4.3,4.3l0,0h42.1c2.4,0,4.3-1.9,4.3-4.3l0,0v-5.5H90.7z"/>
<path class="st6" d="M121.5,66.2h12c2,0,3.7,1.7,3.7,3.7v12c0,2-1.7,3.7-3.7,3.7h-12c-2,0-3.7-1.7-3.7-3.7V70
	C117.8,67.9,119.4,66.2,121.5,66.2z"/>
<path class="st12" d="M121.5,125.2h12c2,0,3.7,1.7,3.7,3.7v12c0,2-1.7,3.7-3.7,3.7h-12c-2,0-3.7-1.7-3.7-3.7v-12
	C117.8,126.9,119.4,125.2,121.5,125.2z"/>
<path class="st6" d="M98.5,125.2h12c2,0,3.7,1.7,3.7,3.7v12c0,2-1.7,3.7-3.7,3.7h-12c-2,0-3.7-1.7-3.7-3.7v-12
	C94.8,126.9,96.5,125.2,98.5,125.2z"/>
<line class="st13" x1="90.5" y1="164.5" x2="145.2" y2="164.5"/>
<rect x="157.2" y="126.2" transform="matrix(0.9865 -0.164 0.164 0.9865 -21.8953 27.8042)" class="st14" width="0.5" height="40.6"/>
<rect x="145" y="126.2" transform="matrix(0.9865 -0.164 0.164 0.9865 -22.0598 25.8031)" class="st14" width="0.5" height="40.6"/>
<rect x="143.3" y="134.8" class="st14" width="12.3" height="0.5"/>
<rect x="144.2" y="140.1" class="st14" width="12.3" height="0.5"/>
<rect x="145.1" y="145.5" class="st14" width="12.3" height="0.5"/>
<rect x="145.9" y="150.8" class="st14" width="12.3" height="0.5"/>
<rect x="146.8" y="156.2" class="st14" width="12.3" height="0.5"/>
<rect x="147.7" y="161.5" class="st14" width="12.3" height="0.5"/>
<rect x="117.9" y="146.3" transform="matrix(0.164 -0.9865 0.9865 0.164 -28.9912 258.8529)" class="st15" width="40.6" height="0.5"/>
<rect x="130.1" y="146.4" transform="matrix(0.1642 -0.9864 0.9864 0.1642 -18.8898 270.9122)" class="st15" width="40.6" height="0.5"/>
<rect x="140" y="134.8" class="st15" width="12.3" height="0.5"/>
<rect x="139.1" y="140.1" class="st15" width="12.3" height="0.5"/>
<rect x="138.3" y="145.5" class="st15" width="12.3" height="0.5"/>
<rect x="137.4" y="150.8" class="st15" width="12.3" height="0.5"/>
<rect x="136.5" y="156.2" class="st15" width="12.3" height="0.5"/>
<rect x="135.6" y="161.5" class="st15" width="12.3" height="0.5"/>
<rect x="140.5" y="125.9" class="st16" width="15.1" height="1.5"/>
<polygon class="st5" points="169.9,114.7 168.3,98.1 166.3,80.5 167.9,80.2 171.5,97 177.3,97.5 183.2,80.5 184.9,80.7 180.5,98.8 
	180.7,114.2 "/>
<path class="st2" d="M172,92.1c-0.4,1.6,0.2,4.1,1.8,4.6s3.5-1.4,3.9-3c0.2-1.6-1-3.1-2.6-3.3C173.8,90.1,172.5,90.9,172,92.1z"/>
<path class="st3" d="M174.1,91.2c-0.4-0.1-0.8-0.3-1-0.6v-0.1c1.4-0.9,3.2-0.6,4.2,0.8c0.5,0.7,0.6,1.6,0.4,2.4
	c-0.4,1.3-1.3,2.3-2.5,2.9c0-0.3,0.1-0.7,0.2-1c0.3-1.2,0.7-2.5,1.1-3.7C175.7,91.6,174.9,91.4,174.1,91.2z"/>
<path class="st2" d="M176,93.6c0.2-0.2,0.5-0.2,0.8-0.1c0.1,0,0.1,0.1,0.1,0.1c0.1,0.1,0.1,0.3,0.1,0.4c-0.1,0.5-0.4,0.9-0.9,1
	c-0.1,0-0.3,0-0.4,0c-0.1,0-0.3-0.1-0.3-0.2C175.1,94.5,175.6,93.8,176,93.6z"/>
<polygon class="st1" points="180.7,114.2 179.1,139.6 177.4,139.6 175.9,114.4 174.3,114.5 173.4,140.2 172,140.2 169.9,114.7 
	169.6,111.5 180.7,111.7 "/>
<polygon class="st17" points="179.1,139.6 183,140 182.9,140.6 177.2,140.6 177.4,139.6 "/>
<polygon class="st17" points="173.4,140.2 173.4,140.9 168.1,141.1 168.1,140.5 172,140.2 "/>
<path class="st3" d="M174.8,94.2c-1,0.1-1.7-0.9-2.7-1c-0.1,0-0.1,0-0.2,0c-0.1,0-0.1,0.1-0.1,0.2l-0.4,0.7
	c-0.1,0.2-0.2,0.5-0.3,0.8s-0.1,0.7,0,1c0,0.3,0.1,0.5,0.2,0.7c0.2,0.4,0.6,0.7,1,0.9c0.4,0.1,0.9,0.2,1.4,0.1
	c0.3,0,0.6-0.1,0.9-0.2c0.6-0.3,1-1,0.9-1.7c0-0.2-0.1-0.3-0.1-0.5s0.1-0.3,0.2-0.5c0.1-0.2,0.7-1,0.2-1c-0.2,0-0.4,0.3-0.5,0.3
	C175.2,94.1,175,94.2,174.8,94.2z"/>
<g class="st18">
	<polygon class="st12" points="181.2,86.3 183.5,86.3 184.9,80.7 183.2,80.5 	"/>
	<polygon class="st12" points="167.9,80.2 166.3,80.5 166.9,86.3 169.2,86.3 	"/>
</g>
<path class="st5" d="M153.6,62.3h53.5c2.6,0,4.8,2.1,4.8,4.8v8c0,2.6-2.1,4.8-4.8,4.8h-53.5c-2.6,0-4.8-2.1-4.8-4.8v-8
	C148.8,64.5,151,62.3,153.6,62.3z"/>
<path class="st10" d="M152,62.3h53.5c2.6,0,4.8,2.1,4.8,4.8v8c0,2.6-2.1,4.8-4.8,4.8H152c-2.6,0-4.8-2.1-4.8-4.8v-8
	C147.3,64.5,149.4,62.3,152,62.3z"/>
<path class="st5" d="M206.3,75.8l-2.6-2.7c1.6-1.8,1.3-4.6-0.5-6.1c-1.8-1.6-4.6-1.3-6.1,0.5c-1.6,1.8-1.3,4.6,0.5,6.1
	c0.8,0.7,1.8,1,2.8,1c0.9,0,1.8-0.3,2.5-0.8l2.6,2.7c0.1,0.1,0.3,0.2,0.4,0.2c0.1,0,0.3-0.1,0.4-0.2C206.5,76.4,206.5,76,206.3,75.8
	L206.3,75.8z M200.4,67.1c1.8,0,3.2,1.4,3.2,3.2s-1.4,3.2-3.2,3.2s-3.2-1.4-3.2-3.2S198.6,67.1,200.4,67.1z"/>
<line class="st19" x1="152.5" y1="141.2" x2="209.4" y2="141.2"/>
<path class="st2" d="M168.2,79.5c0,0.8-0.6,1.4-1.4,1.4s-1.4-0.6-1.4-1.4s0.6-1.4,1.4-1.4l0,0C167.6,78.2,168.2,78.8,168.2,79.5z"/>
<path class="st2" d="M184.9,79.9c0,0.8-0.6,1.4-1.4,1.4c-0.8,0-1.4-0.6-1.4-1.4s0.6-1.4,1.4-1.4l0,0
	C184.3,78.6,184.9,79.2,184.9,79.9z"/>
<path class="st2" d="M120.8,91c0.3,0.7-0.1,1.5-0.8,1.8c-0.7,0.3-1.5-0.1-1.8-0.8c-0.3-0.7,0.1-1.5,0.8-1.8l0,0
	C119.8,89.9,120.6,90.3,120.8,91z"/>
<path class="st5" d="M98.5,97.7l2.1-11.8c0.4-2,2.3-3.4,4.3-3l11.8,2.1c2,0.4,3.4,2.3,3,4.3l-2.1,11.8c-0.4,2-2.3,3.4-4.3,3
	l-11.8-2.1C99.5,101.7,98.1,99.8,98.5,97.7z"/>
<path class="st5" d="M59.4,152h8.7c0.3,0,0.5-0.2,0.5-0.5c0-0.1,0-0.2-0.1-0.3l-8.4-9l-0.7,0.7L67,151h-7.6V152z"/>
<polygon class="st20" points="120.5,91.1 124.3,92.6 135.1,93.6 131.5,96.2 123.9,94.3 120,92.6 "/>
<path class="st2" d="M133.6,89.5c0.6,1.6-0.2,3.3-1.8,3.8c-1.6,0.6-3.3-0.2-3.8-1.8c-0.6-1.5,0.2-3.2,1.7-3.8
	C131.2,87.1,133,87.9,133.6,89.5C133.6,89.4,133.6,89.5,133.6,89.5z"/>
<polygon class="st1" points="145,102.1 143.8,114.7 144.2,125.9 139.9,125.9 139.7,125.1 142.6,124.7 141,114.8 139.6,102.5 "/>
<path class="st5" d="M118.8,92.4c1.6,0.7,6.9,2.1,8.6,1.9L131,94l3.7-1l8.1,4l-4.3,6l-7.4-6.2l-4.4-0.2c-1.8-0.1-6.9-2-8.5-3
	L118.8,92.4z"/>
<path class="st3" d="M134.1,88.7c-0.6-1.4-3.2-1.8-4.6-1.1c-0.1,0-0.1,0.1-0.2,0.2c0,0.2,0.1,0.5,0.2,0.7c0.4,0.7,1.2,1.1,2,1.2
	c0,0,0.1,0.2,0.1,0.4c0.1-0.1,0.2-0.2,0.3-0.2c0.2-0.1,0.5-0.1,0.7,0c0.7,0.2,0.7,1.2,0.2,1.7c-0.2,0.1-0.4,0.2-0.6,0.3h-0.1
	c-0.1,1,0,1.1,0.2,1.4C133.6,92.3,135,90.6,134.1,88.7z"/>
<polygon class="st1" points="158.3,100.4 151,103.6 142.7,97.1 138.4,103 151,106.9 158.5,101.9 160.1,103.7 160.7,103.1 "/>
<path class="st2" d="M119.2,92.4c0.3,0.7-0.1,1.5-0.8,1.8c-0.7,0.3-1.5-0.1-1.8-0.8s0.1-1.5,0.8-1.8C118.2,91.3,119,91.7,119.2,92.4
	L119.2,92.4z"/>
<path class="st5" d="M59,57.4h9.8v98.7H59V57.4z M67.8,58.4H60v96.7h7.8V58.4z"/>
<rect x="57.7" y="150.8" class="st11" width="12.5" height="9"/>
<path class="st5" d="M59.4,114.9h8.7c0.3,0,0.5-0.2,0.5-0.5c0-0.1,0-0.3-0.1-0.3l-8.4-9l-0.7,0.7L67,114h-7.6V114.9z"/>
<path class="st5" d="M59.4,124.2h8.7c0.2,0,0.4-0.1,0.5-0.3c0.1-0.2,0-0.4-0.1-0.5l-8.4-9l-0.7,0.7l7.6,8.2h-7.6V124.2z"/>
<path class="st5" d="M59.4,133.5h8.7c0.3,0,0.5-0.2,0.5-0.5c0-0.1,0-0.2-0.1-0.3l-8.4-9l-0.7,0.7l7.6,8.2h-7.6V133.5z"/>
<path class="st5" d="M59.4,142.8h8.7c0.3,0,0.5-0.2,0.5-0.5c0-0.1,0-0.2-0.1-0.3l-8.4-9l-0.7,0.7l7.6,8.2h-7.6V142.8z"/>
<path class="st5" d="M59.4,105.9h8.7c0.3,0,0.5-0.2,0.5-0.5c0-0.1,0-0.2-0.1-0.3l-8.4-9l-0.7,0.7L67,105h-7.6V105.9z"/>
<path class="st5" d="M59.4,96.8h8.7c0.2,0,0.4-0.1,0.5-0.3c0.1-0.2,0-0.4-0.1-0.5l-8.4-9l-0.7,0.7l7.6,8.1h-7.6V96.8z"/>
<path class="st5" d="M59.4,87.8h8.7c0.3,0,0.5-0.2,0.5-0.5c0-0.1,0-0.3-0.1-0.3l-8.4-9l-0.7,0.7l7.6,8.2h-7.6V87.8z"/>
<path class="st5" d="M59.4,78.7h8.7c0.2,0,0.4-0.1,0.5-0.3c0.1-0.2,0-0.4-0.1-0.5l-8.4-9l-0.7,0.7l7.6,8.2h-7.6V78.7z"/>
<path class="st5" d="M59.4,69.7h8.7c0.3,0,0.5-0.2,0.5-0.5c0-0.1,0-0.2-0.1-0.3l-8.4-9l-0.7,0.7l7.6,8.2h-7.6V69.7z"/>
<path class="st15" d="M59.4,60.6h8.7c0.2,0,0.4-0.1,0.5-0.3s0-0.4-0.1-0.5l-8.4-9l-0.7,0.7l7.6,8.2h-7.6V60.6z"/>
<rect x="59" y="47.4" class="st11" width="15.9" height="13.4"/>
<rect x="35.1" y="47.4" class="st11" width="15.9" height="7.7"/>
<path class="st5" d="M35.3,48.4H114c0.3,0,0.5-0.2,0.5-0.5s-0.2-0.5-0.5-0.5H35.3c-0.3,0-0.5,0.2-0.5,0.5S35.1,48.4,35.3,48.4z"/>
<rect x="109.8" y="50.2" class="st5" width="0.5" height="32.6"/>
<rect x="53.4" y="158.1" class="st5" width="21" height="3.9"/>
<path class="st5" d="M66.9,48.2c0.1,0,0.1,0,0.2-0.1l4.2-4.2h38.4l3.9,3.9c0.1,0.1,0.3,0.1,0.3,0c0.1-0.1,0.1-0.3,0-0.4l0,0
	l-4.1-4.1H71.1l-4.3,4.3c-0.1,0.1-0.1,0.3,0,0.4l0,0C66.8,48.2,66.8,48.2,66.9,48.2z"/>
<path class="st5" d="M35,48.2c0.1,0,0.2,0,0.2-0.1l4.2-8h10.2l3.9,7.8c0.1,0.1,0.2,0.2,0.3,0.1l0,0c0.1-0.1,0.2-0.2,0.1-0.3l-4.1-8
	H39.1l-4.3,8.2c-0.1,0.1,0,0.3,0.1,0.3l0,0H35z"/>
<path class="st10" d="M108.2,50.2c0,1,0.8,1.8,1.8,1.8s1.8-0.8,1.8-1.8s-0.8-1.8-1.8-1.8l0,0C109,48.4,108.2,49.2,108.2,50.2z"/>
<path class="st5" d="M99.2,44c0.1,0,0.2-0.1,0.2-0.2c0-0.1,0-0.3-0.2-0.3L62.1,32.2c-0.1,0-0.1,0-0.2,0l-17.6,7.4
	c-0.1,0-0.2,0.2-0.1,0.3l0,0c0,0.1,0.2,0.2,0.3,0.1l0,0L62,32.6L99.2,44L99.2,44z"/>
<path class="st5" d="M67.9,48.3h0.2c0.3-0.1,0.4-0.4,0.3-0.7l-5.8-15.4c-0.1-0.2-0.3-0.3-0.5-0.3s-0.4,0.2-0.5,0.4l-3,15
	c0,0.3,0.1,0.5,0.4,0.6c0.3,0,0.5-0.1,0.6-0.4l2.7-13.3L67.4,48C67.5,48.2,67.7,48.3,67.9,48.3z"/>
<path class="st21" d="M61,32.4c0,0.6,0.4,1,1,1s1-0.4,1-1s-0.4-1-1-1S61,31.8,61,32.4z"/>
<path class="st5" d="M104.5,48.3c0.1,0,0.1,0,0.2-0.1l4.9-4V48c0,0.1,0.1,0.2,0.2,0.2s0.2-0.1,0.2-0.2v-4.3c0-0.1-0.1-0.2-0.1-0.2
	c-0.1-0.1-0.2-0.1-0.3,0l-5.3,4.3c-0.1,0.1-0.1,0.3,0,0.4C104.3,48.2,104.4,48.3,104.5,48.3z"/>
<path class="st5" d="M99.7,48.3c0.1,0,0.1,0,0.2-0.1l4.9-4V48c0,0.1,0.1,0.2,0.2,0.2s0.2-0.1,0.2-0.2v-4.3c0-0.1-0.1-0.3-0.2-0.3
	s-0.1,0-0.2,0.1l-5.3,4.3c-0.1,0.1-0.1,0.3,0,0.4C99.6,48.2,99.6,48.3,99.7,48.3z"/>
<path class="st5" d="M94.9,48.3c0.1,0,0.1,0,0.2-0.1l4.9-4V48c0,0.1,0.1,0.2,0.2,0.2s0.2-0.1,0.2-0.2v-4.3c0-0.1-0.1-0.2-0.2-0.3
	c-0.1,0-0.1,0-0.2,0.1l-5.3,4.3c-0.1,0.1-0.1,0.2-0.1,0.3C94.8,48.3,94.9,48.3,94.9,48.3z"/>
<path class="st5" d="M90.2,48.3c0.1,0,0.1,0,0.2-0.1l4.9-4V48c0,0.1,0.1,0.2,0.2,0.2s0.2-0.1,0.2-0.2v-4.3c0-0.1-0.1-0.3-0.2-0.3
	s-0.1,0-0.2,0.1L90,47.8c-0.1,0.1-0.1,0.3,0,0.4C90,48.3,90.1,48.3,90.2,48.3z"/>
<path class="st5" d="M85.4,48.3c0.1,0,0.1,0,0.2-0.1l4.9-4V48c0,0.1,0.1,0.3,0.2,0.3s0.3-0.1,0.3-0.2V48v-4.3c0-0.1-0.1-0.2-0.2-0.2
	s-0.2,0-0.3,0l-5.3,4.3c-0.1,0.1-0.1,0.2-0.1,0.3C85.2,48.2,85.3,48.3,85.4,48.3L85.4,48.3z"/>
<path class="st5" d="M80.7,48.3c0.1,0,0.1,0,0.2-0.1l4.9-4V48c0,0.1,0.1,0.2,0.2,0.2s0.2-0.1,0.2-0.2v-4.3c0-0.1-0.1-0.2-0.1-0.2
	c-0.1-0.1-0.2-0.1-0.3,0l-5.3,4.3c-0.1,0.1-0.1,0.3,0,0.4C80.5,48.2,80.6,48.3,80.7,48.3z"/>
<path class="st5" d="M75.9,48.3c0.1,0,0.1,0,0.2-0.1l4.9-4V48c0,0.1,0.1,0.2,0.2,0.2s0.2-0.1,0.2-0.2v-4.3c0-0.1-0.1-0.3-0.2-0.3
	s-0.1,0-0.2,0.1l-5.3,4.3c-0.1,0.1-0.1,0.3,0,0.4C75.8,48.2,75.8,48.3,75.9,48.3z"/>
<path class="st5" d="M71.1,48.3c0.1,0,0.1,0,0.2-0.1l4.9-4V48c0,0.1,0.1,0.2,0.2,0.2s0.2-0.1,0.2-0.2v-4.3c0-0.1-0.1-0.2-0.2-0.3
	c-0.1,0-0.1,0-0.2,0.1L71,47.8C70.9,47.9,70.9,48.1,71.1,48.3L71.1,48.3z"/>
<path class="st5" d="M43,48.3c0.1,0,0.1,0,0.2-0.1l6.4-7.5V48c0,0.1,0.1,0.3,0.2,0.3s0.3-0.1,0.3-0.2V48v-8c0-0.1-0.1-0.2-0.2-0.2
	c-0.1,0-0.2,0-0.3,0.1L42.8,48c-0.1,0.1-0.1,0.3,0,0.3S42.9,48.3,43,48.3z"/>
<path class="st5" d="M38,48.3c0.1,0,0.2,0,0.2-0.1l4.9-7.4V48c0,0.1,0.1,0.2,0.2,0.2s0.2-0.1,0.2-0.2v-8c0-0.1-0.1-0.2-0.2-0.2
	c-0.1,0-0.2,0-0.3,0.1l-5.3,8c-0.1,0.1,0,0.3,0.1,0.3C37.9,48.3,38,48.3,38,48.3z"/>
<path class="st11" d="M108.5,83.5c0,0.9,0.7,1.6,1.6,1.6s1.6-0.7,1.6-1.6s-0.7-1.6-1.6-1.6S108.5,82.6,108.5,83.5L108.5,83.5z"/>
<line class="st9" x1="44.3" y1="162.5" x2="82.5" y2="162.5"/>
<polygon class="st6" points="204.7,192.8 203.9,182.5 205.1,174.9 209,152.4 207.1,152.2 202.8,172 196,172.5 189,152.4 
	187.1,152.7 192.2,174.1 194,182.3 193.8,192.3 "/>
<polygon class="st14" points="195.3,165.2 194.7,171.1 198.7,171.4 201.2,165.2 "/>
<path class="st2" d="M202.8,167.4c0,2.2-1.8,4.1-4.1,4.1c-2.2,0-4.1-1.8-4.1-4.1s1.8-4.1,4.1-4.1l0,0
	C200.9,163.3,202.8,165.1,202.8,167.4z"/>
<path class="st5" d="M190.4,127.4h15.8c2.7,0,4.9,2.2,4.9,4.9v15.8c0,2.7-2.2,4.9-4.9,4.9h-15.8c-2.7,0-4.9-2.2-4.9-4.9v-15.8
	C185.6,129.6,187.7,127.4,190.4,127.4z"/>
<path class="st11" d="M200.2,167.1c0.1,0,0.2,0,0.2,0c0.1,0,0.1-0.1,0.2-0.2c0.2-0.3,0.6-0.3,0.9,0l0,0c0.3,0.3,0.3,0.7,0.1,1
	s-0.5,0.5-0.9,0.5c-0.2,0.8-0.3,1.6-0.3,2.5l1.7,0.1c0.1,0,0.2,0,0.3,0c0.1-0.1,0.1-0.2,0.1-0.3c0.2-1,0.3-1.9,0.3-2.9
	s-0.2-1.9-0.6-2.8c-0.6-1-3-2.6-4.2-1.7S199.3,166.6,200.2,167.1z"/>
<path class="st11" d="M196.8,165.7c-0.7,0.7-1.6,1.1-2.5,1.2c0-1.1,0.4-2.1,1.2-2.9c0.5-0.4,2-1.3,2.6-0.9S197.3,165.2,196.8,165.7z
	"/>
<polygon class="st1" points="204.3,185.5 193.9,185 185.9,220.7 182.2,218.5 186.8,223.9 197.4,194.5 197.2,207.9 204.4,217.4 
	204.9,220.8 205.1,222.3 206.3,222.1 206.6,216.9 201,207.8 204.9,192.8 "/>
<polygon class="st2" points="204.9,162.1 207.2,162.9 209,152.4 207.1,152.2 "/>
<polygon class="st2" points="191.9,160.7 189.2,161.8 187.1,152.7 189,152.4 "/>
<polygon class="st10" points="200.7,172.1 198.7,175.6 197.7,172.4 "/>
<path class="st2" d="M186.2,151.4c0,0.9,0.7,1.6,1.6,1.6s1.6-0.7,1.6-1.6s-0.7-1.6-1.6-1.6l0,0C186.9,149.7,186.2,150.5,186.2,151.4
	z"/>
<path class="st2" d="M206.6,151.7c0,0.9,0.7,1.6,1.6,1.6c0.9,0,1.6-0.7,1.6-1.6c0-0.9-0.7-1.6-1.6-1.6S206.6,150.8,206.6,151.7
	L206.6,151.7z"/>
<path class="st7" d="M201.6,135.9c0,1.9-1.5,3.4-3.3,3.4c-1.9,0-3.4-1.5-3.4-3.3c0-1.9,1.5-3.4,3.3-3.4l0,0
	C200.1,132.5,201.6,134,201.6,135.9z"/>
<path class="st7" d="M204.8,146c0-3.5-2.9-6.4-6.4-6.4s-6.4,2.9-6.4,6.4H204.8z"/>
<line class="st9" x1="172.9" y1="223.3" x2="223" y2="223.3"/>
<line class="st9" x1="127.7" y1="166.5" x2="165.8" y2="166.5"/>
<path class="st5" d="M76.3,104.4h12c2,0,3.7,1.7,3.7,3.7v12c0,2-1.7,3.7-3.7,3.7h-12c-2,0-3.7-1.7-3.7-3.7v-12
	C72.6,106,74.3,104.4,76.3,104.4z"/>
<polygon class="st5" points="77.3,155.4 75.8,140.3 73.9,124.2 75.4,124 78.7,139.2 84,139.7 89.4,124.2 90.9,124.4 86.9,140.9 
	87.1,154.9 "/>
<path class="st2" d="M76.2,123.4c0,0.7-0.6,1.3-1.3,1.3s-1.3-0.6-1.3-1.3s0.6-1.3,1.3-1.3l0,0C75.7,122.1,76.2,122.7,76.2,123.4z"/>
<path class="st2" d="M90.9,123.8c0,0.7-0.6,1.3-1.2,1.3c-0.7,0-1.3-0.6-1.3-1.2c0-0.7,0.6-1.3,1.2-1.3l0,0
	C90.3,122.5,90.9,123.1,90.9,123.8L90.9,123.8z"/>
<path class="st2" d="M84.7,134.7c0,1.8-1.4,3.2-3.2,3.2s-3.2-1.4-3.2-3.2s1.4-3.2,3.2-3.2S84.7,132.9,84.7,134.7L84.7,134.7z"/>
<path class="st3" d="M84.7,135.2c0,1.8-1.4,3.2-3.2,3.2c-1.8,0-3.2-1.4-3.2-3.2s1.4-3.2,3.2-3.2l0,0C83.2,132,84.7,133.4,84.7,135.2
	z"/>
<polygon class="st1" points="87.1,154.9 85.6,178 84.1,178 82.7,155.1 81.3,155.2 80.4,178.6 79.2,178.6 77.3,155.4 77,152.5 
	87.1,152.6 "/>
<polygon class="st17" points="85.6,178 89.2,178.4 89,178.9 83.9,178.9 84.1,178 "/>
<polygon class="st17" points="80.4,178.6 80.4,179.2 75.6,179.4 75.6,178.8 79.2,178.6 "/>
<line class="st9" x1="70" y1="179.3" x2="98.1" y2="179.3"/>
<path class="st22" d="M124.8,184.8v0.1l0,0v0.1l0,0c0,0,0,0.1-0.1,0.1l0,0l-0.1,0.1l0,0l-0.1,0.1l0,0l-0.1,0.1h-0.1l-0.2,0.1H124
	l-0.2,0.1l-8.6,3l-0.3,0.1l-0.4,0.1l-0.5,0.1h-0.3h-0.4h-0.1h-0.7l0,0c-0.2,0-0.5,0-0.7,0l0,0c-0.2,0-0.4,0-0.7-0.1l0,0
	c-0.2,0-0.4-0.1-0.6-0.1l0,0l-0.6-0.2l-8.4-2.9l-0.1-0.1h-0.1l-0.1-0.1h-0.1l-0.1-0.1l-0.1-0.1h0.1l-0.1-0.1l-0.1-0.1l-0.1-0.1
	c0,0,0,0,0-0.1l0,0c0,0,0,0,0-0.1s0-0.1,0-0.2v3.8c0,0.1,0,0.1,0,0.2c0,0,0,0,0,0.1s0,0,0,0v0.1l0,0c0,0,0,0,0.1,0.1l0,0l0.1,0.1
	h0.1l0.1,0.1h0.1l0.2,0.1h0.1l0.2,0.1l0,0l8.4,3.2l0.3,0.1l0.3,0.1l0,0h0.2h0.2h0.2l0,0h0.2h0.2h0.2h1h0.3h0.3h0.2h0.3h0.1l0.4-0.1
	l0,0l0.4-0.1l0.2-0.1l0,0l8.6-3l0.2-0.1l0,0h0.1l0.1-0.1l0,0h0.1h0.1h0.1l0,0l0,0l0.1-0.1l0,0l0.1-0.1l0,0l0,0l0,0l0.1-0.1l0,0l0,0
	l0,0l0,0l0,0l0,0v-0.1l0,0L124.8,184.8z"/>
<path class="st6" d="M123.8,183.9c1.4,0.5,1.4,1.3,0,1.8l-8.6,3c-1.7,0.5-3.5,0.5-5.2,0l-8.4-2.9c-1.4-0.5-1.4-1.3,0-1.8l8.6-3
	c1.7-0.5,3.5-0.5,5.2,0L123.8,183.9z"/>
<path class="st22" d="M158,181.6v0.1l0,0v0.1l0,0l-0.1,0.1l0,0l-0.1,0.1l0,0l-0.1,0.1l0,0l-0.1,0.1l0,0l-0.2,0.1h-0.1l-0.2,0.1
	l-8.6,3l-0.2,0.1l-0.4,0.1l-0.5,0.1H147h-0.4h-0.1h-0.7l0,0c-0.2,0-0.5,0-0.7,0l0,0c-0.2,0-0.5,0-0.7-0.1l0,0
	c-0.2,0-0.4-0.1-0.6-0.1l0,0c-0.2,0-0.4-0.1-0.6-0.2l-8.4-2.9l-0.1-0.1h-0.1l-0.1-0.1l-0.1-0.1h-0.1l-0.1-0.1l-0.1-0.1l-0.1-0.1
	l0,0.2l0,0l-0.1-0.1l0,0c0,0,0,0,0-0.1s0-0.1,0-0.2v3.8c0,0.1,0,0.1,0,0.2l0,0v0.1l0.1,0.1c0,0,0,0,0,0.1c0,0,0,0,0.1,0.1h0.1
	l0.1,0.1h0.1l0.1,0.1h0.1l0.1,0.1h0.1l0.1,0.1l0,0l8.4,2.9l0.3,0.1l0.3,0.1l0,0h0.2h0.2h0.2l0,0h0.2h0.2h0.2h1.6h0.2l0.3-0.1h0.1
	l0.4-0.1h0.1l0.4-0.1l0.2-0.1h0.1l8.6-3l0.2-0.1l0,0h0.1l0.1-0.1l0,0h0.1h0.1l0,0l0,0l0,0l0.1-0.1l0,0l0.1-0.1l0,0l0,0l0,0v-0.1l0,0
	l0,0c0,0,0,0,0-0.1l0,0l0,0l0,0v-0.1l0,0L158,181.6z"/>
<path class="st6" d="M156.9,180.7c1.4,0.5,1.4,1.3,0,1.8l-8.6,3c-1.7,0.5-3.5,0.5-5.2,0l-8.4-2.9c-1.4-0.5-1.4-1.3,0-1.8l8.6-3
	c1.7-0.5,3.5-0.5,5.3,0L156.9,180.7z"/>
</svg>
