<?xml version="1.0" encoding="utf-8"?>
<!-- Generator: Adobe Illustrator 24.3.0, SVG Export Plug-In . SVG Version: 6.00 Build 0)  -->
<svg version="1.1" id="Layer_1" xmlns="http://www.w3.org/2000/svg" xmlns:xlink="http://www.w3.org/1999/xlink" x="0px" y="0px"
	 viewBox="0 0 225 232.7" style="enable-background:new 0 0 225 232.7;" xml:space="preserve">
<style type="text/css">
	.st0{fill:#CCDFF6;}
	.st1{fill:#29427B;}
	.st2{fill:#FFFFFF;}
	.st3{fill:#6C74D1;}
	.st4{fill:#FFD22E;}
	.st5{fill:#D9E2EB;}
	.st6{fill:#1ED4DF;}
	.st7{fill:#EE54A1;}
	.st8{fill:#D2CCFF;}
	.st9{fill:#A8AEFF;}
	.st10{fill:#69B5FF;}
	.st11{fill:url(#SVGID_1_);}
	.st12{fill:#DDD9FF;}
	.st13{fill:#0A2B39;}
	.st14{fill:#949CFF;}
	.st15{fill:#F38CA0;}
	.st16{fill:#C04C85;}
	.st17{fill:#686DDF;}
	.st18{fill:#6A3A14;}
	.st19{fill:#49341F;}
	.st20{fill:#D96C81;}
	.st21{fill:#0093ED;}
	.st22{fill:none;stroke:#0093ED;stroke-linecap:round;stroke-linejoin:round;stroke-miterlimit:10;}
	.st23{fill:#A1A7FF;}
	.st24{fill:#B4B9FF;}
	.st25{fill:#6B84FB;}
	.st26{fill:#18105D;}
	.st27{fill:#737ADE;}
	.st28{fill:#19325C;}
	.st29{fill:#BCC2C6;}
	.st30{fill:#2F3542;}
	.st31{fill:#854919;}
</style>
<g>
	<g>
		<g>
			<g>
				<path class="st0" d="M219.1,190.6c0.3-0.4,0.5-0.8,0.6-1.3c-0.4-0.3-0.9-0.5-1.3-0.6c-0.5-0.1-0.9-0.1-1.3,0
					c-0.9,0.1-1.7,0.6-2.4,1.2l0,0c0.7-0.6,1.3-1.3,1.7-2.2c0.3-0.8,0.3-1.9-0.2-2.8c-1.1,0.1-2,0.5-2.6,1.2
					c-0.3,0.3-0.5,0.7-0.7,1.1c-0.2,0.4-0.3,0.8-0.3,1.3l0,0c0.1-0.5,0.1-0.9,0.1-1.3c0-0.4-0.1-0.9-0.2-1.3
					c-0.1-0.2-0.2-0.4-0.3-0.6c-0.1-0.1-0.1-0.2-0.2-0.3c-0.1-0.1-0.1-0.2-0.2-0.3c-0.2-0.2-0.3-0.3-0.5-0.5
					c-0.2-0.1-0.4-0.3-0.7-0.4c-0.8,0.7-1.1,1.7-1.1,2.6c0,0.4,0.1,0.9,0.2,1.3c0.1,0.4,0.3,0.8,0.6,1.2l0,0
					c-0.2-0.4-0.5-0.8-0.8-1.1s-0.6-0.6-1-0.8s-0.8-0.4-1.3-0.4c-0.2,0-0.5,0-0.7,0s-0.5,0.1-0.7,0.1c-0.1,0.5,0,1,0.1,1.5
					c0.1,0.2,0.1,0.4,0.3,0.6c0.1,0.2,0.2,0.4,0.4,0.5c0.3,0.3,0.6,0.6,1,0.8s0.8,0.4,1.2,0.6l0,0c-0.4-0.2-0.9-0.3-1.3-0.3
					c-0.4-0.1-0.9-0.1-1.3,0c-0.2,0-0.4,0.1-0.6,0.2c-0.2,0.1-0.4,0.2-0.6,0.3c-0.4,0.3-0.7,0.6-1,1c0.3,0.4,0.6,0.8,1,1
					c0.2,0.1,0.4,0.2,0.6,0.3c0.2,0.1,0.4,0.1,0.6,0.2c0.4,0.1,0.9,0.1,1.3,0c0.4-0.1,0.9-0.2,1.3-0.3l0,0c-0.4,0.2-0.8,0.3-1.2,0.6
					c-0.4,0.2-0.7,0.5-1,0.8c-0.1,0.2-0.3,0.4-0.4,0.5c-0.1,0.2-0.2,0.4-0.3,0.6c-0.1,0.4-0.2,0.9-0.1,1.5c0.3,0.1,0.5,0.1,0.7,0.1
					s0.5,0,0.7,0c0.5,0,0.9-0.2,1.3-0.4c0.4-0.2,0.7-0.5,1-0.8s0.5-0.7,0.8-1.1l0,0c-0.2,0.4-0.4,0.8-0.6,1.2
					c-0.1,0.4-0.2,0.8-0.2,1.3c0,0.9,0.4,1.9,1.1,2.6c0.2-0.1,0.5-0.2,0.7-0.4c0.2-0.1,0.4-0.3,0.5-0.5c0.1-0.1,0.2-0.2,0.2-0.3
					c0.1-0.1,0.1-0.2,0.2-0.3c0.1-0.2,0.2-0.4,0.3-0.6c0.2-0.4,0.2-0.8,0.2-1.3c0-0.4,0-0.9-0.1-1.3l0,0c0.1,0.5,0.2,0.9,0.3,1.3
					c0.2,0.4,0.4,0.8,0.7,1.1c0.6,0.7,1.4,1.1,2.6,1.2c0.5-0.9,0.5-2,0.2-2.8s-0.9-1.5-1.7-2.2l0,0c0.7,0.6,1.5,1,2.4,1.2
					c0.4,0.1,0.9,0.1,1.3,0c0.4-0.1,0.9-0.3,1.3-0.6c-0.1-0.5-0.3-1-0.6-1.3c-0.3-0.4-0.6-0.7-1-0.9c-0.8-0.4-1.7-0.6-2.6-0.6
					c0.9,0,1.9-0.1,2.6-0.6C218.4,191.3,218.8,191,219.1,190.6z"/>
			</g>
		</g>
	</g>
	<g>
		<g>
			<g>
				<g>
					<path class="st1" d="M220.4,201.3H77.8c-1.7,0-2.9-1.3-2.9-2.9V105c0-1.7,1.3-2.9,2.9-2.9h142.6c1.7,0,2.9,1.3,2.9,2.9v93.4
						C223.3,200.1,222.1,201.3,220.4,201.3z"/>
					<path class="st2" d="M77,194.5v-75.9c0-2.3,1.9-4.1,4.1-4.1h136c2.3,0,4.1,1.9,4.1,4.1v75.9c0,2.3-1.9,4.1-4.1,4.1h-136
						C78.8,198.6,77,196.8,77,194.5z"/>
				</g>
				<g>
					<path class="st3" d="M203.7,106.7c-1,0-2,0.8-2,2c0,1,0.8,2,2,2c1,0,2-0.8,2-2C205.5,107.6,204.7,106.7,203.7,106.7z
						 M209.6,106.7c-1,0-2,0.8-2,2c0,1,0.8,2,2,2c1,0,2-0.8,2-2C211.4,107.6,210.6,106.7,209.6,106.7z M215.5,106.7c-1,0-2,0.8-2,2
						c0,1,0.8,2,2,2c1,0,2-0.8,2-2C217.3,107.6,216.5,106.7,215.5,106.7z"/>
					<path class="st4" d="M81.2,112.9L81.2,112.9c-2.3,0-4.2-1.9-4.2-4.2l0,0c0-2.3,1.9-4.2,4.2-4.2l0,0c2.3,0,4.2,1.9,4.2,4.2l0,0
						C85.4,111,83.6,112.9,81.2,112.9z"/>
					<path class="st3" d="M134.9,110.9H91c-1.1,0-2.1-0.9-2.1-2.1v-0.4c0-1.1,0.9-2.1,2.1-2.1h43.9c1.1,0,2.1,0.9,2.1,2.1v0.4
						C137,110,136,110.9,134.9,110.9z"/>
				</g>
				<g>
					<path class="st5" d="M90.4,132.2h-3.1c-3,0-5.4-2.4-5.4-5.4v-3.1c0-3,2.4-5.4,5.4-5.4h3.1c3,0,5.4,2.4,5.4,5.4v3.1
						C95.8,129.7,93.4,132.2,90.4,132.2z"/>
					<path class="st6" d="M183.9,136.4h-78.7c-1.1,0-2.2-0.9-2.2-2.2v-13.9c0-1.1,0.9-2.2,2.2-2.2h78.7c1.1,0,2.2,0.9,2.2,2.2v13.9
						C186,135.5,185,136.4,183.9,136.4z"/>
					<path class="st7" d="M194.3,158h21.4c0.6,0,1.2-0.5,1.2-1.2v-37.4c0-0.6-0.5-1.2-1.2-1.2h-21.4c-0.6,0-1.2,0.5-1.2,1.2v37.4
						C193,157.5,193.6,158,194.3,158z"/>
					<path class="st8" d="M194.3,192.8h21.4c0.6,0,1.2-0.5,1.2-1.2v-29c0-0.6-0.5-1.2-1.2-1.2h-21.4c-0.6,0-1.2,0.5-1.2,1.2v29
						C193,192.3,193.6,192.8,194.3,192.8z"/>
					<path class="st9" d="M195.5,174.4v-9.2c0-0.9,0.8-1.8,1.8-1.8h15.4c0.9,0,1.8,0.8,1.8,1.8v9.2c0,0.9-0.8,1.8-1.8,1.8h-15.4
						C196.3,176.2,195.5,175.4,195.5,174.4z"/>
					<path class="st4" d="M183.9,158h-78.7c-1.1,0-2.2-0.9-2.2-2.2v-13.9c0-1.1,0.9-2.2,2.2-2.2h78.7c1.1,0,2.2,0.9,2.2,2.2v13.9
						C186,157.1,185,158,183.9,158z"/>
					<path class="st10" d="M183.9,192.8h-78.7c-1.1,0-2.2-0.9-2.2-2.2v-27.2c0-1.1,0.9-2.2,2.2-2.2h78.7c1.1,0,2.2,0.9,2.2,2.2v27.2
						C186,191.9,185,192.8,183.9,192.8z"/>
					<g>
						<path class="st3" d="M84.1,143L84.1,143c-1.2,0-2.3-1-2.3-2.3l0,0c0-1.2,1-2.3,2.3-2.3l0,0c1.2,0,2.3,1,2.3,2.3l0,0
							C86.3,142,85.3,143,84.1,143z"/>
						<path class="st9" d="M98.1,141.3h-9.7c-0.3,0-0.5-0.2-0.5-0.5s0.2-0.5,0.5-0.5h9.7c0.3,0,0.5,0.2,0.5,0.5
							C98.8,141.1,98.5,141.3,98.1,141.3z"/>
						<path class="st3" d="M84.1,149.3L84.1,149.3c-1.2,0-2.3-1-2.3-2.3l0,0c0-1.2,1-2.3,2.3-2.3l0,0c1.2,0,2.3,1,2.3,2.3l0,0
							C86.3,148.2,85.3,149.3,84.1,149.3z"/>
						<path class="st9" d="M98.1,147.6h-9.7c-0.3,0-0.5-0.2-0.5-0.5s0.2-0.5,0.5-0.5h9.7c0.3,0,0.5,0.2,0.5,0.5
							S98.5,147.6,98.1,147.6z"/>
						<path class="st3" d="M84.1,155.4L84.1,155.4c-1.2,0-2.3-1-2.3-2.3l0,0c0-1.2,1-2.3,2.3-2.3l0,0c1.2,0,2.3,1,2.3,2.3l0,0
							C86.3,154.5,85.3,155.4,84.1,155.4z"/>
						<path class="st9" d="M98.1,153.8h-9.7c-0.3,0-0.5-0.2-0.5-0.5s0.2-0.5,0.5-0.5h9.7c0.3,0,0.5,0.2,0.5,0.5
							C98.8,153.6,98.5,153.8,98.1,153.8z"/>
						<path class="st3" d="M84.1,168L84.1,168c-1.2,0-2.3-1-2.3-2.3l0,0c0-1.2,1-2.3,2.3-2.3l0,0c1.2,0,2.3,1,2.3,2.3l0,0
							C86.3,167.1,85.3,168,84.1,168z"/>
						<path class="st9" d="M98.1,166.4h-9.7c-0.3,0-0.5-0.2-0.5-0.5s0.2-0.5,0.5-0.5h9.7c0.3,0,0.5,0.2,0.5,0.5
							S98.5,166.4,98.1,166.4z"/>
						<path class="st3" d="M84.1,174.3L84.1,174.3c-1.2,0-2.3-1-2.3-2.3l0,0c0-1.2,1-2.3,2.3-2.3l0,0c1.2,0,2.3,1,2.3,2.3l0,0
							C86.3,173.3,85.3,174.3,84.1,174.3z"/>
						<path class="st9" d="M98.1,172.7h-9.7c-0.3,0-0.5-0.2-0.5-0.5s0.2-0.5,0.5-0.5h9.7c0.3,0,0.5,0.2,0.5,0.5
							C98.8,172.4,98.5,172.7,98.1,172.7z"/>
						<path class="st3" d="M84.1,180.6L84.1,180.6c-1.2,0-2.3-1-2.3-2.3l0,0c0-1.2,1-2.3,2.3-2.3l0,0c1.2,0,2.3,1,2.3,2.3l0,0
							C86.3,179.6,85.3,180.6,84.1,180.6z"/>
						<path class="st9" d="M98.1,178.9h-9.7c-0.3,0-0.5-0.2-0.5-0.5s0.2-0.5,0.5-0.5h9.7c0.3,0,0.5,0.2,0.5,0.5
							C98.8,178.7,98.5,178.9,98.1,178.9z"/>
					</g>
					<path class="st2" d="M198.5,132.1L198.5,132.1c-1.9,0-3.4-1.5-3.4-3.4l0,0c0-1.9,1.5-3.4,3.4-3.4l0,0c1.9,0,3.4,1.5,3.4,3.4
						l0,0C201.9,130.6,200.4,132.1,198.5,132.1z"/>
					<path class="st2" d="M208.4,122.9h-12.9c-0.3,0-0.5-0.2-0.5-0.5s0.2-0.5,0.5-0.5h12.9c0.3,0,0.5,0.2,0.5,0.5
						C208.9,122.7,208.7,122.9,208.4,122.9z"/>
					<path class="st2" d="M214.2,184.3h-18.6c-0.1,0-0.3-0.1-0.3-0.3s0.1-0.3,0.3-0.3h18.6c0.1,0,0.3,0.1,0.3,0.3
						S214.4,184.3,214.2,184.3z"/>
					<path class="st2" d="M214.2,185.9h-18.6c-0.1,0-0.3-0.1-0.3-0.3s0.1-0.3,0.3-0.3h18.6c0.1,0,0.3,0.1,0.3,0.3
						S214.4,185.9,214.2,185.9z"/>
					<path class="st2" d="M208.9,187.5h-13.3c-0.1,0-0.3-0.1-0.3-0.3c0-0.1,0.1-0.3,0.3-0.3h13.2c0.1,0,0.3,0.1,0.3,0.3
						S209,187.5,208.9,187.5z"/>
					<path class="st2" d="M203.6,126.3h10.8c0.1,0,0.3-0.1,0.3-0.3c0-0.1-0.1-0.3-0.3-0.3h-10.8c-0.1,0-0.3,0.1-0.3,0.3
						S203.4,126.3,203.6,126.3z M214.4,127.6h-10.8c-0.1,0-0.3,0.1-0.3,0.3c0,0.1,0.1,0.3,0.3,0.3h10.8c0.1,0,0.3-0.1,0.3-0.3
						C214.6,127.8,214.5,127.6,214.4,127.6z M208.9,129.4h-5.4c-0.1,0-0.3,0.1-0.3,0.3c0,0.1,0.1,0.3,0.3,0.3h5.4
						c0.1,0,0.3-0.1,0.3-0.3S209,129.4,208.9,129.4z"/>
					<path class="st2" d="M198.5,141L198.5,141c-1.9,0-3.4-1.5-3.4-3.4l0,0c0-1.9,1.5-3.4,3.4-3.4l0,0c1.9,0,3.4,1.5,3.4,3.4l0,0
						C201.9,139.5,200.4,141,198.5,141z"/>
					<path class="st2" d="M196.8,145.8c-0.9,0-1.7,0.7-1.7,1.7s0.7,1.7,1.7,1.7c0.9,0,1.7-0.7,1.7-1.7
						C198.4,146.6,197.7,145.8,196.8,145.8z M214.4,146.4h-14.9c-0.1,0-0.3,0.1-0.3,0.3c0,0.1,0.1,0.3,0.3,0.3h14.9
						c0.1,0,0.3-0.1,0.3-0.3C214.6,146.5,214.5,146.4,214.4,146.4z M206.1,148.2h-6.5c-0.1,0-0.3,0.1-0.3,0.3c0,0.1,0.1,0.3,0.3,0.3
						h6.5c0.1,0,0.3-0.1,0.3-0.3C206.4,148.3,206.3,148.2,206.1,148.2z"/>
					<path class="st2" d="M196.8,151.1c-0.9,0-1.7,0.7-1.7,1.7s0.7,1.7,1.7,1.7c0.9,0,1.7-0.7,1.7-1.7
						C198.4,151.8,197.7,151.1,196.8,151.1z M214.4,151.5h-14.9c-0.1,0-0.3,0.1-0.3,0.3s0.1,0.3,0.3,0.3h14.9c0.1,0,0.3-0.1,0.3-0.3
						S214.5,151.5,214.4,151.5z M206.1,153.4h-6.5c-0.1,0-0.3,0.1-0.3,0.3c0,0.1,0.1,0.3,0.3,0.3h6.5c0.1,0,0.3-0.1,0.3-0.3
						C206.4,153.5,206.3,153.4,206.1,153.4z"/>
					<path class="st2" d="M203.6,135.3h10.8c0.1,0,0.3-0.1,0.3-0.3c0-0.1-0.1-0.3-0.3-0.3h-10.8c-0.1,0-0.3,0.1-0.3,0.3
						C203.3,135.1,203.4,135.3,203.6,135.3z M214.4,136.5h-10.8c-0.1,0-0.3,0.1-0.3,0.3c0,0.1,0.1,0.3,0.3,0.3h10.8
						c0.1,0,0.3-0.1,0.3-0.3C214.6,136.7,214.5,136.5,214.4,136.5z M208.9,138.4h-5.4c-0.1,0-0.3,0.1-0.3,0.3s0.1,0.3,0.3,0.3h5.4
						c0.1,0,0.3-0.1,0.3-0.3S209,138.4,208.9,138.4z"/>
				</g>
			</g>
			
				<linearGradient id="SVGID_1_" gradientUnits="userSpaceOnUse" x1="-1331.7771" y1="845.8349" x2="-1331.7771" y2="876.1802" gradientTransform="matrix(-1 0 4.490000e-02 1 -1193.4821 -792)">
				<stop  offset="0" style="stop-color:#E6F7FF"/>
				<stop  offset="1" style="stop-color:#FFFFFF"/>
			</linearGradient>
			<path class="st11" d="M189.9,84.4l7.8-32.6c0.1-0.4-0.2-0.8-0.6-0.8l0,0c-0.1,0-0.3,0-0.4,0.1l-40.6,33.3H189.9L189.9,84.4
				L189.9,84.4z"/>
			<g>
				<path class="st1" d="M199.3,50l1.9,3.3V56c0,0.1,0.1,0.2,0.2,0.2c0.1,0,0.2-0.1,0.2-0.1l0.4-2.8l-1.5-3.3
					C200.5,50,199.3,50,199.3,50z M191.5,53.2l0.4,2.8c0,0.1,0.1,0.1,0.2,0.1c0.1,0,0.2-0.1,0.2-0.2v-2.8l1.9-3.3h-1L191.5,53.2z"/>
				<ellipse class="st1" cx="196.6" cy="48.7" rx="2.5" ry="2.5"/>
				<path class="st2" d="M196.7,46.9c-0.8,0-1.5,0.3-2,0.8c0.3-0.7,1.1-1.2,2-1.2c0.8,0,1.7,0.5,2,1.2
					C198.2,47.2,197.5,46.9,196.7,46.9z"/>
				<path class="st12" d="M193.2,52.1h6.8c0.2,0,0.4-0.2,0.4-0.4V49c0-0.2-0.2-0.4-0.4-0.4h-6.8c-0.2,0-0.4,0.2-0.4,0.4v2.7
					C192.9,52,193,52.1,193.2,52.1z"/>
				<path class="st1" d="M206.3,49.5h-5.8v1.2l5.3-0.6C206.1,50.1,206.3,49.8,206.3,49.5L206.3,49.5z"/>
				<path class="st9" d="M205.4,47.7h0.5c0.1,0,0.2,0.1,0.2,0.2l0.1,1.5H205l0.1-1.5C205.1,47.8,205.2,47.7,205.4,47.7z"/>
				<path class="st13" d="M206,47.7h-0.5c0-0.1,0-0.3,0-0.4c0-0.2,0.4-0.2,0.4,0C206,47.4,206,47.6,206,47.7z"/>
				<path class="st12" d="M205.8,47.5l5,0.2l0,0c0-0.3-0.2-0.5-0.4-0.5l-4.5,0.2L205.8,47.5L205.8,47.5z"/>
				<path class="st12" d="M205.4,47.4l-5-0.2l0,0c0,0.3,0.2,0.5,0.4,0.5l4.5-0.2L205.4,47.4L205.4,47.4z"/>
				<path class="st1" d="M187.1,49.5h5.8v1.2l-5.3-0.6C187.3,50.1,187.1,49.8,187.1,49.5L187.1,49.5z"/>
				<path class="st9" d="M188,47.7h-0.5c-0.1,0-0.2,0.1-0.2,0.2l-0.1,1.5h1.2l-0.1-1.5C188.2,47.8,188.1,47.7,188,47.7z"/>
				<path class="st13" d="M187.5,47.7h0.5c0-0.1,0-0.3,0-0.4c0-0.2-0.4-0.2-0.4,0C187.5,47.4,187.5,47.6,187.5,47.7z"/>
				<path class="st12" d="M187.5,47.5l-5,0.2l0,0c0-0.3,0.2-0.5,0.4-0.5l4.5,0.2L187.5,47.5L187.5,47.5z"/>
				<path class="st12" d="M187.9,47.4l5-0.2l0,0c0,0.3-0.2,0.5-0.4,0.5l-4.5-0.2L187.9,47.4L187.9,47.4z"/>
				<path class="st13" d="M195.4,52.1c0,0.7,0.5,1.2,1.2,1.2s1.2-0.5,1.2-1.2s-0.5-1.2-1.2-1.2C196,50.8,195.4,51.4,195.4,52.1z"/>
				<circle class="st12" cx="196.7" cy="52.1" r="0.6"/>
			</g>
			<g>
				<path class="st12" d="M70.4,201.3H52.6c-0.4,0-0.7-0.4-0.5-0.8l2.8-6.5c0.1-0.2,0.4-0.4,0.7-0.4h11.7c0.3,0,0.6,0.2,0.7,0.4
					l2.8,6.5C71.1,201,70.9,201.3,70.4,201.3z"/>
				<path class="st12" d="M65,191.8h-7c-0.5,0-0.9,0.4-0.9,0.9l0,0c0,0.5,0.4,0.9,0.9,0.9h7c0.5,0,0.9-0.4,0.9-0.9l0,0
					C65.9,192.2,65.5,191.8,65,191.8z"/>
				<g>
					<path class="st9" d="M64.4,80.5c-0.1,0-0.1,0-0.2-0.1l-5.8-5.9c-0.1-0.1-0.1-0.3,0-0.4s0.3-0.1,0.4,0l5.8,5.9
						c0.1,0.1,0.1,0.3,0,0.4C64.6,80.4,64.5,80.5,64.4,80.5z"/>
					<path class="st9" d="M58.6,80.5c-0.1,0-0.1,0-0.2-0.1s-0.1-0.3,0-0.4l5.8-5.9c0.1-0.1,0.3-0.1,0.4,0s0.1,0.3,0,0.4l-5.8,5.9
						C58.7,80.4,58.7,80.5,58.6,80.5z"/>
					<path class="st9" d="M64.4,86.3c-0.1,0-0.1,0-0.2-0.1l-5.8-5.9c-0.1-0.1-0.1-0.3,0-0.4s0.3-0.1,0.4,0l5.8,5.9
						c0.1,0.1,0.1,0.3,0,0.4C64.6,86.3,64.5,86.3,64.4,86.3z"/>
					<path class="st9" d="M58.6,86.3c-0.1,0-0.1,0-0.2-0.1s-0.1-0.3,0-0.4l5.8-5.9c0.1-0.1,0.3-0.1,0.4,0s0.1,0.3,0,0.4l-5.8,5.9
						C58.7,86.3,58.7,86.3,58.6,86.3z"/>
					<path class="st9" d="M64.4,92.1c-0.1,0-0.1,0-0.2-0.1l-5.8-5.9c-0.1-0.1-0.1-0.3,0-0.4s0.3-0.1,0.4,0l5.8,5.9
						c0.1,0.1,0.1,0.3,0,0.4C64.6,92.1,64.5,92.1,64.4,92.1z"/>
					<path class="st9" d="M58.6,92.1c-0.1,0-0.1,0-0.2-0.1s-0.1-0.3,0-0.4l5.8-5.9c0.1-0.1,0.3-0.1,0.4,0s0.1,0.3,0,0.4L58.8,92
						C58.7,92.1,58.7,92.1,58.6,92.1z"/>
					<path class="st9" d="M64.4,98c-0.1,0-0.1,0-0.2-0.1L58.4,92c-0.1-0.1-0.1-0.3,0-0.4s0.3-0.1,0.4,0l5.8,5.9
						c0.1,0.1,0.1,0.3,0,0.4C64.6,98,64.5,98,64.4,98z"/>
					<path class="st9" d="M58.6,98c-0.1,0-0.1,0-0.2-0.1s-0.1-0.3,0-0.4l5.8-5.9c0.1-0.1,0.3-0.1,0.4,0s0.1,0.3,0,0.4l-5.8,5.9
						C58.7,98,58.7,98,58.6,98z"/>
					<path class="st9" d="M64.4,103.9c-0.1,0-0.1,0-0.2-0.1l-5.8-5.9c-0.1-0.1-0.1-0.3,0-0.4s0.3-0.1,0.4,0l5.8,5.9
						c0.1,0.1,0.1,0.3,0,0.4C64.6,103.8,64.5,103.9,64.4,103.9z"/>
					<path class="st9" d="M58.6,103.9c-0.1,0-0.1,0-0.2-0.1s-0.1-0.3,0-0.4l5.8-5.9c0.1-0.1,0.3-0.1,0.4,0s0.1,0.3,0,0.4l-5.8,5.9
						C58.7,103.8,58.7,103.9,58.6,103.9z"/>
					<path class="st9" d="M64.4,109.7c-0.1,0-0.1,0-0.2-0.1l-5.8-5.9c-0.1-0.1-0.1-0.3,0-0.4s0.3-0.1,0.4,0l5.8,5.9
						c0.1,0.1,0.1,0.3,0,0.4C64.6,109.7,64.5,109.7,64.4,109.7z"/>
					<path class="st9" d="M58.6,109.7c-0.1,0-0.1,0-0.2-0.1s-0.1-0.3,0-0.4l5.8-5.9c0.1-0.1,0.3-0.1,0.4,0s0.1,0.3,0,0.4l-5.8,5.9
						C58.7,109.7,58.7,109.7,58.6,109.7z"/>
					<path class="st9" d="M64.4,115.6c-0.1,0-0.1,0-0.2-0.1l-5.8-5.9c-0.1-0.1-0.1-0.3,0-0.4s0.3-0.1,0.4,0l5.8,5.9
						c0.1,0.1,0.1,0.3,0,0.4C64.6,115.6,64.5,115.6,64.4,115.6z"/>
					<path class="st9" d="M58.6,115.6c-0.1,0-0.1,0-0.2-0.1c-0.1-0.1-0.1-0.3,0-0.4l5.8-5.9c0.1-0.1,0.3-0.1,0.4,0s0.1,0.3,0,0.4
						l-5.8,5.9C58.7,115.6,58.7,115.6,58.6,115.6z"/>
					<path class="st9" d="M64.4,121.5c-0.1,0-0.1,0-0.2-0.1l-5.8-5.9c-0.1-0.1-0.1-0.3,0-0.4s0.3-0.1,0.4,0l5.8,5.9
						c0.1,0.1,0.1,0.3,0,0.4C64.6,121.5,64.5,121.5,64.4,121.5z"/>
					<path class="st9" d="M58.6,121.5c-0.1,0-0.1,0-0.2-0.1s-0.1-0.3,0-0.4l5.8-5.9c0.1-0.1,0.3-0.1,0.4,0s0.1,0.3,0,0.4l-5.8,5.9
						C58.7,121.5,58.7,121.5,58.6,121.5z"/>
					<path class="st9" d="M64.4,127.4c-0.1,0-0.1,0-0.2-0.1l-5.8-5.9c-0.1-0.1-0.1-0.3,0-0.4s0.3-0.1,0.4,0l5.8,5.9
						c0.1,0.1,0.1,0.3,0,0.4C64.6,127.3,64.5,127.4,64.4,127.4z"/>
					<path class="st9" d="M58.6,127.4c-0.1,0-0.1,0-0.2-0.1s-0.1-0.3,0-0.4l5.8-5.9c0.1-0.1,0.3-0.1,0.4,0s0.1,0.3,0,0.4l-5.8,5.9
						C58.7,127.3,58.7,127.4,58.6,127.4z"/>
					<path class="st9" d="M64.4,133.1c-0.1,0-0.1,0-0.2-0.1l-5.8-5.9c-0.1-0.1-0.1-0.3,0-0.4s0.3-0.1,0.4,0l5.8,5.9
						c0.1,0.1,0.1,0.3,0,0.4C64.6,133.1,64.5,133.1,64.4,133.1z"/>
					<path class="st9" d="M58.6,133.1c-0.1,0-0.1,0-0.2-0.1s-0.1-0.3,0-0.4l5.8-5.9c0.1-0.1,0.3-0.1,0.4,0s0.1,0.3,0,0.4l-5.8,5.9
						C58.7,133.1,58.7,133.1,58.6,133.1z"/>
					<path class="st9" d="M64.4,139c-0.1,0-0.1,0-0.2-0.1l-5.8-5.9c-0.1-0.1-0.1-0.3,0-0.4c0.1-0.1,0.3-0.1,0.4,0l5.8,5.9
						c0.1,0.1,0.1,0.3,0,0.4C64.6,139,64.5,139,64.4,139z"/>
					<path class="st9" d="M58.6,139c-0.1,0-0.1,0-0.2-0.1s-0.1-0.3,0-0.4l5.8-5.9c0.1-0.1,0.3-0.1,0.4,0s0.1,0.3,0,0.4l-5.8,5.9
						C58.7,139,58.7,139,58.6,139z"/>
					<path class="st9" d="M64.4,144.9c-0.1,0-0.1,0-0.2-0.1l-5.8-5.9c-0.1-0.1-0.1-0.3,0-0.4c0.1-0.1,0.3-0.1,0.4,0l5.8,5.9
						c0.1,0.1,0.1,0.3,0,0.4C64.6,144.9,64.5,144.9,64.4,144.9z"/>
					<path class="st9" d="M58.6,144.9c-0.1,0-0.1,0-0.2-0.1c-0.1-0.1-0.1-0.3,0-0.4l5.8-5.9c0.1-0.1,0.3-0.1,0.4,0s0.1,0.3,0,0.4
						l-5.8,5.9C58.7,144.9,58.7,144.9,58.6,144.9z"/>
					<path class="st9" d="M64.4,150.8c-0.1,0-0.1,0-0.2-0.1l-5.8-5.9c-0.1-0.1-0.1-0.3,0-0.4c0.1-0.1,0.3-0.1,0.4,0l5.8,5.9
						c0.1,0.1,0.1,0.3,0,0.4C64.6,150.7,64.5,150.8,64.4,150.8z"/>
					<path class="st9" d="M58.6,150.8c-0.1,0-0.1,0-0.2-0.1s-0.1-0.3,0-0.4l5.8-5.9c0.1-0.1,0.3-0.1,0.4,0s0.1,0.3,0,0.4l-5.8,5.9
						C58.7,150.7,58.7,150.8,58.6,150.8z"/>
					<path class="st9" d="M64.4,156.6c-0.1,0-0.1,0-0.2-0.1l-5.8-5.9c-0.1-0.1-0.1-0.3,0-0.4c0.1-0.1,0.3-0.1,0.4,0l5.8,5.9
						c0.1,0.1,0.1,0.3,0,0.4C64.6,156.6,64.5,156.6,64.4,156.6z"/>
					<path class="st9" d="M58.6,156.6c-0.1,0-0.1,0-0.2-0.1c-0.1-0.1-0.1-0.3,0-0.4l5.8-5.9c0.1-0.1,0.3-0.1,0.4,0s0.1,0.3,0,0.4
						l-5.8,5.9C58.7,156.6,58.7,156.6,58.6,156.6z"/>
					<path class="st9" d="M64.4,162.5c-0.1,0-0.1,0-0.2-0.1l-5.8-5.9c-0.1-0.1-0.1-0.3,0-0.4c0.1-0.1,0.3-0.1,0.4,0l5.8,5.9
						c0.1,0.1,0.1,0.3,0,0.4C64.6,162.5,64.5,162.5,64.4,162.5z"/>
					<path class="st9" d="M58.6,162.5c-0.1,0-0.1,0-0.2-0.1s-0.1-0.3,0-0.4l5.8-5.9c0.1-0.1,0.3-0.1,0.4,0s0.1,0.3,0,0.4l-5.8,5.9
						C58.7,162.5,58.7,162.5,58.6,162.5z"/>
					<path class="st9" d="M64.4,168.4c-0.1,0-0.1,0-0.2-0.1l-5.8-5.9c-0.1-0.1-0.1-0.3,0-0.4c0.1-0.1,0.3-0.1,0.4,0l5.8,5.9
						c0.1,0.1,0.1,0.3,0,0.4C64.6,168.4,64.5,168.4,64.4,168.4z"/>
					<path class="st9" d="M58.6,168.4c-0.1,0-0.1,0-0.2-0.1s-0.1-0.3,0-0.4l5.8-5.9c0.1-0.1,0.3-0.1,0.4,0s0.1,0.3,0,0.4l-5.8,5.9
						C58.7,168.4,58.7,168.4,58.6,168.4z"/>
					<path class="st9" d="M64.4,174.2c-0.1,0-0.1,0-0.2-0.1l-5.8-5.9c-0.1-0.1-0.1-0.3,0-0.4c0.1-0.1,0.3-0.1,0.4,0l5.8,5.9
						c0.1,0.1,0.1,0.3,0,0.4C64.6,174.2,64.5,174.2,64.4,174.2z"/>
					<path class="st9" d="M58.6,174.2c-0.1,0-0.1,0-0.2-0.1s-0.1-0.3,0-0.4l5.8-5.9c0.1-0.1,0.3-0.1,0.4,0s0.1,0.3,0,0.4l-5.8,5.9
						C58.7,174.2,58.7,174.2,58.6,174.2z"/>
					<path class="st9" d="M64.4,180.1c-0.1,0-0.1,0-0.2-0.1l-5.8-5.9c-0.1-0.1-0.1-0.3,0-0.4c0.1-0.1,0.3-0.1,0.4,0l5.8,5.9
						c0.1,0.1,0.1,0.3,0,0.4C64.6,180,64.5,180.1,64.4,180.1z"/>
					<path class="st9" d="M58.6,180.1c-0.1,0-0.1,0-0.2-0.1s-0.1-0.3,0-0.4l5.8-5.9c0.1-0.1,0.3-0.1,0.4,0s0.1,0.3,0,0.4l-5.8,5.9
						C58.7,180,58.7,180.1,58.6,180.1z"/>
					<path class="st9" d="M64.4,185.9c-0.1,0-0.1,0-0.2-0.1l-5.8-5.9c-0.1-0.1-0.1-0.3,0-0.4c0.1-0.1,0.3-0.1,0.4,0l5.8,5.9
						c0.1,0.1,0.1,0.3,0,0.4C64.6,185.9,64.5,185.9,64.4,185.9z"/>
					<path class="st9" d="M58.6,185.9c-0.1,0-0.1,0-0.2-0.1s-0.1-0.3,0-0.4l5.8-5.9c0.1-0.1,0.3-0.1,0.4,0s0.1,0.3,0,0.4l-5.8,5.9
						C58.7,185.9,58.7,185.9,58.6,185.9z"/>
					<path class="st9" d="M64.4,191.8c-0.1,0-0.1,0-0.2-0.1l-5.8-5.9c-0.1-0.1-0.1-0.3,0-0.4c0.1-0.1,0.3-0.1,0.4,0l5.8,5.9
						c0.1,0.1,0.1,0.3,0,0.4C64.6,191.8,64.5,191.8,64.4,191.8z"/>
					<path class="st9" d="M58.6,191.8c-0.1,0-0.1,0-0.2-0.1s-0.1-0.3,0-0.4l5.8-5.9c0.1-0.1,0.3-0.1,0.4,0s0.1,0.3,0,0.4l-5.8,5.9
						C58.7,191.8,58.7,191.8,58.6,191.8z"/>
				</g>
				<path class="st12" d="M64.6,191.8h-6.1c-0.1,0-0.3-0.1-0.3-0.3V74.3c0-0.1,0.1-0.3,0.3-0.3h6.1c0.1,0,0.3,0.1,0.3,0.3v117.2
					C64.8,191.7,64.7,191.8,64.6,191.8z M58.7,191.3h5.6V74.6h-5.6C58.7,74.6,58.7,191.3,58.7,191.3z"/>
				<path class="st9" d="M61.5,55.8c-0.1,0-0.3-0.1-0.3-0.3V37.4c0-0.1,0.1-0.3,0.3-0.3c0.1,0,0.3,0.1,0.3,0.3v18.1
					C61.8,55.6,61.7,55.8,61.5,55.8z"/>
				<path class="st9" d="M64.3,53.3h-5.6c-0.1,0-0.3-0.1-0.3-0.3c0-0.1,0.1-0.3,0.3-0.3h5.6c0.1,0,0.3,0.1,0.3,0.3
					C64.6,53.1,64.4,53.3,64.3,53.3z"/>
				<path class="st9" d="M64,50.6h-5c-0.1,0-0.3-0.1-0.3-0.3S58.8,50,59,50h5c0.1,0,0.3,0.1,0.3,0.3S64.2,50.6,64,50.6z"/>
				<path class="st9" d="M63.8,48h-4.4c-0.1,0-0.3-0.1-0.3-0.3s0.1-0.3,0.3-0.3h4.4c0.1,0,0.3,0.1,0.3,0.3S63.9,48,63.8,48z"/>
				<path class="st9" d="M63.4,45.5h-3.9c-0.1,0-0.3-0.1-0.3-0.3c0-0.1,0.1-0.3,0.3-0.3h3.9c0.1,0,0.3,0.1,0.3,0.3
					C63.8,45.4,63.7,45.5,63.4,45.5z"/>
				<path class="st9" d="M63.1,42.9h-3.4c-0.1,0-0.3-0.1-0.3-0.3s0.1-0.3,0.3-0.3h3.4c0.1,0,0.3,0.1,0.3,0.3
					C63.4,42.8,63.3,42.9,63.1,42.9z"/>
				<path class="st9" d="M62.9,40.3h-2.8c-0.1,0-0.3-0.1-0.3-0.3c0-0.1,0.1-0.3,0.3-0.3h2.8c0.1,0,0.3,0.1,0.3,0.3
					C63.1,40.1,63,40.3,62.9,40.3z"/>
				<path class="st12" d="M62.6,37.6h-2.3c-0.1,0-0.3-0.1-0.3-0.3c0-0.1,0.1-0.3,0.3-0.3h2.3c0.1,0,0.3,0.1,0.3,0.3
					C62.9,37.5,62.8,37.6,62.6,37.6z"/>
				<path class="st9" d="M56.4,55.9c-0.1,0-0.3-0.1-0.3-0.3V53c0-0.1,0.1-0.3,0.3-0.3c0.1,0,0.3,0.1,0.3,0.3v2.6
					C56.6,55.8,56.5,55.9,56.4,55.9z"/>
				<path class="st9" d="M54.4,55.9c-0.1,0-0.3-0.1-0.3-0.3V53c0-0.1,0.1-0.3,0.3-0.3c0.1,0,0.3,0.1,0.3,0.3v2.6
					C54.6,55.8,54.5,55.9,54.4,55.9z"/>
				<path class="st9" d="M52.3,55.9c-0.1,0-0.3-0.1-0.3-0.3V53c0-0.1,0.1-0.3,0.3-0.3c0.1,0,0.3,0.1,0.3,0.3v2.6
					C52.5,55.8,52.4,55.9,52.3,55.9z"/>
				<path class="st9" d="M50.2,55.9c-0.1,0-0.3-0.1-0.3-0.3V53c0-0.1,0.1-0.3,0.3-0.3c0.1,0,0.3,0.1,0.3,0.3v2.6
					C50.4,55.8,50.3,55.9,50.2,55.9z"/>
				<path class="st9" d="M48.2,55.9c-0.1,0-0.3-0.1-0.3-0.3V53c0-0.1,0.1-0.3,0.3-0.3c0.1,0,0.3,0.1,0.3,0.3v2.6
					C48.4,55.8,48.3,55.9,48.2,55.9z"/>
				<path class="st9" d="M46.1,55.9c-0.1,0-0.3-0.1-0.3-0.3V53c0-0.1,0.1-0.3,0.3-0.3s0.3,0.1,0.3,0.3v2.6
					C46.3,55.8,46.2,55.9,46.1,55.9z"/>
				<path class="st9" d="M44,55.9c-0.1,0-0.3-0.1-0.3-0.3V53c0-0.1,0.1-0.3,0.3-0.3s0.3,0.1,0.3,0.3v2.6
					C44.2,55.8,44.1,55.9,44,55.9z"/>
				<path class="st9" d="M42,55.9c-0.1,0-0.3-0.1-0.3-0.3V53c0-0.1,0.1-0.3,0.3-0.3c0.1,0,0.3,0.1,0.3,0.3v2.6
					C42.2,55.8,42.1,55.9,42,55.9z"/>
				<path class="st9" d="M39.9,55.9c-0.1,0-0.3-0.1-0.3-0.3V53c0-0.1,0.1-0.3,0.3-0.3s0.3,0.1,0.3,0.3v2.6
					C40.1,55.8,40,55.9,39.9,55.9z"/>
				<path class="st9" d="M37.8,55.9c-0.1,0-0.3-0.1-0.3-0.3V53c0-0.1,0.1-0.3,0.3-0.3s0.3,0.1,0.3,0.3v2.6
					C38,55.8,37.9,55.9,37.8,55.9z"/>
				<path class="st12" d="M35.8,55.9c-0.1,0-0.3-0.1-0.3-0.3V53c0-0.1,0.1-0.3,0.3-0.3c0.1,0,0.3,0.1,0.3,0.3v2.6
					C36,55.8,35.9,55.9,35.8,55.9z"/>
				<path class="st12" d="M35.8,53.3c-0.1,0-0.2,0-0.2-0.1c-0.1-0.1,0-0.3,0.1-0.4l24.6-15.5c0.1-0.1,0.3,0,0.4,0.1
					c0.1,0.1,0,0.3-0.1,0.4L36,53.3C35.9,53.3,35.8,53.3,35.8,53.3z"/>
				<path class="st12" d="M42,53.3c-0.1,0-0.1,0-0.2-0.1c-0.1-0.1-0.1-0.3,0-0.4l18.4-15.5c0.1-0.1,0.3-0.1,0.4,0
					c0.1,0.1,0.1,0.3,0,0.4L42.2,53.2C42.1,53.2,42,53.3,42,53.3z"/>
				<path class="st12" d="M108.5,51C108.4,51,108.4,50.9,108.5,51L62.6,37.7c-0.1,0-0.2-0.2-0.2-0.3s0.2-0.2,0.3-0.2l45.7,13.2
					c0.1,0,0.2,0.2,0.2,0.3C108.7,50.9,108.6,51,108.5,51z"/>
				<path class="st9" d="M74.3,55.9c-0.1,0-0.1,0-0.2-0.1l-4.9-4.9c-0.1-0.1-0.1-0.3,0-0.4c0.1-0.1,0.3-0.1,0.4,0l4.9,4.9
					c0.1,0.1,0.1,0.3,0,0.4C74.4,55.8,74.4,55.9,74.3,55.9z"/>
				<path class="st9" d="M84,55.9c-0.1,0-0.1,0-0.2-0.1l-4.6-4.6l-4.6,4.6c-0.1,0.1-0.3,0.1-0.4,0s-0.1-0.3,0-0.4l4.9-4.9
					c0.1-0.1,0.3-0.1,0.4,0l4.9,4.9c0.1,0.1,0.1,0.3,0,0.4C84.2,55.8,84.1,55.9,84,55.9z"/>
				<path class="st9" d="M93.8,55.9c-0.1,0-0.1,0-0.2-0.1L89,51.1l-4.6,4.6c-0.1,0.1-0.3,0.1-0.4,0s-0.1-0.3,0-0.4l4.9-4.9
					c0.1-0.1,0.3-0.1,0.4,0l4.9,4.9c0.1,0.1,0.1,0.3,0,0.4C93.9,55.8,93.9,55.9,93.8,55.9z"/>
				<path class="st9" d="M103.5,55.9c-0.1,0-0.1,0-0.2-0.1l-4.6-4.6L94,55.8c-0.1,0.1-0.3,0.1-0.4,0s-0.1-0.3,0-0.4l4.9-4.9
					c0.1-0.1,0.3-0.1,0.4,0l4.9,4.9c0.1,0.1,0.1,0.3,0,0.4C103.7,55.8,103.6,55.9,103.5,55.9z"/>
				<path class="st9" d="M113.3,55.9c-0.1,0-0.1,0-0.2-0.1l-4.6-4.6l-4.6,4.6c-0.1,0.1-0.3,0.1-0.4,0s-0.1-0.3,0-0.4l4.9-4.9
					c0.1-0.1,0.3-0.1,0.4,0l4.9,4.9c0.1,0.1,0.1,0.3,0,0.4C113.4,55.8,113.3,55.9,113.3,55.9z"/>
				<path class="st9" d="M113.3,55.9c-0.1,0-0.1,0-0.2-0.1s-0.1-0.3,0-0.4l4.9-4.9c0.1-0.1,0.3-0.1,0.4,0s0.1,0.3,0,0.4l-4.9,4.9
					C113.4,55.8,113.3,55.9,113.3,55.9z"/>
				<path class="st12" d="M118.2,51H69.4c-0.1,0-0.3-0.1-0.3-0.3c0-0.1,0.1-0.3,0.3-0.3h48.7c0.1,0,0.3,0.1,0.3,0.3
					C118.5,50.8,118.3,51,118.2,51z"/>
				<path class="st12" d="M58.5,53.3H35.8c-0.1,0-0.3-0.1-0.3-0.3c0-0.1,0.1-0.3,0.3-0.3h22.7c0.1,0,0.3,0.1,0.3,0.3
					C58.7,53.2,58.6,53.3,58.5,53.3z"/>
				<path class="st12" d="M58.5,55.9H35.8c-0.1,0-0.3-0.1-0.3-0.3c0-0.1,0.1-0.3,0.3-0.3h22.7c0.1,0,0.3,0.1,0.3,0.3
					C58.7,55.8,58.6,55.9,58.5,55.9z"/>
				<path class="st12" d="M123,55.9H53.8c-0.1,0-0.3-0.1-0.3-0.3c0-0.1,0.1-0.3,0.3-0.3H123c0.1,0,0.3,0.1,0.3,0.3
					C123.3,55.8,123.2,55.9,123,55.9z"/>
				<path class="st12" d="M64.5,55.9c-0.1,0-0.2-0.1-0.3-0.2l-1.8-18.3c0-0.1,0.1-0.3,0.2-0.3s0.3,0.1,0.3,0.2l1.9,18.2
					C64.8,55.7,64.7,55.9,64.5,55.9C64.6,55.9,64.6,55.9,64.5,55.9z"/>
				<path class="st12" d="M58.5,55.9L58.5,55.9c-0.2,0-0.3-0.1-0.3-0.3L60,37.4c0-0.1,0.1-0.2,0.3-0.2c0.1,0,0.2,0.1,0.2,0.3
					l-1.9,18.2C58.7,55.8,58.6,55.9,58.5,55.9z"/>
				<path class="st12" d="M123,55.9c-0.1,0-0.1,0-0.2-0.1l-4.9-4.9c-0.1-0.1-0.1-0.3,0-0.4c0.1-0.1,0.3-0.1,0.4,0l4.9,4.9
					c0.1,0.1,0.1,0.3,0,0.4C123.2,55.8,123.1,55.9,123,55.9z"/>
				<path class="st12" d="M64.6,55.9c-0.1,0-0.1,0-0.2-0.1s-0.1-0.3,0-0.4l4.9-4.9c0.1-0.1,0.3-0.1,0.4,0s0.1,0.3,0,0.4l-4.9,4.9
					C64.7,55.8,64.6,55.9,64.6,55.9z"/>
				<path class="st12" d="M64.1,67.3h-5.2c-1.9,0-3.3-1.4-3.3-3.3v-5.2c0-1.9,1.4-3.3,3.3-3.3l0,0c4.6,0,8.4,3.7,8.4,8.4l0,0
					C67.4,65.8,65.9,67.3,64.1,67.3z"/>
				<path class="st14" d="M66.2,60.1c0-1.9-1.5-3.4-3.4-3.4h-5.5c-0.4,0-0.7,0.3-0.7,0.7v5h9.5v-2.3H66.2z"/>
				<rect x="56" y="70.9" class="st9" width="10.8" height="3.2"/>
				<rect x="58.6" y="67.3" class="st9" width="5.8" height="1.8"/>
				<rect x="58.6" y="67.3" class="st9" width="5.8" height="1.8"/>
				<polygon class="st12" points="67,70.9 56,70.9 58.6,69.1 64.4,69.1 				"/>
				<g>
					<path class="st12" d="M102.4,119.8C102.3,119.8,102.3,119.7,102.4,119.8L102.3,57c0-0.1,0.1-0.1,0.1-0.1c0.1,0,0.1,0.1,0.1,0.1
						v62.6C102.6,119.7,102.5,119.8,102.4,119.8z"/>
					<path class="st12" d="M105.2,119.8C105.1,119.8,105.1,119.7,105.2,119.8L105.1,57c0-0.1,0.1-0.1,0.1-0.1c0.1,0,0.1,0.1,0.1,0.1
						v62.6C105.3,119.7,105.2,119.8,105.2,119.8z"/>
					<path class="st12" d="M107.5,57H100c-0.8,0-1.4-0.6-1.4-1.4l0,0c0-0.8,0.6-1.4,1.4-1.4h7.5c0.8,0,1.4,0.6,1.4,1.4l0,0
						C109,56.4,108.4,57,107.5,57z"/>
					<path class="st3" d="M103.8,129c-0.8,0-1.5-0.7-1.5-1.5c0-0.6,0.3-1.1,0.8-1.3c0.2-0.1,0.3-0.3,0.3-0.5s0.2-0.4,0.4-0.4
						s0.4,0.2,0.4,0.4c0,0.5-0.3,1-0.7,1.2c-0.2,0.1-0.4,0.4-0.4,0.6c0,0.4,0.3,0.7,0.7,0.7c0.4,0,0.7-0.3,0.7-0.7
						c0-0.2,0.2-0.4,0.4-0.4c0.2,0,0.4,0.2,0.4,0.4C105.4,128.4,104.6,129,103.8,129z"/>
					<path class="st9" d="M107.7,133.1L107.7,133.1l-3.9-4.9l-3.8,4.9c0,0.1-0.1,0.1-0.2,0c-0.1,0-0.1-0.1,0-0.2l3.9-5
						c0-0.1,0.2-0.1,0.2,0l3.9,5C107.8,132.9,107.8,133,107.7,133.1L107.7,133.1z"/>
					<path class="st3" d="M104.9,125.6h-2.1c-0.5,0-0.9-0.3-1-0.8l-0.7-3.9c-0.1-0.6,0.3-1.1,1-1.1h3.5c0.6,0,1.1,0.5,1,1.1
						l-0.7,3.9C105.7,125.3,105.3,125.6,104.9,125.6z"/>
					<path class="st7" d="M113,147.6H94.5c-1.7,0-3-1.3-3-3v-8.7c0-1.7,1.3-3,3-3H113c1.7,0,3,1.3,3,3v8.7
						C116,146.3,114.7,147.6,113,147.6z"/>
					<path class="st2" d="M99.2,136.9h-3.5c-0.9,0-1.7,0.7-1.7,1.7v3.5c0,0.9,0.7,1.7,1.7,1.7h3.5c0.9,0,1.7-0.7,1.7-1.7v-3.5
						C100.8,137.6,100.1,136.9,99.2,136.9z M102.5,137.9h10.8c0.1,0,0.3-0.1,0.3-0.3c0-0.1-0.1-0.3-0.3-0.3h-10.8
						c-0.1,0-0.3,0.1-0.3,0.3S102.3,137.9,102.5,137.9z M107.8,141.1h-5.4c-0.1,0-0.3,0.1-0.3,0.3c0,0.1,0.1,0.3,0.3,0.3h5.4
						c0.1,0,0.3-0.1,0.3-0.3C108.1,141.2,108,141.1,107.8,141.1z M113.3,139.2h-10.8c-0.1,0-0.3,0.1-0.3,0.3c0,0.1,0.1,0.3,0.3,0.3
						h10.8c0.1,0,0.3-0.1,0.3-0.3C113.5,139.3,113.4,139.2,113.3,139.2z"/>
				</g>
				<path class="st12" d="M46.6,64.1h-9.5c-0.9,0-1.7-0.7-1.7-1.7v-4.3c0-0.9,0.7-1.7,1.7-1.7h9.5c0.9,0,1.7,0.7,1.7,1.7v4.3
					C48.3,63.3,47.5,64.1,46.6,64.1z"/>
			</g>
			<g>
				<g>
					<path class="st15" d="M150.3,184.4c0,1.1,0,2.3,0.1,3.4c0,0.5,0,1.1,0.1,1.7l0.1,1.7v0.1l0,0l-0.3,2.1
						c-0.1,0.7-0.2,1.3-0.3,2.1c-0.2,1.3-0.3,2.7-0.5,4c0,0.2-0.2,0.4-0.4,0.4s-0.4-0.2-0.4-0.4c0-1.3,0.1-2.7,0.1-4.1
						c0-0.7,0-1.3,0-2.1v-2.1v0.2l-0.3-1.7c-0.1-0.5-0.2-1.1-0.3-1.7c-0.2-1.1-0.5-2.2-0.7-3.3c-0.2-0.8,0.3-1.7,1.1-1.9
						s1.7,0.3,1.9,1.1C150.3,184.2,150.3,184.3,150.3,184.4z"/>
					<path class="st15" d="M147.9,184.7c-0.2,1.2-0.3,2.5-0.5,3.8c-0.1,1.2-0.3,2.5-0.3,3.8c-0.1,1.2-0.1,2.5-0.2,3.8
						c-0.1,1.2-0.1,2.5-0.1,3.8c0,0.2-0.2,0.4-0.4,0.4s-0.4-0.2-0.4-0.4c-0.1-1.2-0.1-2.5-0.2-3.8c-0.1-1.2-0.2-2.6-0.2-3.8
						l-0.3-3.8c-0.1-1.2-0.2-2.6-0.3-3.8c-0.1-0.8,0.5-1.5,1.3-1.7c0.8-0.1,1.5,0.5,1.7,1.3C147.9,184.4,147.9,184.6,147.9,184.7z"
						/>
					<path class="st16" d="M150.6,189.8h-5.7c-0.8-3.9-0.6-7,0.6-9.4h3.9C150.3,182.8,150.8,185.8,150.6,189.8z"/>
					<path class="st17" d="M148.7,201.3h0.3l0.1-1.3l0.6,1.3h1.9V201c0-0.6-0.8-0.7-1.4-0.7l-1.4-1.8
						C148.1,199.3,148.7,200.2,148.7,201.3z"/>
					<path class="st17" d="M145.9,201.3h1.5c0,0,0.2-0.4,0-0.9c-0.4,0-0.4-1.1-0.6-1.8h-0.9C145.6,199.5,145.6,200.4,145.9,201.3z"
						/>
					<polygon class="st15" points="148.7,198.6 149.3,198.3 150.1,200.4 					"/>
					<path class="st15" d="M146,198.6l0.1,1.8h0.8l-0.1-1.8C146.8,198.5,146,198.5,146,198.6z"/>
					<path class="st1" d="M153.1,172.3c-0.1-0.4-0.5-0.6-0.9-0.5c-0.7,0.2-1.5,0.4-2.2,0.6l-1.4,0.4c-0.5,0.1-0.9,0.3-1.4,0.4
						c-0.3,0.1-0.6,0.5-0.5,0.8c0.1,0.4,0.5,0.7,0.9,0.6c0.5-0.1,1-0.2,1.4-0.4l1.4-0.4c0.7-0.2,1.4-0.4,2.2-0.6
						C153,173.1,153.2,172.7,153.1,172.3L153.1,172.3z"/>
					<path class="st1" d="M156,166.6c-0.2-0.1-0.4,0-0.5,0.1c-0.3,0.5-0.7,1-1,1.4l-1,1.5c-0.4,0.6-1.1,1.8-1.5,2.4
						c-0.2,0.3-0.1,0.8,0.2,1l0,0c0.3,0.2,0.8,0.1,1-0.2c0.4-0.7,1-1.9,1.4-2.5l0.8-1.5c0.3-0.5,0.5-1,0.8-1.7
						C156.3,166.9,156.2,166.7,156,166.6z"/>
					<path class="st15" d="M155,166.6l0.5-0.7c0.1-0.1,0.1-0.1,0.3-0.2l0.6-0.1c0.3-0.1,0.6,0.2,0.5,0.5l-0.4,1.2
						c-0.2,0.5-0.8,0.7-1.2,0.4l0,0C154.9,167.5,154.8,167,155,166.6z"/>
					<path class="st1" d="M149.5,180.5l0.6-7.3c0-0.5-0.4-0.8-0.9-0.8h-3.9c-0.5,0-0.9,0.4-0.9,0.8l1.2,7.3H149.5z"/>
					<path class="st2" d="M173.7,168l-16.1,16.1c-0.7,0.7-1.8,0.7-2.5,0l-6.6-6.6c-0.7-0.7-0.7-1.8,0-2.5l16.1-16.1
						c0.7-0.7,1.8-0.7,2.5,0l6.6,6.6C174.4,166.3,174.4,167.4,173.7,168z"/>
					<path class="st9" d="M157.4,178.2L157.4,178.2c-1.3,1.3-3.5,1.3-4.8,0l0,0c-1.3-1.3-1.3-3.5,0-4.8l0,0c1.3-1.3,3.5-1.3,4.8,0
						l0,0C158.8,174.8,158.8,176.9,157.4,178.2z"/>
					<path class="st8" d="M157.3,170.4c-0.1,0-0.1,0-0.2-0.1c-0.1-0.1-0.1-0.3,0-0.4l8.7-8.7c0.1-0.1,0.3-0.1,0.4,0
						c0.1,0.1,0.1,0.3,0,0.4l-8.7,8.7C157.4,170.4,157.3,170.4,157.3,170.4z"/>
					<path class="st8" d="M158.2,171.5c-0.1,0-0.1,0-0.2-0.1c-0.1-0.1-0.1-0.3,0-0.4l8.7-8.7c0.1-0.1,0.3-0.1,0.4,0
						c0.1,0.1,0.1,0.3,0,0.4l-8.7,8.7C158.4,171.5,158.3,171.5,158.2,171.5z"/>
					<path class="st8" d="M159.3,172.5c-0.1,0-0.1,0-0.2-0.1c-0.1-0.1-0.1-0.3,0-0.4l8.7-8.7c0.1-0.1,0.3-0.1,0.4,0
						c0.1,0.1,0.1,0.3,0,0.4l-8.7,8.7C159.5,172.5,159.4,172.5,159.3,172.5z"/>
					<path class="st8" d="M160.3,173.5c-0.1,0-0.1,0-0.2-0.1c-0.1-0.1-0.1-0.3,0-0.4l8.7-8.7c0.1-0.1,0.3-0.1,0.4,0
						c0.1,0.1,0.1,0.3,0,0.4l-8.7,8.7C160.5,173.5,160.4,173.5,160.3,173.5z"/>
					<path class="st8" d="M161.3,174.6c-0.1,0-0.1,0-0.2-0.1c-0.1-0.1-0.1-0.3,0-0.4l8.7-8.7c0.1-0.1,0.3-0.1,0.4,0
						c0.1,0.1,0.1,0.3,0,0.4l-8.7,8.7C161.5,174.6,161.4,174.6,161.3,174.6z"/>
					<path class="st8" d="M162.4,175.6c-0.1,0-0.1,0-0.2-0.1c-0.1-0.1-0.1-0.3,0-0.4l8.7-8.7c0.1-0.1,0.3-0.1,0.4,0
						c0.1,0.1,0.1,0.3,0,0.4l-8.7,8.7C162.6,175.6,162.5,175.6,162.4,175.6z"/>
					<path class="st2" d="M147.2,173.6h1.7c0.2,0,0.4-0.1,0.4-0.3v-0.8v-0.1h-3.4c0,0,0,0.1,0.1,0.1l0.6,0.8
						C146.6,173.5,146.9,173.6,147.2,173.6z"/>
					<path class="st1" d="M145.6,173.2l1.7,5.6l-0.7-0.5l4.3,0.1c0.2,0,0.4,0.2,0.4,0.4s-0.1,0.4-0.3,0.4l-4.3,0.6
						c-0.3,0-0.6-0.2-0.7-0.5v-0.1l-1.7-5.6c-0.1-0.4,0.1-0.8,0.5-0.9C145.1,172.6,145.5,172.8,145.6,173.2z"/>
					<path class="st18" d="M147.8,167.3v4.5h2.8c-1.7-1.7,0.3-4.1-1.7-5.7L147.8,167.3z"/>
					<path class="st15" d="M151.2,179.1l0.7-0.4c0.1-0.1,0.1-0.1,0.2-0.2l0.1-0.6c0.1-0.3-0.2-0.5-0.5-0.5l-1.1,0.3
						c-0.5,0.1-0.7,0.7-0.4,1.2l0,0C150.3,179.3,150.8,179.4,151.2,179.1z"/>
					<polygon class="st15" points="146.9,172.4 148,172.4 148,170.7 146.7,170.6 					"/>
					<path class="st15" d="M149.2,167.6c0-0.7-0.5-1.1-1.5-1.1s-1.5,0.4-1.5,1.1c0,0.5-0.1,1.7-0.1,2.2c0,0.6,0.2,1,0.7,1.4
						c0.3,0.2,0.6,0.3,0.9,0.4c0.3,0,0.6-0.1,0.9-0.4c0.4-0.4,0.6-0.8,0.7-1.4C149.3,169.2,149.2,168.1,149.2,167.6z"/>
					<path class="st18" d="M146.8,165.5c0.4-0.1,1.4-0.1,1.9,0.2c0.9,0.6,1,2-1.8,2c-0.3,0.3-0.5,1.1-0.5,1.9H146
						c-0.2-0.8-0.3-2-0.2-2.9C146,166,146.3,165.6,146.8,165.5z"/>
					<path class="st18" d="M145,171.9h2.4c-2.3-2.1,1.1-6.2-0.8-6.2C144.8,165.7,144.1,169.2,145,171.9z"/>
					<path class="st15" d="M145.6,168.7c-0.1,0-0.2,0.3-0.1,0.6c0,0.1,0.1,0.3,0.2,0.4l0.2-0.8C145.9,168.8,145.7,168.7,145.6,168.7
						z"/>
					<path class="st19" d="M147.4,168.8h-0.5c0,0-0.1,0-0.1-0.1s0-0.1,0.1-0.1h0.5C147.4,168.6,147.5,168.7,147.4,168.8
						C147.5,168.8,147.4,168.8,147.4,168.8z"/>
					<path class="st19" d="M148.9,168.8h-0.5c0,0-0.1,0-0.1-0.1s0-0.1,0.1-0.1h0.5C149.1,168.6,149.1,168.7,148.9,168.8
						C149.1,168.8,149.1,168.8,148.9,168.8z"/>
					<ellipse class="st19" cx="147.2" cy="169.2" rx="0.1" ry="0.3"/>
					<path class="st19" d="M148.6,168.9c-0.1,0-0.1,0.1-0.1,0.3c0,0.1,0.1,0.3,0.1,0.3c0.1,0,0.1-0.1,0.1-0.3
						C148.8,169,148.7,168.9,148.6,168.9z"/>
					<path class="st20" d="M148.1,169.2c0,0.2,0.1,0.5,0.2,0.6v0.1l0,0l0,0H148c-0.1,0-0.2,0-0.2-0.1s0-0.2,0.1-0.2l0,0h0.3
						l-0.1,0.1C148,169.7,148.1,169.5,148.1,169.2z"/>
					<path class="st2" d="M148.4,170.4c-0.2,0.4-0.9,0.4-1.1,0H148.4z"/>
					<path class="st18" d="M147.2,168c0.8-0.3,1.4-0.7,1.7-1.3l0.3,0.2C148.8,167.6,148.1,167.9,147.2,168z"/>
				</g>
				<g>
					<path class="st21" d="M174.2,102.4h-3.7c-0.4,0-0.7-0.3-0.7-0.7v-2.4h5.2v2.4C175,102.1,174.6,102.4,174.2,102.4z"/>
					<path class="st21" d="M164.5,109.8c-0.1,0.1-0.2,0.2-0.3,0.3c-0.5,0.2-1.1,0.2-1.2,0.6v0.3h2.8l-0.1-0.9L164.5,109.8z"/>
					<path class="st15" d="M165.8,109.5h-0.9c0,0-0.1,0.2-0.3,0.4c0.5,0.6,0.9,0.6,1.2,0.2V109.5z"/>
					<path class="st21" d="M170.8,109.9l-0.1,0.2c-0.3,0.2-0.6,0.4-0.6,0.6v0.3h2v-1.1H170.8z"/>
					<path class="st21" d="M171,99.8l-4.9,1.1H166c-0.4,0.1-0.6,0.4-0.6,0.7l-0.7,7.8l1.1,0.2l1.4-7.7l-0.7,0.8l5-0.4L171,99.8z"/>
					<path class="st15" d="M172,109.5h-1l-0.3,0.5c1-0.2,1,0.8,1.2,0v-0.5H172z"/>
					<path class="st21" d="M173,99.9l-1.8,1.1l-0.2,0.1c-0.2,0.2-0.4,0.4-0.4,0.7l0.3,7.7h1.1l0.4-7.7l-0.6,0.8l2.1-0.4L173,99.9z"
						/>
					<polygon class="st2" points="170.1,110.8 170.1,111 172.1,111 172.1,110.8 					"/>
					<polygon class="st2" points="163.1,110.8 163,111 165.9,111 165.9,110.8 					"/>
					<g>
						<path class="st1" d="M162.4,97.4l4-2c0.7-0.3,1.4,0.9,0.7,1.2l-4.4,1.4c-0.2,0.1-0.4,0-0.5-0.2
							C162.2,97.7,162.3,97.5,162.4,97.4z"/>
						<path class="st1" d="M166.2,95.6l3.4-5.2c0.2-0.3,0.6-0.4,1-0.2c0.3,0.2,0.4,0.6,0.2,1l-3.7,5.5
							C166.8,97.1,165.6,96.6,166.2,95.6z"/>
					</g>
					<path class="st7" d="M160.5,97.6L160.5,97.6c-3.5,0-6.4-2.9-6.4-6.4l0,0c0-3.5,2.9-6.4,6.4-6.4l0,0c3.5,0,6.4,2.9,6.4,6.4l0,0
						C166.9,94.7,164,97.6,160.5,97.6z"/>
					<path class="st15" d="M162.3,98.2l-0.7-0.1c-0.1,0-0.2-0.1-0.2-0.1l-0.4-0.5c-0.2-0.2-0.1-0.6,0.2-0.6l1.1-0.2
						c0.5-0.1,0.9,0.4,0.8,0.9l0,0C163,97.9,162.7,98.2,162.3,98.2z"/>
					<g>
						<path class="st1" d="M169.7,98.5l-0.1-7.7c0-0.6,0.5-1.1,1.1-1.1h4.3c0.6,0,1,0.5,1,1.1l-1.3,7.6l0.2,1.4l-5.5-0.5L169.7,98.5
							z"/>
						<path class="st2" d="M171.8,89.8h2.3c-0.9,2.1-1,5.6-0.8,10l-2.7-0.2C171,94.6,169.7,90.9,171.8,89.8z"/>
						<path class="st15" d="M173.7,89.8c0,0.5-0.5,1-1,1s-1-0.4-1-1H173.7z"/>
					</g>
					<g>
						<path class="st1" d="M174.8,90.4l-2.9,6l0.7-0.4l-4.6-0.1c-0.2,0-0.4,0.2-0.4,0.4s0.1,0.3,0.3,0.4l4.5,0.7
							c0.3,0,0.5-0.1,0.7-0.3l0,0l2.9-6c0.2-0.3,0-0.8-0.3-0.9C175.4,89.9,175,90,174.8,90.4z"/>
						<path class="st15" d="M167.5,97.2l-0.7-0.1c-0.1,0-0.2-0.1-0.2-0.1l-0.4-0.5c-0.2-0.2-0.1-0.6,0.2-0.6l1.1-0.2
							c0.5-0.1,0.9,0.4,0.8,0.9l0,0C168.3,96.9,167.9,97.2,167.5,97.2z"/>
					</g>
					<polygon class="st15" points="173.5,89.8 172.2,89.8 172.3,88.5 173.4,88.3 					"/>
					<g>
						<path class="st1" d="M171.3,85.1c-0.1,0.2,0,2.2,0,2.2h-0.4c-0.2-0.8-0.6-2.2-0.3-2.8c0.2-0.4,1.2-0.5,1.2-0.5L171.3,85.1z"/>
						<path class="st15" d="M170.7,85.4c0-0.7,0.5-1.1,1.5-1.1s1.5,0.4,1.5,1.1c0,0.6,0.1,1.7,0.1,2.2c0,0.6-0.2,1-0.7,1.4
							c-0.3,0.2-0.6,0.4-0.9,0.4c-0.3,0-0.6-0.1-0.9-0.4c-0.4-0.4-0.7-0.8-0.7-1.4C170.6,87.1,170.7,85.9,170.7,85.4z"/>
						<path class="st1" d="M173.6,85C173.6,85.1,173.6,85.1,173.6,85c0.1,0.2,0,2.2,0,2.2h0.4c0.2-0.6,0.3-1.7,0.2-2.5L173.6,85z"/>
						<path class="st2" d="M172.6,87.9c0,0.6-1,0.6-1,0C171.9,88,172.2,88,172.6,87.9z"/>
						<path class="st15" d="M174.5,87.1c-0.1,0.3-0.3,0.6-0.4,0.6c-0.1,0-0.2-0.3-0.1-0.6c0.1-0.3,0.3-0.6,0.4-0.6
							S174.6,86.8,174.5,87.1z"/>
						<path class="st19" d="M172.7,86.8c0,0.2,0.1,0.3,0.1,0.3c0.1,0,0.1-0.1,0.1-0.3c0-0.2-0.1-0.3-0.1-0.3S172.7,86.6,172.7,86.8z
							"/>
						<path class="st19" d="M171.2,86.8c0,0.2,0.1,0.3,0.1,0.3c0.1,0,0.1-0.1,0.1-0.3c0-0.2-0.1-0.3-0.1-0.3S171.2,86.6,171.2,86.8z
							"/>
						<path class="st20" d="M172,86.6l-0.2,0.9c0,0,0,0.1,0.1,0.1l0,0l0,0h0.4c0.1,0,0.1,0,0.2-0.1c0-0.1,0-0.1-0.1-0.2l0,0H172
							l0.1,0.1L172,86.6z"/>
						<path class="st1" d="M173.6,85.1h-2.9c-0.2-1.9,3.5-2.6,3.6-0.3L173.6,85.1z"/>
						<path class="st20" d="M172.5,86.5h0.1c0.2-0.1,0.4-0.1,0.6,0h0.1v-0.1C173.1,86.2,172.8,86.2,172.5,86.5
							C172.4,86.3,172.4,86.4,172.5,86.5z M170.8,86.5h0.1c0.2-0.1,0.4-0.1,0.6,0h0.1v-0.1C171.4,86.2,171.1,86.2,170.8,86.5
							C170.8,86.3,170.8,86.4,170.8,86.5z"/>
					</g>
					<g>
						<path class="st2" d="M163.3,94.3h-1.8c-0.5,0-0.9-0.1-1.3-0.3c-0.1,0-0.2-0.1-0.3-0.1c-0.2-0.1-0.4-0.2-0.6-0.2
							c0,0.2-0.2,0.3-0.4,0.3h-1.4c-0.2,0-0.4-0.2-0.4-0.4v-3.5c0-0.2,0.2-0.4,0.4-0.4h1.5c0.6-0.7,1.2-1.7,1.8-2.7
							c0-0.1,0.1-0.2,0.2-0.2c0.1,0,0.2,0,0.3,0c0.4,0.2,0.6,0.6,0.7,1c0.1,0.5,0,1.1-0.4,2h2.3h0.1c0.2,0,0.3,0.1,0.5,0.3
							c0.1,0.2,0.2,0.4,0.2,0.6s-0.1,0.3-0.2,0.5c0.1,0.1,0.1,0.3,0.1,0.5s-0.1,0.3-0.2,0.5c0.1,0.1,0.1,0.3,0.1,0.5
							s-0.1,0.3-0.2,0.5c0.1,0.1,0.1,0.3,0.1,0.5c-0.1,0.4-0.4,0.7-0.7,0.8C163.4,94.3,163.4,94.3,163.3,94.3z M158.9,93.2l0.2,0.2
							c0.1,0.1,0.5,0.2,0.8,0.3c0.1,0,0.3,0.1,0.4,0.1c0.4,0.2,0.8,0.2,1.2,0.2h1.8l0,0c0.3-0.1,0.5-0.3,0.6-0.6
							c0-0.1,0-0.3-0.1-0.4l-0.1-0.1l0.1-0.1c0.1-0.1,0.2-0.2,0.2-0.4c0-0.1,0-0.3-0.1-0.4l-0.1-0.1l0.1-0.1
							c0.1-0.1,0.2-0.2,0.2-0.4c0-0.1,0-0.3-0.1-0.4l-0.1-0.1l0.1-0.1c0.1-0.1,0.2-0.2,0.2-0.4c0-0.2,0-0.3-0.1-0.4l0,0
							c-0.1-0.1-0.2-0.2-0.3-0.2c0,0,0,0-0.1,0H161l0.1-0.2c0.4-0.8,0.6-1.4,0.5-2c-0.1-0.3-0.3-0.6-0.6-0.8h-0.1c0,0-0.1,0-0.1,0.1
							c-0.6,1.1-1.1,2.1-1.9,2.8l0,0h-1.5c-0.1,0-0.1,0.1-0.1,0.1v3.5c0,0.1,0.1,0.1,0.1,0.1h1.3C158.9,93.3,158.9,93.2,158.9,93.2
							L158.9,93.2L158.9,93.2z"/>
						<rect x="158.9" y="89.9" class="st2" width="0.3" height="3.6"/>
					</g>
				</g>
				<g>
					<g>
						<g>
							<path class="st2" d="M179.7,201.3c-0.1,0-0.1-0.1-0.1-0.1v-29.5c0-0.1,0.1-0.1,0.1-0.1c0.1,0,0.1,0.1,0.1,0.1v29.5
								C179.8,201.3,179.8,201.3,179.7,201.3z"/>
							<g>
								<path class="st2" d="M192,201.3c-0.1,0-0.1,0-0.1-0.1l-5.8-29.6c0-0.1,0-0.1,0.1-0.2c0.1,0,0.1,0,0.2,0.1l5.8,29.6
									C192.2,201.3,192.1,201.3,192,201.3L192,201.3z"/>
								<path class="st2" d="M185.5,201.3c-0.1,0-0.1,0-0.1-0.1l-5.8-29.6c0-0.1,0-0.1,0.1-0.2c0.1,0,0.1,0,0.2,0.1l5.8,29.6
									C185.7,201.3,185.6,201.3,185.5,201.3L185.5,201.3z"/>
							</g>
							<path class="st2" d="M186.3,171.7h-6.5c-0.1,0-0.1-0.1-0.1-0.1c0-0.1,0.1-0.1,0.1-0.1h6.5c0.1,0,0.1,0.1,0.1,0.1
								C186.4,171.7,186.3,171.7,186.3,171.7z"/>
							<path class="st2" d="M187.2,175.9h-6.5c-0.1,0-0.1-0.1-0.1-0.1c0-0.1,0.1-0.1,0.1-0.1h6.5c0.1,0,0.1,0.1,0.1,0.1
								C187.3,175.9,187.2,175.9,187.2,175.9z"/>
							<path class="st2" d="M187.9,180.1h-6.5c-0.1,0-0.1-0.1-0.1-0.1c0-0.1,0.1-0.1,0.1-0.1h6.5c0.1,0,0.1,0.1,0.1,0.1
								C188.1,180.1,188,180.1,187.9,180.1z"/>
							<path class="st2" d="M188.7,184.4h-6.5c-0.1,0-0.1-0.1-0.1-0.1l0.1-0.1h6.5c0.1,0,0.1,0.1,0.1,0.1S188.8,184.4,188.7,184.4z"
								/>
							<path class="st2" d="M189.5,188.6H183c-0.1,0-0.1-0.1-0.1-0.1l0.1-0.1h6.5c0.1,0,0.1,0.1,0.1,0.1S189.6,188.6,189.5,188.6z"
								/>
							<path class="st2" d="M190.4,192.8h-6.5c-0.1,0-0.1-0.1-0.1-0.1c0-0.1,0.1-0.1,0.1-0.1h6.5c0.1,0,0.1,0.1,0.1,0.1
								C190.6,192.8,190.5,192.8,190.4,192.8z"/>
							<path class="st2" d="M191.2,197.1h-6.5c-0.1,0-0.1-0.1-0.1-0.1c0-0.1,0.1-0.1,0.1-0.1h6.5c0.1,0,0.1,0.1,0.1,0.1
								C191.4,197.1,191.3,197.1,191.2,197.1z"/>
						</g>
						<g>
							<path class="st22" d="M179.7,201.3c-0.1,0-0.1-0.1-0.1-0.1v-29.5c0-0.1,0.1-0.1,0.1-0.1c0.1,0,0.1,0.1,0.1,0.1v29.5
								C179.8,201.3,179.8,201.3,179.7,201.3z"/>
							<g>
								<path class="st22" d="M192,201.3c-0.1,0-0.1,0-0.1-0.1l-5.8-29.6c0-0.1,0-0.1,0.1-0.2c0.1,0,0.1,0,0.2,0.1l5.8,29.6
									C192.2,201.3,192.1,201.3,192,201.3L192,201.3z"/>
								<path class="st22" d="M185.5,201.3c-0.1,0-0.1,0-0.1-0.1l-5.8-29.6c0-0.1,0-0.1,0.1-0.2c0.1,0,0.1,0,0.2,0.1l5.8,29.6
									C185.7,201.3,185.6,201.3,185.5,201.3L185.5,201.3z"/>
							</g>
							<path class="st22" d="M186.3,171.7h-6.5c-0.1,0-0.1-0.1-0.1-0.1c0-0.1,0.1-0.1,0.1-0.1h6.5c0.1,0,0.1,0.1,0.1,0.1
								C186.4,171.7,186.3,171.7,186.3,171.7z"/>
							<path class="st22" d="M187.2,175.9h-6.5c-0.1,0-0.1-0.1-0.1-0.1c0-0.1,0.1-0.1,0.1-0.1h6.5c0.1,0,0.1,0.1,0.1,0.1
								C187.3,175.9,187.2,175.9,187.2,175.9z"/>
							<path class="st22" d="M187.9,180.1h-6.5c-0.1,0-0.1-0.1-0.1-0.1c0-0.1,0.1-0.1,0.1-0.1h6.5c0.1,0,0.1,0.1,0.1,0.1
								C188.1,180.1,188,180.1,187.9,180.1z"/>
							<path class="st22" d="M188.7,184.4h-6.5c-0.1,0-0.1-0.1-0.1-0.1l0.1-0.1h6.5c0.1,0,0.1,0.1,0.1,0.1S188.8,184.4,188.7,184.4z
								"/>
							<path class="st22" d="M189.5,188.6H183c-0.1,0-0.1-0.1-0.1-0.1l0.1-0.1h6.5c0.1,0,0.1,0.1,0.1,0.1S189.6,188.6,189.5,188.6z"
								/>
							<path class="st22" d="M190.4,192.8h-6.5c-0.1,0-0.1-0.1-0.1-0.1c0-0.1,0.1-0.1,0.1-0.1h6.5c0.1,0,0.1,0.1,0.1,0.1
								C190.6,192.8,190.5,192.8,190.4,192.8z"/>
							<path class="st22" d="M191.2,197.1h-6.5c-0.1,0-0.1-0.1-0.1-0.1c0-0.1,0.1-0.1,0.1-0.1h6.5c0.1,0,0.1,0.1,0.1,0.1
								C191.4,197.1,191.3,197.1,191.2,197.1z"/>
						</g>
					</g>
					<g>
						<g>
							<path class="st21" d="M182.6,149.3l-3.9-2.1c-0.2-0.1-0.4,0-0.5,0.1c-0.1,0.2-0.1,0.4,0.1,0.5l4.5,3.1
								C183.6,151.4,183.9,149.9,182.6,149.3z"/>
							<path class="st23" d="M188.8,146.6c-0.2-0.3-0.7-0.4-1-0.2l-4.1,2.8c-1.3,0.8-1.2,1.5-0.7,1.9c0.2,0.1,0.5,0.1,0.7,0l0,0
								l5.1-3.3C189,147.4,189.1,146.9,188.8,146.6z"/>
							<path class="st24" d="M183.6,149.4L183.6,149.4L183.6,149.4z"/>
							<path class="st15" d="M179.2,146.9l-0.7-0.5c-0.1-0.1-0.2-0.1-0.3-0.1l-0.6,0.1c-0.3,0.1-0.4,0.4-0.2,0.6l0.8,0.9
								c0.3,0.4,1,0.4,1.3,0l0,0C179.7,147.6,179.6,147.1,179.2,146.9z"/>
						</g>
						<path class="st1" d="M182.5,170.2c-0.1,0.1-0.2,0.3-0.3,0.3c-0.5,0.2-1.2,0.2-1.3,0.6l-0.1,0.3h3l-0.1-1L182.5,170.2z"/>
						<path class="st15" d="M183.7,169.8h-0.9c0,0-0.1,0.2-0.3,0.4c0.5,0.6,1,0.7,1.3,0.2L183.7,169.8z"/>
						<path class="st15" d="M187.1,174h-0.9l-0.3,0.5c-0.2,0.4,1.2,0.5,1.2,0V174z"/>
						<path class="st1" d="M185.9,174.6l-0.1,0.2c-0.4,0.2-0.7,0.4-0.7,0.7v0.3h2.1v-1.1C187.2,174.3,186.1,174.8,185.9,174.6z"/>
						<polygon class="st24" points="180.9,171.2 180.9,171.5 183.9,171.5 183.9,171.2 						"/>
						<polygon class="st24" points="185.1,175.5 185.1,175.7 187.2,175.7 187.2,175.5 						"/>
						<path class="st16" d="M180,162.8l3.2-5.7c0.3-0.5,1-0.7,1.5-0.4l0.5,0.3c0.5,0.3,0.6,1,0.3,1.5l-2.4,3.7c0,0-0.8,1-1.4,1.8
							c-0.4,0.5-1.1,0.5-1.5,0.1l0,0C179.8,163.8,179.7,163.2,180,162.8z"/>
						<path class="st16" d="M180.7,162.3c0.5-0.1,1,0.2,1.1,0.6l2.2,7h-1.4l-2.6-6.4C179.7,163.1,180,162.4,180.7,162.3z"/>
						<path class="st16" d="M188.1,157.4l-0.1,4.2c-0.1,1.4-0.1,2.8-0.2,4.2l-0.4,8.4h-1.2l-0.3-8.4v-1l-0.1-1l-0.2-2.1l-0.3-4.1
							L188.1,157.4z"/>
						<path class="st16" d="M187.3,158.5h-3.9c-0.4,0-0.7-0.4-0.7-0.8v-1.4h5.5v1.4C188.1,158.2,187.8,158.5,187.3,158.5z"/>
						<path class="st21" d="M180,151.3l-3.2-3.1c-0.1-0.1-0.4-0.1-0.5,0c-0.2,0.1-0.2,0.4-0.1,0.5l3.5,4.2
							C180.3,153.7,181,152.3,180,151.3z"/>
						<path class="st21" d="M183.2,146.5c-0.4-0.2-0.8,0-1,0.3l-2.2,4.5c-0.7,1.4-0.3,2,0.3,2c0.2,0,0.5-0.2,0.6-0.4l0,0l2.6-5.5
							C183.7,147.1,183.5,146.7,183.2,146.5z"/>
						<path class="st24" d="M180,151.3L180,151.3L180,151.3z"/>
						<path class="st9" d="M175.8,138.1h-13.2c-1.2,0-2.3,1-2.3,2.3v6.2c0,1.2,1,2.3,2.3,2.3h1.8v2.6l2.6-2.6h8.9
							c1.2,0,2.3-1,2.3-2.3v-6.2C178.2,139.1,177.1,138.1,175.8,138.1z"/>
						<path class="st2" d="M174.2,141.5h-10c-0.2,0-0.4-0.2-0.4-0.4s0.2-0.4,0.4-0.4h10c0.2,0,0.4,0.2,0.4,0.4
							S174.5,141.5,174.2,141.5z"/>
						<path class="st2" d="M174.2,143.8h-10c-0.2,0-0.4-0.2-0.4-0.4s0.2-0.4,0.4-0.4h10c0.2,0,0.4,0.2,0.4,0.4
							S174.5,143.8,174.2,143.8z"/>
						<path class="st2" d="M174.2,145.9h-10c-0.2,0-0.4-0.2-0.4-0.4s0.2-0.4,0.4-0.4h10c0.2,0,0.4,0.2,0.4,0.4
							S174.5,145.9,174.2,145.9z"/>
						<path class="st15" d="M177.6,148.2l-0.2-0.8c0-0.1-0.1-0.2-0.2-0.3l-0.5-0.4c-0.2-0.2-0.6,0-0.6,0.3l-0.1,1.2
							c0,0.5,0.4,0.9,0.9,0.8l0,0C177.3,149.1,177.7,148.6,177.6,148.2z"/>
						<path class="st21" d="M182.6,158l-0.3-11.2c0-0.6,0.5-1.1,1.1-1.1h4.6c0.6,0,1.1,0.5,1.1,1.1L188,158H182.6z"/>
						<g>
							<path class="st15" d="M185.3,145L185.3,145c-1.1,0-2.1-0.9-2.1-2.1v-1.2c0-1.1,0.9-2.1,2.1-2.1l0,0c1.1,0,2.1,0.9,2.1,2.1
								v1.3C187.4,144.1,186.4,145,185.3,145z"/>
							<rect x="184.8" y="144.1" class="st15" width="1.8" height="1.7"/>
							<path class="st18" d="M185.3,139.8L185.3,139.8c1.1,0,2.1,0.9,2.1,2.1v1.3c0,0.6-0.3,1.2-0.8,1.7c-0.4,0.3-1,0.2-1.2-0.2
								l-0.7-1l-0.7-3C184.2,140,184.7,139.8,185.3,139.8z"/>
							<path class="st18" d="M183.5,140.8c0.3-0.6,1-1.1,1.8-1.1l0,0c1.1,0,2.1,0.9,2.1,2.1v1c0,0-2.6,0-3.1,0
								C183.7,142.7,183.4,141.1,183.5,140.8z"/>
							<path class="st18" d="M185.9,139.8c0.6-0.5,2.1,0.1,2.4,0.7c-0.2,0-0.4,0-0.6,0c0.4,0.1,0.7,0.7,0.3,1.2
								c-0.1-0.2-0.3-0.5-0.5-0.5c0.3,0.3,0.4,0.8,0.1,1.2c-0.2-0.2-0.3-0.3-0.4-0.6c0,0.2,0,0.5-0.2,0.6
								C186.6,141.5,186,140.4,185.9,139.8z"/>
							<path class="st18" d="M186,140.2c0-1.3-2-1.4-3.5-0.4c0.4-0.1,0.9-0.2,1.2-0.2c-0.6,0.1-1.1,0.4-1.4,0.9
								c0.2,0.1,0.5,0.1,0.8,0c-0.3,0.1-0.5,0.4-0.6,0.7c0.5,0.1,0.8-0.1,1-0.4c-0.2,0.2-0.4,0.6-0.4,1c0.3-0.4,1.1-0.7,1.7-0.7
								c-0.3,0.1-0.7,0.3-0.9,0.6c0.7,0.1,1.5,0,2-0.5c0.1,0.2,0.3,0.5,0.5,0.6C186.5,141.5,186.7,140.6,186,140.2z"/>
							<path class="st15" d="M184.3,142.6v0.6c0,0.1,0.1,0.2,0.2,0.2c0.1,0,0.2-0.1,0.2-0.2v-0.6c0-0.1-0.1-0.2-0.2-0.2
								C184.4,142.4,184.3,142.5,184.3,142.6z"/>
						</g>
					</g>
				</g>
				<g>
					<g>
						<path class="st16" d="M132.1,147.2c0-0.6-0.5-1.1-1.1-1c-0.6,0-1.1,0.6-1,1.2l1,8.4h1.3L132.1,147.2z"/>
						<path class="st15" d="M131,155.8v0.3c0,0.3,0.3,0.6,0.7,0.5c0.3,0,0.6-0.3,0.6-0.6v-0.2H131z"/>
						<path class="st16" d="M130.8,139.1l-0.7,0.1c-0.6,0-1,0.6-1,1.2l0.8,7c0.1,0.6,0.6,1,1.1,0.9l0,0c0.6,0,1-0.5,1-1.1l-0.1-7
							C131.9,139.6,131.4,139.1,130.8,139.1z"/>
						<path class="st16" d="M128.8,141.3h0.8c1.2,0,2.4-1,2.4-2.4l0,0h-5.6l0,0C126.4,140.3,127.5,141.3,128.8,141.3z"/>
						<path class="st16" d="M128.3,139.1h-0.7c-0.6,0-1.2,0.5-1.2,1.1l-0.8,7c-0.1,0.6,0.3,1,0.9,1l0,0c0.6,0,1.1-0.4,1.2-1l1.5-7
							C129.3,139.6,128.9,139.1,128.3,139.1z"/>
						<path class="st15" d="M124.5,155.9v0.1c0,0.3,0.2,0.6,0.5,0.6l0,0c0.3,0,0.6-0.3,0.7-0.6v-0.1H124.5z"/>
						<path class="st16" d="M127.6,147.3c0.1-0.6-0.3-1.1-0.9-1.1l0,0c-0.6,0-1.2,0.5-1.3,1.1l-1,8.6h1.2L127.6,147.3z"/>
						<g>
							<path class="st15" d="M131.2,133.5h1.8l0.1,2.6c0,0.4-0.3,0.8-0.7,0.8s-0.7-0.3-0.8-0.7L131.2,133.5z"/>
							<path class="st2" d="M132.7,129.9c0-0.6-0.5-1.1-1.1-1c-0.5,0-0.9,0.6-0.9,1.2l0.5,3.5h1.8L132.7,129.9z"/>
						</g>
						<g>
							<path class="st15" d="M133,136.9l5.3-4c0.2-0.2,0.2-0.4,0.1-0.6l0,0c-0.1-0.2-0.4-0.3-0.6-0.1l-5.6,3.6
								c-0.4,0.2-0.4,0.7-0.2,1l0,0C132.2,137.1,132.6,137.2,133,136.9z"/>
							<path class="st15" d="M138.7,133.1l0.7-0.4c0.1-0.1,0.2-0.1,0.2-0.2l0.2-0.6c0.1-0.3-0.2-0.6-0.5-0.5l-1.2,0.3
								c-0.5,0.1-0.8,0.7-0.5,1.2l0,0C137.9,133.2,138.3,133.3,138.7,133.1z"/>
						</g>
						<path class="st21" d="M132.4,129.7c0-0.5-0.4-1.2-1-1.3c-1.9-0.5-3.7-0.5-5.5,0c-0.6,0.2-1,0.8-0.9,1.3c0.5,3,1,6.1,1.5,9.4
							c1.9,0,3.7,0,5.5,0C132.1,135.9,132.2,132.7,132.4,129.7z"/>
						<path class="st1" d="M124.9,129.7c0.2,1.3,0.5,3.6,0.8,5.7c0.3,2.3,0,5.4,0,5.4h2.4l0.7-5.3l-2-7.4c-0.4,0.1-0.7,0.1-1.1,0.2
							C125.2,128.6,124.9,129.2,124.9,129.7z M131.2,128.4l-1,7.1l0.6,5.4h1.1c0.1-4.3,0.3-8.2,0.4-11c0-0.5-0.4-1.2-1-1.3
							C131.3,128.4,131.3,128.4,131.2,128.4z"/>
						<path class="st2" d="M137,140.8h3.1c3,0,5.4-2.4,5.4-5.4v-3.1c0-3-2.4-5.4-5.4-5.4H137c-3,0-5.4,2.4-5.4,5.4v3.1
							C131.6,138.4,134,140.8,137,140.8z"/>
						<path class="st3" d="M137.3,137.3c0.1-0.5,0-1.1,0-1.8c-0.2-0.2-0.4-0.4-0.6-0.7c-0.2-0.4-0.7-1.9-0.7-2.7
							c0-0.4,0.1-0.8,0.2-1.2c-0.3-0.2-0.5-0.5-0.6-0.9c1.4,0.4,1-1.3,3.2-1.3c0.7,0,1.5,0.3,2.1,0.9c0.1,0.1,0.2,0.5,0.1,0.7
							c0,0.1-0.1,0.2-0.2,0.3c0.2,0.4,0.4,0.9,0.4,1.5c0,0.8-0.5,2.4-0.7,2.7s-0.3,0.5-0.6,0.7c-0.1,0.6-0.1,1.2,0,1.8
							c0.3,0.1,1.1,0.2,1.8,0.3c-0.7,0.8-1.8,1.4-3,1.4s-2.4-0.5-3-1.3C136.1,137.5,137,137.4,137.3,137.3z"/>
						<path class="st15" d="M130.3,128.2c-1-0.2-2-0.2-3-0.1l2.2,2.7C129.4,130.8,130.4,128.2,130.3,128.2z"/>
						<g>
							<path class="st15" d="M124.3,133l1.7,0.3l-0.4,2.6c-0.1,0.4-0.4,0.7-0.8,0.7s-0.7-0.5-0.6-0.9L124.3,133z"/>
							<path class="st25" d="M126.5,129.9c0.1-0.6-0.3-1.2-0.8-1.3s-1,0.3-1.1,0.9l-0.3,3.5l1.7,0.3L126.5,129.9z"/>
						</g>
						<path class="st16" d="M124.4,156h1.3c0.1,0,0.3-0.1,0.3-0.2l0.1-0.4c0-0.1-0.1-0.2-0.2-0.2h-1.3c-0.1,0-0.3,0.1-0.3,0.2
							l-0.1,0.4C124.2,155.9,124.3,156,124.4,156z"/>
						<path class="st16" d="M131.2,156l0.9-0.1c0.2,0,0.4-0.2,0.4-0.5l0,0c0-0.2-0.2-0.4-0.5-0.4l-0.9,0.1c-0.2,0-0.4,0.2-0.4,0.5
							l0,0C130.7,155.9,131,156.1,131.2,156z"/>
						<g>
							<polygon class="st15" points="128.2,128.3 129.3,128.3 129.3,126.8 128,126.7 							"/>
							<path class="st1" d="M130.1,123.3c0.1,0.2,0,2.2,0,2.2h0.4c0.2-0.8,0.3-2.1,0.2-3L130.1,123.3z"/>
							<path class="st15" d="M130.6,123.6c0-0.7-0.5-1.1-1.7-1.1s-1.7,0.4-1.7,1.1c0,0.6-0.1,1.7-0.1,2.3s0.2,1,0.7,1.4
								c0.3,0.2,0.6,0.4,0.9,0.4s0.6-0.1,0.9-0.4c0.5-0.4,0.7-0.8,0.7-1.4C130.7,125.3,130.6,124.3,130.6,123.6z"/>
							<path class="st1" d="M127.7,126.2l1.7-0.3l1.2,0.3c-0.1,0.5-0.3,0.8-0.7,1.1c-0.3,0.2-0.6,0.4-0.9,0.4
								c-0.3,0-0.6-0.1-0.9-0.4c-0.5-0.4-0.7-0.8-0.7-1.4c0-0.1,0-0.2,0-0.4h0.4L127.7,126.2L127.7,126.2z"/>
							<path class="st1" d="M128.2,121.7h1.7c0.5,0,1.3-0.1,1.3,0.5c0,0.5-0.5,1.1-1.5,1.1c-1.1,0-1.9-0.3-2,0c-0.1,0.2,0,2.2,0,2.2
								h-0.4c-0.2-0.8-0.3-2.1-0.2-3C127.2,122,127.7,121.7,128.2,121.7z"/>
							<path class="st2" d="M128.7,126.2c0,0.7,1,0.7,1,0C129.4,126.3,129.1,126.3,128.7,126.2z"/>
							<path class="st15" d="M126.7,125.3c0.1,0.3,0.3,0.6,0.4,0.6c0.2,0,0.2-0.3,0.1-0.6s-0.3-0.6-0.4-0.6S126.7,125,126.7,125.3z"
								/>
							<path class="st19" d="M128.7,124.6h-0.6c0,0-0.1,0-0.1-0.1c0,0,0-0.1,0.1-0.1h0.6C128.7,124.5,128.8,124.5,128.7,124.6
								C128.8,124.6,128.7,124.6,128.7,124.6z"/>
							<path class="st19" d="M130.4,124.6h-0.6c0,0-0.1,0-0.1-0.1c0,0,0-0.1,0.1-0.1h0.6C130.4,124.5,130.5,124.5,130.4,124.6
								C130.5,124.6,130.4,124.6,130.4,124.6z"/>
							<path class="st19" d="M128.6,125c0,0.2-0.1,0.3-0.1,0.3c-0.1,0-0.1-0.1-0.1-0.3s0.1-0.3,0.1-0.3
								C128.5,124.8,128.6,124.9,128.6,125z"/>
							<path class="st19" d="M130.2,125c0,0.2-0.1,0.3-0.1,0.3c-0.1,0-0.1-0.1-0.1-0.3s0.1-0.3,0.1-0.3
								C130.2,124.8,130.2,124.9,130.2,125z"/>
							<path class="st20" d="M129.3,124.9v0.8H129c-0.2,0-0.2,0.3,0,0.3l0.5-0.1v-0.1L129.3,124.9z"/>
							<path class="st1" d="M130.6,121.2L130.6,121.2c0.1,0.2,0,0.5-0.2,0.5c-0.8,0.1-2.3,0.2-2.3,0.2s1.4-0.6,2.1-0.9
								C130.4,121,130.5,121.1,130.6,121.2z"/>
						</g>
						<g>
							<path class="st15" d="M124.8,136.8l6.5,1.1c0.2,0,0.5-0.1,0.5-0.4l0,0c0.1-0.2-0.1-0.5-0.3-0.5l-6.4-1.8
								c-0.4-0.1-0.8,0.1-0.9,0.6l0,0C124.1,136.2,124.4,136.7,124.8,136.8z"/>
							<path class="st15" d="M131.4,138.5l0.8,0.3c0.1,0,0.2,0,0.3,0l0.6-0.3c0.3-0.1,0.3-0.5,0-0.7l-1-0.7c-0.4-0.3-1-0.1-1.2,0.4
								l0,0C130.8,137.9,131,138.4,131.4,138.5z"/>
						</g>
						<path class="st1" d="M132.3,156.8c0.1,0.1,0.2,0.3,0.3,0.3c0.5,0.2,1.2,0.2,1.3,0.6l0.1,0.3h-3l0.1-1L132.3,156.8z"/>
						<path class="st15" d="M131.1,156.4c0-0.4,0.8-0.4,1,0c0,0,0.1,0.2,0.3,0.4c-0.6,0.6-1,0.7-1.3,0.2V156.4z"/>
						<path class="st1" d="M125.5,156.9c0.1,0,0.1,0.1,0.2,0.2c0.3,0.2,0.6,0.4,0.5,0.7l-0.1,0.3H124l0.2-1.1h1.2v-0.1H125.5z"/>
						<path class="st15" d="M124.5,156.4c0.1-0.5,0.9-0.6,1,0l0.2,0.5c-1-0.2-1.2,0.9-1.2,0V156.4z"/>
						<polygon class="st25" points="126.2,157.8 126.2,158 124.2,158 124.2,157.8 						"/>
						<polygon class="st25" points="134,157.8 134.1,158 131,158 131,157.8 						"/>
					</g>
					<path class="st25" d="M134.2,158.3c0-0.1-0.1-0.2-0.2-0.2h-10.2c-0.1,0-0.2,0.1-0.2,0.2l0,0l0,0v42.9c0,0.1,0.1,0.2,0.2,0.2
						s0.2-0.1,0.2-0.2v-9.9h9.8v9.9c0,0.1,0.1,0.2,0.2,0.2c0.1,0,0.2-0.1,0.2-0.2V158.3L134.2,158.3L134.2,158.3z M124,185.9V182
						h9.8v3.9H124z M124,181.6v-4.3h9.8v4.3H124z M124,176.7v-3.9h9.8v3.9H124z M124,172.4V168h9.8v4.3L124,172.4L124,172.4z
						 M124,167.5v-3.9h9.8v3.9H124z M124,163.2v-4.6h9.8v4.6H124z M124,186.4h9.8v4.3H124C124,190.8,124,186.4,124,186.4z"/>
				</g>
				<g>
					<path class="st15" d="M200.5,183.1c0,0.7,0,1.4,0,2.2v2.2c0,0.7,0,1.4,0,2.2v1v0.5c0,0.2,0,0.3,0,0.5l0.2,2.2
						c0.1,0.7,0.1,1.4,0.2,2.1l0.2,2.1c0.1,0.7,0.1,1.4,0.2,2.1h0.7c0-0.7,0.1-1.4,0.1-2.1l0.1-2.1c0-0.7,0.1-1.4,0.1-2.1l0.1-2.1
						c0-0.2,0-0.3,0-0.5l0.1-0.5l0.1-1c0.1-0.7,0.1-1.4,0.2-2.1l0.2-2.1c0.1-0.7,0.1-1.4,0.2-2.1L200.5,183.1z"/>
					<path class="st15" d="M203,183.3c0.1,0.7,0.1,1.3,0.2,2.1l0.2,2.1c0.1,0.7,0.1,1.3,0.2,2.1l0.2,2.1v0.1l0.4,2.2
						c0.1,0.7,0.3,1.4,0.4,2.2l0.4,2.2c0.1,0.7,0.3,1.4,0.4,2.2l0.7-0.1c0-0.7-0.1-1.4-0.1-2.2l-0.1-2.2c0-0.7-0.1-1.4-0.1-2.2
						l-0.1-2.2v0.1v-2.1c0-0.7,0-1.3,0-2.1v-2.1c0-0.7,0-1.3,0-2.1L203,183.3z"/>
					<path class="st3" d="M202.7,189.6v-0.1c0-0.2,0-0.4,0.1-0.6c0-0.4,0.1-0.9,0.1-1.3l0.2-2.1c0-0.2,0-0.5,0.1-0.7
						c0-0.4,0.1-0.9,0.1-1.3v-0.1l-3-0.1v0.1c0,0.4,0,0.9,0,1.3c0,0.2,0,0.5,0,0.7v2.2c0,0.4,0,0.9,0,1.3c0,0.2,0,0.4,0,0.6v0.1
						L202.7,189.6L202.7,189.6z"/>
					<path class="st3" d="M205.7,189.6v-0.3c0-0.2,0-0.4,0-0.6c0-0.4,0-0.9,0-1.3v-2.1c0-0.2,0-0.5,0-0.7c0-0.4,0-0.9,0-1.3v-0.1
						l-3,0.1v0.1c0,0.4,0.1,0.9,0.1,1.3c0,0.2,0,0.5,0.1,0.7l0.2,2.1c0,0.4,0.1,0.9,0.1,1.3c0,0.2,0,0.4,0.1,0.6v0.2H205.7z"/>
					<path class="st3" d="M205,184.7h-3.9c-0.4,0-0.7-0.3-0.7-0.8v-0.7c0-0.4,0.3-0.6,0.6-0.6h4.1c0.4,0,0.6,0.3,0.6,0.6v0.7
						C205.8,184.3,205.4,184.7,205,184.7z"/>
					<g>
						<path class="st15" d="M201.1,172.5l-6-2.7v1.3l5.5-3c0.2-0.1,0.3-0.3,0.2-0.5s-0.3-0.2-0.5-0.2l-5.8,2.4
							c-0.4,0.1-0.5,0.6-0.4,0.9c0.1,0.2,0.2,0.3,0.4,0.4l0,0l6,2.7c0.4,0.2,0.8,0,0.9-0.4C201.7,173,201.5,172.6,201.1,172.5z"/>
						<path class="st16" d="M200.5,174c0.5,0.2,1,0,1.2-0.5c0.3-0.5,0.1-1.1-0.4-1.3c-0.8-0.4-1.8-0.7-1.8-0.7l-0.3,2.1L200.5,174z"
							/>
						<path class="st15" d="M201.1,168.6l0.7-0.4c0.1,0,0.2-0.1,0.2-0.2l0.2-0.6c0.1-0.3-0.1-0.6-0.4-0.5l-1.2,0.2
							c-0.5,0.1-0.8,0.6-0.6,1.1l0,0C200.3,168.6,200.7,168.8,201.1,168.6z"/>
					</g>
					<path class="st16" d="M200.4,181.9l-0.3-9c0-0.6,0.5-1.1,1.1-1.1h4.6c0.6,0,1.1,0.5,1.1,1.1l-1.1,8.9l0.2,1.5h-5.8L200.4,181.9
						z"/>
					<path class="st20" d="M204.4,171.8c0,0.6-0.5,1-1,1c-0.6,0-1-0.5-1-1H204.4z"/>
					<polygon class="st20" points="204.3,171.8 202.9,171.8 203,170.4 204.2,170.2 					"/>
					<path class="st26" d="M202.1,166.9c-0.1,0.2,0,2.2,0,2.2h-0.4c-0.2-0.8-0.6-2.2-0.3-2.8c0.2-0.4,1.2-0.5,1.2-0.5L202.1,166.9z"
						/>
					<path class="st15" d="M201.6,167.2c0-0.7,0.5-1.1,1.5-1.1s1.5,0.4,1.5,1.1c0,0.6,0.1,1.7,0.1,2.2c0,0.6-0.2,1-0.7,1.4
						c-0.3,0.2-0.6,0.4-0.9,0.4c-0.3,0-0.6-0.1-0.9-0.4c-0.4-0.4-0.7-0.8-0.7-1.4C201.5,168.9,201.6,167.8,201.6,167.2z"/>
					<path class="st26" d="M204.5,169.1l-0.3,0.5l-1.2-0.1l-1.2,0.2l0.1,0.8c0,0.5,0.4,0.8,0.9,0.8h0.7c0.6,0,1.2-0.4,1.4-1
						c0.1-0.3,0.2-0.8,0.1-1.2H204.5z"/>
					<path class="st26" d="M204.5,166.9L204.5,166.9c0.1,0.2,0,2.2,0,2.2h0.4c0.2-0.6,0.3-1.7,0.2-2.5L204.5,166.9z"/>
					<path class="st26" d="M201.4,166.1c0.1-0.5,0.6-1.1,2.3-1.1s1.9,1.4,2.8,1.7c-1.1,0.8-3.8,0.6-4.8,0.4l-0.4-0.4
						C201.3,166.4,201.4,166.3,201.4,166.1z"/>
					<path class="st2" d="M203.5,169.8c0,0.6-1,0.6-1,0C202.7,169.9,203.1,169.9,203.5,169.8z"/>
					<path class="st20" d="M205.3,168.9c-0.1,0.3-0.3,0.6-0.4,0.6s-0.2-0.3-0.1-0.6c0.1-0.3,0.3-0.6,0.4-0.6
						S205.4,168.6,205.3,168.9z"/>
					<path class="st19" d="M203.6,168.6c0,0.2,0.1,0.3,0.1,0.3c0.1,0,0.1-0.1,0.1-0.3s-0.1-0.3-0.1-0.3
						C203.7,168.4,203.6,168.5,203.6,168.6z"/>
					<path class="st19" d="M202,168.6c0,0.2,0.1,0.3,0.1,0.3c0.1,0,0.1-0.1,0.1-0.3s-0.1-0.3-0.1-0.3
						C202.1,168.4,202,168.5,202,168.6z"/>
					<path class="st20" d="M202.9,168.5l-0.2,0.9c0,0,0,0.1,0.1,0.1l0,0l0,0h0.4c0.1,0,0.1,0,0.2-0.1c0-0.1,0-0.1-0.1-0.2l0,0h-0.4
						l0.1,0.1L202.9,168.5z"/>
					<g>
						<path class="st15" d="M205.6,173c0,0.5,0.1,1.1,0.1,1.7c0.1,0.5,0.1,1.1,0.2,1.7c0.1,0.5,0.1,1.1,0.2,1.7l0.2,1.7v-0.1v1.5
							c0,0.5,0,1,0,1.5s0,1,0,1.5s0,1,0,1.5c0,0.2,0.2,0.4,0.4,0.4s0.3-0.1,0.4-0.3c0.1-0.5,0.1-1,0.2-1.5c0.1-0.5,0.1-1,0.2-1.5
							c0.1-0.5,0.1-1,0.1-1.5l0.1-1.5v-0.1l0,0l-0.1-1.7c-0.1-0.5-0.1-1.1-0.2-1.7c-0.1-0.5-0.1-1.1-0.2-1.7
							c-0.1-0.5-0.1-1.1-0.2-1.7c-0.1-0.4-0.4-0.7-0.8-0.6C205.8,172.3,205.5,172.6,205.6,173z"/>
						<path class="st16" d="M207.3,172.8c-0.1-0.5-0.5-0.8-1-0.8s-1,0.5-0.9,1.1c0.1,0.9,0.2,1.9,0.3,2.8l2.2-0.9L207.3,172.8z"/>
						<path class="st15" d="M207.7,186v0.8c0,0.1-0.1,0.2-0.1,0.3l-0.5,0.4c-0.2,0.2-0.6,0.1-0.6-0.2l-0.3-1.2c-0.1-0.5,0.3-1,0.8-1
							l0,0C207.4,185.2,207.7,185.6,207.7,186z"/>
					</g>
					<polygon class="st27" points="200.3,189.6 202.7,189.6 203,188.4 200.3,188.4 					"/>
					<polygon class="st27" points="203.3,189.6 205.8,189.6 206,188.4 203.2,188.4 					"/>
					<g>
						<path class="st16" d="M200.6,200.4c0.1-0.1,0.2-0.3,0.3-0.5h1.2l0.1,1.4h-3V201C199.1,200.5,200.1,200.7,200.6,200.4z"/>
						<polygon class="st28" points="201.4,201 202.2,201 202.2,201.3 199.2,201.3 199.2,201.2 200.8,201.2 						"/>
						<path class="st2" d="M200.7,200.3h0.2c0.1,0,0.2-0.1,0.2-0.1l0.2-0.4c0-0.1,0-0.1-0.1-0.1H201c-0.1,0-0.2,0.1-0.2,0.1
							l-0.2,0.4C200.6,200.2,200.6,200.3,200.7,200.3z"/>
					</g>
					<g>
						<path class="st16" d="M205,200.4c0.1-0.1,0.2-0.3,0.2-0.4h1.1l0.1,1.4h-2.1v-0.3C204.3,200.7,204.6,200.6,205,200.4z"/>
						<polygon class="st28" points="205.8,201 206.5,201 206.5,201.3 204.4,201.3 204.4,201.2 205.4,201.2 						"/>
						<path class="st2" d="M205.1,200.3h0.3c0.1,0,0.2-0.1,0.2-0.1l0.1-0.4c0-0.1,0-0.1-0.1-0.1h-0.3c-0.1,0-0.2,0.1-0.2,0.1
							l-0.1,0.4C205,200.3,205,200.3,205.1,200.3z"/>
					</g>
					<path class="st19" d="M203.3,168.3h0.1c0.2-0.1,0.4-0.1,0.6,0h0.1v-0.1c-0.2-0.2-0.5-0.2-0.8,0
						C203.3,168.1,203.3,168.3,203.3,168.3z M201.7,168.3h0.1c0.2-0.1,0.4-0.1,0.6,0h0.1v-0.1c-0.2-0.2-0.5-0.2-0.8,0
						C201.6,168.1,201.6,168.3,201.7,168.3z"/>
				</g>
			</g>
		</g>
		<g>
			<g>
				<g>
					<g>
						<g>
							<path class="st5" d="M39.3,199.9c0,0.8-0.7,1.5-1.5,1.5s-1.5-0.7-1.5-1.5s0.7-1.5,1.5-1.5C38.7,198.3,39.3,199,39.3,199.9z"
								/>
							<path class="st9" d="M38.7,199.9c0,0.5-0.4,0.9-0.9,0.9s-0.9-0.4-0.9-0.9s0.4-0.9,0.9-0.9C38.2,198.9,38.7,199.3,38.7,199.9z
								"/>
							<path class="st12" d="M37.8,200L37.8,200c-0.2,0-0.3-0.1-0.4-0.2l-0.8-1.9h1.5v1.8C38.2,199.9,38,200,37.8,200z"/>
							<polygon class="st9" points="38.2,197.9 36.6,197.9 36.8,198.3 38.2,198.3 							"/>
						</g>
						<rect x="26.2" y="183.5" class="st12" width="13.1" height="14.4"/>
						<path class="st5" d="M29.4,186.2h6.7c0.2,0,0.3-0.1,0.3-0.3s-0.1-0.3-0.3-0.3h-6.7c-0.2,0-0.3,0.1-0.3,0.3
							S29.3,186.2,29.4,186.2z M36.1,186.9h-6.7c-0.2,0-0.3,0.1-0.3,0.3s0.1,0.3,0.3,0.3h6.7c0.2,0,0.3-0.1,0.3-0.3
							C36.4,187,36.3,186.9,36.1,186.9z M36.1,188.3h-6.7c-0.2,0-0.3,0.1-0.3,0.3s0.1,0.3,0.3,0.3h6.7c0.2,0,0.3-0.1,0.3-0.3
							C36.4,188.4,36.3,188.3,36.1,188.3z"/>
						<polygon class="st5" points="27,197.1 27,184.3 26.2,183.5 26.2,197.9 39.3,197.9 39.3,197.1 						"/>
					</g>
					<g>
						<rect x="13" y="183.5" class="st12" width="13.1" height="14.4"/>
						<path class="st5" d="M16.3,186.2H23c0.2,0,0.3-0.1,0.3-0.3s-0.1-0.3-0.3-0.3h-6.7c-0.2,0-0.3,0.1-0.3,0.3
							S16.1,186.2,16.3,186.2z M23,186.9h-6.7c-0.2,0-0.3,0.1-0.3,0.3s0.1,0.3,0.3,0.3H23c0.2,0,0.3-0.1,0.3-0.3
							S23.2,186.9,23,186.9z M23,188.3h-6.7c-0.2,0-0.3,0.1-0.3,0.3s0.1,0.3,0.3,0.3H23c0.2,0,0.3-0.1,0.3-0.3
							C23.3,188.4,23.2,188.3,23,188.3z"/>
						<polygon class="st5" points="13.8,197.1 13.8,184.3 13,183.5 13,197.9 26.2,197.9 26.2,197.1 						"/>
					</g>
					<g>
						<g>
							<path class="st5" d="M2,199.9c0,0.8,0.7,1.5,1.5,1.5s1.5-0.7,1.5-1.5s-0.7-1.5-1.5-1.5S2,199,2,199.9z"/>
							<path class="st9" d="M2.6,199.9c0,0.5,0.4,0.9,0.9,0.9s0.9-0.4,0.9-0.9S4,199,3.5,199C3,198.9,2.6,199.3,2.6,199.9z"/>
							<path class="st12" d="M3.5,200L3.5,200c0.2,0,0.3-0.1,0.4-0.2l0.8-1.9H3.1v1.8C3.1,199.9,3.3,200,3.5,200z"/>
							<polygon class="st9" points="3.1,197.9 4.7,197.9 4.5,198.3 3.1,198.3 							"/>
						</g>
						<rect x="2" y="183.4" class="st12" width="11" height="14.4"/>
						<polygon class="st5" points="2.7,197.1 2.7,184.3 2,183.5 2,197.9 13,197.9 13,197.1 						"/>
						<path class="st5" d="M5.2,186.2h4.6c0.2,0,0.3-0.1,0.3-0.3s-0.1-0.3-0.3-0.3H5.2c-0.2,0-0.3,0.1-0.3,0.3
							C4.9,186.1,5.1,186.2,5.2,186.2z M9.8,186.9H5.2c-0.2,0-0.3,0.1-0.3,0.3s0.1,0.3,0.3,0.3h4.6c0.2,0,0.3-0.1,0.3-0.3
							C10.2,187,10.1,186.9,9.8,186.9z M9.8,188.3H5.2c-0.2,0-0.3,0.1-0.3,0.3s0.1,0.3,0.3,0.3h4.6c0.2,0,0.3-0.1,0.3-0.3
							C10.2,188.4,10.1,188.3,9.8,188.3z"/>
					</g>
				</g>
				<g>
					<g>
						<rect x="7.7" y="181.4" class="st29" width="4.5" height="2.1"/>
						<path class="st2" d="M12.7,182.7H7.4c-0.2,0-0.4,0.2-0.4,0.4l0,0c0,0.2,0.2,0.4,0.4,0.4h5.4c0.2,0,0.4-0.2,0.4-0.4l0,0
							C13,182.9,12.9,182.7,12.7,182.7z"/>
						<rect x="3.7" y="170.1" class="st9" width="14.8" height="11.3"/>
						<rect x="4.4" y="170.9" class="st6" width="13.3" height="9.8"/>
						<path class="st2" d="M5.5,174.3L5.5,174.3l0.1-2.2H5.5V174.3z M9.7,173.5H6.4v0.7h3.3V173.5z M6.4,172.2v0.7h4.8v-0.7H6.4z"/>
						<path class="st2" d="M5.5,178L5.5,178l0.1-2.2H5.5V178z M9.7,177.1H6.4v0.7h3.3V177.1z M6.4,175.8v0.7h4.8v-0.7H6.4z"/>
					</g>
					<g>
						<rect x="31" y="181.4" class="st29" width="4.5" height="2.1"/>
						<path class="st2" d="M36,182.7h-5.4c-0.2,0-0.4,0.2-0.4,0.4l0,0c0,0.2,0.2,0.4,0.4,0.4H36c0.2,0,0.4-0.2,0.4-0.4l0,0
							C36.3,182.9,36.2,182.7,36,182.7z"/>
						<rect x="24.8" y="170.1" class="st9" width="16.8" height="11.3"/>
						<rect x="25.6" y="170.8" class="st7" width="15.4" height="9.8"/>
						<path class="st2" d="M27.4,179.4h1.2v-1.2h-1.2V179.4z M29.3,179.4h1.1v-3.3h-1.2v3.3H29.3z M31,179.4h1.2V174H31V179.4z
							 M32.8,179.4H34v-6.7h-1.2V179.4z M34.5,179.4h1.2v-6h-1.2V179.4z M36.3,179.4h1.2V172h-1.2V179.4z M38.1,175.4v3.9h1.2v-3.9
							H38.1z"/>
					</g>
				</g>
				<g>
					<path class="st17" d="M14.3,183l-0.7,0.2c-0.6,0.1-0.9,0.7-0.8,1.3l1.9,6.7c0.1,0.5,0.7,0.9,1.2,0.7l0,0
						c0.5-0.1,0.9-0.6,0.8-1.2l-1.1-6.8C15.5,183.3,14.9,182.9,14.3,183z"/>
					<path class="st17" d="M14.2,185.3l3-0.7c0.6-0.1,1-0.7,0.9-1.3l-0.2-1.1l-5.3,0.2c-0.1,0.9,0,1.3,0.2,2.1
						C12.9,185,13.6,185.4,14.2,185.3z"/>
					<path class="st17" d="M14.6,191.3l-0.4,8.1c0,0.3,0.2,0.6,0.5,0.6l0,0c0.3,0,0.6-0.3,0.7-0.6l1.3-8.1c0.1-0.6-0.3-1.1-0.9-1.1
						l0,0C15.2,190.1,14.6,190.7,14.6,191.3z"/>
					<path class="st15" d="M14.6,201L14.6,201c-0.3,0-0.5-0.2-0.5-0.6l0.1-1.1h1.2l-0.2,1.1C15.2,200.8,14.9,201,14.6,201z"/>
					<path class="st26" d="M15.3,199.9c-0.4,0.2-0.8,0.2-1.2,0l-0.1,1.4h2v-0.4c0-0.1,0-0.2-0.1-0.3l-0.1-0.1L15.3,199.9z"/>
					<path class="st17" d="M17.6,190.9l1,8.6c0,0.3,0.3,0.6,0.6,0.5l0,0c0.3,0,0.6-0.3,0.6-0.6l-0.2-8.6c0-0.6-0.5-1.1-1.1-1l0,0
						C18,189.6,17.6,190.2,17.6,190.9z"/>
					<path class="st15" d="M19.5,201L19.5,201c-0.3,0-0.6-0.2-0.6-0.5l-0.1-1.1l1.2-0.1v1.1C20,200.8,19.8,201,19.5,201z"/>
					<path class="st26" d="M22,201.3v-0.2c0-0.2-0.1-0.4-0.3-0.5l-0.9-0.3l-0.7-0.5c0,0.4-0.7,0.4-1.2,0v1.4H22V201.3z"/>
					<path class="st17" d="M16.8,182.5l-0.7,0.2c-0.6,0.2-0.9,0.8-0.7,1.3l2.4,6.5c0.2,0.5,0.7,0.8,1.3,0.6l0,0
						c0.5-0.2,0.8-0.7,0.7-1.2l-1.7-6.7C17.9,182.7,17.3,182.4,16.8,182.5z"/>
					<path class="st30" d="M18.7,182.4l3.3-8.9c0.2-0.6-0.1-1.3-0.8-1.5l-3.4-1.1c-0.6-0.2-2.8,0.6-3.3,2.8l-1,6l-1.2,3.3l6.1,1
						L18.7,182.4z"/>
					<g>
						<path class="st15" d="M26,182l0.9,0.2c0.1,0,0.2,0.1,0.3,0.2l0.4,0.5c0.2,0.3,0,0.5-0.3,0.5H26c-0.6,0-1-0.5-0.9-1l0,0
							C25,182.1,25.5,181.9,26,182z"/>
						<path class="st15" d="M26,182.7c0.2,0.1,0.2,0.4,0.1,0.6c-0.1,0.2-0.4,0.3-0.6,0.1l-0.9-0.5L25,182L26,182.7z"/>
						<path class="st30" d="M20.5,180.2v-7c0-0.4,0.4-0.8,0.8-0.8s0.8,0.4,0.8,0.8l0.1,6L20.5,180.2z"/>
						<polygon class="st30" points="22.2,179.3 25,182 24.5,182.9 20.5,180.2 						"/>
					</g>
					<polygon class="st17" points="14,201.1 14,201.3 15.9,201.3 15.9,201.1 					"/>
					<path class="st17" d="M18.7,201.3H22v-0.2c0,0,0,0,0-0.1h-3.2L18.7,201.3L18.7,201.3z"/>
					<g>
						<path class="st15" d="M22.2,168.8l0.1,1c0,0.1-0.1,0.1-0.1,0.1l-0.4-0.1L22.2,168.8z"/>
						<path class="st15" d="M22.6,168c0.2-0.6,0.1-1.5-1.3-2.1c-0.9-0.3-2-0.2-2.3,0.8c-0.2,0.5-0.1,1.5-0.1,2.1
							c0.1,0.8,0.4,1.9,1.8,2.3c0.2,0.1,0.4,0.1,0.6,0c0.4-0.2,0.6-0.9,0.7-1.2c0.1-0.2,0.2-0.6,0.3-1c0-0.1,0.2-0.3,0.2-0.4
							C22.6,168.4,22.4,168.1,22.6,168z"/>
						<path class="st15" d="M19.8,171.3l-1.9-0.6l0.9-1.1c0.1-0.2,0.3-0.4,0.7-0.3c0.8,0.3,0.9,0.9,0.7,1.4L19.8,171.3z"/>
						<path class="st18" d="M22.8,166.8c-0.2-0.6-0.7-1.2-1.3-1.4c-0.7-0.2-2,0.1-2,0.1c-2.5-0.8-0.9,3.9-0.9,3.9
							c-0.4,0.7,0.9,0.8,1.7,0.5c0.1-0.1,0.4-0.2,0.4-0.4c-0.2-0.1-0.2-0.4-0.1-0.7s0.4-0.6,0.5-0.5c0.3,0.3,0.3,0,0.3-0.1
							c0.1-0.4,1.1-0.6,1.2-0.7C22.9,167.3,22.9,167,22.8,166.8z"/>
						<path class="st31" d="M22.4,166.9c-0.1-0.4-0.4-0.7-0.9-0.9c-1.4-0.4-0.9,3.7-2.6,3.7c0.3,0.1,0.8,0,1.1-0.1
							c0.1,0,0.1-0.1,0.1-0.1c-0.1-0.2-0.1-0.4,0-0.9c0.1-0.3,0.4-0.8,0.8-0.7c0,0,0,0,0.1,0c0.2-0.3,0.6-0.5,1-0.6
							c0.1,0,0.2-0.1,0.2-0.1C22.4,167.2,22.6,167.1,22.4,166.9z"/>
						<path class="st28" d="M22,168.9c0,0.1,0,0.2,0,0.2s0.1-0.1,0.1-0.2c0-0.1,0-0.2,0-0.2S22,168.8,22,168.9z"/>
						<path class="st28" d="M22.1,168.6C22,168.6,22,168.5,22.1,168.6c-0.1-0.1,0-0.1,0-0.1c0.1,0,0.3,0,0.4,0c0,0,0.1,0.1,0,0.1
							c0,0-0.1,0.1-0.1,0C22.3,168.6,22.2,168.6,22.1,168.6L22.1,168.6z"/>
					</g>
				</g>
			</g>
			<g>
				<path class="st1" d="M74.6,164.9c-0.2,0-0.3,0.1-0.3,0.3v0.1h-0.8c-0.4,0-0.7,0.3-0.7,0.7s0.3,0.7,0.7,0.7h0.8v0.1
					c0,0.2,0.1,0.3,0.3,0.3c0.2,0,0.3-0.1,0.3-0.3v-1.7C74.9,165.2,74.7,164.9,74.6,164.9z"/>
				<path class="st1" d="M74.6,168.5c-0.2,0-0.3,0.1-0.3,0.3v0.1h-0.8c-0.4,0-0.7,0.3-0.7,0.7s0.3,0.7,0.7,0.7h0.8v0.1
					c0,0.2,0.1,0.3,0.3,0.3c0.2,0,0.3-0.1,0.3-0.3v-1.7C74.9,168.6,74.7,168.5,74.6,168.5z"/>
				<g>
					<path class="st9" d="M63.9,192.1H39.3v-0.7h24.6c3.8,0,7-3.1,7-7v-14.5c0-0.4,0.4-0.8,0.8-0.8h1v0.7h-1.1
						c-0.1,0-0.1,0.1-0.1,0.1v14.5C71.5,188.7,68.1,192.1,63.9,192.1z"/>
				</g>
				<g>
					<path class="st9" d="M63.9,188.7H39.3V188h24.6c2,0,3.5-1.5,3.5-3.5V170c0-2.4,1.9-4.2,4.2-4.2h1.1v0.7h-1.1
						c-2,0-3.5,1.5-3.5,3.5v14.5C68.1,186.8,66.2,188.7,63.9,188.7z"/>
				</g>
				<path class="st9" d="M39.3,192.5c0,0.2,0.1,0.3,0.3,0.3s0.3-0.1,0.3-0.3v-5.1c0-0.2-0.1-0.3-0.3-0.3s-0.3,0.1-0.3,0.3V192.5z"/>
			</g>
		</g>
	</g>
</g>
</svg>
