<?xml version="1.0" encoding="utf-8"?>
<!-- Generator: Adobe Illustrator 24.3.0, SVG Export Plug-In . SVG Version: 6.00 Build 0)  -->
<svg version="1.1" id="Layer_1" xmlns="http://www.w3.org/2000/svg" xmlns:xlink="http://www.w3.org/1999/xlink" x="0px" y="0px"
	 viewBox="0 0 225 232.7" style="enable-background:new 0 0 225 232.7;" xml:space="preserve">
<style type="text/css">
	.st0{fill:url(#SVGID_1_);}
	.st1{fill:url(#SVGID_2_);}
	.st2{fill:url(#SVGID_3_);}
	.st3{fill:url(#SVGID_4_);}
	.st4{fill:url(#SVGID_5_);}
	.st5{fill:url(#SVGID_6_);}
	.st6{fill:url(#SVGID_7_);}
	.st7{fill:url(#SVGID_8_);}
	.st8{fill:url(#SVGID_9_);}
	.st9{fill:#3C9192;}
	.st10{fill:url(#SVGID_10_);}
	.st11{fill:url(#SVGID_11_);}
	.st12{fill:url(#SVGID_12_);}
	.st13{fill:url(#SVGID_13_);}
	.st14{fill:url(#SVGID_14_);}
	.st15{fill:url(#SVGID_15_);}
	.st16{fill:#0093ED;}
	.st17{fill:url(#SVGID_16_);}
	.st18{fill:url(#SVGID_17_);}
	.st19{fill:url(#SVGID_18_);}
	.st20{fill:url(#SVGID_19_);}
	.st21{fill:url(#SVGID_20_);}
	.st22{fill:url(#SVGID_21_);}
	.st23{fill:url(#SVGID_22_);}
	.st24{fill:url(#SVGID_23_);}
	.st25{fill:url(#SVGID_24_);}
	.st26{fill:url(#SVGID_25_);}
	.st27{fill:url(#SVGID_26_);}
	.st28{fill:#361D51;}
	.st29{fill:url(#SVGID_27_);}
	.st30{fill:url(#SVGID_28_);}
	.st31{fill:url(#SVGID_29_);}
	.st32{fill:url(#SVGID_30_);}
	.st33{fill:url(#SVGID_31_);}
	.st34{fill:url(#SVGID_32_);}
	.st35{fill:url(#SVGID_33_);}
	.st36{fill:url(#SVGID_34_);}
	.st37{fill:url(#SVGID_35_);}
	.st38{fill:url(#SVGID_36_);}
	.st39{fill:url(#SVGID_37_);}
	.st40{fill:url(#SVGID_38_);}
	.st41{fill:url(#SVGID_39_);}
	.st42{fill:url(#SVGID_40_);}
	.st43{fill:url(#SVGID_41_);}
	.st44{fill:url(#SVGID_42_);}
	.st45{fill:url(#SVGID_43_);}
	.st46{fill:url(#SVGID_44_);}
	.st47{fill:url(#SVGID_45_);}
	.st48{fill:url(#SVGID_46_);}
	.st49{fill:url(#SVGID_47_);}
	.st50{fill:url(#SVGID_48_);}
	.st51{fill:#FFBE9D;}
	.st52{fill:#1D3570;}
	.st53{fill:#FFC2B0;}
	.st54{fill:#E2957A;}
	.st55{opacity:0.25;}
	.st56{fill:#EE54A1;}
	.st57{fill:#323440;}
	.st58{fill:url(#XMLID_2_);}
	.st59{opacity:0.4;}
	.st60{fill:#7F7F7F;}
	.st61{fill:url(#SVGID_49_);}
	.st62{fill:url(#SVGID_50_);}
	.st63{fill:#333333;}
	.st64{fill:#323441;}
	.st65{opacity:0.15;enable-background:new    ;}
	.st66{opacity:0.15;}
	.st67{fill:url(#SVGID_51_);}
	.st68{fill:url(#SVGID_52_);}
	.st69{fill:url(#SVGID_53_);}
	.st70{fill:url(#SVGID_54_);}
	.st71{fill:url(#SVGID_55_);}
	.st72{fill:url(#SVGID_56_);}
	.st73{fill:#FFFFFF;}
</style>
<g>
	<g>
		
			<linearGradient id="SVGID_1_" gradientUnits="userSpaceOnUse" x1="76.3597" y1="504.8215" x2="86.6112" y2="504.8215" gradientTransform="matrix(-0.1003 -0.9949 0.9949 -0.1003 -303.4249 283.6934)">
			<stop  offset="0" style="stop-color:#B4F492"/>
			<stop  offset="0.2989" style="stop-color:#8AD292"/>
			<stop  offset="0.7738" style="stop-color:#4DA092"/>
			<stop  offset="1" style="stop-color:#358C92"/>
		</linearGradient>
		<path class="st0" d="M186.1,157.6c0,0,5.4-4.5,9.1-11.2C195.1,146.4,188.3,151.6,186.1,157.6z"/>
		
			<linearGradient id="SVGID_2_" gradientUnits="userSpaceOnUse" x1="72.4247" y1="504.9207" x2="77.5772" y2="504.9207" gradientTransform="matrix(-0.1003 -0.9949 0.9949 -0.1003 -303.4249 283.6934)">
			<stop  offset="0" style="stop-color:#B4F492"/>
			<stop  offset="0.2989" style="stop-color:#8AD292"/>
			<stop  offset="0.7738" style="stop-color:#4DA092"/>
			<stop  offset="1" style="stop-color:#358C92"/>
		</linearGradient>
		<path class="st1" d="M183.8,161.8c0,0,7.2-4.7,15.2-6.7C199,155.1,191.3,160.5,183.8,161.8z"/>
		
			<linearGradient id="SVGID_3_" gradientUnits="userSpaceOnUse" x1="72.8744" y1="497.231" x2="89.2266" y2="497.231" gradientTransform="matrix(-0.1003 -0.9949 0.9949 -0.1003 -303.4249 283.6934)">
			<stop  offset="0" style="stop-color:#B4F492"/>
			<stop  offset="0.2989" style="stop-color:#8AD292"/>
			<stop  offset="0.7738" style="stop-color:#4DA092"/>
			<stop  offset="1" style="stop-color:#358C92"/>
		</linearGradient>
		<path class="st2" d="M182.8,145c0,0-1.2,8.4,0.5,16.3C183.3,161.4,184.9,152.3,182.8,145z"/>
		
			<linearGradient id="SVGID_4_" gradientUnits="userSpaceOnUse" x1="67.803" y1="492.4253" x2="84.8594" y2="492.4253" gradientTransform="matrix(-0.1003 -0.9949 0.9949 -0.1003 -303.4249 283.6934)">
			<stop  offset="0" style="stop-color:#B4F492"/>
			<stop  offset="0.2989" style="stop-color:#8AD292"/>
			<stop  offset="0.7738" style="stop-color:#4DA092"/>
			<stop  offset="1" style="stop-color:#358C92"/>
		</linearGradient>
		<path class="st3" d="M178,149.8c0,0-0.8,8.8,1.4,17C179.4,166.9,180.7,157.2,178,149.8z"/>
		
			<linearGradient id="SVGID_5_" gradientUnits="userSpaceOnUse" x1="61.5647" y1="487.5346" x2="79.0501" y2="487.5346" gradientTransform="matrix(-0.1003 -0.9949 0.9949 -0.1003 -303.4249 283.6934)">
			<stop  offset="0" style="stop-color:#B4F492"/>
			<stop  offset="0.2989" style="stop-color:#8AD292"/>
			<stop  offset="0.7738" style="stop-color:#4DA092"/>
			<stop  offset="1" style="stop-color:#358C92"/>
		</linearGradient>
		<path class="st4" d="M173.8,156.2c0,0-1.1,9.1,1.3,17.4C175.1,173.6,176.7,163.7,173.8,156.2z"/>
		
			<linearGradient id="SVGID_6_" gradientUnits="userSpaceOnUse" x1="55.8009" y1="482.0057" x2="73.0537" y2="482.0057" gradientTransform="matrix(-0.1003 -0.9949 0.9949 -0.1003 -303.4249 283.6934)">
			<stop  offset="0" style="stop-color:#B4F492"/>
			<stop  offset="0.2989" style="stop-color:#8AD292"/>
			<stop  offset="0.7738" style="stop-color:#4DA092"/>
			<stop  offset="1" style="stop-color:#358C92"/>
		</linearGradient>
		<path class="st5" d="M167.3,162.9c0,0,0.7,9.1,4.7,16.9C172,179.7,171.6,169.7,167.3,162.9z"/>
		
			<linearGradient id="SVGID_7_" gradientUnits="userSpaceOnUse" x1="67.044" y1="500.9952" x2="70.769" y2="500.9952" gradientTransform="matrix(-0.1003 -0.9949 0.9949 -0.1003 -303.4249 283.6934)">
			<stop  offset="0" style="stop-color:#B4F492"/>
			<stop  offset="0.2989" style="stop-color:#8AD292"/>
			<stop  offset="0.7738" style="stop-color:#4DA092"/>
			<stop  offset="1" style="stop-color:#358C92"/>
		</linearGradient>
		<path class="st6" d="M180.2,167.5c0,0,7.5-4,15.8-5.3C196,162.2,187.8,166.9,180.2,167.5z"/>
		
			<linearGradient id="SVGID_8_" gradientUnits="userSpaceOnUse" x1="60.4417" y1="497.4422" x2="63.6544" y2="497.4422" gradientTransform="matrix(-0.1003 -0.9949 0.9949 -0.1003 -303.4249 283.6934)">
			<stop  offset="0" style="stop-color:#B4F492"/>
			<stop  offset="0.2989" style="stop-color:#8AD292"/>
			<stop  offset="0.7738" style="stop-color:#4DA092"/>
			<stop  offset="1" style="stop-color:#358C92"/>
		</linearGradient>
		<path class="st7" d="M176.6,174.4c0,0,8.4-4.2,17.3-4.8C193.8,169.7,184.8,174.5,176.6,174.4z"/>
		
			<linearGradient id="SVGID_9_" gradientUnits="userSpaceOnUse" x1="54.417" y1="493.989" x2="56.9874" y2="493.989" gradientTransform="matrix(-0.1003 -0.9949 0.9949 -0.1003 -303.4249 283.6934)">
			<stop  offset="0" style="stop-color:#B4F492"/>
			<stop  offset="0.2989" style="stop-color:#8AD292"/>
			<stop  offset="0.7738" style="stop-color:#4DA092"/>
			<stop  offset="1" style="stop-color:#358C92"/>
		</linearGradient>
		<path class="st8" d="M173.7,180.6c0,0,8.6-3.7,17.5-3.9C191.2,176.7,181.9,181.1,173.7,180.6z"/>
		<path class="st9" d="M171.4,185.6c0,0,2.1-9.5,14.4-27.6c0,0-13.9,18.1-16.3,27.8L171.4,185.6z"/>
	</g>
	<g>
		<g>
			
				<linearGradient id="SVGID_10_" gradientUnits="userSpaceOnUse" x1="10.6105" y1="-646.4949" x2="61.5086" y2="-692.0096" gradientTransform="matrix(1 0 0 -1 0 -558)">
				<stop  offset="0" style="stop-color:#00DCAC"/>
				<stop  offset="0.1243" style="stop-color:#00CEA6"/>
				<stop  offset="0.7177" style="stop-color:#02918E"/>
				<stop  offset="1" style="stop-color:#027984"/>
			</linearGradient>
			<path class="st10" d="M25.3,107.3c4.3-1.6,0.4-3.6-2.3-4.3c-2.2-0.6-7.6-1.6-5.4-5.4c2.3-3.9,4.6,1,6.5,1.5
				c4.1,1.3-0.2-4-1.2-5.4c-1.4-1.9-4.3-5.8-0.7-6.5c3-0.5,6,3.6,7.3,5.6c0.8,1.5,3.1,8.4,5.3,6.8c1.7-1.2-0.1-8.1,4-3.1
				c1.7,2,1.4,5.2,2.1,7.5c1.1,3.4,1.6,4.8,4.6,3.9c1.6-0.4,1.6-2.3,3.5-1.1c1,0.6,1.3,3.8,1.3,4.9c-0.1,9.9-4,16.6-5.9,17.4
				c-2.5,1.2-7.2-0.5-9.3-1.8c-1.1-0.6-3.1-1.6-2.9-3.2c0.1-1.8,2.9-1.5,3-2.5c0.3-3-5.1-0.1-6.6-0.5c-1.9-0.5-5.1-4-3.1-5.8
				c0.2-0.2,8.6-0.7,3.8-3.5c-2.7-1.5-5.5,2.7-8.1-0.3C17.2,107.4,23.7,107.9,25.3,107.3z"/>
			
				<linearGradient id="SVGID_11_" gradientUnits="userSpaceOnUse" x1="1052.6354" y1="-636.5459" x2="1053.9904" y2="-675.3839" gradientTransform="matrix(-1 0 0 -1 1091.6206 -558)">
				<stop  offset="0" style="stop-color:#00DCAC"/>
				<stop  offset="0.1243" style="stop-color:#00CEA6"/>
				<stop  offset="0.7177" style="stop-color:#02918E"/>
				<stop  offset="1" style="stop-color:#027984"/>
			</linearGradient>
			<path class="st11" d="M26,108.9c1.8-0.7,3.8-1.5,5.8-1.7c-1.4-1.8-2.9-3.5-4-5.5c-0.3-0.5,0.6-1,1-0.4c0.1,0.2,0.3,0.4,0.4,0.7
				c0.1-0.6,0-1.5-0.1-2c-0.1-1.3-0.6-2.3-1.1-3.5c-0.2-0.5,0.6-1,1-0.4c0.6,1.5,1.2,2.9,1.3,4.5c0.1,0.7,0.1,1.7-0.3,2.3
				c1.5,2.2,3.4,4.3,5,6.6c0.6-1.1,1.2-2.2,1.4-3.5c0.2-1.4,0.1-2.8,0.2-4.2c0.1-0.6,1.1-0.5,1,0.1c-0.2,1.7,0,3.4-0.4,5
				c-0.3,1.3-0.8,2.3-1.6,3.4c1.8,2.7,3.5,5.4,4.9,8.3c0.4,1,0.8,1.9,1.3,3c1-1.4,1.7-2.8,2.2-4.3c0.3-0.8,0.6-1.8,0.7-2.8
				c0.1-0.7,0-1.4,0.3-2c0.2-0.6,1.2-0.2,1,0.3c-0.3,0.8-0.2,1.9-0.4,2.8c-0.2,0.8-0.4,1.7-0.7,2.4c-0.6,1.7-1.5,3.2-2.4,4.6l0,0
				c0.6,1.7,1.4,3.4,2.1,5.1c0.1,0,0.1,0.1,0.1,0.2c0.1,0.2,0.2,0.4,0.3,0.6c1.4,3.5,2.8,6.9,4,10.4c0.2,0.6-0.6,1-1,0.4
				c-1.3-3.5-2.7-6.9-4-10.4l0,0c-0.4-1-0.8-1.8-1.3-2.8c-1.8,0.4-3.8-0.1-5.4-0.7c-0.6-0.2-0.2-1.2,0.3-1c1.5,0.6,3.2,1.1,4.7,0.7
				c-0.8-2.1-1.7-4.2-2.7-6.4c-0.4-0.8-0.8-1.6-1.3-2.4c0,0-0.1,0-0.1,0.1c-2.4,1-5.1,1.4-7.7,1c-0.6-0.1-0.5-1.1,0.1-1
				c2.4,0.4,4.9,0,7.2-1l0,0c-1.4-2.3-2.9-4.6-4.5-6.8c-0.3-0.4-0.5-0.7-0.8-1.1c-0.1,0.1-0.2,0.2-0.3,0.2c-1.9,0.1-3.8,0.8-5.6,1.6
				C25.8,110,25.5,109.1,26,108.9z"/>
		</g>
		
			<linearGradient id="SVGID_12_" gradientUnits="userSpaceOnUse" x1="1100.1647" y1="-688.0978" x2="1036.4879" y2="-693.5172" gradientTransform="matrix(-1 0 0 -1 1091.6206 -558)">
			<stop  offset="0" style="stop-color:#00DCAC"/>
			<stop  offset="0.1243" style="stop-color:#00CEA6"/>
			<stop  offset="0.7177" style="stop-color:#02918E"/>
			<stop  offset="1" style="stop-color:#027984"/>
		</linearGradient>
		<path class="st12" d="M51.8,150.5c-2.5-2.7-4.7-5.6-7.3-8.1c2.3-3.6,3.2-10.5,2.7-11.2c-1.3-1.6-3,0.8-3.3,2.1
			c-0.6,2.2-0.3,6.8,0.1,8.6c-0.3-0.3-0.6-0.5-1-0.8c-0.7-0.6-1.5-1.2-2.2-1.8c0.6-1.3,2.2-3.9,1.4-8.4c-0.1-0.7-0.4-1.7-1.2-2
			c-1.1-0.4-1.2,0.8-1.2,1.6c0,1.3,0.1,5.8,0,8c-1.5-1.2-3-2.4-4.3-3.6c0.8-2.8,1.8-6,0.6-8.7c-0.7-1.8-2.2-0.3-2.5,0.8
			c-0.5,2.1-0.1,4.7,0.6,6.8c-0.7-0.5-1.4-1.1-2.1-1.7c-0.1-0.1-0.2-0.2-0.4-0.3c0.5-1.3,1.2-2.4,1.2-3.9c0-1.4-0.5-2.8-1.5-3.8
			c-0.4-0.4-0.8-1.1-1.5-1.2c-1-0.1-0.5,1-0.4,1.5c0.4,1.3,0.6,2.7,1,4c0.1,0.7,0.3,1.4,0.4,2.1c0,0.2,0.1,0.4,0.1,0.7
			c-1-0.7-2-1.5-3.1-2.2c0.1-2.4,0.1-5.3-1.5-7.2c-1.1-1.3-1.9,0.2-1.9,1.3c0,1.6,0.7,3.3,1.6,4.8c-0.4-0.3-1-0.6-1.4-1
			c-0.7-2.7-1.7-6-4.2-7.6c-1.6-1.1-1.9,1-1.6,2.1c0.4,1.2,1.1,2.1,1.9,3.1c-0.2-0.1-0.4-0.2-0.6-0.4c-0.5-0.3-1.1-0.5-1.6-0.8
			c-0.3-2.3-0.7-5.2-2.8-6.9c-1.3-1.1-1.8,0.5-1.6,1.6c0.3,1.6,1.3,3.2,2.4,4.5c-0.8-0.3-1.7-0.6-2.5-1c-0.6-1.9-1.3-4.1-3.1-5.2
			c-1.2-0.7-1.4,0.7-1.1,1.5c0.4,1.2,1.3,2.2,2.3,3.1c-1-0.3-1.9-0.6-2.8-1c-0.5-0.7-1.2-1.4-1.7-2c-0.6-0.7-1.5-1.4-2.5-1.3
			c-1.4,0.1-1.6,1.1-0.8,2.1c0.3,0.5,0.8,0.8,1.4,1.1c-0.5,0.1-1.1,0.3-1.4,0.6c-0.8,0.8-0.1,1.6,0.8,1.8c1.1,0.2,2.2-0.2,3.2-0.4
			c0.7-0.1,1.6-0.1,2.3-0.1c0.6,0.2,1.3,0.4,1.8,0.6c-1.6-0.1-3.4,0.1-4.7,0.8c-0.7,0.4-1.5,1.7-0.1,1.8c2.1,0.3,4.2-1.2,5.9-2.2
			v-0.1c1.7,0.6,3.4,1.3,5.1,2.1c-0.5,0-1.1,0.1-1.6,0.2c-1,0.2-2.1,1.4-0.7,2c1.8,0.8,3.9,0.4,5.8-0.1c1.7,1.1,3.4,2.2,5.1,3.4
			c-1.8-0.6-3.8-1-5.6-0.5c-1.1,0.2-2.3,1.5-0.7,2.1c2.4,1.1,5.4,0.2,7.7-0.5V131c0.7,0.5,1.5,1.2,2.2,1.7c0.3,0.3,0.7,0.5,1.1,0.8
			c-2.4-1-5.2-1.5-7.6-1c-1.4,0.3-3,1.8-1,2.8c3.3,1.6,7.2,0.5,10.4-0.3c1.1,0.8,2,1.7,3.1,2.5c-2.4-0.1-7.5-0.5-9.1-0.5
			c-0.7,0-2.5,0.2-2.1,1.4c0.2,0.6,1.6,1.3,2.3,1.4c1.5,0.3,7-0.1,10.5-1c0.7,0.6,1.5,1.2,2.2,1.8c0.3,0.2,0.5,0.4,0.8,0.6
			c-3.6-0.4-10.7-0.8-12.4-0.3c-0.8,0.3-2.2,1-2,2.1s2,1.1,2.9,1.3c2.1,0.4,8.6-0.6,9.8-1.1c1-0.3,1.8-0.8,2.7-1.2
			c0.6,0.5,1.2,1.1,1.7,1.6c-2.9,0.5-9.3,1.5-11.4,1.9c-1,0.2-3,1-2.1,2.3c0.5,0.7,2.3,1.1,3.2,1.1c1.8,0,7.6-1.9,11.7-3.8
			c1.7,1.8,3.3,3.7,5,5.6C51.4,151.8,52.3,151.1,51.8,150.5z"/>
	</g>
	<g>
		<g>
			
				<linearGradient id="SVGID_13_" gradientUnits="userSpaceOnUse" x1="98.4422" y1="-162.2225" x2="92.3338" y2="-201.4905" gradientTransform="matrix(0.9467 0.3221 0.3221 -0.9467 155.261 -27.5595)">
				<stop  offset="0" style="stop-color:#B4F492"/>
				<stop  offset="0.2989" style="stop-color:#8AD292"/>
				<stop  offset="0.7738" style="stop-color:#4DA092"/>
				<stop  offset="1" style="stop-color:#358C92"/>
			</linearGradient>
			<path class="st13" d="M173.9,181.3c0,0,6.7-10.6,20.1-10.7c0,0,0.1,11.7-5.6,20.9C182.7,200.8,173.9,181.3,173.9,181.3z"/>
			<path class="st9" d="M179.1,189.5c0,0,4.2-8.5,9.5-13.3c0,0-5.1,6.8-9,15.9L179.1,189.5z"/>
		</g>
		<g>
			
				<linearGradient id="SVGID_14_" gradientUnits="userSpaceOnUse" x1="70.7033" y1="-185.4391" x2="96.3004" y2="-207.5459" gradientTransform="matrix(0.9467 0.3221 0.3221 -0.9467 155.261 -27.5595)">
				<stop  offset="0" style="stop-color:#B4F492"/>
				<stop  offset="0.2989" style="stop-color:#8AD292"/>
				<stop  offset="0.7738" style="stop-color:#4DA092"/>
				<stop  offset="1" style="stop-color:#358C92"/>
			</linearGradient>
			<path class="st14" d="M178.7,200.5c0,0,6.4-14.5-1.2-22.6c-7.4-8.2-12.3-8.6-12.3-8.6s-7.4,20.5,5.4,32.7L178.7,200.5z"/>
			<path class="st9" d="M176.9,199c0,0-8.5-13.5-9.8-27.1c0,0-0.3,15,8.6,27.6L176.9,199z"/>
		</g>
		<g>
			
				<linearGradient id="SVGID_15_" gradientUnits="userSpaceOnUse" x1="130.1746" y1="-194.9217" x2="75.7821" y2="-207.4291" gradientTransform="matrix(0.9467 0.3221 0.3221 -0.9467 155.261 -27.5595)">
				<stop  offset="0" style="stop-color:#B4F492"/>
				<stop  offset="0.2989" style="stop-color:#8AD292"/>
				<stop  offset="0.7738" style="stop-color:#4DA092"/>
				<stop  offset="1" style="stop-color:#358C92"/>
			</linearGradient>
			<path class="st15" d="M172.4,196.9c9.8-14.4,25-9.8,34.2-10.6c0,0-2.9,17.9-21.6,20.5C177.7,207.2,169.5,207.1,172.4,196.9z"/>
			<path class="st9" d="M178,200.1c0,0,9.8-7.9,20.7-8.6c0,0-15.9,4.7-19.8,10.7L178,200.1z"/>
		</g>
	</g>
	<g>
		<g>
			<g>
				<g>
					<path class="st16" d="M189.2,197.7h-11.4c-0.2,0-0.5-0.1-0.6-0.4c-0.1-0.2-0.1-0.5,0.1-0.7l10.9-11.8l1,0.8l-9.9,10.7h9.9
						V197.7z"/>
					<path class="st16" d="M189.2,149.4h-11.4c-0.2,0-0.5-0.1-0.6-0.4c-0.1-0.2-0.1-0.5,0.1-0.7l10.9-11.8l1,0.8l-9.9,10.7h9.9
						V149.4z"/>
					<path class="st16" d="M189.2,161.4h-11.4c-0.2,0-0.5-0.1-0.6-0.4c-0.1-0.2-0.1-0.5,0.1-0.7l10.9-11.8l1,0.8l-9.9,10.7h9.9
						V161.4z"/>
					<path class="st16" d="M189.2,173.5h-11.4c-0.2,0-0.5-0.1-0.6-0.4c-0.1-0.2-0.1-0.5,0.1-0.7l10.9-11.8l1,0.8l-9.9,10.7h9.9
						V173.5z"/>
					<path class="st16" d="M189.2,185.6h-11.4c-0.2,0-0.5-0.1-0.6-0.4c-0.1-0.2-0.1-0.5,0.1-0.7l10.9-11.8l1,0.8l-9.9,10.7h9.9
						V185.6z"/>
					<path class="st16" d="M189.2,137.6h-11.4c-0.2,0-0.5-0.1-0.6-0.4c-0.1-0.2-0.1-0.5,0.1-0.7l10.9-11.8l1,0.8l-9.9,10.7h9.9
						V137.6z"/>
					<path class="st16" d="M189.2,125.7h-11.4c-0.2,0-0.5-0.1-0.6-0.4c-0.1-0.2-0.1-0.5,0.1-0.7l10.9-11.8l1,0.8l-9.9,10.7h9.9
						V125.7z"/>
					<path class="st16" d="M189.2,114h-11.4c-0.2,0-0.5-0.1-0.6-0.4c-0.1-0.2-0.1-0.5,0.1-0.7l10.9-11.8l1,0.8l-9.9,10.7h9.9V114z"
						/>
					<path class="st16" d="M177.2,102.2h11.4c0.2,0,0.5-0.1,0.6-0.4c0.1-0.2,0.1-0.5-0.1-0.7l-10.9-11.8l-1,0.8l9.9,10.7h-9.9V102.2
						z"/>
					<path class="st16" d="M189.2,90.4h-11.4c-0.2,0-0.5-0.1-0.6-0.4c-0.1-0.2-0.1-0.5,0.1-0.7l10.9-11.8l1,0.8L179.3,89h9.9V90.4z"
						/>
					<path class="st16" d="M177.2,197.7h11.4c0.2,0,0.5-0.1,0.6-0.4c0.1-0.2,0.1-0.5-0.1-0.7l-10.9-11.8l-1,0.8l9.9,10.7h-9.9V197.7
						z"/>
					<path class="st16" d="M177.2,149.4h11.4c0.2,0,0.5-0.1,0.6-0.4c0.1-0.2,0.1-0.5-0.1-0.7l-10.9-11.8l-1,0.8l9.9,10.7h-9.9V149.4
						z"/>
					<path class="st16" d="M177.2,161.4h11.4c0.2,0,0.5-0.1,0.6-0.4c0.1-0.2,0.1-0.5-0.1-0.7l-10.9-11.8l-1,0.8l9.9,10.7h-9.9V161.4
						z"/>
					<path class="st16" d="M177.2,173.5h11.4c0.2,0,0.5-0.1,0.6-0.4c0.1-0.2,0.1-0.5-0.1-0.7l-10.9-11.8l-1,0.8l9.9,10.7h-9.9V173.5
						z"/>
					<path class="st16" d="M177.2,185.6h11.4c0.2,0,0.5-0.1,0.6-0.4c0.1-0.2,0.1-0.5-0.1-0.7l-10.9-11.8l-1,0.8l9.9,10.7h-9.9V185.6
						z"/>
					<path class="st16" d="M177.2,137.6h11.4c0.2,0,0.5-0.1,0.6-0.4c0.1-0.2,0.1-0.5-0.1-0.7l-10.9-11.8l-1,0.8l9.9,10.7h-9.9V137.6
						z"/>
					<path class="st16" d="M177.2,125.7h11.4c0.2,0,0.5-0.1,0.6-0.4c0.1-0.2,0.1-0.5-0.1-0.7l-10.9-11.8l-1,0.8l9.9,10.7h-9.9V125.7
						z"/>
					<path class="st16" d="M177.2,114h11.4c0.2,0,0.5-0.1,0.6-0.4c0.1-0.2,0.1-0.5-0.1-0.7l-11-11.9l-1,0.8l9.9,10.7h-9.9L177.2,114
						L177.2,114z"/>
					<path class="st16" d="M189.2,102.2h-11.4c-0.2,0-0.5-0.1-0.6-0.4c-0.1-0.2-0.1-0.5,0.1-0.7l10.9-11.8l1,0.8l-9.9,10.7h9.9
						V102.2z"/>
					<path class="st16" d="M177.2,90.4h11.4c0.2,0,0.5-0.1,0.6-0.4c0.1-0.2,0.1-0.5-0.1-0.7l-10.9-11.8l-1,0.8l9.9,10.7h-9.9V90.4z"
						/>
				</g>
				<g>
					<path class="st16" d="M189.7,203h-12.8V74.4h12.8V203z M178.2,201.6h10.2V75.8h-10.2V201.6z"/>
				</g>
			</g>
			
				<linearGradient id="SVGID_16_" gradientUnits="userSpaceOnUse" x1="183.3" y1="-749.2531" x2="183.3" y2="-765.1653" gradientTransform="matrix(1 0 0 -1 0 -558)">
				<stop  offset="0" style="stop-color:#FCEE99"/>
				<stop  offset="0.6107" style="stop-color:#FDC182"/>
				<stop  offset="1" style="stop-color:#FEA975"/>
			</linearGradient>
			<rect x="175.2" y="196.1" class="st17" width="16.2" height="11.7"/>
			
				<linearGradient id="SVGID_17_" gradientUnits="userSpaceOnUse" x1="177.95" y1="-671.1906" x2="177.95" y2="-616.4988" gradientTransform="matrix(1 0 0 -1 0 -558)">
				<stop  offset="0" style="stop-color:#595B68"/>
				<stop  offset="0.5384" style="stop-color:#38404E"/>
				<stop  offset="1" style="stop-color:#202D3B"/>
			</linearGradient>
			<rect x="165.4" y="61.8" class="st18" width="25.1" height="21.2"/>
			
				<linearGradient id="SVGID_18_" gradientUnits="userSpaceOnUse" x1="208.85" y1="-662.8417" x2="208.85" y2="-618.5924" gradientTransform="matrix(1 0 0 -1 0 -558)">
				<stop  offset="0" style="stop-color:#595B68"/>
				<stop  offset="0.5384" style="stop-color:#38404E"/>
				<stop  offset="1" style="stop-color:#202D3B"/>
			</linearGradient>
			<rect x="196.3" y="61.8" class="st19" width="25.1" height="12.2"/>
			
				<linearGradient id="SVGID_19_" gradientUnits="userSpaceOnUse" x1="183.4" y1="-758.0194" x2="183.4" y2="-771.7951" gradientTransform="matrix(1 0 0 -1 0 -558)">
				<stop  offset="0" style="stop-color:#595B68"/>
				<stop  offset="0.5384" style="stop-color:#38404E"/>
				<stop  offset="1" style="stop-color:#202D3B"/>
			</linearGradient>
			<rect x="169.7" y="205.6" class="st20" width="27.4" height="5.1"/>
			<g>
				<g>
					<path class="st16" d="M221,61.8H103.1c-0.4,0-0.7-0.3-0.7-0.7s0.3-0.7,0.7-0.7H221c0.4,0,0.7,0.3,0.7,0.7
						C221.9,61.3,221.5,61.8,221,61.8z"/>
				</g>
				<g>
					<path class="st16" d="M177.5,61.5c-0.1,0-0.2,0-0.3-0.1l-6.6-6.6h-60.7l-6.3,6.3c-0.1,0.1-0.4,0.1-0.5,0s-0.1-0.4,0-0.5
						l6.5-6.5H171l6.9,6.9c0.1,0.1,0.1,0.4,0,0.5C177.7,61.4,177.6,61.5,177.5,61.5z"/>
				</g>
				<g>
					<path class="st16" d="M221.5,61.5c-0.1,0-0.3-0.1-0.3-0.2l-6.6-12.6h-16.1l0.1,12.3c-0.1,0.2-0.3,0.3-0.5,0.2s-0.3-0.3-0.2-0.5
						L198,48h17.1l6.9,13c0.1,0.2,0,0.4-0.2,0.5C221.7,61.5,221.6,61.5,221.5,61.5z"/>
				</g>
				<g>
					<path class="st16" d="M126.6,54.8c-0.2,0-0.3-0.1-0.4-0.3s0.1-0.4,0.2-0.5l58.8-17.8c0.1,0,0.2,0,0.3,0L206.9,48
						c0.2,0.1,0.3,0.3,0.2,0.5s-0.3,0.3-0.5,0.2L185.3,37L126.6,54.8L126.6,54.8z"/>
				</g>
				<g>
					<path class="st16" d="M176,61.5c-0.1,0-0.2,0-0.3,0c-0.4-0.1-0.6-0.6-0.4-1.1l9.2-24.3c0.1-0.3,0.4-0.5,0.8-0.5
						c0.3,0,0.6,0.3,0.7,0.6l4.8,23.8c0.1,0.4-0.2,0.8-0.6,1c-0.4,0.1-0.8-0.2-1-0.6l-4.2-21l-8.3,21.7
						C176.7,61.3,176.3,61.5,176,61.5z"/>
				</g>
				
					<linearGradient id="SVGID_20_" gradientUnits="userSpaceOnUse" x1="185.2" y1="-556.8104" x2="185.2" y2="-650.9461" gradientTransform="matrix(1 0 0 -1 0 -558)">
					<stop  offset="0" style="stop-color:#60CDF9"/>
					<stop  offset="0.2339" style="stop-color:#5DAFF1"/>
					<stop  offset="0.7529" style="stop-color:#5872E1"/>
					<stop  offset="1" style="stop-color:#565ADB"/>
				</linearGradient>
				<path class="st21" d="M186.8,36.4c0,0.8-0.7,1.6-1.6,1.6s-1.6-0.7-1.6-1.6s0.7-1.6,1.6-1.6C186.1,34.8,186.8,35.6,186.8,36.4z"
					/>
				<g>
					
						<linearGradient id="SVGID_21_" gradientUnits="userSpaceOnUse" x1="203.5375" y1="-556.8104" x2="203.5375" y2="-650.9461" gradientTransform="matrix(1 0 0 -1 0 -558)">
						<stop  offset="0" style="stop-color:#60CDF9"/>
						<stop  offset="0.2339" style="stop-color:#5DAFF1"/>
						<stop  offset="0.7529" style="stop-color:#5872E1"/>
						<stop  offset="1" style="stop-color:#565ADB"/>
					</linearGradient>
					<path class="st22" d="M209,61.5c-0.1,0-0.2,0-0.3-0.1l-10.1-12V61c0,0.2-0.2,0.4-0.4,0.4s-0.4-0.2-0.4-0.4V48.4
						c0-0.2,0.1-0.3,0.2-0.4c0.1-0.1,0.3,0,0.4,0.1l10.8,12.7c0.1,0.2,0.1,0.4,0,0.5C209.2,61.5,209.1,61.5,209,61.5z"/>
				</g>
				<g>
					
						<linearGradient id="SVGID_22_" gradientUnits="userSpaceOnUse" x1="212.6828" y1="-556.8103" x2="212.6828" y2="-650.9461" gradientTransform="matrix(1 0 0 -1 0 -558)">
						<stop  offset="0" style="stop-color:#60CDF9"/>
						<stop  offset="0.2339" style="stop-color:#5DAFF1"/>
						<stop  offset="0.7529" style="stop-color:#5872E1"/>
						<stop  offset="1" style="stop-color:#565ADB"/>
					</linearGradient>
					<path class="st23" d="M216.9,61.5c-0.1,0-0.2-0.1-0.3-0.2l-7.7-11.7V61c0,0.2-0.2,0.4-0.4,0.4s-0.4-0.2-0.4-0.4V48.4
						c0-0.2,0.1-0.3,0.3-0.4c0.2,0,0.3,0,0.4,0.2l8.4,12.7c0.1,0.2,0.1,0.4-0.1,0.5C217,61.5,216.9,61.5,216.9,61.5z"/>
				</g>
				<g>
					<path class="st16" d="M209,61.5c-0.1,0-0.2,0-0.3-0.1l-10.1-12V61c0,0.2-0.2,0.4-0.4,0.4s-0.4-0.2-0.4-0.4V48.4
						c0-0.2,0.1-0.3,0.2-0.4c0.1-0.1,0.3,0,0.4,0.1l10.8,12.7c0.1,0.2,0.1,0.4,0,0.5C209.2,61.5,209.1,61.5,209,61.5z"/>
				</g>
				<g>
					<path class="st16" d="M216.9,61.5c-0.1,0-0.2-0.1-0.3-0.2l-7.7-11.7V61c0,0.2-0.2,0.4-0.4,0.4s-0.4-0.2-0.4-0.4V48.4
						c0-0.2,0.1-0.3,0.3-0.4c0.2,0,0.3,0,0.4,0.2l8.4,12.7c0.1,0.2,0.1,0.4-0.1,0.5C217,61.5,216.9,61.5,216.9,61.5z"/>
				</g>
				<g>
					<g>
						<path class="st16" d="M118.2,61.5c-0.1,0-0.2,0-0.2-0.1l-7.7-6.3V61c0,0.2-0.2,0.4-0.4,0.4c-0.2,0-0.4-0.2-0.4-0.4v-6.7
							c0-0.1,0.1-0.3,0.2-0.3c0.1-0.1,0.3,0,0.4,0l8.4,6.8c0.2,0.1,0.2,0.4,0.1,0.5C118.4,61.5,118.3,61.5,118.2,61.5z"/>
					</g>
					<g>
						<path class="st16" d="M125.7,61.5c-0.1,0-0.2,0-0.2-0.1l-7.7-6.3V61c0,0.2-0.2,0.4-0.4,0.4c-0.2,0-0.4-0.2-0.4-0.4v-6.7
							c0-0.1,0.1-0.3,0.2-0.3c0.1-0.1,0.3,0,0.4,0l8.4,6.8c0.2,0.1,0.2,0.4,0.1,0.5C125.9,61.5,125.8,61.5,125.7,61.5z"/>
					</g>
					<g>
						<path class="st16" d="M133.3,61.5c-0.1,0-0.2,0-0.2-0.1l-7.7-6.3V61c0,0.2-0.2,0.4-0.4,0.4c-0.2,0-0.4-0.2-0.4-0.4v-6.7
							c0-0.1,0.1-0.3,0.2-0.3c0.1-0.1,0.3,0,0.4,0l8.4,6.8c0.2,0.1,0.2,0.4,0.1,0.5C133.5,61.5,133.4,61.5,133.3,61.5z"/>
					</g>
					<g>
						<path class="st16" d="M140.8,61.5c-0.1,0-0.2,0-0.2-0.1l-7.7-6.3V61c0,0.2-0.2,0.4-0.4,0.4s-0.4-0.2-0.4-0.4v-6.7
							c0-0.1,0.1-0.3,0.2-0.3c0.1-0.1,0.3,0,0.4,0l8.4,6.8c0.2,0.1,0.2,0.4,0.1,0.5C141,61.5,140.9,61.5,140.8,61.5z"/>
					</g>
					<g>
						<path class="st16" d="M148.3,61.5c-0.1,0-0.2,0-0.2-0.1l-7.7-6.3V61c0,0.2-0.2,0.4-0.4,0.4s-0.4-0.2-0.4-0.4v-6.7
							c0-0.1,0.1-0.3,0.2-0.3c0.1-0.1,0.3,0,0.4,0l8.4,6.8c0.2,0.1,0.2,0.4,0.1,0.5C148.5,61.5,148.4,61.5,148.3,61.5z"/>
					</g>
					<g>
						<path class="st16" d="M155.9,61.5c-0.1,0-0.2,0-0.2-0.1l-7.7-6.3V61c0,0.2-0.2,0.4-0.4,0.4s-0.4-0.2-0.4-0.4v-6.7
							c0-0.1,0.1-0.3,0.2-0.3c0.1-0.1,0.3,0,0.4,0l8.4,6.8c0.2,0.1,0.2,0.4,0.1,0.5C156.1,61.5,156,61.5,155.9,61.5z"/>
					</g>
					<g>
						<path class="st16" d="M163.4,61.5c-0.1,0-0.2,0-0.2-0.1l-7.7-6.3V61c0,0.2-0.2,0.4-0.4,0.4s-0.4-0.2-0.4-0.4v-6.7
							c0-0.1,0.1-0.3,0.2-0.3c0.1-0.1,0.3,0,0.4,0l8.4,6.8c0.2,0.1,0.2,0.4,0.1,0.5C163.6,61.5,163.5,61.5,163.4,61.5z"/>
					</g>
					<g>
						<path class="st16" d="M170.9,61.5c-0.1,0-0.2,0-0.2-0.1l-7.7-6.3V61c0,0.2-0.2,0.4-0.4,0.4s-0.4-0.2-0.4-0.4v-6.7
							c0-0.1,0.1-0.3,0.2-0.3c0.1-0.1,0.3,0,0.4,0l8.4,6.8c0.2,0.1,0.2,0.4,0.1,0.5C171.1,61.5,171,61.5,170.9,61.5z"/>
					</g>
					<g>
						<path class="st16" d="M161.6,61.5c0.1,0,0.2,0,0.2-0.1l7.7-6.3V61c0,0.2,0.2,0.4,0.4,0.4s0.4-0.2,0.4-0.4v-6.7
							c0-0.1-0.1-0.3-0.2-0.3c-0.1-0.1-0.3,0-0.4,0l-8.4,6.8c-0.2,0.1-0.2,0.4-0.1,0.5C161.4,61.5,161.5,61.5,161.6,61.5z"/>
					</g>
					<g>
						<path class="st16" d="M154.1,61.5c0.1,0,0.2,0,0.2-0.1l7.7-6.3V61c0,0.2,0.2,0.4,0.4,0.4s0.4-0.2,0.4-0.4v-6.7
							c0-0.1-0.1-0.3-0.2-0.3c-0.1-0.1-0.3,0-0.4,0l-8.4,6.8c-0.2,0.1-0.2,0.4-0.1,0.5C153.8,61.5,154,61.5,154.1,61.5z"/>
					</g>
					<g>
						<path class="st16" d="M146.5,61.5c0.1,0,0.2,0,0.2-0.1l7.7-6.3V61c0,0.2,0.2,0.4,0.4,0.4s0.4-0.2,0.4-0.4v-6.7
							c0-0.1-0.1-0.3-0.2-0.3c-0.1-0.1-0.3,0-0.4,0l-8.4,6.8c-0.2,0.1-0.2,0.4-0.1,0.5C146.3,61.5,146.4,61.5,146.5,61.5z"/>
					</g>
					<g>
						<path class="st16" d="M139,61.5c0.1,0,0.2,0,0.2-0.1l7.7-6.3V61c0,0.2,0.2,0.4,0.4,0.4s0.4-0.2,0.4-0.4v-6.7
							c0-0.1-0.1-0.3-0.2-0.3c-0.1-0.1-0.3,0-0.4,0l-8.4,6.8c-0.2,0.1-0.2,0.4-0.1,0.5C138.8,61.5,138.9,61.5,139,61.5z"/>
					</g>
					<g>
						<path class="st16" d="M131.5,61.5c0.1,0,0.2,0,0.2-0.1l7.7-6.3V61c0,0.2,0.2,0.4,0.4,0.4s0.4-0.2,0.4-0.4v-6.7
							c0-0.1-0.1-0.3-0.2-0.3c-0.1-0.1-0.3,0-0.4,0l-8.4,6.8c-0.2,0.1-0.2,0.4-0.1,0.5C131.2,61.5,131.4,61.5,131.5,61.5z"/>
					</g>
					<g>
						<path class="st16" d="M123.9,61.5c0.1,0,0.2,0,0.2-0.1l7.7-6.3V61c0,0.2,0.2,0.4,0.4,0.4s0.4-0.2,0.4-0.4v-6.7
							c0-0.1-0.1-0.3-0.2-0.3c-0.1-0.1-0.3,0-0.4,0l-8.4,6.8c-0.2,0.1-0.2,0.4-0.1,0.5C123.7,61.5,123.8,61.5,123.9,61.5z"/>
					</g>
					<g>
						<path class="st16" d="M116.4,61.5c0.1,0,0.2,0,0.2-0.1l7.7-6.3V61c0,0.2,0.2,0.4,0.4,0.4c0.2,0,0.4-0.2,0.4-0.4v-6.7
							c0-0.1-0.1-0.3-0.2-0.3c-0.1-0.1-0.3,0-0.4,0l-8.4,6.8c-0.2,0.1-0.2,0.4-0.1,0.5C116.2,61.5,116.3,61.5,116.4,61.5z"/>
					</g>
					<g>
						<path class="st16" d="M108.9,61.5c0.1,0,0.2,0,0.2-0.1l7.7-6.3V61c0,0.2,0.2,0.4,0.4,0.4c0.2,0,0.4-0.2,0.4-0.4v-6.7
							c0-0.1-0.1-0.3-0.2-0.3c-0.1-0.1-0.3,0-0.4,0l-8.4,6.8c-0.2,0.1-0.2,0.4-0.1,0.5C108.7,61.5,108.8,61.5,108.9,61.5z"/>
					</g>
				</g>
			</g>
			
				<linearGradient id="SVGID_23_" gradientUnits="userSpaceOnUse" x1="106.4304" y1="-622.6" x2="112.2461" y2="-622.6" gradientTransform="matrix(1 0 0 -1 0 -558)">
				<stop  offset="0" style="stop-color:#FCEE99"/>
				<stop  offset="0.6107" style="stop-color:#FDC182"/>
				<stop  offset="1" style="stop-color:#FEA975"/>
			</linearGradient>
			<path class="st24" d="M112.3,64.6c0,1.6-1.3,2.9-2.9,2.9s-2.9-1.3-2.9-2.9s1.3-2.9,2.9-2.9C111,61.8,112.3,63,112.3,64.6z"/>
			
				<linearGradient id="SVGID_24_" gradientUnits="userSpaceOnUse" x1="115.6406" y1="-692.1682" x2="106.5263" y2="-697.247" gradientTransform="matrix(1 0 0 -1 0 -558)">
				<stop  offset="0" style="stop-color:#FCEE99"/>
				<stop  offset="0.6107" style="stop-color:#FDC182"/>
				<stop  offset="1" style="stop-color:#FEA975"/>
			</linearGradient>
			<path class="st25" d="M109.3,140.3c-2.5,0-1.3-3,0-3s2.3-1.4,2.3-3c0-0.8,0.4-1.5,1.2-1.5c0.7,0,1.2,0.6,1.2,1.5
				C114,137.6,111.8,140.3,109.3,140.3"/>
		</g>
		<g>
			
				<linearGradient id="SVGID_25_" gradientUnits="userSpaceOnUse" x1="102.475" y1="-570.0651" x2="101.2026" y2="-858.8976" gradientTransform="matrix(1 0 0 -1 0 -558)">
				<stop  offset="0" style="stop-color:#796393"/>
				<stop  offset="0.5669" style="stop-color:#51396C"/>
				<stop  offset="1" style="stop-color:#361D52"/>
			</linearGradient>
			<path class="st26" d="M169.9,101.9h-136c-1.5,0-2.7,1.2-2.7,2.7v98.7h141.3v-98.7C172.5,103,171.2,101.9,169.9,101.9z"/>
			
				<linearGradient id="SVGID_26_" gradientUnits="userSpaceOnUse" x1="-31.7173" y1="-589.8263" x2="175.0455" y2="-770.5054" gradientTransform="matrix(1 0 0 -1 0 -558)">
				<stop  offset="0" style="stop-color:#FFFFFF"/>
				<stop  offset="0.5591" style="stop-color:#DBE6F9"/>
				<stop  offset="1" style="stop-color:#C3D6F5"/>
			</linearGradient>
			<path class="st27" d="M36.5,107.2h130.6v82.6H36.5V107.2z"/>
			<g>
				<path class="st28" d="M28.6,201.8h-5.3c-0.7,0-1.4-0.6-1.4-1.4c0-0.7,0.6-1.4,1.4-1.4h5.3c0.7,0,1.4,0.6,1.4,1.4
					C29.9,201.3,29.3,201.8,28.6,201.8z"/>
				<path class="st28" d="M39.3,201.8H34c-0.7,0-1.4-0.6-1.4-1.4c0-0.7,0.6-1.4,1.4-1.4h5.3c0.7,0,1.4,0.6,1.4,1.4
					C40.5,201.3,39.9,201.8,39.3,201.8z"/>
				<path class="st28" d="M49.9,201.8h-5.3c-0.7,0-1.4-0.6-1.4-1.4c0-0.7,0.6-1.4,1.4-1.4h5.3c0.7,0,1.4,0.6,1.4,1.4
					C51.3,201.3,50.6,201.8,49.9,201.8z"/>
				<path class="st28" d="M60.6,201.8h-5.3c-0.7,0-1.4-0.6-1.4-1.4c0-0.7,0.6-1.4,1.4-1.4h5.3c0.7,0,1.4,0.6,1.4,1.4
					C61.9,201.3,61.2,201.8,60.6,201.8z"/>
				<path class="st28" d="M71.2,201.8h-5.3c-0.7,0-1.4-0.6-1.4-1.4c0-0.7,0.6-1.4,1.4-1.4h5.3c0.7,0,1.4,0.6,1.4,1.4
					C72.6,201.3,71.9,201.8,71.2,201.8z"/>
				<path class="st28" d="M81.9,201.8h-5.3c-0.7,0-1.4-0.6-1.4-1.4c0-0.7,0.6-1.4,1.4-1.4h5.3c0.7,0,1.4,0.6,1.4,1.4
					C83.2,201.3,82.6,201.8,81.9,201.8z"/>
				<path class="st28" d="M127.2,201.8h-5.3c-0.7,0-1.4-0.6-1.4-1.4c0-0.7,0.6-1.4,1.4-1.4h5.3c0.7,0,1.4,0.6,1.4,1.4
					C128.5,201.3,128,201.8,127.2,201.8z"/>
				<path class="st28" d="M116.5,201.8H87.2c-0.7,0-1.4-0.6-1.4-1.4c0-0.7,0.6-1.4,1.4-1.4h29.4c0.7,0,1.4,0.6,1.4,1.4
					C117.9,201.3,117.2,201.8,116.5,201.8z"/>
				<path class="st28" d="M137.8,201.8h-5.3c-0.7,0-1.4-0.6-1.4-1.4c0-0.7,0.6-1.4,1.4-1.4h5.3c0.7,0,1.4,0.6,1.4,1.4
					C139.2,201.3,138.6,201.8,137.8,201.8z"/>
				<path class="st28" d="M148.5,201.8h-5.3c-0.7,0-1.4-0.6-1.4-1.4c0-0.7,0.6-1.4,1.4-1.4h5.3c0.7,0,1.4,0.6,1.4,1.4
					C149.8,201.3,149.3,201.8,148.5,201.8z"/>
				<path class="st28" d="M159.2,201.8h-5.3c-0.7,0-1.4-0.6-1.4-1.4c0-0.7,0.6-1.4,1.4-1.4h5.3c0.7,0,1.4,0.6,1.4,1.4
					C160.5,201.3,159.9,201.8,159.2,201.8z"/>
				<path class="st28" d="M169.9,201.8h-5.3c-0.7,0-1.4-0.6-1.4-1.4c0-0.7,0.6-1.4,1.4-1.4h5.3c0.7,0,1.4,0.6,1.4,1.4
					C171.1,201.3,170.6,201.8,169.9,201.8z"/>
				<path class="st28" d="M180.5,201.8h-5.3c-0.7,0-1.4-0.6-1.4-1.4c0-0.7,0.6-1.4,1.4-1.4h5.3c0.7,0,1.4,0.6,1.4,1.4
					C181.9,201.3,181.2,201.8,180.5,201.8z"/>
			</g>
			
				<linearGradient id="SVGID_27_" gradientUnits="userSpaceOnUse" x1="101.85" y1="-753.9663" x2="101.85" y2="-767.7571" gradientTransform="matrix(1 0 0 -1 0 -558)">
				<stop  offset="0" style="stop-color:#796393"/>
				<stop  offset="0.5669" style="stop-color:#51396C"/>
				<stop  offset="1" style="stop-color:#361D52"/>
			</linearGradient>
			<path class="st29" d="M185.8,200.5v5.3c0,3-2.3,5.3-5.3,5.3H23.2c-3,0-5.3-2.3-5.3-5.3v-5.3H185.8z"/>
			
				<linearGradient id="SVGID_28_" gradientUnits="userSpaceOnUse" x1="92.7475" y1="-750.3791" x2="109.2885" y2="-766.9201" gradientTransform="matrix(1 0 0 -1 0 -558)">
				<stop  offset="0" style="stop-color:#FFFFFF"/>
				<stop  offset="0.5591" style="stop-color:#DBE6F9"/>
				<stop  offset="1" style="stop-color:#C3D6F5"/>
			</linearGradient>
			<path class="st30" d="M116.5,200.5H87.2h-1.4v1.4c0,0.7,0.6,1.4,1.4,1.4h29.3c0.7,0,1.4-0.6,1.4-1.4v-1.4H116.5z"/>
			<g>
				
					<linearGradient id="SVGID_29_" gradientUnits="userSpaceOnUse" x1="104.9905" y1="-685.7" x2="116.4037" y2="-685.7" gradientTransform="matrix(1 0 0 -1 0 -558)">
					<stop  offset="0" style="stop-color:#FA8696"/>
					<stop  offset="0.6767" style="stop-color:#C24972"/>
					<stop  offset="1" style="stop-color:#AC3164"/>
				</linearGradient>
				<path class="st31" d="M114.3,122h-7c-1.2,0-2.2,1-2.2,2.2v7c0,1.2,1,2.2,2.2,2.2h7c1.2,0,2.2-1,2.2-2.2v-7
					C116.4,123,115.4,122,114.3,122z"/>
				<g>
					
						<linearGradient id="SVGID_30_" gradientUnits="userSpaceOnUse" x1="43.8" y1="-680.7" x2="85.2984" y2="-680.7" gradientTransform="matrix(1 0 0 -1 0 -558)">
						<stop  offset="0" style="stop-color:#595B68"/>
						<stop  offset="0.5384" style="stop-color:#38404E"/>
						<stop  offset="1" style="stop-color:#202D3B"/>
					</linearGradient>
					<path class="st32" d="M84.5,123.7H44.8c-0.5,0-1-0.4-1-1l0,0c0-0.5,0.4-1,1-1h39.6c0.5,0,1,0.4,1,1l0,0
						C85.4,123.3,85,123.7,84.5,123.7z"/>
					
						<linearGradient id="SVGID_31_" gradientUnits="userSpaceOnUse" x1="43.8" y1="-686.6" x2="85.2984" y2="-686.6" gradientTransform="matrix(1 0 0 -1 0 -558)">
						<stop  offset="0" style="stop-color:#595B68"/>
						<stop  offset="0.5384" style="stop-color:#38404E"/>
						<stop  offset="1" style="stop-color:#202D3B"/>
					</linearGradient>
					<path class="st33" d="M84.5,129.6H44.8c-0.5,0-1-0.4-1-1l0,0c0-0.5,0.4-1,1-1h39.6c0.5,0,1,0.4,1,1l0,0
						C85.4,129.1,85,129.6,84.5,129.6z"/>
					
						<linearGradient id="SVGID_32_" gradientUnits="userSpaceOnUse" x1="43.8" y1="-692.3" x2="85.2984" y2="-692.3" gradientTransform="matrix(1 0 0 -1 0 -558)">
						<stop  offset="0" style="stop-color:#595B68"/>
						<stop  offset="0.5384" style="stop-color:#38404E"/>
						<stop  offset="1" style="stop-color:#202D3B"/>
					</linearGradient>
					<path class="st34" d="M84.5,135.3H44.8c-0.5,0-1-0.4-1-1l0,0c0-0.5,0.4-1,1-1h39.6c0.5,0,1,0.4,1,1l0,0
						C85.4,134.9,85,135.3,84.5,135.3z"/>
					
						<linearGradient id="SVGID_33_" gradientUnits="userSpaceOnUse" x1="43.8" y1="-698" x2="85.2984" y2="-698" gradientTransform="matrix(1 0 0 -1 0 -558)">
						<stop  offset="0" style="stop-color:#595B68"/>
						<stop  offset="0.5384" style="stop-color:#38404E"/>
						<stop  offset="1" style="stop-color:#202D3B"/>
					</linearGradient>
					<path class="st35" d="M84.5,141H44.8c-0.5,0-1-0.4-1-1l0,0c0-0.5,0.4-1,1-1h39.6c0.5,0,1,0.4,1,1l0,0
						C85.4,140.6,85,141,84.5,141z"/>
				</g>
				<g>
					
						<linearGradient id="SVGID_34_" gradientUnits="userSpaceOnUse" x1="43.8297" y1="-706.2" x2="85.5771" y2="-706.2" gradientTransform="matrix(1 0 0 -1 0 -558)">
						<stop  offset="0" style="stop-color:#595B68"/>
						<stop  offset="0.5384" style="stop-color:#38404E"/>
						<stop  offset="1" style="stop-color:#202D3B"/>
					</linearGradient>
					<path class="st36" d="M84.9,148.9H44.6c-0.4,0-0.7-0.3-0.7-0.7l0,0c0-0.4,0.3-0.7,0.7-0.7h40.3c0.4,0,0.7,0.3,0.7,0.7l0,0
						C85.6,148.5,85.3,148.9,84.9,148.9z"/>
					
						<linearGradient id="SVGID_35_" gradientUnits="userSpaceOnUse" x1="43.8297" y1="-710.3" x2="85.5771" y2="-710.3" gradientTransform="matrix(1 0 0 -1 0 -558)">
						<stop  offset="0" style="stop-color:#595B68"/>
						<stop  offset="0.5384" style="stop-color:#38404E"/>
						<stop  offset="1" style="stop-color:#202D3B"/>
					</linearGradient>
					<path class="st37" d="M84.9,153H44.6c-0.4,0-0.7-0.3-0.7-0.7l0,0c0-0.4,0.3-0.7,0.7-0.7h40.3c0.4,0,0.7,0.3,0.7,0.7l0,0
						C85.6,152.7,85.3,153,84.9,153z"/>
					
						<linearGradient id="SVGID_36_" gradientUnits="userSpaceOnUse" x1="43.8297" y1="-714.5" x2="85.5771" y2="-714.5" gradientTransform="matrix(1 0 0 -1 0 -558)">
						<stop  offset="0" style="stop-color:#595B68"/>
						<stop  offset="0.5384" style="stop-color:#38404E"/>
						<stop  offset="1" style="stop-color:#202D3B"/>
					</linearGradient>
					<path class="st38" d="M84.9,157.2H44.6c-0.4,0-0.7-0.3-0.7-0.7l0,0c0-0.4,0.3-0.7,0.7-0.7h40.3c0.4,0,0.7,0.3,0.7,0.7l0,0
						C85.6,156.9,85.3,157.2,84.9,157.2z"/>
					
						<linearGradient id="SVGID_37_" gradientUnits="userSpaceOnUse" x1="43.8297" y1="-718.7" x2="85.5771" y2="-718.7" gradientTransform="matrix(1 0 0 -1 0 -558)">
						<stop  offset="0" style="stop-color:#595B68"/>
						<stop  offset="0.5384" style="stop-color:#38404E"/>
						<stop  offset="1" style="stop-color:#202D3B"/>
					</linearGradient>
					<path class="st39" d="M84.9,161.4H44.6c-0.4,0-0.7-0.3-0.7-0.7l0,0c0-0.4,0.3-0.7,0.7-0.7h40.3c0.4,0,0.7,0.3,0.7,0.7l0,0
						C85.6,161.1,85.3,161.4,84.9,161.4z"/>
				</g>
				<g>
					
						<linearGradient id="SVGID_38_" gradientUnits="userSpaceOnUse" x1="43.4" y1="-728.1" x2="160.2" y2="-728.1" gradientTransform="matrix(1 0 0 -1 0 -558)">
						<stop  offset="0" style="stop-color:#595B68"/>
						<stop  offset="0.5384" style="stop-color:#38404E"/>
						<stop  offset="1" style="stop-color:#202D3B"/>
					</linearGradient>
					<path class="st40" d="M159.6,170.8H44.1c-0.4,0-0.7-0.3-0.7-0.7l0,0c0-0.4,0.3-0.7,0.7-0.7h115.4c0.4,0,0.7,0.3,0.7,0.7l0,0
						C160.2,170.5,160,170.8,159.6,170.8z"/>
					
						<linearGradient id="SVGID_39_" gradientUnits="userSpaceOnUse" x1="43.4" y1="-732.4" x2="160.2" y2="-732.4" gradientTransform="matrix(1 0 0 -1 0 -558)">
						<stop  offset="0" style="stop-color:#595B68"/>
						<stop  offset="0.5384" style="stop-color:#38404E"/>
						<stop  offset="1" style="stop-color:#202D3B"/>
					</linearGradient>
					<path class="st41" d="M159.6,175.1H44.1c-0.4,0-0.7-0.3-0.7-0.7l0,0c0-0.4,0.3-0.7,0.7-0.7h115.4c0.4,0,0.7,0.3,0.7,0.7l0,0
						C160.2,174.7,160,175.1,159.6,175.1z"/>
					
						<linearGradient id="SVGID_40_" gradientUnits="userSpaceOnUse" x1="43.4" y1="-736.5" x2="160.2" y2="-736.5" gradientTransform="matrix(1 0 0 -1 0 -558)">
						<stop  offset="0" style="stop-color:#595B68"/>
						<stop  offset="0.5384" style="stop-color:#38404E"/>
						<stop  offset="1" style="stop-color:#202D3B"/>
					</linearGradient>
					<path class="st42" d="M159.6,179.2H44.1c-0.4,0-0.7-0.3-0.7-0.7l0,0c0-0.4,0.3-0.7,0.7-0.7h115.4c0.4,0,0.7,0.3,0.7,0.7l0,0
						C160.2,178.9,160,179.2,159.6,179.2z"/>
					
						<linearGradient id="SVGID_41_" gradientUnits="userSpaceOnUse" x1="43.4" y1="-740.7" x2="160.2" y2="-740.7" gradientTransform="matrix(1 0 0 -1 0 -558)">
						<stop  offset="0" style="stop-color:#595B68"/>
						<stop  offset="0.5384" style="stop-color:#38404E"/>
						<stop  offset="1" style="stop-color:#202D3B"/>
					</linearGradient>
					<path class="st43" d="M159.6,183.4H44.1c-0.4,0-0.7-0.3-0.7-0.7l0,0c0-0.4,0.3-0.7,0.7-0.7h115.4c0.4,0,0.7,0.3,0.7,0.7l0,0
						C160.2,183.1,160,183.4,159.6,183.4z"/>
				</g>
				
					<linearGradient id="SVGID_42_" gradientUnits="userSpaceOnUse" x1="120.7" y1="-704.9" x2="139.1739" y2="-704.9" gradientTransform="matrix(1 0 0 -1 0 -558)">
					<stop  offset="0" style="stop-color:#FCEE99"/>
					<stop  offset="0.6107" style="stop-color:#FDC182"/>
					<stop  offset="1" style="stop-color:#FEA975"/>
				</linearGradient>
				<path class="st44" d="M135.6,137.7h-11.4c-1.9,0-3.5,1.6-3.5,3.5v11.4c0,1.9,1.6,3.5,3.5,3.5h11.4c1.9,0,3.5-1.6,3.5-3.5v-11.4
					C139.2,139.3,137.6,137.7,135.6,137.7z"/>
				
					<linearGradient id="SVGID_43_" gradientUnits="userSpaceOnUse" x1="142.5892" y1="-704.9" x2="161.0631" y2="-704.9" gradientTransform="matrix(1 0 0 -1 0 -558)">
					<stop  offset="0" style="stop-color:#FA8696"/>
					<stop  offset="0.6767" style="stop-color:#C24972"/>
					<stop  offset="1" style="stop-color:#AC3164"/>
				</linearGradient>
				<path class="st45" d="M157.6,137.7h-11.4c-1.9,0-3.5,1.6-3.5,3.5v11.4c0,1.9,1.6,3.5,3.5,3.5h11.4c1.9,0,3.5-1.6,3.5-3.5v-11.4
					C161.1,139.3,159.5,137.7,157.6,137.7z"/>
				
					<linearGradient id="SVGID_44_" gradientUnits="userSpaceOnUse" x1="146.1195" y1="-686.5" x2="157.5264" y2="-686.5" gradientTransform="matrix(1 0 0 -1 0 -558)">
					<stop  offset="0" style="stop-color:#FCEE99"/>
					<stop  offset="0.6107" style="stop-color:#FDC182"/>
					<stop  offset="1" style="stop-color:#FEA975"/>
				</linearGradient>
				<path class="st46" d="M155.3,122.8h-7c-1.2,0-2.2,1-2.2,2.2v7c0,1.2,1,2.2,2.2,2.2h7c1.2,0,2.2-1,2.2-2.2v-7
					C157.6,123.7,156.6,122.8,155.3,122.8z"/>
				
					<linearGradient id="SVGID_45_" gradientUnits="userSpaceOnUse" x1="124.2286" y1="-685.7" x2="135.6418" y2="-685.7" gradientTransform="matrix(1 0 0 -1 0 -558)">
					<stop  offset="0" style="stop-color:#FA8696"/>
					<stop  offset="0.6767" style="stop-color:#C24972"/>
					<stop  offset="1" style="stop-color:#AC3164"/>
				</linearGradient>
				<path class="st47" d="M133.5,122h-7c-1.2,0-2.2,1-2.2,2.2v7c0,1.2,1,2.2,2.2,2.2h7c1.2,0,2.2-1,2.2-2.2v-7
					C135.6,123,134.6,122,133.5,122z"/>
			</g>
		</g>
		<g>
			<g>
				<rect x="109" y="66.2" class="st16" width="0.7" height="51.6"/>
			</g>
			
				<linearGradient id="SVGID_46_" gradientUnits="userSpaceOnUse" x1="109.0648" y1="-675.0173" x2="109.0648" y2="-697.4899" gradientTransform="matrix(1 0 0 -1 0 -558)">
				<stop  offset="0" style="stop-color:#FCEE99"/>
				<stop  offset="0.6107" style="stop-color:#FDC182"/>
				<stop  offset="1" style="stop-color:#FEA975"/>
			</linearGradient>
			<path class="st48" d="M112.8,132.8c-0.7,0-1.2,0.6-1.2,1.5c0,1.6-1.1,3-2.3,3s-2.3-1.4-2.3-3s1.1-3,2.3-3c0.2,0,0.4-0.1,0.5-0.2
				c0.3-0.2,0.5-0.7,0.5-1.3v-4.5c0-0.8-0.4-1.5-1.2-1.5c-0.7,0-1.2,0.6-1.2,1.5v3.2c-2,0.6-3.5,3-3.5,5.7c0,3.3,2.1,5.9,4.6,5.9
				s4.6-2.7,4.6-5.9C114,133.5,113.4,132.8,112.8,132.8z"/>
			
				<linearGradient id="SVGID_47_" gradientUnits="userSpaceOnUse" x1="109.3" y1="-696.0286" x2="109.3" y2="-675.3482" gradientTransform="matrix(1 0 0 -1 0 -558)">
				<stop  offset="0" style="stop-color:#FCEE99"/>
				<stop  offset="0.6107" style="stop-color:#FDC182"/>
				<stop  offset="1" style="stop-color:#FEA975"/>
			</linearGradient>
			<path class="st49" d="M107.7,125.5v-1.8c0-2.7,0.5-5.2,1.6-7.1c1.1,1.9,1.6,4.5,1.6,7.1v1.8H107.7L107.7,125.5z"/>
			
				<linearGradient id="SVGID_48_" gradientUnits="userSpaceOnUse" x1="96.9213" y1="-702.972" x2="119.3661" y2="-702.972" gradientTransform="matrix(1 0 0 -1 0 -558)">
				<stop  offset="0" style="stop-color:#595B68"/>
				<stop  offset="0.5384" style="stop-color:#38404E"/>
				<stop  offset="1" style="stop-color:#202D3B"/>
			</linearGradient>
			<path class="st50" d="M109,134.1l-10.1,5.3c-1.7,1-2.4,3.1-1.5,4.8l5.3,10.1c1,1.7,3.1,2.4,4.8,1.5l10.1-5.3
				c1.7-1,2.4-3.1,1.5-4.8l-5.3-10.1C112.8,133.9,110.7,133.3,109,134.1z"/>
		</g>
	</g>
	<g>
		<path class="st51" d="M86.8,206.8c0.1-0.7,0.6-1.2,1-1.7c0.3-0.5,0.8-2.9,0.8-2.9l0,0c0.6-2.4,1.4-6.2,2-8.6
			c0.6-2.3,1.8-4.3,2-5.2c0.2-0.7-0.2-11.8-0.3-12.6c-0.2-0.8-0.6-1.8-1-3.6c-0.5-3.6,2.5-6.9,2.5-6.9l5.2,5.5
			c-0.8,8.5-1.5,14.9-2.3,18.4c-0.7,3.3-5.3,10.8-7.4,17.4c-0.1,0.5-0.2,1-0.2,1.1c0.1,0.3,0.4,1.5,0.5,1.7c0,0.1,1.2,1,0.4,1
			c-0.7,0-2.5-2.3-2.8-2.5C86.9,207.6,86.8,207.2,86.8,206.8z"/>
		<path id="XMLID_20_" class="st52" d="M96.7,138.6c0,0,3.5,0.1,1.6,4C96.5,146.5,96.7,138.6,96.7,138.6z"/>
		<path id="XMLID_19_" class="st53" d="M97.6,140c0,0,1,0.5,1,3.6c0,0.1,0.4,1.1,0.4,1.2c0.1,0.4-0.1,0.4-0.5,0.6
			c-0.1,2.3-0.5,2.2-0.8,2.4s-3-0.3-4.8-1.2c-1.7-0.8-2.3-3.4-1.6-5C92.1,140.2,95.6,138.7,97.6,140z"/>
		<path id="XMLID_45_" class="st52" d="M89.9,142.2c-0.3,1.5,0.4,3.7,3.3,4.7c0,0,0.2-0.8,0.4-1.7c0.2-0.8,2.7-1.8,3.6-2.8l0.1-0.1
			c0.7-0.7,0.7-2,0-2.9c-0.6-0.7-1.9-1.9-4.2-1.2C91.1,138.9,90.2,140.4,89.9,142.2z"/>
		<path id="XMLID_44_" class="st53" d="M96.8,145.4c-0.4,0.5-0.5,1.5-0.5,2.4c0,0.2,0,0.3,0,0.4c0.1,1,0.2,1.8,0.2,1.8l-3.3-0.1
			c0.1-1.2-0.1-3.2-0.1-3.2S97.8,144.3,96.8,145.4z"/>
		<path id="XMLID_41_" class="st54" d="M96.3,148.3c-1.2-0.4-2.2-1.1-2.2-1.1c1,0.3,2.1,0.6,2.1,0.6C96.3,148,96.3,148.1,96.3,148.3
			z"/>
		<path id="XMLID_18_" class="st53" d="M100.6,161.3c0.4-0.2,0.8-0.6,1.2-1c0.3-0.4,0.6-0.7,1-1.2c0.1-0.1,0.2-0.3,0.3-0.5
			c-0.4,0-0.7,0.4-1.2,0.6c-0.1,0-0.2-0.1-0.2-0.2c0.2-0.8,0.6-1.6,1.1-2.3c0.1-0.2,0.2-0.4,0.1-0.6c-0.6,0.2-1.1,0.6-1.5,1.1
			c-0.3,0.3-0.5,0.6-0.8,1.1c-0.7,1.1-1.2,2.3-1.5,3.6L100.6,161.3z"/>
		<path class="st53" d="M86.8,206.8c0.1-0.7,0.6-1.2,1-1.7c0.3-0.5,0.8-2.9,0.8-2.9l0,0c0.6-2.4,1.4-6.2,2-8.6
			c0.6-2.3,1.8-4.3,2-5.2c0.2-0.7-0.2-11.8-0.3-12.6c-0.2-0.8-0.6-1.8-1-3.6c-0.5-3.6,2.5-6.9,2.5-6.9l5.2,5.5
			c-0.8,8.5-1.5,14.9-2.3,18.4c-0.7,3.3-5.3,10.8-7.4,17.4c-0.1,0.5-0.2,1-0.2,1.1c0.1,0.3,0.4,1.5,0.5,1.7c0,0.1,1.2,1,0.4,1
			c-0.7,0-2.5-2.3-2.8-2.5C86.9,207.6,86.8,207.2,86.8,206.8z"/>
		<g class="st55">
			<path d="M94.3,195.3c0.1-1,1.7-4.9,1.8-5.8c0.2-2.1-0.2-4.3-1-6.3l3.2-5.4h0.1c0,0.3-0.1,0.6-0.1,1c0,0.2-0.1,0.5-0.1,0.7
				c0,0.3-0.1,0.6-0.1,1.1c-0.1,1.2-0.2,2.2-0.4,3.3c0,0.2-0.1,0.5-0.1,0.7c-0.1,0.6-0.2,1.2-0.2,1.7c-0.1,0.5-0.2,1.1-0.2,1.5
				c0,0.3-0.1,0.5-0.2,0.8c0,0.1,0,0.2-0.1,0.3c0,0.1,0,0.2-0.1,0.3c0,0.1,0,0.1,0,0.2l-0.7,1.9L94.3,195.3z"/>
		</g>
		<path id="XMLID_39_" class="st56" d="M91.1,210.7c-0.3-0.4-1.2-1-1.2-1l0,0c-0.1-0.2-0.6-2.8-0.5-2.7c0.1,0.2-0.4,0.3-0.6,0.1
			c-0.8-0.7-0.7,0.7-1.2,0.3c-0.6-0.7-0.2-1.6-0.1-1.8c-0.2,0-1.1,0.4-1.3,0.5c-0.2,0.1-0.5,0.5-0.6,0.7s1.1,1.3,1.1,1.3
			s0,0,0.2,0.2s0.4,0.6,0.4,0.8c0,0.1,0.1,0.4,0.2,0.6c0.1,0.3,0.3,0.6,0.6,0.8c0,0,0.2,0.1,0.3,0.3c0.2,0.2,0.6,0.3,1,0.3h1.4l0,0
			H91c0.2,0,0.4-0.2,0.4-0.4C91.3,210.9,91.1,210.8,91.1,210.7z"/>
		<path id="XMLID_148_" class="st53" d="M103,210c-0.1-0.1-1.4-0.5-2-0.8c-0.5-0.3-1.3-1.2-1.4-1.5s0.1-2.1,0.2-2.8
			c0.5-5,2.3-12.2,2.8-15.1c0.6-5.1,0.5-10.4-0.7-18.7l-6.8-6.3c0,0-2.3,3.6-2,7.3c0.2,2.1,1.9,2.7,2.1,3.5s3.4,14.4,3.4,14.4
			s-1.1,2.8-1.5,5.8c-0.3,2.7,0.4,5.9,0.4,9c0,0.6-0.1,2-0.3,2.4c-0.3,0.5-0.8,1.2-1,1.8c0,0.4,0.2,0.4,0.6,0.6
			c0.5,0.2,0.8-0.1,1-0.1c1.1,0,1.3,1.2,3.1,1.4c0.5,0,1.4-0.2,1.8-0.5C103.1,210.4,103.1,210.2,103,210z"/>
		<path id="XMLID_16_" class="st56" d="M103.1,210.6c-0.1,0.1-0.2,0.3-0.3,0.4c-0.3,0.2-0.7,0.3-1.2,0.3h-0.8c-0.3,0-0.7-0.1-1-0.3
			c-0.2-0.1-0.5-0.3-0.5-0.3c-0.2-0.2-0.5-0.3-0.8-0.4c-0.3,0-0.5,0-0.5,0s-1.5-0.3-1.6-0.4c-0.1-0.2,0-0.6,0.1-1
			c0.1-0.2,0.6-1.1,0.7-1.2c0,0.2,0.3,1.2,1.2,1.3c0.6,0.1-0.2-1.4,1-1.4c0.3,0,0.6-0.4,0.4-0.5s2,2.1,2.3,2.2
			c0.3,0.1,1,0.4,1.2,0.5C103.2,210.1,103.2,210.4,103.1,210.6z"/>
		<path id="XMLID_50_" class="st57" d="M103,185c0,0-1.2,0.5-5.3,0.7c-0.4,0-0.7,0-1.2,0c-0.3,0-0.5,0-0.7,0c-2.2,0-3.3-0.2-3.3-0.4
			s-1.2-9-1.6-10.3c-0.1-0.5-0.8-2.1-0.7-4.5c0.1-2.4,2-5.2,2.5-5.7l8.8-0.1c0,0,1.5,3.6,1.7,5.8C103.5,175.2,103,185,103,185z"/>
		<path id="XMLID_248_" class="st53" d="M88.4,157.8c0,0,0.3,1.8,0.5,2.5s1.3,5.4,2.3,5.3c1.1-0.1,6.6-4.8,6.6-4.8l-0.7-1.6
			l-4.9,2.3c0,0-0.4-5.3-0.8-6.6L88.4,157.8z"/>
		<path id="XMLID_153_" class="st56" d="M93,149.4c0,0-1.7,0.1-3,1.1c-2.1,1.6-1.6,7.6-1.6,7.6s-0.1,0.3,1.3,0.2s2.5-0.5,2.5-0.5
			l-0.4-4.8L93,149.4z"/>
		
			<linearGradient id="XMLID_2_" gradientUnits="userSpaceOnUse" x1="-4321.9941" y1="-704.6437" x2="-4322.3057" y2="-708.0739" gradientTransform="matrix(-1 0 0 -1 -4226.8994 -558)">
			<stop  offset="0" style="stop-color:#FA8696"/>
			<stop  offset="0.6767" style="stop-color:#C24972"/>
			<stop  offset="1" style="stop-color:#AC3164"/>
		</linearGradient>
		<path id="XMLID_205_" class="st58" d="M92.6,149.7c0.1-0.4,0.2-0.8,0.5-1c0.1,0,0.2-0.1,0.3-0.1c1.1-0.1,1-0.2,2.1-0.2
			c0.4,0,1,0,1.4,0.2c0.6,0.3,1,1.1,1.3,1.7L92.6,149.7z"/>
		<path id="XMLID_14_" class="st56" d="M101.3,163.3c-0.3-0.6-0.5-3.2-0.4-3.8c0.1-0.7,0.7-1.1,1.1-2.7c0.3-2-0.4-3.6-1-4.2
			c-0.6-1-1.6-2.9-1.7-3c-2.8-0.8-3.2-0.4-5-0.3c-1,0-1.5,0.1-2.3,0.3c-1,0.2-2.1,0.5-2.3,1.9c-0.3,2,0,4.1,0.5,6.2
			c0.4,1.3,2.9,5.8,2.3,6.7c-0.1,0.2-0.5,0.5-0.5,0.8c-0.1,1,1.3,1.2,2.8,1.3c1.4,0.1,2.8,0.1,4.2,0
			C102.9,166,101.5,163.5,101.3,163.3z"/>
		<path id="XMLID_167_" class="st53" d="M100.4,156.4c0,0,3.4,8.1,4.8,8.1c1.1,0,3.6-7.4,3.6-7.4l-1.6-0.7l-1.8,3.1l-2.2-5.5
			L100.4,156.4z"/>
		<path id="XMLID_168_" class="st53" d="M106.8,156.8c0,0,0.5-0.8,0.5-1.5c0-0.2-0.1-1.4,0-1.6c0.1-0.2,0.4-1,0.5-1.1
			s0.7-0.3,0.8-0.2s0.3-0.3,0.5-0.3s0.4,0.2,0.4,0.4s0.3,0.2,0.3,0.4c0,0.1,0,0.3,0.1,0.4c0.1,0.1,0.2,0.1,0.3,0.3
			c0.1,0.3,0,0.3,0,0.4c0,0.1,0.1,0.1,0.1,0.4c0,0.2-0.2,0.6-0.4,0.8c-0.1,0.3-0.5,0.6-1,1c-0.2,0.1-0.3,0.3-0.5,0.7L106.8,156.8z"
			/>
		<g id="XMLID_29_">
			<path id="XMLID_171_" class="st54" d="M108.8,152.6c-0.2,0.3-0.4,0.4-0.6,0.6c-0.1,0.1-0.1,0.2-0.3,0.4c0.3,0,0.2-0.2,0.6-0.4
				c0.2-0.1,0.3-0.3,0.4-0.5C108.9,152.6,108.8,152.6,108.8,152.6L108.8,152.6z"/>
		</g>
		<path id="XMLID_12_" class="st56" d="M96.8,149.2c0.8,0,3.6,0.3,5.3,2.8c1,1.4,1.8,3.3,2.2,4.6c-0.6,0.8-2.4,1.6-3.8,1.6
			c-0.1,0-1.1-1.9-1.4-3.9L96.8,149.2z"/>
		<path class="st52" d="M95.9,144.6c0,0-1.6,2-1.6,6.3c0,3.6,0.7,5.7,0.7,5.7s-0.4,0.8-1.4,0.4c0,0-2.3,1.5-3.8,0.2
			c-2-1.8,0.1-15.7,0.1-15.7s3.4,0.5,3.5,0.5C93.6,142.1,95.9,144.6,95.9,144.6z"/>
		<g id="XMLID_43_" class="st59">
			<path class="st60" d="M95.7,143.5c0,0-0.4-0.6-1.1-0.3s-0.2,1.6,0.2,1.7c0.4,0.2,0.7-0.1,0.7-0.1L95.7,143.5z"/>
		</g>
		<path id="XMLID_42_" class="st53" d="M95.9,143.5c0,0-0.4-0.6-1.1-0.3s-0.3,1.6,0.2,1.7c0.4,0.1,0.6-0.2,0.6-0.2L95.9,143.5z"/>
	</g>
	<g>
		<g>
			
				<linearGradient id="SVGID_49_" gradientUnits="userSpaceOnUse" x1="-4475.6768" y1="-772.8979" x2="-4474.8384" y2="-742.5487" gradientTransform="matrix(-1 0 0 -1 -4456.1162 -558)">
				<stop  offset="0" style="stop-color:#595B68"/>
				<stop  offset="0.2489" style="stop-color:#545764"/>
				<stop  offset="0.5348" style="stop-color:#464C59"/>
				<stop  offset="0.8378" style="stop-color:#2F3947"/>
				<stop  offset="1" style="stop-color:#202D3B"/>
			</linearGradient>
			<path class="st61" d="M12.9,210.9H26c0-0.6-0.3-1.3-0.7-1.7c-0.4-0.4-1.1-0.7-1.7-0.7l0,0c0,0-2.8-0.3-2.8-2.7v-13.6h-2.7v13.6
				c0,2.2-2.8,2.7-2.8,2.7l0,0C14,208.5,12.9,209.5,12.9,210.9z"/>
			
				<linearGradient id="SVGID_50_" gradientUnits="userSpaceOnUse" x1="-4481.7544" y1="-730.3531" x2="-4469.0112" y2="-770.9305" gradientTransform="matrix(-1 0 0 -1 -4456.1162 -558)">
				<stop  offset="0" style="stop-color:#595B68"/>
				<stop  offset="0.5384" style="stop-color:#38404E"/>
				<stop  offset="1" style="stop-color:#202D3B"/>
			</linearGradient>
			<path class="st62" d="M6.8,192.3H32c-0.4-2.3-2.4-4-4.8-3.9h-7.9h-7.9C9.2,188.2,7.2,189.9,6.8,192.3z"/>
		</g>
		<g>
			<g>
				<g>
					<path class="st16" d="M23.2,165.9c0.6,2.2,3.9,8.2,5.2,8.9c1.7,1.1,6.8,3.2,9.5,4.2c0.5,0.2-1.3,2.2-1.3,2.2s-7-1.7-9.8-3.4
						c-0.8-0.5-2.5-2.1-4.8-5.4c-0.6-1-2.2-3-2.3-4.3C19.5,166.5,21.4,165.4,23.2,165.9z"/>
				</g>
			</g>
			<path class="st53" d="M31.1,206l-0.1,2.7c0,0,0.6,0.5,2,0.2l0.5-2.8L31.1,206z"/>
			<path class="st63" d="M32.5,208.5c0,0,0.4-0.5,0.7-0.5s2.2,1.8,3.2,2c1,0.1,0.8,1.2,0.5,1.3c-0.4,0.1-6.4,0-6.4,0s-0.2-2.1,0-2.7
				C30.7,208,31.7,208.6,32.5,208.5z"/>
			<path class="st64" d="M24.2,183.9c0,0,10.1-1.7,13.2,0.2c2.3,1.5-3.6,22.7-3.6,22.7c-1.1,0.3-2.5-0.1-3.1-0.7c0,0-1-2.5-0.1-9.8
				c0.1-1,0-3.2,1.1-7.1l-7.6-3.4L24.2,183.9z"/>
			<path class="st16" d="M15.3,163.1c0,0-2.8,0.8-4.2,2.1s-0.2,4.9-0.3,7c0,2.1,0.3,14.2,3.5,15.7c2.4,1.2,12.5-0.6,11.8-3.7
				c-0.5-2-1.4-5.8-2.1-11c-0.4-3.4-0.2-5.8-0.6-7.3c-0.4-1.4-5.1-3-5.1-3L15.3,163.1z"/>
			<path class="st52" d="M22.1,157.3c-0.4,2.1-2.7,3.5-5,3.1s-3.7-2.3-3.3-4.5s2.3-3.5,4.7-3.2C20.9,153.3,22.5,155.3,22.1,157.3z"
				/>
			<path class="st53" d="M13.4,156.9c0.2-0.2,0.5-0.2,0.7,0l0,0c0-0.3,0.1-0.7,0.1-1.1c0.1-0.8,0.8-1.6,1.8-1.8c1.4-0.2,3.3-0.3,5,1
				c0.6,0.4,0.8,1.2,0.7,1.9c0,0.3-0.1,0.6-0.2,1.1c0.2,0,0.3,0.1,0.5,0.3c0.3,0.6-0.4,2.1-1.4,2c-0.5,1-1.3,1.8-2.2,2l-0.2,1.3
				c0,0-0.6,0.8-1.5,0.6c-0.8-0.2-1.5-1.2-1.5-1.2l0.2-1.3c-0.7-0.6-1.1-1.7-1.2-2.5v-0.1C13,159.6,12.7,157.5,13.4,156.9z"/>
			<path class="st53" d="M25.4,206l-0.1,2.7c0,0,0.6,0.5,2,0.2l0.5-2.8L25.4,206z"/>
			<path class="st63" d="M26.9,208.5c0,0,0.4-0.5,0.7-0.5c0.3,0,2.2,1.8,3.2,2c1,0.1,0.8,1.2,0.5,1.3c-0.4,0.1-6.4,0-6.4,0
				s-0.2-2.1,0-2.7C25.2,208,26.1,208.6,26.9,208.5z"/>
			<path class="st65" d="M30.2,199.5c0,0,3.3-8.8,3.3-13.4c0-1.8-0.2-2-1.8-2.1C30.1,183.8,30.2,199.5,30.2,199.5z"/>
			<path class="st64" d="M12.1,184.1c0,0,17.5-1,20.5,0c2.5,0.8-4.5,22.7-4.5,22.7c-1.1,0.3-2.5-0.1-3.1-0.7c0,0-0.5-1.3,0.3-8.6
				c0.1-1,0.2-3.9,1.3-7.9L15,189.7c-2.4,0-3.3-2.1-3-4.6L12.1,184.1z"/>
			<path class="st53" d="M29,179.3c0,0,2.7,0.4,3.7,1.3c1.1,0.8,2.5,1.6,2.3,2s-1.8-0.5-1.8-0.5s-0.3,0.8-1.6,1.2
				c-1.3,0.3-4-1.7-4-1.7L29,179.3z"/>
			<g class="st66">
				<path d="M11.5,165.1c1.5,2.1,7.1,9.3,8.4,10.2c1.7,1.1,2,2.7,4.8,3.7c0.5,0.2,0.7,2.2,0.7,2.2s-4.2-1.3-7.1-3
					c-0.8-0.5-4.1-3.6-6.3-6.4c-0.7-1-1.3-1.3-1.5-2.1C10.1,168.2,10.2,165.6,11.5,165.1z"/>
			</g>
			<g class="st66">
				<path d="M11.6,164.7c1.5,2.1,7.3,9,8.6,9.9c1.7,1.1,1.6,1.3,4.2,2.3l0.4,2.3c0,0-3.4,0-6.3-1.7c-0.8-0.5-4.1-3.6-6.3-6.4
					c-0.7-1-1.9-2.3-2.1-3.7C10,165.8,10.3,165.3,11.6,164.7z"/>
			</g>
			<g>
				<path class="st16" d="M11.6,164.7c1.5,2.1,7.1,9.3,8.4,10.2c1.7,1.1,6.3,3.4,9,4.5c0.5,0.2-1.1,2.3-1.1,2.3s-6.7-2-9.4-3.7
					c-0.8-0.5-4.1-3.6-6.3-6.4c-0.7-1-1.9-2.3-2.1-3.7C9.8,166.2,10.3,165.3,11.6,164.7z"/>
			</g>
			<g>
				
					<linearGradient id="SVGID_51_" gradientUnits="userSpaceOnUse" x1="-4475.0854" y1="-740.8574" x2="-4492.9932" y2="-741.1921" gradientTransform="matrix(-1 0 0 -1 -4456.1162 -558)">
					<stop  offset="0" style="stop-color:#767AA4"/>
					<stop  offset="0.5524" style="stop-color:#5C6081"/>
					<stop  offset="1" style="stop-color:#4B4F69"/>
				</linearGradient>
				<path class="st67" d="M25.6,184.1h12.7c0.5,0,1-0.4,1-1l0,0c0-0.5-0.4-1-1-1H25.6c-0.5,0-1,0.4-1,1l0,0
					C24.6,183.7,25.1,184.1,25.6,184.1z"/>
				
					<linearGradient id="SVGID_52_" gradientUnits="userSpaceOnUse" x1="-4500.8027" y1="-738.05" x2="-4489.0391" y2="-738.05" gradientTransform="matrix(-1 0 0 -1 -4456.1162 -558)">
					<stop  offset="0" style="stop-color:#767AA4"/>
					<stop  offset="0.5524" style="stop-color:#5C6081"/>
					<stop  offset="1" style="stop-color:#4B4F69"/>
				</linearGradient>
				<path class="st68" d="M40.3,184.1c0.8,0,1.6-0.5,1.9-1.3l2.4-6c0.2-0.4-0.3-0.8-1-0.8H37c-0.4,0-0.8,0.2-1,0.4l-3.3,7.6h7.4v0.1
					H40.3z"/>
				
					<linearGradient id="SVGID_53_" gradientUnits="userSpaceOnUse" x1="-4492.5386" y1="-728.3406" x2="-4489.1851" y2="-746.9526" gradientTransform="matrix(-1 0 0 -1 -4456.1162 -558)">
					<stop  offset="0" style="stop-color:#767AA4"/>
					<stop  offset="0.5524" style="stop-color:#5C6081"/>
					<stop  offset="1" style="stop-color:#4B4F69"/>
				</linearGradient>
				<path class="st69" d="M36.2,176.3l-3.3,7.6h-0.7l3.3-7.6c0.1-0.3,0.5-0.4,1-0.4h0.7C36.7,175.9,36.3,176.1,36.2,176.3z"/>
				
					<linearGradient id="SVGID_54_" gradientUnits="userSpaceOnUse" x1="-4496.6987" y1="-737.5" x2="-4493.9648" y2="-737.5" gradientTransform="matrix(-1 0 0 -1 -4456.1162 -558)">
					<stop  offset="0" style="stop-color:#FFFFFF"/>
					<stop  offset="0.5591" style="stop-color:#DBE6F9"/>
					<stop  offset="1" style="stop-color:#C3D6F5"/>
				</linearGradient>
				<path class="st70" d="M37.9,179.5c-0.2,0.7,0.3,1.4,1.1,1.4s1.5-0.6,1.6-1.4c0.2-0.7-0.3-1.4-1.1-1.4
					C38.7,178.2,38.1,178.8,37.9,179.5z"/>
			</g>
			<path class="st52" d="M14.1,156.8c0,0,3.5,0,4.2-1.4c0,0,0,0.8,0.4,1.4c0,0,1.3-1.3,1.7-0.6c0.4,0.5,0.4,2.7,1.1,1.8
				c1.5-2-1-3.7-1-3.7l-3.5-0.7C17.1,153.5,13.9,153.3,14.1,156.8z"/>
		</g>
	</g>
	<g>
		<g>
			
				<linearGradient id="SVGID_55_" gradientUnits="userSpaceOnUse" x1="2659.6401" y1="-749.9113" x2="2647.5156" y2="-771.8605" gradientTransform="matrix(1 0 0 -1 -2523.4043 -558)">
				<stop  offset="0" style="stop-color:#B4F492"/>
				<stop  offset="0.2989" style="stop-color:#8AD292"/>
				<stop  offset="0.7738" style="stop-color:#4DA092"/>
				<stop  offset="1" style="stop-color:#358C92"/>
			</linearGradient>
			<path class="st71" d="M128.1,211c0,0-5.4-4.5-3.7-16.2c0,0,0.5,2.1,4.9,4.1c4.3,2,8.3,6.2,6.3,12.7L128.1,211z"/>
			<path class="st9" d="M132.6,210.2c0,0-5.1-5.9-6.9-11.7c0,0,0.7,5,6.5,12.3L132.6,210.2z"/>
		</g>
		<g>
			
				<linearGradient id="SVGID_56_" gradientUnits="userSpaceOnUse" x1="2633.9448" y1="-753.5944" x2="2652.3406" y2="-781.606" gradientTransform="matrix(1 0 0 -1 -2523.4043 -558)">
				<stop  offset="0" style="stop-color:#B4F492"/>
				<stop  offset="0.2989" style="stop-color:#8AD292"/>
				<stop  offset="0.7738" style="stop-color:#4DA092"/>
				<stop  offset="1" style="stop-color:#358C92"/>
			</linearGradient>
			<path class="st72" d="M119,212c0,0-6.3-1.8-10.1-5.4c0,0,13.2-9.2,20.4,4.2L119,212z"/>
			<path class="st9" d="M125.6,210.7c0,0-4.2-3.6-11.2-3.8c0,0,6.8,0.7,10.4,4.1L125.6,210.7z"/>
		</g>
	</g>
</g>
<g>
	<path class="st73" d="M101.9,140.8v-0.2c0-0.1,0-0.1,0.1-0.1h3.1h0.1c0.1,0.1,0.1,0.1,0.2,0.2c1,1.7,2,3.4,3,5.1
		c0.1,0.1,0.1,0.1,0.2,0.1c1.1-0.2,2.1-0.5,3.2-0.7l0,0c0.1,0,0.1-0.1,0.1-0.2l0,0c-0.3-0.5-0.7-1.1-1.1-1.6c-0.2-0.3,0-0.5,0.3-0.4
		c0.4,0,1,0,1.4-0.2c0.3-0.1,0.4-0.1,0.6,0.2c0.3,0.6,0.6,1.2,1.2,1.6c0.3,0.2,0.2,0.5-0.1,0.5c-0.4,0.1-0.8,0.2-1.2,0.3l0,0
		c-0.1,0-0.1,0.1-0.1,0.2l0,0c0.4,0.5,0.7,1.2,1.2,1.7c0.2,0.3,0.1,0.4-0.2,0.5c-1,0.3-1.9,0.6-2.9,1c-0.4,0.1-0.7,0.2-1.2,0.4h-0.1
		c-0.1-0.1-0.2-0.1-0.2-0.2c-0.4-0.7-0.8-1.5-1.3-2.2c0-0.1-0.1-0.1-0.2-0.1c-0.8,0.2-1.7,0.4-2.5,0.6c-0.2,0.1-0.3,0-0.4-0.2
		c-0.5-1.1-1.2-2.1-1.7-3.2C102.9,142.8,102.4,141.9,101.9,140.8C101.9,140.9,101.9,140.9,101.9,140.8z"/>
</g>
</svg>
