<?xml version="1.0" encoding="utf-8"?>
<!-- Generator: Adobe Illustrator 24.3.0, SVG Export Plug-In . SVG Version: 6.00 Build 0)  -->
<svg version="1.1" id="Layer_1" xmlns="http://www.w3.org/2000/svg" xmlns:xlink="http://www.w3.org/1999/xlink" x="0px" y="0px"
	 viewBox="0 0 225 232.7" style="enable-background:new 0 0 225 232.7;" xml:space="preserve">
<style type="text/css">
	.st0{fill:#D4ECFF;}
	.st1{fill:#EE54A1;}
	.st2{fill:#5793CE;}
	.st3{fill:#396CAA;}
	.st4{fill:url(#SVGID_1_);}
	.st5{fill:#EAEAEA;}
	.st6{fill:#099EC6;}
	.st7{fill:#FFC2B0;}
	.st8{fill:#323441;}
	.st9{fill:#0093ED;}
	.st10{fill:#FFFFFF;}
	.st11{fill:#EA9C92;}
	.st12{fill:#2C4482;}
	.st13{fill:#14A3C4;}
	.st14{fill:#173D7A;}
	.st15{fill:#274F89;}
	.st16{fill:#154284;}
	.st17{fill:#E8A200;}
	.st18{fill:#F9BF30;}
	.st19{fill:#FDD762;}
	.st20{fill:#D3008D;}
	.st21{fill:#F7F4EE;}
	.st22{fill:#EDEDED;}
	.st23{fill:#E9F6FF;}
	.st24{fill:#AEDEED;}
	.st25{opacity:0.4;fill:#FFFFFF;enable-background:new    ;}
	.st26{fill:#B2D3EA;}
	.st27{fill:#07A9E2;}
	.st28{fill:#721BD5;}
	.st29{fill:#983BE9;}
	.st30{fill:#FF5C97;}
	.st31{fill:#20212B;}
	.st32{fill:#D29FFF;}
	.st33{fill:#B45EF4;}
</style>
<g>
	<path class="st0" d="M167.6,201.3l-0.3-0.6l9.5-5.6c1.2-0.7,2.6-0.7,3.8,0l7.9,4.7l-0.3,0.5l-7.9-4.7c-1-0.6-2.2-0.6-3.2,0
		L167.6,201.3z"/>
	<path class="st0" d="M195.9,199.8l-0.3-0.5l24.7-14.6c0.2-0.1,0.4-0.4,0.4-0.7s-0.1-0.5-0.4-0.7l-8.2-5l0.3-0.5l8.2,5
		c0.4,0.3,0.7,0.7,0.7,1.2s-0.3,1-0.7,1.2L195.9,199.8z"/>
	<path class="st0" d="M169,179.6l-0.3-0.6l24.1-13.9c0.2-0.1,0.4-0.4,0.4-0.7s-0.1-0.5-0.4-0.7l-12.7-7.3c-1.7-1-2.8-2.9-2.8-4.9
		v-41.9c0-1.7,0.9-3.4,2.3-4.3l1.9-1.3l0.4,0.5l-1.9,1.3c-1.3,0.9-2,2.3-2,3.8v41.9c0,1.8,1,3.4,2.5,4.3l12.7,7.3
		c0.4,0.3,0.7,0.7,0.7,1.2s-0.3,1-0.7,1.2L169,179.6z"/>
	<path class="st1" d="M167.4,192.9c-0.2,0-0.4-0.1-0.6-0.3c-0.2-0.3-0.1-0.7,0.2-0.9l9.5-5.6c1.3-0.8,2.9-0.7,4.1,0l7.9,4.7
		c0.3,0.2,0.4,0.6,0.2,0.9c-0.2,0.3-0.6,0.4-0.9,0.2l-7.9-4.7c-0.9-0.5-2-0.5-2.8,0l-9.5,5.6C167.6,192.9,167.5,192.9,167.4,192.9z"
		/>
	<g>
		<g>
			<g>
				<path class="st2" d="M201.1,143.7c-1.7,1-4.4,1-6.1,0c-1.7-1-1.7-2.5,0-3.5s4.4-1,6.1,0C202.8,141.2,202.8,142.8,201.1,143.7z"
					/>
			</g>
			<g>
				<path class="st2" d="M198.1,142.6L198.1,142.6c-0.8,0-1.5-0.7-1.5-1.5v-18.5h2.9v18.5C199.6,142,198.9,142.6,198.1,142.6z"/>
				<path class="st2" d="M199.1,123.3c-0.6,0.3-1.5,0.3-2.1,0s-0.6-0.9,0-1.2c0.6-0.3,1.5-0.3,2.1,0
					C199.7,122.4,199.7,123,199.1,123.3z"/>
			</g>
			<path class="st0" d="M198.1,123.3L198.1,123.3c-0.7,0-1.2-0.5-1.2-1.2v-17.4h2.4v17.4C199.3,122.7,198.7,123.3,198.1,123.3z"/>
			<g>
				<path class="st3" d="M215.2,113.8v-0.7l1-0.1l1.1-0.8c0.2-0.1,0.5-0.1,0.7,0l0.8,0.5l0.8-0.1v0.7l0,0c0,0.1-0.1,0.2-0.2,0.2
					l-2.5,1.1c-0.2,0.1-0.5,0.1-0.7,0l-0.8-0.5C215.2,113.9,215.2,113.9,215.2,113.8L215.2,113.8z"/>
				<path class="st2" d="M215.3,112.9l1.9-1.5c0.2-0.1,0.5-0.1,0.7,0l1.4,0.8c0.2,0.1,0.2,0.3,0,0.4l-2.5,1.1
					c-0.2,0.1-0.5,0.1-0.7,0l-0.8-0.5C215.1,113.2,215.1,113,215.3,112.9z"/>
				<g>
					<path class="st0" d="M212,116.2c0.3,0,0.6-0.1,0.8-0.2l3-1.7c0.2-0.1,0.2-0.3,0.1-0.5c-0.1-0.2-0.3-0.2-0.5-0.1l-3,1.7
						c-0.2,0.1-0.6,0.1-0.9,0l-5-2.9c-0.2-0.1-0.4,0-0.5,0.1c-0.1,0.2,0,0.4,0.1,0.5l5,2.9C211.5,116.1,211.7,116.2,212,116.2z"/>
				</g>
			</g>
			<g>
				
					<radialGradient id="SVGID_1_" cx="151.0419" cy="898.2358" r="29.8654" gradientTransform="matrix(1 0 0 1 0 -792)" gradientUnits="userSpaceOnUse">
					<stop  offset="0" style="stop-color:#01C8EF"/>
					<stop  offset="8.940536e-02" style="stop-color:#03BEE9"/>
					<stop  offset="0.2388" style="stop-color:#08A5D7"/>
					<stop  offset="0.4288" style="stop-color:#107BBB"/>
					<stop  offset="0.4457" style="stop-color:#1177B8"/>
					<stop  offset="1" style="stop-color:#112564"/>
				</radialGradient>
				<polygon class="st4" points="183,109.8 187.9,107 185.2,105.8 182.8,107.4 				"/>
				<path class="st2" d="M214.1,105.7c-0.3-0.1-0.5-0.3-0.8-0.5L203,97.6c-1.9-1.4-3.8-1.7-5.3-1c0,0-0.1,0-0.1,0.1l0,0l-14.2,8.3
					l1.3,0.4l5,2.3l6.8,4.8l5.4,2.8l0.2,0.1c1.2-1.1,2.6-2,3.4-3.5c1.3-2.3,5-3,7.2-4.9c0.2,0.1,0.4,0.3,0.7,0.4
					C213.7,106.9,213.8,106.3,214.1,105.7z"/>
				<path class="st3" d="M218.6,102.3c-0.2,0-0.4,0.1-0.6,0.2l0,0l-13.9,8.1l0.5,2.1l0.5-0.2c-0.8,1.2-2,2.1-3.1,3l1.6,0.3l13.6-7.9
					c0.1,0,0.1-0.1,0.2-0.1c0.2-0.1,0.4-0.2,0.5-0.3l0,0l0,0c1-0.8,1.6-2.2,1.6-3.9v-0.2C219.6,102.7,219.2,102.3,218.6,102.3z"/>
				<g>
					<path class="st5" d="M199.5,96.3c0.9,0,1.8,0.3,2.7,0.9C201.4,96.6,200.4,96.3,199.5,96.3z"/>
					<path class="st2" d="M205.9,111.2V111c0-0.5-0.4-1-1-1c-0.5,0-1,0.4-1,1v0.2c0,1.3-0.4,2.2-1.1,2.6c-0.8,0.4-2,0.1-3.3-0.8
						l-10.3-7.6c-1.6-1.2-3.2-1.6-4.6-1.2l8.5-4.9l-9.9,5.7l1.3,0.4l5,2.3l6.8,4.8l5.4,2.8l0.2,0.1c1.2-1.1,2.6-2,3.4-3.5
						C205.6,111.6,205.7,111.4,205.9,111.2L205.9,111.2z"/>
				</g>
				<g>
					<path class="st0" d="M201.8,116.2c-1.1,0-2.4-0.5-3.6-1.4l-10.3-7.6c-1.2-0.9-2.5-1.2-3.3-0.8c-0.7,0.4-1.1,1.3-1.1,2.6
						c0,0.5-0.4,1-1,1c-0.5,0-1-0.4-1-1c0-2,0.8-3.6,2.2-4.3c1.5-0.8,3.4-0.4,5.3,1l10.3,7.6c1.2,0.9,2.5,1.2,3.3,0.8
						c0.7-0.4,1.1-1.3,1.1-2.6v-0.2c0-0.5,0.4-1,1-1c0.5,0,1,0.4,1,1v0.2c0,2-0.8,3.6-2.2,4.3C202.9,116,202.4,116.2,201.8,116.2z"
						/>
				</g>
			</g>
		</g>
		<g>
			<g>
				<path class="st6" d="M193.7,133c0,0-1.9-1-3.1,0.5c-1.2,1.5-2.9,4.9-2.9,7.2s1.8,2.2,3,1.6c1.1-0.6,4.4-5.3,4.6-6.3
					c0.2-0.9-0.2-2.2-0.6-2.4C194.3,133.4,193.7,133,193.7,133z"/>
				<path class="st7" d="M194.1,132.6l0.1,2c0,0.4-0.2,0.8-0.6,1c-0.3,0.2-0.8,0.3-1.5,0.2c-1.5-0.2-1.6-0.7-1.7-2.7
					C190.3,131.2,194.1,132.6,194.1,132.6z"/>
				<g>
					<path class="st6" d="M186.6,129.2c0,0-1.9-1-3.1,0.5c-1.2,1.5-2.9,4.9-2.9,7.2s1.8,2.2,3,1.6c1.1-0.6,4.4-5.3,4.6-6.3
						s-0.2-2.2-0.6-2.4S186.6,129.2,186.6,129.2z"/>
					<path class="st7" d="M187,128.7l0.1,2c0,0.4-0.2,0.8-0.6,1c-0.3,0.2-0.8,0.3-1.5,0.2c-1.5-0.2-1.6-0.7-1.7-2.7
						C183.2,127.3,187,128.7,187,128.7z"/>
					<path class="st8" d="M204.3,91.8c-0.6-9.4-10.1,1.4-10.1,1.4l-6.5,6.4l-5.9,6.5c-1.1,1.3-1.7,3-1.5,4.7l2.4,18.1
						c0.1,0.9,0.9,1.6,1.8,1.5c0.3,0,0.5,0,0.9-0.1c2.1-0.3,2-2.4,2-2.4l-0.4-17l12.4-7.5C199.2,103.5,204.9,101.1,204.3,91.8z"/>
				</g>
				<path class="st8" d="M211.4,95.3c-0.6-9.4-10.1,1.4-10.1,1.4l-6.5,6.4l-5.9,6.5c-1.1,1.3-1.7,3-1.5,4.7l2.4,18.1
					c0.1,0.9,0.9,1.6,1.8,1.5c0.3,0,0.5,0,0.9-0.1c2.1-0.3,2-2.4,2-2.4l-0.4-17l12.4-7.5C206.3,107.1,212,104.7,211.4,95.3z"/>
				<path class="st9" d="M205.8,65.3c7.2,3,7.1,7.3,7.1,7.3s-1.4,15.7-0.9,26.2c0.2,4.4-23.3,4.7-19.8-7c4.1-13.8,2.6-24.9,4.5-26.6
					C198.6,63.5,203.9,64.5,205.8,65.3z"/>
				
					<ellipse transform="matrix(0.2494 -0.9684 0.9684 0.2494 87.5173 249.216)" class="st7" cx="204.5" cy="68.2" rx="2.7" ry="3.7"/>
				<path class="st10" d="M205,71.4c-0.4,0-0.9-0.1-1.3-0.2c-1-0.3-1.9-0.8-2.5-1.6c-0.6-0.8-0.9-1.6-0.6-2.5c0.4-1.7,2.5-2.5,4.7-2
					c1,0.3,1.9,0.8,2.5,1.6s0.9,1.6,0.6,2.5c-0.2,0.8-0.8,1.5-1.8,1.8C206.2,71.3,205.6,71.4,205,71.4z M203.9,65.7
					c-1.3,0-2.5,0.6-2.7,1.6c-0.2,0.6,0,1.3,0.5,1.8c0.5,0.6,1.3,1.1,2.2,1.3c0.9,0.2,1.8,0.2,2.5-0.1c0.7-0.3,1.2-0.8,1.3-1.4l0,0
					c0.2-0.6,0-1.3-0.5-1.8c-0.5-0.6-1.3-1.1-2.2-1.3C204.7,65.8,204.3,65.7,203.9,65.7z"/>
				<path class="st7" d="M202.9,65c0,0,0.1,0.3-0.1,2.6c0,0.7,2.5,1.4,3.1,0.7c0.7-0.7,0.4-1.3,0.5-3.8
					C206.6,62.1,202.9,65,202.9,65z"/>
				<path class="st11" d="M206.5,64.5c0,0-0.6,2.3-3.7,3.1v-2.1L206.5,64.5z"/>
				<path class="st7" d="M208.4,58.8c0.8,3-1,6-4,6.8s-6-1-6.8-4s1-6,4-6.8C204.6,54,207.7,55.8,208.4,58.8z"/>
				<path class="st11" d="M204.3,60.4c0,0-3.1,1.3-5.2,1.3c-2.1,0-1.7-1.8-1.7-1.8l6.3-0.9L204.3,60.4z"/>
				<path class="st12" d="M198.5,60.7c0,0,2.7-1.1,5-0.7c0.6,0.1,1.1,0.4,1.4,0.8c0.1,0.1,0.3,0.3,0.4,0.3c0.4,0.1,1.1-1.6,1.9-1.7
					c0.8,0,1.3,0.5,0.7,1.6c-0.7,1.1-0.4,2.2-0.1,2.4c0.3,0.2,3.5-2.3,0.7-8c-2.9-5.7-10.1-2.6-11.2-1.5c0,0-1.2,1-2.2,0.1
					C195.1,54.2,194,62.3,198.5,60.7z"/>
				<path class="st7" d="M208.8,84.1v4.2c0,0.5-0.2,0.9-0.6,1.3l-8.7,7.9l1,1.5l11.5-8.3c0.5-0.4,0.9-1,1-1.6l0.8-7.4L208.8,84.1z"
					/>
				<path class="st9" d="M212.2,70.5c0,0,2.6,4,3.6,14.4c0,0-4.5,1.5-7.1,0.6C206.2,84.7,212.2,70.5,212.2,70.5z"/>
				<path class="st13" d="M208.3,75.5c0,0-1,5.5-1.1,8.1c0,0.7,0.4,1.4,1.1,1.6l0,0V75.5z"/>
			</g>
			<g>
				<path class="st14" d="M206.1,103l-1.9-0.3l-12.4-7.2c-0.4-0.2-1.1-0.2-1.6,0.1l-8.8,5.1l-1.2-0.2v1.2l0,0c0,0.2,0.1,0.3,0.3,0.4
					l14.1,8.1c0.4,0.2,1.1,0.2,1.6-0.1l9.6-5.5c0.3-0.1,0.4-0.3,0.4-0.5l0,0V103H206.1z"/>
				<path class="st3" d="M196.7,98.5l-0.9-0.5h-9.7l-4.8,2.8l-1.2-0.2v1.2l0,0c0,0.2,0.1,0.3,0.3,0.4l14.1,8.1
					c0.2,0.1,0.5,0.2,0.8,0.2L196.7,98.5z"/>
				<path class="st2" d="M180.7,100.7l-0.5-0.1v1.2l0,0c0,0.2,0.1,0.3,0.3,0.4l0.2,0.1V100.7z"/>
				<path class="st15" d="M194.7,110.4c0.4,0.1,0.9,0.1,1.3-0.1v-2h-1.3V110.4z"/>
				<path class="st10" d="M194.5,109.2l-14.1-8.2c-0.4-0.2-0.3-0.6,0.1-0.9l9.6-5.5c0.5-0.3,1.2-0.3,1.6-0.1l14.1,8.1
					c0.4,0.2,0.3,0.6-0.1,0.9l-9.6,5.5C195.6,109.4,194.9,109.4,194.5,109.2z"/>
				<path class="st0" d="M194.3,107.9l-11.7-6.8c-0.3-0.2-0.3-0.5,0.1-0.7l5.1-2.9c0.4-0.2,1-0.2,1.3-0.1l11.7,6.8
					c0.3,0.2,0.3,0.5-0.1,0.7l-5.1,2.9C195.2,108.1,194.6,108.1,194.3,107.9z"/>
			</g>
			<path class="st7" d="M190.7,94.3l-0.1,1c-0.1,0.8-0.1,1.7,0.1,2.5l0.2,0.9c0.1,0.5,0.5,0.9,1,0.9l0,0c0.4,0.1,0.7-0.2,0.8-0.6
				l0.2-2.1c0,0,0.5,0.7,0.8,0.7s-0.3-2.1-0.9-3.3C192.1,93.2,190.7,94.3,190.7,94.3z"/>
			<path class="st7" d="M195.5,78.9l-1.5,3c-0.4,0.7-0.6,1.5-0.6,2.3l-0.7,10.2h-2l-0.9-11.5c0-0.4,0-0.7,0.1-1.1l1-5.8L195.5,78.9z
				"/>
			<g>
				<path class="st14" d="M194,109.9l-1.2-1.5l-12.4-7.2c-0.4-0.2-0.7-0.8-0.7-1.4V89.6l-0.7-0.9l0.7-0.4l0,0c0.1-0.1,0.3-0.1,0.5,0
					l14.1,8.1c0.4,0.2,0.7,0.8,0.7,1.4v11.1c0,0.3-0.1,0.5-0.3,0.6l0,0L194,109.9z"/>
				<path class="st3" d="M185.5,104.1l-0.9-0.5l-4.8-8.4v-5.5l-0.7-0.9l0.7-0.4l0,0c0.1-0.1,0.3-0.1,0.5,0l14.1,8.1
					c0.2,0.1,0.4,0.4,0.5,0.6L185.5,104.1z"/>
				<path class="st2" d="M179.3,89.1l-0.3-0.4l0.7-0.4l0,0c0.1-0.1,0.3-0.1,0.5,0l0.2,0.1L179.3,89.1z"/>
				<path class="st15" d="M194.4,96.6c0.3,0.3,0.6,0.7,0.6,1.2l-1.4,0.8l-0.7-1.1L194.4,96.6z"/>
				<path class="st2" d="M193.6,96.9l-14.1-8.1c-0.4-0.2-0.7,0-0.7,0.5v11.1c0,0.5,0.3,1.1,0.7,1.4l14.1,8.1c0.4,0.2,0.7,0,0.7-0.5
					V98.3C194.3,97.7,194,97.1,193.6,96.9z"/>
			</g>
			<path class="st7" d="M200.5,99l-0.2,0.5c-0.3,0.5-0.7,1-1.2,1.3l-1.4,0.9c-0.4,0.3-1,0.3-1.4,0l0,0c-0.4-0.3-0.5-0.9-0.1-1.3
				l1.5-1.5c0,0-0.8,0.6-1.1,0.4c-0.2-0.2,0.8-1.1,1.5-1.1s1.5-0.6,1.5-0.6L200.5,99z"/>
			<path class="st9" d="M196.8,65.2c0,0-5.4,5.8-7.5,11.2c0,0,1.8,3.3,6.3,4.6C200.1,82.2,196.8,65.2,196.8,65.2z"/>
			<path class="st13" d="M194.6,80.6l0.9-8.4l-2,7.9C193.8,80.2,194.2,80.4,194.6,80.6z"/>
			<path class="st10" d="M200.8,64l-1.4-0.4c0,0,0.7,1.1,1.7,1.4s1.2-0.6,1.2-0.6L200.8,64z"/>
		</g>
	</g>
	<g>
		<path class="st16" d="M108.8,40.3L158.6,69c0.8,0.6,2.4,3.3,2.4,5.5V202l-49.7-28.7c-0.8-0.6-2.4-3.3-2.4-5.5L108.8,40.3
			 M103.5,26.7c-0.7,0-1.4,0.2-2,0.6l0,0l-7.2,4.2l4.8,0.9c0,0.2,0,0.5,0,0.8v134.7c0,5.3,3.3,11.6,7.3,13.9l56.3,32.5
			c-0.5,1.6-1.6,5-1.6,5l7-4.1l0,0c1.6-0.8,2.7-2.9,2.7-6V74.5c0-5.3-3.3-11.6-7.3-13.9l-57.1-33C105.3,27,104.4,26.7,103.5,26.7
			L103.5,26.7z"/>
	</g>
	<g>
		<polygon class="st17" points="208.6,176.6 208.6,171 218.9,165.1 218.9,170.7 		"/>
		<polygon class="st18" points="208.6,171 198.4,165.1 198.4,170.7 208.6,176.6 		"/>
		<polygon class="st19" points="218.9,165.1 208.6,159.2 198.4,165.1 208.6,171 		"/>
	</g>
	<path class="st10" d="M183.3,100.7c0,0.9-0.6,1.2-1.4,0.8c-0.8-0.4-1.4-1.5-1.4-2.4s0.6-1.2,1.4-0.8
		C182.7,98.7,183.3,99.8,183.3,100.7z"/>
	<path class="st1" d="M168.8,175.7c-0.2,0-0.4-0.1-0.6-0.3c-0.2-0.3-0.1-0.7,0.2-0.9l24.1-13.9c0.2-0.1,0.2-0.3,0.2-0.4
		s0-0.3-0.2-0.4l-12.7-7.3c-1.8-1.1-3-3-3-5.2v-41.9c0-1.8,0.9-3.6,2.4-4.6l1.9-1.3c0.3-0.2,0.7-0.1,0.9,0.2
		c0.2,0.3,0.1,0.7-0.2,0.9l-1.9,1.3c-1.2,0.8-1.9,2.1-1.9,3.5v41.9c0,1.7,0.9,3.2,2.4,4.1l12.7,7.3c0.6,0.3,0.9,0.9,0.9,1.5
		s-0.3,1.2-0.9,1.5L169,175.6C169.1,175.7,168.9,175.7,168.8,175.7z"/>
	<g>
		<path class="st16" d="M161,81.6V202l-49.7-28.7c-0.8-0.6-2.4-3.3-2.4-5.5v-56.1L161,81.6 M168.4,66.1l-69.3,40v61.7
			c0,5.3,3.3,11.6,7.3,13.9l56.3,32.5c-0.5,1.6-1.6,5-1.6,5l7-4.1l0,0c1.6-0.8,2.7-2.9,2.7-6V74.5C170.7,71.7,169.9,68.7,168.4,66.1
			L168.4,66.1z"/>
	</g>
	<g>
		<path class="st16" d="M101.6,44.5l49.7,28.7c0.8,0.6,2.4,3.3,2.4,5.5v127.5L104,177.5c-0.8-0.6-2.4-3.3-2.4-5.5V44.5 M96.3,30.9
			c-2.6,0-4.4,2.4-4.4,6.4V172c0,5.3,3.3,11.6,7.3,13.9l57.1,33c1,0.6,2,0.9,2.9,0.9c2.6,0,4.4-2.4,4.4-6.4V78.6
			c0-5.3-3.3-11.6-7.3-13.9l-57.1-33C98.1,31.2,97.2,30.9,96.3,30.9L96.3,30.9z"/>
	</g>
	<polygon class="st20" points="101.3,74 96.9,70.9 95.2,65.3 93.5,68.9 91.9,68.2 91.9,71.3 92.4,72.1 91.9,74.4 91.9,76.5 
		95.2,76.1 99,81 98,75.3 	"/>
	<path class="st21" d="M155.2,214.4l-54.9-31.7c-3-1.7-5.4-6.3-5.4-10.3V39.6c0-4,2.4-5.8,5.4-4.1l54.9,31.7c3,1.7,5.4,6.3,5.4,10.3
		v132.8C160.6,214.3,158.2,216.1,155.2,214.4z"/>
	<path class="st22" d="M132.8,173.6L105.9,158V92.6l12.7,7.3c8.8,5.1,14.2,14.5,14.2,24.7V173.6z"/>
	<g>
		<path class="st0" d="M96.2,86.2L96.2,86.2c-2.7-1.6-6.5-1.4-10.7,1c-8.3,4.8-15,16.4-15,26v6.9l0,0l0,0l0,0l0.3,0.2l27,15.9
			l0.4-8.2l0.3-3.2l1.4-5l0.2-0.8l3.1-6.2l2.4-3l2-2.3l4.8-3.8l0.4-0.3l2.3-1l3.2-0.8h2.5l2.8,0.5L96.2,86.2z"/>
		<path class="st0" d="M99.6,149.9l0.9-0.5V118c-0.5,0.6-0.7,1.4-0.9,2.2V149.9z"/>
		<polygon class="st0" points="126.9,165.6 99.6,149.9 99.9,120.2 100.9,117.2 104.1,111.8 107.8,107.3 111.2,104.7 114.8,102.4 
			121.5,101.7 124.9,103.7 126.9,106.7 127.5,111.2 127.3,160.9 		"/>
		<path class="st9" d="M96.2,86.2c-2.3-1.4-5.3-1.4-8.7,0l27.8,16l3-0.8h2.5l2.8,0.5L96.2,86.2L96.2,86.2z"/>
		<g>
			<path class="st23" d="M88.2,86c-0.9,0.3-1.8,0.7-2.7,1.3c-0.6,0.4-1.2,0.7-1.8,1.2l27.7,16l0.9-0.7l0.4-0.3l2.3-1l0.9-0.2
				L88.2,86z"/>
			<path class="st10" d="M107.8,107.2l3.8-3l-27.7-16c-1.3,0.9-2.5,1.9-3.6,3.1L107.8,107.2z"/>
			<path class="st9" d="M127.8,165.1l-0.9,0.5v-53.5c0-9-6.3-12.6-14.1-8.1s-14.1,15.5-14.1,24.4v7.2l-0.9,0.5v-7.2
				c0-9.5,6.7-21.2,15-26s15-0.9,15,8.6V165.1z"/>
		</g>
	</g>
	<polygon class="st24" points="78.8,108.1 77.3,114.3 78,124.5 76.1,123.3 73.6,117.8 75.8,110.9 	"/>
	<g>
		<path class="st25" d="M123.4,148.2c-0.2,0-0.3-0.1-0.5-0.2l-19.8-11.5c-0.6-0.3-1-1.2-1-2v-15.6c0-0.5,0.2-0.8,0.5-1
			s0.6-0.1,0.9,0l19.8,11.5c0.6,0.3,1,1.2,1,2V147c0,0.5-0.2,0.8-0.5,1C123.7,148.2,123.6,148.2,123.4,148.2z M102.9,118.6
			L102.9,118.6c-0.1,0.1-0.2,0.2-0.2,0.5v15.6c0,0.5,0.3,1.2,0.7,1.4l19.8,11.5c0.1,0,0.2,0.1,0.3,0c0.1,0,0.1-0.2,0.1-0.4v-15.6
			c0-0.5-0.3-1.2-0.7-1.4l-19.8-11.5C103.1,118.6,103,118.6,102.9,118.6z"/>
		<g>
			<path class="st26" d="M109.2,137.3l-0.1-0.1c-0.5-0.3-0.9-1.1-0.9-1.8V128c0-0.7,0.4-1,0.9-0.7l0.1,0.1c0.5,0.3,0.9,1.1,0.9,1.8
				v7.4C110.2,137.2,109.8,137.6,109.2,137.3z"/>
			<path class="st26" d="M113.2,139.6l-0.1-0.1c-0.5-0.3-0.9-1.1-0.9-1.8v-4.4c0-0.7,0.4-1,0.9-0.7l0.1,0.1c0.5,0.3,0.9,1.1,0.9,1.8
				v4.4C114.2,139.5,113.8,139.9,113.2,139.6z"/>
			<path class="st3" d="M117.2,141.9l-0.1-0.1c-0.5-0.3-0.9-1.1-0.9-1.8v-10.4c0-0.7,0.4-1,0.9-0.7l0.1,0.1c0.5,0.3,0.9,1.1,0.9,1.8
				v10.4C118.2,141.8,117.7,142.2,117.2,141.9z"/>
		</g>
	</g>
	<g>
		<g>
			<path class="st14" d="M74.8,206.7c-1.2,0.5-1.9,1.8-1.8,3.3c0,0.7,0.1,1.3,0.3,1.6c0.4,0.8,1.6,1.9,3.6,1.1
				c2-0.8,6.4-4.9,6.5-7.6C83.7,200,78,205.4,74.8,206.7z"/>
			<path class="st14" d="M86.5,215c0,0-0.5,2.9-0.2,3.4c0.2,0.5,1.6,1.7,3.6,1.4c2-0.2,7.9-2.3,9.2-6.1c2-6-11.3,0.4-11.3,0.4
				L86.5,215z"/>
			<path class="st8" d="M92.2,168.7l0.5,45.2c0,1.6-1.1,2.9-2.5,3.1c-0.2,0-0.4,0.1-0.6,0.1c-1.4,0.1-2.2-0.5-2.7-1.1
				c-0.4-0.5-0.6-1.2-0.6-1.8l-0.6-19.3l-2.9-17.2l-4,30.5c-0.1,0.8-0.5,1.6-1.1,2c-0.4,0.3-1,0.5-1.8,0.5c-1.1,0-1.9-0.6-2.4-1.2
				c-0.4-0.4-0.6-1-0.6-1.6l1.6-18.4l0.6-23.4L92.2,168.7z"/>
			<path class="st7" d="M86.3,128.3l-0.7,4.1c0,0,0,1.4,1.5,1.8c1.6,0.4,2.1-0.6,2.1-0.6l0.7-4.6L86.3,128.3z"/>
			<path class="st7" d="M95,126c-1.1,3.5-4.6,5.6-7.7,4.6s-4.8-4.7-3.7-8.2s4.6-5.6,7.7-4.6S96.1,122.5,95,126z"/>
			<path class="st9" d="M86.5,132.5c-0.1,0-6.7-4.3-9.1,0.2c-3.9,7.2-1.1,15.4-2.5,33.3c-0.2,3,4,4.8,6.1,6c1.8,1,3.8,1.7,5.9,1.7
				c2,0,6-1.8,5.8-4.5c-0.7-12.3,0.4-22.7,1.4-32.7C94.2,136.4,92.9,135.1,86.5,132.5z"/>
			<path class="st8" d="M82.9,177.7l-4,30.5c-0.1,0.8-0.5,1.6-1.1,2c-0.1,0.1-0.2,0.1-0.3,0.2c0.8-0.6,3.2-26.2,3.7-29.1
				C81.6,178.4,82.9,177.7,82.9,177.7z"/>
		</g>
		<polygon class="st7" points="107.7,136.2 113.2,125.3 111.5,124.2 105.8,132.5 		"/>
		<polygon class="st7" points="71.6,124.7 74.2,112.5 76.4,112.6 75.6,122.6 		"/>
		<path class="st9" d="M94.2,136.4c0,0,6.1,2.4,11.4-4.2c0.5-0.6,1.4-0.5,1.7,0.1c0.5,1.1,1.1,2.7,0.3,4.3
			c-3.2,6.8-14,6.6-16.7,10.4C88.3,150.8,94.2,136.4,94.2,136.4z"/>
		<path class="st9" d="M82.4,131c0,0-5.1,0.4-5.8-4c-0.4-2.3-0.5-3.6-0.5-4.4c0-0.5-0.5-0.9-1-0.9c-1.2,0.2-3.1,0.5-3.3,1.3
			c-0.4,1.2-1.1,7.2,3.9,16.3C78.9,145.3,82.4,131,82.4,131z"/>
		<path class="st7" d="M74.2,112.6v-1.4c0-0.5,0.2-1,0.4-1.4l1.4-2.3l0.4-0.5c0.3-0.4,0.9-0.5,1.4-0.2l0.3,0.2
			c0.4,0.3,0.6,0.7,0.6,1.2l-0.7,2l1-0.2c0.2,0,0.4,0.1,0.4,0.3l0,0c0,0.2-0.1,0.3-0.2,0.4l-1.5,0.6l-1.4,1.9L74.2,112.6z"/>
		<path class="st7" d="M113.3,125.4l0.6-1.2c0.2-0.4,0.3-0.9,0.3-1.4l-0.1-2.7l-0.1-0.6c-0.1-0.5-0.6-0.9-1.1-0.9h-0.4
			c-0.5,0-0.9,0.3-1.1,0.7l-0.3,2.1l-0.7-0.6c-0.1-0.1-0.3-0.1-0.5,0l0,0c-0.1,0.1-0.1,0.3,0,0.4l1,1.3l0.3,2.6L113.3,125.4z"/>
		<path class="st27" d="M90.2,145.6c-0.5,2.4,2.7,20.8-0.9,27.5c1.8-0.7,3.5-2.1,3.5-3.9c-0.5-8.8,0-16.6,0.6-24
			c3.1-1.5,7.8-2.5,11.2-4.9C100.9,141.5,90.6,143.5,90.2,145.6z"/>
		<path class="st10" d="M84.2,131.3l0.9-0.9c0,0,1.5,1.5,2.7,1.8c0,0,1.4,0.4,2.2,0.4l0.6,1.6C90.5,134.2,85.7,133.9,84.2,131.3z"/>
		<path class="st12" d="M90.7,126.1c0.3,0,0.5-0.1,0.6-0.3c0.2-0.4,0.1-2,0.9-2.3c1.2-0.4,4,1.1,4.3-3.2c0.2-2.2-0.9-2.8-0.9-4.1
			c0,0,0.1,0.6-5.7,0.2c-5.8-0.4-7.7,4.7-7.8,7.2c-0.1,2.4,1,6.5,5,7c0.7,0.1,3.4-2.1,3.3-2.4c-0.1-0.3-1.1-0.3-1-1.1
			C89.6,126.4,90,126.2,90.7,126.1z"/>
	</g>
	<g>
		<g>
			<path class="st22" d="M120.3,74l-17.5-10.1c-0.8-0.4-1.4-1.6-1.4-2.7v-13c0-1,0.6-1.5,1.4-1.1l17.5,10.1c0.8,0.4,1.4,1.6,1.4,2.7
				v13C121.7,74,121.1,74.4,120.3,74z"/>
			<path class="st28" d="M118.6,53.4l-17.5-10.1c-0.3-0.2-0.7-0.2-0.9-0.1l0,0l-1.7,1c0,0,0.7,0.3,1.2,0.4v12.7c0,1,0.6,2.2,1.4,2.7
				l16.7,9.6v1.5l1.7-1l0,0c0.3-0.2,0.5-0.6,0.5-1.1V56C120,55,119.4,53.8,118.6,53.4z"/>
			<path class="st29" d="M116.9,71.1L99.4,61c-0.8-0.4-1.4-1.6-1.4-2.7v-13c0-1,0.6-1.5,1.4-1.1l17.5,10.1c0.8,0.4,1.4,1.6,1.4,2.7
				v13C118.3,71.1,117.7,71.6,116.9,71.1z"/>
			<path class="st10" d="M116.9,54.4L99.4,44.3c-0.4-0.3-0.8-0.2-1.1,0.1c0.2,0,0.4,0,0.6,0.2l17.5,10.1c0.8,0.4,1.4,1.6,1.4,2.7v13
				c0,0.4-0.1,0.8-0.3,1c0.5,0,0.8-0.5,0.8-1.2v-13C118.3,56,117.7,54.8,116.9,54.4z"/>
		</g>
		<g>
			<path class="st10" d="M105.3,56.6c0,0.8-0.5,1.1-1.2,0.7c-0.7-0.4-1.2-1.3-1.2-2c0-0.8,0.5-1.1,1.2-0.7
				C104.8,54.9,105.3,55.8,105.3,56.6z"/>
			<path class="st10" d="M108.9,58.6c0,0.8-0.5,1.1-1.2,0.7c-0.7-0.4-1.2-1.3-1.2-2c0-0.8,0.5-1.1,1.2-0.7
				C108.3,57,108.9,57.9,108.9,58.6z"/>
			<path class="st10" d="M112.4,60.7c0,0.8-0.5,1.1-1.2,0.7c-0.7-0.4-1.2-1.3-1.2-2c0-0.8,0.5-1.1,1.2-0.7
				C111.9,59,112.4,59.9,112.4,60.7z"/>
		</g>
	</g>
	<g>
		<g>
			<path class="st22" d="M155.1,142.5l-17.5-10.1c-0.8-0.4-1.4-1.6-1.4-2.7v-29.2c0-1,0.6-1.5,1.4-1.1l17.5,10.1
				c0.8,0.4,1.4,1.6,1.4,2.7v29.2C156.5,142.5,155.8,142.9,155.1,142.5z"/>
			<path class="st9" d="M153.3,105.7l-17.5-10.1c-0.3-0.2-0.7-0.2-0.9-0.1l0,0l-1.7,1c0,0,0.7,0.3,1.2,0.4v28.9c0,1,0.6,2.2,1.4,2.7
				l16.7,9.6v1.5l1.7-1l0,0c0.3-0.2,0.5-0.6,0.5-1.1v-29.2C154.7,107.3,154.1,106.1,153.3,105.7z"/>
			<path class="st0" d="M151.6,139.6l-17.5-10.1c-0.8-0.4-1.4-1.6-1.4-2.7V97.6c0-1,0.6-1.5,1.4-1.1l17.5,10.1
				c0.8,0.4,1.4,1.6,1.4,2.7v29.2C153,139.6,152.4,140.1,151.6,139.6z"/>
			<path class="st10" d="M151.6,106.7l-17.5-10.1c-0.4-0.3-0.8-0.2-1.1,0.1c0.2,0,0.4,0,0.6,0.2l17.5,10.1c0.8,0.4,1.4,1.6,1.4,2.7
				v29.2c0,0.4-0.1,0.8-0.3,1c0.5,0,0.8-0.5,0.8-1.2v-29.2C153,108.3,152.4,107.1,151.6,106.7z"/>
		</g>
	</g>
	<g>
		<g>
			<path class="st22" d="M155.1,181.9l-17.5-10.1c-0.8-0.4-1.4-1.6-1.4-2.7V140c0-1,0.6-1.5,1.4-1.1l17.5,10.1
				c0.8,0.4,1.4,1.6,1.4,2.7v29.2C156.5,181.9,155.8,182.4,155.1,181.9z"/>
			<path class="st20" d="M153.3,145.1L135.8,135c-0.3-0.2-0.7-0.2-0.9-0.1l0,0l-1.7,1c0,0,0.7,0.3,1.2,0.4v28.9c0,1,0.6,2.2,1.4,2.7
				l16.7,9.6v1.5l1.7-1l0,0c0.3-0.2,0.5-0.6,0.5-1.1v-29.2C154.7,146.8,154.1,145.6,153.3,145.1z"/>
			<path class="st1" d="M151.6,179.1L134.2,169c-0.8-0.4-1.4-1.6-1.4-2.7v-29.2c0-1,0.6-1.5,1.4-1.1l17.5,10.1
				c0.8,0.4,1.4,1.6,1.4,2.7V178C153,179,152.4,179.5,151.6,179.1z"/>
			<path class="st10" d="M151.6,146.1L134.2,136c-0.4-0.3-0.8-0.2-1.1,0.1c0.2,0,0.4,0,0.6,0.2l17.5,10.1c0.8,0.4,1.4,1.6,1.4,2.7
				v29.2c0,0.4-0.1,0.8-0.3,1c0.5,0,0.8-0.5,0.8-1.2v-29.2C153,147.8,152.4,146.6,151.6,146.1z"/>
		</g>
	</g>
	<g>
		<g>
			<path class="st18" d="M50.3,197.7l17.6-9.9c0.3-0.2,0.5-0.5,0.5-0.7l0,0v-2c0,0-0.6,0.5-1,0.8l-10.9-6.5c-0.9-0.5-2.2-0.6-3-0.2
				l-16.8,9.5l-1.3-0.8v2l0,0c0,0.3,0.2,0.7,0.7,1l11.2,6.6C48.2,198.1,49.5,198.2,50.3,197.7z"/>
			<path class="st19" d="M35.9,187.2l17.6-9.9c0.8-0.4,2.1-0.4,3,0.2l11.2,6.6c0.9,0.5,1,1.3,0.2,1.7l-17.6,9.9
				c-0.8,0.4-2.1,0.4-3-0.2L36.1,189C35.2,188.4,35.1,187.7,35.9,187.2z"/>
			<path class="st10" d="M50.3,195.7l17.6-9.9c0.4-0.2,0.6-0.6,0.5-1c-0.1,0.2-0.2,0.3-0.5,0.5l-17.6,9.9c-0.8,0.4-2.1,0.4-3-0.2
				l-11.2-6.6c-0.4-0.2-0.6-0.5-0.7-0.8c-0.2,0.4,0,0.9,0.7,1.3l11.2,6.6C48.2,196.1,49.5,196.2,50.3,195.7z"/>
		</g>
		<g>
			<path class="st10" d="M54.3,184.7c-0.6-0.4-0.6-1,0-1.4c0.7-0.4,1.7-0.4,2.4,0c0.6,0.4,0.6,1,0,1.4C56,185.1,55,185,54.3,184.7z"
				/>
			<path class="st10" d="M50.7,186.7c-0.6-0.4-0.6-1,0-1.4c0.7-0.4,1.7-0.4,2.4,0c0.6,0.4,0.6,1,0,1.4
				C52.4,187.1,51.4,187.1,50.7,186.7z"/>
			<path class="st10" d="M47.2,188.7c-0.6-0.4-0.6-1,0-1.4c0.7-0.4,1.7-0.4,2.4,0c0.6,0.4,0.6,1,0,1.4
				C48.9,189.1,47.8,189.1,47.2,188.7z"/>
		</g>
	</g>
	<g>
		<g>
			<path class="st12" d="M16.3,88.1c0,0,0.3,6.5,0.8,10.9s11-3.4,11-3.4v-5L16.3,88.1z"/>
			<g>
				<path class="st14" d="M22,169.1c0.2,0.4,2.9,3.7,5.6,4.5c1.2,0.4,2,0.4,2.5,0.3c0.5-0.1,0.8-0.6,0.7-1.1
					c-0.5-1.3-1.8-4.1-5.2-5.8C20.9,164.8,22,169.1,22,169.1z"/>
				<path class="st14" d="M21,170.4c0,0,1,2.4,1.3,4.4c0.2,1.2-0.5,2.8-1,3.9c-0.3,0.7-1.2,0.8-1.8,0.3c-0.9-0.8-2-2.2-2.2-4.2
					c-0.3-3.4,0-4,0-4L21,170.4z"/>
				<path class="st8" d="M14.5,129.2c0,0-0.4,4.3,0,9s1.6,26.9,1.9,32.3c0,0-0.1,1.6,3,1.3c3.1-0.4,2.9-2.2,2.9-2.2s4.4-0.1,4.5-2.6
					c0.1-2.6,4.5-30.9,4.5-41.1L14.5,129.2z"/>
				<g>
					<path class="st7" d="M32.9,107.1l2.2,3.3l7.4,8.9c0,0-0.3,0.8-1.2,1c-0.7,0.2-6.9-5.8-9.6-8.4c-0.7-0.7-0.8-1.8-0.3-2.6
						L32.9,107.1z"/>
					<path class="st1" d="M28.7,93.4c0,0,3.4-0.1,4.6,4.9c1.2,4.9,2.1,11.1,1.1,11.6c-3.1,1.5-5.1-0.3-5.1-0.3L28.7,93.4z"/>
					<path class="st1" d="M29.7,93.6c-0.6-0.2-1.2-0.3-1.8-0.1C25,94.3,14,97.6,12.2,99.1c-2.1,1.8,3.1,11.8,3.1,15.1
						c-0.1,3.3-0.4,7.2-0.7,10.7c-0.3,3.6-0.7,5.5,2.2,7s7.9,1.6,11.6-1.3c3.7-2.8,3.1-4.8,2.9-6.9s-1.4-11-1.3-13.5
						c0,0,1.3-1,2.3-2.6c1-1.7-0.7-4.7-1.5-6.7c-0.7-2,0.4-4.3,0.2-5.9C30.9,94.3,30.3,93.9,29.7,93.6z"/>
					<path class="st10" d="M26.2,97c0.2,1.8-1.4,3.5-3.7,3.8s-4.3-0.9-4.5-2.7s1.4-3.5,3.7-3.8C23.9,94,26,95.2,26.2,97z"/>
					<path class="st7" d="M25,97.2c0.2,1.3-1,2.5-2.6,2.7s-3.1-0.7-3.2-2c-0.2-1.3,1-2.5,2.6-2.7S24.9,95.9,25,97.2z"/>
					<path class="st7" d="M23.4,92.9c0,0-2-1.6-2.4-0.8c-0.4,0.8-0.7,4.4-0.7,4.4l3.9,1.1L23.7,94C23.7,94,24.5,93.3,23.4,92.9z"/>
					<ellipse class="st7" cx="23.7" cy="88.7" rx="5.9" ry="5.9"/>
					<path class="st11" d="M20.8,93.1c0,0.2-0.1,0.4-0.1,0.6c0.4,2,3.4,2.9,3.4,2.9L23.7,94c0,0,0.4-0.3,0.3-0.6
						C22.7,92.9,21.2,92.6,20.8,93.1z"/>
					<ellipse class="st7" cx="23.7" cy="88.7" rx="5.9" ry="5.9"/>
					<polygon class="st7" points="9.3,113.5 9.9,129.2 12.2,129.5 13.7,115.3 					"/>
					<path class="st30" d="M16.8,112.2c-0.1-0.5-1.1-1-1.3-1.7c-0.8-3.7-1-9-1-9l-0.6,7.4c0.7,2.2,1.4,4.2,1.3,5.3
						c0,1.9-0.2,4.1-0.4,6.2l0,0C14.9,120.4,17.5,115.6,16.8,112.2z"/>
					<path class="st1" d="M12.6,98.8c0,0-1.8,0.7-2.9,6.3c-1,5.6-1.8,11.3,0,12c1.9,0.7,3.4,1.3,3.9-0.2s0.9-8.8,0.9-11.4
						C14.7,102.9,14.8,99.3,12.6,98.8z"/>
					<path class="st7" d="M41.9,118.7c0,0,1,0.4,1.7,1.1c0.6,0.6,0.9,1.2,1.2,1.6c0.6,0.9,1.1,2.7,0.7,2.9c-0.3,0.2-2.3-3.1-2.7-2.3
						c-0.3,0.8,0,1.5-0.4,1.5s-1.8-3.3-3-4.4C38.3,118.1,41.9,118.7,41.9,118.7z"/>
				</g>
				<path class="st31" d="M22.2,169.7c0,0,0.5,0,1.3-0.1l0,0l0.9-34.5L22.2,169.7z"/>
			</g>
			<g>
				<path class="st29" d="M18.9,151l-1.2-1.6L4.8,142c-0.4-0.2-0.7-0.9-0.7-1.4v-10.5l-0.7-1l0.7-0.4l0,0c0.1-0.1,0.3-0.1,0.5,0
					l14.5,8.4c0.4,0.2,0.7,0.9,0.7,1.4v11.4c0,0.3-0.1,0.5-0.3,0.6l0,0L18.9,151z"/>
				<path class="st32" d="M10,145l-0.9-0.5l-5-8.7v-5.7l-0.7-1l0.7-0.4l0,0c0.1-0.1,0.3-0.1,0.5,0l14.5,8.4c0.2,0.1,0.4,0.4,0.5,0.6
					L10,145z"/>
				<path class="st32" d="M3.7,129.5l-0.3-0.4l0.7-0.4l0,0c0.1-0.1,0.3-0.1,0.5,0l0.3,0.1L3.7,129.5z"/>
				<path class="st29" d="M19.3,137.3c0.3,0.3,0.6,0.8,0.6,1.2l-1.4,0.8l-0.7-1.2L19.3,137.3z"/>
				<path class="st33" d="M18.4,137.6l-14.5-8.4c-0.4-0.2-0.7,0-0.7,0.6v11.4c0,0.5,0.3,1.2,0.7,1.4l14.5,8.4c0.4,0.2,0.7,0,0.7-0.6
					V139C19.2,138.4,18.8,137.8,18.4,137.6z"/>
			</g>
			<polygon class="st10" points="15.4,145.8 14.7,145.4 14.7,139.4 15.4,139.8 			"/>
			<polygon class="st10" points="13.8,144.8 13.1,144.4 13.1,138.5 13.8,138.9 			"/>
			<polygon class="st10" points="12.2,143.9 11.5,143.5 11.5,137.6 12.2,138 			"/>
			<path class="st7" d="M9.9,129.1c0,0-0.6,3.7-0.5,4.8c0.1,1.2,0.7,3.1,1.2,3.1s0-4.7,0.9-4.3c0.8,0.5,0.9,1.3,1.3,1
				c0.4-0.3-0.7-4.3-0.4-6S9.9,129.1,9.9,129.1z"/>
			<path class="st11" d="M25.9,89.2c2.9,1,3.5,0.4,3.5,0.4c0-0.2,0-0.4,0.1-0.5c0-0.6,0-1.3-0.2-1.9l-7.6-1
				C21.7,86.1,22.9,88.1,25.9,89.2z"/>
			<path class="st12" d="M29.8,83.2c-0.7-0.6-3.2-3.5-7.7-2.8c-2.8,0.4-5.2,2.3-5.7,6.7c-0.4,2.9,0.7,5.8,2.7,8
				c0.1,0,0.2-0.1,0.3-0.2c1.1-0.7,1.2-1.1,1.2-1.1l0.2-2.2c0-0.3-0.2-0.6-0.6-0.6c-0.2,0-0.5-0.1-0.8-0.5c-0.6-0.8-0.3-2.2,0.9-2.2
				c0.7,0,0.9-0.4,1-0.7c0.1-0.3,0.4-0.5,0.7-0.4c1.5,0.5,5.1,1.7,7.4,1C32.6,87.3,30.5,83.8,29.8,83.2z"/>
			<path class="st10" d="M26.4,91.9l1.8-0.5c0,0-0.9,1.3-2.1,1.7c-1.3,0.3-1.4-0.7-1.4-0.7L26.4,91.9z"/>
			<polygon class="st32" points="13,133.6 11.4,132.7 12,133.7 12.8,134 			"/>
		</g>
	</g>
	<g>
		<g>
			<path class="st20" d="M46.7,136.1l17.5-10c0.3-0.2,0.5-0.5,0.5-0.7l0,0v-2c0,0-0.6,0.5-1,0.8l-11-6.4c-0.9-0.5-2.2-0.6-3-0.1
				L33,127.2l-1.3-0.8v2l0,0c0,0.3,0.2,0.7,0.7,1l11.2,6.6C44.6,136.5,45.9,136.5,46.7,136.1z"/>
			<path class="st1" d="M32.3,125.7l17.5-10c0.8-0.4,2.1-0.4,3,0.1l11.2,6.6c0.9,0.5,1,1.3,0.2,1.7l-17.5,10c-0.8,0.4-2.1,0.4-3-0.1
				l-11.2-6.6C31.6,126.9,31.5,126.1,32.3,125.7z"/>
			<path class="st10" d="M46.7,134.1l17.5-10c0.4-0.3,0.6-0.6,0.5-1c-0.1,0.2-0.2,0.3-0.4,0.5l-17.5,10c-0.8,0.4-2.1,0.4-3-0.1
				l-11.2-6.6c-0.4-0.2-0.6-0.5-0.7-0.8c-0.2,0.4,0,0.9,0.7,1.3l11.2,6.6C44.6,134.5,45.9,134.6,46.7,134.1z"/>
		</g>
		<g>
			<path class="st10" d="M50.7,123c-0.6-0.4-0.6-1,0-1.4c0.7-0.4,1.7-0.4,2.4,0c0.6,0.4,0.6,1,0,1.4C52.4,123.4,51.3,123.4,50.7,123
				z"/>
			<path class="st10" d="M47.1,125.1c-0.6-0.4-0.6-1,0-1.4c0.7-0.4,1.7-0.4,2.4,0c0.6,0.4,0.6,1,0,1.4
				C48.8,125.4,47.8,125.4,47.1,125.1z"/>
			<path class="st10" d="M43.5,127.1c-0.6-0.4-0.6-1,0-1.4c0.7-0.4,1.7-0.4,2.4,0c0.6,0.4,0.6,1,0,1.4
				C45.2,127.5,44.2,127.5,43.5,127.1z"/>
		</g>
	</g>
	<g>
		<path class="st20" d="M145.4,150.1c0,1.6-1.1,2.3-2.5,1.5s-2.5-2.8-2.5-4.4c0-1.6,1.1-2.3,2.5-1.5
			C144.3,146.5,145.4,148.5,145.4,150.1z"/>
		<path class="st20" d="M146.5,154.7C146.5,154.6,146.5,154.6,146.5,154.7c-0.1-0.8-0.8-1.4-1.2-1.2c-0.7,0.2-1.5,0.1-2.4-0.4
			s-1.8-1.4-2.4-2.4c-0.4-0.6-1.1-0.8-1.2-0.2c0,0,0,0,0,0.1l-1.2,7.7l9.6,5.6L146.5,154.7z"/>
	</g>
	<g>
		<path class="st10" d="M145.4,150.1c0,1.6-1.1,2.3-2.5,1.5s-2.5-2.8-2.5-4.4c0-1.6,1.1-2.3,2.5-1.5
			C144.3,146.5,145.4,148.5,145.4,150.1z"/>
		<path class="st10" d="M146.5,154.7C146.5,154.6,146.5,154.6,146.5,154.7c-0.1-0.8-0.8-1.4-1.2-1.2c-0.7,0.2-1.5,0.1-2.4-0.4
			s-1.8-1.4-2.4-2.4c-0.4-0.6-1.1-0.8-1.2-0.2c0,0,0,0,0,0.1l-1.2,7.7l9.6,5.6L146.5,154.7z"/>
	</g>
	<g>
		<polygon class="st10" points="148.4,169.6 136.7,162.8 136.7,162 148.4,168.7 		"/>
		<polygon class="st10" points="144.8,171.2 136.7,166.5 136.7,165.7 144.8,170.4 		"/>
		<polygon class="st10" points="143.7,168.7 136.7,164.7 136.7,163.8 143.7,167.9 		"/>
		<polygon class="st10" points="148.4,171.4 144.8,169.4 144.8,168.5 148.4,170.6 		"/>
	</g>
	<g>
		<polygon class="st2" points="148.4,113.3 136.7,106.5 136.7,105.7 148.4,112.4 		"/>
		<polygon class="st2" points="144.9,114.9 136.7,110.2 136.7,109.3 144.9,114.1 		"/>
		<polygon class="st2" points="143.8,112.4 136.7,108.3 136.7,107.5 143.8,111.6 		"/>
		<polygon class="st2" points="148.4,115.1 144.9,113.1 144.9,112.2 148.4,114.3 		"/>
	</g>
	<g>
		<polygon class="st2" points="148.4,120.4 136.7,113.6 136.7,112.8 148.4,119.5 		"/>
		<polygon class="st2" points="144.9,122 136.7,117.3 136.7,116.5 144.9,121.2 		"/>
		<polygon class="st2" points="143.8,119.5 136.7,115.5 136.7,114.6 143.8,118.7 		"/>
		<polygon class="st2" points="148.4,122.2 144.9,120.2 144.9,119.3 148.4,121.4 		"/>
	</g>
	<g>
		<polygon class="st2" points="148.4,127.5 136.7,120.7 136.7,119.9 148.4,126.6 		"/>
		<polygon class="st2" points="144.9,129.1 136.7,124.4 136.7,123.6 144.9,128.3 		"/>
		<polygon class="st2" points="143.8,126.6 136.7,122.6 136.7,121.7 143.8,125.8 		"/>
		<polygon class="st2" points="148.4,129.3 144.9,127.3 144.9,126.4 148.4,128.5 		"/>
	</g>
	<g>
		<polygon class="st10" points="111.6,147.4 103.2,142.6 103.2,141.8 111.6,146.6 		"/>
		<polygon class="st10" points="116.7,150.4 113.2,148.4 113.2,147.6 116.7,149.6 		"/>
		<polygon class="st10" points="111.8,149.3 108.3,147.2 108.3,146.5 111.8,148.5 		"/>
		<polygon class="st10" points="119.6,153.7 113.2,150 113.2,149.3 119.6,153 		"/>
		<polygon class="st10" points="123.9,158 114.5,152.5 114.5,151.7 123.9,157.2 		"/>
		<polygon class="st10" points="121.8,153.4 118.3,151.3 118.3,150.5 121.8,152.6 		"/>
		<polygon class="st10" points="106.8,146.4 103.2,144.3 103.2,143.5 106.8,145.6 		"/>
		<polygon class="st10" points="113,151.6 103.2,146 103.2,145.2 113,150.8 		"/>
		<polygon class="st10" points="109.2,151.1 103.3,147.8 103.3,147 109.2,150.4 		"/>
	</g>
	<path class="st19" d="M195.7,192.2c-0.2,0-0.4-0.1-0.6-0.3c-0.2-0.3-0.1-0.7,0.2-0.9l24.7-14.6c0.2-0.1,0.2-0.3,0.2-0.4
		c0-0.1,0-0.3-0.2-0.4l-6.7-4c-0.3-0.2-0.4-0.6-0.2-0.9c0.2-0.3,0.6-0.4,0.9-0.2l6.7,4c0.5,0.3,0.8,0.9,0.8,1.5s-0.3,1.2-0.8,1.5
		L196,192.1C196,192.2,195.9,192.2,195.7,192.2z"/>
	<g>
		<polygon class="st20" points="192,203.7 192,198.2 202.3,192.2 202.3,197.8 		"/>
		<polygon class="st20" points="192,198.2 181.8,192.2 181.8,197.8 192,203.7 		"/>
		<polygon class="st1" points="202.3,192.2 192,186.3 181.8,192.2 192,198.2 		"/>
	</g>
	<polygon class="st22" points="109.3,73.3 111,79 115.4,82 112.1,83.4 113.1,89 109.3,84.1 105.5,84.7 106.5,80.2 103.1,74.9 
		107.6,77 	"/>
	<polygon class="st22" points="123.4,81.4 125.1,87.1 129.5,90.1 126.2,91.5 127.2,97.1 123.4,92.2 119.6,92.7 120.6,88.3 117.2,83 
		121.6,85.1 	"/>
	<polygon class="st22" points="101.3,74 96.9,70.9 95.2,65.3 94.9,65.8 94.9,76.1 95.2,76.1 99,81 98,75.3 	"/>
	<g>
		<g>
			<g>
				<polygon class="st17" points="64,45.4 65.8,51.1 70.2,54.1 66.8,55.5 67.8,61.1 64,56.2 60.2,56.7 61.2,52.3 57.9,47 62.3,49.1 
									"/>
				<path class="st18" d="M55.8,48.2l2.1-1.2l3.2,1.5c0,0,0,2.1,0,2.2c0,0.1-1.3,0.1-1.4,0.1C59.6,50.8,55.8,48.2,55.8,48.2z"/>
				<path class="st17" d="M67.8,61.1l-2.1,1.2l-1-5.6l1-1.1l1.1,0.2L67.8,61.1z"/>
				<polygon class="st19" points="62,46.6 63.7,52.3 68.1,55.3 64.8,56.7 65.8,62.3 62,57.4 58.2,57.9 59.2,53.4 55.8,48.2 
					60.2,50.3 				"/>
				<path class="st10" d="M65.8,62.3l-1-5.6l3.4-1.4l-4.4-3L62,46.6l-1.7,3.7l-4.4-2.1l0.3,0.5l4.3,2l1.5-3.2l1.5,5l4,2.8l-3.1,1.2
					l0.9,5.3L65.8,62.3z"/>
				<polygon class="st17" points="62,46.6 64,45.4 65.8,51.1 63.7,52.3 				"/>
				<polygon class="st18" points="70.2,54.1 68.1,55.3 63.7,52.3 65.8,51.1 				"/>
			</g>
			<polygon class="st10" points="63.8,52.4 63.5,52.2 65.7,50.9 65.8,51.1 65.9,51.2 			"/>
		</g>
		<g>
			<g>
				<polygon class="st17" points="78.1,53.5 79.9,59.1 84.3,62.2 80.9,63.6 81.9,69.2 78.1,64.3 74.3,64.8 75.3,60.3 72,55.1 
					76.4,57.2 				"/>
				<path class="st18" d="M69.9,56.3l2.1-1.2l3.2,1.5c0,0,0,2.1,0,2.2c0,0.1-1.3,0.1-1.4,0.1C73.7,58.9,69.9,56.3,69.9,56.3z"/>
				<path class="st17" d="M81.9,69.2l-2.1,1.2l-1-5.6l1-1.1l1.1,0.2L81.9,69.2z"/>
				<polygon class="st19" points="76.1,54.7 77.8,60.3 82.2,63.4 78.9,64.7 79.9,70.4 76.1,65.5 72.3,66 73.3,61.5 69.9,56.3 
					74.3,58.3 				"/>
				<path class="st10" d="M79.9,70.4l-1-5.6l3.4-1.4l-4.4-3l-1.7-5.7l-1.7,3.7l-4.4-2.1l0.3,0.5l4.3,2l1.5-3.2l1.5,5l4,2.8l-3.1,1.2
					l0.9,5.3L79.9,70.4z"/>
				<polygon class="st17" points="76.1,54.7 78.1,53.5 79.9,59.1 77.8,60.3 				"/>
				<polygon class="st18" points="84.3,62.2 82.2,63.4 77.8,60.3 79.9,59.1 				"/>
			</g>
			<polygon class="st10" points="77.9,60.5 77.6,60.3 79.8,59 79.9,59.1 80,59.2 			"/>
		</g>
		<g>
			<g>
				<polygon class="st17" points="92.2,61.5 93.9,67.2 98.4,70.3 95,71.6 96,77.2 92.2,72.4 88.4,72.9 89.4,68.4 86.1,63.2 
					90.5,65.2 				"/>
				<path class="st18" d="M84,64.3l2.1-1.2l3.2,1.5c0,0,0,2.1,0,2.2s-1.3,0.1-1.4,0.1C87.8,67,84,64.3,84,64.3z"/>
				<path class="st17" d="M96,77.2l-2,1.2l-1-5.6l1-1.1l1.1,0.2L96,77.2z"/>
				<polygon class="st19" points="90.2,62.7 91.9,68.4 96.3,71.4 93,72.8 94,78.4 90.2,73.5 86.4,74 87.4,69.6 84,64.3 88.4,66.4 
									"/>
				<path class="st10" d="M94,78.4l-1-5.6l3.4-1.4l-4.4-3l-1.7-5.7l-1.7,3.7L84,64.3l0.3,0.5l4.3,2l1.5-3.2l1.5,5l4,2.8l-3.1,1.2
					l0.9,5.3L94,78.4z"/>
				<polygon class="st17" points="90.2,62.7 92.2,61.5 93.9,67.2 91.9,68.4 				"/>
				<polygon class="st18" points="98.4,70.3 96.3,71.4 91.9,68.4 93.9,67.2 				"/>
			</g>
			<polygon class="st10" points="92,68.5 91.7,68.4 93.9,67.1 93.9,67.2 94.1,67.3 			"/>
		</g>
		<g>
			<g>
				<polygon class="st17" points="106.3,69.6 108,75.3 112.5,78.3 109.1,79.7 110.1,85.3 106.3,80.4 102.5,80.9 103.5,76.5 
					100.2,71.2 104.6,73.3 				"/>
				<path class="st18" d="M98.1,72.4l2.1-1.2l3.2,1.5c0,0,0,2.1,0,2.2S102.1,75,102,75S98.1,72.4,98.1,72.4z"/>
				<path class="st17" d="M110.1,85.3l-2.1,1.2l-1-5.6l1-1.1l1.1,0.2L110.1,85.3z"/>
				<polygon class="st19" points="104.2,70.8 106,76.5 110.4,79.5 107,80.9 108,86.5 104.2,81.6 100.4,82.1 101.5,77.6 98.1,72.4 
					102.5,74.5 				"/>
				<path class="st10" d="M108,86.5l-1-5.6l3.4-1.4l-4.4-3l-1.7-5.7l-1.7,3.7l-4.4-2.1l0.3,0.5l4.3,2l1.5-3.2l1.5,5l4,2.8l-3.1,1.2
					l0.9,5.3L108,86.5z"/>
				<polygon class="st17" points="104.2,70.8 106.3,69.6 108,75.3 106,76.5 				"/>
				<polygon class="st18" points="112.5,78.3 110.4,79.5 106,76.5 108,75.3 				"/>
			</g>
			<polygon class="st10" points="106.1,76.6 105.8,76.4 108,75.1 108,75.3 108.2,75.4 			"/>
		</g>
		<g>
			<g>
				<polygon class="st17" points="120.4,77.7 122.1,83.3 126.6,86.4 123.2,87.8 124.2,93.4 120.4,88.5 116.6,89 117.6,84.5 
					114.3,79.3 118.7,81.4 				"/>
				<path class="st18" d="M112.2,80.5l2.1-1.2l3.2,1.5c0,0,0,2.1,0,2.2s-1.3,0.1-1.4,0.1C116,83.1,112.2,80.5,112.2,80.5z"/>
				<path class="st17" d="M124.2,93.4l-2.1,1.2l-1-5.6l1-1.1l1.1,0.2L124.2,93.4z"/>
				<polygon class="st19" points="118.3,78.9 120.1,84.5 124.5,87.6 121.1,88.9 122.1,94.6 118.3,89.7 114.5,90.2 115.5,85.7 
					112.2,80.5 116.6,82.5 				"/>
				<path class="st10" d="M122.1,94.6l-1-5.6l3.4-1.4l-4.4-3l-1.7-5.7l-1.7,3.7l-4.4-2.1l0.3,0.5l4.3,2l1.5-3.2l1.5,5l4,2.8
					l-3.1,1.2l0.9,5.3L122.1,94.6z"/>
				<polygon class="st17" points="118.3,78.9 120.4,77.7 122.1,83.3 120.1,84.5 				"/>
				<polygon class="st18" points="126.6,86.4 124.5,87.6 120.1,84.5 122.1,83.3 				"/>
			</g>
			<polygon class="st10" points="120.2,84.7 119.9,84.5 122.1,83.2 122.1,83.3 122.3,83.5 			"/>
		</g>
	</g>
</g>
</svg>
