<?xml version="1.0" encoding="utf-8"?>
<!-- Generator: Adobe Illustrator 21.0.0, SVG Export Plug-In . SVG Version: 6.00 Build 0)  -->
<svg version="1.1" id="Capa_1" xmlns="http://www.w3.org/2000/svg" xmlns:xlink="http://www.w3.org/1999/xlink" x="0px" y="0px"
	 viewBox="0 0 115 107" style="enable-background:new 0 0 115 107;" xml:space="preserve">
<style type="text/css">
	.st0{fill:#666666;}
</style>
<title>tech-icon1</title>
<g>
	<path class="st0" d="M54.3,26.5c0.5,0,1,0,1.5,0c0.8,0.2,1.6,0.7,2.2,1.4c0.1,0.1,0.3,0.2,0.5,0.2c1.6,0,2.9,0.7,3.8,1.9
		c0.7,0.9,1.1,1.9,1.7,2.9c0.1,0.2,0.2,0.4,0.2,0.5c0.6-0.2,1.1-0.3,1.8-0.5c0,0.4,0,0.6,0,0.9c-0.1,2.1-0.2,4.2-0.3,6.3
		c-0.2,4.3-0.4,8.8-0.5,13.1c-0.2,5.3-0.5,10.7-0.7,16c-0.2,3.9-0.4,7.8-0.5,11.7c-0.1,0-0.2,0-0.2,0c-0.9-0.2-1.9-0.4-2.8-0.6
		c-7.5-1.4-14.9-2.8-22.5-4.2c-1.8-0.3-3.5-0.7-5.2-1c0-0.1,0-0.2,0-0.2c0.5-3.9,1-7.8,1.5-11.7c0.5-4,1.1-7.9,1.5-11.9
		c0.4-2.8,0.8-5.6,1.1-8.5c0.1-0.8,0.5-1.2,1.3-1.4c1.6-0.5,3.1-1,4.6-1.4c0.5-0.2,0.8-0.4,0.8-0.9c0.8-3,1.9-5.8,3.8-8.3
		c1.4-1.9,3.1-3.4,5.4-4C53.6,26.7,54,26.6,54.3,26.5z M41.9,64.7c-0.5,1.4-0.8,2.8-1.3,4.2c-0.2,0.4-0.1,0.6,0.2,0.9
		c2.2,2,4.8,2.9,7.7,2.9c3.5,0,6.2-2.1,7.2-5.3c1.1-3.9,0.3-6.9-2.7-9.4c-0.5-0.4-0.9-0.7-1.4-1.1c-0.7-0.5-1.4-1.1-2-1.6
		c-1.4-1.3-0.7-3.4,0.8-3.7c0.8-0.2,1.8-0.4,2.6-0.2c1.1,0.1,2.2,0.5,3.4,0.8c0.7-2,1.4-4,2.1-6.1c-0.3-0.2-0.6-0.2-0.8-0.3
		c-1.9-0.6-3.8-0.6-5.7-0.3c-3.4,0.5-6.1,2.1-7.6,5.3c-1.6,3.4-1.8,7.6,2.3,10.5c0.6,0.5,1.1,0.9,1.7,1.4c0.4,0.5,0.8,0.9,0.9,1.4
		c0.6,1.7-0.5,3.2-2.4,3c-1.3-0.1-2.4-0.7-3.4-1.4C42.9,65.5,42.5,65.1,41.9,64.7z M46,39.1c1.4-0.5,2.7-0.8,4.1-1.3
		c0.2-0.1,0.2-0.2,0.2-0.4c0.2-0.8,0.4-1.6,0.6-2.4c0.9-2.7,2.3-5,4.9-6.3v-0.1c-0.5-0.4-1.1-0.2-1.6-0.2c-2,0.3-3.4,1.4-4.6,3
		c-1.5,1.9-2.5,4-3.3,6.3C46.3,38.2,46.2,38.5,46,39.1z M52.4,37c1.8-0.5,3.5-1.1,5.1-1.6c0.2-0.1,0.3-0.3,0.3-0.5
		c-0.1-0.9-0.1-1.9-0.2-2.8c-0.1-0.6-0.3-1.2-0.5-2C54.4,31.7,53.3,34.2,52.4,37z M62.3,34c-0.2-1.8-1.8-3.8-3-4
		c0.2,1.5,0.4,3.1,0.5,4.7C60.6,34.5,61.4,34.3,62.3,34z"/>
	<path class="st0" d="M80.9,77.3c-5.5,1.2-10.9,2.4-16.5,3.6c0.7-16,1.4-31.9,2.1-47.9c0.2,0.2,0.4,0.3,0.5,0.4
		c0.9,0.9,1.8,1.8,2.7,2.7c0.2,0.2,0.5,0.3,0.7,0.3c1.2,0.2,2.5,0.2,3.7,0.3c0.5,0,0.7,0.2,0.8,0.7c0.5,3,0.9,6,1.3,9
		c0.7,4.4,1.3,8.8,2,13.3s1.3,8.8,2,13.3C80.5,74.3,80.7,75.8,80.9,77.3z"/>
</g>
</svg>
