<?xml version="1.0" encoding="utf-8"?>
<!-- Generator: Adobe Illustrator 24.3.0, SVG Export Plug-In . SVG Version: 6.00 Build 0)  -->
<svg version="1.1" id="Layer_1" xmlns="http://www.w3.org/2000/svg" xmlns:xlink="http://www.w3.org/1999/xlink" x="0px" y="0px"
	 viewBox="0 0 225 166.7" style="enable-background:new 0 0 225 166.7;" xml:space="preserve">
<style type="text/css">
	.st0{fill:#F5F5F5;}
	.st1{fill:#E1E1E1;}
	.st2{fill:#FFFFFF;}
	.st3{fill:#FCC4A7;}
	.st4{fill:#2C4482;}
	.st5{opacity:0.7;}
	.st6{clip-path:url(#SVGID_2_);fill:#FB9A77;}
	.st7{clip-path:url(#SVGID_4_);fill:#FB9A77;}
	.st8{fill:#A55316;}
	.st9{clip-path:url(#SVGID_6_);fill:#FB9A77;}
	.st10{fill:#323435;}
	.st11{fill:#232526;}
	.st12{fill:#414344;}
	.st13{fill:#EE54A1;}
	.st14{opacity:0.3;}
	.st15{clip-path:url(#SVGID_8_);fill:#FB9A77;}
	.st16{fill:#F9AF5F;}
	.st17{fill:#ED9B3A;}
	.st18{fill:#E28A2B;}
	.st19{fill:#323441;}
	.st20{fill:#243D42;}
	.st21{fill:#FB9A77;}
	.st22{fill:#8E554F;}
	.st23{fill:#F98282;}
	.st24{clip-path:url(#SVGID_10_);fill:#FB9A77;}
	.st25{clip-path:url(#SVGID_12_);fill:#FB9A77;}
	.st26{fill:#DD4599;}
	.st27{clip-path:url(#SVGID_14_);fill:#FB9A77;}
	.st28{clip-path:url(#SVGID_16_);fill:#FB9A77;}
	.st29{opacity:0.68;}
	.st30{clip-path:url(#SVGID_18_);fill:#F7C961;}
	.st31{fill:#4A5CC6;}
	.st32{fill:#385A64;}
	.st33{clip-path:url(#SVGID_20_);fill:#99A2A9;}
	.st34{clip-path:url(#SVGID_22_);fill:#C9C9C9;}
	.st35{clip-path:url(#SVGID_24_);fill:#C9C9C9;}
	.st36{fill:#512301;}
	.st37{clip-path:url(#SVGID_26_);fill:#FCC4A7;}
	.st38{fill:#0093ED;}
	.st39{fill:#2A3C87;}
	.st40{fill:#0E9AE0;}
	.st41{clip-path:url(#SVGID_28_);fill:#FB9A77;}
	.st42{clip-path:url(#SVGID_31_);fill:#FCC4A7;}
	.st43{clip-path:url(#SVGID_33_);fill:#FCC4A7;}
	.st44{fill:#0FA1EA;}
	.st45{clip-path:url(#SVGID_35_);fill:#FB9A77;}
	.st46{clip-path:url(#SVGID_37_);fill:none;stroke:#FB9A77;stroke-miterlimit:10;}
	.st47{fill:#2E4C54;}
	.st48{fill:#404AA9;}
	.st49{fill:#20326B;}
	.st50{opacity:0.15;}
	.st51{clip-path:url(#SVGID_39_);fill:#FFFFFF;}
	.st52{clip-path:url(#SVGID_41_);fill:#FFFFFF;}
	.st53{fill:#2F3E93;}
	.st54{fill:#FF9243;}
	.st55{fill:#F9B282;}
</style>
<g>
	<rect x="83.6" y="91.4" class="st0" width="8.7" height="3.1"/>
	<rect x="73.6" y="85.3" class="st0" width="28.4" height="5"/>
	<rect x="65" y="85.3" class="st0" width="8.6" height="5"/>
	<rect x="53.3" y="4.4" class="st1" width="77.3" height="58"/>
	<rect x="54.5" y="5.3" class="st0" width="74.9" height="56.2"/>
	<polygon class="st2" points="119.6,9.1 123.7,9.1 123.7,20.7 115.8,20.7 115.8,12.1 	"/>
	<polygon class="st2" points="110.1,9.1 114.2,9.1 114.2,20.7 106.3,20.7 106.3,12.1 	"/>
	<polygon class="st1" points="100,9.1 104.1,9.1 104.1,20.7 96.2,20.7 96.2,12.1 	"/>
	<polygon class="st2" points="119.6,23.1 123.7,23.1 123.7,34.7 115.8,34.7 115.8,26.2 	"/>
	<polygon class="st1" points="110.1,23.1 114.2,23.1 114.2,34.7 106.3,34.7 106.3,26.2 	"/>
	<polygon class="st2" points="100,23.1 104.1,23.1 104.1,34.7 96.2,34.7 96.2,26.2 	"/>
	<polygon class="st2" points="69,11.4 77.5,11.4 77.5,35.3 61.2,35.3 61.2,17.7 	"/>
	<rect x="79.3" y="24.5" class="st2" width="14.8" height="0.7"/>
	<rect x="79.3" y="26.7" class="st2" width="14.8" height="0.7"/>
	<rect x="79.3" y="29.3" class="st2" width="14.8" height="0.7"/>
	<rect x="79.3" y="31.8" class="st2" width="14.8" height="0.7"/>
	<rect x="79.3" y="34.4" class="st2" width="14.8" height="0.7"/>
	<rect x="96.2" y="49.2" class="st1" width="30.3" height="0.6"/>
	<rect x="96.2" y="45.9" class="st0" width="30.3" height="0.6"/>
	<rect x="96.2" y="51.4" class="st2" width="30.3" height="0.6"/>
	<rect x="96.2" y="53.7" class="st1" width="30.3" height="0.6"/>
	<rect x="96.2" y="55.9" class="st2" width="30.3" height="0.6"/>
	<path class="st1" d="M60.7,43.1c0-0.3,0-0.6,0.1-0.8c0.1-0.3,0.2-0.6,0.3-0.7c0.2-0.2,0.4-0.3,0.7-0.3s0.6,0.1,0.8,0.4
		s0.3,0.8,0.3,1.5c0,0.3,0,0.6-0.1,0.8c-0.1,0.3-0.2,0.6-0.3,0.7C62.3,44.9,62,45,61.7,45s-0.5-0.1-0.7-0.3
		c-0.1-0.2-0.2-0.4-0.3-0.7C60.7,43.7,60.7,43.4,60.7,43.1 M60.9,43.1c0,0.4,0,0.8,0.1,1.1c0.1,0.4,0.4,0.6,0.7,0.6s0.6-0.2,0.7-0.6
		c0.1-0.3,0.1-0.6,0.1-1.1c0-0.4,0-0.8-0.1-1c-0.1-0.4-0.4-0.6-0.7-0.6s-0.6,0.2-0.7,0.6C60.9,42.4,60.9,42.7,60.9,43.1"/>
	<polygon class="st1" points="64.2,41.8 65.3,41.3 65.4,41.3 65.4,44.7 66.5,44.7 66.5,44.9 64.2,44.9 64.2,44.7 65.2,44.7 
		65.2,41.5 64.2,41.9 	"/>
	<polygon class="st1" points="67.7,41.8 68.9,41.3 69,41.3 69,44.7 70.1,44.7 70.1,44.9 67.7,44.9 67.7,44.7 68.8,44.7 68.8,41.5 
		67.8,41.9 	"/>
	<path class="st1" d="M71.4,43.1c0-0.3,0-0.6,0.1-0.8c0.1-0.3,0.2-0.6,0.3-0.7c0.2-0.2,0.4-0.3,0.7-0.3c0.3,0,0.6,0.1,0.8,0.4
		c0.2,0.3,0.3,0.8,0.3,1.5c0,0.3,0,0.6-0.1,0.8c-0.1,0.3-0.2,0.6-0.3,0.7C73,44.9,72.8,45,72.5,45s-0.5-0.1-0.7-0.3
		c-0.1-0.2-0.2-0.4-0.3-0.7C71.4,43.7,71.4,43.4,71.4,43.1 M71.6,43.1c0,0.4,0,0.8,0.1,1.1c0.1,0.4,0.4,0.6,0.7,0.6
		c0.3,0,0.6-0.2,0.7-0.6c0.1-0.3,0.1-0.6,0.1-1.1c0-0.4,0-0.8-0.1-1c-0.1-0.4-0.4-0.6-0.7-0.6c-0.3,0-0.6,0.2-0.7,0.6
		C71.7,42.4,71.6,42.7,71.6,43.1"/>
	<polygon class="st1" points="74.9,41.8 76,41.3 76.2,41.3 76.2,44.7 77.2,44.7 77.2,44.9 74.9,44.9 74.9,44.7 75.9,44.7 75.9,41.5 
		75,41.9 	"/>
	<path class="st1" d="M78.5,43.1c0-0.3,0-0.6,0.1-0.8c0.1-0.3,0.2-0.6,0.3-0.7c0.2-0.2,0.4-0.3,0.7-0.3c0.3,0,0.6,0.1,0.8,0.4
		c0.2,0.3,0.3,0.8,0.3,1.5c0,0.3,0,0.6-0.1,0.8c-0.1,0.3-0.2,0.6-0.3,0.7c-0.2,0.2-0.4,0.3-0.7,0.3c-0.3,0-0.5-0.1-0.7-0.3
		c-0.1-0.2-0.2-0.4-0.3-0.7S78.5,43.4,78.5,43.1 M78.8,43.1c0,0.4,0,0.8,0.1,1.1c0.1,0.4,0.4,0.6,0.7,0.6c0.3,0,0.6-0.2,0.7-0.6
		c0.1-0.3,0.1-0.6,0.1-1.1c0-0.4,0-0.8-0.1-1c-0.1-0.4-0.4-0.6-0.7-0.6c-0.3,0-0.6,0.2-0.7,0.6C78.8,42.4,78.8,42.7,78.8,43.1"/>
	<polygon class="st1" points="82,41.8 83.2,41.3 83.3,41.3 83.3,44.7 84.4,44.7 84.4,44.9 82,44.9 82,44.7 83.1,44.7 83.1,41.5 
		82.1,41.9 	"/>
	<path class="st1" d="M85.7,43.1c0-0.3,0-0.6,0.1-0.8c0.1-0.3,0.2-0.6,0.3-0.7c0.2-0.2,0.4-0.3,0.7-0.3c0.3,0,0.6,0.1,0.8,0.4
		c0.2,0.3,0.3,0.8,0.3,1.5c0,0.3,0,0.6-0.1,0.8c-0.1,0.3-0.2,0.6-0.3,0.7c-0.2,0.2-0.4,0.3-0.7,0.3c-0.3,0-0.5-0.1-0.7-0.3
		c-0.1-0.2-0.2-0.4-0.3-0.7S85.7,43.4,85.7,43.1 M85.9,43.1c0,0.4,0,0.8,0.1,1.1c0.1,0.4,0.4,0.6,0.7,0.6c0.3,0,0.6-0.2,0.7-0.6
		c0.1-0.3,0.1-0.6,0.1-1.1c0-0.4,0-0.8-0.1-1c-0.1-0.4-0.4-0.6-0.7-0.6c-0.3,0-0.6,0.2-0.7,0.6C86,42.4,85.9,42.7,85.9,43.1"/>
	<polygon class="st1" points="89.2,41.8 90.3,41.3 90.5,41.3 90.5,44.7 91.5,44.7 91.5,44.9 89.2,44.9 89.2,44.7 90.2,44.7 
		90.2,41.5 89.3,41.9 	"/>
	<path class="st1" d="M60.7,49.2c0-0.3,0-0.6,0.1-0.8c0.1-0.3,0.2-0.6,0.3-0.7c0.2-0.2,0.4-0.3,0.7-0.3s0.6,0.1,0.8,0.4
		s0.3,0.8,0.3,1.5c0,0.3,0,0.6-0.1,0.8c-0.1,0.3-0.2,0.6-0.3,0.7c-0.2,0.2-0.4,0.3-0.7,0.3s-0.5-0.1-0.7-0.3
		c-0.1-0.2-0.2-0.4-0.3-0.7S60.7,49.5,60.7,49.2 M60.9,49.2c0,0.4,0,0.8,0.1,1.1c0.1,0.4,0.4,0.6,0.7,0.6s0.6-0.2,0.7-0.6
		c0.1-0.3,0.1-0.6,0.1-1.1c0-0.4,0-0.8-0.1-1c-0.1-0.4-0.4-0.6-0.7-0.6s-0.6,0.2-0.7,0.6C60.9,48.4,60.9,48.8,60.9,49.2"/>
	<polygon class="st1" points="64.2,47.9 65.3,47.3 65.4,47.3 65.4,50.8 66.5,50.8 66.5,51 64.2,51 64.2,50.8 65.2,50.8 65.2,47.6 
		64.2,48 	"/>
	<path class="st1" d="M67.8,49.2c0-0.3,0-0.6,0.1-0.8c0.1-0.3,0.2-0.6,0.3-0.7c0.2-0.2,0.4-0.3,0.7-0.3c0.3,0,0.6,0.1,0.8,0.4
		c0.2,0.3,0.3,0.8,0.3,1.5c0,0.3,0,0.6-0.1,0.8c-0.1,0.3-0.2,0.6-0.3,0.7c-0.2,0.2-0.4,0.3-0.7,0.3c-0.3,0-0.5-0.1-0.7-0.3
		c-0.1-0.2-0.2-0.4-0.3-0.7S67.8,49.5,67.8,49.2 M68,49.2c0,0.4,0,0.8,0.1,1.1c0.1,0.4,0.4,0.6,0.7,0.6c0.3,0,0.6-0.2,0.7-0.6
		c0.1-0.3,0.1-0.6,0.1-1.1c0-0.4,0-0.8-0.1-1c-0.1-0.4-0.4-0.6-0.7-0.6c-0.3,0-0.6,0.2-0.7,0.6C68.1,48.4,68,48.8,68,49.2"/>
	<path class="st1" d="M71.4,49.2c0-0.3,0-0.6,0.1-0.8c0.1-0.3,0.2-0.6,0.3-0.7c0.2-0.2,0.4-0.3,0.7-0.3c0.3,0,0.6,0.1,0.8,0.4
		c0.2,0.3,0.3,0.8,0.3,1.5c0,0.3,0,0.6-0.1,0.8c-0.1,0.3-0.2,0.6-0.3,0.7c-0.2,0.2-0.4,0.3-0.7,0.3c-0.3,0-0.5-0.1-0.7-0.3
		c-0.1-0.2-0.2-0.4-0.3-0.7S71.4,49.5,71.4,49.2 M71.6,49.2c0,0.4,0,0.8,0.1,1.1c0.1,0.4,0.4,0.6,0.7,0.6c0.3,0,0.6-0.2,0.7-0.6
		c0.1-0.3,0.1-0.6,0.1-1.1c0-0.4,0-0.8-0.1-1c-0.1-0.4-0.4-0.6-0.7-0.6c-0.3,0-0.6,0.2-0.7,0.6C71.7,48.4,71.6,48.8,71.6,49.2"/>
	<polygon class="st1" points="74.9,47.9 76,47.3 76.2,47.3 76.2,50.8 77.2,50.8 77.2,51 74.9,51 74.9,50.8 75.9,50.8 75.9,47.6 
		75,48 	"/>
	<path class="st1" d="M78.5,49.2c0-0.3,0-0.6,0.1-0.8c0.1-0.3,0.2-0.6,0.3-0.7c0.2-0.2,0.4-0.3,0.7-0.3c0.3,0,0.6,0.1,0.8,0.4
		c0.2,0.3,0.3,0.8,0.3,1.5c0,0.3,0,0.6-0.1,0.8c-0.1,0.3-0.2,0.6-0.3,0.7c-0.2,0.2-0.4,0.3-0.7,0.3c-0.3,0-0.5-0.1-0.7-0.3
		c-0.1-0.2-0.2-0.4-0.3-0.7S78.5,49.5,78.5,49.2 M78.8,49.2c0,0.4,0,0.8,0.1,1.1c0.1,0.4,0.4,0.6,0.7,0.6c0.3,0,0.6-0.2,0.7-0.6
		c0.1-0.3,0.1-0.6,0.1-1.1c0-0.4,0-0.8-0.1-1c-0.1-0.4-0.4-0.6-0.7-0.6c-0.3,0-0.6,0.2-0.7,0.6C78.8,48.4,78.8,48.8,78.8,49.2"/>
	<polygon class="st1" points="82,47.9 83.2,47.3 83.3,47.3 83.3,50.8 84.4,50.8 84.4,51 82,51 82,50.8 83.1,50.8 83.1,47.6 82.1,48 
			"/>
	<path class="st1" d="M85.7,49.2c0-0.3,0-0.6,0.1-0.8c0.1-0.3,0.2-0.6,0.3-0.7c0.2-0.2,0.4-0.3,0.7-0.3c0.3,0,0.6,0.1,0.8,0.4
		c0.2,0.3,0.3,0.8,0.3,1.5c0,0.3,0,0.6-0.1,0.8c-0.1,0.3-0.2,0.6-0.3,0.7c-0.2,0.2-0.4,0.3-0.7,0.3c-0.3,0-0.5-0.1-0.7-0.3
		c-0.1-0.2-0.2-0.4-0.3-0.7S85.7,49.5,85.7,49.2 M85.9,49.2c0,0.4,0,0.8,0.1,1.1c0.1,0.4,0.4,0.6,0.7,0.6c0.3,0,0.6-0.2,0.7-0.6
		c0.1-0.3,0.1-0.6,0.1-1.1c0-0.4,0-0.8-0.1-1c-0.1-0.4-0.4-0.6-0.7-0.6c-0.3,0-0.6,0.2-0.7,0.6C86,48.4,85.9,48.8,85.9,49.2"/>
	<polygon class="st1" points="89.2,47.9 90.3,47.3 90.5,47.3 90.5,50.8 91.5,50.8 91.5,51 89.2,51 89.2,50.8 90.2,50.8 90.2,47.6 
		89.3,48 	"/>
	<path class="st1" d="M60.7,55.3c0-0.3,0-0.6,0.1-0.8c0.1-0.3,0.2-0.6,0.3-0.7c0.2-0.2,0.4-0.3,0.7-0.3s0.6,0.1,0.8,0.4
		s0.3,0.8,0.3,1.5c0,0.3,0,0.6-0.1,0.8c-0.1,0.3-0.2,0.6-0.3,0.7c-0.2,0.2-0.4,0.3-0.7,0.3s-0.5-0.1-0.7-0.3
		c-0.1-0.2-0.2-0.4-0.3-0.7S60.7,55.6,60.7,55.3 M60.9,55.3c0,0.4,0,0.8,0.1,1.1c0.1,0.4,0.4,0.6,0.7,0.6s0.6-0.2,0.7-0.6
		c0.1-0.3,0.1-0.6,0.1-1.1c0-0.4,0-0.8-0.1-1c-0.1-0.4-0.4-0.6-0.7-0.6s-0.6,0.2-0.7,0.6C60.9,54.5,60.9,54.9,60.9,55.3"/>
	<path class="st1" d="M64.2,55.3c0-0.3,0-0.6,0.1-0.8c0.1-0.3,0.2-0.6,0.3-0.7c0.2-0.2,0.4-0.3,0.7-0.3c0.3,0,0.6,0.1,0.8,0.4
		c0.2,0.3,0.3,0.8,0.3,1.5c0,0.3,0,0.6-0.1,0.8c-0.1,0.3-0.2,0.6-0.3,0.7c-0.2,0.2-0.4,0.3-0.7,0.3c-0.3,0-0.5-0.1-0.7-0.3
		c-0.1-0.2-0.2-0.4-0.3-0.7S64.2,55.6,64.2,55.3 M64.5,55.3c0,0.4,0,0.8,0.1,1.1c0.1,0.4,0.4,0.6,0.7,0.6c0.3,0,0.6-0.2,0.7-0.6
		c0.1-0.3,0.1-0.6,0.1-1.1c0-0.4,0-0.8-0.1-1c-0.1-0.4-0.4-0.6-0.7-0.6c-0.3,0-0.6,0.2-0.7,0.6C64.5,54.5,64.5,54.9,64.5,55.3"/>
	<polygon class="st1" points="67.7,53.9 68.9,53.4 69,53.4 69,56.9 70.1,56.9 70.1,57.1 67.7,57.1 67.7,56.9 68.8,56.9 68.8,53.7 
		67.8,54.1 	"/>
	<polygon class="st1" points="71.3,53.9 72.4,53.4 72.6,53.4 72.6,56.9 73.6,56.9 73.6,57.1 71.3,57.1 71.3,56.9 72.4,56.9 
		72.4,53.7 71.4,54.1 	"/>
	<path class="st1" d="M74.9,55.3c0-0.3,0-0.6,0.1-0.8c0.1-0.3,0.2-0.6,0.3-0.7c0.2-0.2,0.4-0.3,0.7-0.3c0.3,0,0.6,0.1,0.8,0.4
		c0.2,0.3,0.3,0.8,0.3,1.5c0,0.3,0,0.6-0.1,0.8c-0.1,0.3-0.2,0.6-0.3,0.7c-0.2,0.2-0.4,0.3-0.7,0.3c-0.3,0-0.5-0.1-0.7-0.3
		c-0.1-0.2-0.2-0.4-0.3-0.7C75,55.9,74.9,55.6,74.9,55.3 M75.2,55.3c0,0.4,0,0.8,0.1,1.1c0.1,0.4,0.4,0.6,0.7,0.6
		c0.3,0,0.6-0.2,0.7-0.6c0.1-0.3,0.1-0.6,0.1-1.1c0-0.4,0-0.8-0.1-1c-0.1-0.4-0.4-0.6-0.7-0.6c-0.3,0-0.6,0.2-0.7,0.6
		C75.2,54.5,75.2,54.9,75.2,55.3"/>
	<polygon class="st1" points="78.4,53.9 79.6,53.4 79.7,53.4 79.7,56.9 80.8,56.9 80.8,57.1 78.5,57.1 78.5,56.9 79.5,56.9 
		79.5,53.7 78.5,54.1 	"/>
	<path class="st1" d="M82.1,55.3c0-0.3,0-0.6,0.1-0.8c0.1-0.3,0.2-0.6,0.3-0.7c0.2-0.2,0.4-0.3,0.7-0.3c0.3,0,0.6,0.1,0.8,0.4
		c0.2,0.3,0.3,0.8,0.3,1.5c0,0.3,0,0.6-0.1,0.8c-0.1,0.3-0.2,0.6-0.3,0.7c-0.2,0.2-0.4,0.3-0.7,0.3c-0.3,0-0.5-0.1-0.7-0.3
		c-0.1-0.2-0.2-0.4-0.3-0.7S82.1,55.6,82.1,55.3 M82.3,55.3c0,0.4,0,0.8,0.1,1.1c0.1,0.4,0.4,0.6,0.7,0.6c0.3,0,0.6-0.2,0.7-0.6
		c0.1-0.3,0.1-0.6,0.1-1.1c0-0.4,0-0.8-0.1-1c-0.1-0.4-0.4-0.6-0.7-0.6c-0.3,0-0.6,0.2-0.7,0.6C82.4,54.5,82.3,54.9,82.3,55.3"/>
	<polygon class="st1" points="85.6,53.9 86.7,53.4 86.9,53.4 86.9,56.9 87.9,56.9 87.9,57.1 85.6,57.1 85.6,56.9 86.7,56.9 
		86.7,53.7 85.7,54.1 	"/>
	<path class="st1" d="M89.2,55.3c0-0.3,0-0.6,0.1-0.8c0.1-0.3,0.2-0.6,0.3-0.7c0.2-0.2,0.4-0.3,0.7-0.3c0.3,0,0.6,0.1,0.8,0.4
		c0.2,0.3,0.3,0.8,0.3,1.5c0,0.3,0,0.6-0.1,0.8c-0.1,0.3-0.2,0.6-0.3,0.7c-0.2,0.2-0.4,0.3-0.7,0.3c-0.3,0-0.5-0.1-0.7-0.3
		c-0.1-0.2-0.2-0.4-0.3-0.7C89.3,55.9,89.2,55.6,89.2,55.3 M89.5,55.3c0,0.4,0,0.8,0.1,1.1c0.1,0.4,0.4,0.6,0.7,0.6
		c0.3,0,0.6-0.2,0.7-0.6c0.1-0.3,0.1-0.6,0.1-1.1c0-0.4,0-0.8-0.1-1c-0.1-0.4-0.4-0.6-0.7-0.6c-0.3,0-0.6,0.2-0.7,0.6
		C89.5,54.5,89.5,54.9,89.5,55.3"/>
	<path class="st0" d="M221.4,153.1c0,5.3-49.3,9.5-110.1,9.5S1.1,158.3,1.1,153.1c0-5.3,49.3-9.5,110.1-9.5S221.4,147.8,221.4,153.1
		"/>
	<path class="st3" d="M124.1,74.7c-0.2,0.1-0.3,0.2-0.3,0.2C123.8,74.9,123.9,74.8,124.1,74.7"/>
	<path class="st4" d="M95.6,18.3L95.6,18.3L95.6,18.3c-0.1,0.1-0.2,0.3-0.3,0.5c-0.4,0.6-1.2,1.8-2.2,3.2c-0.2,0.3-0.5,0.7-0.8,1
		c-1.7,2.2-3.5,4.3-5.8,5.9c-0.9,0.6-2,1.4-3.2,1.6c-0.8,0.1-2.1,0.1-2.4,0.9C80.6,32,81,33,81.1,33.7c0.1,2.7,0.1,5.6-0.7,8.1
		c-0.6,2.1-1.6,4-2.8,5.8c-1.1,1.6-1.9,3.5-4,2.6c-0.3-0.1-0.6-0.3-0.7-0.7s0.3-0.8,0.6-1.1c1.4-1.5,2-3.7,1.4-5.7
		c0-0.1-0.1-0.3-0.1-0.4c-0.5-1.4-1.5-2.6-2-4c-0.3-0.8-0.4-1.7-0.4-2.6c0-1.1,0.3-2.2,0.8-3.2s1.1-2,1.2-3.1
		c0.2-1.4-0.8-2.5-0.9-3.9s0.2-2.8,0.8-4c0.9-1.8,2.5-2.9,2.9-5c0.1-0.3,0.1-0.6,0.2-0.9v-0.1c0.1-0.4,0.3-0.7,0.4-1.1
		c0.4-0.8,0.9-1.4,1.7-1.8c1-0.4,2.2-0.4,3.2-0.7s2-0.5,3-0.6c0.1,0,0.3,0,0.4,0c0.7,0,1.4,0,2,0.1C93.8,12.3,95.6,18.3,95.6,18.3"
		/>
	<path class="st4" d="M75.9,42.9c-0.3,0-0.7-0.2-1.2-0.5c-0.5-1.4-1.5-2.6-2-4c-0.3-0.8-0.4-1.7-0.4-2.6c0.3-1.4,0.8-2.6,1.7-3.6
		c0.8-0.8,2-1.4,2-2.5c0,2.3-0.3,4.4-0.8,6.6C75,38.5,74.8,40.9,75.9,42.9"/>
	<path class="st4" d="M80.5,30.1c-1.9-0.8-2.8-2.5-2.3-4.6c0.3-1.4,0.9-4.5,2.8-4.5c0.5,0,1,0.3,1.4,0.7s0.6,0.9,0.8,1.3
		c0.5,1.1,1.5-0.8,1.7-1.2c0.6-0.9,1.3-2.1,1.5-3.2c-0.2,1.4-0.5,2.8-0.9,4.1c-0.5,1.5,0.2,2.9-0.6,4.2
		C83.9,28.5,82.3,29.8,80.5,30.1"/>
	<path class="st3" d="M87.5,35.7c0,0.4,0,0.9,0,1.3c0.1,1,0.6,3.4-0.1,4.2c-1.3,1.3-5.3-1.2-6.4-1.9c-0.8-0.5-1.3-0.8-1.6-1.7
		c0.5-2.1,0.8-4.2,0.9-6.4c0-0.6,0.1-1.2,0.1-1.7s0-1,0-1.5c0.6-0.6,2.1-1.8,2.9-1.5c0.9,0.3,1.6,0.8,2.3,1.4c1.3,1,3.5,1.8,2.9,3.3
		c-0.5,1.3-0.8,2.5-1,3.8C87.6,35.2,87.6,35.4,87.5,35.7"/>
	<g class="st5">
		<g>
			<g>
				<g>
					<g>
						<defs>
							<rect id="SVGID_1_" x="80.4" y="26.4" width="8.2" height="9.3"/>
						</defs>
						<clipPath id="SVGID_2_">
							<use xlink:href="#SVGID_1_"  style="overflow:visible;"/>
						</clipPath>
						<path class="st6" d="M88.6,31.1c-0.5,1.3-0.8,2.5-1,3.8c0,0.3,0,0.5-0.1,0.8c-2.9-1.4-5.4-3.6-7.1-6.2c0-0.5,0-1,0-1.5
							c0.6-0.6,2.1-1.8,2.9-1.5c0.9,0.3,1.6,0.8,2.3,1.4C86.9,28.8,89.1,29.6,88.6,31.1"/>
					</g>
				</g>
			</g>
		</g>
	</g>
	<path class="st3" d="M94.1,20.5l-1.9-1.7c0,0-2.9-2.4-3.4-2.4c-0.2,0-1.3,0.2-2.5,0.5c0,0.1-0.1,0.1-0.3,0.1
		c-1.5,0.3-3,0.7-3.2,0.7c-0.3,0-0.5,2.7-0.6,4.6c0,0.9-0.1,1.6-0.1,1.7c0-0.4-0.1-0.9-0.4-1.2c-0.1-0.2-0.3-0.3-0.4-0.4
		s-0.3-0.1-0.4-0.1c-0.5-0.1-1,0.2-1.3,0.6c0,0,0,0.1-0.1,0.1c-0.5,0.7-0.4,1.7-0.3,2.5c0.1,0.4,0.1,1,0.4,1.3
		c0.2,0.3,0.4,0.3,0.5,0.5c0.1,0.1,0.1,0.2,0.2,0.4l0,0c0.2,0.8,0.3,1.4,0.9,2c0.1,0.1,0.1,0.2,0.2,0.2l0,0c0.2,0.2,0.4,0.5,0.6,0.7
		c1.3,1.4,2.9,2.9,4.8,3.3C87.2,34,87.6,34,88,34c1.6-0.1,3.1-1.8,4.3-3.9c0.4-0.8,0.8-1.6,1.2-2.5c0.6-1.5,1.1-2.9,1.5-4l0,0
		c0.3-1,0.5-1.7,0.5-1.7L94.1,20.5z"/>
	<g class="st5">
		<g>
			<g>
				<g>
					<g>
						<defs>
							<rect id="SVGID_3_" x="81.5" y="15.8" width="13.9" height="10.5"/>
						</defs>
						<clipPath id="SVGID_4_">
							<use xlink:href="#SVGID_3_"  style="overflow:visible;"/>
						</clipPath>
						<path class="st7" d="M93.4,17.3c0.7,1.6,0.3,2.9,1.7,4.2c0.6,0.6,0.4,1.5-0.1,2.1c-0.6,0.7-0.9,0.9-1,1.9c0-0.8,0-1.6-0.5-2.3
							c-0.6-0.8-1.5-0.9-2.1-1.6c-0.6-0.8-1-2-0.9-3c-0.5,1.3-0.3,2.6-1.5,3.6c-1.2,1.1-2.5,0.5-3.9,0.3c-0.3,1-1,1.8-1.6,2.6
							c-0.1,0.2-2,1.6-2,1.4c0.2-1.6,0.6-3.2,0.8-4.8c0-0.3,0.2-3.9,0.5-3.8c0.2,0,1.8-0.3,3.2-0.7c0.1,0,0.2-0.1,0.4-0.1
							C88,16.7,89.3,16,91,16c0.4,0,0.8,0,1.2,0.2C92.7,16.2,93.1,16.7,93.4,17.3"/>
					</g>
				</g>
			</g>
		</g>
	</g>
	<path class="st8" d="M86.2,18.7L86.2,18.7c-0.8,2.6-2.4,4.8-4.5,6.5c0.3-0.9,0.2-1.9-0.1-2.8c0.9,0,1.8-0.1,2.4-1
		c0.5-0.8,0.9-1.7,1.2-2.6c0.2-0.4,0.3-0.9,0.5-1.3c0.1-0.3,0.6-0.9,0.6-1.1C86.4,17.1,86.3,17.9,86.2,18.7"/>
	<path class="st4" d="M96.1,22.2c-0.1,0.2-0.1,0.3-0.2,0.5c-0.3,0.7-0.8,1.3-1.2,1.9c-0.6,0.8-1.1,1.6-0.9,2.6
		c0-0.2-0.1-0.3-0.1-0.5c-0.1-1.7,0.8-3.2-0.6-4.6C93,22,93,22,92.9,21.9c-0.5-0.4-1-0.8-1.4-1.4c-0.5-0.8-0.3-4.2-1.9-2.9
		c-0.2,0.1-0.3,0.3-0.3,0.4c-0.4,0.7,0.1,1.6-0.1,2.4c0,0.1,0,0.1,0,0.2l0,0c-0.1,0.4-0.3,0.7-0.5,0.9c-1.1,1.3-3.2,1.9-4.4,3.3
		c-1.1,1.2-1.4,2.9-0.9,4.4c-0.2,0-0.3,0-0.4-0.1c-0.7-0.2-1.3-1-1.4-1.8c-0.1-0.9,0.1-1.9,0.3-2.8c0.3-1.7-0.2-3-1.5-4.1
		c-0.1-0.1-0.3-0.2-0.3-0.4c0-0.1,0-0.3,0-0.4c0.4-1.4,0.9-2.7,1.8-3.8s2.4-1.8,3.8-1.5s3.3,0.3,4.8,0.5c1,0.2,1.9,0.5,2.8,1
		c0.3,0.2,0.6,0.3,0.8,0.5c0.7,0.5,1.3,1.3,1.7,2.1c0.2,0.4,0.3,0.8,0.4,1.2C96,20.4,96.4,21.3,96.1,22.2"/>
	<path class="st3" d="M91.5,74.2c-0.1,0.3-0.4,8.9-0.6,17.7c-0.1,2.6-0.1,5.2-0.2,7.6c-0.1,2.3-0.1,4.5-0.1,6.2
		c-0.1,2.9-0.1,4.7-0.1,4.7s-2.1,31.3-1.6,31.7c0.5,0.3-7-0.2-7-0.2l-0.8-14l-1.7-29.5l-1-16.7l11.1-6.3L91.5,74.2z"/>
	<g class="st5">
		<g>
			<g>
				<g>
					<g>
						<defs>
							<rect id="SVGID_5_" x="79.4" y="91.9" width="11.5" height="36.2"/>
						</defs>
						<clipPath id="SVGID_6_">
							<use xlink:href="#SVGID_5_"  style="overflow:visible;"/>
						</clipPath>
						<path class="st9" d="M90.9,91.9c-0.1,2.6-0.1,5.2-0.2,7.6c-0.7,0.7-1.3,1.3-1.9,2c-2.9,3.6-4.2,8.3-5,12.8
							c-0.8,4.6-1.1,9.3-2.6,13.6l-0.1-0.1l-1.7-29.5c0.5-0.9,1.2-1.8,1.9-2.6C83.7,93.2,87.4,91.5,90.9,91.9"/>
					</g>
				</g>
			</g>
		</g>
	</g>
	<path class="st10" d="M91.7,105.7l-1.9,28.6H81L70.5,67.1c0,0,8.7-0.3,14.1,0.2c2.4,0.3,4.2,0.7,4.2,1.4c0.1,1.4,1.1,14.1,1.9,24.3
		C91.2,99.9,91.7,105.7,91.7,105.7"/>
	<path class="st3" d="M82.3,111.6L74.6,143l-6.4-1.2L71,121l1.3-9.3c-0.7-2.2-1.5-6.9-2.3-11.9c-0.3-2.1-0.6-4.2-0.9-6.2
		c-0.6-4.3-1-8-1.2-9.7c-0.1-0.6-0.1-1-0.1-1l14.4-1.2v5.7v4.3v3.5v8.9L82.3,111.6z"/>
	<path class="st11" d="M83,146.7l-0.4,5.9c0,0-1.6,0-1.7-0.4s-0.8-6.3-0.9-6.8C79.7,144.8,83,146.7,83,146.7"/>
	<path class="st11" d="M82.3,146.3c0.4,0.2,0.6,0.4,0.6,0.4l-0.4,5.9c0,0-0.1,0-0.3,0L82.3,146.3z"/>
	<path class="st12" d="M81.6,146.7c0.1,0,0.1,0,0.2,0.1c2.6,0.9,3.6,2.1,4.4,3l0,0c0.1,0.2,0.3,0.3,0.4,0.5c0,0,0,0.1,0.1,0.1
		c0.4,0.5,0.7,1,1.2,1.4l0,0c1.1,1,3.4,1.3,4.8,1.3c1.9-0.1,4.1-0.2,5.7-1.4c0.4-0.3,0.5-0.6,0.3-0.8c-0.1-0.1-0.2-0.2-0.4-0.3
		c-0.1-0.1-0.2-0.1-0.4-0.2c-2.1-0.9-4.2-2.6-5.7-4.3c-0.5-0.5-3.4-5.2-3.3-5.2c-1,0.3-2.3,0.4-3.4,0.3c-0.3,0-3.1-1-3.1-1
		c-1.2,1.2-1.9,2.8-2.3,4.4v0.1C79.7,145.7,80.4,146.3,81.6,146.7"/>
	<path class="st11" d="M79.9,144.8c0.1-0.5,0.9-1.9,1.4-2.8c0-0.1,0.1-0.2,0.2-0.3c1,0.7,3,2.5,1.9,5.8c-0.5-0.3-1.1-0.5-1.8-0.8
		C80.5,146.3,79.7,145.7,79.9,144.8"/>
	<path class="st11" d="M81.6,146.7c0.1,0,0.1,0,0.2,0.1c1.8,0.6,3.1,1.6,4.4,3l0,0c0.6,0.6,1.1,1.3,1.6,2c1.1,1,3.4,1.3,4.8,1.3
		c1.9-0.1,4.1-0.2,5.7-1.4c0.4-0.3,0.5-0.6,0.3-0.8c-0.3-0.1-0.6-0.1-0.9-0.1c-1.5,0.4-2.8,1-4.4,1.1c-1.7,0.1-3.5-0.3-5-1.3
		c-1.3-0.9-2.1-2.2-3.5-3c-2.2-1.3-4.2-2.2-4.8-3.3v0.1v0.1c0,0,0,0,0,0.1c0,0,0,0,0,0.1l0,0v0.1v0.1
		C79.7,145.7,80.4,146.3,81.6,146.7"/>
	<path class="st11" d="M68.6,146.3l-1,5.8c0,0-1.6-0.2-1.7-0.6c0-0.4-0.1-6.3-0.2-6.9C65.6,144,68.6,146.3,68.6,146.3"/>
	<path class="st11" d="M68,145.9c0.3,0.2,0.6,0.4,0.6,0.4l-1,5.8c0,0-0.1,0-0.3,0L68,145.9z"/>
	<path class="st12" d="M67.2,146.2c0.1,0,0.1,0.1,0.2,0.1c2.5,1.2,3.4,2.5,4,3.5l0,0c0.1,0.2,0.2,0.4,0.3,0.5c0,0,0,0.1,0.1,0.1
		c0.3,0.5,0.6,1.1,1,1.5l0,0c1,1.1,3.2,1.7,4.6,1.8c1.9,0.2,4.1,0.3,5.8-0.8c0.5-0.3,0.6-0.5,0.4-0.7c-0.1-0.1-0.2-0.2-0.4-0.3
		c-0.1-0.1-0.2-0.1-0.4-0.2c-2-1.2-3.9-3-5.2-4.9c-0.4-0.6-2.8-5.5-2.7-5.6c-1,0.2-2.4,0.1-3.4-0.1c-0.3-0.1-3-1.3-3-1.3
		c-1.3,1.1-2.2,2.6-2.8,4.1v0.1C65.5,144.9,66.2,145.7,67.2,146.2"/>
	<path class="st11" d="M65.8,144.1c0.1-0.5,1.1-1.8,1.7-2.6c0-0.1,0.1-0.2,0.2-0.3c1,0.8,2.7,2.8,1.3,6c-0.5-0.3-1-0.7-1.7-1
		C66.2,145.7,65.5,144.9,65.8,144.1"/>
	<path class="st11" d="M67.2,146.2c0.1,0,0.1,0.1,0.2,0.1c1.7,0.8,2.9,2,4,3.5l0,0c0.5,0.7,0.9,1.4,1.4,2.1c1,1.1,3.2,1.7,4.6,1.8
		c1.9,0.2,4.1,0.3,5.8-0.8c0.5-0.3,0.6-0.5,0.4-0.7c-0.3-0.1-0.6-0.2-0.9-0.2c-1.5,0.2-2.9,0.7-4.5,0.6c-1.7-0.1-3.5-0.7-4.8-1.9
		c-1.2-1-1.8-2.4-3.1-3.4c-2.1-1.5-4-2.6-4.4-3.9v0.1c0,0,0,0,0,0.1c0,0,0,0,0,0.1c0,0,0,0,0,0.1l0,0c0,0,0,0.1-0.1,0.1v0.1
		C65.5,144.9,66.2,145.7,67.2,146.2"/>
	<path class="st13" d="M95.5,81.2c-1.5-0.4-3-0.8-4.6-1.2c-0.2-0.1-0.4-0.1-0.6-0.3c-0.2-0.1-0.2-0.4-0.3-0.6
		c-0.9-2.7-0.6-4.9-1-7.6c0-0.1,0-0.1,0-0.2s0-0.2,0-0.2c0-0.1,0-0.3-0.1-0.4l0,0c0-0.1,0-0.2,0-0.4c-0.1-0.6-0.1-1.1-0.2-1.7
		c0-0.1,0-0.3-0.1-0.4c0-0.2-0.1-0.4-0.1-0.6c0-0.1,0-0.2,0-0.3c-0.1-1.2-0.3-2.4-0.4-3.5c0-0.1,0-0.1,0-0.2c0-0.2,0-0.5,0-0.7
		c0-0.1,0-0.3,0-0.4s0-0.2,0-0.3s0-0.1,0-0.2c0-0.2,0-0.4,0-0.6c0-0.1,0-0.1,0-0.2s0-0.1,0-0.2s0-0.2,0-0.3c0-0.2,0-0.4,0-0.5
		c0.1-4,0.8-7.9,0.6-11.8c-0.2-2.5-0.4-4.9-0.5-7.4c-0.1-1.3-0.6-3-0.7-4.4c0-0.4,0-0.8,0-1.1c0.1,0,0.1,0.1,0.2,0.1
		c1.2,0.5,2.3,1.3,3.5,1.8c0.1,0,0.1,0.1,0.2,0.1c0.8,0.3,1.6,0.5,2.4,0.8c0.3,0.1,0.5,0.2,0.8,0.3c2.2,1.2,2.6,5,2.7,7.2
		c0.1,3.8-0.1,7.6-0.3,11.3C96.4,65.1,96,73.2,95.5,81.2"/>
	<path class="st13" d="M90.7,99.5c0.1-4-0.7-7.9-0.7-12c-0.1-5.1-0.2-10.3-0.8-15.3c0-0.2-0.1-0.5-0.1-0.7c0-0.1,0-0.1,0-0.2
		s0-0.2,0-0.2c0-0.1,0-0.3-0.1-0.4l0,0c0-0.1,0-0.2,0-0.4c-0.1-0.6-0.1-1.1-0.2-1.7c0-0.1,0-0.3-0.1-0.4c0-0.2-0.1-0.4-0.1-0.6
		c0-0.1,0-0.2,0-0.3c-0.1-1.2-0.3-2.4-0.4-3.5c0-0.1,0-0.1,0-0.2c0-0.2,0-0.5,0-0.7c0-0.1,0-0.3,0-0.4s0-0.2,0-0.3s0-0.1,0-0.2
		c0-0.2,0-0.4,0-0.6c0-0.1,0-0.1,0-0.2s0-0.1,0-0.2s0-0.2,0-0.3c0-0.2,0-0.4,0-0.5c0.1-4,0.8-7.9,0.6-11.8c-0.2-2.5-0.4-4.9-0.5-7.4
		c-0.1-1.3-0.6-3-0.7-4.4c2.6,2.6,3.4,6.5,4.1,10.1c3.4,19.4,4.7,38.5,2.8,58.2c0,0.1,0,0.3,0,0.4c-0.1,0-0.2,0-0.3,0.1l0,0
		c-0.1,0-0.2,0-0.2,0c-0.1,0-0.1,0-0.2,0h-0.1c-0.2,0-0.3,0-0.4,0.1c-0.1,0-0.1,0-0.2,0c-0.4,0-0.8,0.1-1.1,0.1c-0.1,0-0.1,0-0.2,0
		s-0.2,0-0.2,0h-0.1h-0.1h-0.1l0,0h-0.1h-0.1l0,0C90.6,104,90.6,101.8,90.7,99.5"/>
	<g class="st14">
		<g>
			<g>
				<g>
					<g>
						<defs>
							<rect id="SVGID_7_" x="70" y="91.2" width="12.3" height="29.8"/>
						</defs>
						<clipPath id="SVGID_8_">
							<use xlink:href="#SVGID_7_"  style="overflow:visible;"/>
						</clipPath>
						<path class="st15" d="M82.3,104.1c-2.7,3.1-4,6.1-6.1,9.8c-1.4,2.6-3.1,5-5.3,7l1.3-9.3c-0.7-2.2-1.5-6.9-2.3-11.9
							c1.1-1.8,2.3-3.5,3.7-5c1.1-1.2,2.3-2.4,3.8-3.1s3.3-0.8,4.8,0c0,0,0,0,0.1,0v3.5V104.1z"/>
					</g>
				</g>
			</g>
		</g>
	</g>
	<path class="st16" d="M88.6,60c-0.1,0.3-0.1,0.6,0,0.9c0.1,0.7,0.5,3.7,0.9,7.7c0,0.1-0.1,0.1-0.2,0.1s-0.2,0.1-0.4,0.1
		c-0.9,0.1-2.4-0.1-2.9-0.1c-5.1,0.3-10.3-0.9-15.4-1.5c-0.8-0.1-1.5-0.6-1.9-1.3c-0.2-0.3-0.3-0.7-0.4-1.1c0-0.1-0.1-0.3-0.1-0.4
		c-0.2-2.6,1.2-6.1,1.8-8.8c0.1-0.2,0.1-0.4,0.2-0.7c0-0.1,0-0.1,0-0.2c1.9-9.1,3.9-16.1,3.9-16.1v-0.1c0,0,0,0,0-0.1
		c0-0.3,0.1-1.6,0.1-1.7l0,0l0,0c0,0,0.1,0,0.3,0c0.4-0.1,1.3-0.3,2-0.5h0.1c0.1,0,0.2,0,0.3-0.1c0,0,0,0,0.1,0c0,0,0,0,0.1,0l0,0
		c0,0,0,0,0.1,0s0.2,0,0.3-0.1l0,0l0,0l0,0c0.1,0,0.2,0,0.2,0c0.3,0.1,0.5,0.3,0.7,0.4l0.1,0.1l0.1,0.1c0.2,0.1,0.4,0.3,0.6,0.4
		l0.1,0.1l0.1,0.1c0,0,0.1,0,0.1,0.1c0.2,0.1,0.4,0.2,0.6,0.3h0.1h0.1c0.1,0,0.1,0.1,0.2,0.1s0.1,0.1,0.2,0.1s0.1,0,0.2,0.1
		c0.1,0,0.1,0,0.2,0.1h0.1h0.1l0,0c0.1,0,0.2,0.1,0.3,0.1c0.1,0,0.2,0,0.2,0.1c0.2,0,0.3,0.1,0.5,0.1c0.1,0,0.1,0,0.2,0l0,0h0.1
		c0.1,0,0.1,0,0.2,0l0,0c0.1,0,0.2,0,0.2,0c0.1,0,0.2,0,0.2,0c0.1,0,0.2,0,0.3,0h0.2c0.1,0,0.1,0,0.2,0l0,0c0.1,0,0.1,0,0.2,0
		s0.2,0,0.2,0c0.2,0,0.3,0,0.5,0.1c0.1,0,0.3,0,0.4,0s0.3,0,0.4,0c0.4,0,0.8,0,1.1-0.1c0.3-0.1,0.5-0.2,0.7-0.4
		c0,0.3,0.1,0.5,0.1,0.7c0.1,0.5,0.2,1,0.4,1.4c0.2,0.7,0.5,1.4,0.9,2.1c0,0.1,0.1,0.2,0.1,0.3c0.1,0.3,0.2,0.6,0.4,0.9
		c0.3,0.9,0.7,1.9,1.2,3c0.1,0.3,0.3,0.7,0.4,1.1c0.6,1.5,0.4,3.3,0,5c-0.5,1.8-1.3,3.6-1.8,5.1C88.9,58.7,88.7,59.4,88.6,60"/>
	<path class="st17" d="M88.7,68.3c0.2,0.1,0.4,0.2,0.6,0.4c-0.1,0-0.2,0.1-0.4,0.1c-0.9,0.1-2.4-0.1-2.9-0.1
		c-5.1,0.3-10.3-0.9-15.4-1.5c-0.8-0.1-1.5-0.6-1.9-1.3c-0.2-0.3-0.3-0.7-0.4-1.1c0.5-3.2,1.2-6.4,1.8-9.3c0.1-0.3,0.1-0.6,0.2-0.8
		c1.9-9.1,3.9-16.1,3.9-16.1v-0.1l0.1-1.7l0,0l0,0c0.1,0,0.2,0,0.3,0c0.2,0,0.5-0.1,0.8-0.1c0.4-0.1,0.8-0.2,1.2-0.4h0.1
		c0.1,0,0.2,0,0.3-0.1c0,0,0,0,0.1,0c0,0,0,0,0.1,0l0,0c0,0,0,0,0.1,0s0.2,0,0.3-0.1l0,0l0,0l0,0c0.1,0,0.2,0,0.2,0
		c0.3,0.1,0.5,0.3,0.7,0.4l0.1,0.1l0.1,0.1c0.2,0.1,0.4,0.3,0.6,0.4l0.1,0.1l0.1,0.1c0,0,0.1,0,0.1,0.1c0.2,0.1,0.4,0.2,0.6,0.3h0.1
		h0.1c0.1,0,0.1,0.1,0.2,0.1s0.1,0.1,0.2,0.1s0.1,0,0.2,0.1c0.1,0,0.1,0,0.2,0.1h0.1h0.1l0,0c0.1,0,0.2,0.1,0.3,0.1
		c0.1,0,0.2,0,0.2,0.1c0.2,0,0.3,0.1,0.5,0.1c0.1,0,0.1,0,0.2,0l0,0h0.1c0.1,0,0.1,0,0.2,0l0,0c0.1,0,0.2,0,0.2,0c0.1,0,0.2,0,0.2,0
		c0.1,0,0.2,0,0.3,0h0.2c0.1,0,0.1,0,0.2,0l0,0c0.1,0,0.1,0,0.2,0s0.2,0,0.2,0c0.2,0,0.3,0,0.5,0.1c0.1,0,0.3,0,0.4,0h0.1
		c1.2,1,2,2.5,3.1,3.8c0.1,0.1,0.3,0.3,0.4,0.4c0.1,0.3,0.2,0.6,0.4,0.9c-1.7,0-3.4,0.2-5,0c-0.8-0.1-1.6-0.2-2.4,0
		c-0.5,0.2-1,0.5-1.4,0.8c-0.8,0.6-1.6,1.2-2.2,2c-0.1,0.1-0.2,0.3-0.3,0.4c-0.8,1.2-1.1,2.7-1.3,4.1c-0.1,1-0.2,2,0.1,3
		c0.3,1,1,1.7,1.8,2.3s1.8,1.1,2.8,1.5c0.2,0.3,0,0,0.4,0c0.6,0,1.2,0,1.8,0c1,0,1.9,0,2.9,0c0.8,0,1.6,0.1,2.4,0.1
		c-0.3,0.8-0.5,1.5-0.6,2.1c-0.6,0.4-1.2,0.7-1.8,1.1c-1.2,0.9-2.3,2.3-2.4,3.8C85.3,66.3,87.3,67.3,88.7,68.3"/>
	<path class="st18" d="M85.5,67c1.1,0.5,2.3,1.1,3.4,1.7c-0.9,0.1-2.4-0.1-2.9-0.1c-5.1,0.3-10.3-0.9-15.4-1.5
		c-0.8-0.1-1.5-0.6-1.9-1.3c0.4-3.2,0.8-6.4,1.3-9.6c0.1-0.5,0.1-1,0.2-1.5c0-0.1,0-0.1,0-0.2c1.9-9.1,3.9-16.1,3.9-16.1v-0.1
		c0,0,0,0,0-0.1c0.4-0.6,0.8-1.2,1.2-1.8c0.4-0.1,0.8-0.2,1.2-0.4h0.1c0.1,0,0.2,0,0.3-0.1c0,0,0,0,0.1,0c0,0,0,0,0.1,0l0,0
		c0,0,0,0,0.1,0s0.2,0,0.3-0.1l0,0l0,0l0,0c0.1,0,0.2,0,0.2,0c0.3,0.1,0.5,0.3,0.7,0.4l0.1,0.1l0.1,0.1c0.2,0.1,0.4,0.3,0.6,0.4
		l0.1,0.1l0.1,0.1c0,0,0.1,0,0.1,0.1c0.2,0.1,0.4,0.2,0.6,0.3h0.1h0.1c0.1,0,0.1,0.1,0.2,0.1s0.1,0.1,0.2,0.1s0.1,0,0.2,0.1
		c0.1,0,0.1,0,0.2,0.1h0.1h0.1l0,0c0.1,0,0.2,0.1,0.3,0.1c0.1,0,0.2,0,0.2,0.1c0.2,0,0.3,0.1,0.5,0.1c0.1,0,0.1,0,0.2,0l0,0h0.1
		c0.1,0,0.1,0,0.2,0l0,0c0.1,0,0.2,0,0.2,0c0.1,0,0.2,0,0.2,0c0.1,0,0.2,0,0.3,0h0.2c0.1,0,0.1,0,0.2,0l0,0c0.1,0,0.1,0,0.2,0
		s0.2,0,0.2,0c0.2,0,0.3,0,0.5,0.1c0.1,0,0.3,0,0.4,0s0.3,0,0.4,0c0.4,0,0.8,0,1.1-0.1c0.3,0.1,0.6,0.2,0.8,0.3
		c0.1,0.5,0.2,1,0.4,1.4V40c0,0,0.3,0.7,0.8,2c-0.1,0-0.2-0.1-0.3-0.1c-0.8-0.4-1.4-0.9-2-1.5c-1.1-0.1-1.9,0.2-2.9-0.3
		c-1.7-0.7-3.3-0.8-5.1-0.5c-0.4,0.1-0.9,0.2-1.2,0.5c-0.3,0.3-0.5,0.8-0.3,1.2c0.5,0.8,0.9,2.9,1.1,3.9c0,0.3,0.1,0.6,0.1,0.9
		c0.2,1.4,0.4,2.9,0.5,4.3c0.1,1.6-0.6,3.8,0,5.5c0.1,0.2,0.2,0.4,0.3,0.6c1.2,1.6,3,1.2,4.7,0.8c1.1-0.3,2.1-0.5,3-0.3
		c0.1,0.1,0,0.3-0.1,0.4c-0.1,0.2-0.3,0.3-0.5,0.4c-1.3,0.6-2.5,1.2-3.7,1.9c-0.5,0.3-1,0.6-1.4,1c-1,1.1-0.9,2.9-1.5,4.3
		C81.5,66.3,83.6,66.2,85.5,67"/>
	<path class="st11" d="M90.7,93c-1.9,10.7-5.5,21.2-10.7,30.8c-0.7-15-1.5-29.7,0.4-44.5c0.3-2.7,0.7-5.5,1.8-8
		c0.6-1.4,1.4-2.8,2.5-3.9c2.4,0.3,4.2,0.7,4.2,1.4C89,70.1,90,82.9,90.7,93"/>
	<path class="st19" d="M85.9,68.6L85.8,83l-0.1,15.2l-7.5,36.3l-9.7-0.3l4.1-31.9c0,0,1.2-26.2,1.3-28.9c0-0.1,0-0.2,0-0.2
		C73.9,67,85.9,68.6,85.9,68.6"/>
	<path class="st10" d="M85.9,68.6L85.8,83c-2.3-3.1-5-5.8-8.1-8c-1.1-0.8-2.5-1.6-3.8-1.6c0-0.1,0-0.2,0-0.2
		C73.9,67,85.9,68.6,85.9,68.6"/>
	<path class="st13" d="M78.3,60.7c0,1-0.1,2-0.2,3.1c0,0.1,0,0.2,0,0.3s0,0.2,0,0.3c-0.1,0.9-0.1,1.8-0.2,2.7c0,0.1,0,0.2,0,0.3
		c0,0.1,0,0.2,0,0.3c0,0.1,0,0.2,0,0.3c0,0.1,0,0.3,0,0.4s0,0.2,0,0.3c0,0.1,0,0.2,0,0.2c0,0.1,0,0.2,0,0.4c0,0.2-0.1,0.5-0.1,0.7
		c0,0.1,0,0.3-0.1,0.4c0,0.1,0,0.2,0,0.4c0,0.2,0,0.3-0.1,0.5c0,0.2-0.1,0.4-0.1,0.6c0,0.1,0,0.2-0.1,0.4c0,0.2-0.1,0.4-0.1,0.6
		s-0.1,0.4-0.1,0.6v0.1c0,0.2-0.1,0.4-0.1,0.7l0,0c0,0.2-0.1,0.4-0.1,0.6V75c0,0.2-0.1,0.4-0.1,0.6l0,0c-0.2,1.6-0.4,4-0.6,6.8
		c-0.8,11-1.2,28.5-1.2,28.5c-3.4-0.6-8-5.2-10.1-7.7c-2.7-3.3-2.5-8.2-2.5-12.1c0-1.5,0-3.1,0-4.6c0-3.3,0.1-6.6,0.1-10
		c0-3.8,0.1-7.6,0.1-11.3c0-3.4-0.3-6.3-0.8-9.6c-0.1-0.5-0.1-1.1-0.1-1.7c0-0.2,0-0.3,0-0.5c0.2-2.4,1-5,1.6-7.3
		c0.1-0.4,0.2-0.7,0.3-1.1c0-0.2,0.1-0.3,0.1-0.5c0.1-0.4,0.2-0.7,0.3-1.1c0.7-2.3,1.4-3.8,2.1-4.4c0.1,0,0.1-0.1,0.2-0.1
		c0.7-0.3,3.1-1.4,5.3-2.2c1.6-0.5,3.1-0.9,3.9-0.7C75.4,36.3,78.9,45.1,78.3,60.7"/>
	<path class="st8" d="M84.1,23.6c0.6-0.5,1.2-0.8,1.9-0.9c0.5-0.1,1.1-0.1,1.6,0c0.2,0.1,0.7,0.1,0.6,0.4s-0.5,0.2-0.7,0.2
		c-0.4-0.1-0.7-0.1-1.1-0.1C85.7,23.2,84.9,23.3,84.1,23.6"/>
	<path class="st8" d="M94.3,24.4c0,0.1,0,0.1,0,0.2c-0.4-0.2-0.8-0.3-1.2-0.4c-0.3,0-0.6-0.1-0.9-0.1c-0.2,0-0.5-0.1-0.5-0.3
		c0-0.3,0.4-0.3,0.6-0.3c0.4,0,0.9,0.1,1.3,0.3C93.7,23.9,94.2,24.1,94.3,24.4"/>
	<path class="st20" d="M87.5,25.4c0,0.3-0.2,0.5-0.5,0.5s-0.5-0.2-0.5-0.5s0.2-0.5,0.5-0.5S87.5,25.1,87.5,25.4"/>
	<path class="st20" d="M93,25.9c0,0.3-0.2,0.5-0.5,0.5s-0.5-0.2-0.4-0.5c0-0.3,0.2-0.5,0.5-0.5C92.8,25.4,93,25.6,93,25.9"/>
	<path class="st21" d="M90,25.9c0.2,0.6,0.4,1.2,0.4,1.8c0,0.3-0.1,0.7-0.3,0.9c-0.1,0.1-0.2,0.2-0.4,0.3c-0.2,0-0.3,0-0.5,0
		c0.3,0,0.6-0.1,0.7-0.4c0.1-0.2,0.2-0.5,0.2-0.8C90.1,27.1,90,26.5,90,25.9"/>
	<path class="st20" d="M87.7,25L87.7,25c0,0-0.7-0.6-1.9-0.2h-0.1v-0.1C87,24.3,87.7,24.9,87.7,25C87.8,24.9,87.8,25,87.7,25
		L87.7,25"/>
	<path class="st20" d="M93.3,25.6C93.3,25.6,93.3,25.5,93.3,25.6c0,0-0.6-0.5-1.5-0.2h-0.1v-0.1C92.8,25,93.4,25.4,93.3,25.6
		C93.4,25.5,93.4,25.5,93.3,25.6C93.4,25.5,93.4,25.6,93.3,25.6"/>
	<path class="st22" d="M89.1,31.9C89,32,88.8,32,88.6,32c-0.4,0-0.8-0.1-1.1-0.5c-0.2-0.2-0.3-0.5-0.2-0.8c0-0.1,0-0.2,0.1-0.3
		l0.1-0.1c0,0,0,0,0.1,0c0.5-0.3,1.4,0.3,1.8,0.5C90.1,31.1,89.7,31.7,89.1,31.9"/>
	<path class="st23" d="M88.6,32c-0.4,0-0.8-0.1-1.1-0.5c-0.2-0.2-0.3-0.5-0.2-0.8c0.1,0.1,0.3,0.1,0.4,0.2
		C88.1,31.2,88.4,31.6,88.6,32"/>
	<g class="st5">
		<g>
			<g>
				<g>
					<g>
						<defs>
							<rect id="SVGID_9_" x="83" y="26.2" width="3.4" height="2.8"/>
						</defs>
						<clipPath id="SVGID_10_">
							<use xlink:href="#SVGID_9_"  style="overflow:visible;"/>
						</clipPath>
						<path class="st24" d="M83.2,28.3c0.9,1.4,4,0.4,3.1-1.4C85.4,25.3,82.1,26.6,83.2,28.3"/>
					</g>
				</g>
			</g>
		</g>
	</g>
	<g class="st5">
		<g>
			<g>
				<g>
					<g>
						<defs>
							<rect id="SVGID_11_" x="91.8" y="27.6" width="1.7" height="2.5"/>
						</defs>
						<clipPath id="SVGID_12_">
							<use xlink:href="#SVGID_11_"  style="overflow:visible;"/>
						</clipPath>
						<path class="st25" d="M93.5,27.6c-0.4,0.8-0.8,1.7-1.2,2.5c-0.1-0.1-0.2-0.2-0.3-0.3C91.3,28.6,92.4,27.7,93.5,27.6"/>
					</g>
				</g>
			</g>
		</g>
	</g>
	<path class="st26" d="M78.3,60.7c0,1-0.1,2-0.2,3.1c0,0.1,0,0.2,0,0.3s0,0.2,0,0.3c-0.1,0.9-0.1,1.8-0.2,2.7c0,0.1,0,0.2,0,0.3
		c0,0.1,0,0.2,0,0.3c0,0.1,0,0.2,0,0.3c0,0.1,0,0.3,0,0.4s0,0.2,0,0.3c0,0.1,0,0.2,0,0.2c0,0.1,0,0.2,0,0.4c0,0.2-0.1,0.5-0.1,0.7
		c0,0.1,0,0.3-0.1,0.4c0,0.1,0,0.2,0,0.4c0,0.2,0,0.3-0.1,0.5c0,0.2-0.1,0.4-0.1,0.6c0,0.1,0,0.2-0.1,0.4c0,0.2-0.1,0.4-0.1,0.6
		s-0.1,0.4-0.1,0.6v0.1c0,0.2-0.1,0.4-0.1,0.7l0,0c0,0.2-0.1,0.4-0.1,0.6V75c0,0.2-0.1,0.4-0.1,0.6l0,0c-0.2,1.6-0.4,4-0.6,6.8
		c-2.8,0.9-5.9,1.3-8.2,2.1c-1.9,0.6-3.8,1.3-5.5,2c0-3.3,0.1-6.6,0.1-10c0-3.8,0.1-7.6,0.1-11.3c0-3.4-0.3-6.3-0.8-9.6
		c-0.1-0.5-0.1-1.1-0.1-1.7c0,0.1-0.1,0.1-0.1,0.2c0-0.2,0.1-0.5,0.1-0.7c0.5-2.7,1-5.2,1.6-7.3c0.1-0.4,0.2-0.7,0.3-1.1
		c0-0.2,0.1-0.3,0.1-0.5c0.1-0.4,0.2-0.7,0.3-1.1c0.3-0.1,0.7-0.2,1-0.3c1.2-0.4,2.4-0.6,3.6-0.5c2.8,0.3,3.5,1.1,3.8,3.9
		C72.8,51.3,74.1,57.9,78.3,60.7"/>
	<path class="st0" d="M78.2,63.7c0,0.1,0,0.2,0,0.3s0,0.2,0,0.3c-0.1,0.9-0.1,1.8-0.2,2.7c0,0.1,0,0.2,0,0.3c0,0.1,0,0.2,0,0.3
		c0,0.1,0,0.2,0,0.3c0,0.1,0,0.3,0,0.4s0,0.2,0,0.3c0,0.1,0,0.2,0,0.2c0,0.1,0,0.2,0,0.4c0,0.2-0.1,0.5-0.1,0.7c0,0.1,0,0.3-0.1,0.4
		c0,0.1,0,0.2,0,0.4c0,0.2,0,0.3-0.1,0.5c0,0.2-0.1,0.4-0.1,0.6c0,0.1,0,0.2-0.1,0.4c0,0.2-0.1,0.4-0.1,0.6s-0.1,0.4-0.1,0.6v0.1
		c0,0.2-0.1,0.4-0.1,0.7l0,0c0,0.2-0.1,0.4-0.1,0.6v0.1c0,0.2-0.1,0.4-0.1,0.6l0,0c-1.5,0.8-3.4,0.9-5.1,0.9c-2.9,0-6.1,0.2-9.3,0.2
		c0-3.8,0.1-7.6,0.1-11.3c0-3.4-0.3-6.3-0.8-9.6c-0.1-0.5-0.1-1.1-0.1-1.7c1.7-2.8,3.7-5.4,6-7.6h4.6c0.2,2.2,0.3,4.4,0.2,6.5
		c-0.1,1.9-1.1,4.7-0.7,6.5C72.1,61.7,75.5,62.9,78.2,63.7"/>
	<path class="st3" d="M96.1,62.6c0,0,0.5,2.1,0.5,2.7c0,0.5-2.1,3.1-2.7,3.1s-5-1.9-5.8-1.7c-0.2,0.1-1.1,0.3-2.2,0.5
		c-1,0.3-2.2,0.6-3.3,0.9c-1.4,0.4-2.6,0.7-2.7,0.7c-0.2,0.1,0.5-6.9,0.5-6.9s0.8-0.1,1.9-0.3c1.6-0.2,3.8-0.5,4.5-0.4
		c1.1,0.2,3.2-3,4.5-2.8c0.2,0,0.4,0,0.7,0c1.5,0,3.9-0.5,3.9,0.1c0,0.7-2.3,1.7-3.2,2.1c-0.9,0.4,9.6-0.5,10.4,0.7
		C103.1,61.2,98.6,62.5,96.1,62.6"/>
	<g class="st5">
		<g>
			<g>
				<g>
					<g>
						<defs>
							<rect id="SVGID_13_" x="85.9" y="58.1" width="17.2" height="10.2"/>
						</defs>
						<clipPath id="SVGID_14_">
							<use xlink:href="#SVGID_13_"  style="overflow:visible;"/>
						</clipPath>
						<path class="st27" d="M96.1,62.6c0,0,0.5,2.1,0.5,2.7c0,0.5-2.1,3.1-2.7,3.1s-5-1.9-5.8-1.7c-0.2,0.1-1.1,0.3-2.2,0.5
							c1.6-3.1,3.6-6.1,6-8.7c0,0,0-0.1,0.1-0.1c1.5,0,3.9-0.5,3.9,0.1c0,0.7-2.3,1.7-3.2,2.1c-0.9,0.4,9.6-0.5,10.4,0.7
							C103.1,61.2,98.6,62.5,96.1,62.6"/>
					</g>
				</g>
			</g>
		</g>
	</g>
	<path class="st13" d="M83.9,72.5c0,0-0.4,0.1-1,0.2c-3.1,0.5-12.5,2-17.5,0.9c-0.5-0.1-0.9-0.2-1.3-0.4c-5.3-2.1-3.8-2.4-3.8-8.7
		c0-2.6,0.4-6.9,1.2-11.3c0.4-2.2,0.8-4.3,1.3-6.3c0.9-3.7,2-6.6,3.1-7.4l0,0c0.1,0,0.1-0.1,0.2-0.1c1.1-0.8,2-0.9,2.9-0.7
		c0.2,0,0.3,0.1,0.5,0.2c1.8,0.8,2.9,3.4,3.5,5.5c0.8,3.2,0.5,6.5,0.1,9.7c-0.1,0.8-0.3,1.8-0.6,2.8c-0.5,1.8-0.9,3.7-0.6,5.2
		c0.2,1,7.6-1.5,10.5-0.6c0.2,0,0.3,0.1,0.4,0.2c0,0-0.1,1.1-0.1,2.6c0,1.7,0,4,0.4,5.8C83.1,71.1,83.4,71.9,83.9,72.5"/>
	<g class="st5">
		<g>
			<g>
				<g>
					<g>
						<defs>
							<rect id="SVGID_15_" x="79.7" y="24.4" width="1.3" height="3"/>
						</defs>
						<clipPath id="SVGID_16_">
							<use xlink:href="#SVGID_15_"  style="overflow:visible;"/>
						</clipPath>
						<path class="st28" d="M80.3,24.4c-0.2,0-0.4,0.1-0.5,0.3c-0.1,0.1-0.1,0.3-0.1,0.5c0,0.9,0.1,1.6,0.7,2.3
							C80.7,26.8,81.6,24.4,80.3,24.4"/>
					</g>
				</g>
			</g>
		</g>
	</g>
	<g class="st29">
		<g>
			<g>
				<g>
					<g>
						<defs>
							<rect id="SVGID_17_" x="86.3" y="45.2" width="5.1" height="7.6"/>
						</defs>
						<clipPath id="SVGID_18_">
							<use xlink:href="#SVGID_17_"  style="overflow:visible;"/>
						</clipPath>
						<path class="st30" d="M91,52.8c0-0.2,0-0.5-0.1-0.8c-0.4-1.8-1.8-3.2-3.5-4c-0.4-0.2-0.8-0.3-1-0.7s-0.1-0.9,0.2-1.2
							c1.4-1.7,2.9-0.8,4,0.5c0.1,0.3,0.3,0.7,0.4,1.1C91.6,49.3,91.4,51.1,91,52.8"/>
					</g>
				</g>
			</g>
		</g>
	</g>
	<path class="st31" d="M82.7,99.8c-0.1-0.3-0.1-0.6-0.2-0.9L82.7,99.8z"/>
	<path class="st4" d="M84.8,41.2C84.7,44,83,46.7,80.5,48c-0.4,0.2-0.9,0.4-1.3,0.7s-0.6,0.9-0.4,1.3c0.1,0.3,0.5,0.5,0.8,0.7
		c-0.8,0-2.1-0.4-2.6-1.2c-0.2-0.3-0.2-0.6-0.1-1c0.1-0.3,0.3-0.7,0.4-1c0.7-1.4,2.1-2.5,2.2-4.2c0.1-1.5-1-2.7-2-3.8l0,0
		c-0.7-0.9-1.5-1.8-2.1-2.7c-0.8-1.1-1.5-2.3-1.4-3.6c0.1-1.1,0.9-1.9,1.5-2.8s1.2-1.9,1-3l2.8,2l0.2,0.2c0.3,0.4,0.3,1.1,0.2,1.6
		c-0.2,0.5-0.5,1-0.7,1.5c-0.6,1.3-0.5,3,0.7,3.7c0.5,0.3,1,0.3,1.5,0.4c0.4,0,0.9,0.1,1.3,0.2C84.1,37.5,84.9,39.5,84.8,41.2"/>
	<path class="st4" d="M81.2,36.8c-0.1,0-0.1,0-0.2,0.1c-0.7,0.3-1.3,0.7-2.1,0.6c-1.1-0.1-1.9-1-1.7-2.1c0.1-0.8,0.6-1.6,1.1-2.3
		c0.6-1,1-2.3,1-3.6l0.2,0.2c0.3,0.4,0.3,1.1,0.2,1.6c-0.2,0.5-0.5,1-0.7,1.5c-0.6,1.3-0.5,3,0.7,3.7C80.1,36.7,80.7,36.8,81.2,36.8
		"/>
	<path class="st4" d="M81.6,43.1c0,1.6-1.6,2.6-2.7,3.4c-0.6,0.4-1.3,0.9-1.7,1.6c-0.1,0.2-0.2,0.4-0.3,0.6c0.1-0.3,0.3-0.7,0.4-1
		c0.7-1.4,2.1-2.5,2.2-4.2c0.1-1.5-1-2.7-2-3.8l0,0c0.8,0.3,1.6,0.5,2.3,0.9C80.7,41.1,81.6,42,81.6,43.1"/>
	<path class="st4" d="M94.5,23.8c-0.1,1.1-0.6,1.9-0.7,2.8c-0.1-1.7,0.8-3.2-0.6-4.6c-0.1-0.1-0.1-0.1-0.2-0.2
		c-0.5-0.4-1-0.8-1.4-1.4c-0.5-0.8-0.3-4.2-1.9-2.9c-0.2,0.1-0.3,0.3-0.3,0.4c-0.1,0-0.1-0.1-0.1-0.2c0.5-1.2-0.5-2.3-1.5-2.9
		c0.6,0.4,1.3,0.6,2.1,0.8c0.4,0.1,0.7,0.2,1,0.3c0.5,0.2,0.9,0.8,1.2,1.4c0.2,0.6,0.4,1.2,0.4,1.8c0,1,0.3,1.6,1,2.3
		C93.9,22.1,94.6,22.8,94.5,23.8"/>
	<path class="st4" d="M87.9,21.8c0.2-0.1,0.4-0.2,0.6-0.3c-1.1,1.3-3.2,1.9-4.4,3.3c-1.1,1.2-1.4,2.9-0.9,4.4c-0.2,0-0.3,0-0.4-0.1
		c-0.2-0.5-0.3-1-0.3-1.5c0-0.7-0.1-2.1,0.1-2.8c0.3-0.9,1.5-1.4,2.3-1.7C86,22.6,87,22.2,87.9,21.8"/>
	<path class="st4" d="M85.7,12.5c-0.3,0.4-0.7,0.7-1.1,0.9c-1.3,0.7-2.4,0.6-3.8,0.7c-1.2,0.1-2.4,0.6-3.3,1.3
		c0.1-0.4,0.3-0.7,0.4-1.1c0.4-0.8,0.9-1.4,1.7-1.8c1-0.4,2.2-0.4,3.2-0.7s2-0.5,3-0.6C86,11.6,85.9,12.1,85.7,12.5"/>
	<rect x="42.6" y="110.2" class="st32" width="6.5" height="36.9"/>
	<path class="st11" d="M58.7,152.5c0,2.1,1.7,3.8,3.8,3.8s3.8-1.7,3.8-3.8s-1.7-3.8-3.8-3.8S58.7,150.4,58.7,152.5"/>
	<path class="st11" d="M24.5,152.5c0,2.1,1.7,3.8,3.8,3.8s3.8-1.7,3.8-3.8s-1.7-3.8-3.8-3.8C26.1,148.7,24.5,150.4,24.5,152.5"/>
	<path class="st20" d="M23.2,150.3h45.1c0-1.8-1.4-3.2-3.2-3.2H26.3C24.7,147.1,23.2,148.5,23.2,150.3"/>
	<path class="st20" d="M49.1,110.2v18.1c-2.2-1-4.3-1.9-6.5-2.9v-15.2L49.1,110.2z"/>
	<g>
		<g>
			<g>
				<g>
					<g>
						<defs>
							<rect id="SVGID_19_" x="43.6" y="113.4" width="1.6" height="33.7"/>
						</defs>
						<clipPath id="SVGID_20_">
							<use xlink:href="#SVGID_19_"  style="overflow:visible;"/>
						</clipPath>
						<rect x="43.6" y="113.4" class="st33" width="1.6" height="33.7"/>
					</g>
				</g>
			</g>
		</g>
	</g>
	<path class="st3" d="M64,85c0.9,2,1.3,4.4,2.2,6.4c0.9,1.8,2.9,2.6,4.8,3.3c0.4,0.1,0.8,0.3,1,0.5c0.3,0.2,0.4,0.6,0.6,0.9
		c0.6,1.1,1.2,2.2,1.8,3.4c-0.5-1-4.3-1.4-5.4-1.7c-1.7-0.5-3.3-1.1-5-1.6c-0.2-0.1-0.4-0.1-0.5-0.3s0-0.4,0-0.6
		c0-0.5-0.4-0.8-0.8-1.1c-3.9-2.6-6.3-6.9-8-11.2c-0.5-1.3-0.9-2.9-0.2-4.1c0.9-1.5,3.1-1.6,4.6-0.6c1.4,0.9,2.3,2.6,2.9,4.2"/>
	<path class="st21" d="M72.5,146.8c1.9,0.4,4,0.5,5.9,0.2c0.2,0,0.3-0.1,0.4-0.1c0.1-0.1,0.2-0.3,0.2-0.5c0.2-0.7,0.2-1.5,0.2-2.2
		c0-2,0-4,0-6c0-1.2,0-2.5-0.6-3.6c-1.5-2.7-6.5-1.2-7.5,1.3c-0.5,1.4-0.1,3.2,0.1,4.6C71.5,141,72.4,146.7,72.5,146.8"/>
	<path class="st10" d="M71.4,150.4c0.7,1.3,7.8,1.8,7.8,1.8l6.6,0.9l5.4-0.4l4-1.4l0.5-1.1c0,0-0.2-1.8-1.5-2.1
		c-2.9-0.8-5.9-1.5-8.6-2.9c-1.8-1-5.1-2.3-4.9-4.7c0,0-3.1,0.5-3.4,0.6c-1.9,0.1-4-0.1-5.9-0.1c0,1.8-0.3,3.6-0.3,5.3
		C71,147.6,70.7,149.1,71.4,150.4"/>
	<path class="st12" d="M79.4,150.2c0.8-1.9,3.8-2.2,5.9-2.1c1.2,0.1,2.3-0.7,2.7-1.9c2.6,1.4,5.3,1.6,6.3,1.9
		c1.3,0.4,1.5,2.1,1.5,2.1l-0.5,1.1l-4,1.4l-5.4,0.4l-6.6-0.9c0,0-0.1,0-0.4,0C79,151.5,79.1,150.8,79.4,150.2"/>
	<path class="st11" d="M71.1,141h0.3c0.1,0,4.7-0.1,7.4-0.2c0.1,1.4,0,4.4-2.7,4.4c-1.2,0-2.9,0-4.7,0.1c-0.1-2.2-0.2-4-0.2-4
		L71.1,141z"/>
	<g>
		<g>
			<g>
				<g>
					<g>
						<defs>
							<rect id="SVGID_21_" x="71.1" y="148.5" width="24.7" height="4.6"/>
						</defs>
						<clipPath id="SVGID_22_">
							<use xlink:href="#SVGID_21_"  style="overflow:visible;"/>
						</clipPath>
						<path class="st34" d="M71.4,150.4c-0.2-0.4-0.3-1.1-0.2-1.9c0.9,0.5,2.2,0.9,3.8,0.9c2.9,0,2.6,0.5,10.6,1.4
							c6,0.7,8.7-1,9.7-1.9c0.4,0.6,0.5,1.4,0.5,1.4l-0.5,1.1l-4,1.4l-5.4,0.4l-6.6-0.9C79.2,152.2,72,151.6,71.4,150.4"/>
					</g>
				</g>
			</g>
		</g>
	</g>
	<path class="st11" d="M71.1,149.7l-0.5,3.3c2.5,1.9,8.5,1.4,8.5,1.4l0.2-1.5l5.3,0.6l0.3,0.7c9.4,1,11.2-3.2,11.2-3.2l-0.4-0.9
		c0.1,0.2-3.2,1.6-3.4,1.7c-3.7,1.3-7.8,0.7-11.6,0.3c-2.8-0.3-6.4-0.4-8.9-1.8C71.5,150.1,71.3,149.9,71.1,149.7"/>
	<path class="st3" d="M88.3,135.7c1,3.7,2.2,7.4,3.6,11.1c0.4,1.1-5.8,2.6-6.9,1.7c-1.8-1.4-2.7-3.6-4-5.5c-1.1-1.7-2.3-2.8-3-4.8
		c-0.2-0.5,1.4,0.1,1.9-0.2c1.2-0.8,2.4-1.6,3.6-2.2C84.6,135.3,88,134.6,88.3,135.7"/>
	<path class="st10" d="M86.5,154c1.3,0.8,8.2-2.2,8.2-2.2l6.6-2.4l4.9-3l3.1-3.3l-0.1-1.3c0,0-1.1-1.5-2.4-1.2
		c-3.1,0.7-6.2,1.5-9.4,1.5c-2.2,0-5.8,0.4-6.9-2c0,0-2.6,2-2.9,2.2c-1.7,1.1-3.7,1.9-5.6,2.8c0.9,1.6,1.5,3.4,2.4,5.1
		C84.8,151.6,85.3,153.2,86.5,154"/>
	<path class="st12" d="M93.9,149.9c-0.2-2.2,2.5-3.9,4.4-4.8c1.2-0.5,1.8-1.8,1.6-3.1c3.2,0.1,5.7-1.1,6.8-1.3
		c1.4-0.3,2.4,1.2,2.4,1.2l0.1,1.3l-3.1,3.3l-4.9,3l-6.6,2.4c0,0-0.1,0.1-0.4,0.2C94.1,151.3,94,150.6,93.9,149.9"/>
	<path class="st11" d="M81.7,145.5l0.3-0.2c0.1,0,4.3-2.4,6.8-3.8c0.8,1.2,2.1,4.1-0.4,5.5c-1.1,0.6-2.7,1.5-4.4,2.4
		c-1.2-2-2.2-3.6-2.2-3.6L81.7,145.5z"/>
	<g>
		<g>
			<g>
				<g>
					<g>
						<defs>
							<rect id="SVGID_23_" x="85.4" y="140.9" width="23.8" height="13.3"/>
						</defs>
						<clipPath id="SVGID_24_">
							<use xlink:href="#SVGID_23_"  style="overflow:visible;"/>
						</clipPath>
						<path class="st35" d="M86.5,154c-0.4-0.3-0.8-0.9-1.1-1.6c1.1,0,2.5-0.3,4-1c2.7-1.4,2.7-0.9,10.5-3.9
							c5.9-2.3,7.6-5.2,8.1-6.6c0.7,0.4,1.2,1,1.2,1l0.1,1.3l-3.1,3.3l-4.9,3l-6.6,2.4C94.7,151.8,87.8,154.8,86.5,154"/>
					</g>
				</g>
			</g>
		</g>
	</g>
	<path class="st11" d="M85.9,153.5l1.2,3.3c3.2,0.6,8.6-2.9,8.6-2.9l-0.5-1.5l5.2-2.1l0.6,0.5c9.2-3.6,8.9-8.4,8.9-8.4l-0.8-0.7
		c0.2,0.2-2.2,3-2.3,3.2c-2.8,3.1-6.9,4.4-10.7,6c-2.8,1.1-6.1,2.7-9.2,2.7C86.5,153.6,86.2,153.6,85.9,153.5"/>
	<path class="st36" d="M68.4,88c0.8-0.8,1.2-2.2,1.5-3.2c0.2-0.8,0.4-1.7,0.4-2.5c0-1.2-1.8-1.3-2.7-0.5c-0.9,0.8-1.5,2.4-1.4,3.6
		c0.1,0.5,0.4,1,0.6,1.5c0.3,0.5,0.7,1,1.2,1.3c0.1,0,0.1,0.1,0.2,0C68.3,88.1,68.3,88.1,68.4,88C68.3,88,68.4,88,68.4,88"/>
	<path class="st19" d="M54.3,95.3c0.9,2.6,2.4,5,4.2,7c2,2.2,4.5,3.9,6.3,6.3c3.4,4.3,2.7,8.5,3.6,13.4c0.8,4.9,1.4,9.8,1.9,14.8
		c0,0.2,0.1,0.5,0.2,0.7c0,0.1,0.1,0.1,0.1,0.1c0.2,0.3,0.6,0.4,0.9,0.5c1.3,0.4,2.6,0.7,3.9,0.9c1.2,0.2,2.4,0.2,3.7,0.3
		c1.8,0.1,4.4,1.6,6.2,1.7c0.3-2.3,1-4.7,0.9-7c0-1.8-0.3-3.4-0.2-5.2c0.3-4.8,0.7-9.7,0.1-14.6c-0.3-2.5-0.3-6.1-1-9.2
		c-0.6-2.5-1.6-4.7-3.7-5.9c-0.2-0.1-0.3-0.2-0.5-0.3c-3.3-1.7-7.3-1.4-10.7-2.6c-4.1-1.5-8.2-3.1-12-5.3c-0.4,1-2.2,0.9-3.2,0.8
		C53.7,92.4,53.9,94.1,54.3,95.3"/>
	<path class="st19" d="M34.8,103.2c0.5,0.7,1.1,1.3,1.7,1.9c1.6,1.5,3.4,2.8,5.3,3.9c5.9,3.7,12.1,5.3,19,5.3c0.5,0,1.1,0,1.6,0
		c0.6,0,1.1,0.1,1.6,0.3c1,0.4,2,1.1,2.2,2.2c0.2,0.8,0.5,1.4,0.9,2c0.3,0.6,0.7,1.2,1,1.9c0.6,1.4,0.8,3,1.4,4.4
		c1.3,3.2,2.6,6.3,3.8,9.5c0.4,1,2.6,8.8,3.2,8.9c2.1,0.3,4.3,0,6.3-0.9c0.2-0.1,0.5-0.2,0.7-0.3c0.1-0.1,0.3-0.1,0.4-0.2
		c0.7-0.4,1.3-0.8,1.9-1.3c2-1.8,4.1-3,3.5-5.8c-0.5-2.2-1.6-4.2-2.3-6.4c-1.5-4.8-3-9.7-4.4-14.5c-0.2-0.6-0.4-1.3-0.5-1.9
		c-0.4-1.3-0.6-2.6-1-3.9c-0.6-2.3-1.3-4.5-3-6.2c-1.4-1.4-3.1-2.5-4.8-3.4c-0.3-0.2-0.6-0.3-0.9-0.5c-0.9-0.4-1.8-0.8-2.7-1.2
		c-3.2-1.3-6.5-2.5-9.7-3.7c-0.3-0.1-0.6-0.2-0.9-0.3c-1.4-0.5-3.6-1.8-5.1-1.7c-1.2,0-2.6,1.3-3.8,1.8c-2.6,1.2-5.5,2-8.4,2.3
		c-0.2,0-0.4,0-0.6,0.1c-0.8,0.1-9.1-0.1-8.9-0.9C31.7,97.7,32.9,100.8,34.8,103.2"/>
	<path class="st3" d="M101.4,59.7c-0.6,0.5-2.4,1.6-3.3,2.2c-0.4,0.3-0.7,0.5-1,0.7c-0.2,0.1-0.3,0.2-0.3,0.2s0.2-0.1,0.3-0.2
		c0.4-0.3,1.1-0.6,1.3-0.2c0.3,0.7,0.4,2.9,0.2,3.8c-0.2,0.9-0.7,2.9-1,3.1c-0.1,0.1-0.2,0.2-0.4,0.3c-0.4,0.2-0.9,0.2-1.2,0.3
		c-1,0.3-2,0.7-3,1.1c-2.3,1-3.7,3.1-5.5,4.6c-2.3,1.9-4.6,3.7-7,5.4c-1.8,1.3-3.8,2.5-5.8,3.6c-0.5,0.3-1,0.5-1.5,0.6
		c-1.1,0.3-2.3-0.1-3.4-0.5c-1.7-0.6-3.5-1.6-4-3.4c-0.4-1.3,0-2.8,0.6-4c0.3-0.6,0.7-1.1,1.2-1.5s1.2-0.6,1.8-0.4
		c0.4,0.2,0.8,0.5,1.2,0.7c0.9,0.5,1.9-0.7,2.8-1c0.7-0.2,1.4-0.5,2-0.8c2.9-1.3,5.9-2.4,8.8-3.9c2.3-1.1,4.2-3.1,5.5-5.2
		c0.5-0.9,1.3-2.9,2.3-3.3c0,0,1.3-0.7,2.5-1.3c3-1.4,7.4-3.3,7.5-3.2C102.3,57.9,102.4,58.8,101.4,59.7"/>
	<g class="st5">
		<g>
			<g>
				<g>
					<g>
						<defs>
							<rect id="SVGID_25_" x="65.9" y="76.2" width="7" height="9"/>
						</defs>
						<clipPath id="SVGID_26_">
							<use xlink:href="#SVGID_25_"  style="overflow:visible;"/>
						</clipPath>
						<path class="st37" d="M72.9,85.1c-2.1,0.2-4-0.1-5.2-1.4c-0.3-0.4-0.6-0.9-0.8-1.3c-0.4-0.9-0.8-1.9-1-2.9c0-0.3,0-0.6,0-0.8
							c0-0.5,0.1-1.1,0.1-1.6c1.3,0.2,2.1-1,3.5-0.8c0.2,0,0.4,0.1,0.7,0.2c0.1,0,0.3,0.1,0.4,0.1c0.3,0.1,0.5,0.1,0.7,0.1
							c0,0,0,0,0,0.1v0.1c-0.1,2-0.1,4,0.4,5.9C72,83.5,72.4,84.4,72.9,85.1"/>
					</g>
				</g>
			</g>
		</g>
	</g>
	<path class="st19" d="M80.6,131.5c-2-4.5-4.3-8.8-7.2-12.8c-2.2-3.2-5.2-5.6-7-8.9c-1.2-2.3-5.3-5.8-4.5-8.6
		c0.8-3.1,7.2-4.2,9.7-3.6c-3.3-0.7-6.2-3.2-9.6-3.9c-2.5-0.5-5.6-2.3-8-2.2c-1.2,0-2.6,1.3-3.8,1.8c-2.6,1.2-5.5,2-8.4,2.3
		c-0.4,0.4-0.7,0.7-1.1,1.1c-2.1,2.4-3.7,5.3-4.2,8.4c1.6,1.5,3.4,2.8,5.3,3.9c5.9,3.7,12.1,5.3,19,5.3c0.5,0,1.1,0,1.6,0
		c0.6,0,1.1,0.1,1.6,0.3c1,0.4,2,1.1,2.2,2.2c0.2,0.8,0.5,1.4,0.9,2c0.3,0.6,0.7,1.2,1,1.9c0.6,1.4,0.8,3,1.4,4.4
		c1.3,3.2,2.6,6.3,3.8,9.5c0.4,1,2.6,8.8,3.2,8.9c2.1,0.3,4.3,0,6.3-0.9c0.2-0.1,0.5-0.2,0.7-0.3c0.1-0.1,0.3-0.1,0.4-0.2
		c-0.5-1.1-0.8-2.3-1-3.6C82.5,136.1,81.6,133.8,80.6,131.5"/>
	<path class="st11" d="M34.8,103.2c1.9,2.4,4.4,4.2,7,5.8c5.9,3.7,12.1,5.3,19,5.3c0.5,0,1.1,0,1.6,0c-0.5-0.3-1.1-0.6-1.7-0.8
		c-4-1.7-8.1-3.4-11.2-6.5c-2-1.9-4.7-5.3-1.5-7c2.1-1.1,4.5-1.8,6.7-2.7c2-0.9,4-2.1,5.3-3.9c-0.3-0.1-0.6-0.2-0.9-0.3
		c-1.4-0.5-3.6-1.8-5.1-1.7c-1.2,0-2.6,1.3-3.8,1.8c-2.8,1.3-5.9,2.1-9,2.4c-0.8,0.1-9.1-0.1-8.9-0.9
		C31.7,97.7,32.9,100.8,34.8,103.2"/>
	<path class="st38" d="M36.1,62.3c-2,4.1-4.1,8.6-4.8,13.1c-1.1,6.7-1.2,13.9-0.8,20.5c0.1,2,0.6,4.3,2.2,5.4c1.9,1.3,4.4,0.7,6.5,0
		c2.4-0.7,4.8-1.5,6.9-2.7c1.1-0.7,2.2-1.5,3.3-2.1c1.2-0.7,2.5-1.2,3.8-1.7c1.3-0.4,2.7-0.8,4.1-1.1c0.6-0.1,1.1-0.2,1.7-0.4
		c0.9-0.2,1-1.3,0.7-2.5c-0.1-0.7-0.4-1.5-0.6-2.1c-0.2-0.7-0.4-1.3-0.6-1.7v-0.1c-0.4-1.3-0.8-2.6-1-4c0.3,0.2,0.7,0.4,1,0.6
		c2,1.3,4.1,2.6,6.2,3.7c1,0.5,2.2,1,3.3,1.1c-0.4,0-0.5-0.7-0.5-1.7c0-2,0.6-5.2,0.6-5.5c0.4-2.1,1.2-3.2,2.9-4.3
		c-0.2-0.2-0.5-0.3-0.7-0.5c-2.2-1.8-3.5-4.1-5.2-6.3c-1.4-1.9-2.6-4.1-4.2-5.9c-1.6-1.9-2.4-4.4-4.2-6.1c-1.5-1.5-3.5-2.1-5.3-3
		c-2.1-0.9-4-3.7-6.6-2.7c-4.2,1.6-6.7,5.7-8.6,9.5C36.3,61.8,36.2,62,36.1,62.3"/>
	<path class="st39" d="M54.1,98.6C54,98.7,54,98.7,54.1,98.6L54.1,98.6z"/>
	<path class="st40" d="M32.7,83.7c-0.7-2.7-1.1-5.5-1.4-8.3c-1.1,6.7-1.2,13.9-0.8,20.5c0.1,2,0.6,4.3,2.2,5.4
		c1.9,1.3,4.4,0.7,6.5,0c2.4-0.7,4.8-1.5,7-2.7c1.1-0.7,2.2-1.5,3.3-2.1c1.2-0.7,2.5-1.2,3.8-1.7c1.3-0.4,2.7-0.8,4.1-1.1
		c0.6-0.6,1.5-0.9,2-1.5c0.3-0.4,0.5-0.9,0.4-1.4c0-1.3-0.8-2.8-1.2-3.9v-0.1c-0.4-1.3-0.8-2.6-1-4c0.3,0.2,0.7,0.4,1,0.6l-0.3-0.3
		c-2.5-1.7-4.8-3.8-7.5-5.3c0.3,1.4-0.1,2.6-0.2,3.9c-0.1,1.3-0.1,2.9,0.1,4.2c0.4,3,3.5,4.8,0.6,7.7c-0.9,0.9-2,1.5-3.1,2.1
		c-1,0.5-2,1.1-3.2,1.2c-1.1,0.1-2.2-0.2-3.3-0.7c-2.5-1.1-4.7-3-6.2-5.3C34.1,88.8,33.3,86.2,32.7,83.7"/>
	<path class="st38" d="M51.1,81.1l2.6,1.3c1.4,2.4,3.3,4.5,5.6,6.2c-0.2-0.7-0.5-1.3-0.6-1.7v-0.1c-0.4-1.3-0.8-2.6-1-4
		c0.3,0.2,0.7,0.4,1,0.6c2,1.3,4.1,2.6,6.2,3.7c1.1,0.5,2.2,1,3.3,1.1c-0.4,0-0.5-0.7-0.5-1.7c-2.8-2-5.5-4.1-7.7-6.6
		c-3-3.4-5.1-7.6-8.4-10.8C50.3,72.9,50.2,77.2,51.1,81.1"/>
	<g class="st5">
		<g>
			<g>
				<g>
					<g>
						<defs>
							<rect id="SVGID_27_" x="48.6" y="44.8" width="1.5" height="3.6"/>
						</defs>
						<clipPath id="SVGID_28_">
							<use xlink:href="#SVGID_27_"  style="overflow:visible;"/>
						</clipPath>
						<path class="st41" d="M48.6,44.8c0.4,0.9,0.9,1.7,1.5,2.2c-0.1,0.5-0.2,0.9-0.3,1.4L48.6,44.8z"/>
					</g>
				</g>
			</g>
		</g>
	</g>
	<path class="st3" d="M43.1,56.2c1.9,0.6,9.2,2.1,10.6,0.2c0.2-0.3,0.2-0.7,0-1.2c-0.1-0.4-0.2-0.7-0.3-1.1C53.2,53.5,53,53,53,52.6
		c-0.1-1.1-0.1-2.2,0.1-3.3c0.1-0.5,0.2-0.9,0.3-1.4c-1.2-0.1-2.3-0.5-3.3-1.2c-1.4-0.9-2.7-2.2-3.8-3.3c-0.1,0.1,0.1,0.5-0.1,0.6
		c0.2,0.4,0.3,0.8,0.3,1.2c0,0.5-0.1,1.1-0.2,1.6c0,0.1-0.1,0.3-0.1,0.4c-0.1,0.5-0.2,0.9-0.3,1.4c-0.3,1-0.6,1.9-0.9,2.9
		C44.4,53.2,43.8,54.7,43.1,56.2"/>
	<g class="st5">
		<g>
			<g>
				<rect id="SVGID_29_" x="45.9" y="45.3" class="st3" width="7.8" height="9.9"/>
			</g>
			<g>
				<g>
					<g>
						<defs>
							<rect id="SVGID_30_" x="45.9" y="45.3" width="7.8" height="9.9"/>
						</defs>
						<clipPath id="SVGID_31_">
							<use xlink:href="#SVGID_30_"  style="overflow:visible;"/>
						</clipPath>
						<path class="st42" d="M45.9,48.7c1.6,1.8,3.4,3.4,5.3,4.8c0.8,0.6,1.7,1.2,2.5,1.7c-0.1-0.4-0.2-0.7-0.3-1.1
							C53.2,53.5,53,53,53,52.6c-0.1-1.1-0.1-2.2,0.1-3.3c-0.2-0.2-0.4-0.3-0.7-0.5c-0.8-0.6-1.7-1.3-2.5-1.9
							c-0.5-0.4-1.1-0.7-1.7-1c-0.5-0.3-1.1-0.5-1.6-0.6c0,0.5-0.1,1.1-0.2,1.6c0,0.1-0.1,0.3-0.1,0.4C46.1,47.8,46,48.3,45.9,48.7"
							/>
					</g>
				</g>
			</g>
		</g>
	</g>
	<path class="st3" d="M59.7,47.9c0.2,0.9-1.9,2.9-2.6,3.5c-1.7,1.4-5.4-0.7-6.9-1.7c-0.3-0.2-0.5-0.4-0.8-0.6c-1-0.7-2.1-1.7-3-2.7
		c-0.6-0.7-1.1-1.3-1.4-2c0-0.1-0.1-0.2-0.1-0.3c-0.6-1.7-0.7-4.1-0.8-5.8c-0.1-1.3,1.2-1.2,2.3-2s2.4-1.2,3.8-1.4
		c2.8-0.3,7.2,0.7,9.2,3.1c0.2,0.3,0.5,0.6,0.6,1c0,0.1,0.1,0.2,0.1,0.3c0.2,0.5,0.2,1,0.2,1.5c0,0.8-0.1,1.5,0,2.3
		c0.2,0.9,0.5,1.8,0.8,2.7C61.6,47,61.5,48.3,59.7,47.9"/>
	<g class="st5">
		<g>
			<g>
				<g>
					<g>
						<defs>
							<rect id="SVGID_32_" x="44.8" y="36.6" width="15.4" height="12.5"/>
						</defs>
						<clipPath id="SVGID_33_">
							<use xlink:href="#SVGID_32_"  style="overflow:visible;"/>
						</clipPath>
						<path class="st43" d="M60.2,40.7c-0.1,0-0.3,0.1-0.4,0.1c-0.8,0.1-1.6,0.1-2.4,0.3c-0.8,0.1-2.2,0.5-2.6,1.3
							c-0.5-0.2-0.5-1-0.9-1.1c-0.3-0.1-0.7,0.2-0.9,0.5c-0.5,0.6-1.1,1.3-1.3,2.1c-0.1,0.4-0.1,0.9-0.1,1.4
							c-0.1,1.4-0.7,2.7-1.7,3.6c-0.1,0.1-0.3,0.2-0.4,0.3c-0.4,0.2-2.1-1.5-3.1-2.7c-0.4-0.4-0.6-0.7-0.8-0.9
							c-0.4-0.4-0.6-1-0.7-1.5V44c0-0.1,0-0.2,0-0.3c0.1-0.1,0.2-0.2,0.3-0.3c0.5-0.3,1.4-0.3,1.8-0.7c0.4-0.3,0.6-0.9,0.8-1.3
							c1.2-1.8,2.9-3.4,4.9-4.2c1.4-0.5,2.9-0.7,4.3-0.3c0.7,0.2,1.5,0.5,2,1c0.3,0.3,0.6,0.8,0.8,1.2c0,0.1,0.1,0.2,0.1,0.3
							C60.2,39.7,60.2,40.2,60.2,40.7"/>
					</g>
				</g>
			</g>
		</g>
	</g>
	<path class="st4" d="M62.7,37.9c-0.4,0.7-0.9,1.2-1.5,1.5c-1.3,0.7-2.9,0.3-4.3,0.6c-0.6,0.1-1,0.2-1.4,0.6
		c-0.2,0.3-0.8,1.2-0.7,1.5c-0.3-0.8-0.6-1.5-1.3-1.8c-0.1,0-0.1,0-0.2-0.1c-0.2,0-0.3-0.1-0.5-0.1c-0.6,0-1.2,0.1-1.8,0.3
		c-0.1,0-0.2,0.1-0.3,0.1c-0.1,0.1-0.3,0.2-0.4,0.3c-0.4,0.4-0.5,0.9-0.9,1.4s-0.9,1-1.3,1.4c-0.4,0.4-0.9,0.6-1.4,0.9
		c-0.4,0.3-0.8,0.8-1.2,1.2c-0.1-0.1-0.2-0.3-0.3-0.4c-0.5-0.6-1-1.2-1.3-1.9c-0.4-0.9-0.7-1.9-0.9-2.9c0-0.7,0-1.5,0-2.3
		c0.2-3.1,2.1-6.1,5.3-7.1c0.3-0.1,0.6-0.2,1-0.3c1.1-0.3,2.3-0.4,3.4-0.6c0.1,0,0.3-0.1,0.5-0.1c1.2-0.4,3.1-1.2,3.9-0.9l0,0l0,0
		c-0.5-0.2-1.1-0.2-1.6,0c0.1,0,0.1-0.1,0.2-0.1l-1.3,0.2c-1.1,0-2.1,0.3-3.1,0.7c1.1-0.6,2.3-1.2,3.5-1.5c1.3-0.3,2.6-0.3,3.9,0.1
		l0,0l0,0h0.1c2.1,0.6,3.9,2.2,4.4,4.6c0,0.1,0,0.1,0,0.2C63.6,34.7,63.4,36.5,62.7,37.9"/>
	<path class="st44" d="M56.3,57.2c-0.3-0.9-0.5-1.7-0.8-2.6c-2.9-0.8-5.7-1.5-8.6-2.3c-1.3-0.4-2.7-0.8-3.4-1.9
		c-1.1,0.4-1.7,1.6-2.2,2.7c-0.4,0.7-0.7,1.7-0.2,2.3c1.8,2.4,4.5,3,7.5,3.3C51.5,58.8,53.5,58.2,56.3,57.2"/>
	<path class="st3" d="M51.9,44c0-0.9-0.8-1.5-0.9-2.3c-0.1-0.8,0.5-1.6,1.3-1.6c0.9,0,1.5,1,1.5,1.8"/>
	<path class="st38" d="M40.4,55.6c1.9-0.1,12.7,1.4,13.9,1.5c-1.7-0.4-3.5-0.6-5.2-0.8c-0.5-0.1-0.9-0.1-1.4-0.2
		c-1.7-0.3-3.3-0.9-5-1.4l0,0c-0.4-0.1-0.9-0.3-1.3-0.4h-0.1C41,54.6,40.7,55.1,40.4,55.6"/>
	<g class="st5">
		<g>
			<g>
				<g>
					<g>
						<defs>
							<rect id="SVGID_34_" x="51.7" y="41" width="1.4" height="2.4"/>
						</defs>
						<clipPath id="SVGID_35_">
							<use xlink:href="#SVGID_34_"  style="overflow:visible;"/>
						</clipPath>
						<path class="st45" d="M51.7,41.5c0,0.1,0,0.2,0.1,0.3c0.2,0.6,0.6,1.2,1.1,1.6c0.1-0.4,0.5-1.6,0.2-2.1S51.7,40.8,51.7,41.5"
							/>
					</g>
				</g>
			</g>
		</g>
	</g>
	<path class="st20" d="M55.8,42.8c0.5-0.4,1-0.6,1.6-0.7c0.4-0.1,0.9,0,1.3,0.1c0.2,0,0.5,0.1,0.5,0.4c-0.1,0.2-0.4,0.2-0.6,0.2
		c-0.3-0.1-0.6-0.1-0.9-0.1C57.1,42.4,56.4,42.5,55.8,42.8"/>
	<path class="st20" d="M58.8,43.9c0.1,0.2-0.1,0.4-0.3,0.5c-0.2,0-0.4-0.1-0.5-0.3s0.1-0.4,0.3-0.5C58.6,43.5,58.8,43.7,58.8,43.9"
		/>
	<path class="st20" d="M59,43.7L59,43.7c0,0-0.7-0.3-1.6,0.2c0,0,0,0-0.1,0c0,0,0,0,0-0.1C58.3,43.3,59,43.6,59,43.7
		C59,43.6,59,43.7,59,43.7L59,43.7"/>
	<g class="st5">
		<g>
			<g>
				<g>
					<g>
						<defs>
							<rect id="SVGID_36_" x="59" y="46.7" width="0.8" height="1.1"/>
						</defs>
						<clipPath id="SVGID_37_">
							<use xlink:href="#SVGID_36_"  style="overflow:visible;"/>
						</clipPath>
						<path class="st46" d="M59.7,47.8c-0.3,0-0.5-0.1-0.6-0.3C59,47.3,59,47,59.2,46.8"/>
					</g>
				</g>
			</g>
		</g>
	</g>
	<path class="st20" d="M58.7,49c-0.2,0-0.5,0.1-0.7,0.1s-0.5,0.1-0.7,0c-0.3,0-0.5-0.1-0.7-0.3s-0.3-0.4-0.4-0.6
		c0.2,0.2,0.3,0.4,0.5,0.5s0.4,0.2,0.6,0.2c0.2,0,0.5,0,0.7,0C58.2,49,58.4,49,58.7,49"/>
	<path class="st19" d="M67.1,118.9c0.3,0.6,0.7,1.2,1,1.9c0.6,1.4,0.8,3,1.4,4.4c1.3,3.2,2.6,6.3,3.8,9.5c0.4,1,2.6,8.8,3.2,8.9
		c2.1,0.3,4.3,0,6.3-0.9c-3.4-3.8-6.4-8-9-12.4c-1.7-2.8-3-5.8-4.5-8.8C68.8,120.6,68,119.7,67.1,118.9"/>
	<path class="st32" d="M27.6,109.6c1,4.6,2,7.4,2,7.4c2,0.9,5.1,1.4,8.6,1.6c10.1,0.6,23.6-1.1,24.5-1c0,0,1.8-5.7-4.2-15.3
		c-0.1-0.2-0.3-0.4-0.4-0.7c-1.3-1.9-2.4-3.1-3.6-3.7c-4-2.3-8.1,1-16.2-1.4c-0.2-0.1-0.4-0.1-0.6-0.2c-11.1-3.5-5.9-24-5.9-24
		c-1.2-0.9-2.2-1.4-3-1.6c-2.4-0.8-3.2,0.4-3.2,0.4C23.5,86.9,25.7,101.3,27.6,109.6"/>
	<path class="st20" d="M29.8,92.3c1,2.7,3,4.5,7.4,4.3c0.3,0,0.7,0,1-0.1c-0.2-0.1-0.4-0.1-0.6-0.2c-11.1-3.5-5.9-24-5.9-24
		c-1.2-0.9-2.2-1.4-3-1.6c-0.4-0.1-0.5,13.3-0.4,14.6C28.8,87.8,29.1,90.3,29.8,92.3"/>
	<path class="st47" d="M27.6,109.6c1,4.6,2,7.4,2,7.4c7.6,3.6,31.9,0.4,33.1,0.6c0,0,1.8-5.7-4.2-15.3c-1.4-2.3-2.7-3.6-4-4.4
		c-0.1,0.4-0.2,0.7-0.3,1.1c-1,2.8-3.3,5-5.8,6.7c-4.7,3.3-10.6,5.1-16.3,4.7C30.6,110.3,29.1,110,27.6,109.6"/>
	<path class="st20" d="M38.1,118.4L38.1,118.4c10.2,0.7,23.7-1,24.6-0.9c0,0,1.8-5.7-4.2-15.3c-0.1-0.2-0.3-0.4-0.4-0.7
		c-0.5,1.8-1.3,3.5-2.3,5.1c-3.1,4.9-7.7,8.8-13.2,10.7C41.1,117.9,39.6,118.3,38.1,118.4"/>
	<path class="st48" d="M98,61.7c-0.6,0.7-1.4,1.2-2.2,1.5"/>
	<path class="st4" d="M50.1,40.5c0.2,0,0.4,0.1,0.7,0.1c-0.1,0.1-0.3,0.2-0.4,0.3c-0.4,0.4-0.5,0.9-0.9,1.4s-0.9,1-1.3,1.4
		c-0.4,0.4-0.9,0.6-1.4,0.9c-0.4,0.3-0.8,0.8-1.2,1.2c-0.1-0.1-0.2-0.3-0.3-0.4c-0.5-0.6-1-1.2-1.3-1.9c-0.4-0.9-0.7-1.9-0.9-2.9
		C43,39.8,43,39,43,38.2c0.3,0.3,0.7,0.6,1.1,0.8c1.4,0.7,3,0.3,4.5,1C49.1,40.2,49.6,40.4,50.1,40.5"/>
	<path class="st8" d="M53.6,40.2L53.6,40.2c-0.2,0.1-0.2,0.1-0.3,0C53.4,40.2,53.5,40.2,53.6,40.2"/>
	<path class="st4" d="M62.7,37.9c-0.4,0.7-0.9,1.2-1.5,1.5c-1.3,0.7-2.9,0.3-4.3,0.6c-0.6,0.1-1,0.2-1.4,0.6
		c-0.2,0.3-0.8,1.2-0.7,1.5c-0.3-0.8-0.6-1.5-1.3-1.8c-0.1,0-0.1,0-0.2-0.1c-0.2,0-0.3-0.1-0.5-0.1c-0.6,0-1.2,0.1-1.8,0.3
		c1.2-1.1,3.4-1.3,4.9-1.4c1.1-0.1,2.2,0,3.3,0s2.3-0.2,3.2-0.9C62.5,38,62.6,38,62.7,37.9"/>
	<path class="st4" d="M57.4,29.1c-0.4,0.8-1.2,1.4-2,1.7c-1.9,0.8-4,0.4-6.1,0c1.1-0.3,2.3-0.4,3.4-0.6c0.1,0,0.3-0.1,0.5-0.1
		c1.4,0,2.8-0.1,3.9-0.9l0,0C57.2,29.2,57.3,29.1,57.4,29.1"/>
	<path class="st4" d="M63.3,33.4c-0.4,0-0.9-0.1-1.3-0.3c-0.2-0.1-0.4-0.2-0.5-0.3c-0.1-0.2-0.2-0.4-0.2-0.6
		c-0.4-1.4-1.2-2.7-2.4-3.6c2.1,0.6,3.9,2.2,4.4,4.6C63.3,33.3,63.3,33.3,63.3,33.4"/>
	<path class="st32" d="M91.7,86.9L90,96.5l0,0l-4.7,26.6L80.6,155c-0.1,0.4-0.4,0.6-0.8,0.6c-0.3,0-0.6-0.3-0.5-0.6l4.2-35l3.9-28.8
		l0.6-4.3L91.7,86.9z"/>
	<path class="st20" d="M90,96.5c0.2-4.1-2.7-5.4-2.7-5.4l0.6-4.3l3.8,0.1L90,96.5z"/>
	<path class="st32" d="M180.9,156c-0.4,0-0.7-0.3-0.8-0.6l-4.3-29.6l-5.4-30.4l-1.5-8.5l3.8-0.1l0.7,4.9l4.7,34.7l3.3,29
		C181.5,155.7,181.2,156,180.9,156"/>
	<path class="st47" d="M173.4,91.7c-2.5,1.1-3,3.7-3,3.7l-1.5-8.5l3.8-0.1L173.4,91.7z"/>
	<path class="st32" d="M189.5,84.6v4.5c0,0.6-0.4,1.1-0.8,1.1H70.3c-0.5,0-0.8-0.5-0.8-1.1v-4.5c0-0.6,0.4-1.1,0.8-1.1h118.4
		C189.1,83.6,189.5,84,189.5,84.6"/>
	<path class="st49" d="M124.1,82.2h28.8v1.7h-30.2v-0.2C122.6,82.8,123.3,82.2,124.1,82.2"/>
	<polygon class="st49" points="170.3,83.9 141.5,83.9 146.1,65.6 175,65.6 	"/>
	<polygon class="st48" points="143.2,83.9 170.3,83.9 172.1,76.8 175,65.6 147.9,65.6 143.5,82.9 	"/>
	<path class="st49" d="M161.1,74c0,0.9-0.8,1.7-1.7,1.7s-1.7-0.8-1.7-1.7c0-0.9,0.8-1.7,1.7-1.7S161.1,73,161.1,74"/>
	<g class="st50">
		<g>
			<g>
				<g>
					<g>
						<defs>
							<rect id="SVGID_38_" x="152" y="65.6" width="23" height="18.3"/>
						</defs>
						<clipPath id="SVGID_39_">
							<use xlink:href="#SVGID_38_"  style="overflow:visible;"/>
						</clipPath>
						<polygon class="st51" points="152,83.9 166.5,83.9 172.1,76.8 175,65.6 165.5,65.6 						"/>
					</g>
				</g>
			</g>
		</g>
	</g>
	<g class="st50">
		<g>
			<g>
				<g>
					<g>
						<defs>
							<rect id="SVGID_40_" x="143.2" y="65.6" width="17" height="18.3"/>
						</defs>
						<clipPath id="SVGID_41_">
							<use xlink:href="#SVGID_40_"  style="overflow:visible;"/>
						</clipPath>
						<polygon class="st52" points="143.2,83.9 145.7,83.9 160.2,65.6 156,65.6 143.5,82.9 						"/>
					</g>
				</g>
			</g>
		</g>
	</g>
	<rect x="110.4" y="50.2" class="st53" width="2.4" height="32"/>
	<rect x="107.5" y="82.2" class="st49" width="8.4" height="1.3"/>
	<polygon class="st49" points="110.4,62.9 106.4,62.9 110,50.2 110.4,50.2 	"/>
	
		<rect x="89.1" y="52.2" transform="matrix(0.2618 -0.9651 0.9651 0.2618 28.9263 144.3961)" class="st53" width="39.6" height="2.2"/>
	<polygon class="st48" points="103.4,72.2 102.7,72 113.1,34 113.8,34.2 	"/>
	<path class="st54" d="M186.8,75.6c0,0-1.5,8.2-3.4,8.2H180h-3.4c-0.4,0-0.8-0.4-1.2-1c0-0.1-0.1-0.2-0.1-0.2
		c-0.2-0.3-0.3-0.6-0.5-1c-0.1-0.2-0.2-0.5-0.3-0.8c-0.3-1-0.6-2-0.8-2.9c-0.1-0.6-0.2-1.1-0.3-1.5c-0.1-0.5-0.2-0.8-0.2-0.8
		L186.8,75.6z"/>
	<path class="st54" d="M175.4,82.8h-0.1c-0.2,0-0.4,0-0.6,0l0,0c-2.2,0-3.6-1.3-4.2-2.6c-0.5-1.2-0.4-2.5,0.3-3.2
		c0.8-0.8,1.7-0.8,2.5-0.6c0.7,0.2,1.2,0.5,1.2,0.5l-0.7,1.1c0,0-0.1-0.1-0.2-0.1c-0.4-0.2-1.3-0.6-2,0.1c-0.3,0.3-0.4,1,0,1.8
		c0.2,0.5,1,1.9,3.1,1.8c0.2,0,0.4,0,0.6,0l0.1,0.9L175.4,82.8z"/>
	<path class="st55" d="M186.8,75.6c0,0-1.5,8.2-3.4,8.2H180h-3.4c-0.4,0-0.8-0.4-1.2-1c-0.2,0-0.4,0-0.6,0l0,0
		c0.2-0.1,0.3-0.2,0.5-0.3c0.1,0,0.1-0.1,0.2-0.1c3-1.6,5.6-4,7.6-6.9h3.7V75.6z"/>
</g>
</svg>
