<svg id="Layer_1" data-name="Layer 1" xmlns="http://www.w3.org/2000/svg" viewBox="0 0 150 150"><defs><style>.cls-1{fill:#454545;}</style></defs><title>ipad</title><path class="cls-1" d="M78.14,132.32a6.76,6.76,0,1,1,6.74-6.76A6.87,6.87,0,0,1,78.14,132.32Zm-.06-10.94a4.18,4.18,0,0,0,0,8.35,4.18,4.18,0,1,0,0-8.35Z"/><path class="cls-1" d="M25.19,84.25V41.09c0-1.85.45-2.61,1.54-2.63s1.56.72,1.56,2.59q0,42.9,0,85.79a19.14,19.14,0,0,0,.33,3.72,8.7,8.7,0,0,0,8.52,7.12c1.51.08,3,0,4.52,0,14.82,0,60.65,0,75.46,0a17,17,0,0,0,4.09-.42c4.37-1.11,6.72-4.57,6.74-9.78,0-8.23,0-16.45,0-24.68,0-.34,0-.69,0-1a1.42,1.42,0,0,1,1.47-1.48A1.47,1.47,0,0,1,131,101.7a7.09,7.09,0,0,1,0,1q0,12.28,0,24.55c0,8.11-5.42,13.53-13.54,13.54-15.93,0-62.88,0-78.82,0-8.13,0-13.5-5.39-13.51-13.55Q25.16,105.76,25.19,84.25Z"/><path class="cls-1" d="M127.94,57.45q0-16.22,0-32.43a17.94,17.94,0,0,0-.29-3.59,8.74,8.74,0,0,0-8.38-7.27c-.26,0-.52,0-.78,0-16.66,0-64.34,0-81,0-5.4,0-9,3.93-9.17,9.64-.08,3,0,5.94,0,8.91,0,1.38-.52,2.11-1.5,2.13s-1.61-.74-1.59-2.19c0-3.53-.14-7.08.25-10.57A12.21,12.21,0,0,1,37.81,11c16.41-.06,63.83-.07,80.24,0a12.57,12.57,0,0,1,13,13q.08,33.53,0,67.05c0,1.51-.82,2.39-1.91,2.09s-1.2-1.07-1.19-2c0-5.94,0-11.88,0-17.83Z"/><path class="cls-1" d="M129.45,98.46A1.45,1.45,0,0,1,128,96.91a1.53,1.53,0,1,1,3.06,0A1.47,1.47,0,0,1,129.45,98.46Z"/><circle class="cls-1" cx="78.12" cy="21.66" r="3.66"/></svg>