<svg id="Layer_1" data-name="Layer 1" xmlns="http://www.w3.org/2000/svg" viewBox="0 0 150 150"><defs><style>.cls-1{fill:#454545;}</style></defs><title>iphone</title><path class="cls-1" d="M41.42,83.27V40.11c0-1.84.46-2.61,1.55-2.63s1.56.72,1.56,2.6q0,42.89,0,85.79a17.82,17.82,0,0,0,.33,3.72,8.7,8.7,0,0,0,8.52,7.11c1.5.08,3,.05,4.52.05q22.22,0,44.44,0a16.43,16.43,0,0,0,4.09-.42c4.37-1.11,6.72-4.57,6.74-9.78q0-12.33,0-24.67c0-.35,0-.69,0-1a1.42,1.42,0,0,1,1.48-1.48,1.46,1.46,0,0,1,1.58,1.38,6,6,0,0,1,0,1q0,12.27,0,24.54c0,8.11-5.42,13.53-13.54,13.54q-23.89,0-47.8,0c-8.14,0-13.5-5.39-13.51-13.55Q41.4,104.78,41.42,83.27Z"/><path class="cls-1" d="M113.16,56.47q0-16.22,0-32.43a18.71,18.71,0,0,0-.29-3.59,8.75,8.75,0,0,0-8.39-7.27l-.77,0c-16.67,0-33.34-.05-50,0-5.4,0-9,3.93-9.17,9.64-.09,3,0,5.94,0,8.91,0,1.38-.52,2.11-1.5,2.13s-1.61-.74-1.59-2.19c.05-3.52-.15-7.08.24-10.57a12.22,12.22,0,0,1,12.4-11q24.6-.09,49.22,0a12.59,12.59,0,0,1,13,13q.08,33.53,0,67.05c0,1.51-.82,2.4-1.91,2.09s-1.19-1.07-1.19-2c0-5.94,0-11.88,0-17.83Z"/><path class="cls-1" d="M78.85,131.34a6.76,6.76,0,1,1,6.74-6.76A6.88,6.88,0,0,1,78.85,131.34Zm0-10.93a4.17,4.17,0,0,0,0,8.34,4.17,4.17,0,1,0,0-8.34Z"/><path class="cls-1" d="M79,21.18c2.45,0,4.9,0,7.35,0,.93,0,1.72.24,1.75,1.25s-.76,1.39-1.75,1.38q-7.49,0-15,0c-1,0-1.79-.29-1.76-1.39s.84-1.25,1.76-1.24C73.89,21.19,76.42,21.18,79,21.18Z"/><path class="cls-1" d="M114.67,97.48a1.44,1.44,0,0,1-1.47-1.55,1.41,1.41,0,0,1,1.5-1.57,1.43,1.43,0,0,1,1.55,1.55A1.46,1.46,0,0,1,114.67,97.48Z"/></svg>