<svg id="Layer_1" data-name="Layer 1" xmlns="http://www.w3.org/2000/svg" viewBox="0 0 150 150"><defs><style>.cls-1{fill:#454545;}</style></defs><title>iphone_x</title><path class="cls-1" d="M45.6,82.53V39.37c0-1.85.45-2.61,1.54-2.63s1.56.72,1.56,2.6q0,42.89,0,85.79a19.11,19.11,0,0,0,.33,3.71A8.7,8.7,0,0,0,57.56,136c1.51.08,3,0,4.52,0,14.82,0,19.3,0,34.11,0a17,17,0,0,0,4.09-.42c4.37-1.11,6.72-4.57,6.74-9.78,0-8.22,0-16.45,0-24.68,0-.34,0-.69,0-1a1.42,1.42,0,0,1,1.47-1.48,1.47,1.47,0,0,1,1.59,1.38,7.09,7.09,0,0,1,0,1q0,12.28,0,24.55c0,8.11-5.42,13.53-13.54,13.54-15.94,0-21.53,0-37.47,0-8.13,0-13.5-5.39-13.51-13.55Q45.57,104,45.6,82.53Z"/><path class="cls-1" d="M107,55.73q0-16.21,0-32.43a17.94,17.94,0,0,0-.29-3.59,8.74,8.74,0,0,0-8.38-7.27c-.26,0-.52,0-.78,0-16.67,0-23,0-39.66,0-5.4,0-9,3.93-9.17,9.64-.08,3,0,5.94,0,8.91,0,1.38-.52,2.11-1.5,2.13s-1.61-.74-1.59-2.19c.05-3.53-.14-7.08.25-10.57a12.21,12.21,0,0,1,12.39-11c16.41-.06,22.48-.07,38.88,0a12.57,12.57,0,0,1,13,13q.08,33.53,0,67.05c0,1.51-.82,2.39-1.91,2.09s-1.2-1.07-1.19-2c0-5.94,0-11.88,0-17.83Z"/><path class="cls-1" d="M108.51,96.74A1.45,1.45,0,0,1,107,95.19a1.53,1.53,0,1,1,3.06,0A1.47,1.47,0,0,1,108.51,96.74Z"/><rect class="cls-1" x="66.04" y="127.4" width="23.6" height="2.8" rx="0.89"/><path class="cls-1" d="M93,15.84h0A3.66,3.66,0,0,0,90.4,9.6H65.3a3.65,3.65,0,0,0-2.58,6.24h0a7.24,7.24,0,0,0,4.89,1.51H88.09A7.29,7.29,0,0,0,93,15.84Z"/></svg>