<?xml version="1.0" encoding="utf-8"?>
<!-- Generator: Adobe Illustrator 21.0.0, SVG Export Plug-In . SVG Version: 6.00 Build 0)  -->
<svg version="1.1" id="Capa_1" xmlns="http://www.w3.org/2000/svg" xmlns:xlink="http://www.w3.org/1999/xlink" x="0px" y="0px"
	 viewBox="0 0 115 107" style="enable-background:new 0 0 115 107;" xml:space="preserve">
<style type="text/css">
	.st0{fill:#666666;}
</style>
<title>tech-icon1</title>
<g>
	<path class="st0" d="M53.3,49.5c-0.1,0-0.2,0-0.2,0.1c-2.1,2-3.7,5.3-1.8,8.5c0.7,1.2,1.6,2.3,2.5,3.3c0.8,0.9,1.3,1.8,1.4,3
		c0.1,1.4-0.3,2.6-1.5,3.3c-1.3,0.9-2.6,0.9-4.1,0.2c-1.5-0.8-2.2-2.4-1.9-4.1c0.1-0.3,0.2-0.7,0.3-1.2c-0.4,0.3-0.8,0.6-1.1,0.9
		c-2.2,1.9-3.9,4.1-4.6,7c-0.5,2.4-0.2,4.5,1.1,6.6c1,1.6,2.3,2.9,3.9,3.9c0.2,0.1,0.3,0.2,0.4,0.4c-0.2,0-0.3-0.1-0.5-0.1
		c-4.4-1.4-8.3-3.7-10.9-7.6c-2.3-3.4-3.2-7.3-2.7-11.4c0.5-5.5,3.1-10.1,6.5-14.3c2.6-3.2,5.7-6.1,8.9-8.8c1.9-1.6,3.7-3.2,5.1-5.3
		c0.5-0.7,0.9-1.5,1.4-2.2c1-2,1.5-4.1,0.5-6.3c0.1,0,0.2,0,0.2,0.1c2.8,2.3,4.9,5.1,5.7,8.8c0.4,1.9,0.2,3.8-0.3,5.6
		c-0.4,1.5-0.9,3-1.1,4.5c-0.3,1.5,0.1,3,1,4.3c1.5,2,4.7,2.3,6.4,0.3c0.6-0.7,0.9-1.4,0.7-2.7c1.3,0.8,2.5,1.5,3.6,2.3
		c3.3,2.4,6.1,5.4,7.4,9.3c2.1,6.3,0.7,11.9-3.8,16.6c-3.2,3.4-7.2,5.5-11.5,6.7c-0.1,0-0.2,0-0.3,0c0.5-0.3,0.9-0.4,1.2-0.7
		c1.3-0.8,2.5-1.6,3.5-2.7c3.1-3.4,3.5-8,1.1-12.1c-1.4-2.4-3.4-4.2-5.6-5.7c-1.9-1.3-3.8-2.4-5.8-3.7c-1.4-0.9-2.7-1.8-3.8-3.1
		C53.5,52.4,52.9,51.1,53.3,49.5z"/>
</g>
</svg>
