<?xml version="1.0" encoding="utf-8"?>
<!-- Generator: Adobe Illustrator 21.0.0, SVG Export Plug-In . SVG Version: 6.00 Build 0)  -->
<svg version="1.1" id="Capa_1" xmlns="http://www.w3.org/2000/svg" xmlns:xlink="http://www.w3.org/1999/xlink" x="0px" y="0px"
	 viewBox="0 0 115 107" style="enable-background:new 0 0 115 107;" xml:space="preserve">
<style type="text/css">
	.st0{fill:#666666;}
</style>
<title>tech-icon1</title>
<g>
	<path class="st0" d="M58.4,78.9c-0.7,0-1.3,0-2.1,0c-1.1-0.2-2.2-0.3-3.3-0.5c-2-0.4-3.8-1-5.4-2.2c-1.5-1.2-2.4-2.7-2.3-4.7
		c0-3.7,0-7.3,0-11c0-0.4,0-0.9,0.1-1.3c0.6-3,3-5.1,6.2-5.1c3.8,0,7.7,0,11.5,0c0.5,0,1,0,1.5-0.1c3.7-0.7,6.4-3.8,6.4-7.7
		c0-1.6,0-3.2,0-4.7c0-0.2,0-0.4,0-0.5c1.8,0,3.5,0,5.2,0c0.3,0,0.5,0.1,0.8,0.1c2,0.4,3.1,1.8,3.8,3.6c0.7,1.7,1.2,3.4,1.4,5.2
		c0.2,1.2,0.3,2.4,0.4,3.7c0,0.2,0,0.4,0,0.6c0,0.2-0.1,0.4-0.1,0.5c-0.1,2.7-0.9,5.2-2,7.6c-1.1,2.3-2.9,3.4-5.4,3.4
		c-5.7-0.1-11.4,0-17,0c-0.2,0-0.4,0-0.6,0c0,0.5,0,1,0,1.5c4,0,8,0,12,0c0,1.7,0,3.3,0,4.9c0,0.2,0,0.4-0.1,0.6
		c-0.3,1.8-1.3,2.9-2.8,3.8c-1.5,1-3.2,1.4-4.9,1.8C60.6,78.7,59.6,78.8,58.4,78.9z M62,72.6c0,1.2,1.1,2.3,2.3,2.3
		c1.2,0,2.2-1.1,2.2-2.3s-1-2.3-2.3-2.3C63,70.4,62,71.4,62,72.6z"/>
	<path class="st0" d="M32.3,54.7c0-0.9,0-1.8,0-2.6c0-0.1,0.1-0.3,0.1-0.4c0.2-1.2,0.4-2.6,0.6-3.8c0.4-1.7,1-3.2,2.1-4.5
		c1.5-1.6,3.5-2.3,5.7-2.3c5.4,0,10.6,0,16,0c0.2,0,0.4,0,0.5,0c0-0.5,0-1,0-1.5c-0.3,0-0.4,0-0.6,0c-3.7,0-7.3,0-11,0
		c-0.3,0-0.5,0.1-0.5-0.4c0-1.9,0-3.7,0.1-5.5c0.1-1.5,0.6-2.8,2-3.7c1.1-0.7,2.2-1,3.4-1.2c3.3-0.7,6.7-0.8,10.1-0.4
		c1.3,0.1,2.8,0.3,4,0.7c3.1,1,4.7,3.3,4.7,6.6c0,3.6-0.1,7.2,0,10.8c0.1,3.5-2.8,6.4-6.3,6.3c-3.9-0.1-7.9,0-11.8,0
		c-3.9,0-7.3,3.1-7.6,7.1c-0.1,1.8,0,3.6-0.1,5.4c0,0.2,0,0.4,0,0.6c-1.3,0-2.7,0-4,0c-0.4,0-1,0-1.4-0.1c-2.1-0.4-3.6-1.7-4.4-3.7
		c-0.5-1.2-0.9-2.7-1.2-4.1C32.5,56.8,32.4,55.7,32.3,54.7z M48.3,34c0,1.2,1,2.3,2.2,2.3s2.2-1.1,2.2-2.3s-1-2.3-2.3-2.3
		C49.4,31.7,48.3,32.8,48.3,34z"/>
</g>
</svg>
