<?xml version="1.0" encoding="utf-8"?>
<!-- Generator: Adobe Illustrator 21.0.0, SVG Export Plug-In . SVG Version: 6.00 Build 0)  -->
<svg version="1.1" id="Capa_1" xmlns="http://www.w3.org/2000/svg" xmlns:xlink="http://www.w3.org/1999/xlink" x="0px" y="0px"
	 viewBox="0 0 115 107" style="enable-background:new 0 0 115 107;" xml:space="preserve">
<style type="text/css">
	.st0{fill:#666666;}
</style>
<title>tech-icon1</title>
<g>
	<path class="st0" d="M79.2,42.1c0-3.8,0-7.6,0-11.4c0-0.8-0.3-1.3-1-1.8c-1.3-0.7-2.6-1.4-3.9-2.1c-1.1-0.6-1.3-0.5-1.3,0.7
		c0,3.6,0,7.3,0,10.9c0,1.7,0,1.7-1.5,0.8c-0.7-0.4-1.4-1.1-2.4-0.4c-2.4,1.5-4.9,3-7.5,4.4c-0.7,0.4-0.9,0.8-0.9,1.6
		c0,2.9,0,5.7,0,8.6c0,0.7,0.3,1.2,0.9,1.6c2.5,1.4,4.9,2.9,7.4,4.3c0.7,0.4,1.3,0.4,2,0c2.3-1.4,4.8-2.8,7.3-4.1
		c0.8-0.4,1.1-1,1.1-2C79.1,49.4,79.2,45.8,79.2,42.1z M72.9,49.5c0,0.5,0.3,1.2-0.4,1.6c-0.9,0.5-1.9,1.4-2.8,1.4
		c-1,0-2-0.9-2.9-1.5c-0.6-0.4-0.1-1.3-0.3-1.9c0.2-0.6-0.4-1.4,0.4-1.9c0.8-0.6,1.9-1.5,2.9-1.5c0.9,0.1,2,0.8,2.8,1.4
		C73.4,47.8,72.9,48.8,72.9,49.5z"/>
	<path class="st0" d="M35.9,49c0-1.4,0-2.9,0-4.3c0-0.7,0.3-1.3,0.9-1.7c2.5-1.4,4.9-2.9,7.4-4.3c0.7-0.4,1.2-0.4,1.9,0
		c2.4,1.4,4.9,2.9,7.4,4.3c0.7,0.4,1,0.8,1,1.7c0,2.8,0,5.7,0,8.4c0,0.7-0.3,1.3-0.9,1.7c-2.5,1.4-4.9,2.9-7.4,4.3
		c-0.7,0.4-1.3,0.4-2-0.1c-2.3-1.4-4.8-2.8-7.3-4.1c-0.8-0.4-1.2-1-1.1-2C36,51.6,35.9,50.3,35.9,49z"/>
	<path class="st0" d="M29.6,50.4c0,2.1,0,4,0,6c0,0.9-0.4,1.2-1.2,0.7c-1.3-0.8-2.8-1.6-4.1-2.3c-0.6-0.4-0.8-0.8-0.8-1.5
		c0-1.7,0-3.4,0-5c0-1.7-2.5-3.1-4-2.3c-1.7,0.7-2.4,1.8-2.2,3.7c0.2,1.3,0,2.5,0,3.8c0,0.7-0.3,1.1-0.7,1.3
		c-1.4,0.7-2.9,1.6-4.2,2.4c-0.8,0.5-1.1,0.2-1.1-0.7c0-4,0-8,0-12c0-0.7,0.3-1.1,0.8-1.3c2.5-1.4,5.1-3,7.6-4.4
		c0.6-0.4,1.1-0.4,1.7,0c2.4,1.4,4.9,2.9,7.4,4.3c0.7,0.4,1,0.8,1,1.7C29.6,46.5,29.6,48.4,29.6,50.4L29.6,50.4z"/>
	<path class="st0" d="M85.4,49c0-1.4,0-2.9,0-4.3c0-0.7,0.3-1.3,0.8-1.6c2.5-1.4,5-2.9,7.6-4.4c0.6-0.4,1.1-0.4,1.7,0
		c2.5,1.5,5,2.9,7.5,4.4c1.3,0.7,1.3,3.6,0,4.5c-1.4,0.8-2.9,1.7-4.2,2.4c-0.7,0.5-1.2,0.3-1.1-0.7v-0.1c-0.1-0.7,0.4-1.6-0.3-2.1
		c-0.7-0.7-1.7-1.1-2.6-1.6c-0.6-0.3-1,0.4-1.5,0.6c-1.7,0.9-2.2,2.4-1.8,4.3c0.2,0.5,0.5,0.6,0.8,0.7c2.3,1.3,4.8,2.7,7.2,4.1
		c1,0.6,1,0.8,0,1.5c0,0-0.1,0-0.1,0.1c-1.6,0.8-3.1,2.3-4.8,2.3c-1.7,0.1-3.1-1.5-4.8-2.3c-1.3-0.7-2.4-1.4-3.7-2.1
		c-0.6-0.4-0.8-0.7-0.8-1.3C85.4,52,85.4,50.5,85.4,49z"/>
	<path class="st0" d="M50.9,82.8c1-0.8,1.8-0.7,2.5-0.1c0.7,0.7,1.4,0.5,2.2,0c2-1.2,3.9-2.3,6-3.5c0.7-0.4,1-0.7,1-1.6
		c-0.1-2.4-0.1-4.8,0-7.3c0-0.7-0.2-1.1-0.7-1.5c-2.2-1.2-4.4-2.4-6.5-3.7c-0.6-0.4-1-0.4-1.5,0c-2.1,1.3-4.2,2.5-6.4,3.7
		c-0.7,0.4-0.9,0.8-0.8,1.5c0.1,2.4,0,4.8,0,7.3c0,1.1,2.2,2.8,3.3,2.5c0.7-0.2,0.7-0.7,0.7-1.3c0-2.5,0-4.9,0-7.5
		c0-0.5-0.3-1.2,0.7-1.2c1,0,0.7,0.7,0.7,1.3c0,2.6,0,5.1,0,7.7c0,2.1-1.4,3.1-3.4,2.3c-1-0.4-1.9-0.9-2.8-1.5
		c-0.6-0.4-0.7-0.9-0.7-1.6c0-2.9,0-5.7,0-8.6c0-0.8,0.4-1.3,1.1-1.8c2.4-1.4,4.8-2.8,7.4-4.2c0.7-0.4,1.3-0.4,2.1,0
		c2.4,1.4,4.8,2.9,7.4,4.2c0.7,0.4,1.1,1,1.1,2c0,2.8,0,5.6,0,8.3c0,0.9-0.4,1.5-1.2,2c-2.3,1.3-4.8,2.7-7,4c-0.8,0.5-1.7,0.5-2.5,0
		C52.5,83.7,51.7,83.2,50.9,82.8z"/>
	<path class="st0" d="M57.2,78.5c-2.6,0-4-0.7-4.4-2.2c-0.1-0.3-0.3-0.6,0.1-0.7c0.3-0.3,0.6-0.1,0.9-0.1c0.4,0,0.4,0.4,0.4,0.5
		c0.7,1.2,3.5,1.7,4.6,0.7c0.7-0.6,0.5-1.3-0.4-1.6c-0.8-0.3-1.7-0.4-2.5-0.4c-0.4-0.1-0.9-0.2-1.3-0.3c-0.9-0.3-1.5-0.8-1.6-1.8
		c-0.1-1,0.4-1.8,1.2-2.2c1.6-0.7,3.3-0.7,4.8,0c0.6,0.3,1,0.7,1.2,1.4c0.1,0.4,0.4,0.7-0.2,0.9c-0.3,0.2-0.7,0.2-1.1-0.3
		c-0.9-1.3-2.2-1.6-3.6-1.1c-0.5,0.2-0.7,0.4-0.7,0.9c0,0.5,0.4,0.7,0.8,0.7c1.1,0.3,2.2,0.4,3.3,0.6c1.1,0.3,2.1,0.7,2.1,2.1
		c0.1,1.2-0.7,2.2-2,2.5C58.2,78.4,57.5,78.5,57.2,78.5z"/>
	<path class="st0" d="M96.5,49c0,0.8-0.9,2-1.8,2c-0.8,0-1.9-1-1.9-2.1c0-0.9,0.9-2,1.8-2C95.5,46.9,96.5,48,96.5,49z"/>
</g>
</svg>
