<?xml version="1.0" encoding="utf-8"?>
<!-- Generator: Adobe Illustrator 21.0.0, SVG Export Plug-In . SVG Version: 6.00 Build 0)  -->
<svg version="1.1" id="Layer_1" xmlns="http://www.w3.org/2000/svg" xmlns:xlink="http://www.w3.org/1999/xlink" x="0px" y="0px"
	 viewBox="0 0 150 150" style="enable-background:new 0 0 150 150;" xml:space="preserve">
<style type="text/css">
	.st0{fill:#666666;}
</style>
<title>Asset 4</title>
<g id="Layer_2">
	<g id="Layer_1-2">
		<path class="st0" d="M128.5,95.6c-0.4,0.9-1.2,1.1-2.2,1.1c-3.6,0-7.2,0-10.8,0h-0.7c-0.5-3.5-2.5-6.6-5.5-8.6
			c-2.3-1.6-5.1-2.3-7.9-2C95.6,86.6,91,91,90.1,96.7h-0.7c-7.7,0-15.4,0-23.1,0c-0.6,0-0.8-0.1-1-0.8c-0.5-2.6-1.8-4.9-3.8-6.6
			c0,0,0-0.1-0.1-0.2h23.2v-43c0-1.6,0.9-2.9,2.2-3.2c0.5-0.1,1.1-0.1,1.6-0.1c4.7,0,9.3-0.1,13.9,0c4.2,0.1,7.4,2.1,9.7,5.5
			c2.7,4.1,5.4,8.1,8.2,12.2c1.2,1.5,2,3.2,2.5,5c0.2,1,0.3,1.9,0.3,2.9c0,6.5,0,13.1,0,19.6v0.9h1.6c0.5,0,1.1,0,1.6,0
			c0.8-0.2,1.7,0.3,2,1.1L128.5,95.6z M102.5,64.5h9.3c0.6,0.1,1.2-0.3,1.5-0.9c0.3-0.5,0.2-1.2-0.2-1.6c-2.4-3.4-4.8-6.7-7.1-10.1
			c-0.4-0.6-1-0.9-1.7-0.9c-3.6,0-7.3,0-10.9,0c-1.3,0-1.8,0.6-1.8,1.9c0,3.3,0,6.5,0,9.7c0,1.4,0.5,1.9,1.9,1.9L102.5,64.5z"/>
		<path class="st0" d="M21.5,68.8c0.4-0.9,0.7-1.8,1.8-2.2c0.4-0.2,0.9-0.3,1.4-0.3c11.4,0,22.9,0,34.3,0c6.1,0,12.2,0,18.3,0
			c1.7-0.1,3.2,1.3,3.3,3c0,0.1,0,0.2,0,0.3c-0.1,4.4-0.1,8.8,0,13.2c0.1,1.7-1.2,3.1-2.9,3.2c-0.1,0-0.2,0-0.3,0H24.7
			c-1.5,0.1-2.8-0.9-3.1-2.3c0-0.1-0.1-0.1-0.1-0.1V68.8z"/>
		<path class="st0" d="M21.5,44.6c0.3-0.6,0.7-1.1,1.1-1.7c0.8-0.9,1.9-0.8,3-0.8c3.2,0,6.4,0,9.6,0c2.7,0,5.4,0,8.2,0
			c1,0,1.9,0,2.9,0.1c1.4,0.1,2.5,1.3,2.5,2.7c0,3.5,0,7,0,10.5c0,1.1,0,2.2,0,3.4c0,1.6-1.3,2.9-2.9,2.9c-0.1,0-0.1,0-0.2,0
			c-6.9,0-13.9,0-20.8,0c-1.5,0.1-2.9-0.8-3.2-2.3c0,0-0.1-0.1-0.1-0.1V44.6z"/>
		<path class="st0" d="M66.9,42.1c3.1,0,6.2,0,9.3,0c0.6,0,1.2,0,1.8,0.1c1.5,0.2,2.5,1.4,2.5,2.9c0,2.2,0,4.4,0,6.7s0,4.6,0,6.8
			c0.1,1.7-1.2,3.1-2.8,3.2c-0.1,0-0.3,0-0.4,0c-7,0-13.9,0-20.9,0c-1.7,0.1-3.1-1.2-3.1-2.8c0-0.1,0-0.2,0-0.3V45.3
			c-0.1-1.6,1.2-3,2.8-3c0.1,0,0.1,0,0.2,0c2.5,0,5,0,7.5,0L66.9,42.1L66.9,42.1z"/>
		<path class="st0" d="M53.2,89.1c5.2,0.2,9.3,4.5,9.1,9.7c-0.2,5-4.2,9-9.1,9.1c-5.2,0.1-9.5-4-9.6-9.1c-0.1-5.2,4-9.5,9.1-9.6
			C52.9,89.1,53.1,89.1,53.2,89.1z M53.2,93.8c-2.6,0-4.7,2-4.8,4.6c0,0,0,0.1,0,0.1c0.1,2.6,2.2,4.7,4.8,4.7c2.6,0,4.7-2.2,4.7-4.8
			C57.9,95.8,55.8,93.7,53.2,93.8C53.2,93.8,53.2,93.8,53.2,93.8L53.2,93.8z"/>
		<path class="st0" d="M93.1,98.5c0-5.2,4.2-9.4,9.4-9.4c5.2,0,9.4,4.2,9.4,9.4c0,5.1-4,9.2-9.1,9.4c-5.2,0.1-9.5-3.9-9.6-9.1
			C93.1,98.7,93.1,98.6,93.1,98.5z M102.4,93.8c-2.6,0-4.7,2.1-4.7,4.7c0.1,2.6,2.3,4.7,4.9,4.6c2.5-0.1,4.5-2.1,4.6-4.5
			C107.2,95.9,105,93.8,102.4,93.8z"/>
		<path class="st0" d="M44.9,89.1c-0.6,0.7-1.3,1.5-1.9,2.2c-1,1.4-1.7,3-2,4.7c-0.1,0.5-0.3,0.6-0.7,0.6H24.4
			c-1.4,0-1.9-0.5-1.9-1.9s0-2.8,0-4.2c0-0.8,0.6-1.5,1.4-1.6c0,0,0.1,0,0.1,0h20.5L44.9,89.1z"/>
	</g>
</g>
</svg>
