<?xml version="1.0" encoding="utf-8"?>
<!-- Generator: Adobe Illustrator 24.3.0, SVG Export Plug-In . SVG Version: 6.00 Build 0)  -->
<svg version="1.1" id="Layer_1" xmlns="http://www.w3.org/2000/svg" xmlns:xlink="http://www.w3.org/1999/xlink" x="0px" y="0px"
	 viewBox="0 0 260 80" style="enable-background:new 0 0 260 80;" xml:space="preserve">
<style type="text/css">
	.st0{fill:#0093ED;}
	.st1{fill-rule:evenodd;clip-rule:evenodd;fill:#FFFFFF;}
	.st2{fill:#FFFFFF;}
</style>
<rect y="0" class="st0" width="260" height="80"/>
<g>
	<path class="st1" d="M35.4,31.8c-0.1-0.6-0.3-1.1-0.5-1.5c-0.2,0.1-0.5,0.5-0.8,0.3l-0.4-0.2l-0.4-0.2c-0.3-0.1-0.2-0.6-0.2-0.8
		c-0.4,0.1-0.9,0.3-1.5,0.6c0-0.8,0.2-1.6,0.4-1.8c0.4-0.5,0.8-0.7,1.3-0.8c0.5-1.7,1.7-3.5,3.7-3.8c1,1.8,0.4,3.8-0.6,5.3
		c0.2,0.4,0.3,0.9,0.1,1.5C36.5,30.7,36,31.3,35.4,31.8L35.4,31.8z M36.1,25.6c0.4,0.2,0.5,0.6,0.4,1c-0.2,0.4-0.6,0.5-1,0.4
		c-0.4-0.2-0.5-0.6-0.4-1C35.3,25.6,35.7,25.4,36.1,25.6L36.1,25.6z"/>
	<g id="okVTnw_1_">
		<g>
			<path class="st2" d="M7,27l10.2,21.2c1.2-0.1,3.1-0.8,4.1-3l-10-20.4c-0.4-0.8-1.2-1.2-2.1-1.3c0,0,0,0-0.1,0
				C7.3,23.5,6.1,25.4,7,27z"/>
			<path class="st2" d="M29.4,44.9c-2.7,3.3-5.5,7.2-10,7.7c0.5,0.9,0.9,1.8,1.4,2.7c0.7,1.4,2.7,1.4,3.4,0
				C26,51.8,27.6,48.4,29.4,44.9z"/>
		</g>
		<path class="st2" d="M34.6,34.6c-2,3.6-5,8.1-7.2,10.7c-2.3,2.7-4.7,5.7-8.2,6.1c-1.7,0.2-3-0.1-4.4-1c-1.8-1.3-3.1-3.3-3.1-6
			c0.1-1.1,0.1-1.8,0.6-3c-0.3,1.4-0.3,2.6-0.1,3.6c0.7,3.3,3,4.8,5.6,4.6c0.3,0,0.5-0.1,0.8-0.1c1.7-0.5,2.8-1.6,3.5-2.6
			c0.4-0.5,0.6-1,0.8-1.3c1.2-1.9,2.1-3.8,2.5-4.4c2.1-4.1,2.2-4.3,3.6-6.9c0.4-0.8,0.7-1.6,1.2-2.3c0,0,0,0,0.1-0.1
			C32.2,29.2,36.2,31.8,34.6,34.6z"/>
	</g>
	<g>
		<path class="st2" d="M165.1,45h-4.1c-0.8,0-1.4-0.6-1.4-1.4v-1.2c0-0.8,0.6-1.4,1.4-1.4h4.1c0.8,0,1.4,0.6,1.4,1.4v1.2
			C166.5,44.4,165.9,45,165.1,45z"/>
		<g>
			<circle class="st2" cx="160.4" cy="32.8" r="2.6"/>
			<path class="st2" d="M158.3,54.6V37.7c0-0.8,0.7-1.5,1.5-1.5h1.2c0.8,0,1.5,0.7,1.5,1.5v16.9c0,0.8-0.7,1.5-1.5,1.5h-1.2
				C158.9,56.1,158.3,55.4,158.3,54.6z"/>
		</g>
	</g>
	<g>
		<path class="st2" d="M169.6,45h4.1c0.8,0,1.4-0.6,1.4-1.4v-1.2c0-0.8-0.6-1.4-1.4-1.4h-4.1c-0.8,0-1.4,0.6-1.4,1.4v1.2
			C168.2,44.4,168.8,45,169.6,45z"/>
		<g>
			<circle class="st2" cx="174.3" cy="32.8" r="2.6"/>
			<path class="st2" d="M176.4,54.6V37.7c0-0.8-0.7-1.5-1.5-1.5h-1.2c-0.8,0-1.5,0.7-1.5,1.5v16.9c0,0.8,0.7,1.5,1.5,1.5h1.2
				C175.8,56.1,176.4,55.4,176.4,54.6z"/>
		</g>
	</g>
	<g>
		<path class="st2" d="M49.4,53.1l-1.2-3.2H37.8l-1.2,3.3c-0.5,1.3-0.9,2.2-1.2,2.6c-0.3,0.4-0.9,0.7-1.7,0.7
			c-0.7,0-1.2-0.2-1.7-0.7c-0.5-0.5-0.8-1-0.8-1.6c0-0.4,0.1-0.7,0.2-1.1c0.1-0.4,0.3-0.9,0.6-1.6l6.6-16.7c0.2-0.5,0.4-1.1,0.7-1.7
			c0.3-0.7,0.5-1.2,0.8-1.7c0.3-0.4,0.7-0.8,1.2-1.1c0.5-0.3,1.1-0.4,1.8-0.4c0.7,0,1.3,0.1,1.8,0.4c0.5,0.3,0.9,0.6,1.2,1.1
			c0.3,0.4,0.5,0.9,0.8,1.4c0.2,0.5,0.5,1.2,0.8,2l6.7,16.6c0.5,1.3,0.8,2.2,0.8,2.8c0,0.6-0.2,1.1-0.7,1.6
			c-0.5,0.5-1.1,0.7-1.8,0.7c-0.4,0-0.8-0.1-1.1-0.2c-0.3-0.1-0.5-0.3-0.7-0.6c-0.2-0.3-0.4-0.6-0.6-1.2
			C49.8,54,49.6,53.5,49.4,53.1z M39.1,46h7.7l-3.9-10.6L39.1,46z"/>
		<path class="st2" d="M76.9,48.3c0,1.6-0.4,3-1.2,4.2c-0.8,1.2-2,2.2-3.5,2.9s-3.4,1.1-5.5,1.1c-2.5,0-4.6-0.5-6.3-1.4
			c-1.2-0.7-2.1-1.6-2.8-2.8c-0.7-1.2-1.1-2.3-1.1-3.4c0-0.6,0.2-1.2,0.7-1.6c0.4-0.4,1-0.7,1.7-0.7c0.5,0,1,0.2,1.4,0.5
			c0.4,0.4,0.7,0.9,1,1.6c0.3,0.8,0.7,1.5,1.1,2.1c0.4,0.5,0.9,1,1.6,1.4c0.7,0.4,1.6,0.5,2.7,0.5c1.5,0,2.8-0.4,3.8-1.1
			c1-0.7,1.4-1.6,1.4-2.7c0-0.9-0.3-1.5-0.8-2.1c-0.5-0.5-1.2-0.9-2-1.2c-0.8-0.3-1.9-0.6-3.3-0.9c-1.8-0.4-3.4-0.9-4.6-1.5
			c-1.2-0.6-2.2-1.4-3-2.4c-0.7-1-1.1-2.2-1.1-3.7c0-1.4,0.4-2.7,1.2-3.8c0.8-1.1,1.9-1.9,3.3-2.5c1.5-0.6,3.2-0.9,5.2-0.9
			c1.6,0,2.9,0.2,4.1,0.6c1.2,0.4,2.1,0.9,2.9,1.6c0.8,0.6,1.3,1.3,1.7,2c0.4,0.7,0.5,1.4,0.5,2.1c0,0.6-0.2,1.2-0.7,1.7
			c-0.4,0.5-1,0.7-1.6,0.7c-0.6,0-1-0.1-1.4-0.4c-0.3-0.3-0.6-0.8-1-1.5c-0.5-1-1-1.7-1.7-2.3c-0.7-0.5-1.7-0.8-3.2-0.8
			c-1.3,0-2.4,0.3-3.3,0.9c-0.8,0.6-1.2,1.3-1.2,2.1c0,0.5,0.1,1,0.4,1.3c0.3,0.4,0.7,0.7,1.2,1c0.5,0.3,1,0.5,1.5,0.6
			c0.5,0.2,1.3,0.4,2.5,0.7c1.4,0.3,2.8,0.7,3.9,1.1c1.2,0.4,2.2,0.9,3,1.5c0.8,0.6,1.5,1.3,1.9,2.2C76.7,45.9,76.9,47,76.9,48.3z"
			/>
		<path class="st2" d="M79.9,45.4V33c0-1.1,0.2-1.8,0.7-2.4c0.5-0.5,1.1-0.8,1.9-0.8c0.8,0,1.4,0.3,1.9,0.8c0.5,0.5,0.7,1.3,0.7,2.4
			v12.6c0,1.4,0.2,2.6,0.5,3.6c0.3,1,0.9,1.7,1.7,2.2c0.8,0.5,2,0.8,3.4,0.8c2,0,3.5-0.5,4.3-1.6c0.8-1.1,1.3-2.7,1.3-4.9V33
			c0-1.1,0.2-1.9,0.7-2.4c0.5-0.5,1.1-0.8,1.9-0.8s1.4,0.3,1.9,0.8c0.5,0.5,0.7,1.3,0.7,2.4v12.4c0,2-0.2,3.7-0.6,5
			c-0.4,1.3-1.1,2.5-2.2,3.5c-0.9,0.9-2,1.5-3.3,1.9c-1.2,0.4-2.7,0.6-4.3,0.6c-2,0-3.7-0.2-5.1-0.6c-1.4-0.4-2.6-1.1-3.5-2
			c-0.9-0.9-1.6-2-2-3.4C80.1,49,79.9,47.3,79.9,45.4z"/>
		<path class="st2" d="M112.5,33l10,15.1V32.9c0-1,0.2-1.7,0.6-2.2c0.4-0.5,1-0.7,1.7-0.7c0.7,0,1.3,0.2,1.8,0.7
			c0.4,0.5,0.6,1.2,0.6,2.2v20.2c0,2.3-0.9,3.4-2.8,3.4c-0.5,0-0.9-0.1-1.3-0.2c-0.4-0.1-0.7-0.3-1.1-0.6c-0.3-0.3-0.6-0.6-0.9-1
			c-0.3-0.4-0.6-0.8-0.8-1.2l-9.8-15v15.1c0,1-0.2,1.7-0.7,2.2c-0.5,0.5-1,0.8-1.8,0.8c-0.7,0-1.3-0.3-1.8-0.8
			c-0.4-0.5-0.7-1.2-0.7-2.2V33.7c0-0.8,0.1-1.5,0.3-2c0.2-0.5,0.6-1,1.1-1.3c0.5-0.3,1.1-0.5,1.7-0.5c0.5,0,0.9,0.1,1.2,0.2
			c0.3,0.2,0.6,0.4,0.9,0.6c0.3,0.3,0.5,0.6,0.8,1C112,32.1,112.2,32.6,112.5,33z"/>
		<path class="st2" d="M134.8,30.3h6.8c1.8,0,3.3,0.2,4.5,0.5c1.3,0.3,2.4,0.9,3.4,1.8c2.7,2.3,4,5.8,4,10.4c0,1.5-0.1,3-0.4,4.2
			c-0.3,1.3-0.7,2.4-1.2,3.4c-0.6,1-1.3,1.9-2.2,2.7c-0.7,0.6-1.4,1.1-2.3,1.5c-0.8,0.4-1.7,0.6-2.6,0.8c-0.9,0.2-2,0.2-3.2,0.2
			h-6.8c-0.9,0-1.7-0.1-2.1-0.4c-0.5-0.3-0.8-0.7-0.9-1.2c-0.1-0.5-0.2-1.2-0.2-2V33.5c0-1.1,0.3-1.9,0.8-2.4
			C132.9,30.6,133.7,30.3,134.8,30.3z M136.8,34.5v17.4h3.9c0.9,0,1.5,0,2-0.1c0.5,0,1-0.2,1.5-0.4c0.5-0.2,1-0.4,1.4-0.8
			c1.7-1.5,2.6-4,2.6-7.6c0-2.5-0.4-4.4-1.1-5.7c-0.8-1.3-1.7-2.1-2.8-2.4c-1.1-0.3-2.5-0.5-4.1-0.5H136.8z"/>
		<path class="st2" d="M199,53.1l-1.2-3.2h-10.4l-1.2,3.3c-0.5,1.3-0.9,2.2-1.2,2.6c-0.3,0.4-0.9,0.7-1.7,0.7
			c-0.7,0-1.2-0.2-1.7-0.7c-0.5-0.5-0.8-1-0.8-1.6c0-0.4,0.1-0.7,0.2-1.1c0.1-0.4,0.3-0.9,0.6-1.6l6.6-16.7c0.2-0.5,0.4-1.1,0.7-1.7
			c0.3-0.7,0.5-1.2,0.8-1.7c0.3-0.4,0.7-0.8,1.2-1.1c0.5-0.3,1.1-0.4,1.8-0.4c0.7,0,1.3,0.1,1.8,0.4c0.5,0.3,0.9,0.6,1.2,1.1
			c0.3,0.4,0.5,0.9,0.8,1.4c0.2,0.5,0.5,1.2,0.8,2l6.7,16.6c0.5,1.3,0.8,2.2,0.8,2.8c0,0.6-0.2,1.1-0.7,1.6
			c-0.5,0.5-1.1,0.7-1.8,0.7c-0.4,0-0.8-0.1-1.1-0.2c-0.3-0.1-0.5-0.3-0.7-0.6c-0.2-0.3-0.4-0.6-0.6-1.2
			C199.3,54,199.1,53.5,199,53.1z M188.7,46h7.7l-3.9-10.6L188.7,46z"/>
		<path class="st2" d="M213.9,45h-1.8v8.3c0,1.1-0.2,1.9-0.7,2.4c-0.5,0.5-1.1,0.8-1.9,0.8c-0.8,0-1.5-0.3-1.9-0.8
			c-0.5-0.5-0.7-1.3-0.7-2.4V33.5c0-1.1,0.3-1.9,0.8-2.4c0.5-0.5,1.3-0.8,2.4-0.8h8.5c1.2,0,2.2,0,3,0.1c0.8,0.1,1.6,0.3,2.2,0.6
			c0.8,0.3,1.5,0.8,2.1,1.5c0.6,0.6,1.1,1.4,1.4,2.2c0.3,0.8,0.5,1.7,0.5,2.7c0,1.9-0.5,3.4-1.6,4.6c-1.1,1.1-2.7,2-4.9,2.4
			c0.9,0.5,1.8,1.2,2.6,2.2c0.8,1,1.6,2,2.3,3.1c0.7,1.1,1.2,2.1,1.5,2.9c0.4,0.9,0.6,1.5,0.6,1.8c0,0.3-0.1,0.7-0.3,1
			c-0.2,0.3-0.5,0.6-0.9,0.8c-0.4,0.2-0.8,0.3-1.3,0.3c-0.6,0-1.1-0.1-1.5-0.4c-0.4-0.3-0.7-0.6-1-1c-0.3-0.4-0.7-1-1.2-1.9
			l-2.1-3.5c-0.7-1.3-1.4-2.2-2-2.9c-0.6-0.7-1.2-1.1-1.8-1.4C215.6,45.2,214.8,45,213.9,45z M216.9,34.2h-4.8v7.1h4.7
			c1.3,0,2.3-0.1,3.2-0.3c0.9-0.2,1.5-0.6,2-1.1c0.4-0.5,0.7-1.2,0.7-2.1c0-0.7-0.2-1.3-0.5-1.9c-0.4-0.5-0.9-0.9-1.5-1.2
			C219.9,34.4,218.7,34.2,216.9,34.2z"/>
		<path class="st2" d="M247.7,53.1l-1.2-3.2h-10.4l-1.2,3.3c-0.5,1.3-0.9,2.2-1.2,2.6c-0.3,0.4-0.9,0.7-1.7,0.7
			c-0.7,0-1.2-0.2-1.7-0.7c-0.5-0.5-0.8-1-0.8-1.6c0-0.4,0.1-0.7,0.2-1.1c0.1-0.4,0.3-0.9,0.6-1.6l6.6-16.7c0.2-0.5,0.4-1.1,0.7-1.7
			c0.3-0.7,0.5-1.2,0.8-1.7c0.3-0.4,0.7-0.8,1.2-1.1c0.5-0.3,1.1-0.4,1.8-0.4c0.7,0,1.3,0.1,1.8,0.4c0.5,0.3,0.9,0.6,1.2,1.1
			c0.3,0.4,0.5,0.9,0.8,1.4c0.2,0.5,0.5,1.2,0.8,2l6.7,16.6c0.5,1.3,0.8,2.2,0.8,2.8c0,0.6-0.2,1.1-0.7,1.6
			c-0.5,0.5-1.1,0.7-1.8,0.7c-0.4,0-0.8-0.1-1.1-0.2c-0.3-0.1-0.5-0.3-0.7-0.6c-0.2-0.3-0.4-0.6-0.6-1.2
			C248.1,54,247.9,53.5,247.7,53.1z M237.4,46h7.7l-3.9-10.6L237.4,46z"/>
	</g>
</g>
</svg>
