<?xml version="1.0" encoding="utf-8"?>
<!-- Generator: Adobe Illustrator 21.0.0, SVG Export Plug-In . SVG Version: 6.00 Build 0)  -->
<svg version="1.1" id="Layer_1" xmlns="http://www.w3.org/2000/svg" xmlns:xlink="http://www.w3.org/1999/xlink" x="0px" y="0px"
	 viewBox="0 0 110 90" style="enable-background:new 0 0 110 90;" xml:space="preserve">
<style type="text/css">
	.st0{fill:#161616;stroke:#161616;stroke-width:0.4;stroke-miterlimit:10;}
</style>
<g id="Layer_2">
	<g id="Layer_1-2">
		<g id="_1">
			<path class="st0" d="M42.5,68.7c-2.7,0-5,2.2-5,5s2.2,5,5,5c2.7,0,5-2.2,5-5C47.5,71,45.3,68.7,42.5,68.7z M42.5,76.3
				c-1.4,0-2.5-1.1-2.5-2.5s1.1-2.5,2.5-2.5s2.5,1.1,2.5,2.5l0,0C45,75.2,43.9,76.3,42.5,76.3z"/>
			<path class="st0" d="M38.8,13.7h5c0.7,0,1.2-0.6,1.2-1.2s-0.6-1.2-1.2-1.2h-5c-0.7,0-1.2,0.6-1.2,1.2S38,13.7,38.8,13.7z"/>
			<path class="st0" d="M47.5,13.7h1.2c0.7,0,1.2-0.6,1.2-1.2s-0.6-1.2-1.2-1.2h-1.2c-0.7,0-1.2,0.6-1.2,1.2S46.8,13.7,47.5,13.7z"
				/>
			<path class="st0" d="M87.5,22.5H65V13c0-3.1-2.5-5.5-5.5-5.5H28c-3,0-5.5,2.5-5.5,5.5v64c0,3.1,2.5,5.5,5.5,5.5h31.5
				c3.1,0,5.5-2.5,5.5-5.5V48.8h22.5V22.5z M28,10h31.5c1.7,0,3,1.4,3,3l0,0v2H25v-2C25,11.3,26.3,10,28,10z M59.5,80H28
				c-1.6,0-3-1.4-3-3v-9.5h37.5V77C62.5,78.7,61.2,80,59.5,80z M62.5,65H25V17.5h37.5v5H40v26.3h5v8.8l11.6-8.8h5.8V65H62.5z
				 M85,46.2H55.8l-8.3,6.2v-6.2h-5V25H85V46.2z"/>
			<path class="st0" d="M48.8,33.8h12.5c0.7,0,1.2-0.6,1.2-1.2c0-0.7-0.6-1.2-1.2-1.2H48.8c-0.7,0-1.2,0.6-1.2,1.2
				C47.5,33.2,48,33.8,48.8,33.8z"/>
			<path class="st0" d="M47.5,38.8c0,0.7,0.6,1.2,1.2,1.2l0,0h30c0.7,0,1.2-0.6,1.2-1.2s-0.6-1.2-1.2-1.2h-30
				C48,37.5,47.5,38,47.5,38.8L47.5,38.8z"/>
		</g>
	</g>
</g>
</svg>
