<?xml version="1.0" encoding="utf-8"?>
<!-- Generator: Adobe Illustrator 23.0.3, SVG Export Plug-In . SVG Version: 6.00 Build 0)  -->
<svg version="1.1" id="Layer_1" xmlns="http://www.w3.org/2000/svg" xmlns:xlink="http://www.w3.org/1999/xlink" x="0px" y="0px"
	 viewBox="0 0 100 100" style="enable-background:new 0 0 100 100;" xml:space="preserve">
<title>picnic_plan</title>
<g>
	<g id="Layer_1-2">
		<g id="picnic_plan">
			<path d="M87.6,26.3C74.5,5.5,47-0.7,26.3,12.4c-5.7,3.6-10.5,8.5-14.1,14.2c-0.6,0.9-0.5,2.2,0.2,3c0.7,0.8,1.9,1.1,2.9,0.6
				c5.1-2.3,8.8-2,13.4,0.8l0,0c0.6,0.4,1.3,0.6,2,0.7l0,0h0.3l0,0c0.6,0.1,1.3,0,1.9-0.2H33c5.1-1.6,10.3-2.6,15.6-2.9v19.9H21.4
				c-2.1,0-3.9,1.7-3.9,3.9v5.2c0,2.2,1.7,3.9,3.9,3.9h30.8v30.1h-4.3V65.6c0-0.7-0.6-1.3-1.3-1.3c-0.7,0-1.3,0.6-1.3,1.3v26.2h-5.7
				c-0.7,0.1-1.3,0.7-1.2,1.4c0.1,0.6,0.6,1.1,1.2,1.2h20.8c0.7-0.1,1.3-0.7,1.2-1.4c-0.1-0.6-0.6-1.1-1.2-1.2h-5.6V61.7h23.9
				c2.2,0,3.9-1.7,3.9-3.9c0,0,0,0,0,0v-5.2c0-2.2-1.7-3.9-3.9-3.9H51.3V28.8C56.7,29,62,30,67.1,31.7h0.1c0.5,0.1,0.9,0.2,1.4,0.2
				h0.5h0.1c0.6-0.1,1.3-0.2,1.8-0.5h0.1c5.5-2.9,9.1-3.3,13.3-1.4c1,0.5,2.2,0.2,2.9-0.6C88.1,28.5,88.2,27.2,87.6,26.3z
				 M78.6,51.3c0.7,0,1.3,0.6,1.3,1.3v5.2c0,0.7-0.6,1.3-1.3,1.3l0,0H21.4c-0.7,0-1.3-0.6-1.3-1.3v-5.2c0-0.7,0.6-1.3,1.3-1.3
				L78.6,51.3z M50.2,26.2h-0.4C44,26.3,38.3,27.2,32.8,29c1.3-5,3.5-9.7,6.4-14c0.4-0.6,0.3-1.4-0.2-1.8c-0.6-0.4-1.4-0.3-1.8,0.2
				c0,0,0,0.1-0.1,0.1c-3.2,4.7-5.6,9.9-7,15.4l0,0c-5.2-3.2-9.8-3.5-15.5-1C22.2,15.6,35.6,8.1,50,8.2c3.4,0,6.8,1.9,9.9,5.6
				s5.6,9,7.4,15.3C61.7,27.2,56,26.3,50.2,26.2z M70,29L70,29c-1.9-7-4.7-12.8-8.1-16.9C61,11,60,10,59,9.1
				c10.8,2.4,20.3,8.9,26.3,18.3C80.4,25.3,76.1,25.8,70,29z"/>
			<path d="M33.5,69.6h-24c-2.1,0-3.9,1.7-3.9,3.9v5.2c0,2.2,1.7,3.9,3.9,3.9c0,0,0,0,0,0h1.2v8.9c0,1.7,1.3,3,3,3h15.6
				c1.6,0,3-1.4,3-3v-8.9h1.2c2.2,0,3.9-1.7,3.9-3.9v-5.2C37.3,71.3,35.6,69.6,33.5,69.6z M34.8,78.7c0,0.7-0.6,1.3-1.3,1.3h0H17.2
				c-0.7,0-1.3,0.6-1.3,1.3c0,0.7,0.6,1.3,1.3,1.3h12.6v8.8c0,0.2-0.2,0.4-0.4,0.4l0,0H13.7c-0.2,0-0.4-0.2-0.4-0.4l0,0V81.2
				c0-0.7-0.6-1.3-1.3-1.3c0,0,0,0,0,0H9.5c-0.7,0-1.3-0.6-1.3-1.3v-5.2c0-0.7,0.6-1.3,1.3-1.3c0,0,0,0,0,0h24
				c0.7,0,1.3,0.6,1.3,1.3l0,0L34.8,78.7z"/>
			<path d="M90.5,69.6h-24c-2.1,0-3.9,1.7-3.9,3.9v5.2c0,2.2,1.7,3.9,3.9,3.9c0,0,0,0,0,0h1.2v8.9c0,1.7,1.3,3,3,3l0,0h15.7
				c1.7,0,3-1.3,3-3v-8.9h1.2c2.2,0,3.9-1.7,3.9-3.9v-5.2C94.4,71.3,92.6,69.6,90.5,69.6z M91.8,78.7c0,0.7-0.6,1.3-1.3,1.3h0H74.1
				c-0.7,0-1.3,0.6-1.3,1.3c0,0.7,0.6,1.3,1.3,1.3h12.6v8.8c0,0.2-0.2,0.4-0.4,0.4H70.7c-0.2,0-0.4-0.2-0.4-0.4V81.2
				c0-0.7-0.6-1.3-1.3-1.3c0,0,0,0,0,0h-2.5c-0.7,0-1.3-0.6-1.3-1.3l0,0v-5.2c0-0.7,0.6-1.3,1.3-1.3c0,0,0,0,0,0h24
				c0.7,0,1.3,0.6,1.3,1.3v0L91.8,78.7z"/>
		</g>
	</g>
</g>
</svg>
