<?xml version="1.0" encoding="utf-8"?>
<!-- Generator: Adobe Illustrator 24.3.0, SVG Export Plug-In . SVG Version: 6.00 Build 0)  -->
<svg version="1.1" id="Layer_1" xmlns="http://www.w3.org/2000/svg" xmlns:xlink="http://www.w3.org/1999/xlink" x="0px" y="0px"
	 viewBox="0 0 80 40" style="enable-background:new 0 0 80 40;" xml:space="preserve">
<style type="text/css">
	.st0{fill:#0093ED;}
	.st1{fill:#747475;}
</style>
<path class="st0" d="M25.5,18.4c4,0,7.3-3.3,7.3-7.3c0-4-3.3-7.3-7.3-7.3c-4,0-7.3,3.3-7.3,7.3c0,0,0,0,0,0l0,0
	C18.2,15.1,21.5,18.4,25.5,18.4z M23,10.2l1.5,1.5l3.3-3.4c0.4-0.3,1-0.3,1.4,0.1c0.3,0.3,0.3,0.9,0,1.2l-4.1,4.1
	c-0.4,0.4-1,0.4-1.4,0l0,0l-2.2-2.2c-0.4-0.4-0.4-1,0-1.4c0.3-0.4,0.9-0.4,1.3-0.1C22.9,10.1,23,10.1,23,10.2z"/>
<path class="st1" d="M7.4,25.9c-0.3-0.2-0.6-0.2-0.9,0l-0.6,0.6l8.4,8.4l0.6-0.6c0.2-0.3,0.2-0.6,0-0.9L7.4,25.9z"/>
<path class="st1" d="M35,22.5c-0.6-0.6-1.7-0.6-2.3,0l0,0l-2.3,2.3c-0.3,0.3-0.6,0.4-1,0.4h-7.7c-0.8,0-1.4-0.6-1.4-1.4
	c0-0.8,0.6-1.4,1.4-1.4h3.4c0.8,0,1.4-0.6,1.4-1.4c0-0.8-0.6-1.4-1.4-1.4H18c-1.8,0-3.5,0.8-4.6,2.2l-3.1,4.1l5,5l0.6-0.9
	c0.4-0.7,1.1-1.1,1.9-1.1H30c0.5,0,1-0.2,1.3-0.5l3.7-3.7c0.6-0.5,0.7-1.4,0.2-2C35.2,22.6,35.1,22.6,35,22.5z"/>
<path class="st1" d="M3.1,29.2v6.9h9.7l-8.3-8.3L3.1,29.2z"/>
<path class="st0" d="M49.2,22.4c-0.4,0-0.9-0.1-1.3-0.2c-0.3-0.1-0.7-0.3-0.9-0.5c-0.2-0.2-0.4-0.4-0.5-0.7
	c-0.1-0.3-0.2-0.5-0.2-0.8c0-0.4,0.1-0.9,0.4-1.2c0.3-0.3,0.6-0.6,1-0.8l0,0c-0.3-0.2-0.6-0.4-0.8-0.7c-0.2-0.3-0.3-0.6-0.3-1
	c0-0.6,0.3-1.2,0.8-1.6c0.6-0.4,1.3-0.6,2-0.6c0.3,0,0.7,0,1,0.1c0.3,0.1,0.5,0.2,0.7,0.3c0.2,0.1,0.4,0.3,0.5,0.5
	c0.1,0.2,0.2,0.4,0.3,0.6c0.1,0.2,0.1,0.4,0.1,0.6c0,0.4-0.1,0.7-0.3,1c-0.2,0.3-0.5,0.6-0.9,0.7l0,0c0.4,0.2,0.7,0.4,1,0.8
	c0.3,0.3,0.5,0.8,0.5,1.3c0,0.7-0.3,1.3-0.8,1.7C50.8,22.2,50,22.4,49.2,22.4z M49.2,21.1c0.3,0,0.6-0.1,0.8-0.3
	c0.2-0.2,0.3-0.4,0.3-0.7c0-0.3-0.1-0.6-0.3-0.8c-0.3-0.2-0.6-0.4-0.9-0.5c-0.3,0.1-0.5,0.2-0.7,0.5c-0.2,0.2-0.3,0.5-0.3,0.7
	c0,0.3,0.1,0.6,0.3,0.8C48.6,21,48.9,21.1,49.2,21.1z M49.2,15.5c-0.3,0-0.5,0.1-0.7,0.3c-0.2,0.2-0.3,0.4-0.3,0.7
	c0,0.5,0.4,0.8,1.1,1.1c0.2-0.1,0.4-0.2,0.6-0.4c0.2-0.2,0.2-0.4,0.2-0.6c0-0.3-0.1-0.5-0.2-0.7C49.8,15.5,49.5,15.4,49.2,15.5
	L49.2,15.5z"/>
<path class="st0" d="M53.7,14.3h5.6v1.2L56,22.3h-2l3.3-6.4l0,0h-3.5V14.3z"/>
<path class="st0" d="M63.4,14.2c0.4,0,0.8,0.1,1.1,0.2c0.3,0.1,0.6,0.3,0.8,0.6c0.2,0.3,0.4,0.6,0.6,0.9c0.2,0.4,0.3,0.7,0.3,1.1
	c0.1,0.4,0.1,0.8,0.1,1.2c0,0.7-0.1,1.5-0.3,2.2c-0.2,0.6-0.5,1.1-1,1.5c-0.5,0.4-1.1,0.5-1.7,0.5c-0.5,0-0.9-0.1-1.3-0.3
	c-0.4-0.2-0.7-0.5-0.9-0.9c-0.2-0.4-0.4-0.8-0.5-1.3c-0.1-0.5-0.2-1.1-0.2-1.6c0-0.5,0.1-1.1,0.2-1.6c0.1-0.5,0.3-0.9,0.5-1.3
	c0.2-0.4,0.6-0.7,0.9-0.9C62.4,14.3,62.9,14.2,63.4,14.2z M63.4,15.6c-0.3,0-0.6,0.2-0.8,0.7c-0.2,0.6-0.3,1.3-0.3,2
	c0,0.7,0.1,1.4,0.3,2c0.1,0.4,0.5,0.7,0.8,0.7c0.4,0,0.6-0.2,0.8-0.7c0.2-0.6,0.3-1.3,0.3-2C64.5,16.5,64.1,15.6,63.4,15.6
	L63.4,15.6z"/>
<path class="st0" d="M70.2,15.8h1.2v2.7h2.6v1.1h-2.6v2.7h-1.2v-2.7h-2.5v-1.1h2.5V15.8z"/>
</svg>
