<?xml version="1.0" encoding="utf-8"?>
<!-- Generator: Adobe Illustrator 24.3.0, SVG Export Plug-In . SVG Version: 6.00 Build 0)  -->
<svg version="1.1" id="Layer_1" xmlns="http://www.w3.org/2000/svg" xmlns:xlink="http://www.w3.org/1999/xlink" x="0px" y="0px"
	 viewBox="0 0 512 400" style="enable-background:new 0 0 512 400;" xml:space="preserve">
<style type="text/css">
	.st0{fill:#0093ED;}
	.st1{fill:none;}
	.st2{fill:#01364C;}
</style>
<g>
	<g>
		<path class="st0" d="M49.6,26.7L49.6,26.7c-3.2,2.8-5.3,6.9-5.3,11.5c0,8.4,6.8,15.2,15.2,15.2s15.2-6.8,15.2-15.2
			c0-6.3-3.8-11.7-9.3-14L74.6,2L49.6,26.7z"/>
	</g>
	<g>
		<path class="st0" d="M100.1,24.2L109.4,2l-25,24.7l0,0c-3.2,2.8-5.3,6.9-5.3,11.5c0,8.4,6.8,15.2,15.2,15.2s15.2-6.8,15.2-15.2
			C109.4,31.9,105.5,26.5,100.1,24.2z"/>
	</g>
</g>
<g>
	<polyline class="st1" points="474.9,362.7 494,362.7 494,44.7 116,44.7 116,44.7 38,44.7 38,44.7 18,44.7 18,362.7 396.9,362.7 	
		"/>
	<polygon class="st2" points="504,34.7 116,34.7 116,44.7 494,44.7 494,362.7 474.9,362.7 474.9,372.7 504,372.7 	"/>
	<polygon class="st2" points="18,362.7 18,44.7 38,44.7 38,34.7 8,34.7 8,372.7 396.9,372.7 396.9,362.7 	"/>
</g>
<g>
	<g>
		<path class="st0" d="M463.8,373.7L463.8,373.7c3.2-2.8,5.3-6.9,5.3-11.5c0-8.4-6.8-15.2-15.2-15.2c-8.4,0-15.2,6.8-15.2,15.2
			c0,6.3,3.8,11.7,9.3,14l-9.3,22.2L463.8,373.7z"/>
	</g>
	<g>
		<path class="st0" d="M413.3,376.1l-9.3,22.2l25-24.7l0,0c3.2-2.8,5.3-6.9,5.3-11.5c0-8.4-6.8-15.2-15.2-15.2
			c-8.4,0-15.2,6.8-15.2,15.2C404,368.5,407.8,373.9,413.3,376.1z"/>
	</g>
</g>
</svg>
