<?xml version="1.0" encoding="utf-8"?>
<!-- Generator: Adobe Illustrator 18.0.0, SVG Export Plug-In . SVG Version: 6.00 Build 0)  -->
<!DOCTYPE svg PUBLIC "-//W3C//DTD SVG 1.1//EN" "http://www.w3.org/Graphics/SVG/1.1/DTD/svg11.dtd">
<svg version="1.1" id="Layer_1" xmlns="http://www.w3.org/2000/svg" xmlns:xlink="http://www.w3.org/1999/xlink" x="0px" y="0px"
	 viewBox="8 2 175 64" enable-background="new 8 2 175 64" xml:space="preserve">
<linearGradient id="SVGID_1_" gradientUnits="userSpaceOnUse" x1="117.9715" y1="8.4993" x2="53.9715" y2="120.9993" gradientTransform="matrix(1 0 0 -1 0 82)">
	<stop  offset="5.433340e-002" style="stop-color:#1F971D"/>
	<stop  offset="1" style="stop-color:#2AE46F"/>
</linearGradient>
<path fill="url(#SVGID_1_)" d="M23,2h145c8.3,0,15,6.7,15,15v34c0,8.3-6.7,15-15,15H23c-8.3,0-15-6.7-15-15V17C8,8.7,14.7,2,23,2z"
	/>
<path fill="#FFFFFF" d="M25.9,44.6c0,1,0.8,1.9,1.9,1.9h2.1v5.3c0,1.3,1.1,2.4,2.4,2.4c1.3,0,2.4-1.1,2.4-2.4v-5.3h3.7v5.3
	c0,1.3,1.1,2.4,2.4,2.4c1.3,0,2.4-1.1,2.4-2.4v-5.3h2.1c1,0,1.9-0.8,1.9-1.9V27.2H25.9V44.6L25.9,44.6z M41.6,18.2l2-2.9
	c0.1-0.2,0.1-0.4-0.1-0.5c-0.2-0.1-0.4-0.1-0.5,0.1l-2,3c-1.3-0.5-2.9-0.8-4.4-0.8c-1.6,0-3.1,0.3-4.4,0.8l-2-3
	c-0.1-0.2-0.3-0.2-0.5-0.1c-0.2,0.1-0.2,0.3-0.1,0.5l2,2.9c-3.1,1.5-5.3,4.2-5.6,7.5h21.4C46.9,22.4,44.7,19.7,41.6,18.2L41.6,18.2z
	 M32,22.7c-0.2,0-0.5-0.1-0.7-0.2c-0.2-0.1-0.3-0.3-0.4-0.5c-0.1-0.2-0.1-0.5-0.1-0.7c0-0.2,0.2-0.4,0.3-0.6
	c0.2-0.2,0.4-0.3,0.6-0.3c0.2,0,0.5,0,0.7,0.1c0.2,0.1,0.4,0.2,0.5,0.4c0.1,0.2,0.2,0.4,0.2,0.7c0,0.3-0.1,0.6-0.3,0.8
	C32.6,22.6,32.3,22.7,32,22.7L32,22.7z M41.2,22.7c-0.2,0-0.5-0.1-0.7-0.2s-0.3-0.3-0.4-0.5c-0.1-0.2-0.1-0.5-0.1-0.7
	c0-0.2,0.2-0.4,0.3-0.6c0.2-0.2,0.4-0.3,0.6-0.3c0.2,0,0.5,0,0.7,0.1c0.2,0.1,0.4,0.2,0.5,0.4c0.1,0.2,0.2,0.4,0.2,0.7
	c0,0.3-0.1,0.6-0.3,0.8C41.8,22.6,41.5,22.7,41.2,22.7z M51,27.2c-1.3,0-2.4,1.1-2.4,2.4v9.5c0,1.3,1.1,2.4,2.4,2.4
	c1.3,0,2.4-1.1,2.4-2.4v-9.5C53.4,28.2,52.3,27.2,51,27.2z M22,27.2c-1.3,0-2.4,1.1-2.4,2.4v9.5c0,1.3,1.1,2.4,2.4,2.4
	c1.3,0,2.4-1.1,2.4-2.4v-9.5C24.4,28.2,23.4,27.2,22,27.2z"/>
<path fill="#FFFFFF" d="M79.6,41.4c0,0.7-0.1,1.2-0.4,1.8c-0.3,0.5-0.8,1-1.4,1.3c-0.6,0.3-1.4,0.5-2.3,0.5h-1.7v4H71V37.8h4.4
	c0.9,0,1.7,0.2,2.3,0.5c0.6,0.3,1.1,0.7,1.4,1.3C79.4,40.1,79.6,40.7,79.6,41.4z M75.2,42.8c0.5,0,0.9-0.1,1.2-0.4
	c0.3-0.2,0.4-0.6,0.4-1c0-0.4-0.1-0.8-0.4-1c-0.3-0.2-0.6-0.4-1.2-0.4h-1.5v2.8H75.2z M83.7,46.9h3.6V49H81V37.8h2.7V46.9z M95.6,47
	h-4.2l-0.7,2h-2.9l4.1-11.2h3.2L99.2,49h-2.9L95.6,47z M94.9,44.9l-1.4-4.1l-1.4,4.1H94.9z M110,37.8l-3.9,7.5V49h-2.7v-3.7
	l-3.9-7.5h3.1l2.2,4.7l2.2-4.7H110z M118.6,49.1c-0.8,0-1.6-0.1-2.2-0.4c-0.7-0.3-1.2-0.7-1.6-1.2c-0.4-0.5-0.6-1.2-0.6-1.9h2.9
	c0,0.4,0.2,0.7,0.4,1c0.2,0.2,0.6,0.3,1,0.3c0.4,0,0.7-0.1,1-0.3c0.2-0.2,0.4-0.5,0.4-0.8c0-0.3-0.1-0.5-0.3-0.7
	c-0.2-0.2-0.4-0.3-0.7-0.4c-0.3-0.1-0.7-0.3-1.2-0.4c-0.7-0.2-1.3-0.4-1.8-0.7c-0.5-0.2-0.9-0.6-1.2-1c-0.3-0.4-0.5-1-0.5-1.7
	c0-1,0.4-1.9,1.1-2.4c0.8-0.6,1.7-0.9,3-0.9c1.2,0,2.2,0.3,3,0.9c0.8,0.6,1.2,1.4,1.2,2.5h-3c0-0.4-0.2-0.6-0.4-0.8
	c-0.2-0.2-0.6-0.3-0.9-0.3c-0.3,0-0.6,0.1-0.8,0.3c-0.2,0.2-0.3,0.4-0.3,0.8c0,0.4,0.2,0.6,0.5,0.8c0.3,0.2,0.9,0.4,1.6,0.7
	c0.7,0.2,1.3,0.5,1.8,0.7c0.5,0.2,0.9,0.5,1.2,1c0.3,0.4,0.5,1,0.5,1.6c0,0.6-0.2,1.2-0.5,1.7c-0.3,0.5-0.8,0.9-1.4,1.2
	C120.2,49,119.4,49.1,118.6,49.1z M132.4,37.8V40h-3v9h-2.7v-9h-3v-2.2H132.4z M139.1,49.1c-1.1,0-2-0.2-2.9-0.7
	c-0.9-0.5-1.6-1.2-2.1-2c-0.5-0.9-0.8-1.9-0.8-3c0-1.1,0.3-2.1,0.8-3c0.5-0.9,1.2-1.6,2.1-2c0.9-0.5,1.9-0.7,2.9-0.7s2,0.2,2.9,0.7
	c0.9,0.5,1.6,1.2,2.1,2c0.5,0.9,0.8,1.9,0.8,3c0,1.1-0.3,2.1-0.8,3c-0.5,0.9-1.2,1.6-2.1,2S140.2,49.1,139.1,49.1z M139.1,46.6
	c0.9,0,1.6-0.3,2.1-0.9c0.5-0.6,0.8-1.4,0.8-2.4c0-1-0.3-1.8-0.8-2.4c-0.5-0.6-1.2-0.9-2.1-0.9c-0.9,0-1.6,0.3-2.2,0.9
	c-0.5,0.6-0.8,1.4-0.8,2.4c0,1,0.3,1.8,0.8,2.4C137.5,46.3,138.2,46.6,139.1,46.6z M152.1,49l-2.3-4.2h-0.7V49h-2.7V37.8h4.6
	c0.9,0,1.6,0.2,2.3,0.5c0.6,0.3,1.1,0.7,1.4,1.3c0.3,0.5,0.5,1.1,0.5,1.8c0,0.7-0.2,1.4-0.6,2c-0.4,0.6-1,1-1.9,1.2l2.6,4.4H152.1z
	 M149.1,42.8h1.7c0.5,0,0.9-0.1,1.1-0.4c0.3-0.2,0.4-0.6,0.4-1c0-0.4-0.1-0.8-0.4-1c-0.2-0.2-0.6-0.4-1.1-0.4h-1.7V42.8z M159.6,40
	v2.3h3.7v2.1h-3.7v2.5h4.1V49h-6.9V37.8h6.9V40H159.6z"/>
<path fill="#FFFFFF" d="M73.5,17.6c0.9,0,1.7,0.2,2.4,0.5c0.7,0.3,1.2,0.8,1.5,1.5c0.4,0.6,0.5,1.4,0.5,2.2c0,0.9-0.2,1.6-0.5,2.2
	c-0.4,0.6-0.9,1.1-1.5,1.4c-0.7,0.3-1.5,0.5-2.4,0.5h-2.6v-8.4H73.5z M73.5,25.1c1.1,0,1.9-0.3,2.5-0.9c0.6-0.6,0.9-1.4,0.9-2.4
	c0-1-0.3-1.9-0.9-2.4c-0.6-0.6-1.4-0.9-2.5-0.9H72v6.6H73.5z M82.3,26.1c-0.6,0-1.2-0.1-1.7-0.4c-0.5-0.3-0.9-0.7-1.2-1.2
	C79.1,24,79,23.4,79,22.7c0-0.7,0.1-1.3,0.4-1.8c0.3-0.5,0.7-0.9,1.2-1.2c0.5-0.3,1.1-0.4,1.7-0.4s1.2,0.1,1.7,0.4
	c0.5,0.3,0.9,0.7,1.2,1.2c0.3,0.5,0.4,1.1,0.4,1.8c0,0.7-0.2,1.3-0.5,1.8c-0.3,0.5-0.7,0.9-1.2,1.2C83.5,26,82.9,26.1,82.3,26.1z
	 M82.3,25.1c0.4,0,0.8-0.1,1.1-0.3s0.6-0.5,0.8-0.8c0.2-0.4,0.3-0.8,0.3-1.3s-0.1-1-0.3-1.3s-0.5-0.6-0.8-0.8
	c-0.3-0.2-0.7-0.3-1.1-0.3c-0.4,0-0.8,0.1-1.1,0.3c-0.3,0.2-0.6,0.4-0.8,0.8c-0.2,0.4-0.3,0.8-0.3,1.3c0,0.5,0.1,1,0.3,1.4
	c0.2,0.4,0.5,0.6,0.8,0.8C81.5,25.1,81.9,25.1,82.3,25.1z M95.8,19.4L93.8,26h-1.1l-1.6-5.2L89.5,26h-1.1l-2.1-6.6h1.1l1.5,5.5
	l1.6-5.5h1.1l1.6,5.5l1.5-5.5H95.8z M100.1,19.3c0.8,0,1.4,0.2,1.9,0.7c0.5,0.5,0.7,1.2,0.7,2.1V26h-1.1v-3.7c0-0.7-0.2-1.2-0.5-1.5
	c-0.3-0.4-0.8-0.5-1.3-0.5c-0.6,0-1,0.2-1.4,0.5c-0.3,0.4-0.5,0.9-0.5,1.6V26h-1.1v-6.6H98v0.9c0.2-0.3,0.5-0.6,0.9-0.8
	C99.3,19.4,99.7,19.3,100.1,19.3z M105.7,17.1V26h-1.1v-8.9H105.7z M110.4,26.1c-0.6,0-1.2-0.1-1.7-0.4c-0.5-0.3-0.9-0.7-1.2-1.2
	c-0.3-0.5-0.4-1.1-0.4-1.8c0-0.7,0.1-1.3,0.4-1.8c0.3-0.5,0.7-0.9,1.2-1.2c0.5-0.3,1.1-0.4,1.7-0.4s1.2,0.1,1.7,0.4
	c0.5,0.3,0.9,0.7,1.2,1.2c0.3,0.5,0.4,1.1,0.4,1.8c0,0.7-0.2,1.3-0.5,1.8c-0.3,0.5-0.7,0.9-1.2,1.2C111.6,26,111,26.1,110.4,26.1z
	 M110.4,25.1c0.4,0,0.8-0.1,1.1-0.3s0.6-0.5,0.8-0.8c0.2-0.4,0.3-0.8,0.3-1.3s-0.1-1-0.3-1.3s-0.5-0.6-0.8-0.8
	c-0.3-0.2-0.7-0.3-1.1-0.3c-0.4,0-0.8,0.1-1.1,0.3c-0.3,0.2-0.6,0.4-0.8,0.8c-0.2,0.4-0.3,0.8-0.3,1.3c0,0.5,0.1,1,0.3,1.4
	c0.2,0.4,0.5,0.6,0.8,0.8C109.7,25.1,110,25.1,110.4,25.1z M114.8,22.7c0-0.7,0.1-1.3,0.4-1.8c0.3-0.5,0.6-0.9,1.1-1.2
	c0.5-0.3,1-0.4,1.6-0.4c0.6,0,1.1,0.1,1.5,0.4c0.4,0.2,0.7,0.6,0.9,0.9v-1.2h1.1V26h-1.1v-1.2c-0.2,0.4-0.5,0.7-1,1
	c-0.4,0.2-0.9,0.4-1.5,0.4c-0.6,0-1.1-0.1-1.6-0.4s-0.8-0.7-1.1-1.2C115,23.9,114.8,23.4,114.8,22.7z M120.4,22.7
	c0-0.5-0.1-0.9-0.3-1.3c-0.2-0.4-0.5-0.6-0.8-0.8c-0.3-0.2-0.7-0.3-1.1-0.3c-0.4,0-0.8,0.1-1.1,0.3s-0.6,0.5-0.8,0.8
	c-0.2,0.4-0.3,0.8-0.3,1.3c0,0.5,0.1,0.9,0.3,1.3c0.2,0.4,0.5,0.7,0.8,0.9c0.3,0.2,0.7,0.3,1.1,0.3c0.4,0,0.8-0.1,1.1-0.3
	c0.3-0.2,0.6-0.5,0.8-0.9C120.3,23.6,120.4,23.2,120.4,22.7z M122.9,22.7c0-0.7,0.1-1.3,0.4-1.8c0.3-0.5,0.6-0.9,1.1-1.2
	c0.5-0.3,1-0.4,1.6-0.4c0.5,0,1,0.1,1.4,0.4c0.4,0.2,0.8,0.5,1,0.9v-3.5h1.1V26h-1.1v-1.2c-0.2,0.4-0.5,0.7-1,1
	c-0.4,0.2-0.9,0.4-1.5,0.4c-0.6,0-1.1-0.1-1.6-0.4c-0.5-0.3-0.8-0.7-1.1-1.2C123.1,23.9,122.9,23.4,122.9,22.7z M128.5,22.7
	c0-0.5-0.1-0.9-0.3-1.3s-0.5-0.6-0.8-0.8c-0.3-0.2-0.7-0.3-1.1-0.3c-0.4,0-0.8,0.1-1.1,0.3s-0.6,0.5-0.8,0.8
	c-0.2,0.4-0.3,0.8-0.3,1.3c0,0.5,0.1,0.9,0.3,1.3c0.2,0.4,0.5,0.7,0.8,0.9c0.3,0.2,0.7,0.3,1.1,0.3c0.4,0,0.8-0.1,1.1-0.3
	c0.3-0.2,0.6-0.5,0.8-0.9C128.4,23.6,128.5,23.2,128.5,22.7z M139.4,17.6v0.9h-3.6v2.8h3v0.9h-3V26h-1.1v-8.4H139.4z M143.6,26.1
	c-0.6,0-1.2-0.1-1.7-0.4c-0.5-0.3-0.9-0.7-1.2-1.2c-0.3-0.5-0.4-1.1-0.4-1.8c0-0.7,0.1-1.3,0.4-1.8c0.3-0.5,0.7-0.9,1.2-1.2
	c0.5-0.3,1.1-0.4,1.7-0.4c0.6,0,1.2,0.1,1.7,0.4c0.5,0.3,0.9,0.7,1.2,1.2c0.3,0.5,0.4,1.1,0.4,1.8c0,0.7-0.2,1.3-0.5,1.8
	c-0.3,0.5-0.7,0.9-1.2,1.2C144.8,26,144.2,26.1,143.6,26.1z M143.6,25.1c0.4,0,0.8-0.1,1.1-0.3c0.3-0.2,0.6-0.5,0.8-0.8
	c0.2-0.4,0.3-0.8,0.3-1.3s-0.1-1-0.3-1.3c-0.2-0.4-0.5-0.6-0.8-0.8c-0.3-0.2-0.7-0.3-1.1-0.3c-0.4,0-0.8,0.1-1.1,0.3
	c-0.3,0.2-0.6,0.4-0.8,0.8s-0.3,0.8-0.3,1.3c0,0.5,0.1,1,0.3,1.4c0.2,0.4,0.5,0.6,0.8,0.8C142.8,25.1,143.2,25.1,143.6,25.1z
	 M149.5,20.5c0.2-0.4,0.5-0.7,0.8-0.9c0.4-0.2,0.8-0.3,1.3-0.3v1.1h-0.3c-1.2,0-1.8,0.7-1.8,2V26h-1.1v-6.6h1.1V20.5z"/>
</svg>
