<?xml version="1.0" encoding="utf-8"?>
<!-- Generator: Adobe Illustrator 21.0.0, SVG Export Plug-In . SVG Version: 6.00 Build 0)  -->
<svg version="1.1" id="Layer_1" xmlns="http://www.w3.org/2000/svg" xmlns:xlink="http://www.w3.org/1999/xlink" x="0px" y="0px"
	 viewBox="0 0 150 150" style="enable-background:new 0 0 150 150;" xml:space="preserve">
<style type="text/css">
	.st0{fill:#666666;}
</style>
<title>Asset 6</title>
<g id="Layer_2">
	<g id="Layer_1-2">
		<path class="st0" d="M46.4,103.8c-0.3,0-0.6-0.1-0.8-0.3c-15.7-15.7-15.7-41.1,0-56.8c11.6-11.6,29-15,44.1-8.6
			c0.6,0.3,0.8,1,0.5,1.5c-0.3,0.5-0.9,0.8-1.4,0.6l0,0C69.5,32,47.3,41,39.1,60.2c-6,14.2-2.8,30.7,8.1,41.6c0.4,0.4,0.4,1.2,0,1.6
			C47,103.6,46.7,103.8,46.4,103.8z"/>
		<path class="st0" d="M73.9,115.2c-6.6,0-13-1.6-18.8-4.7c-0.6-0.3-0.8-1-0.5-1.6s1-0.8,1.6-0.5l0,0c18.5,9.9,41.4,2.9,51.3-15.6
			c7.9-14.7,5.2-32.8-6.6-44.6c-0.4-0.5-0.4-1.2,0.1-1.6c0.4-0.4,1.1-0.4,1.5,0c15.7,15.7,15.7,41.1,0.1,56.8
			C94.9,111,84.6,115.2,73.9,115.2z"/>
		<path class="st0" d="M101.6,57.8c-0.6,0-1.1-0.5-1.1-1.1v-9.2c0-0.6,0.5-1.1,1.1-1.2c0,0,0,0,0,0h9.2c0.6,0,1.1,0.6,1.1,1.2
			c0,0.6-0.5,1-1.1,1.1h-8.1v8.1C102.7,57.3,102.2,57.8,101.6,57.8z"/>
		<path class="st0" d="M46.4,103.8h-9.2c-0.6,0-1.1-0.5-1.1-1.1c0-0.6,0.5-1.1,1.1-1.1c0,0,0,0,0,0h8.1v-8.1c0-0.6,0.6-1.1,1.2-1.1
			c0.6,0,1,0.5,1.1,1.1v9.2C47.6,103.2,47.1,103.8,46.4,103.8C46.4,103.8,46.4,103.8,46.4,103.8z"/>
		<path class="st0" d="M85.7,63.8c-3.3,0.7-6.7,1.1-10.1,1.2v9.7h11.5C87,71,86.5,67.4,85.7,63.8z"/>
		<path class="st0" d="M57.6,74.7c0.1-3.9,0.6-7.8,1.5-11.6c-2.7-0.7-5.3-1.8-7.8-3.1c-3.1,4.3-4.9,9.4-5.2,14.7H57.6z"/>
		<path class="st0" d="M57.6,77.9H46.1c0.3,5.3,2.1,10.4,5.2,14.7c2.5-1.3,5.1-2.4,7.8-3.1C58.2,85.7,57.7,81.8,57.6,77.9z"/>
		<path class="st0" d="M78.7,50.3c-0.9-0.8-2-1.4-3.1-1.7v13.1c3.1-0.1,6.2-0.4,9.2-1c-0.5-1.6-1.1-3.1-1.9-4.6
			C81.9,53.9,80.5,51.9,78.7,50.3z"/>
		<path class="st0" d="M59.9,92.7c-2.3,0.6-4.4,1.5-6.5,2.5c0.3,0.3,0.5,0.6,0.8,0.8c3.1,3.1,6.8,5.4,11,6.8
			c-1.2-1.5-2.3-3.2-3.2-4.9C61.2,96.3,60.5,94.5,59.9,92.7z"/>
		<path class="st0" d="M65,56.1c-0.7,1.5-1.4,3-1.9,4.6c3,0.6,6.1,1,9.2,1V48.6c-1.1,0.3-2.2,0.9-3.1,1.7C67.5,51.9,66,53.9,65,56.1
			z"/>
		<path class="st0" d="M90.4,77.9c-0.1,3.9-0.6,7.8-1.5,11.6c2.7,0.7,5.3,1.8,7.8,3.1c3.1-4.3,4.9-9.4,5.2-14.7L90.4,77.9z"/>
		<path class="st0" d="M88,59.9c2.3-0.6,4.4-1.5,6.5-2.5c-0.3-0.3-0.5-0.6-0.8-0.8c-3.1-3.1-6.8-5.4-11-6.8c1.2,1.5,2.3,3.2,3.1,4.9
			C86.7,56.4,87.4,58.1,88,59.9z"/>
		<path class="st0" d="M83,96.5c0.7-1.5,1.4-3,1.9-4.5c-3-0.6-6.1-1-9.2-1V104c1.1-0.3,2.2-0.9,3.1-1.7C80.5,100.7,82,98.7,83,96.5z
			"/>
		<path class="st0" d="M88.9,63c0.9,3.8,1.4,7.7,1.5,11.6h11.5c-0.3-5.3-2.1-10.4-5.2-14.7C94.2,61.3,91.6,62.3,88.9,63z"/>
		<path class="st0" d="M75.6,77.9v9.7c3.4,0.1,6.8,0.5,10.1,1.2c0.8-3.6,1.3-7.2,1.4-10.8H75.6z"/>
		<path class="st0" d="M72.3,74.7V65c-3.4-0.1-6.8-0.5-10.1-1.2c-0.8,3.6-1.3,7.2-1.4,10.9H72.3z"/>
		<path class="st0" d="M59.9,59.9c0.6-1.8,1.3-3.5,2.1-5.2c0.9-1.8,1.9-3.4,3.2-4.9c-4.1,1.4-7.9,3.7-11,6.8
			c-0.3,0.3-0.5,0.6-0.8,0.8C55.5,58.4,57.7,59.3,59.9,59.9z"/>
		<path class="st0" d="M88,92.7c-0.6,1.8-1.3,3.5-2.1,5.2c-0.9,1.8-1.9,3.4-3.1,4.9c4.2-1.4,7.9-3.7,11-6.8c0.3-0.3,0.5-0.6,0.8-0.8
			C92.5,94.1,90.3,93.3,88,92.7z"/>
		<path class="st0" d="M72.3,77.9H60.8c0.1,3.7,0.6,7.3,1.4,10.8c3.3-0.7,6.7-1.1,10.1-1.2V77.9z"/>
		<path class="st0" d="M69.3,102.3c0.9,0.8,2,1.4,3.1,1.7V90.9c-3.1,0.1-6.2,0.4-9.2,1c0.5,1.6,1.1,3.1,1.9,4.5
			C66,98.7,67.5,100.7,69.3,102.3z"/>
	</g>
</g>
</svg>
