<?xml version="1.0" encoding="utf-8"?>
<!-- Generator: Adobe Illustrator 21.0.0, SVG Export Plug-In . SVG Version: 6.00 Build 0)  -->
<svg version="1.1" id="Capa_1" xmlns="http://www.w3.org/2000/svg" xmlns:xlink="http://www.w3.org/1999/xlink" x="0px" y="0px"
	 viewBox="0 0 115 107" style="enable-background:new 0 0 115 107;" xml:space="preserve">
<style type="text/css">
	.st0{fill:#666666;}
</style>
<title>tech-icon1</title>
<path class="st0" d="M37.6,43.2c-1.9,0-3.4,1.5-3.4,3.4c0,0,0,0,0,0v14.2c0,1.9,1.5,3.4,3.4,3.4c0,0,0,0,0,0c0.9,0,1.8-0.3,2.4-1
	c0.6-0.6,1-1.5,1-2.4V46.6C40.9,44.7,39.4,43.2,37.6,43.2z"/>
<path class="st0" d="M65,30.4l2.4-4.3c0.1-0.2,0.1-0.5-0.1-0.6c0,0-0.1,0-0.1-0.1c-0.2-0.1-0.5-0.1-0.6,0.1c0,0,0,0,0,0.1L64.1,30
	c-4.2-1.9-9.1-1.9-13.3,0l-2.4-4.4c-0.1-0.2-0.4-0.3-0.6-0.2c0,0,0,0-0.1,0c-0.2,0.1-0.3,0.4-0.2,0.6c0,0,0,0.1,0.1,0.1l2.3,4.3
	c-2.3,1.2-4.3,2.9-5.7,5.1c-1.4,2.1-2.1,4.6-2.1,7.1h30.6c0-2.5-0.7-5-2.1-7.1C69.2,33.3,67.3,31.6,65,30.4z M51.4,36.7
	c-0.2,0.2-0.6,0.4-0.9,0.4c-0.3,0-0.7-0.1-0.9-0.4c-0.2-0.2-0.4-0.6-0.4-0.9c0-0.3,0.1-0.7,0.4-0.9c0.2-0.2,0.6-0.4,0.9-0.4
	c0.7,0,1.3,0.6,1.3,1.3C51.8,36.1,51.6,36.5,51.4,36.7z M65.4,36.7c-0.2,0.3-0.6,0.4-0.9,0.4c-0.7,0-1.3-0.6-1.3-1.3
	c0-0.7,0.6-1.3,1.3-1.3c0.3,0,0.7,0.1,0.9,0.4C65.8,35.4,65.8,36.2,65.4,36.7L65.4,36.7z"/>
<path class="st0" d="M42.3,65.9c0,2,1.6,3.6,3.6,3.6c0,0,0,0,0.1,0h2.4V77c0,0.9,0.3,1.8,1,2.4c0.6,0.6,1.5,1,2.4,1
	c1.9,0,3.4-1.5,3.4-3.4c0,0,0,0,0,0v-7.5h4.6V77c0,1.9,1.5,3.4,3.4,3.4c1.9,0,3.4-1.5,3.4-3.4v-7.5h2.5c1,0,1.9-0.4,2.6-1.1
	c0.7-0.7,1.1-1.6,1.1-2.6v-22H42.3V65.9z"/>
<path class="st0" d="M77.3,43.2c-0.9,0-1.8,0.3-2.4,1c-0.7,0.6-1,1.5-1,2.4v14.2c0,0.9,0.3,1.8,1,2.4c0.6,0.6,1.5,1,2.4,1
	c1.9,0,3.4-1.5,3.4-3.4c0,0,0,0,0,0V46.6c0-0.9-0.3-1.8-1-2.4C79.1,43.5,78.2,43.2,77.3,43.2z"/>
</svg>
