<?xml version="1.0" encoding="utf-8"?>
<!-- Generator: Adobe Illustrator 24.3.0, SVG Export Plug-In . SVG Version: 6.00 Build 0)  -->
<svg version="1.1" id="Isolation_Mode" xmlns="http://www.w3.org/2000/svg" xmlns:xlink="http://www.w3.org/1999/xlink" x="0px"
	 y="0px" viewBox="0 0 225 232" style="enable-background:new 0 0 225 232;" xml:space="preserve">
<style type="text/css">
	.st0{fill:#E6E9F3;}
	.st1{fill:#BBC0E5;}
	.st2{fill:#D8D8D8;}
	.st3{fill:#383D4C;}
	.st4{fill:#4E5268;}
	.st5{fill:#AAAAAA;}
	.st6{fill:#E8E8E8;}
	.st7{fill:#161B26;}
	.st8{fill:#4C5065;}
	.st9{fill:#EAEEF4;}
	.st10{fill:#CECECE;}
	.st11{fill:#9E9E9E;}
	.st12{fill:#63605A;}
	.st13{fill:#7C7870;}
	.st14{fill:#FFB612;}
	.st15{fill:#633615;}
	.st16{fill:#AB5250;}
	.st17{fill:#9E3B3E;}
	.st18{fill:#FFAB81;}
	.st19{fill:#1B75BA;}
	.st20{fill:#2A85C4;}
	.st21{fill:#A5BACC;}
	.st22{fill:#B9CCDF;}
	.st23{fill:#0082D1;}
	.st24{fill:#0093ED;}
	.st25{fill:#FCD2BB;}
	.st26{fill:#DC495A;}
	.st27{fill:#EB5561;}
	.st28{fill:#315271;}
	.st29{enable-background:new    ;}
	.st30{fill:#DDBCCD;}
	.st31{fill:#FFFFFF;}
	.st32{fill:#F7EDF3;}
	.st33{fill:#FB7BF9;}
	.st34{fill:#ADDEC5;}
	.st35{fill:#EDF7EF;}
	.st36{fill:#7AE25D;}
	.st37{fill:#CFBDDF;}
	.st38{fill:#F3EEF8;}
	.st39{fill:#7B80FB;}
	.st40{fill:#E1D6BC;}
	.st41{fill:#F8F4ED;}
	.st42{fill:#FB9E7B;}
	.st43{fill:#B9C8DF;}
	.st44{fill:#ECF1F7;}
	.st45{fill:#7BE4FB;}
	.st46{fill:#B4D2DD;}
	.st47{fill:#EBF4F7;}
	.st48{fill:#7DF8E4;}
	.st49{fill:#DFBDDF;}
	.st50{fill:#F7EEF8;}
	.st51{fill:#A27BFB;}
	.st52{fill:#E5C9BD;}
	.st53{fill:#FAF0ED;}
	.st54{fill:#FB7B85;}
	.st55{clip-path:url(#SVGID_2_);fill:#89ACCE;}
	.st56{clip-path:url(#SVGID_4_);fill:#AFD2EF;}
	.st57{clip-path:url(#SVGID_6_);fill:#492817;}
	.st58{clip-path:url(#SVGID_8_);fill:#AFD2EF;}
	.st59{clip-path:url(#SVGID_10_);fill:#78ADD0;}
	.st60{clip-path:url(#SVGID_12_);fill:#9FD2F0;}
	.st61{clip-path:url(#SVGID_14_);fill:#51230E;}
	.st62{clip-path:url(#SVGID_16_);fill:#4EB174;}
	.st63{clip-path:url(#SVGID_18_);fill:#00995A;}
</style>
<g>
	<g>
		<g>
			<g>
				<path class="st0" d="M38.9,143.1l-1.2,0.8c0,0-1.4-0.7-1.4-0.6c3.7-17.8,7.3-35.6,11-53.5c2.4-0.6,3.6-0.9,5.9-1.5
					C48.4,106.5,43.8,125,38.9,143.1z"/>
			</g>
			<path class="st1" d="M49.9,91c1.6-0.4,2.1-0.8,3-1.2c0.1-0.5,0.3-1,0.4-1.5c-2.4,0.6-3.6,0.9-5.9,1.5c-3.7,17.8-7.3,35.6-11,53.5
				c0-0.1,1.4,0.6,1.4,0.6C41.3,126.3,46.2,108.8,49.9,91z"/>
		</g>
		<g>
			<g>
				<g>
					<path class="st0" d="M147.3,202.9l1.1,0.9c0,0,1.4-0.6,1.4-0.5c-2.6-18-5.2-36-7.8-54c-2.3-0.7-3.5-1.1-5.8-1.8
						C140.1,165.8,143.5,184.5,147.3,202.9z"/>
				</g>
				<path class="st1" d="M139.5,150.3c-1.6-0.5-2-0.9-2.9-1.3c-0.1-0.5-0.2-1-0.3-1.5c2.3,0.7,3.5,1.1,5.8,1.8c2.6,18,5.2,36,7.8,54
					c0-0.1-1.4,0.5-1.4,0.5C145.9,185.9,142,168.2,139.5,150.3z"/>
			</g>
			<g>
				<g>
					<path class="st0" d="M208.3,175.5l1.1,0.9c0,0,1.4-0.6,1.4-0.5c-2.6-18-5.2-36-7.8-54c-2.3-0.7-3.5-1.1-5.8-1.8
						C201,138.4,204.4,157.1,208.3,175.5z"/>
				</g>
				<path class="st1" d="M200.4,122.1c-1.6-0.5-2-0.9-2.9-1.3c-0.1-0.5-0.2-1-0.3-1.5c2.3,0.7,3.5,1.1,5.8,1.8c2.6,18,5.2,36,7.8,54
					c0-0.1-1.4,0.5-1.4,0.5C206.8,157.7,203,140,200.4,122.1z"/>
			</g>
		</g>
	</g>
	<polygon class="st2" points="148.6,160 37,95.6 37,92 100.6,58.9 148.6,156.4 	"/>
	<g>
		<polygon class="st1" points="148.6,160 37,95.6 37,92 100.6,58.9 212.2,119.8 212.2,123.4 		"/>
		<polygon class="st0" points="148.6,156.4 37,92 100.6,55.3 212.2,119.8 		"/>
	</g>
	<g>
		<g>
			<g>
				<polygon class="st3" points="127.3,138.5 70.8,105.9 70.8,103.8 145.7,125.8 145.7,127.9 				"/>
				<polygon class="st3" points="127.3,138.5 70.8,105.9 70.8,103.8 127.3,136.2 127.3,138.3 				"/>
				<polygon class="st4" points="127.3,136.4 70.8,103.8 89.2,93.2 145.7,125.8 				"/>
				<g>
					<g>
						<g>
							<g>
								<g>
									<polygon class="st5" points="90.8,99.2 87.1,97 87.1,96.6 93.3,97.3 93.3,97.8 									"/>
									<polygon class="st6" points="90.8,98.7 87.1,96.6 89.5,95.2 93.3,97.3 									"/>
								</g>
								<g>
									<polygon class="st5" points="94.8,101.5 91.1,99.3 91.1,98.9 97.2,99.6 97.2,100.1 									"/>
									<polygon class="st6" points="94.8,101 91.1,98.9 93.5,97.5 97.2,99.6 									"/>
								</g>
								<g>
									<polygon class="st5" points="98.8,103.8 95.1,101.6 95.1,101.2 101.2,101.9 101.2,102.4 									"/>
									<polygon class="st6" points="98.8,103.3 95.1,101.2 97.5,99.8 101.2,101.9 									"/>
								</g>
								<g>
									<polygon class="st5" points="102.8,106.1 99.1,103.9 99.1,103.5 105.2,104.2 105.2,104.7 									"/>
									<polygon class="st6" points="102.8,105.6 99.1,103.5 101.5,102.1 105.2,104.2 									"/>
								</g>
								<g>
									<polygon class="st5" points="106.8,108.4 103.1,106.2 103.1,105.8 109.2,106.5 109.2,107 									"/>
									<polygon class="st6" points="106.8,107.9 103.1,105.8 105.5,104.4 109.2,106.5 									"/>
								</g>
								<g>
									<polygon class="st5" points="110.8,110.7 107,108.5 107,108.1 113.2,108.8 113.2,109.3 									"/>
									<polygon class="st6" points="110.8,110.2 107,108.1 109.4,106.7 113.2,108.8 									"/>
								</g>
								<g>
									<polygon class="st5" points="114.7,113 111,110.8 111,110.4 117.1,111.1 117.1,111.6 									"/>
									<polygon class="st6" points="114.7,112.5 111,110.4 113.4,109 117.1,111.1 									"/>
								</g>
								<g>
									<polygon class="st5" points="118.7,115.3 115,113.1 115,112.7 121.1,113.4 121.1,113.9 									"/>
									<polygon class="st6" points="118.7,114.8 115,112.7 117.4,111.3 121.1,113.4 									"/>
								</g>
								<g>
									<polygon class="st5" points="122.7,117.6 119,115.4 119,115 125.1,115.7 125.1,116.2 									"/>
									<polygon class="st6" points="122.7,117.1 119,115 121.4,113.6 125.1,115.7 									"/>
								</g>
								<g>
									<polygon class="st5" points="126.7,119.9 123,117.7 123,117.3 129.1,118.1 129.1,118.5 									"/>
									<polygon class="st6" points="126.7,119.4 123,117.3 125.4,115.9 129.1,118.1 									"/>
								</g>
								<g>
									<polygon class="st5" points="130.7,122.2 127,120 127,119.6 133.1,120.4 133.1,120.8 									"/>
									<polygon class="st6" points="130.7,121.7 127,119.6 129.4,118.2 133.1,120.4 									"/>
								</g>
								<g>
									<polygon class="st5" points="134.7,124.5 130.9,122.3 130.9,121.9 137.1,122.7 137.1,123.1 									"/>
									<polygon class="st6" points="134.7,124 130.9,121.9 133.3,120.5 137.1,122.7 									"/>
								</g>
								<g>
									<polygon class="st5" points="138.6,126.8 134.9,124.7 134.9,124.2 141,125 141,125.4 									"/>
									<polygon class="st6" points="138.6,126.3 134.9,124.2 137.3,122.8 141,125 									"/>
								</g>
							</g>
						</g>
						<g>
							<g>
								<polygon class="st5" points="89.9,102.3 84,98.8 84,98.4 92.3,100.4 92.3,100.9 								"/>
								<polygon class="st6" points="89.9,101.8 84,98.4 86.4,97 92.3,100.4 								"/>
							</g>
							<g>
								<polygon class="st5" points="93.9,104.6 90.2,102.4 90.2,102 96.3,102.7 96.3,103.2 								"/>
								<polygon class="st6" points="93.9,104.1 90.2,102 92.6,100.6 96.3,102.7 								"/>
							</g>
							<g>
								<polygon class="st5" points="97.9,106.9 94.2,104.7 94.2,104.3 100.3,105 100.3,105.5 								"/>
								<polygon class="st6" points="97.9,106.4 94.2,104.3 96.6,102.9 100.3,105 								"/>
							</g>
							<g>
								<polygon class="st5" points="101.9,109.2 98.1,107 98.1,106.6 104.3,107.3 104.3,107.8 								"/>
								<polygon class="st6" points="101.9,108.7 98.1,106.6 100.5,105.2 104.3,107.3 								"/>
							</g>
							<g>
								<polygon class="st5" points="105.8,111.5 102.1,109.3 102.1,108.9 108.2,109.6 108.2,110.1 								"/>
								<polygon class="st6" points="105.8,111 102.1,108.9 104.5,107.5 108.2,109.6 								"/>
							</g>
							<g>
								<polygon class="st5" points="109.8,113.8 106.1,111.6 106.1,111.2 112.2,111.9 112.2,112.4 								"/>
								<polygon class="st6" points="109.8,113.3 106.1,111.2 108.5,109.8 112.2,111.9 								"/>
							</g>
							<g>
								<polygon class="st5" points="113.8,116.1 110.1,113.9 110.1,113.5 116.2,114.2 116.2,114.7 								"/>
								<polygon class="st6" points="113.8,115.6 110.1,113.5 112.5,112.1 116.2,114.2 								"/>
							</g>
							<g>
								<polygon class="st5" points="117.8,118.4 114.1,116.2 114.1,115.8 120.2,116.5 120.2,117 								"/>
								<polygon class="st6" points="117.8,117.9 114.1,115.8 116.5,114.4 120.2,116.5 								"/>
							</g>
							<g>
								<polygon class="st5" points="121.8,120.7 118.1,118.5 118.1,118.1 124.2,118.8 124.2,119.3 								"/>
								<polygon class="st6" points="121.8,120.2 118.1,118.1 120.5,116.7 124.2,118.8 								"/>
							</g>
							<g>
								<polygon class="st5" points="125.8,123 122,120.8 122,120.4 128.2,121.1 128.2,121.6 								"/>
								<polygon class="st6" points="125.8,122.5 122,120.4 124.4,119 128.2,121.1 								"/>
							</g>
							<g>
								<polygon class="st5" points="129.7,125.3 126,123.1 126,122.7 132.1,123.4 132.1,123.9 								"/>
								<polygon class="st6" points="129.7,124.8 126,122.7 128.4,121.3 132.1,123.4 								"/>
							</g>
							<g>
								<polygon class="st5" points="135.5,128.6 130,125.4 130,125 137.9,126.8 137.9,127.3 								"/>
								<polygon class="st6" points="135.5,128.2 130,125 132.4,123.6 137.9,126.8 								"/>
							</g>
						</g>
						<g>
							<g>
								<polygon class="st5" points="85.3,103.2 80.9,100.6 80.9,100.2 87.4,101.2 87.4,101.6 								"/>
								<polygon class="st6" points="85.4,102.8 80.9,100.2 83.3,98.8 87.8,101.4 								"/>
							</g>
							<g>
								<polygon class="st5" points="89,105.3 85.2,103.2 85.2,102.7 91.4,103.5 91.4,103.9 								"/>
								<polygon class="st6" points="89,104.9 85.2,102.7 87.6,101.3 91.4,103.5 								"/>
							</g>
							<g>
								<polygon class="st5" points="93,107.6 89.2,105.5 89.2,105 95.4,105.8 95.4,106.2 								"/>
								<polygon class="st6" points="93,107.2 89.2,105 91.6,103.6 95.4,105.8 								"/>
							</g>
							<g>
								<polygon class="st5" points="96.9,109.9 93.2,107.8 93.2,107.3 99.3,108.1 99.3,108.5 								"/>
								<polygon class="st6" points="96.9,109.5 93.2,107.3 95.6,105.9 99.3,108.1 								"/>
							</g>
							<g>
								<polygon class="st5" points="100.9,112.2 97.2,110.1 97.2,109.6 103.3,110.4 103.3,110.8 								"/>
								<polygon class="st6" points="100.9,111.8 97.2,109.6 99.6,108.2 103.3,110.4 								"/>
							</g>
							<g>
								<polygon class="st5" points="104.9,114.5 101.2,112.4 101.2,111.9 107.3,112.7 107.3,113.2 								"/>
								<polygon class="st6" points="104.9,114.1 101.2,111.9 103.6,110.5 107.3,112.7 								"/>
							</g>
							<g>
								<polygon class="st5" points="108.9,116.8 105.2,114.7 105.2,114.2 111.3,115 111.3,115.5 								"/>
								<polygon class="st6" points="108.9,116.4 105.2,114.2 107.6,112.8 111.3,115 								"/>
							</g>
							<g>
								<polygon class="st5" points="112.9,119.1 109.1,117 109.1,116.5 115.3,117.3 115.3,117.8 								"/>
								<polygon class="st6" points="112.9,118.7 109.1,116.5 111.5,115.2 115.3,117.3 								"/>
							</g>
							<g>
								<polygon class="st5" points="116.9,121.4 113.1,119.3 113.1,118.8 119.3,119.6 119.3,120.1 								"/>
								<polygon class="st6" points="116.9,121 113.1,118.8 115.5,117.5 119.3,119.6 								"/>
							</g>
							<g>
								<polygon class="st5" points="120.8,123.7 117.1,121.6 117.1,121.1 123.2,121.9 123.2,122.4 								"/>
								<polygon class="st6" points="120.8,123.3 117.1,121.1 119.5,119.8 123.2,121.9 								"/>
							</g>
							<g>
								<polygon class="st5" points="124.8,126.1 121.1,123.9 121.1,123.4 127.2,124.2 127.2,124.7 								"/>
								<polygon class="st6" points="124.8,125.6 121.1,123.4 123.5,122.1 127.2,124.2 								"/>
							</g>
							<g>
								<polygon class="st5" points="128.8,128.4 125.1,126.2 125.1,125.7 131.2,126.5 131.2,127 								"/>
								<polygon class="st6" points="128.8,127.9 125.1,125.7 127.5,124.4 131.2,126.5 								"/>
							</g>
							<g>
								<polygon class="st5" points="132.4,130.4 129.1,128.5 129.1,128.1 134.8,128.6 134.8,129 								"/>
								<polygon class="st6" points="132.4,130 129.1,128.1 131.5,126.7 134.8,128.6 								"/>
							</g>
						</g>
						<g>
							<g>
								<polygon class="st5" points="84,106.1 77.7,102.4 77.7,102 86.4,104.3 86.4,104.7 								"/>
								<polygon class="st6" points="84,105.7 77.7,102 80.1,100.6 86.4,104.3 								"/>
							</g>
							<g>
								<polygon class="st5" points="88,108.4 84.3,106.3 84.3,105.8 90.4,106.6 90.4,107 								"/>
								<polygon class="st6" points="88,108 84.3,105.8 86.7,104.4 90.4,106.6 								"/>
							</g>
							<g>
								<polygon class="st5" points="92,110.7 88.3,108.6 88.3,108.1 94.4,108.9 94.4,109.3 								"/>
								<polygon class="st6" points="92,110.3 88.3,108.1 90.7,106.7 94.4,108.9 								"/>
							</g>
							<g>
								<polygon class="st5" points="96,113 92.3,110.9 92.3,110.4 98.4,111.2 98.4,111.6 								"/>
								<polygon class="st6" points="96,112.6 92.3,110.4 94.7,109 98.4,111.2 								"/>
							</g>
							<g>
								<polygon class="st5" points="100,115.3 96.3,113.2 96.3,112.7 102.4,113.5 102.4,113.9 								"/>
								<polygon class="st6" points="100,114.9 96.3,112.7 98.7,111.3 102.4,113.5 								"/>
							</g>
							<g>
								<polygon class="st5" points="104,117.6 100.2,115.5 100.2,115 106.4,115.8 106.4,116.2 								"/>
								<polygon class="st6" points="104,117.2 100.2,115 102.6,113.6 106.4,115.8 								"/>
							</g>
							<g>
								<polygon class="st5" points="107.9,119.9 104.2,117.8 104.2,117.3 110.3,118.1 110.3,118.5 								"/>
								<polygon class="st6" points="107.9,119.5 104.2,117.3 106.6,115.9 110.3,118.1 								"/>
							</g>
							<g>
								<polygon class="st5" points="111.9,122.2 108.2,120.1 108.2,119.6 114.3,120.4 114.3,120.8 								"/>
								<polygon class="st6" points="111.9,121.8 108.2,119.6 110.6,118.2 114.3,120.4 								"/>
							</g>
							<g>
								<polygon class="st5" points="115.9,124.5 112.2,122.4 112.2,121.9 118.3,122.7 118.3,123.1 								"/>
								<polygon class="st6" points="115.9,124.1 112.2,121.9 114.6,120.5 118.3,122.7 								"/>
							</g>
							<g>
								<polygon class="st5" points="119.9,126.8 116.2,124.7 116.2,124.2 122.3,125 122.3,125.4 								"/>
								<polygon class="st6" points="119.9,126.4 116.2,124.2 118.6,122.8 122.3,125 								"/>
							</g>
							<g>
								<polygon class="st5" points="123.9,129.1 120.2,127 120.2,126.5 126.3,127.3 126.3,127.8 								"/>
								<polygon class="st6" points="123.9,128.7 120.2,126.5 122.6,125.1 126.3,127.3 								"/>
							</g>
							<g>
								<polygon class="st5" points="129.3,132.2 124.1,129.3 124.1,128.8 131.7,130.4 131.7,130.8 								"/>
								<polygon class="st6" points="129.3,131.8 124.1,128.8 126.5,127.4 131.7,130.4 								"/>
							</g>
						</g>
						<g>
							<g>
								<polygon class="st5" points="79.1,106.9 74.6,104.2 74.6,103.8 81.5,105 81.5,105.5 								"/>
								<polygon class="st6" points="79.1,106.4 74.6,103.8 77,102.4 81.5,105 								"/>
							</g>
							<g>
								<polygon class="st5" points="83.1,109.2 79.4,107 79.4,106.6 85.5,107.3 85.5,107.8 								"/>
								<polygon class="st6" points="83.1,108.7 79.4,106.6 81.8,105.2 85.5,107.3 								"/>
							</g>
							<g>
								<polygon class="st5" points="87.1,111.5 83.4,109.3 83.4,108.9 89.5,109.6 89.5,110.1 								"/>
								<polygon class="st6" points="87.1,111 83.4,108.9 85.8,107.5 89.5,109.6 								"/>
							</g>
							<g>
								<polygon class="st5" points="110.9,125.3 87.3,111.6 87.3,111.2 113.3,123.4 113.3,123.9 								"/>
								<polygon class="st6" points="110.9,124.8 87.3,111.2 89.8,109.8 113.3,123.4 								"/>
							</g>
							<g>
								<polygon class="st5" points="115,127.6 111.2,125.5 111.2,125 117.4,125.8 117.4,126.2 								"/>
								<polygon class="st6" points="115,127.1 111.2,125 113.6,123.6 117.4,125.8 								"/>
							</g>
							<g>
								<polygon class="st5" points="118.9,129.9 115.2,127.8 115.2,127.3 121.4,128.1 121.4,128.5 								"/>
								<polygon class="st6" points="118.9,129.4 115.2,127.3 117.6,125.9 121.4,128.1 								"/>
							</g>
							<g>
								<polygon class="st5" points="122.9,132.2 119.2,130.1 119.2,129.6 125.3,130.4 125.3,130.8 								"/>
								<polygon class="st6" points="122.9,131.8 119.2,129.6 121.6,128.2 125.3,130.4 								"/>
							</g>
							<g>
								<polygon class="st5" points="126.1,134 123.2,132.4 123.2,131.9 128.5,132.2 128.5,132.7 								"/>
								<polygon class="st6" points="126.1,133.6 123.2,131.9 125.6,130.5 128.5,132.2 								"/>
							</g>
						</g>
					</g>
				</g>
			</g>
			<g>
				<g>
					<path class="st7" d="M114,95.3L114,95.3v-2.6l1.8,0.9l3.2-1.9c1.1-0.6,2.8-0.6,3.8,0l32.6,18.8l1.9-0.9v2.5l0,0
						c0,0.4-0.2,0.9-0.8,1.2l-4.3,2.5c-1.1,0.6-2.8,0.6-3.8,0l-33.6-19.4C114.3,96.2,114,95.7,114,95.3z"/>
					<path class="st7" d="M155.5,110.6l1.9-0.9v2.5l0,0c0,0.4-0.2,0.9-0.8,1.2l-4.3,2.5c-0.5,0.3-1.2,0.4-1.9,0.5v-8.7L155.5,110.6z
						"/>
					<path class="st3" d="M152.3,113.2c-1.1,0.6-2.8,0.6-3.8,0l-33.6-19.4c-1.1-0.6-1.1-1.6,0-2.2l4.3-2.5c1.1-0.6,2.8-0.6,3.8,0
						l33.6,19.4c1.1,0.6,1.1,1.6,0,2.2L152.3,113.2z"/>
				</g>
				<g>
					<polygon class="st3" points="142.1,106.5 144.4,105.2 144.4,93.2 129.3,84.4 					"/>
					<polygon class="st3" points="127,97.7 142.1,106.5 142.1,94.5 127,85.8 					"/>
				</g>
				<path class="st3" d="M102,22.4l2.2-1.3c0,0,0.1-0.1,0.2-0.1l0,0l0,0c0.2-0.1,0.5,0,0.8,0.1l63.3,36.6c0.7,0.4,1.2,1.3,1.2,2.1
					v48.6c0,0.4-0.1,0.7-0.4,0.8h-0.1l-2.2,1.3l-0.5-2.4l0.7,0.3l-62.1-35.8c-0.7-0.4-1.2-1.3-1.2-2.1V23.7L102,22.4z"/>
				<path class="st3" d="M104.2,21.1c0,0,0.1-0.1,0.2-0.1l0,0l0,0c0.2-0.1,0.5,0,0.8,0.1l63.3,36.6c0.3,0.2,0.6,0.4,0.8,0.8
					L127,85.2l-21.8-12.6c-0.7-0.4-1.2-1.3-1.2-2.1V23.7l-1.9-1.3L104.2,21.1z"/>
				<path class="st8" d="M101.7,71.8c0,0.8,0.5,1.7,1.2,2.1l63.3,36.6c0.7,0.4,1.2,0.1,1.2-0.7V61.1c0-0.8-0.6-1.7-1.2-2.1
					l-63.3-36.6c-0.7-0.4-1.2-0.1-1.2,0.7V71.8z"/>
				<polygon class="st9" points="102.9,68.2 166.3,104.8 166.3,61.1 102.9,24.5 				"/>
				<polygon class="st10" points="103.5,24.8 103.5,67.8 166.3,104 166.3,104.8 102.9,68.2 102.9,24.5 				"/>
			</g>
		</g>
	</g>
	<g>
		<g>
			<path class="st11" d="M62.7,99.9c2.9,1.7,7.6,1.7,10.5,0c2.9-1.7,2.9-4.4,0-6.1s-7.6-1.7-10.5,0C59.8,95.5,59.8,98.3,62.7,99.9z"
				/>
			<path class="st6" d="M62.7,99.6c2.9,1.7,7.6,1.7,10.5,0c2.9-1.7,2.9-4.4,0-6.1s-7.6-1.7-10.5,0C59.8,95.2,59.8,97.9,62.7,99.6z"
				/>
		</g>
		<g>
			<g>
				<path class="st12" d="M62.5,95.5c-1.4-0.4-2.5-1.8-2.5-3.3v-3.4c0-1.2,0.9-2.1,2-2.1c0.2,0,0.5,0,0.8,0.1
					c1.4,0.4,2.5,1.8,2.5,3.3v3.4c0,1.2-0.9,2.1-2,2.1C63,95.6,62.8,95.6,62.5,95.5z M61,88.9v3.4c0,0.9,0.8,2,1.8,2.3
					c0.2,0,0.3,0.1,0.5,0.1c0.6,0,1-0.4,1-1.1v-3.4c0-0.9-0.8-2-1.8-2.3c-0.2,0-0.3-0.1-0.5-0.1C61.4,87.8,61,88.2,61,88.9z"/>
			</g>
			<path class="st13" d="M63.6,96.1v-8.3h8.9v8.3c0,0.7-0.4,1.3-1.3,1.8c-1.7,1-4.5,1-6.3,0C64,97.4,63.6,96.8,63.6,96.1z"/>
			<path class="st14" d="M64.9,89.7c1.7,1,4.5,1,6.3,0c1.7-1,1.7-2.6,0-3.6s-4.5-1-6.3,0C63.1,87,63.1,88.7,64.9,89.7z"/>
			<path class="st14" d="M64.9,89.7c1.7,1,4.5,1,6.3,0c1.7-1,1.7-2.6,0-3.6s-4.5-1-6.3,0C63.1,87,63.1,88.7,64.9,89.7z"/>
			<path class="st15" d="M72.2,88.7c-0.2,0.3-0.6,0.6-1,0.9c-1.7,1-4.5,1-6.3,0c-0.5-0.3-0.8-0.6-1-0.9c0.2-0.4,0.6-0.8,1.1-1.2
				c1.7-1,4.4-1,6.1,0C71.6,87.9,72,88.3,72.2,88.7z"/>
		</g>
	</g>
	<g>
		<g>
			<path class="st16" d="M80.2,182.3c0,0-2.2,0.7-2.3,4.5c-0.1,3.9-0.3,7.1,2.3,7.2c2.6,0.2,7.1-2.3,8.5-2.4
				c1.4-0.1,11.2-1.3,10.6-5.1s-3.4-4.3-7.1-3.2c-3.8,1.1-4.1-1.6-5-1.6L80.2,182.3z"/>
			<path class="st17" d="M99.9,187.6c-0.2-1.1-0.5-1.3-0.5-1.3c0.6,3.8-9.2,5-10.6,5.1s-5.9,2.5-8.5,2.4c-1.9-0.1-2.3-1.9-2.4-4.4
				c-0.6,3.4-0.2,5.6,2.4,5.9c3.1,0.4,7.4-2.7,8.8-2.8C90.5,192.3,100.5,191.3,99.9,187.6z"/>
			<path class="st16" d="M94.7,190.4c0,0-2.2,0.7-2.3,4.5c-0.1,3.9-0.3,7.1,2.3,7.2c2.6,0.2,7.1-2.3,8.5-2.4
				c1.4-0.1,11.2-1.3,10.6-5.1s-3.4-4.3-7.1-3.2c-3.8,1.1-4.1-1.6-5-1.6L94.7,190.4z"/>
			<path class="st17" d="M114.3,195.8c-0.2-1.1-0.5-1.3-0.5-1.3c0.6,3.8-9.2,5-10.6,5.1s-5.9,2.5-8.5,2.4c-1.9-0.1-2.3-1.9-2.4-4.4
				c-0.6,3.4-0.2,5.6,2.4,5.9c3.1,0.4,7.4-2.7,8.8-2.8C105,200.5,114.9,199.5,114.3,195.8z"/>
			<path class="st18" d="M94.7,183.6c0,0,0,6.9,0,7.8c0,0.9,5.1,2.3,7-0.9v-9.6L94.7,183.6z"/>
			<path class="st19" d="M92.9,186.2c0,0,0.3-1,0.9-0.8c1.7,0.5,9-3.3,10.4-2.1l0.2,3.5c0,0-5.2,6.1-11.7,2.4L92.9,186.2z"/>
			<path class="st20" d="M93.6,183.9v1.8c0,0,4.5,2.4,9.9-2v-3.6L93.6,183.9z"/>
		</g>
		<g>
			<path class="st21" d="M23.8,126.8c0.7-8.7,5.3-8.9,7.4-7.8s24.5,15.6,25.9,17.8c1.6,2.7,5,29.3,14.2,29.2
				c7.3-0.1,6.4-8.3,11.2-10.4c4.9-2.1,24.9-9,29.2-7.9s5.5,5.6,5.1,9.6c-0.4,3.9-1.1,18-4.2,18.6c-0.9,0.2-43.1,19.9-61,10.7
				s-25.8-17.8-26.7-32.8C24,138.7,23.8,126.8,23.8,126.8z"/>
			<path class="st22" d="M111,149.5c-4.3-1.1-22.6,6.6-27.5,8.7c-4.9,2.1-4.3,9.8-13.5,10s-13.4-27.3-15-29.9
				c-1.4-2.2-22.9-16-25-17.1s-6,0.4-6.2,6.8c0,0-0.9,13,0,28c0.4,6.3,2,11.4,5.1,15.9c-1,2-16.2,34.3-16.5,35.4
				c-0.2,1.1,1,2.1,1.9,1c0.8-0.9,13.3-27.3,16.7-33.7c4.3,5.1,10.7,9.5,19.6,14.1c4,2.1,9.4,2.6,15.2,2.1h-0.1c0,0,1.3,36.9,1.7,38
				c0.4,1.1,2,1.4,2.3,0S69,190.5,69,190.5l0,0c9.9-1.3,20.8-4.9,29.3-8.2c1,2.4,10.9,25.4,11.5,26.3c0.6,0.9,1.6,0.2,1.5-0.7
				s-10.1-24.9-10.7-26.5c7.1-2.9,12-5.3,12.2-5.5c0.8-0.6,2.6-13.7,3-17.7S115.3,150.6,111,149.5z"/>
			<g>
				<path class="st21" d="M68.5,229.7c0.5,0,0.9-0.3,1.1-1c0.3-1.4-0.7-38.3-0.7-38.3l-1.8,0.2L68.5,229.7z"/>
				<path class="st21" d="M110.6,208.8c-0.3,0.2-0.7,0.1-1-0.3c-0.6-0.9-11.5-26.3-11.5-26.3l1.2-0.5L110.6,208.8z"/>
				<path class="st21" d="M12.8,208.5c0.4,0.2,0.9,0.2,1.3-0.3c0.9-1.1,16.7-33.7,16.7-33.7l-1.1-1.5L12.8,208.5z"/>
			</g>
		</g>
		<g>
			<path class="st23" d="M66.2,143.3c0,0,19.9-8.8,23.5-8.8s6.1,1,6.3,7.1l-29,14.9L66.2,143.3z"/>
			<path class="st24" d="M71.2,166c7.3-0.1,6.4-8.3,11.2-10.4c2.9-1.2,11-4.1,18.1-6.1c0-5.7-1.4-6.8-4.5-8
				c-3.1-1.1-23.1,8.5-26.5,10.4l-5.4,7.8C66,163.4,68.3,166,71.2,166z"/>
			<path class="st25" d="M80.7,124.9c0,0,5.6,6,7.2,7.1c1.6,1,10.8,1.3,15.3-2.6c3.2-2.8,2.2-2.5,3.2-4.5c1.5-3.4,4.4-6.5,8.4-5.2
				c3.9,1.2-0.9,6.2-3.4,9c-2.8,3-15.6,9.9-21.5,11.4c-5.9,1.4-9-3-14.1-10.6L80.7,124.9z"/>
			<path class="st25" d="M76.3,112.1c0,0,0.9-2.6,1.2-4.7c0.4-2.1,5.5-6,6.9-5.9s3.7,1.1,2.3,4.4s-7.1,4.1-7.2,10L76.3,112.1z"/>
			<path class="st26" d="M57,136.8c1.1,1.8,2.9,14.3,7.1,23c3.3-0.7,5.3-2.9,4.8-6.1c-2.6-16.7,2.9-20,5-22.7c1.7-2.1,2.6,2,3.4,1.8
				c3.8-0.7,5.9-3.3,5.8-6.2c0-0.9-2-3.8-2.1-5c-0.8-8.4-7.4-12.5-13.3-12.8c-5.9-0.2-6.9-3.2-10.9-5.8c-4-2.6-10.6-4.1-11.8,1.3
				c-1.5,6.9-1.4,15.2-0.7,23.2C50.5,131.6,56.3,135.7,57,136.8z"/>
			<path class="st27" d="M57.6,103.5l1.7-1.7c0,0,4.5,4.6,8.3,4.6l1.3,2.8C68.8,109.2,61.2,110.2,57.6,103.5z"/>
			<path class="st27" d="M76.5,131.9c0.3,0.5,0.6,1,0.9,1c3.8-0.7,5.9-3.3,5.8-6.2c0-0.2-0.1-0.6-0.3-1.1
				C81.3,131,77.4,131.8,76.5,131.9z"/>
			<path class="st28" d="M75.1,83.4c0,0,2.6-1.1,1.4-5.4c-1.1-3.9-8-2.7-14-2.1c-5.7,0.6-10.2,0.5-11.7,8.4
				c-2.5,13.2,9.3,16.1,10.7,16.9C62.9,101.9,75.1,83.4,75.1,83.4z"/>
			<path class="st25" d="M60.5,102.9c0,0,0.6-1.2,1-1.8c0.4-0.6,3.2-3.2,2.9-6c-0.3-0.9-0.9,0.3-1.6,0c-0.5-0.2-0.8-0.7-0.7-2.4
				c0.3-3.5,2-2,2.6-1.9s0.9-6.1,5-7.3c4.1-1.2,5.8-0.6,6.3,1.9c1,5.1,0,18-4.6,17.4c-3.6-1.9-2.5-0.5-3.2,0.8s-1.2,2.7-1.2,2.7
				S65,106.5,60.5,102.9z"/>
			<path class="st26" d="M78,88.4l-1.7-0.5c0,0,0,0.3,0,0.7l1.2,0.3c0,0,0.6,0,0.5,1.4c-0.2,1.9-1.2,2.3-1.7,2.4
				c0,0.2,0,0.4-0.1,0.6c0,0,2,0.2,2.3-3.1C78.8,88.4,78,88.4,78,88.4z"/>
			<path class="st26" d="M63.8,89.6c0,0,13.6-1.2,14.2-1.2s0.8,1.5,0,2c-0.6,0.4-13.2,0.4-13.2,0.4s-1.1-0.5-1.6-0.4
				C63.2,90.5,62.9,89.7,63.8,89.6z"/>
		</g>
	</g>
</g>
<g>
	<g>
		<g class="st29">
			<g>
				<polygon class="st30" points="117.4,52.6 118.7,51.8 118.8,38 117.4,38.8 				"/>
			</g>
			<g>
				<polygon class="st31" points="117.4,38.8 118.8,38 106.2,30.8 104.8,31.6 				"/>
			</g>
			<g>
				<polygon class="st32" points="104.8,31.6 104.8,45.3 117.4,52.6 117.4,38.8 				"/>
			</g>
		</g>
	</g>
	<g>
		<polygon class="st33" points="115.8,50.3 106.2,44.8 106.2,33.8 115.8,39.3 		"/>
	</g>
	<g>
		<g>
			<path class="st31" d="M108.2,40.5c-0.1,0-0.1,0-0.6,0.3c-0.2,0.1-0.2,0.6,0,1s0.3,0.6,0.5,0.9c-0.1,0.1-0.2,0.1-0.3,0.2
				c-0.2,0.1-0.2,0.4,0,0.7c0.1,0.3,0.2,0.4,0.4,0.6c0.2,0.3,0.5,0.5,0.6,0.4s0.2-0.1,0.3-0.2c0.2,0.3,0.3,0.4,0.4,0.7
				c0.2,0.4,0.6,0.6,0.8,0.5c0.6-0.3,0.6-0.3,0.6-0.4C109.8,43.4,109.3,42.4,108.2,40.5z"/>
			<path class="st31" d="M114.5,42.3c-0.2-0.4-0.3-0.6-0.5-0.9c0.1-0.1,0.2-0.1,0.3-0.2c0.2-0.1,0.2-0.4,0-0.7
				c-0.1-0.3-0.2-0.4-0.4-0.6c-0.2-0.3-0.5-0.5-0.6-0.4s-0.2,0.1-0.3,0.2c-0.2-0.3-0.3-0.4-0.4-0.7c-0.2-0.4-0.6-0.6-0.8-0.5
				c-0.6,0.3-0.6,0.3-0.6,0.4c1.1,1.9,1.7,2.9,2.8,4.8c0.1,0,0.1,0,0.6-0.3C114.7,43.2,114.7,42.7,114.5,42.3L114.5,42.3z"/>
			<path class="st31" d="M109.4,42c0.9-0.5,1.4-0.8,2.3-1.3c0.4,0.6,0.5,0.9,0.9,1.6c-0.9,0.5-1.4,0.8-2.3,1.3
				C110,42.9,109.8,42.6,109.4,42z"/>
		</g>
	</g>
</g>
<g>
	<g>
		<g class="st29">
			<g>
				<polygon class="st34" points="132.5,61.4 133.8,60.6 133.9,46.9 132.5,47.7 				"/>
			</g>
			<g>
				<polygon class="st31" points="132.5,47.7 133.9,46.9 121.3,39.6 119.9,40.4 				"/>
			</g>
			<g>
				<polygon class="st35" points="119.9,40.4 119.9,54.2 132.5,61.4 132.5,47.7 				"/>
			</g>
		</g>
	</g>
	<g>
		<polygon class="st36" points="130.9,59.2 121.3,53.7 121.3,42.6 130.9,48.2 		"/>
	</g>
	<g>
		<g>
			<path class="st31" d="M127,49.2c-0.1-0.1-0.3-0.3-0.3-0.5s0-0.3,0-0.5c-0.4-0.2-0.6-0.4-1.1-0.6c0,0.2,0,0.3,0,0.5
				s-0.1,0.3-0.3,0.2c-0.1-0.1-0.3-0.3-0.3-0.5s0-0.3,0-0.5c0-0.4,0.2-0.6,0.5-0.4c0.4,0.2,0.6,0.4,1.1,0.6c0.3,0.2,0.5,0.6,0.5,1
				c0,0.2,0,0.3,0,0.5C127.3,49.2,127.1,49.3,127,49.2z"/>
			<path class="st31" d="M126.4,52.1c0,0-0.1,0-0.2-0.1c-0.1,0-0.1-0.1-0.2-0.2c-1.2-1.2-1.8-1.8-3-3.1c0,1.1,0,1.7,0,2.8
				c0,0.6,0.3,1.2,0.7,1.4c2,1.1,2.9,1.7,4.9,2.8c0.4,0.2,0.7,0,0.7-0.6c0-1.1,0-1.7,0-2.8C128.2,52.3,127.6,52.3,126.4,52.1z"/>
			<path class="st31" d="M129.4,51.1c0,0.3,0,0.5,0,0.8c-1.2-0.1-1.9-0.2-3.1-0.4c0,0,0,0-0.1,0c0,0,0,0-0.1-0.1
				c-1.2-1.3-1.9-1.9-3.1-3.2c0-0.3,0-0.5,0-0.8c0-0.6,0.3-0.8,0.7-0.6c2,1.1,2.9,1.7,4.9,2.8C129,49.9,129.4,50.5,129.4,51.1z"/>
		</g>
	</g>
</g>
<g>
	<g>
		<g class="st29">
			<g>
				<polygon class="st37" points="147.5,70.1 148.9,69.3 148.9,55.5 147.6,56.3 				"/>
			</g>
			<g>
				<polygon class="st31" points="147.6,56.3 148.9,55.5 136.4,48.3 135,49.1 				"/>
			</g>
			<g>
				<polygon class="st38" points="135,49.1 135,62.8 147.5,70.1 147.6,56.3 				"/>
			</g>
		</g>
	</g>
	<g>
		<polygon class="st39" points="145.9,67.8 136.4,62.3 136.4,51.3 145.9,56.8 		"/>
	</g>
	<g>
		<g>
			<path class="st31" d="M143.7,58.7c-0.8-2.9-2.1-1.9-2.1-1.9c-0.1,0.1-0.2,0.1-0.3,0s-0.2-0.1-0.3-0.2c-0.1-0.1-0.3-0.2-0.3-0.4
				c0,0-1.3-2.4-2.1-0.5s-0.5,4.7-0.5,4.7c0.1,0.7,0.3,1.2,0.6,1.4c0.4,0.2,1.2-1,1.2-1c0.1-0.1,0.2-0.1,0.3-0.1
				c0.8,0.5,1.2,0.7,2,1.2c0.1,0.1,0.2,0.2,0.3,0.4c0,0,0.8,2.1,1.2,2.4s0.6,0,0.6-0.6C144.2,64,144.6,61.6,143.7,58.7z M140.4,58.7
				c-0.2-0.1-0.3-0.1-0.4-0.2c0,0.3,0,0.4,0,0.7c0,0-0.1,0.1-0.2,0c-0.1-0.1-0.2-0.3-0.2-0.3c0-0.3,0-0.4,0-0.7
				c-0.2-0.1-0.2-0.1-0.4-0.2c0,0-0.1-0.1-0.1-0.4c0-0.2,0.1-0.4,0.1-0.4c0.2,0.1,0.3,0.1,0.4,0.2c0-0.3,0-0.5,0-0.8
				c0,0,0.1,0,0.2,0c0.1,0.1,0.2,0.2,0.2,0.2c0,0.3,0,0.4,0,0.7c0.2,0.1,0.2,0.1,0.4,0.2c0,0,0.1,0.2,0.1,0.4
				C140.5,58.6,140.4,58.7,140.4,58.7z M142.4,60.7c-0.2-0.1-0.3-0.5-0.3-0.8s0.2-0.5,0.3-0.4c0.2,0.1,0.3,0.5,0.3,0.8
				S142.6,60.8,142.4,60.7z M142.4,59.1c-0.2-0.1-0.3-0.5-0.3-0.8s0.2-0.5,0.3-0.4c0.2,0.1,0.3,0.5,0.3,0.8
				C142.7,59,142.6,59.2,142.4,59.1z M143.2,60.4c-0.2-0.1-0.3-0.5-0.3-0.8s0.2-0.5,0.3-0.4c0.2,0.1,0.3,0.5,0.3,0.8
				C143.6,60.4,143.4,60.5,143.2,60.4z"/>
		</g>
	</g>
</g>
<g>
	<g>
		<g class="st29">
			<g>
				<polygon class="st40" points="162.6,78.9 164,78.1 164,64.4 162.7,65.2 				"/>
			</g>
			<g>
				<polygon class="st31" points="162.7,65.2 164,64.4 151.5,57.1 150.1,57.9 				"/>
			</g>
			<g>
				<polygon class="st41" points="150.1,57.9 150,71.7 162.6,78.9 162.7,65.2 				"/>
			</g>
		</g>
	</g>
	<g>
		<polygon class="st42" points="161,76.7 151.5,71.2 151.5,60.2 161,65.7 		"/>
	</g>
	<g>
		<path class="st31" d="M158.5,66.9c-0.2-0.1-0.3-0.2-0.5-0.3c-0.2-0.5-0.2-0.7-0.4-1.2c-1.1-0.6-1.7-1-2.8-1.6
			c-0.2,0.3-0.2,0.5-0.4,0.8c-0.2-0.1-0.3-0.2-0.5-0.3c-0.4-0.2-0.8,0-0.8,0.6c0,1.6,0,2.4,0,4c0,0.6,0.3,1.2,0.8,1.4
			c1.8,1.1,2.7,1.6,4.6,2.6c0.4,0.2,0.8,0,0.8-0.6c0-1.6,0-2.4,0-4C159.3,67.8,159,67.1,158.5,66.9z M156.3,70.3
			c-0.8-0.5-1.5-1.8-1.5-2.9s0.7-1.6,1.5-1.1s1.5,1.8,1.5,2.9S157.1,70.8,156.3,70.3L156.3,70.3z"/>
	</g>
</g>
<g>
	<g>
		<g class="st29">
			<g>
				<polygon class="st43" points="117.4,69.3 118.7,68.5 118.8,54.8 117.4,55.6 				"/>
			</g>
			<g>
				<polygon class="st31" points="117.4,55.6 118.8,54.8 106.2,47.5 104.8,48.3 				"/>
			</g>
			<g>
				<polygon class="st44" points="104.8,48.3 104.8,62.1 117.4,69.3 117.4,55.6 				"/>
			</g>
		</g>
	</g>
	<g>
		<polygon class="st45" points="115.8,67.1 106.2,61.6 106.2,50.6 115.8,56.1 		"/>
	</g>
	<g>
		<g>
			<g>
				<path class="st31" d="M113.8,59.6c-0.2-0.1-0.3-0.2-0.5-0.3c0-0.2,0-0.3,0-0.6c0-1.1-1-2.6-2.3-3.3s-2.3-0.4-2.3,0.7
					c0,0.2,0,0.3,0,0.6c-0.2-0.1-0.3-0.2-0.5-0.3c-0.1-0.1-0.2,0-0.2,0c0,1.4,0,2.2,0,3.6c0,0.3,0.3,0.7,0.7,1
					c1.9,1.1,2.8,1.6,4.6,2.7c0.4,0.2,0.7,0.1,0.7-0.2c0-1.4,0-2.2,0-3.6C114,59.8,113.9,59.6,113.8,59.6z M111.5,61.3L111.5,61.3
					c-0.1,0.1-0.1,0.1-0.2,0.1c-0.3-0.2-0.4-0.2-0.7-0.4l-0.1-0.1v-0.1c0-0.3,0.1-0.5,0.1-0.8c-0.2-0.2-0.3-0.4-0.3-0.6
					c0-0.3,0.3-0.4,0.7-0.2c0.4,0.2,0.7,0.6,0.7,1c0,0.2-0.1,0.3-0.3,0.3C111.4,60.7,111.5,60.9,111.5,61.3z M112.3,58.7
					c-1.1-0.6-1.6-0.9-2.7-1.5c0-0.2,0-0.3,0-0.6c0-0.6,0.6-0.8,1.3-0.4c0.7,0.4,1.3,1.3,1.3,1.9C112.3,58.4,112.3,58.5,112.3,58.7z
					"/>
			</g>
		</g>
	</g>
</g>
<g>
	<g>
		<g class="st29">
			<g>
				<polygon class="st46" points="132.5,78.2 133.8,77.4 133.9,63.6 132.5,64.4 				"/>
			</g>
			<g>
				<polygon class="st31" points="132.5,64.4 133.9,63.6 121.3,56.4 119.9,57.2 				"/>
			</g>
			<g>
				<polygon class="st47" points="119.9,57.2 119.9,70.9 132.5,78.2 132.5,64.4 				"/>
			</g>
		</g>
	</g>
	<polygon class="st48" points="130.9,75.9 121.3,70.4 121.3,59.4 130.9,64.9 	"/>
	<g>
		<g>
			<g>
				<g>
					<path class="st31" d="M128.8,66c-0.7-1.2-1.8-1.8-2.5-1.4c-0.6,0.3-0.9,0.5-1.5,0.8c0.7,1.1,1,1.7,1.7,2.9
						c0.3-0.1,0.8-0.1,1.2,0.2c0.3,0.2,0.5,0.4,0.8,0.6c0.1-0.1,0.2-0.1,0.3-0.2C129.5,68.5,129.5,67.2,128.8,66z"/>
				</g>
			</g>
			<g>
				<g>
					<path class="st31" d="M126.2,68.5c-0.7-1.1-1-1.7-1.7-2.9c-0.6,0.3-0.9,0.5-1.4,0.8c-0.7,0.4-0.7,1.7,0,2.9
						c0.7,1.2,1.8,1.9,2.5,1.5c0.1-0.1,0.2-0.1,0.3-0.2c-0.1-0.3-0.2-0.7-0.2-1C125.8,69.1,126,68.7,126.2,68.5z"/>
				</g>
			</g>
			<g>
				<g>
					<path class="st31" d="M126.2,69.8c0,0.9,0.6,2,1.4,2.6c0-1.4,0-2.1,0-3.6C126.8,68.5,126.2,68.9,126.2,69.8z"/>
				</g>
			</g>
			<g>
				<g>
					<path class="st31" d="M127.9,69.1c0,1.4,0,2.1,0,3.6c0.8,0.3,1.4-0.1,1.4-1S128.7,69.6,127.9,69.1z"/>
				</g>
			</g>
		</g>
	</g>
</g>
<g>
	<g>
		<g class="st29">
			<g>
				<polygon class="st49" points="147.5,86.8 148.9,86.1 148.9,72.3 147.6,73.1 				"/>
			</g>
			<g>
				<polygon class="st31" points="147.6,73.1 148.9,72.3 136.4,65 135,65.8 				"/>
			</g>
			<g>
				<polygon class="st50" points="135,65.8 135,79.6 147.5,86.8 147.6,73.1 				"/>
			</g>
		</g>
	</g>
	<g>
		<polygon class="st51" points="145.9,84.6 136.4,79.1 136.4,68.1 145.9,73.6 		"/>
	</g>
	<g>
		<g>
			<g>
				<g>
					<path class="st31" d="M144.1,80.6c-1-1.7-1.5-2.6-2.5-4.3c-1.2-2-1.7-3-2.9-5c-0.1-0.1-0.1-0.1-0.2-0.1v0.1
						c-0.1,0.3-0.2,0.6-0.2,1s0.2,0.8,0.4,1.2c0.9,1.6,1.4,2.3,2.3,3.9c0.1-0.1,0.2-0.1,0.3-0.2c0.8,1.6,1.2,2.3,2.1,3.9
						c0.2,0.4,0.6,0.6,0.8,0.5C144.4,81.4,144.4,81,144.1,80.6z"/>
				</g>
			</g>
			<g>
				<g>
					<path class="st31" d="M139.9,76.1c-0.7,0.4-1.1,0.6-1.8,1c-0.2,0.1-0.2,0.5,0,0.9s0.6,0.6,0.8,0.5c0.7-0.4,1.1-0.6,1.8-1
						C140.4,77,140.3,76.7,139.9,76.1z"/>
				</g>
			</g>
			<g>
				<g>
					<path class="st31" d="M144,75.6c-0.4,0.2-0.6,0.3-1,0.6c-0.1-0.2-0.2-0.3-0.3-0.5c0.4-0.2,0.6-0.3,1-0.6
						c-0.1-0.2-0.2-0.3-0.3-0.5c-0.4,0.2-0.6,0.3-1,0.6c-0.1-0.2-0.2-0.3-0.3-0.5c0.4-0.2,0.6-0.3,1-0.6c-0.1-0.2-0.2-0.3-0.3-0.5
						c-0.5,0.3-0.8,0.5-1.3,0.8c-0.2,0.1-0.3,0.3-0.3,0.5c0,0.1,0,0.1,0,0.2c0.3,0.6,0.5,0.9,0.8,1.5c0.1,0,0.1,0,0.2,0.1
						c0.2,0.1,0.4,0.1,0.6,0c0.5-0.3,0.8-0.5,1.3-0.8C144.2,75.9,144.1,75.8,144,75.6z"/>
				</g>
			</g>
		</g>
	</g>
</g>
<g>
	<g>
		<g class="st29">
			<g>
				<polygon class="st52" points="162.6,95.7 164,94.9 164,81.1 162.7,81.9 				"/>
			</g>
			<g>
				<polygon class="st31" points="162.7,81.9 164,81.1 151.5,73.9 150.1,74.7 				"/>
			</g>
			<g>
				<polygon class="st53" points="150.1,74.7 150,88.4 162.6,95.7 162.7,81.9 				"/>
			</g>
		</g>
	</g>
	<g>
		<polygon class="st54" points="161,93.4 151.5,87.9 151.5,76.9 161,82.4 		"/>
	</g>
	<g>
		<path class="st31" d="M153.4,80.3c0,2.6,0,4,0,6.6c2.3-0.2,3.4-0.2,5.7-0.4C156.8,84.1,155.7,82.8,153.4,80.3z"/>
	</g>
</g>
<g>
	<g>
		<defs>
			<rect id="SVGID_1_" x="154.1" y="122.7" width="9.7" height="12.4"/>
		</defs>
		<clipPath id="SVGID_2_">
			<use xlink:href="#SVGID_1_"  style="overflow:visible;"/>
		</clipPath>
		<path class="st55" d="M154.1,125.3v7.3c0,1.4,2.1,2.6,4.7,2.6s4.7-1.2,4.7-2.6v-7.3H154.1z"/>
	</g>
	<g>
		<defs>
			<rect id="SVGID_3_" x="154.1" y="122.7" width="9.7" height="12.4"/>
		</defs>
		<clipPath id="SVGID_4_">
			<use xlink:href="#SVGID_3_"  style="overflow:visible;"/>
		</clipPath>
		<path class="st56" d="M163.5,125.3c0,1.4-2.1,2.6-4.7,2.6c-2.6,0-4.7-1.2-4.7-2.6s2.1-2.6,4.7-2.6
			C161.4,122.7,163.5,123.9,163.5,125.3"/>
	</g>
	<g>
		<defs>
			<rect id="SVGID_5_" x="154.1" y="122.7" width="9.7" height="12.4"/>
		</defs>
		<clipPath id="SVGID_6_">
			<use xlink:href="#SVGID_5_"  style="overflow:visible;"/>
		</clipPath>
		<path class="st57" d="M158.8,127.5c1.8,0,3.3-0.6,4-1.4c-0.4-1.2-2.1-2-4-2c-2,0-3.6,0.9-4,2C155.5,127,157,127.5,158.8,127.5"/>
	</g>
	<g>
		<defs>
			<rect id="SVGID_7_" x="154.1" y="122.7" width="9.7" height="12.4"/>
		</defs>
		<clipPath id="SVGID_8_">
			<use xlink:href="#SVGID_7_"  style="overflow:visible;"/>
		</clipPath>
		<path class="st58" d="M161.6,127.8c-0.3,0-0.5,0.2-0.5,0.5c0,0.1,0,0.2,0.3,0.4c0.8,0.3,1.7,0.7,1.7,1.2v3.4
			c0,0.4-1.1-0.5-1.4-0.7c-0.3-0.1-0.5,0.2-0.5,0.5c0,0.5,1.7,1.2,1.7,1.2c0.6,0.2,1-0.2,1-0.8v-4.1
			C163.9,129,161.8,127.8,161.6,127.8"/>
	</g>
</g>
<g>
	<g>
		<defs>
			<rect id="SVGID_9_" x="84" y="69.1" width="11.1" height="18.3"/>
		</defs>
		<clipPath id="SVGID_10_">
			<use xlink:href="#SVGID_9_"  style="overflow:visible;"/>
		</clipPath>
		<path class="st59" d="M84,76.7l1,8.5c0,1.2,2,2.2,4.6,2.2c2.5,0,4.6-1,4.6-2.2l1-8.5H84z"/>
	</g>
	<g>
		<defs>
			<rect id="SVGID_11_" x="84" y="69.1" width="11.1" height="18.3"/>
		</defs>
		<clipPath id="SVGID_12_">
			<use xlink:href="#SVGID_11_"  style="overflow:visible;"/>
		</clipPath>
		<path class="st60" d="M95.1,76.7c0,1.5-2.5,2.7-5.6,2.7s-5.6-1.2-5.6-2.7s2.5-2.7,5.6-2.7C92.7,74,95.1,75.2,95.1,76.7"/>
	</g>
	<g>
		<defs>
			<rect id="SVGID_13_" x="84" y="69.1" width="11.1" height="18.3"/>
		</defs>
		<clipPath id="SVGID_14_">
			<use xlink:href="#SVGID_13_"  style="overflow:visible;"/>
		</clipPath>
		<path class="st61" d="M94.1,76.7c0,1.2-2,2.2-4.6,2.2c-2.5,0-4.6-1-4.6-2.2s2-2.2,4.6-2.2C92.1,74.4,94.1,75.4,94.1,76.7"/>
	</g>
	<g>
		<defs>
			<rect id="SVGID_15_" x="84" y="69.1" width="11.1" height="18.3"/>
		</defs>
		<clipPath id="SVGID_16_">
			<use xlink:href="#SVGID_15_"  style="overflow:visible;"/>
		</clipPath>
		<path class="st62" d="M92.2,76.3c0,0.9-1.3,1.6-2.8,1.6s-2.8-0.7-2.8-1.6s-0.5-7.2,2.8-7.2C93,69,92.2,75.4,92.2,76.3"/>
	</g>
	<g>
		<defs>
			<rect id="SVGID_17_" x="84" y="69.1" width="11.1" height="18.3"/>
		</defs>
		<clipPath id="SVGID_18_">
			<use xlink:href="#SVGID_17_"  style="overflow:visible;"/>
		</clipPath>
		<path class="st63" d="M89.4,77.9c1.6,0,2.8-0.7,2.8-1.6c0-0.7,0.5-4.9-1.1-6.6c1.8,8.4-4.5,6.6-4.5,6.6
			C86.6,77.1,87.9,77.9,89.4,77.9"/>
	</g>
</g>
</svg>
