<?xml version="1.0" encoding="utf-8"?>
<!-- Generator: Adobe Illustrator 21.0.0, SVG Export Plug-In . SVG Version: 6.00 Build 0)  -->
<svg version="1.1" id="Capa_1" xmlns="http://www.w3.org/2000/svg" xmlns:xlink="http://www.w3.org/1999/xlink" x="0px" y="0px"
	 viewBox="0 0 115 107" style="enable-background:new 0 0 115 107;" xml:space="preserve">
<style type="text/css">
	.st0{opacity:0.44;}
	.st1{fill:#666666;}
</style>
<title>tech-icon42</title>
<g id="Rounded_Rectangle_1_copy" class="st0">
	<polygon class="st1" points="50,49.2 46.5,49.2 48.2,44.8 	"/>
	<path class="st1" d="M83.7,58.6c-0.1-0.3-0.2-0.6-0.4-0.9L66.5,28.5c-1.6-2.7-5-3.6-7.8-2.1L29.5,43.3c-0.9,0.5-1.7,1.3-2.2,2.3
		c-0.9,1.7-0.9,3.8,0.1,5.5l16.8,29.2c1.6,2.7,5,3.6,7.8,2.1l29.2-16.8c1.8-1.1,2.9-3,2.8-5.1C84,59.7,83.9,59.1,83.7,58.6z
		 M56.6,53.1c1.4-0.2,1.6-0.3,1.6-1.7v-7.8c0-1.4-0.3-1.7-1.6-1.8v-0.4h5.5c3.5,0,5.4,1,5.4,3.1c0,0.8-0.3,1.6-0.8,2.1
		c-0.6,0.5-1.3,0.9-2,1l3.6,5.1c0.2,0.3,0.5,0.4,0.8,0.4v0.5h-3.7l-3.7-5.7h-0.5v3.5c0,1.3,0.2,1.5,1.6,1.6v0.5h-6.2V53.1z
		 M43.2,53.1c0.8-0.1,1.1-0.5,1.8-2.2l4-9.9h0.5l4,9.4c0.9,2.2,1.2,2.6,2,2.6v0.5h-5.8v-0.5l0.6-0.1c0.6,0,0.8-0.2,0.8-0.6
		c-0.1-0.9-0.4-1.7-0.8-2.4h-4.1l-0.2,0.6c-0.3,0.5-0.4,1.1-0.6,1.7c0,0.5,0.4,0.7,1.5,0.7v0.5h-3.7L43.2,53.1z M64.4,44.6
		c0-1.9-0.7-2.7-2.4-2.7c-0.7,0-1,0.2-1,0.8v4.6C63.5,47.2,64.4,46.8,64.4,44.6L64.4,44.6z"/>
</g>
<g id="Rounded_Rectangle_1_copy-2" class="st0">
	<polygon class="st1" points="48.2,44.8 50,49.2 46.5,49.2 	"/>
	<path class="st1" d="M84.7,57.2c-0.1-0.8-0.3-1.6-0.7-2.4L67.1,25.7c-1.6-2.7-5-3.6-7.8-2.1L30.2,40.4c-1.8,1.1-2.9,3-2.8,5.1
		c0,0.9,0.3,1.8,0.8,2.6l16.8,29.2c1.6,2.7,5.1,3.6,7.8,2.1l29.2-16.8c0.9-0.5,1.7-1.3,2.2-2.3C84.5,59.4,84.8,58.3,84.7,57.2z
		 M50.3,49.9h-4.1l-0.2,0.6c-0.3,0.6-0.4,1.1-0.6,1.7c0,0.5,0.4,0.7,1.5,0.7v0.5h-3.7V53c0.8-0.1,1.1-0.5,1.8-2.2l4-9.9h0.5l4,9.4
		c0.9,2.2,1.2,2.6,2,2.6v0.5h-5.8V53l0.6-0.1c0.6,0,0.8-0.2,0.8-0.6C50.9,51.5,50.7,50.7,50.3,49.9z M69.1,53.5h-3.7l-3.7-5.7h-0.5
		v3.5c0,1.3,0.2,1.5,1.6,1.6v0.5h-6.2V53c1.4-0.2,1.6-0.3,1.6-1.7v-7.8c0-1.4-0.3-1.7-1.6-1.8v-0.4h5.5c3.5,0,5.4,1,5.4,3.1
		c0,0.8-0.3,1.6-0.8,2.1c-0.6,0.5-1.3,0.9-2,1l3.6,5.1c0.2,0.3,0.5,0.4,0.8,0.4L69.1,53.5z M62,41.9c-0.7,0-1,0.2-1,0.8v4.6
		c2.4,0,3.3-0.5,3.3-2.7C64.4,42.7,63.7,41.9,62,41.9z"/>
</g>
<g id="Rounded_Rectangle_1_copy-3">
	<polygon class="st1" points="48.2,44.8 50,49.2 46.5,49.2 	"/>
	<path class="st1" d="M84.6,51.7L67.7,22.6c-1.6-2.7-5.1-3.6-7.8-2L30.8,37.3c-1.9,1.1-3,3.2-2.8,5.4c0,0.5,0.2,1,0.3,1.5
		c0.1,0.3,0.2,0.6,0.4,0.9l16.8,29.2c1.6,2.7,5,3.6,7.8,2.1l29.2-16.8c0.4-0.3,0.9-0.6,1.2-0.9c0.4-0.4,0.7-0.9,1-1.4
		C85.6,55.5,85.5,53.4,84.6,51.7z M55.5,53.5h-5.8v-0.5l0.6-0.1c0.6,0,0.8-0.2,0.8-0.6c-0.1-0.9-0.4-1.7-0.8-2.4h-4.1l-0.2,0.6
		c-0.3,0.5-0.4,1.1-0.6,1.7c0,0.5,0.4,0.7,1.5,0.7v0.5h-3.7V53c0.8-0.1,1.1-0.5,1.8-2.2l4-9.9h0.5l4,9.4c0.9,2.2,1.2,2.6,2,2.6V53.5
		z M69.1,53.5h-3.7l-3.7-5.7h-0.5v3.5c0,1.3,0.2,1.5,1.6,1.6v0.5h-6.2V53c1.4-0.2,1.6-0.3,1.6-1.7v-7.8c0-1.4-0.3-1.7-1.6-1.8v-0.4
		h5.5c3.5,0,5.4,1,5.4,3.1c0,0.8-0.3,1.6-0.8,2.1c-0.6,0.5-1.3,0.9-2,1l3.6,5.1c0.2,0.3,0.5,0.4,0.8,0.4L69.1,53.5z M62,41.9
		c-0.7,0-1,0.2-1,0.8v4.6c2.4,0,3.3-0.5,3.3-2.7C64.4,42.7,63.7,41.9,62,41.9z"/>
</g>
</svg>
