<?xml version="1.0" encoding="utf-8"?>
<!-- Generator: Adobe Illustrator 21.0.0, SVG Export Plug-In . SVG Version: 6.00 Build 0)  -->
<svg version="1.1" id="Capa_1" xmlns="http://www.w3.org/2000/svg" xmlns:xlink="http://www.w3.org/1999/xlink" x="0px" y="0px"
	 viewBox="0 0 115 107" style="enable-background:new 0 0 115 107;" xml:space="preserve">
<style type="text/css">
	.st0{fill:#666666;}
</style>
<title>tech-icon1</title>
<g>
	<path class="st0" d="M33.9,28.5c15.5,0,30.9,0,46.5,0c-0.1,0.7-0.1,1.5-0.2,2.1c-0.5,5.5-1,11-1.5,16.5c-0.6,6.8-1.2,13.6-1.8,20.4
		c-0.2,2.3-0.4,4.6-0.6,6.8c0,0.5-0.2,0.8-0.7,0.8c-6,1.7-12,3.4-18,5.1c-0.3,0.1-0.8,0.1-1.1,0c-6-1.7-12-3.4-18-5.1
		C38.1,75,38,74.9,38,74.4c-0.6-7.4-1.2-14.6-1.9-22c-0.7-7.8-1.4-15.5-2.1-23.4C33.9,28.9,33.9,28.8,33.9,28.5z M77.4,31.3
		c-13.6,0-27,0-40.5,0c0.2,1.8,0.3,3.7,0.5,5.5c0.4,4.3,0.8,8.5,1.1,12.8c0.5,4.8,0.8,9.7,1.3,14.6c0.2,2.7,0.5,5.4,0.7,8.1
		c0,0.4,0.1,0.7,0.6,0.8c5.2,1.5,10.4,3,15.6,4.4c0.3,0.1,0.7,0.1,1,0c5.1-1.5,10.3-2.9,15.4-4.4c0.6-0.2,0.8-0.4,0.8-1
		c0.2-1.8,0.3-3.8,0.5-5.6c0.5-4.9,0.8-9.7,1.3-14.6c0.4-4.3,0.8-8.7,1.1-12.9C76.9,36.4,77.2,33.9,77.4,31.3z"/>
	<path class="st0" d="M45.9,58.6c1.8,0,3.6,0,5.4,0c0.1,0.9,0.2,1.8,0.2,2.8c0,0.4,0.1,0.6,0.5,0.8c1.5,0.5,3.1,1.1,4.6,1.5
		c0.3,0.1,0.7,0.1,0.9,0c1.5-0.5,3.1-1.1,4.7-1.6c0.2-0.1,0.5-0.3,0.5-0.5c0.2-1.9,0.3-3.8,0.4-5.9c-4,0-8,0-12,0
		c-0.1-1.8-0.2-3.6-0.3-5.4c4.2,0,8.3,0,12.6,0c0.2-1.8,0.3-3.6,0.4-5.5c-6.3,0-12.6,0-18.8,0c-0.2-1.8-0.3-3.6-0.4-5.4
		c8.3,0,16.6,0,25,0c-0.1,1.1-0.1,2.2-0.2,3.3c-0.2,4-0.5,7.9-0.8,11.9c-0.2,3.7-0.5,7.4-0.7,11c0,0.2-0.2,0.5-0.4,0.5
		c-3.3,1.1-6.7,2.2-10,3.3c-0.2,0.1-0.6,0.1-0.8,0c-3.3-1.1-6.6-2.1-9.9-3.3c-0.2-0.1-0.5-0.3-0.5-0.5C46.2,63.4,46,61.1,45.9,58.6z
		"/>
</g>
</svg>
