<?xml version="1.0" encoding="utf-8"?>
<!-- Generator: Adobe Illustrator 24.3.0, SVG Export Plug-In . SVG Version: 6.00 Build 0)  -->
<svg version="1.1" id="Layer_1" xmlns="http://www.w3.org/2000/svg" xmlns:xlink="http://www.w3.org/1999/xlink" x="0px" y="0px"
	 viewBox="0 0 225 232" style="enable-background:new 0 0 225 232;" xml:space="preserve">
<style type="text/css">
	.st0{fill:#FFAFB9;}
	.st1{fill:#BFE499;}
	.st2{fill:#EEEEF3;}
	.st3{fill:#363645;}
	.st4{fill:#48475B;}
	.st5{fill:#5D5D75;}
	.st6{fill:#FFAE92;}
	.st7{fill:#34325E;}
	.st8{fill:#C3C5CE;}
	.st9{fill:#D1D1DE;}
	.st10{fill:#47456D;}
	.st11{fill:#FF936E;}
	.st12{fill:#A4A7B5;}
	.st13{fill:#6A6B76;}
	.st14{fill:#363746;}
	.st15{fill:#EDEDEF;}
	.st16{fill:#666A82;}
	.st17{fill:#2D77E2;}
	.st18{fill:#FFBD99;}
	.st19{fill:#CC7F7F;}
	.st20{fill:#315271;}
	.st21{fill:#7B7F93;}
	.st22{fill:#DEDEE8;}
	.st23{fill:#D5D6DD;}
	.st24{fill:#CBCBD6;}
	.st25{fill:#FFFFFF;}
	.st26{fill:#EFEFF2;}
	.st27{fill:#B1DBFA;}
	.st28{fill:#9D4D36;}
	.st29{fill:#0093ED;}
	.st30{fill:#0082D1;}
	.st31{fill:#FF575C;}
	.st32{fill:#F6344A;}
	.st33{fill:#C2C2D4;}
	.st34{fill:#8A8AAD;}
	.st35{fill:#96D359;}
	.st36{fill:#72A820;}
	.st37{fill:#23223A;}
	.st38{fill:#F9F9FB;}
	.st39{fill:#2471ED;}
	.st40{fill:#488EFF;}
</style>
<g>
	<polygon class="st0" points="116.2,145.3 117.5,136.6 125.4,141.1 124.1,149.8 	"/>
	<polygon class="st1" points="117.7,135.8 117.8,134.9 130.3,142.1 130.2,142.9 	"/>
	<polygon class="st2" points="125.4,150.4 126.7,141.8 130,143.7 128.7,152.3 	"/>
	<g>
		<g>
			<g>
				<g>
					<path class="st3" d="M150.5,79.6l3.6-12.4c0.1-0.3,0.2-0.5,0.3-0.7l-0.4-0.4l1.6-0.6c0,0,0,0,0.1,0h0.1
						c0.7-0.3,1.5-0.2,2.2,0.2l16.3,9.4c1.4,0.8,2,2.4,1.6,4l-3.5,12.5c-0.2,0.8-0.8,1.4-1.4,1.7h-0.1h-0.1l-1.7,0.7l-0.1-0.7
						c-0.1-0.1-0.3-0.1-0.4-0.2l-16.4-9.5C150.7,82.8,150,81.1,150.5,79.6z"/>
					<path class="st3" d="M157.8,95.2c0,0.2-0.2,0.2-0.3,0.3c-0.3,0.1-0.7,0.1-1.1,0c-0.3-0.1-0.5-0.2-0.7-0.4
						c-0.2-0.2-0.3-0.4-0.3-0.6l3.8-12.1l2.4,0.8L157.8,95.2z"/>
					<path class="st4" d="M150.5,84.2l16.4,9.5c1.5,0.9,3.4,0.1,3.8-1.6l3.5-12.5c0.4-1.5-0.2-3.2-1.6-4l-16.3-9.4
						c-1.5-0.9-3.3-0.1-3.8,1.5l-3.6,12.4C148.4,81.8,149.1,83.4,150.5,84.2z"/>
				</g>
				<g>
					<g>
						<g>
							<ellipse class="st3" cx="159.8" cy="128.4" rx="1.2" ry="1.2"/>
							<ellipse class="st3" cx="137.2" cy="128.4" rx="1.2" ry="1.2"/>
							<ellipse class="st3" cx="159.7" cy="115.4" rx="1.2" ry="1.2"/>
							<ellipse class="st3" cx="137.2" cy="115.4" rx="1.2" ry="1.2"/>
							<g>
								<path class="st3" d="M136.2,114.1l7.1,4.1v1.5l-7.1-4.1c-1.1-0.6-1.5-1.9-1.2-3C135.2,113.2,135.6,113.8,136.2,114.1z"/>
								<path class="st3" d="M160.7,114.1c0.6-0.3,1-0.9,1.2-1.5c0.3,1.1-0.1,2.4-1.2,3l-7.1,4.1v-1.5L160.7,114.1z"/>
								<path class="st3" d="M135.3,125.9c0.5,0.8,1.3,1.3,2.2,1.3c0.4,0,0.9-0.1,1.3-0.3l9.7-5.6l9.7,5.6c0.4,0.2,0.8,0.3,1.3,0.3
									c0.9,0,1.7-0.5,2.2-1.3c0.1-0.2,0.2-0.3,0.2-0.5c0.2,0.7,0.1,1.4-0.2,2c-0.5,0.8-1.3,1.3-2.2,1.3c-0.4,0-0.9-0.1-1.3-0.3
									l-9.7-5.6l-9.7,5.6c-0.4,0.2-0.8,0.3-1.3,0.3c-0.9,0-1.7-0.5-2.2-1.3c-0.4-0.6-0.4-1.4-0.2-2
									C135.1,125.5,135.2,125.7,135.3,125.9z"/>
								<path class="st5" d="M159.4,127.2c-0.4,0-0.9-0.1-1.3-0.3l-9.7-5.6l-9.7,5.6c-0.4,0.2-0.8,0.3-1.3,0.3
									c-0.9,0-1.7-0.5-2.2-1.3c-0.1-0.2-0.2-0.4-0.2-0.5c0.2-0.6,0.6-1.1,1.2-1.5l7.1-4.1v-1.5l-7.1-4.1c-0.6-0.3-1-0.9-1.2-1.5
									c0.1-0.2,0.1-0.4,0.2-0.5c0.7-1.2,2.3-1.7,3.5-0.9l9.7,5.6l9.7-5.6c1.2-0.7,2.8-0.3,3.5,0.9c0.1,0.2,0.2,0.4,0.2,0.5
									c-0.2,0.6-0.6,1.1-1.2,1.5l-7.1,4.1v1.5l7.1,4.1c0.6,0.3,1,0.9,1.2,1.5c-0.1,0.2-0.1,0.4-0.2,0.5
									C161.2,126.7,160.3,127.2,159.4,127.2z"/>
							</g>
						</g>
						<g>
							<path class="st3" d="M146.4,113.4c0,0.3,0.3,0.6,0.8,0.8c0.4,0.2,0.8,0.2,1.3,0.2c0.7,0,1.4-0.2,1.8-0.5
								c0.2-0.1,0.3-0.4,0.3-0.5v5.2c0,0.3-0.2,0.5-0.3,0.6c-0.4,0.3-1.1,0.5-1.8,0.5c-0.5,0-0.9-0.1-1.3-0.2
								c-0.4-0.2-0.7-0.5-0.8-0.7c0-0.1,0-0.1,0-0.2C146.4,118.6,146.4,113.4,146.4,113.4z"/>
							<path class="st4" d="M147.2,114.2c0.4,0.2,0.8,0.2,1.3,0.2c0.7,0,1.4-0.2,1.8-0.5c0.2-0.1,0.4-0.4,0.3-0.6
								c0-0.3-0.3-0.5-0.8-0.7c-0.4-0.2-0.8-0.2-1.3-0.2c-0.7,0-1.4,0.2-1.8,0.5c-0.2,0.1-0.4,0.4-0.3,0.6
								C146.4,113.8,146.7,114,147.2,114.2z"/>
						</g>
						<path class="st3" d="M149.7,113.2c0,0.2-0.1,0.3-0.2,0.4c-0.2,0.2-0.6,0.3-1.1,0.3c-0.3,0-0.5,0-0.8-0.1s-0.4-0.3-0.5-0.4
							v-12.7h2.5v12.5H149.7z"/>
					</g>
					<g>
						<path class="st4" d="M128.9,98.1v-1.8h0.8c0.2-0.2,0.4-0.4,0.7-0.6l12.6-7.3c1.9-1.1,4.2-1.1,6.1,0l17.5,10.1
							c0.4,0.2,0.8,0.6,1,0.9l0.5-0.1v1.8c0,1-0.5,2.1-1.5,2.7l-12.6,7.3c-1.9,1.1-4.2,1.1-6.1,0L130.4,101
							C129.3,100.4,128.8,99.2,128.9,98.1z"/>
						<path class="st5" d="M130.4,93.7l12.6-7.3c1.9-1.1,4.2-1.1,6.1,0l17.5,10.1c2,1.2,2,4.1,0,5.3l-12.6,7.3
							c-1.9,1.1-4.2,1.1-6.1,0L130.4,99C128.4,97.9,128.4,94.9,130.4,93.7z"/>
					</g>
				</g>
			</g>
			<g>
				<g>
					<g>
						<path class="st6" d="M120.3,58l-2.6,2.2c-1-0.9-1.6-1.5-1.6-1.5c-0.8-0.3-1.8-0.6-2.6-1l-4-2c-0.2-0.1-0.3-0.4-0.2-0.6l0,0
							c0.1-0.1,0.1-0.2,0.3-0.2c-0.4-0.5-0.6-0.9-0.5-1.3c0.4-1.4,5,0.8,5,0.8s-0.7-0.9-0.9-1.1c-0.3-0.3-0.3-0.7-0.1-0.9
							c0.3-0.4,0.9-0.1,1.1,0.1l1.9,1.7c0.3,0.2,0.5,0.5,0.7,0.8l0.3,0.6c0.4,0.7,0.9,1.2,1.6,1.6C118.6,57,119.3,57.4,120.3,58z"/>
						<path class="st7" d="M117.3,59.9c0,0,10.8,10.1,14.3,8.5c1.6-0.7,5.6-16.9,5.6-16.9c0.2-0.5-0.1-1-0.6-1.2l-3.7-1.1
							c-0.5-0.2-0.6-1.3-0.6-1.3c-0.6,2-3.5,11.8-4.1,14.2c-0.1,0.4-9.4-4.9-9.4-4.9C119.2,57.8,118.1,59.8,117.3,59.9z"/>
					</g>
					<g>
						<g>
							<g>
								<path class="st6" d="M145,132.9c0.1,0.4,0.1,0.9,0,1.3c-0.6,3.3-0.9,9,1.3,9s3-1.8,3-3.6c0-3.4-1.4-4.8-1.3-7.3
									c0-1.3,0.1-3,0.2-4.8l-4.4-0.8L145,132.9z"/>
								<path class="st6" d="M132.1,136.5c1.2,1.2,3.3,0.9,6.7-1.6c0.4-0.3,1-0.2,1.7-0.6c0.6-0.3,1.1-0.8,1.3-1.4
									c0.2-0.6,0.1-0.9,0.1-0.9c0-0.2-0.1-0.5-0.3-0.8c0-0.1-0.1-0.2-0.1-0.3c-0.3-0.9-0.3-2.1-0.3-2.1s0-1,0-2.6l-4.2-0.7
									c0.5,2.1,0.8,3.6,0.8,3.9c0.1,1.7-2.4,3.5-3.9,4.7c-0.5,0.4-1,0.7-1.1,0.9C132.3,135.4,131.6,136.1,132.1,136.5z"/>
								<path class="st8" d="M132,71.3c-2.2,13.3-0.6,27.3,0,30.7c0.1,0.6,0.2,1.3,0.3,1.9c0,0.4,0.1,0.8,0.2,1.2
									c0.8,4.2,3.3,25,3.3,25c0.2,1.2,6.4,1,6.3-0.2c0,0-1.1-11.6-1.7-18.9l3.1,22.9c0.2,1.3,6.2,1,6.2,0c0,0-0.3-19-2.7-27.6
									c-0.2-0.7-0.3-1.3-0.3-2v-0.4c0-0.8,0-1.7,0.2-2.5c0.8-4,3.8-18.6,1.8-30l-6.7,2.1C142.1,73.4,132.4,68.5,132,71.3z"/>
							</g>
							<path class="st3" d="M134.8,40.8c0.7,0.5,1.5,1,1.8,1.2l2.9,1.4c0.5-0.8,0.6-1.2,0.2-2.4c-0.6-2-4.5-7.6-4.5-7.6l-1.5,4.4
								C133.3,38.8,133.8,40.1,134.8,40.8z"/>
							<ellipse class="st9" cx="141.2" cy="56.5" rx="1.5" ry="1.5"/>
							<path class="st10" d="M149,78.5c0.8-0.3,1.1-1.1,1-1.9c-0.2-1.2-0.4-3.2-0.6-4.9c-0.1-1.4-0.2-2.6-0.2-3.4v-6.6l1.3-4.4
								l0.9-3c0-3.5-1.8-5-4.7-6.7c-0.3-0.2-0.6-0.4-0.9-0.6l-4.5-2.6c-0.2-0.1-1.9,0.8-2.1,0.7c-0.5-0.2-1.1-0.3-1.6-0.4
								c-2.1-0.4-5.5,2.1-5.4,5.1l0.3,3.9l0.4,4.6l0.4,4.8c0.1,0.7,0,1.4,0,2.1v0.1v0.1c-0.2,1.6-1.7,7.4-2.4,10
								c-0.2,0.7,0.2,1.4,0.9,1.8C134.9,79.1,140.6,81.3,149,78.5z"/>
							<g>
								<path class="st6" d="M139.1,38.6v8.1c0,0.4,0.3,0.7,1,1c1.1,0.4,2.7,0.3,3.5-0.2c0.3-0.2,0.5-0.5,0.5-0.7v-8.1L139.1,38.6
									L139.1,38.6z"/>
								<path class="st11" d="M139.1,38.8v5.6c0,1,1,1.7,1.9,1.2c1-0.5,1.8-1.2,2.5-2c0.4-0.4,0.6-1,0.6-1.6v-3.3L139.1,38.8
									L139.1,38.8z"/>
								<path class="st6" d="M135.7,41.5c0.7,2.8,2.2,3.8,3.9,3.7c0.7,0,1.5-0.3,2.3-0.7c1.9-1,3.2-2.8,3.9-4.7
									c0.4-0.9,0.5-1.8,0.6-2.6c0.1-3.7-2.3-6-5.4-6.1C134,30.9,135.4,40.1,135.7,41.5z"/>
							</g>
							<path class="st12" d="M135.8,83.9c0.2,5,1.5,16.1,2.1,19.6c0.2,1.1,0.5,2.1,0.9,3.1l1.7,4.3l-0.5-2.4l-1-1.9
								c-0.2-0.6-0.3-1.3-0.3-2v-18c0-0.1,0-0.2,0-0.3c-0.1-0.5-0.3-0.9-0.7-1.1L135.8,83.9z"/>
						</g>
						<circle class="st10" cx="137" cy="57.9" r="5"/>
						<path class="st3" d="M134.9,35.1c0-0.1,0.1-0.1,0.1-0.2c-0.1-4.1,4.4-7.8,8.2-5.5c5.4-0.9,7.2,7.3,7,11.1
							c-0.2,3.3-5.5,3.9-7.6,2.9c0,0,2.4-2,1.4-6c-0.1-0.4-0.2-0.7-0.4-1c-1.2,0.2-2.8,0.3-4.7,0c-0.4-0.1-0.7-0.1-1.1-0.2
							c0-0.9,0-2.1,0-2.2c0-0.1-0.5,1-0.9,1.9c-0.4-0.1-0.8-0.3-1.1-0.4c-0.1,0.1-0.1,0.3-0.2,0.4c-0.2,0.5-0.2,1.2-0.2,1.2
							c-0.1-0.5-0.3-1.3-0.4-1.8v-0.1C135,35.1,134.9,35.1,134.9,35.1z"/>
					</g>
					<path class="st7" d="M137.2,57.9c0,0-3,9.2-1,11.2c3.6,3.7,9.9-1.5,12.8-4.1c0.1-0.1,0.1-0.1,0.2-0.2c0.1-1.2,0.3-2.3,0.5-3.5
						c0-0.1,0-0.2,0.1-0.4l-10.9,6C138.7,68,137.8,57.2,137.2,57.9z"/>
					<path class="st7" d="M139.2,63.4c0.1,1.1,0.2,2.1,0.3,3l4.6-7.1c0,0-0.9-7.2-1.2-9.1c0,0-2.3,0.3-2.6,1.2
						C140.2,51.8,139.4,62,139.2,63.4z"/>
					<path class="st11" d="M139.7,45.2c0.7,0,1.5-0.3,2.3-0.7c0.5-0.3,0.9-0.6,1.4-0.9c-0.3-0.1-0.5-0.2-0.8-0.3
						c0,0,1.5-1.3,1.6-3.9c-0.5,0.2-0.7,0.6-0.9,0.9c0,0.1-0.1,0.1-0.1,0.2c-0.7,0-1.5,0.5-2.2,1.6c-0.2,0.2-0.3,0.5-0.5,0.7
						c-0.4,0.6-0.6,1.2-0.6,1.7C139.7,44.7,139.7,45,139.7,45.2z"/>
					<path class="st4" d="M145.8,38.1c-0.8,1-2.9,3.9-3.7,5.1c-0.2,0.3-0.1,0.7,0.2,0.9l2.3,1.6c0.2,0.2,0.5,0.1,0.7-0.1l3.7-5
						c0.2-0.3,0.2-0.7-0.1-0.9l-2.3-1.7C146.3,37.9,146,37.9,145.8,38.1z"/>
					<path class="st6" d="M140.5,44.6c0.1-0.5,0.2-1,0.5-1.4c0.1-0.2,0.3-0.5,0.4-0.7c0.5-0.7,1.2-1.3,1.8-1.3
						c0.6,0.1,0.7-1.5,1.8-1.1c0.6,0.2,0.2,2.1,0.2,2.8c0,0.4,1.6-2.8,2.3-2.2c0.5,0.4-0.7,2.3-1.7,3.7c0.2-0.1,0.5-0.4,0.7-0.6
						c0.1-0.1,0.1-0.1,0.2-0.2l0,0c0.3-0.3,0.7-0.3,0.9-0.2c0.4,0.3,0.1,0.8-0.1,1l-1.5,1.9c-0.2,0.3-0.4,0.5-0.7,0.6l-0.5,0.3
						c-0.6,0.4-1.1,0.9-1.4,1.6c-0.2,0.5-0.4,1-0.5,1.5l-0.7,7.6l-4.7-0.6C138.4,53.1,140.2,47.2,140.5,44.6z"/>
					<path class="st10" d="M137.3,68.7c4.6,2.4,12.1-6.6,13-7.9c3.1-4.7,2.6-8.2-0.9-11.3c-0.8-0.8-7.4,11.6-7.4,11.6l0.4-3.3
						c-0.2-0.7-4-1.7-4.7-1.2C137.5,56.5,134.6,67.3,137.3,68.7z"/>
				</g>
				<g>
					<g>
						<path class="st3" d="M141.7,133.2c-0.2,0.6-0.7,1.1-1.3,1.4c-0.7,0.4-1.3,0.3-1.7,0.6c-3.5,2.5-5.6,2.9-6.8,1.6
							c-0.1-0.1-0.1-0.1-0.1-0.2c-0.1,0.2,0,0.4,0.1,0.5c1.2,1.3,3.3,0.9,6.8-1.6c0.4-0.3,1-0.2,1.7-0.6c0.4-0.2,0.9-0.6,1.2-1
							c0.2-0.2,0.2-0.5,0.2-0.8v-0.4C141.8,132.9,141.8,133,141.7,133.2z"/>
						<path class="st13" d="M138.7,135.2c0.4-0.3,1-0.2,1.7-0.6c0.6-0.3,1.1-0.8,1.3-1.4c0.1-0.2,0.1-0.3,0.1-0.4c0-0.1,0-0.2,0-0.2
							c0,0.1,0,0.2-0.1,0.3c-0.2,0.6-0.7,1.1-1.3,1.4c-0.7,0.4-1.3,0.3-1.7,0.6c-3.5,2.5-5.5,3-6.8,1.6v-0.1c0,0.1-0.1,0.2-0.1,0.2
							c0,0.1,0.1,0.1,0.1,0.2C133.2,138,135.3,137.7,138.7,135.2z"/>
					</g>
					<g>
						<path class="st3" d="M141.8,132.1c0-0.2-0.1-0.5-0.3-0.8c0-0.1-0.1-0.2-0.1-0.3c-0.3,1.6-4.8,4-6.3,4.1c-1,0.1-1.7-0.6-1.3-1
							c-0.6,0.4-1,0.7-1.1,0.9l-0.1,0.1c1,0.2,1.8,1,1.8,2v0.1c1.1-0.2,2.6-0.9,4.4-2.2c0.4-0.3,1-0.2,1.7-0.6
							c0.6-0.3,1.1-0.8,1.3-1.4C141.9,132.5,141.8,132.1,141.8,132.1z"/>
						<path class="st14" d="M132.6,135.1c-0.4,0.4-0.9,1-0.5,1.4c0.5,0.6,1.3,0.8,2.3,0.6V137C134.4,136.1,133.6,135.3,132.6,135.1z
							"/>
					</g>
				</g>
				<g>
					<g>
						<path class="st3" d="M149,141.7c-0.4,1.3-1.2,2-2.8,1.9c-0.7,0-1.1-0.2-1.4-1.1c-0.2-0.7-0.3-1.6-0.3-2.6c0,1.2,0.1,2.2,0.3,3
							c0.3,0.9,0.7,1.1,1.4,1.1c1.6,0,2.4-0.6,2.8-1.9c0.1-0.3,0.3-1.3,0.3-2.5C149.2,140.6,149.1,141.4,149,141.7z"/>
						<path class="st13" d="M146.2,143.6c1.6,0,2.4-0.6,2.8-1.9c0.1-0.3,0.2-1.1,0.3-2c0-0.1,0-0.1,0-0.2c0,0.8-0.2,1.5-0.2,1.8
							c-0.4,1.3-1.2,2-2.8,1.9c-0.7,0-1.1-0.2-1.4-1.1c-0.2-0.6-0.3-1.4-0.3-2.2c0,1,0.1,1.9,0.3,2.6
							C145.1,143.4,145.5,143.6,146.2,143.6z"/>
					</g>
					<g>
						<path class="st3" d="M149,141.4c0.2-0.5,0.5-2.3-0.1-4.5c0.2,1.6-0.4,3.3-2.5,3.2s-1.8-2.1-1.8-2.1c-0.2,1.6-0.2,2.2,0,3.5
							c0.6-0.4,1.4-0.6,2.2-0.6C147.7,140.8,148.4,141,149,141.4z"/>
						<path class="st14" d="M146.2,143.3c1.6,0,2.4-0.6,2.8-1.9c-0.6-0.3-1.3-0.5-2.1-0.5c-0.9,0-1.6,0.2-2.2,0.6
							c0,0.3,0.1,0.5,0.2,0.8C145.1,143.1,145.5,143.3,146.2,143.3z"/>
					</g>
				</g>
			</g>
			<path class="st15" d="M184,95.7l-4.2,4.4c0,0-2.1,11.5-2.5,12c-1.2,1.3-3.5,3.7-5.8,6.3l4.9,2.8c3.2-2.4,6.4-5,7.6-6.8
				c1-1.5,2.4-17,2.4-17C186.4,96.9,184.6,95.6,184,95.7z"/>
			<g>
				<g>
					<path class="st3" d="M187.4,113.8l3.6-12.4c0.1-0.3,0.2-0.5,0.3-0.7l-0.4-0.4l1.6-0.6c0,0,0,0,0.1,0h0.1
						c0.7-0.3,1.5-0.2,2.2,0.2l16.4,9.4c1.4,0.8,2.1,2.4,1.6,4l-3.5,12.5c-0.2,0.8-0.8,1.4-1.4,1.7h-0.1h-0.1l-1.7,0.7l-0.1-0.7
						c-0.1-0.1-0.3-0.1-0.4-0.2l-16.5-9.5C187.6,117,186.9,115.3,187.4,113.8z"/>
					<path class="st3" d="M194.7,129.4c0,0.2-0.2,0.2-0.3,0.3c-0.3,0.1-0.7,0.1-1.1,0c-0.3-0.1-0.5-0.2-0.7-0.4s-0.3-0.4-0.3-0.6
						l3.8-12.1l2.4,0.8L194.7,129.4z"/>
					<path class="st5" d="M187.3,118.5l16.5,9.5c1.5,0.9,3.4,0.1,3.8-1.6l3.5-12.5c0.4-1.5-0.2-3.2-1.6-4l-16.4-9.4
						c-1.5-0.9-3.4-0.1-3.8,1.5l-3.6,12.4C185.3,116,185.9,117.6,187.3,118.5z"/>
				</g>
				<g>
					<g>
						<g>
							<circle class="st3" cx="196.7" cy="162.6" r="1.2"/>
							<circle class="st3" cx="174" cy="162.6" r="1.2"/>
							<circle class="st3" cx="196.6" cy="149.7" r="1.2"/>
							<circle class="st3" cx="174" cy="149.7" r="1.2"/>
							<g>
								<path class="st3" d="M173,148.3l7.2,4.1v1.5l-7.2-4.1c-1.1-0.6-1.5-1.9-1.2-3C172,147.4,172.4,148,173,148.3z"/>
								<path class="st3" d="M197.6,148.3c0.6-0.3,1-0.9,1.2-1.5c0.3,1.1-0.1,2.4-1.2,3l-7.2,4.1v-1.5L197.6,148.3z"/>
								<path class="st3" d="M172.1,160.1c0.5,0.8,1.3,1.3,2.2,1.3c0.4,0,0.9-0.1,1.3-0.3l9.7-5.6l9.7,5.6c0.4,0.2,0.8,0.3,1.3,0.3
									c0.9,0,1.8-0.5,2.2-1.3c0.1-0.2,0.2-0.3,0.2-0.5c0.2,0.7,0.1,1.4-0.2,2c-0.5,0.8-1.3,1.3-2.2,1.3c-0.4,0-0.9-0.1-1.3-0.3
									l-9.7-5.6l-9.7,5.6c-0.4,0.2-0.8,0.3-1.3,0.3c-0.9,0-1.8-0.5-2.2-1.3c-0.4-0.6-0.4-1.4-0.2-2
									C171.9,159.8,172,159.9,172.1,160.1z"/>
								<path class="st5" d="M196.3,161.4c-0.4,0-0.9-0.1-1.3-0.3l-9.7-5.6l-9.7,5.6c-0.4,0.2-0.8,0.3-1.3,0.3
									c-0.9,0-1.8-0.5-2.2-1.3c-0.1-0.2-0.2-0.4-0.2-0.5c0.2-0.6,0.6-1.1,1.2-1.5l7.2-4.1v-1.5l-7.2-4.1c-0.6-0.3-1-0.9-1.2-1.5
									c0.1-0.2,0.1-0.4,0.2-0.5c0.7-1.2,2.3-1.7,3.5-0.9l9.7,5.6l9.7-5.6c1.2-0.7,2.8-0.3,3.5,0.9c0.1,0.2,0.2,0.4,0.2,0.5
									c-0.2,0.6-0.6,1.1-1.2,1.5l-7.2,4.1v1.5l7.2,4.1c0.6,0.3,1,0.9,1.2,1.5c-0.1,0.2-0.1,0.4-0.2,0.5
									C198.1,160.9,197.2,161.4,196.3,161.4z"/>
							</g>
						</g>
						<g>
							<path class="st3" d="M183.2,147.7c0,0.3,0.3,0.6,0.8,0.8c0.4,0.2,0.8,0.2,1.3,0.2c0.7,0,1.4-0.2,1.8-0.5
								c0.2-0.1,0.3-0.4,0.3-0.5v5.2c0,0.3-0.2,0.5-0.3,0.6c-0.4,0.3-1.1,0.5-1.8,0.5c-0.5,0-0.9-0.1-1.3-0.2
								c-0.4-0.2-0.7-0.5-0.8-0.7c0-0.1,0-0.1,0-0.2C183.2,152.8,183.2,147.6,183.2,147.7z"/>
							<path class="st4" d="M184,148.4c0.4,0.2,0.8,0.2,1.3,0.2c0.7,0,1.4-0.2,1.8-0.5c0.2-0.1,0.4-0.4,0.3-0.6
								c0-0.3-0.3-0.5-0.8-0.7c-0.4-0.2-0.8-0.2-1.3-0.2c-0.7,0-1.4,0.2-1.8,0.5c-0.2,0.1-0.4,0.4-0.3,0.6
								C183.3,148,183.6,148.3,184,148.4z"/>
						</g>
						<path class="st3" d="M186.6,147.4c0,0.2-0.1,0.3-0.2,0.4c-0.2,0.2-0.6,0.3-1.1,0.3c-0.3,0-0.5,0-0.8-0.1s-0.4-0.3-0.5-0.4
							v-12.7h2.5v12.5H186.6z"/>
					</g>
					<g>
						<path class="st4" d="M165.7,132.3v-1.8h0.8c0.2-0.2,0.4-0.4,0.7-0.6l12.6-7.3c1.9-1.1,4.2-1.1,6.1,0l17.5,10.1
							c0.4,0.2,0.8,0.6,1,0.9l0.5-0.1v1.8c0,1-0.5,2.1-1.5,2.7l-12.6,7.3c-1.9,1.1-4.2,1.1-6.1,0l-17.5-10.1
							C166.1,134.6,165.6,133.4,165.7,132.3z"/>
						<path class="st5" d="M167.2,128l12.6-7.3c1.9-1.1,4.2-1.1,6.1,0l17.5,10.1c2,1.2,2.1,4.1,0,5.3l-12.6,7.3
							c-1.9,1.1-4.2,1.1-6.1,0l-17.5-10.1C165.1,132.1,165.1,129.1,167.2,128z"/>
					</g>
				</g>
			</g>
			<g>
				<path class="st16" d="M170.4,173.4c-0.3,0.2-0.7,0.7-1.1,1.1c-0.7,0.8-1.8,1.2-2.8,1.6c-1.4,0.5-2.6-0.3-3.5-0.5
					c-0.8-0.2-1.1-1.2-0.7-1.8c0.5-0.7,1.3-0.7,2.5-1.7c0.7-0.6,1.3-1.1,1.7-1.5c0.7-0.6,1.1-1.4,1.2-2.3c0-0.5,3,0.7,3.1,0.7
					c1.8-0.7,1.4-1.9,1.8-1.1c0,0,0.5,2.6,0.5,3.3c0,0.4-0.1,1.1-0.9,1.4C171.9,172.7,171.1,172.9,170.4,173.4z"/>
				<path class="st16" d="M181.5,176.9c-0.3,0.2-0.7,0.7-1.1,1.1c-0.7,0.8-1.8,1.2-2.8,1.6c-1.4,0.5-2.6-0.3-3.5-0.5
					c-0.8-0.2-1.1-1.2-0.7-1.8c0.5-0.7,1.3-0.7,2.5-1.7c0.7-0.6,1.3-1.1,1.7-1.5c0.7-0.6,1.1-1.4,1.2-2.3c0-0.5,3,0.7,3.1,0.7
					c1.8-0.7,1.4-1.9,1.8-1.1c0,0,0.5,2.6,0.5,3.3c0,0.4-0.1,1.1-0.9,1.4C182.9,176.2,182.2,176.4,181.5,176.9z"/>
				<path class="st3" d="M189.1,135l2-10.9c-2.6-0.1-5.3-0.3-7.4-0.3c-2.2,0-3.7,2.5-3.7,2.8c0,0-14.1,11.4-14.3,15.9
					c-0.3,7.1,1.3,19.7,1.9,25.5c0.1,1.4,4.9,1.2,5.1,0c1.1-5.8,1.7-17.3,1.7-22.5L189.1,135z"/>
				<path class="st4" d="M200.2,127.6l-0.1-0.6c-2.3-0.1-5.1,1.7-6.9,1.7c-1,0-1.9-0.7-2.9-0.1c-0.2,0.2-2.8-1.1-3-0.9
					s-0.2,0.5-0.2,1c0.5,3.8-11,14.2-10.7,18c0.7,8.3,1.5,19.3,2.1,25.1c0.1,1.4,5.8,1.2,6,0c1.1-5.8,0.1-18.2,0.1-23.4l10.1-7.5
					C199.3,137.4,201.7,133.3,200.2,127.6z"/>
				<path class="st15" d="M200,113.1l0.3,8.2l-0.2,4L200,127c-1.9,1.8-5.9,2.9-11.6,2.2c-3.9-0.5-7.3-1.6-8.5-2.6
					c0,0,1.7-5.7,1.1-10.4l-1.2-15.2c0-4.3,3.8-7.2,6.9-6.9c0.7,0.1,1.3,0.2,2,0.5c0.2,0.1,2.1-0.9,2.4-0.8l2.3,1.3l2.7,1.6
					c0.1,0,0.2,0.1,0.2,0.1c0.3,0.2,0.5,0.3,0.8,0.5c3.3,2,6.7,4.8,6.7,8.8L200,113.1z"/>
				<path class="st17" d="M200.3,121.3l-0.1,3.8c-3.3,1.2-9.7,3.6-13.7,3l1.6-3.4L200.3,121.3z"/>
				<path class="st18" d="M194.3,95.7L194.3,95.7v-8.3h-5.6v7.8c0,0-0.3,0.1-0.5,0.2c-1.1,0.5-0.4,2.8,0,3.1
					c0.7,0.5,3.1-0.2,5.1-0.8C194.1,97.4,194.6,96.5,194.3,95.7z"/>
				<path class="st19" d="M192.7,84.8c-1.4,1.7-1.7,3.8-0.7,4.6c1,0.9,2.8,0.3,4.5-1.5c1.5-1.6,1.7-3.7,1.7-3.7
					S194.1,83.2,192.7,84.8z"/>
				<path class="st8" d="M193.3,120.9c1-0.1,2.5,1.1,3.4,0.7l1.1-2.9l-1-13l-1.9,10.4L193.3,120.9L193.3,120.9z"/>
				<path class="st20" d="M186,121.2l-1.1-2.2c0.3-2.6,3.1-16.6,4.3-19.2c0.1-0.2,0.1-0.3-0.1-0.5l-0.6-0.8l0.7-1.2
					c0.7,0.3,1.2,0.4,1.4,0.4l0.5,1.8l-0.9,0.3c-0.2,0-0.3,0.2-0.3,0.3c-0.9,3.1-2,17.9-2,20.7C186.9,121,187,121,186,121.2z"/>
				<path class="st8" d="M190.9,100.4l-0.3-2.6c0,0,1.6-0.4,2.3-1s1.2-1.8,1.2-1.8l1.2,1.2C194.9,99,190.9,100.4,190.9,100.4z"/>
				<path class="st8" d="M188.6,99.8l0.7-2.4L189,97c-0.2-0.3-0.3-0.6-0.3-0.9v-1.6h-0.3c-0.1,0.1-0.2,0.2-0.3,0.4
					c-0.5,0.7-0.7,1.5-0.6,2.3C187.7,98.8,188.6,99.8,188.6,99.8z"/>
				<g>
					<path class="st11" d="M188.7,88.5v6.4c0,0.7,1.4,1.1,2.5,0.6c1.7-0.7,3.1-2,3.1-3.5v-3.6L188.7,88.5L188.7,88.5z"/>
					<path class="st18" d="M185.1,90.5c0.9,4.6,3.9,5,6.7,3.7c1.9-0.9,3.6-2.3,4-4.3c0.3-1.3,1.3-2.5,1.4-3.6
						c0.3-4.1-2.2-6.9-5.7-7.2C183.7,78.5,184.8,88.9,185.1,90.5z"/>
				</g>
				<g>
					<g>
						<path class="st20" d="M198.7,82.7c-0.3-3.6-4.5-6.9-9.5-5.6c-2.7,0.7-5,1.1-5.4,3.1c-0.5,2.6,1.4,4.1,1.4,4.1l0.1-0.3
							c0.1-0.6,0.7-1,1.3-0.9c1.3,0.1,3.1,0,4.5,0.7c0.7,0.3,1.4,0.2,2-0.2l1.1-0.8l-1.2,1.4c-0.3,0.4-0.4,0.9-0.2,1.4
							c0,0.1,0.1,0.2,0.1,0.3l3.4-2.1c0.8-0.5,1.8,0.1,1.8,1V87C198.6,85.9,198.9,84.6,198.7,82.7z"/>
						<path class="st20" d="M196.3,83.7l-3.4,2.1c0.1,0.3,0.2,0.6,0.2,1c0.1,0.7,0.7,1.1,1.4,0.9c0.4-0.1,0.8-0.3,0.9-0.5
							c0.4-0.6,1.1-0.7,1.2-0.3c0.2,1.1,0.2,1.6,0.1,1.9c0.5-0.4,1.1-1,1.5-1.9v-2.2C198.2,83.8,197.1,83.2,196.3,83.7z"/>
					</g>
				</g>
				
					<ellipse transform="matrix(0.5783 -0.8158 0.8158 0.5783 10.5294 196.8154)" class="st6" cx="195.6" cy="88.2" rx="2.2" ry="1.4"/>
			</g>
			<g>
				<polygon class="st12" points="214.5,141.5 214.5,183 139.1,227 138.9,185.2 				"/>
				<polygon class="st21" points="30.5,114.7 66.9,135.8 23.3,160.5 23.2,118.7 				"/>
				<polygon class="st2" points="21.6,117.8 97.2,74.1 214.5,141.5 138.9,185.2 				"/>
				<g>
					<path class="st12" d="M131.2,165.7L131.2,165.7c0,0.3-0.1,0.5-0.3,0.7c-0.1,0.2-0.4,0.3-0.6,0.3c-0.3,0.1-0.8,0.2-1.3,0.5
						c-0.2,0.2-0.5,0.3-0.6,0.5c-0.4,0.4-1,0.6-1.6,0.6s-1.2-0.1-1.7-0.4c-0.5-0.2-0.8-0.5-0.9-1c0-0.1,0-0.2,0-0.4
						c0-0.1,0-0.2,0-0.3c0.2-0.7,0.9-1.1,1.6-1.4c0.6-0.2,1.2-0.5,1.5-0.5c1-0.3,1.8-0.4,2.6-0.1c0.1,0,0.2,0.1,0.3,0.2
						c0.1,0,0.2,0.1,0.2,0.1c0.4,0.3,0.6,0.5,0.7,0.7C131.2,165.5,131.2,165.6,131.2,165.7z"/>
					<path class="st4" d="M130.3,166.4c0.2,0,0.3-0.1,0.4-0.2c0.1-0.1,0.2-0.3,0.2-0.4c0,0,0,0,0-0.1c-0.1,0.1-0.3,0.2-0.6,0.3
						s-0.8,0.2-1.3,0.5c-0.2,0.2-0.5,0.3-0.6,0.5c-0.4,0.4-1,0.6-1.6,0.6s-1.2-0.1-1.7-0.4c-0.3-0.1-0.5-0.3-0.6-0.5v0.1
						c0.1,0.3,0.3,0.6,0.7,0.8c0.4,0.2,1,0.4,1.6,0.4s1.1-0.2,1.5-0.6c0.2-0.2,0.4-0.4,0.7-0.5C129.3,166.7,129.8,166.5,130.3,166.4
						z"/>
				</g>
				<path class="st22" d="M146.9,148.4c-0.8,0.3-1.7,0.5-2.7,0.6c-1.5,0-2.9-0.3-3.8-0.9c-0.4-0.3-0.8-0.7-0.8-1.3
					c0.1-0.6,0.6-1.2,1.6-1.6c0.8-0.3,1.7-0.5,2.7-0.6c1.5,0,2.9,0.3,3.8,0.9c0.4,0.3,0.8,0.7,0.8,1.3
					C148.4,147.4,147.8,148,146.9,148.4z"/>
				<path class="st22" d="M105.2,135.1c-0.8,0.3-1.7,0.5-2.7,0.6c-1.5,0-2.9-0.3-3.8-0.9c-0.4-0.3-0.8-0.7-0.8-1.3
					c0.1-0.6,0.6-1.2,1.6-1.6c0.8-0.3,1.7-0.5,2.7-0.6c1.5,0,2.9,0.3,3.8,0.9c0.4,0.3,0.8,0.7,0.8,1.3
					C106.7,134.1,106.1,134.7,105.2,135.1z"/>
				<path class="st22" d="M130.2,127.1c-0.5,0.2-1.1,0.4-1.8,0.4c-1,0-2-0.2-2.5-0.6c-0.3-0.2-0.6-0.5-0.5-0.9
					c0-0.4,0.4-0.8,1.1-1.1c0.5-0.2,1.1-0.4,1.8-0.4c1,0,2,0.2,2.5,0.6c0.3,0.2,0.6,0.5,0.5,0.9
					C131.2,126.4,130.8,126.8,130.2,127.1z"/>
				<polygon class="st8" points="138.9,185.2 139,226.9 137.5,226 137.3,186.2 23.2,120.7 23.3,160.5 21.8,159.5 21.6,117.8 				"/>
			</g>
			<g>
				<g>
					<g>
						<path class="st23" d="M133.5,156.1l2.1-14.4c0.2-1-0.2-1.9-1-2.4l-17.6-10c-0.4-0.2-0.9-0.2-1.3,0.1h-0.1l-0.4,0.3
							c-0.5,0.2-1,0.8-1.1,1.4l-2.1,14.4c-0.2,1,0.2,1.9,1,2.4l17.6,10.1c0.4,0.2,0.9,0.2,1.3-0.1l0.8-0.5
							C133.1,157.1,133.4,156.7,133.5,156.1z"/>
						<path class="st4" d="M135.4,141.7c0.1-0.9-0.2-1.8-0.9-2.2l-17.6-10c-0.2-0.1-0.3-0.1-0.5-0.1s-0.3,0.1-0.5,0.2
							c0.2,0,0.4,0,0.5,0.1l17.6,10c0.9,0.5,1.2,1.2,1,2.4l-2.1,14.4c0,0.2-0.1,0.5-0.3,0.7c0.4-0.2,0.6-0.6,0.7-1.1L135.4,141.7z"
							/>
						<g>
							<path class="st24" d="M125.2,136.2c-0.1-0.3-0.3-0.6-0.6-0.6c-0.2,0-0.3,0.3-0.3,0.6c0.1,0.3,0.3,0.6,0.6,0.6
								C125.2,136.8,125.3,136.5,125.2,136.2z"/>
							<path class="st4" d="M125.2,136.1c-0.1-0.2-0.2-0.4-0.4-0.4c-0.1,0-0.2,0.2-0.2,0.4s0.2,0.4,0.4,0.4
								C125.2,136.5,125.2,136.3,125.2,136.1z"/>
						</g>
					</g>
					<polygon class="st25" points="113.7,145.1 115.5,132.4 133.2,142.5 131.4,155.3 					"/>
					<polygon class="st0" points="116.2,145.3 117.5,136.6 125.4,141.1 124.1,149.8 					"/>
					<polygon class="st1" points="117.7,135.8 117.8,134.9 130.3,142.1 130.2,142.9 					"/>
					<polygon class="st2" points="125.4,150.4 126.7,141.8 130,143.7 128.7,152.3 					"/>
				</g>
				<g>
					<path class="st8" d="M131.7,158.5c0-0.5-0.2-0.9-0.7-1.2l-4-2.3l-6.4-3l-5-3.6l-3.3-1.9c-0.8-0.5-1.8-0.5-2.6,0l-11.4,6.6
						c-0.5,0.3-0.7,0.8-0.7,1.2v0.7c0,0.4,0.2,0.8,0.7,1.1L117,167c0.8,0.5,1.8,0.5,2.6,0l11.4-6.6c0.4-0.2,0.6-0.6,0.7-1
						c0-0.1,0-0.1,0-0.2V158.5z"/>
					<path class="st4" d="M131.1,159.6l-11.4,6.6c-0.8,0.5-1.8,0.5-2.6,0l-18.8-10.9c-0.2-0.1-0.3-0.3-0.4-0.4v0.1
						c0,0.4,0.2,0.7,0.5,0.9l18.8,10.9c0.4,0.2,0.8,0.3,1.2,0.3c0.4,0,0.8-0.1,1.2-0.3l11.4-6.6c0.3-0.2,0.5-0.5,0.5-0.9v-0.1
						c0,0,0,0,0-0.1C131.4,159.4,131.3,159.5,131.1,159.6z"/>
					<g>
						<path class="st12" d="M107.1,150.9l4.3-2.5c0.3-0.2,0.7-0.2,1,0l15.4,8.9c0.3,0.2,0.3,0.7,0,0.9l-4.3,2.5
							c-0.3,0.2-0.7,0.2-1,0l-15.4-8.9C106.8,151.6,106.8,151.1,107.1,150.9z"/>
						<g>
							<g>
								<path class="st26" d="M108.1,151.7l-0.6-0.3c-0.1,0-0.1-0.1,0-0.2l0.5-0.2c0.1,0,0.2,0,0.3,0l0.6,0.3c0.1,0,0.1,0.1,0,0.2
									l-0.5,0.2C108.3,151.7,108.2,151.7,108.1,151.7z"/>
								<path class="st26" d="M110.4,153l-0.6-0.3c-0.1,0-0.1-0.1,0-0.2l0.5-0.2c0.1,0,0.2,0,0.3,0l0.6,0.3c0.1,0,0.1,0.1,0,0.2
									l-0.5,0.2C110.6,153.1,110.5,153,110.4,153z"/>
								<path class="st12" d="M109.9,160.7l-4-2.3c-0.6-0.4-0.7-0.9-0.2-1.1l3.7-1.9c0.4-0.2,0.9-0.2,1.3,0l4.5,2.6
									c0.6,0.4,0.7,0.9,0.2,1.1l-3.4,1.8C111.4,161.1,110.5,161.1,109.9,160.7z"/>
								<path class="st26" d="M109.3,152.3l-0.6-0.3c-0.1,0-0.1-0.1,0-0.2l0.5-0.2c0.1,0,0.2,0,0.3,0l0.6,0.3c0.1,0,0.1,0.1,0,0.2
									l-0.5,0.2C109.5,152.4,109.3,152.4,109.3,152.3z"/>
								<path class="st26" d="M117.3,157l-0.6-0.3c-0.1,0-0.1-0.1,0-0.2l0.5-0.2c0.1,0,0.2,0,0.3,0l0.6,0.3c0.1,0,0.1,0.1,0,0.2
									l-0.5,0.2C117.5,157,117.4,157,117.3,157z"/>
								<path class="st26" d="M111.5,153.7l-0.6-0.3c-0.1,0-0.1-0.1,0-0.2l0.5-0.2c0.1,0,0.2,0,0.3,0l0.6,0.3c0.1,0,0.1,0.1,0,0.2
									l-0.5,0.2C111.7,153.7,111.6,153.7,111.5,153.7z"/>
								<path class="st26" d="M119.5,158.3l-0.6-0.3c-0.1,0-0.1-0.1,0-0.2l0.5-0.2c0.1,0,0.2,0,0.3,0l0.6,0.3c0.1,0,0.1,0.1,0,0.2
									l-0.5,0.2C119.8,158.3,119.6,158.3,119.5,158.3z"/>
								<path class="st26" d="M120.7,158.9l-0.6-0.3c-0.1,0-0.1-0.1,0-0.2l0.5-0.2c0.1,0,0.2,0,0.3,0l0.6,0.3c0.1,0,0.1,0.1,0,0.2
									l-0.5,0.2C120.9,159,120.8,159,120.7,158.9z"/>
								<path class="st26" d="M122.6,160l-0.6-0.3c-0.1,0-0.1-0.1,0-0.2l0.5-0.2c0.1,0,0.2,0,0.3,0l0.6,0.3c0.1,0,0.1,0.1,0,0.2
									l-0.5,0.2C122.8,160,122.7,160,122.6,160z"/>
								<path class="st26" d="M118.4,157.6l-0.6-0.3c-0.1,0-0.1-0.1,0-0.2l0.5-0.2c0.1,0,0.2,0,0.3,0l0.6,0.3c0.1,0,0.1,0.1,0,0.2
									l-0.5,0.2C118.6,157.7,118.5,157.7,118.4,157.6z"/>
								<path class="st26" d="M116,156.2l-3.7-2.1c-0.1,0-0.1-0.1,0-0.2l0.5-0.2c0.1,0,0.2,0,0.3,0l3.7,2.1c0.1,0,0.1,0.1,0,0.2
									l-0.5,0.2C116.2,156.3,116.1,156.3,116,156.2z"/>
								<path class="st26" d="M122,159.2l-0.4-0.2c-0.1,0-0.1-0.1,0-0.1c0.1-0.1,0.2,0,0.3,0l0.4,0.2c0.1,0,0.1,0.1,0,0.1
									C122.2,159.2,122.1,159.2,122,159.2z"/>
								<path class="st26" d="M121.5,159.4l-0.4-0.2c-0.1,0-0.1-0.1,0-0.1c0.1-0.1,0.2,0,0.3,0l0.4,0.2c0.1,0,0.1,0.1,0,0.1
									C121.7,159.5,121.6,159.5,121.5,159.4z"/>
							</g>
							<g>
								<path class="st26" d="M111.9,149.7l-0.6-0.3c-0.1,0-0.1-0.1,0-0.2l0.5-0.2c0.1,0,0.2,0,0.3,0l0.6,0.3c0.1,0,0.1,0.1,0,0.2
									l-0.5,0.2C112.1,149.7,112,149.7,111.9,149.7z"/>
								<path class="st26" d="M114.2,151l-0.6-0.3c-0.1,0-0.1-0.1,0-0.2l0.5-0.2c0.1,0,0.2,0,0.3,0l0.6,0.3c0.1,0,0.1,0.1,0,0.2
									l-0.5,0.2C114.4,151.1,114.3,151,114.2,151z"/>
								<path class="st26" d="M113.1,150.3l-0.6-0.3c-0.1,0-0.1-0.1,0-0.2l0.5-0.2c0.1,0,0.2,0,0.3,0l0.6,0.3c0.1,0,0.1,0.1,0,0.2
									l-0.5,0.2C113.3,150.4,113.1,150.4,113.1,150.3z"/>
								<path class="st26" d="M115.4,151.7l-0.6-0.3c-0.1,0-0.1-0.1,0-0.2l0.5-0.2c0.1,0,0.2,0,0.3,0l0.6,0.3c0.1,0,0.1,0.1,0,0.2
									l-0.5,0.2C115.6,151.7,115.4,151.7,115.4,151.7z"/>
								<path class="st26" d="M116.5,152.3L116,152c-0.1,0-0.1-0.1,0-0.2l0.5-0.2c0.1,0,0.2,0,0.3,0l0.6,0.3c0.1,0,0.1,0.1,0,0.2
									l-0.5,0.2C116.7,152.4,116.6,152.4,116.5,152.3z"/>
								<path class="st26" d="M117.7,153l-0.6-0.3c-0.1,0-0.1-0.1,0-0.2l0.5-0.2c0.1,0,0.2,0,0.3,0l0.6,0.3c0.1,0,0.1,0.1,0,0.2
									L118,153C117.9,153,117.8,153,117.7,153z"/>
								<path class="st26" d="M118.8,153.7l-0.6-0.3c-0.1,0-0.1-0.1,0-0.2l0.5-0.2c0.1,0,0.2,0,0.3,0l0.6,0.3c0.1,0,0.1,0.1,0,0.2
									l-0.5,0.2C119,153.7,118.9,153.7,118.8,153.7z"/>
								<path class="st26" d="M120,154.3l-0.6-0.3c-0.1,0-0.1-0.1,0-0.2l0.5-0.2c0.1,0,0.2,0,0.3,0l0.6,0.3c0.1,0,0.1,0.1,0,0.2
									l-0.5,0.2C120.2,154.4,120.1,154.4,120,154.3z"/>
								<path class="st26" d="M121.1,155l-0.6-0.3c-0.1,0-0.1-0.1,0-0.2l0.5-0.2c0.1,0,0.2,0,0.3,0l0.6,0.3c0.1,0,0.1,0.1,0,0.2
									l-0.5,0.2C121.4,155,121.2,155,121.1,155z"/>
								<path class="st26" d="M122.3,155.7l-0.6-0.3c-0.1,0-0.1-0.1,0-0.2l0.5-0.2c0.1,0,0.2,0,0.3,0l0.6,0.3c0.1,0,0.1,0.1,0,0.2
									l-0.5,0.2C122.5,155.7,122.4,155.7,122.3,155.7z"/>
								<path class="st26" d="M123.5,156.3l-0.6-0.3c-0.1,0-0.1-0.1,0-0.2l0.5-0.2c0.1,0,0.2,0,0.3,0l0.6,0.3c0.1,0,0.1,0.1,0,0.2
									l-0.5,0.2C123.7,156.4,123.5,156.4,123.5,156.3z"/>
								<path class="st26" d="M124.6,157l-0.6-0.3c-0.1,0-0.1-0.1,0-0.2l0.5-0.2c0.1,0,0.2,0,0.3,0l0.6,0.3c0.1,0,0.1,0.1,0,0.2
									l-0.5,0.2C124.8,157,124.7,157,124.6,157z"/>
								<path class="st26" d="M126.3,158l-1-0.6c-0.1,0-0.1-0.1,0-0.1l0.4-0.2c0.1,0,0.2,0,0.3,0l1,0.6c0.1,0,0.1,0.1,0,0.1
									l-0.4,0.2C126.5,158,126.4,158,126.3,158z"/>
							</g>
							<g>
								<path class="st26" d="M113.9,151.8l-0.6-0.3c-0.1,0-0.1-0.1,0-0.2l0.5-0.2c0.1,0,0.2,0,0.3,0l0.6,0.3c0.1,0,0.1,0.1,0,0.2
									l-0.5,0.2C114.1,151.9,113.9,151.9,113.9,151.8z"/>
								<path class="st26" d="M112.7,151.2l-0.6-0.3c-0.1,0-0.1-0.1,0-0.2l0.5-0.2c0.1,0,0.2,0,0.3,0l0.6,0.3c0.1,0,0.1,0.1,0,0.2
									l-0.5,0.2C112.9,151.2,112.8,151.2,112.7,151.2z"/>
								<path class="st26" d="M115,152.5l-0.6-0.3c-0.1,0-0.1-0.1,0-0.2l0.5-0.2c0.1,0,0.2,0,0.3,0l0.6,0.3c0.1,0,0.1,0.1,0,0.2
									l-0.5,0.2C115.2,152.6,115.1,152.6,115,152.5z"/>
								<path class="st26" d="M116.2,153.2l-0.6-0.3c-0.1,0-0.1-0.1,0-0.2l0.5-0.2c0.1,0,0.2,0,0.3,0l0.6,0.3c0.1,0,0.1,0.1,0,0.2
									l-0.5,0.2C116.4,153.2,116.3,153.2,116.2,153.2z"/>
								<path class="st26" d="M117.3,153.8l-0.6-0.3c-0.1,0-0.1-0.1,0-0.2l0.5-0.2c0.1,0,0.2,0,0.3,0l0.6,0.3c0.1,0,0.1,0.1,0,0.2
									l-0.5,0.2C117.5,153.9,117.4,153.9,117.3,153.8z"/>
								<path class="st26" d="M118.5,154.5l-0.6-0.3c-0.1,0-0.1-0.1,0-0.2l0.5-0.2c0.1,0,0.2,0,0.3,0l0.6,0.3c0.1,0,0.1,0.1,0,0.2
									l-0.5,0.2C118.7,154.6,118.6,154.6,118.5,154.5z"/>
								<path class="st26" d="M119.6,155.2l-0.6-0.3c-0.1,0-0.1-0.1,0-0.2l0.5-0.2c0.1,0,0.2,0,0.3,0l0.6,0.3c0.1,0,0.1,0.1,0,0.2
									l-0.5,0.2C119.9,155.2,119.7,155.2,119.6,155.2z"/>
								<path class="st26" d="M120.8,155.8l-0.6-0.3c-0.1,0-0.1-0.1,0-0.2l0.5-0.2c0.1,0,0.2,0,0.3,0l0.6,0.3c0.1,0,0.1,0.1,0,0.2
									l-0.5,0.2C121,155.9,120.9,155.9,120.8,155.8z"/>
								<path class="st26" d="M122,156.5l-0.6-0.3c-0.1,0-0.1-0.1,0-0.2l0.5-0.2c0.1,0,0.2,0,0.3,0l0.6,0.3c0.1,0,0.1,0.1,0,0.2
									l-0.5,0.2C122.2,156.6,122,156.6,122,156.5z"/>
								<path class="st26" d="M123.1,157.2l-0.6-0.3c-0.1,0-0.1-0.1,0-0.2l0.5-0.2c0.1,0,0.2,0,0.3,0l0.6,0.3c0.1,0,0.1,0.1,0,0.2
									l-0.5,0.2C123.3,157.2,123.2,157.2,123.1,157.2z"/>
								<path class="st26" d="M124.3,157.8l-0.6-0.3c-0.1,0-0.1-0.1,0-0.2l0.5-0.2c0.1,0,0.2,0,0.3,0l0.6,0.3c0.1,0,0.1,0.1,0,0.2
									l-0.5,0.2C124.5,157.9,124.4,157.9,124.3,157.8z"/>
								<path class="st26" d="M125.4,158.5l-0.6-0.3c-0.1,0-0.1-0.1,0-0.2l0.5-0.2c0.1,0,0.2,0,0.3,0l0.6,0.3c0.1,0,0.1,0.1,0,0.2
									l-0.5,0.2C125.6,158.6,125.5,158.5,125.4,158.5z"/>
								<path class="st26" d="M111.5,150.5l-1-0.6c-0.1,0-0.1-0.1,0-0.1l0.4-0.2c0.1,0,0.2,0,0.3,0l1,0.6c0.1,0,0.1,0.1,0,0.1
									l-0.4,0.2C111.7,150.5,111.6,150.5,111.5,150.5z"/>
							</g>
							<g>
								<path class="st26" d="M113.2,152.5l-0.6-0.3c-0.1,0-0.1-0.1,0-0.2l0.5-0.2c0.1,0,0.2,0,0.3,0l0.6,0.3c0.1,0,0.1,0.1,0,0.2
									l-0.5,0.2C113.4,152.6,113.3,152.5,113.2,152.5z"/>
								<path class="st26" d="M112,151.8l-0.6-0.3c-0.1,0-0.1-0.1,0-0.2l0.5-0.2c0.1,0,0.2,0,0.3,0l0.6,0.3c0.1,0,0.1,0.1,0,0.2
									l-0.5,0.2C112.2,151.9,112.1,151.9,112,151.8z"/>
								<path class="st26" d="M114.3,153.2l-0.6-0.3c-0.1,0-0.1-0.1,0-0.2l0.5-0.2c0.1,0,0.2,0,0.3,0l0.6,0.3c0.1,0,0.1,0.1,0,0.2
									l-0.5,0.2C114.6,153.2,114.4,153.2,114.3,153.2z"/>
								<path class="st26" d="M115.5,153.8l-0.6-0.3c-0.1,0-0.1-0.1,0-0.2l0.5-0.2c0.1,0,0.2,0,0.3,0l0.6,0.3c0.1,0,0.1,0.1,0,0.2
									l-0.5,0.2C115.7,153.9,115.6,153.9,115.5,153.8z"/>
								<path class="st26" d="M116.7,154.5l-0.6-0.3c-0.1,0-0.1-0.1,0-0.2l0.5-0.2c0.1,0,0.2,0,0.3,0l0.6,0.3c0.1,0,0.1,0.1,0,0.2
									l-0.5,0.2C116.9,154.6,116.7,154.5,116.7,154.5z"/>
								<path class="st26" d="M117.8,155.2l-0.6-0.3c-0.1,0-0.1-0.1,0-0.2l0.5-0.2c0.1,0,0.2,0,0.3,0l0.6,0.3c0.1,0,0.1,0.1,0,0.2
									l-0.5,0.2C118,155.2,117.9,155.2,117.8,155.2z"/>
								<path class="st26" d="M119,155.8l-0.6-0.3c-0.1,0-0.1-0.1,0-0.2l0.5-0.2c0.1,0,0.2,0,0.3,0l0.6,0.3c0.1,0,0.1,0.1,0,0.2
									l-0.5,0.2C119.2,155.9,119.1,155.9,119,155.8z"/>
								<path class="st26" d="M120.1,156.5l-0.6-0.3c-0.1,0-0.1-0.1,0-0.2l0.5-0.2c0.1,0,0.2,0,0.3,0l0.6,0.3c0.1,0,0.1,0.1,0,0.2
									l-0.5,0.2C120.3,156.6,120.2,156.5,120.1,156.5z"/>
								<path class="st26" d="M121.3,157.2l-0.6-0.3c-0.1,0-0.1-0.1,0-0.2l0.5-0.2c0.1,0,0.2,0,0.3,0l0.6,0.3c0.1,0,0.1,0.1,0,0.2
									l-0.5,0.2C121.5,157.2,121.4,157.2,121.3,157.2z"/>
								<path class="st26" d="M122.4,157.8l-0.6-0.3c-0.1,0-0.1-0.1,0-0.2l0.5-0.2c0.1,0,0.2,0,0.3,0l0.6,0.3c0.1,0,0.1,0.1,0,0.2
									l-0.5,0.2C122.7,157.9,122.5,157.9,122.4,157.8z"/>
								<path class="st26" d="M110.8,151.1l-1.3-0.7c-0.1,0-0.1-0.1,0-0.1l0.5-0.2c0.1,0,0.2,0,0.3,0l1.3,0.7c0.1,0,0.1,0.1,0,0.1
									l-0.5,0.2C111,151.2,110.9,151.2,110.8,151.1z"/>
								<path class="st26" d="M124.4,159l-1.3-0.7c-0.1,0-0.1-0.1,0-0.1l0.5-0.2c0.1,0,0.2,0,0.3,0l1.3,0.7c0.1,0,0.1,0.1,0,0.1
									l-0.5,0.2C124.6,159,124.5,159,124.4,159z"/>
							</g>
							<g>
								<path class="st26" d="M112.8,153.3l-0.6-0.3c-0.1,0-0.1-0.1,0-0.2l0.5-0.2c0.1,0,0.2,0,0.3,0l0.6,0.3c0.1,0,0.1,0.1,0,0.2
									l-0.5,0.2C113,153.4,112.9,153.4,112.8,153.3z"/>
								<path class="st26" d="M111.7,152.7l-0.6-0.3c-0.1,0-0.1-0.1,0-0.2l0.5-0.2c0.1,0,0.2,0,0.3,0l0.6,0.3c0.1,0,0.1,0.1,0,0.2
									l-0.5,0.2C111.9,152.7,111.7,152.7,111.7,152.7z"/>
								<path class="st26" d="M114,154l-0.6-0.3c-0.1,0-0.1-0.1,0-0.2l0.5-0.2c0.1,0,0.2,0,0.3,0l0.6,0.3c0.1,0,0.1,0.1,0,0.2
									l-0.5,0.2C114.2,154.1,114.1,154.1,114,154z"/>
								<path class="st26" d="M115.1,154.7l-0.6-0.3c-0.1,0-0.1-0.1,0-0.2l0.5-0.2c0.1,0,0.2,0,0.3,0l0.6,0.3c0.1,0,0.1,0.1,0,0.2
									l-0.5,0.2C115.3,154.7,115.2,154.7,115.1,154.7z"/>
								<path class="st26" d="M116.3,155.3l-0.6-0.3c-0.1,0-0.1-0.1,0-0.2l0.5-0.2c0.1,0,0.2,0,0.3,0l0.6,0.3c0.1,0,0.1,0.1,0,0.2
									l-0.5,0.2C116.5,155.4,116.4,155.4,116.3,155.3z"/>
								<path class="st26" d="M117.4,156l-0.6-0.3c-0.1,0-0.1-0.1,0-0.2l0.5-0.2c0.1,0,0.2,0,0.3,0l0.6,0.3c0.1,0,0.1,0.1,0,0.2
									l-0.5,0.2C117.6,156.1,117.5,156.1,117.4,156z"/>
								<path class="st26" d="M118.6,156.7l-0.6-0.3c-0.1,0-0.1-0.1,0-0.2l0.5-0.2c0.1,0,0.2,0,0.3,0l0.6,0.3c0.1,0,0.1,0.1,0,0.2
									l-0.5,0.2C118.8,156.7,118.7,156.7,118.6,156.7z"/>
								<path class="st26" d="M119.8,157.3l-0.6-0.3c-0.1,0-0.1-0.1,0-0.2l0.5-0.2c0.1,0,0.2,0,0.3,0l0.6,0.3c0.1,0,0.1,0.1,0,0.2
									l-0.5,0.2C120,157.4,119.8,157.4,119.8,157.3z"/>
								<path class="st26" d="M120.9,158l-0.6-0.3c-0.1,0-0.1-0.1,0-0.2l0.5-0.2c0.1,0,0.2,0,0.3,0l0.6,0.3c0.1,0,0.1,0.1,0,0.2
									l-0.5,0.2C121.1,158.1,121,158,120.9,158z"/>
								<path class="st26" d="M110.5,152l-1.9-1.1c-0.1,0-0.1-0.1,0-0.2l0.5-0.3c0.1,0,0.2,0,0.3,0l1.9,1.1c0.1,0,0.1,0.1,0,0.2
									l-0.5,0.3C110.7,152,110.5,152,110.5,152z"/>
								<path class="st26" d="M123.5,159.5l-1.9-1.1c-0.1,0-0.1-0.1,0-0.2l0.5-0.3c0.1,0,0.2,0,0.3,0l1.9,1.1c0.1,0,0.1,0.1,0,0.2
									l-0.5,0.3C123.7,159.5,123.5,159.5,123.5,159.5z"/>
							</g>
						</g>
					</g>
					<path class="st4" d="M127,155l-0.5,0.3c-0.2,0.1-0.6,0.1-0.8-0.1l-10.6-6.1c-0.2-0.1-0.3-0.3-0.1-0.4l0.5-0.3L127,155z"/>
				</g>
			</g>
			<g>
				<g>
					<path class="st8" d="M124.8,103.4c0-0.5-0.2-0.9-0.7-1.2l-18.8-10.9c-0.8-0.5-1.8-0.5-2.6,0l-11.4,6.6
						c-0.5,0.3-0.7,0.8-0.7,1.2v0.7c0,0.4,0.2,0.8,0.7,1.1l18.8,10.9c0.8,0.5,1.8,0.5,2.6,0l11.4-6.6c0.4-0.2,0.6-0.6,0.7-1
						c0-0.1,0-0.1,0-0.2V103.4z"/>
					<path class="st4" d="M124.2,104.5l-11.4,6.6c-0.8,0.5-1.8,0.5-2.6,0l-18.8-10.9c-0.2-0.1-0.3-0.3-0.4-0.4v0.1
						c0,0.4,0.2,0.7,0.5,0.9l18.8,10.9c0.4,0.2,0.8,0.3,1.2,0.3c0.4,0,0.8-0.1,1.2-0.3L124,105c0.3-0.2,0.5-0.5,0.5-0.9V104
						c0,0,0,0,0-0.1C124.5,104.2,124.3,104.4,124.2,104.5z"/>
					<g>
						<path class="st12" d="M115.3,106.3l-4.3,2.5c-0.3,0.2-0.7,0.2-1,0l-15.4-8.9c-0.3-0.2-0.3-0.7,0-0.9l4.3-2.5
							c0.3-0.2,0.7-0.2,1,0l15.4,8.9C115.7,105.6,115.7,106.1,115.3,106.3z"/>
						<g>
							<g>
								<path class="st26" d="M114.3,105.5l0.6,0.3c0.1,0,0.1,0.1,0,0.2l-0.5,0.2c-0.1,0-0.2,0-0.3,0l-0.6-0.3c-0.1,0-0.1-0.1,0-0.2
									l0.5-0.2C114.1,105.4,114.2,105.5,114.3,105.5z"/>
								<path class="st26" d="M112,104.2l0.6,0.3c0.1,0,0.1,0.1,0,0.2l-0.5,0.2c-0.1,0-0.2,0-0.3,0l-0.6-0.3c-0.1,0-0.1-0.1,0-0.2
									l0.5-0.2C111.8,104.1,111.9,104.1,112,104.2z"/>
								<path class="st12" d="M111.4,95.9l4.3,2.5c0.6,0.4,0.7,0.9,0.2,1.1l-3.7,1.9c-0.4,0.2-0.9,0.2-1.3,0l-4.5-2.6
									c-0.6-0.4-0.7-0.9-0.2-1.1l3.6-1.9C110.4,95.5,110.8,95.5,111.4,95.9z"/>
								<path class="st26" d="M113.2,104.8l0.6,0.3c0.1,0,0.1,0.1,0,0.2l-0.5,0.2c-0.1,0-0.2,0-0.3,0l-0.6-0.3c-0.1,0-0.1-0.1,0-0.2
									l0.5-0.2C113,104.8,113.1,104.8,113.2,104.8z"/>
								<path class="st26" d="M105.1,100.2l0.6,0.3c0.1,0,0.1,0.1,0,0.2l-0.5,0.2c-0.1,0-0.2,0-0.3,0l-0.6-0.3c-0.1,0-0.1-0.1,0-0.2
									l0.5-0.2C104.9,100.2,105,100.2,105.1,100.2z"/>
								<path class="st26" d="M110.9,103.5l0.6,0.3c0.1,0,0.1,0.1,0,0.2l-0.5,0.2c-0.1,0-0.2,0-0.3,0l-0.6-0.3c-0.1,0-0.1-0.1,0-0.2
									l0.5-0.2C110.7,103.5,110.8,103.5,110.9,103.5z"/>
								<path class="st26" d="M102.9,98.9l0.6,0.3c0.1,0,0.1,0.1,0,0.2l-0.5,0.2c-0.1,0-0.2,0-0.3,0l-0.6-0.3c-0.1,0-0.1-0.1,0-0.2
									l0.5-0.2C102.7,98.9,102.8,98.9,102.9,98.9z"/>
								<path class="st26" d="M101.8,98.3l0.6,0.3c0.1,0,0.1,0.1,0,0.2l-0.5,0.2c-0.1,0-0.2,0-0.3,0l-0.6-0.3c-0.1,0-0.1-0.1,0-0.2
									l0.5-0.2C101.5,98.2,101.7,98.2,101.8,98.3z"/>
								<path class="st26" d="M99.8,97.2l0.6,0.3c0.1,0,0.1,0.1,0,0.2l-0.5,0.2c-0.1,0-0.2,0-0.3,0L99,97.6c-0.1,0-0.1-0.1,0-0.2
									l0.5-0.2C99.6,97.1,99.7,97.1,99.8,97.2z"/>
								<path class="st26" d="M104,99.6l0.6,0.3c0.1,0,0.1,0.1,0,0.2l-0.5,0.2c-0.1,0-0.2,0-0.3,0l-0.6-0.3c-0.1,0-0.1-0.1,0-0.2
									l0.5-0.2C103.8,99.5,103.9,99.5,104,99.6z"/>
								<path class="st26" d="M106.4,101l3.7,2.1c0.1,0,0.1,0.1,0,0.2l-0.5,0.2c-0.1,0-0.2,0-0.3,0l-3.7-2.1c-0.1,0-0.1-0.1,0-0.2
									l0.5-0.2C106.2,100.9,106.3,100.9,106.4,101z"/>
								<path class="st26" d="M100.4,98l0.4,0.2c0.1,0,0.1,0.1,0,0.1c-0.1,0.1-0.2,0-0.3,0l-0.4-0.2c-0.1,0-0.1-0.1,0-0.1
									S100.3,98,100.4,98z"/>
								<path class="st26" d="M100.9,97.8l0.4,0.2c0.1,0,0.1,0.1,0,0.1c-0.1,0.1-0.2,0-0.3,0l-0.4-0.2c-0.1,0-0.1-0.1,0-0.1
									C100.7,97.7,100.8,97.7,100.9,97.8z"/>
							</g>
							<g>
								<path class="st26" d="M110.5,107.5l0.6,0.3c0.1,0,0.1,0.1,0,0.2l-0.5,0.2c-0.1,0-0.2,0-0.3,0l-0.6-0.3c-0.1,0-0.1-0.1,0-0.2
									l0.5-0.2C110.3,107.4,110.4,107.5,110.5,107.5z"/>
								<path class="st26" d="M108.2,106.2l0.6,0.3c0.1,0,0.1,0.1,0,0.2l-0.5,0.2c-0.1,0-0.2,0-0.3,0l-0.6-0.3c-0.1,0-0.1-0.1,0-0.2
									l0.5-0.2C108,106.1,108.1,106.1,108.2,106.2z"/>
								<path class="st26" d="M109.4,106.9l0.6,0.3c0.1,0,0.1,0.1,0,0.2l-0.5,0.2c-0.1,0-0.2,0-0.3,0l-0.6-0.3c-0.1,0-0.1-0.1,0-0.2
									l0.5-0.2C109.2,106.8,109.3,106.8,109.4,106.9z"/>
								<path class="st26" d="M107.1,105.5l0.6,0.3c0.1,0,0.1,0.1,0,0.2l-0.5,0.2c-0.1,0-0.2,0-0.3,0l-0.6-0.3c-0.1,0-0.1-0.1,0-0.2
									l0.5-0.2C106.8,105.5,107,105.5,107.1,105.5z"/>
								<path class="st26" d="M105.9,104.9l0.6,0.3c0.1,0,0.1,0.1,0,0.2l-0.5,0.2c-0.1,0-0.2,0-0.3,0l-0.6-0.3c-0.1,0-0.1-0.1,0-0.2
									l0.5-0.2C105.7,104.8,105.8,104.8,105.9,104.9z"/>
								<path class="st26" d="M104.7,104.2l0.6,0.3c0.1,0,0.1,0.1,0,0.2l-0.5,0.2c-0.1,0-0.2,0-0.3,0l-0.6-0.3c-0.1,0-0.1-0.1,0-0.2
									l0.5-0.2C104.5,104.1,104.7,104.1,104.7,104.2z"/>
								<path class="st26" d="M103.6,103.5l0.6,0.3c0.1,0,0.1,0.1,0,0.2l-0.5,0.2c-0.1,0-0.2,0-0.3,0l-0.6-0.3c-0.1,0-0.1-0.1,0-0.2
									l0.5-0.2C103.4,103.5,103.5,103.5,103.6,103.5z"/>
								<path class="st26" d="M102.4,102.9l0.6,0.3c0.1,0,0.1,0.1,0,0.2l-0.5,0.2c-0.1,0-0.2,0-0.3,0l-0.6-0.3c-0.1,0-0.1-0.1,0-0.2
									l0.5-0.2C102.2,102.8,102.3,102.8,102.4,102.9z"/>
								<path class="st26" d="M101.3,102.2l0.6,0.3c0.1,0,0.1,0.1,0,0.2l-0.5,0.2c-0.1,0-0.2,0-0.3,0l-0.6-0.3c-0.1,0-0.1-0.1,0-0.2
									l0.5-0.2C101.1,102.1,101.2,102.1,101.3,102.2z"/>
								<path class="st26" d="M100.1,101.5l0.6,0.3c0.1,0,0.1,0.1,0,0.2l-0.5,0.2c-0.1,0-0.2,0-0.3,0l-0.6-0.3c-0.1,0-0.1-0.1,0-0.2
									l0.5-0.2C99.9,101.5,100,101.5,100.1,101.5z"/>
								<path class="st26" d="M99,100.9l0.6,0.3c0.1,0,0.1,0.1,0,0.2l-0.5,0.2c-0.1,0-0.2,0-0.3,0l-0.6-0.3c-0.1,0-0.1-0.1,0-0.2
									l0.5-0.2C98.8,100.8,98.9,100.8,99,100.9z"/>
								<path class="st26" d="M97.8,100.2l0.6,0.3c0.1,0,0.1,0.1,0,0.2l-0.5,0.2c-0.1,0-0.2,0-0.3,0l-0.6-0.3c-0.1,0-0.1-0.1,0-0.2
									l0.5-0.2C97.6,100.1,97.7,100.2,97.8,100.2z"/>
								<path class="st26" d="M96.1,99.2l1,0.6c0.1,0,0.1,0.1,0,0.1l-0.4,0.2c-0.1,0-0.2,0-0.3,0l-1-0.6c-0.1,0-0.1-0.1,0-0.1
									l0.4-0.2C95.9,99.2,96,99.2,96.1,99.2z"/>
							</g>
							<g>
								<path class="st26" d="M108.6,105.3l0.6,0.3c0.1,0,0.1,0.1,0,0.2l-0.5,0.2c-0.1,0-0.2,0-0.3,0l-0.6-0.3c-0.1,0-0.1-0.1,0-0.2
									l0.5-0.2C108.4,105.3,108.5,105.3,108.6,105.3z"/>
								<path class="st26" d="M109.7,106l0.6,0.3c0.1,0,0.1,0.1,0,0.2l-0.5,0.2c-0.1,0-0.2,0-0.3,0l-0.6-0.3c-0.1,0-0.1-0.1,0-0.2
									l0.5-0.2C109.5,106,109.6,106,109.7,106z"/>
								<path class="st26" d="M107.4,104.7l0.6,0.3c0.1,0,0.1,0.1,0,0.2l-0.5,0.2c-0.1,0-0.2,0-0.3,0l-0.6-0.3c-0.1,0-0.1-0.1,0-0.2
									l0.5-0.2C107.2,104.6,107.3,104.6,107.4,104.7z"/>
								<path class="st26" d="M106.2,104l0.6,0.3c0.1,0,0.1,0.1,0,0.2l-0.5,0.2c-0.1,0-0.2,0-0.3,0l-0.6-0.3c-0.1,0-0.1-0.1,0-0.2
									l0.5-0.2C106,104,106.2,104,106.2,104z"/>
								<path class="st26" d="M105.1,103.3l0.6,0.3c0.1,0,0.1,0.1,0,0.2l-0.5,0.2c-0.1,0-0.2,0-0.3,0l-0.6-0.3c-0.1,0-0.1-0.1,0-0.2
									l0.5-0.2C104.9,103.3,105,103.3,105.1,103.3z"/>
								<path class="st26" d="M103.9,102.7l0.6,0.3c0.1,0,0.1,0.1,0,0.2l-0.5,0.2c-0.1,0-0.2,0-0.3,0l-0.6-0.3c-0.1,0-0.1-0.1,0-0.2
									l0.5-0.2C103.7,102.6,103.8,102.6,103.9,102.7z"/>
								<path class="st26" d="M102.8,102l0.6,0.3c0.1,0,0.1,0.1,0,0.2l-0.5,0.2c-0.1,0-0.2,0-0.3,0l-0.6-0.3c-0.1,0-0.1-0.1,0-0.2
									l0.5-0.2C102.6,102,102.7,102,102.8,102z"/>
								<path class="st26" d="M101.6,101.3l0.6,0.3c0.1,0,0.1,0.1,0,0.2l-0.5,0.2c-0.1,0-0.2,0-0.3,0l-0.6-0.3c-0.1,0-0.1-0.1,0-0.2
									l0.5-0.2C101.4,101.3,101.5,101.3,101.6,101.3z"/>
								<path class="st26" d="M100.5,100.7l0.6,0.3c0.1,0,0.1,0.1,0,0.2l-0.5,0.2c-0.1,0-0.2,0-0.3,0l-0.6-0.3c-0.1,0-0.1-0.1,0-0.2
									l0.5-0.2C100.2,100.6,100.4,100.6,100.5,100.7z"/>
								<path class="st26" d="M99.3,100l0.6,0.3c0.1,0,0.1,0.1,0,0.2l-0.5,0.2c-0.1,0-0.2,0-0.3,0l-0.6-0.3c-0.1,0-0.1-0.1,0-0.2
									L99,100C99.1,100,99.2,100,99.3,100z"/>
								<path class="st26" d="M98.1,99.3l0.6,0.3c0.1,0,0.1,0.1,0,0.2l-0.5,0.2c-0.1,0-0.2,0-0.3,0l-0.6-0.3c-0.1,0-0.1-0.1,0-0.2
									l0.5-0.2C97.9,99.3,98.1,99.3,98.1,99.3z"/>
								<path class="st26" d="M97,98.7l0.6,0.3c0.1,0,0.1,0.1,0,0.2l-0.5,0.2c-0.1,0-0.2,0-0.3,0l-0.6-0.3c-0.1,0-0.1-0.1,0-0.2
									l0.5-0.2C96.8,98.6,96.9,98.6,97,98.7z"/>
								<path class="st26" d="M110.9,106.7l1,0.6c0.1,0,0.1,0.1,0,0.1l-0.4,0.2c-0.1,0-0.2,0-0.3,0l-1-0.6c-0.1,0-0.1-0.1,0-0.1
									l0.4-0.2C110.7,106.6,110.8,106.7,110.9,106.7z"/>
							</g>
							<g>
								<path class="st26" d="M109.2,104.7l0.6,0.3c0.1,0,0.1,0.1,0,0.2l-0.5,0.2c-0.1,0-0.2,0-0.3,0l-0.6-0.3c-0.1,0-0.1-0.1,0-0.2
									l0.5-0.2C109,104.6,109.2,104.6,109.2,104.7z"/>
								<path class="st26" d="M110.4,105.4l0.6,0.3c0.1,0,0.1,0.1,0,0.2l-0.5,0.2c-0.1,0-0.2,0-0.3,0l-0.6-0.3c-0.1,0-0.1-0.1,0-0.2
									l0.5-0.2C110.2,105.3,110.3,105.3,110.4,105.4z"/>
								<path class="st26" d="M108.1,104l0.6,0.3c0.1,0,0.1,0.1,0,0.2l-0.5,0.2c-0.1,0-0.2,0-0.3,0l-0.6-0.3c-0.1,0-0.1-0.1,0-0.2
									l0.5-0.2C107.9,104,108,104,108.1,104z"/>
								<path class="st26" d="M106.9,103.4l0.6,0.3c0.1,0,0.1,0.1,0,0.2l-0.5,0.2c-0.1,0-0.2,0-0.3,0l-0.6-0.3c-0.1,0-0.1-0.1,0-0.2
									l0.5-0.2C106.7,103.3,106.8,103.3,106.9,103.4z"/>
								<path class="st26" d="M105.8,102.7l0.6,0.3c0.1,0,0.1,0.1,0,0.2l-0.5,0.2c-0.1,0-0.2,0-0.3,0l-0.6-0.3c-0.1,0-0.1-0.1,0-0.2
									l0.5-0.2C105.6,102.6,105.7,102.6,105.8,102.7z"/>
								<path class="st26" d="M104.6,102l0.6,0.3c0.1,0,0.1,0.1,0,0.2l-0.5,0.2c-0.1,0-0.2,0-0.3,0l-0.6-0.3c-0.1,0-0.1-0.1,0-0.2
									l0.5-0.2C104.4,102,104.5,102,104.6,102z"/>
								<path class="st26" d="M103.5,101.4l0.6,0.3c0.1,0,0.1,0.1,0,0.2l-0.5,0.2c-0.1,0-0.2,0-0.3,0l-0.6-0.3c-0.1,0-0.1-0.1,0-0.2
									l0.5-0.2C103.2,101.3,103.4,101.3,103.5,101.4z"/>
								<path class="st26" d="M102.3,100.7l0.6,0.3c0.1,0,0.1,0.1,0,0.2l-0.5,0.2c-0.1,0-0.2,0-0.3,0l-0.6-0.3c-0.1,0-0.1-0.1,0-0.2
									l0.5-0.2C102.1,100.6,102.2,100.6,102.3,100.7z"/>
								<path class="st26" d="M101.1,100l0.6,0.3c0.1,0,0.1,0.1,0,0.2l-0.5,0.2c-0.1,0-0.2,0-0.3,0l-0.6-0.3c-0.1,0-0.1-0.1,0-0.2
									l0.5-0.2C100.9,100,101.1,100,101.1,100z"/>
								<path class="st26" d="M100,99.4l0.6,0.3c0.1,0,0.1,0.1,0,0.2l-0.5,0.2c-0.1,0-0.2,0-0.3,0l-0.6-0.3c-0.1,0-0.1-0.1,0-0.2
									l0.5-0.2C99.8,99.3,99.9,99.3,100,99.4z"/>
								<path class="st26" d="M111.6,106.1l1.3,0.7c0.1,0,0.1,0.1,0,0.1l-0.5,0.2c-0.1,0-0.2,0-0.3,0l-1.3-0.7c-0.1,0-0.1-0.1,0-0.1
									l0.5-0.2C111.4,106,111.5,106,111.6,106.1z"/>
								<path class="st26" d="M98,98.2l1.3,0.7c0.1,0,0.1,0.1,0,0.1l-0.5,0.2c-0.1,0-0.2,0-0.3,0l-1.3-0.7c-0.1,0-0.1-0.1,0-0.1
									l0.5-0.2C97.8,98.2,97.9,98.2,98,98.2z"/>
							</g>
							<g>
								<path class="st26" d="M109.6,103.8l0.6,0.3c0.1,0,0.1,0.1,0,0.2l-0.5,0.2c-0.1,0-0.2,0-0.3,0l-0.6-0.3c-0.1,0-0.1-0.1,0-0.2
									l0.5-0.2C109.4,103.8,109.5,103.8,109.6,103.8z"/>
								<path class="st26" d="M110.8,104.5l0.6,0.3c0.1,0,0.1,0.1,0,0.2l-0.5,0.2c-0.1,0-0.2,0-0.3,0l-0.6-0.3c-0.1,0-0.1-0.1,0-0.2
									l0.5-0.2C110.6,104.5,110.7,104.5,110.8,104.5z"/>
								<path class="st26" d="M108.5,103.2l0.6,0.3c0.1,0,0.1,0.1,0,0.2l-0.5,0.2c-0.1,0-0.2,0-0.3,0l-0.6-0.3c-0.1,0-0.1-0.1,0-0.2
									l0.5-0.2C108.2,103.1,108.4,103.1,108.5,103.2z"/>
								<path class="st26" d="M107.3,102.5l0.6,0.3c0.1,0,0.1,0.1,0,0.2l-0.5,0.2c-0.1,0-0.2,0-0.3,0l-0.6-0.3c-0.1,0-0.1-0.1,0-0.2
									l0.5-0.2C107.1,102.5,107.2,102.5,107.3,102.5z"/>
								<path class="st26" d="M106.1,101.8l0.6,0.3c0.1,0,0.1,0.1,0,0.2l-0.5,0.2c-0.1,0-0.2,0-0.3,0l-0.6-0.3c-0.1,0-0.1-0.1,0-0.2
									l0.5-0.2C105.9,101.8,106.1,101.8,106.1,101.8z"/>
								<path class="st26" d="M105,101.2l0.6,0.3c0.1,0,0.1,0.1,0,0.2l-0.5,0.2c-0.1,0-0.2,0-0.3,0l-0.6-0.3c-0.1,0-0.1-0.1,0-0.2
									l0.5-0.2C104.8,101.1,104.9,101.1,105,101.2z"/>
								<path class="st26" d="M103.8,100.5l0.6,0.3c0.1,0,0.1,0.1,0,0.2l-0.5,0.2c-0.1,0-0.2,0-0.3,0l-0.6-0.3c-0.1,0-0.1-0.1,0-0.2
									l0.5-0.2C103.6,100.5,103.7,100.5,103.8,100.5z"/>
								<path class="st26" d="M102.7,99.9l0.6,0.3c0.1,0,0.1,0.1,0,0.2l-0.5,0.2c-0.1,0-0.2,0-0.3,0l-0.6-0.3c-0.1,0-0.1-0.1,0-0.2
									l0.5-0.2C102.5,99.8,102.6,99.8,102.7,99.9z"/>
								<path class="st26" d="M101.5,99.2l0.6,0.3c0.1,0,0.1,0.1,0,0.2l-0.5,0.2c-0.1,0-0.2,0-0.3,0l-0.6-0.3c-0.1,0-0.1-0.1,0-0.2
									l0.5-0.2C101.3,99.1,101.4,99.1,101.5,99.2z"/>
								<path class="st26" d="M112,105.2l1.9,1.1c0.1,0,0.1,0.1,0,0.2l-0.5,0.3c-0.1,0-0.2,0-0.3,0l-1.9-1.1c-0.1,0-0.1-0.1,0-0.2
									l0.5-0.3C111.8,105.1,111.9,105.1,112,105.2z"/>
								<path class="st26" d="M99,97.7l1.9,1.1c0.1,0,0.1,0.1,0,0.2l-0.5,0.3c-0.1,0-0.2,0-0.3,0l-1.9-1.1c-0.1,0-0.1-0.1,0-0.2
									l0.5-0.3C98.7,97.7,98.9,97.7,99,97.7z"/>
							</g>
						</g>
					</g>
				</g>
				<g>
					<path class="st8" d="M112,110.2l2.1-14.4c0.2-1-0.2-1.9-1-2.4l-17.6-10c-0.4-0.2-0.9-0.2-1.3,0.1h-0.1l-0.4,0.3
						c-0.5,0.2-1,0.8-1.1,1.4l-2.1,14.4c-0.2,1,0.2,1.9,1,2.4l17.6,10.1c0.4,0.2,0.9,0.2,1.3-0.1l0.8-0.5
						C111.6,111.2,112,110.7,112,110.2z"/>
					<path class="st4" d="M113.9,95.8c0.1-0.9-0.2-1.8-0.9-2.2l-17.6-10c-0.2-0.1-0.3-0.1-0.5-0.1s-0.3,0.1-0.5,0.2
						c0.2,0,0.4,0,0.5,0.1l17.6,10c0.9,0.5,1.2,1.2,1,2.4l-2.1,14.4c0,0.2-0.1,0.5-0.3,0.7c0.4-0.2,0.6-0.6,0.7-1.1L113.9,95.8z"/>
				</g>
			</g>
			<g>
				<g>
					<path class="st8" d="M186.9,133.2c0-0.5-0.2-0.9-0.7-1.2l-18.7-10.8c-0.8-0.5-1.8-0.5-2.6,0l-11.4,6.6
						c-0.5,0.3-0.7,0.8-0.7,1.2v0.7c0,0.4,0.2,0.8,0.7,1.1l18.7,10.8c0.8,0.5,1.8,0.5,2.6,0l11.4-6.6c0.4-0.2,0.6-0.6,0.7-1
						c0-0.1,0-0.1,0-0.2V133.2z"/>
					<path class="st4" d="M186.3,134.3l-11.4,6.6c-0.8,0.5-1.8,0.5-2.6,0l-18.7-10.8c-0.2-0.1-0.3-0.2-0.4-0.4v0.1
						c0,0.4,0.2,0.7,0.5,0.9l18.7,10.8c0.4,0.2,0.8,0.3,1.2,0.3s0.8-0.1,1.2-0.3l11.4-6.6c0.3-0.2,0.5-0.5,0.5-0.9v-0.1
						c0,0,0,0,0-0.1C186.6,134.1,186.4,134.2,186.3,134.3z"/>
					<g>
						<path class="st12" d="M177.5,136.1l-4.3,2.5c-0.3,0.2-0.7,0.2-1,0l-15.3-8.8c-0.3-0.2-0.3-0.7,0-0.9l4.3-2.5
							c0.3-0.2,0.7-0.2,1,0l15.3,8.8C177.8,135.4,177.8,135.9,177.5,136.1z"/>
						<g>
							<g>
								<path class="st26" d="M176.5,135.3l0.6,0.3c0.1,0,0.1,0.1,0,0.2l-0.5,0.2c-0.1,0-0.2,0-0.3,0l-0.6-0.3c-0.1,0-0.1-0.1,0-0.2
									l0.5-0.2C176.3,135.3,176.4,135.3,176.5,135.3z"/>
								<path class="st26" d="M174.2,134l0.6,0.3c0.1,0,0.1,0.1,0,0.2l-0.5,0.2c-0.1,0-0.2,0-0.3,0l-0.6-0.3c-0.1,0-0.1-0.1,0-0.2
									l0.5-0.2C174,134,174.1,134,174.2,134z"/>
								<path class="st12" d="M173.6,125.8l4.3,2.4c0.6,0.3,0.7,0.8,0.2,1.1l-3.7,1.9c-0.4,0.2-0.9,0.2-1.3,0l-4.5-2.6
									c-0.6-0.3-0.7-0.8-0.2-1.1l3.6-1.9C172.6,125.4,173,125.4,173.6,125.8z"/>
								<path class="st26" d="M175.3,134.7l0.6,0.3c0.1,0,0.1,0.1,0,0.2l-0.5,0.2c-0.1,0-0.2,0-0.3,0l-0.6-0.3c-0.1,0-0.1-0.1,0-0.2
									l0.5-0.2C175.1,134.6,175.3,134.6,175.3,134.7z"/>
								<path class="st26" d="M167.4,130.1l0.6,0.3c0.1,0,0.1,0.1,0,0.2l-0.5,0.2c-0.1,0-0.2,0-0.3,0l-0.6-0.3c-0.1,0-0.1-0.1,0-0.2
									l0.5-0.2C167.2,130,167.3,130,167.4,130.1z"/>
								<path class="st26" d="M173.1,133.4l0.6,0.3c0.1,0,0.1,0.1,0,0.2l-0.5,0.2c-0.1,0-0.2,0-0.3,0l-0.6-0.3c-0.1,0-0.1-0.1,0-0.2
									l0.5-0.2C172.9,133.3,173,133.3,173.1,133.4z"/>
								<path class="st26" d="M165.1,128.8l0.6,0.3c0.1,0,0.1,0.1,0,0.2l-0.5,0.2c-0.1,0-0.2,0-0.3,0l-0.6-0.3c-0.1,0-0.1-0.1,0-0.2
									l0.5-0.2C164.9,128.7,165.1,128.8,165.1,128.8z"/>
								<path class="st26" d="M164,128.2l0.6,0.3c0.1,0,0.1,0.1,0,0.2l-0.5,0.2c-0.1,0-0.2,0-0.3,0l-0.6-0.3c-0.1,0-0.1-0.1,0-0.2
									l0.5-0.2C163.8,128.1,163.9,128.1,164,128.2z"/>
								<path class="st26" d="M162.1,127.1l0.6,0.3c0.1,0,0.1,0.1,0,0.2l-0.5,0.2c-0.1,0-0.2,0-0.3,0l-0.6-0.3c-0.1,0-0.1-0.1,0-0.2
									l0.5-0.2C161.9,127,162,127,162.1,127.1z"/>
								<path class="st26" d="M166.2,129.4l0.6,0.3c0.1,0,0.1,0.1,0,0.2l-0.5,0.2c-0.1,0-0.2,0-0.3,0l-0.6-0.3c-0.1,0-0.1-0.1,0-0.2
									l0.5-0.2C166,129.4,166.2,129.4,166.2,129.4z"/>
								<path class="st26" d="M168.6,130.8l3.7,2.1c0.1,0,0.1,0.1,0,0.2l-0.5,0.2c-0.1,0-0.2,0-0.3,0l-3.7-2.1c-0.1,0-0.1-0.1,0-0.2
									l0.5-0.2C168.4,130.8,168.6,130.8,168.6,130.8z"/>
								<path class="st26" d="M162.7,127.9l0.4,0.2c0.1,0,0.1,0.1,0,0.1c-0.1,0.1-0.2,0-0.3,0l-0.4-0.2c-0.1,0-0.1-0.1,0-0.1
									C162.5,127.9,162.6,127.9,162.7,127.9z"/>
								<path class="st26" d="M163.2,127.7l0.4,0.2c0.1,0,0.1,0.1,0,0.1c-0.1,0.1-0.2,0-0.3,0l-0.4-0.2c-0.1,0-0.1-0.1,0-0.1
									C163,127.6,163.1,127.6,163.2,127.7z"/>
							</g>
							<g>
								<path class="st26" d="M172.7,137.3l0.6,0.3c0.1,0,0.1,0.1,0,0.2l-0.5,0.2c-0.1,0-0.2,0-0.3,0l-0.6-0.3c-0.1,0-0.1-0.1,0-0.2
									l0.5-0.2C172.5,137.3,172.6,137.3,172.7,137.3z"/>
								<path class="st26" d="M170.4,136l0.6,0.3c0.1,0,0.1,0.1,0,0.2l-0.5,0.2c-0.1,0-0.2,0-0.3,0l-0.6-0.3c-0.1,0-0.1-0.1,0-0.2
									l0.5-0.2C170.2,136,170.3,136,170.4,136z"/>
								<path class="st26" d="M171.6,136.7l0.6,0.3c0.1,0,0.1,0.1,0,0.2l-0.5,0.2c-0.1,0-0.2,0-0.3,0l-0.6-0.3c-0.1,0-0.1-0.1,0-0.2
									l0.5-0.2C171.4,136.6,171.5,136.6,171.6,136.7z"/>
								<path class="st26" d="M169.3,135.4l0.6,0.3c0.1,0,0.1,0.1,0,0.2l-0.5,0.2c-0.1,0-0.2,0-0.3,0l-0.6-0.3c-0.1,0-0.1-0.1,0-0.2
									l0.5-0.2C169.1,135.3,169.2,135.3,169.3,135.4z"/>
								<path class="st26" d="M168.1,134.7l0.6,0.3c0.1,0,0.1,0.1,0,0.2l-0.5,0.2c-0.1,0-0.2,0-0.3,0l-0.6-0.3c-0.1,0-0.1-0.1,0-0.2
									l0.5-0.2C167.9,134.6,168.1,134.7,168.1,134.7z"/>
								<path class="st26" d="M167,134l0.6,0.3c0.1,0,0.1,0.1,0,0.2l-0.5,0.2c-0.1,0-0.2,0-0.3,0l-0.6-0.3c-0.1,0-0.1-0.1,0-0.2
									l0.5-0.2C166.8,134,166.9,134,167,134z"/>
								<path class="st26" d="M165.8,133.4l0.6,0.3c0.1,0,0.1,0.1,0,0.2l-0.5,0.2c-0.1,0-0.2,0-0.3,0l-0.6-0.3c-0.1,0-0.1-0.1,0-0.2
									l0.5-0.2C165.6,133.3,165.8,133.3,165.8,133.4z"/>
								<path class="st26" d="M164.7,132.7l0.6,0.3c0.1,0,0.1,0.1,0,0.2l-0.5,0.2c-0.1,0-0.2,0-0.3,0l-0.6-0.3c-0.1,0-0.1-0.1,0-0.2
									l0.5-0.2C164.5,132.7,164.6,132.7,164.7,132.7z"/>
								<path class="st26" d="M163.5,132.1l0.6,0.3c0.1,0,0.1,0.1,0,0.2l-0.5,0.2c-0.1,0-0.2,0-0.3,0l-0.6-0.3c-0.1,0-0.1-0.1,0-0.2
									l0.5-0.2C163.3,132,163.5,132,163.5,132.1z"/>
								<path class="st26" d="M162.4,131.4l0.6,0.3c0.1,0,0.1,0.1,0,0.2l-0.5,0.2c-0.1,0-0.2,0-0.3,0l-0.6-0.3c-0.1,0-0.1-0.1,0-0.2
									l0.5-0.2C162.2,131.3,162.3,131.3,162.4,131.4z"/>
								<path class="st26" d="M161.2,130.7l0.6,0.3c0.1,0,0.1,0.1,0,0.2l-0.5,0.2c-0.1,0-0.2,0-0.3,0l-0.6-0.3c-0.1,0-0.1-0.1,0-0.2
									l0.5-0.2C161,130.7,161.2,130.7,161.2,130.7z"/>
								<path class="st26" d="M160.1,130.1l0.6,0.3c0.1,0,0.1,0.1,0,0.2l-0.5,0.2c-0.1,0-0.2,0-0.3,0l-0.6-0.3c-0.1,0-0.1-0.1,0-0.2
									l0.5-0.2C159.9,130,160,130,160.1,130.1z"/>
								<path class="st26" d="M158.4,129.1l1,0.6c0.1,0,0.1,0.1,0,0.1L159,130c-0.1,0-0.2,0-0.3,0l-1-0.6c-0.1,0-0.1-0.1,0-0.1
									l0.4-0.2C158.2,129.1,158.3,129.1,158.4,129.1z"/>
							</g>
							<g>
								<path class="st26" d="M170.8,135.2l0.6,0.3c0.1,0,0.1,0.1,0,0.2l-0.5,0.2c-0.1,0-0.2,0-0.3,0l-0.6-0.3c-0.1,0-0.1-0.1,0-0.2
									l0.5-0.2C170.6,135.1,170.7,135.1,170.8,135.2z"/>
								<path class="st26" d="M171.9,135.8l0.6,0.3c0.1,0,0.1,0.1,0,0.2l-0.5,0.2c-0.1,0-0.2,0-0.3,0l-0.6-0.3c-0.1,0-0.1-0.1,0-0.2
									l0.5-0.2C171.7,135.8,171.8,135.8,171.9,135.8z"/>
								<path class="st26" d="M169.6,134.5l0.6,0.3c0.1,0,0.1,0.1,0,0.2l-0.5,0.2c-0.1,0-0.2,0-0.3,0l-0.6-0.3c-0.1,0-0.1-0.1,0-0.2
									l0.5-0.2C169.4,134.5,169.5,134.5,169.6,134.5z"/>
								<path class="st26" d="M168.5,133.9l0.6,0.3c0.1,0,0.1,0.1,0,0.2l-0.5,0.2c-0.1,0-0.2,0-0.3,0l-0.6-0.3c-0.1,0-0.1-0.1,0-0.2
									l0.5-0.2C168.3,133.8,168.4,133.8,168.5,133.9z"/>
								<path class="st26" d="M167.3,133.2l0.6,0.3c0.1,0,0.1,0.1,0,0.2l-0.5,0.2c-0.1,0-0.2,0-0.3,0l-0.6-0.3c-0.1,0-0.1-0.1,0-0.2
									l0.5-0.2C167.1,133.1,167.2,133.1,167.3,133.2z"/>
								<path class="st26" d="M166.2,132.5l0.6,0.3c0.1,0,0.1,0.1,0,0.2l-0.5,0.2c-0.1,0-0.2,0-0.3,0l-0.6-0.3c-0.1,0-0.1-0.1,0-0.2
									l0.5-0.2C166,132.5,166.1,132.5,166.2,132.5z"/>
								<path class="st26" d="M165,131.9l0.6,0.3c0.1,0,0.1,0.1,0,0.2l-0.5,0.2c-0.1,0-0.2,0-0.3,0l-0.6-0.3c-0.1,0-0.1-0.1,0-0.2
									l0.5-0.2C164.8,131.8,164.9,131.8,165,131.9z"/>
								<path class="st26" d="M163.9,131.2l0.6,0.3c0.1,0,0.1,0.1,0,0.2l-0.5,0.2c-0.1,0-0.2,0-0.3,0l-0.6-0.3c-0.1,0-0.1-0.1,0-0.2
									l0.5-0.2C163.7,131.2,163.8,131.2,163.9,131.2z"/>
								<path class="st26" d="M162.7,130.5l0.6,0.3c0.1,0,0.1,0.1,0,0.2l-0.5,0.2c-0.1,0-0.2,0-0.3,0l-0.6-0.3c-0.1,0-0.1-0.1,0-0.2
									l0.5-0.2C162.5,130.5,162.6,130.5,162.7,130.5z"/>
								<path class="st26" d="M161.6,129.9l0.6,0.3c0.1,0,0.1,0.1,0,0.2l-0.5,0.2c-0.1,0-0.2,0-0.3,0l-0.6-0.3c-0.1,0-0.1-0.1,0-0.2
									l0.5-0.2C161.4,129.8,161.5,129.8,161.6,129.9z"/>
								<path class="st26" d="M160.4,129.2l0.6,0.3c0.1,0,0.1,0.1,0,0.2l-0.5,0.2c-0.1,0-0.2,0-0.3,0l-0.6-0.3c-0.1,0-0.1-0.1,0-0.2
									l0.5-0.2C160.2,129.2,160.3,129.2,160.4,129.2z"/>
								<path class="st26" d="M159.3,128.6l0.6,0.3c0.1,0,0.1,0.1,0,0.2l-0.5,0.2c-0.1,0-0.2,0-0.3,0l-0.6-0.3c-0.1,0-0.1-0.1,0-0.2
									l0.5-0.2C159.1,128.5,159.2,128.5,159.3,128.6z"/>
								<path class="st26" d="M173.1,136.5l1,0.6c0.1,0,0.1,0.1,0,0.1l-0.4,0.2c-0.1,0-0.2,0-0.3,0l-1-0.6c-0.1,0-0.1-0.1,0-0.1
									l0.4-0.2C172.9,136.5,173,136.5,173.1,136.5z"/>
							</g>
							<g>
								<path class="st26" d="M171.4,134.5l0.6,0.3c0.1,0,0.1,0.1,0,0.2l-0.5,0.2c-0.1,0-0.2,0-0.3,0l-0.6-0.3c-0.1,0-0.1-0.1,0-0.2
									l0.5-0.2C171.2,134.5,171.4,134.5,171.4,134.5z"/>
								<path class="st26" d="M172.6,135.2l0.6,0.3c0.1,0,0.1,0.1,0,0.2l-0.5,0.2c-0.1,0-0.2,0-0.3,0l-0.6-0.3c-0.1,0-0.1-0.1,0-0.2
									l0.5-0.2C172.4,135.1,172.5,135.1,172.6,135.2z"/>
								<path class="st26" d="M170.3,133.9l0.6,0.3c0.1,0,0.1,0.1,0,0.2l-0.5,0.2c-0.1,0-0.2,0-0.3,0l-0.6-0.3c-0.1,0-0.1-0.1,0-0.2
									l0.5-0.2C170.1,133.8,170.2,133.8,170.3,133.9z"/>
								<path class="st26" d="M169.1,133.2l0.6,0.3c0.1,0,0.1,0.1,0,0.2l-0.5,0.2c-0.1,0-0.2,0-0.3,0l-0.6-0.3c-0.1,0-0.1-0.1,0-0.2
									l0.5-0.2C168.9,133.1,169.1,133.2,169.1,133.2z"/>
								<path class="st26" d="M168,132.5l0.6,0.3c0.1,0,0.1,0.1,0,0.2l-0.5,0.2c-0.1,0-0.2,0-0.3,0l-0.6-0.3c-0.1,0-0.1-0.1,0-0.2
									l0.5-0.2C167.8,132.5,167.9,132.5,168,132.5z"/>
								<path class="st26" d="M166.9,131.9l0.6,0.3c0.1,0,0.1,0.1,0,0.2l-0.5,0.2c-0.1,0-0.2,0-0.3,0l-0.6-0.3c-0.1,0-0.1-0.1,0-0.2
									l0.5-0.2C166.6,131.8,166.8,131.8,166.9,131.9z"/>
								<path class="st26" d="M165.7,131.2l0.6,0.3c0.1,0,0.1,0.1,0,0.2l-0.5,0.2c-0.1,0-0.2,0-0.3,0l-0.6-0.3c-0.1,0-0.1-0.1,0-0.2
									l0.5-0.2C165.5,131.2,165.6,131.2,165.7,131.2z"/>
								<path class="st26" d="M164.6,130.6l0.6,0.3c0.1,0,0.1,0.1,0,0.2l-0.5,0.2c-0.1,0-0.2,0-0.3,0l-0.6-0.3c-0.1,0-0.1-0.1,0-0.2
									l0.5-0.2C164.3,130.5,164.5,130.5,164.6,130.6z"/>
								<path class="st26" d="M163.4,129.9l0.6,0.3c0.1,0,0.1,0.1,0,0.2l-0.5,0.2c-0.1,0-0.2,0-0.3,0l-0.6-0.3c-0.1,0-0.1-0.1,0-0.2
									l0.5-0.2C163.2,129.8,163.3,129.8,163.4,129.9z"/>
								<path class="st26" d="M162.3,129.2l0.6,0.3c0.1,0,0.1,0.1,0,0.2l-0.5,0.2c-0.1,0-0.2,0-0.3,0l-0.6-0.3c-0.1,0-0.1-0.1,0-0.2
									l0.5-0.2C162,129.2,162.2,129.2,162.3,129.2z"/>
								<path class="st26" d="M173.8,135.9l1.3,0.7c0.1,0,0.1,0.1,0,0.1l-0.4,0.2c-0.1,0-0.2,0-0.3,0l-1.3-0.7c-0.1,0-0.1-0.1,0-0.1
									l0.4-0.2C173.6,135.8,173.7,135.8,173.8,135.9z"/>
								<path class="st26" d="M160.3,128.1l1.3,0.7c0.1,0,0.1,0.1,0,0.1l-0.4,0.2c-0.1,0-0.2,0-0.3,0l-1.3-0.7c-0.1,0-0.1-0.1,0-0.1
									l0.4-0.2C160.1,128.1,160.2,128.1,160.3,128.1z"/>
							</g>
							<g>
								<path class="st26" d="M171.8,133.7l0.6,0.3c0.1,0,0.1,0.1,0,0.2l-0.5,0.2c-0.1,0-0.2,0-0.3,0l-0.6-0.3c-0.1,0-0.1-0.1,0-0.2
									l0.5-0.2C171.6,133.6,171.7,133.6,171.8,133.7z"/>
								<path class="st26" d="M173,134.4l0.6,0.3c0.1,0,0.1,0.1,0,0.2l-0.5,0.2c-0.1,0-0.2,0-0.3,0l-0.6-0.3c-0.1,0-0.1-0.1,0-0.2
									l0.5-0.2C172.8,134.3,172.9,134.3,173,134.4z"/>
								<path class="st26" d="M170.7,133l0.6,0.3c0.1,0,0.1,0.1,0,0.2l-0.5,0.2c-0.1,0-0.2,0-0.3,0l-0.6-0.3c-0.1,0-0.1-0.1,0-0.2
									l0.5-0.2C170.5,133,170.6,133,170.7,133z"/>
								<path class="st26" d="M169.5,132.4l0.6,0.3c0.1,0,0.1,0.1,0,0.2l-0.5,0.2c-0.1,0-0.2,0-0.3,0l-0.6-0.3c-0.1,0-0.1-0.1,0-0.2
									l0.5-0.2C169.3,132.3,169.4,132.3,169.5,132.4z"/>
								<path class="st26" d="M168.4,131.7l0.6,0.3c0.1,0,0.1,0.1,0,0.2l-0.5,0.2c-0.1,0-0.2,0-0.3,0l-0.6-0.3c-0.1,0-0.1-0.1,0-0.2
									l0.5-0.2C168.2,131.7,168.3,131.7,168.4,131.7z"/>
								<path class="st26" d="M167.2,131l0.6,0.3c0.1,0,0.1,0.1,0,0.2l-0.5,0.2c-0.1,0-0.2,0-0.3,0l-0.6-0.3c-0.1,0-0.1-0.1,0-0.2
									l0.5-0.2C167,131,167.1,131,167.2,131z"/>
								<path class="st26" d="M166.1,130.4l0.6,0.3c0.1,0,0.1,0.1,0,0.2l-0.5,0.2c-0.1,0-0.2,0-0.3,0l-0.6-0.3c-0.1,0-0.1-0.1,0-0.2
									l0.5-0.2C165.9,130.3,166,130.3,166.1,130.4z"/>
								<path class="st26" d="M164.9,129.7l0.6,0.3c0.1,0,0.1,0.1,0,0.2l-0.5,0.2c-0.1,0-0.2,0-0.3,0l-0.6-0.3c-0.1,0-0.1-0.1,0-0.2
									l0.5-0.2C164.7,129.7,164.8,129.7,164.9,129.7z"/>
								<path class="st26" d="M163.8,129.1l0.6,0.3c0.1,0,0.1,0.1,0,0.2l-0.5,0.2c-0.1,0-0.2,0-0.3,0l-0.6-0.3c-0.1,0-0.1-0.1,0-0.2
									l0.5-0.2C163.6,129,163.7,129,163.8,129.1z"/>
								<path class="st26" d="M174.2,135l1.9,1.1c0.1,0,0.1,0.1,0,0.2l-0.5,0.3c-0.1,0-0.2,0-0.3,0l-1.9-1.1c-0.1,0-0.1-0.1,0-0.2
									l0.5-0.3C173.9,135,174.1,135,174.2,135z"/>
								<path class="st26" d="M161.2,127.6l1.9,1.1c0.1,0,0.1,0.1,0,0.2l-0.5,0.3c-0.1,0-0.2,0-0.3,0l-1.9-1.1c-0.1,0-0.1-0.1,0-0.2
									l0.5-0.3C161,127.5,161.2,127.6,161.2,127.6z"/>
							</g>
						</g>
					</g>
				</g>
				<g>
					<path class="st8" d="M174,139.7l-5.2-12.8c-0.3-0.8-0.9-1.4-1.6-1.8l-16.4-9.3c-0.4-0.2-0.9-0.2-1.3,0.1h-0.1l-0.4,0.3
						c-0.8,0.4-1.2,1.3-0.8,2.1l5,12.7c0.3,0.6,0.7,1.2,1.3,1.5l17,9.7c0.4,0.2,0.8,0.2,1.2,0l0.8-0.5
						C174,141.2,174.3,140.4,174,139.7z"/>
					<path class="st4" d="M168.4,126.9c-0.3-0.7-0.8-1.2-1.4-1.6l-16.4-9.3c-0.2-0.1-0.3-0.1-0.5-0.1s-0.3,0.1-0.5,0.2
						c0.2,0,0.4,0,0.5,0.1l16.7,9.4c0.6,0.4,1.1,0.9,1.4,1.6l5.2,13c0.2,0.4,0.1,0.9-0.1,1.3c0.5-0.3,0.6-1,0.4-1.5L168.4,126.9z"/>
				</g>
			</g>
			<g>
				<g>
					<g>
						<path class="st23" d="M87.5,119.3l-0.4-14.5c0-1-0.6-1.9-1.4-2.2l-19.1-6.8c-0.4-0.2-0.9,0-1.2,0.3l-0.1,0.1l-0.4,0.4
							c-0.5,0.3-0.9,0.9-0.8,1.6l0.4,14.5c0,1,0.6,1.9,1.4,2.2l19.1,6.9c0.4,0.2,0.9,0,1.2-0.3l0.7-0.6
							C87.2,120.4,87.5,119.9,87.5,119.3z"/>
						<path class="st4" d="M86.8,104.8c0-1-0.5-1.7-1.3-2L66.4,96c-0.2-0.1-0.4-0.1-0.5,0c-0.2,0-0.3,0.1-0.5,0.3c0.2,0,0.4,0,0.5,0
							l19.1,6.8c0.9,0.3,1.4,0.9,1.4,2.2l0.4,14.5c0,0.2,0,0.5-0.1,0.7c0.3-0.3,0.5-0.7,0.5-1.2L86.8,104.8z"/>
						<g>
							<path class="st24" d="M75.8,101.1c-0.1-0.3-0.4-0.5-0.6-0.5s-0.3,0.3-0.2,0.6c0.1,0.3,0.4,0.5,0.6,0.5
								C75.9,101.7,76,101.4,75.8,101.1z"/>
							<path class="st4" d="M75.8,101.1c-0.1-0.2-0.3-0.3-0.4-0.3s-0.2,0.2-0.1,0.4c0.1,0.2,0.2,0.3,0.4,0.3
								C75.8,101.4,75.9,101.3,75.8,101.1z"/>
						</g>
					</g>
					<polygon class="st25" points="66,111.9 65.6,99 84.8,106 85.2,118.9 					"/>
					<polygon class="st27" points="67.2,108.7 67,101.7 77.5,105.4 77.6,112.5 					"/>
					<polygon class="st2" points="67.3,111 67.3,109.7 83.4,115.5 83.4,116.9 					"/>
					<polygon class="st2" points="83.4,114.3 79.4,112.8 79,106 83.2,107.5 					"/>
				</g>
				<g>
					<path class="st8" d="M86.1,122c-0.1-0.5-0.4-0.9-0.9-1.1l-4.4-1.6l-6.8-1.8l-5.6-2.7l-3.6-1.3c-0.9-0.3-1.9-0.1-2.6,0.5
						l-10.1,8.5c-0.4,0.3-0.5,0.9-0.4,1.3l0.1,0.7c0.1,0.4,0.4,0.8,0.8,1l20.4,7.4c0.9,0.3,1.9,0.1,2.6-0.5l10.1-8.5
						c0.4-0.3,0.5-0.7,0.5-1.1c0-0.1,0-0.1,0-0.2L86.1,122z"/>
					<path class="st4" d="M85.7,123.2l-10.1,8.5c-0.7,0.6-1.7,0.8-2.6,0.5l-20.4-7.4c-0.2-0.1-0.4-0.2-0.5-0.3v0.1
						c0.1,0.4,0.3,0.7,0.7,0.8l20.4,7.4c0.4,0.1,0.8,0.2,1.2,0.1c0.4-0.1,0.8-0.3,1.1-0.5l10.1-8.5c0.3-0.2,0.4-0.6,0.4-0.9v-0.1
						c0,0,0,0,0-0.1C86,122.9,85.8,123,85.7,123.2z"/>
					<g>
						<path class="st12" d="M60.5,118.8l3.8-3.2c0.3-0.2,0.6-0.3,1-0.2l16.7,6.1c0.4,0.1,0.4,0.6,0.1,0.9l-3.8,3.2
							c-0.3,0.2-0.6,0.3-1,0.2l-16.7-6.1C60.3,119.5,60.3,119,60.5,118.8z"/>
						<g>
							<g>
								<path class="st26" d="M61.7,119.3l-0.6-0.2c-0.1,0-0.1-0.1,0-0.1l0.4-0.3c0.1,0,0.2-0.1,0.3,0l0.6,0.2c0.1,0,0.1,0.1,0,0.1
									l-0.4,0.3C61.9,119.4,61.8,119.4,61.7,119.3z"/>
								<path class="st26" d="M64.2,120.2l-0.6-0.2c-0.1,0-0.1-0.1,0-0.1l0.4-0.3c0.1,0,0.2-0.1,0.3,0l0.6,0.2c0.1,0,0.1,0.1,0,0.1
									l-0.4,0.3C64.4,120.3,64.2,120.3,64.2,120.2z"/>
								<path class="st12" d="M65,127.9l-4.4-1.6c-0.7-0.2-0.8-0.7-0.4-1.1l3.3-2.6c0.4-0.3,0.8-0.3,1.3-0.2l4.9,1.8
									c0.7,0.2,0.8,0.7,0.4,1.1l-3.1,2.4C66.6,128.1,65.7,128.2,65,127.9z"/>
								<path class="st26" d="M62.9,119.8l-0.6-0.2c-0.1,0-0.1-0.1,0-0.1l0.4-0.3c0.1,0,0.2-0.1,0.3,0l0.6,0.2c0.1,0,0.1,0.1,0,0.1
									l-0.4,0.3C63.1,119.8,63,119.8,62.9,119.8z"/>
								<path class="st26" d="M71.6,123l-0.6-0.2c-0.1,0-0.1-0.1,0-0.1l0.4-0.3c0.1,0,0.2-0.1,0.3,0l0.6,0.2c0.1,0,0.1,0.1,0,0.1
									l-0.4,0.3C71.9,123,71.7,123,71.6,123z"/>
								<path class="st26" d="M65.4,120.7l-0.6-0.2c-0.1,0-0.1-0.1,0-0.1l0.4-0.3c0.1,0,0.2-0.1,0.3,0l0.6,0.2c0.1,0,0.1,0.1,0,0.1
									l-0.4,0.3C65.6,120.7,65.5,120.7,65.4,120.7z"/>
								<path class="st26" d="M74.1,123.8l-0.6-0.2c-0.1,0-0.1-0.1,0-0.1l0.4-0.3c0.1,0,0.2-0.1,0.3,0l0.6,0.2c0.1,0,0.1,0.1,0,0.1
									l-0.4,0.3C74.3,123.9,74.2,123.9,74.1,123.8z"/>
								<path class="st26" d="M75.3,124.3l-0.6-0.2c-0.1,0-0.1-0.1,0-0.1l0.4-0.3c0.1,0,0.2-0.1,0.3,0l0.6,0.2c0.1,0,0.1,0.1,0,0.1
									l-0.4,0.3C75.5,124.3,75.4,124.3,75.3,124.3z"/>
								<path class="st26" d="M77.4,125l-0.6-0.2c-0.1,0-0.1-0.1,0-0.1l0.4-0.3c0.1,0,0.2-0.1,0.3,0l0.6,0.2c0.1,0,0.1,0.1,0,0.1
									l-0.4,0.3C77.6,125,77.5,125.1,77.4,125z"/>
								<path class="st26" d="M72.9,123.4l-0.6-0.2c-0.1,0-0.1-0.1,0-0.1l0.4-0.3c0.1,0,0.2-0.1,0.3,0l0.6,0.2c0.1,0,0.1,0.1,0,0.1
									l-0.4,0.3C73.1,123.4,72.9,123.4,72.9,123.4z"/>
								<path class="st26" d="M70.2,122.5l-4-1.5c-0.1,0-0.1-0.1-0.1-0.1l0.4-0.3c0.1,0,0.2-0.1,0.3,0l4,1.5c0.1,0,0.1,0.1,0.1,0.1
									l-0.4,0.3C70.5,122.5,70.3,122.5,70.2,122.5z"/>
								<path class="st26" d="M76.7,124.3l-0.4-0.2c-0.1,0-0.1-0.1,0-0.1c0.1-0.1,0.2-0.1,0.3-0.1l0.4,0.2c0.1,0,0.1,0.1,0,0.1
									C76.8,124.3,76.7,124.3,76.7,124.3z"/>
								<path class="st26" d="M76.2,124.6l-0.4-0.2c-0.1,0-0.1-0.1,0-0.1c0.1-0.1,0.2-0.1,0.3-0.1l0.4,0.2c0.1,0,0.1,0.1,0,0.1
									C76.4,124.7,76.3,124.7,76.2,124.6z"/>
							</g>
							<g>
								<path class="st26" d="M65.1,116.7l-0.6-0.2c-0.1,0-0.1-0.1,0-0.1l0.4-0.3c0.1,0,0.2-0.1,0.3,0l0.6,0.2c0.1,0,0.1,0.1,0,0.1
									l-0.4,0.3C65.3,116.7,65.2,116.7,65.1,116.7z"/>
								<path class="st26" d="M67.6,117.6l-0.6-0.2c-0.1,0-0.1-0.1,0-0.1l0.4-0.3c0.1,0,0.2-0.1,0.3,0l0.6,0.2c0.1,0,0.1,0.1,0,0.1
									l-0.4,0.3C67.8,117.6,67.7,117.6,67.6,117.6z"/>
								<path class="st26" d="M66.3,117.2l-0.6-0.2c-0.1,0-0.1-0.1,0-0.1l0.4-0.3c0.1,0,0.2-0.1,0.3,0l0.6,0.2c0.1,0,0.1,0.1,0,0.1
									l-0.4,0.3C66.5,117.2,66.4,117.2,66.3,117.2z"/>
								<path class="st26" d="M68.8,118.1l-0.6-0.2c-0.1,0-0.1-0.1,0-0.1l0.4-0.3c0.1,0,0.2-0.1,0.3,0l0.6,0.2c0.1,0,0.1,0.1,0,0.1
									l-0.4,0.3C69,118.1,68.9,118.1,68.8,118.1z"/>
								<path class="st26" d="M70.1,118.5l-0.6-0.2c-0.1,0-0.1-0.1,0-0.1l0.4-0.3c0.1,0,0.2-0.1,0.3,0l0.6,0.2c0.1,0,0.1,0.1,0,0.1
									l-0.4,0.3C70.3,118.5,70.2,118.6,70.1,118.5z"/>
								<path class="st26" d="M71.3,119l-0.6-0.2c-0.1,0-0.1-0.1,0-0.1l0.4-0.3c0.1,0,0.2-0.1,0.3,0l0.6,0.2c0.1,0,0.1,0.1,0,0.1
									l-0.4,0.3C71.5,119,71.4,119,71.3,119z"/>
								<path class="st26" d="M72.6,119.4l-0.6-0.2c-0.1,0-0.1-0.1,0-0.1l0.4-0.3c0.1,0,0.2-0.1,0.3,0l0.6,0.2c0.1,0,0.1,0.1,0,0.1
									l-0.4,0.3C72.8,119.5,72.7,119.5,72.6,119.4z"/>
								<path class="st26" d="M73.8,119.9l-0.6-0.2c-0.1,0-0.1-0.1,0-0.1l0.4-0.3c0.1,0,0.2-0.1,0.3,0l0.6,0.2c0.1,0,0.1,0.1,0,0.1
									l-0.4,0.3C74,119.9,73.9,119.9,73.8,119.9z"/>
								<path class="st26" d="M75.1,120.3l-0.6-0.2c-0.1,0-0.1-0.1,0-0.1l0.4-0.3c0.1,0,0.2-0.1,0.3,0l0.6,0.2c0.1,0,0.1,0.1,0,0.1
									l-0.4,0.3C75.3,120.4,75.2,120.4,75.1,120.3z"/>
								<path class="st26" d="M76.3,120.8l-0.6-0.2c-0.1,0-0.1-0.1,0-0.1l0.4-0.3c0.1,0,0.2-0.1,0.3,0l0.6,0.2c0.1,0,0.1,0.1,0,0.1
									l-0.4,0.3C76.6,120.8,76.4,120.8,76.3,120.8z"/>
								<path class="st26" d="M77.6,121.3L77,121c-0.1,0-0.1-0.1,0-0.1l0.4-0.3c0.1,0,0.2-0.1,0.3,0l0.6,0.2c0.1,0,0.1,0.1,0,0.1
									l-0.4,0.3C77.8,121.3,77.7,121.3,77.6,121.3z"/>
								<path class="st26" d="M78.9,121.7l-0.6-0.2c-0.1,0-0.1-0.1,0-0.1l0.4-0.3c0.1,0,0.2-0.1,0.3,0l0.6,0.2c0.1,0,0.1,0.1,0,0.1
									l-0.4,0.3C79.1,121.7,78.9,121.7,78.9,121.7z"/>
								<path class="st26" d="M80.7,122.4l-1.1-0.4c-0.1,0-0.1-0.1,0-0.1l0.4-0.3c0.1,0,0.2-0.1,0.3,0l1.1,0.4c0.1,0,0.1,0.1,0,0.1
									l-0.4,0.3C80.9,122.4,80.8,122.4,80.7,122.4z"/>
							</g>
							<g>
								<path class="st26" d="M67.4,118.5l-0.6-0.2c-0.1,0-0.1-0.1,0-0.1l0.4-0.3c0.1,0,0.2-0.1,0.3,0L68,118c0.1,0,0.1,0.1,0,0.1
									l-0.4,0.3C67.6,118.5,67.5,118.5,67.4,118.5z"/>
								<path class="st26" d="M66.1,118.1l-0.6-0.2c-0.1,0-0.1-0.1,0-0.1l0.4-0.3c0.1,0,0.2-0.1,0.3,0l0.6,0.2c0.1,0,0.1,0.1,0,0.1
									l-0.4,0.3C66.3,118.1,66.2,118.1,66.1,118.1z"/>
								<path class="st26" d="M68.6,119l-0.6-0.2c-0.1,0-0.1-0.1,0-0.1l0.4-0.3c0.1,0,0.2-0.1,0.3,0l0.6,0.2c0.1,0,0.1,0.1,0,0.1
									l-0.4,0.3C68.8,119,68.7,119,68.6,119z"/>
								<path class="st26" d="M69.9,119.4l-0.6-0.2c-0.1,0-0.1-0.1,0-0.1l0.4-0.3c0.1,0,0.2-0.1,0.3,0l0.6,0.2c0.1,0,0.1,0.1,0,0.1
									l-0.4,0.3C70.1,119.4,70,119.5,69.9,119.4z"/>
								<path class="st26" d="M71.1,119.9l-0.6-0.2c-0.1,0-0.1-0.1,0-0.1l0.4-0.3c0.1,0,0.2-0.1,0.3,0l0.6,0.2c0.1,0,0.1,0.1,0,0.1
									l-0.4,0.3C71.3,119.9,71.2,119.9,71.1,119.9z"/>
								<path class="st26" d="M72.4,120.3l-0.6-0.2c-0.1,0-0.1-0.1,0-0.1l0.4-0.3c0.1,0,0.2-0.1,0.3,0l0.6,0.2c0.1,0,0.1,0.1,0,0.1
									l-0.4,0.3C72.6,120.4,72.5,120.4,72.4,120.3z"/>
								<path class="st26" d="M73.6,120.8l-0.6-0.2c-0.1,0-0.1-0.1,0-0.1l0.4-0.3c0.1,0,0.2-0.1,0.3,0l0.6,0.2c0.1,0,0.1,0.1,0,0.1
									l-0.4,0.3C73.9,120.8,73.7,120.8,73.6,120.8z"/>
								<path class="st26" d="M74.9,121.2l-0.6-0.2c-0.1,0-0.1-0.1,0-0.1l0.4-0.3c0.1,0,0.2-0.1,0.3,0l0.6,0.2c0.1,0,0.1,0.1,0,0.1
									l-0.4,0.3C75.1,121.3,75,121.3,74.9,121.2z"/>
								<path class="st26" d="M76.2,121.7l-0.6-0.2c-0.1,0-0.1-0.1,0-0.1l0.4-0.3c0.1,0,0.2-0.1,0.3,0l0.6,0.2c0.1,0,0.1,0.1,0,0.1
									l-0.4,0.3C76.4,121.7,76.2,121.7,76.2,121.7z"/>
								<path class="st26" d="M77.4,122.2l-0.6-0.2c-0.1,0-0.1-0.1,0-0.1l0.4-0.3c0.1,0,0.2-0.1,0.3,0l0.6,0.2c0.1,0,0.1,0.1,0,0.1
									l-0.4,0.3C77.6,122.2,77.5,122.2,77.4,122.2z"/>
								<path class="st26" d="M78.7,122.6l-0.6-0.2c-0.1,0-0.1-0.1,0-0.1l0.4-0.3c0.1,0,0.2-0.1,0.3,0l0.6,0.2c0.1,0,0.1,0.1,0,0.1
									l-0.4,0.3C78.9,122.6,78.8,122.6,78.7,122.6z"/>
								<path class="st26" d="M79.9,123.1l-0.6-0.2c-0.1,0-0.1-0.1,0-0.1l0.4-0.3c0.1,0,0.2-0.1,0.3,0l0.6,0.2c0.1,0,0.1,0.1,0,0.1
									l-0.4,0.3C80.1,123.1,80,123.1,79.9,123.1z"/>
								<path class="st26" d="M64.8,117.6l-1.1-0.4c-0.1,0-0.1-0.1,0-0.1l0.4-0.3c0.1,0,0.2-0.1,0.3,0l1.1,0.4c0.1,0,0.1,0.1,0,0.1
									l-0.4,0.3C65,117.6,64.9,117.6,64.8,117.6z"/>
							</g>
							<g>
								<path class="st26" d="M66.8,119.3l-0.6-0.2c-0.1,0-0.1-0.1,0-0.1l0.4-0.3c0.1,0,0.2-0.1,0.3,0l0.6,0.2c0.1,0,0.1,0.1,0,0.1
									l-0.4,0.3C67,119.3,66.9,119.3,66.8,119.3z"/>
								<path class="st26" d="M65.6,118.8l-0.6-0.2c-0.1,0-0.1-0.1,0-0.1l0.4-0.3c0.1,0,0.2-0.1,0.3,0l0.6,0.2c0.1,0,0.1,0.1,0,0.1
									l-0.4,0.3C65.8,118.8,65.6,118.9,65.6,118.8z"/>
								<path class="st26" d="M68.1,119.7l-0.6-0.2c-0.1,0-0.1-0.1,0-0.1l0.4-0.3c0.1,0,0.2-0.1,0.3,0l0.6,0.2c0.1,0,0.1,0.1,0,0.1
									l-0.4,0.3C68.3,119.8,68.2,119.8,68.1,119.7z"/>
								<path class="st26" d="M69.3,120.2l-0.6-0.2c-0.1,0-0.1-0.1,0-0.1l0.4-0.3c0.1,0,0.2-0.1,0.3,0l0.6,0.2c0.1,0,0.1,0.1,0,0.1
									l-0.4,0.3C69.5,120.2,69.4,120.2,69.3,120.2z"/>
								<path class="st26" d="M70.6,120.6l-0.6-0.2c-0.1,0-0.1-0.1,0-0.1l0.4-0.3c0.1,0,0.2-0.1,0.3,0l0.6,0.2c0.1,0,0.1,0.1,0,0.1
									l-0.4,0.3C70.8,120.7,70.7,120.7,70.6,120.6z"/>
								<path class="st26" d="M71.8,121.1l-0.6-0.2c-0.1,0-0.1-0.1,0-0.1l0.4-0.3c0.1,0,0.2-0.1,0.3,0l0.6,0.2c0.1,0,0.1,0.1,0,0.1
									l-0.4,0.3C72.1,121.1,71.9,121.1,71.8,121.1z"/>
								<path class="st26" d="M73.1,121.6l-0.6-0.2c-0.1,0-0.1-0.1,0-0.1l0.4-0.3c0.1,0,0.2-0.1,0.3,0l0.6,0.2c0.1,0,0.1,0.1,0,0.1
									l-0.4,0.3C73.3,121.6,73.2,121.6,73.1,121.6z"/>
								<path class="st26" d="M74.3,122l-0.6-0.2c-0.1,0-0.1-0.1,0-0.1l0.4-0.3c0.1,0,0.2-0.1,0.3,0l0.6,0.2c0.1,0,0.1,0.1,0,0.1
									l-0.4,0.3C74.6,122,74.4,122,74.3,122z"/>
								<path class="st26" d="M75.6,122.5l-0.6-0.2c-0.1,0-0.1-0.1,0-0.1l0.4-0.3c0.1,0,0.2-0.1,0.3,0l0.6,0.2c0.1,0,0.1,0.1,0,0.1
									l-0.4,0.3C75.8,122.5,75.7,122.5,75.6,122.5z"/>
								<path class="st26" d="M76.9,122.9l-0.6-0.2c-0.1,0-0.1-0.1,0-0.1l0.4-0.3c0.1,0,0.2-0.1,0.3,0l0.6,0.2c0.1,0,0.1,0.1,0,0.1
									l-0.4,0.3C77.1,122.9,76.9,123,76.9,122.9z"/>
								<path class="st26" d="M64.2,118.3l-1.4-0.5c-0.1,0-0.1-0.1,0-0.1l0.4-0.3c0.1,0,0.2-0.1,0.3,0l1.4,0.5c0.1,0,0.1,0.1,0,0.1
									l-0.4,0.3C64.4,118.3,64.3,118.4,64.2,118.3z"/>
								<path class="st26" d="M79,123.7l-1.4-0.5c-0.1,0-0.1-0.1,0-0.1l0.4-0.3c0.1,0,0.2-0.1,0.3,0l1.4,0.5c0.1,0,0.1,0.1,0,0.1
									l-0.4,0.3C79.2,123.7,79.1,123.7,79,123.7z"/>
							</g>
							<g>
								<path class="st26" d="M66.6,120.2L66,120c-0.1,0-0.1-0.1,0-0.1l0.4-0.3c0.1,0,0.2-0.1,0.3,0l0.6,0.2c0.1,0,0.1,0.1,0,0.1
									l-0.4,0.3C66.8,120.2,66.7,120.2,66.6,120.2z"/>
								<path class="st26" d="M65.3,119.7l-0.6-0.2c-0.1,0-0.1-0.1,0-0.1l0.4-0.3c0.1,0,0.2-0.1,0.3,0l0.6,0.2c0.1,0,0.1,0.1,0,0.1
									l-0.4,0.3C65.6,119.7,65.4,119.7,65.3,119.7z"/>
								<path class="st26" d="M67.8,120.6l-0.6-0.2c-0.1,0-0.1-0.1,0-0.1l0.4-0.3c0.1,0,0.2-0.1,0.3,0l0.6,0.2c0.1,0,0.1,0.1,0,0.1
									l-0.4,0.3C68.1,120.6,67.9,120.7,67.8,120.6z"/>
								<path class="st26" d="M69.1,121.1l-0.6-0.2c-0.1,0-0.1-0.1,0-0.1l0.4-0.3c0.1,0,0.2-0.1,0.3,0l0.6,0.2c0.1,0,0.1,0.1,0,0.1
									l-0.4,0.3C69.3,121.1,69.2,121.1,69.1,121.1z"/>
								<path class="st26" d="M70.4,121.5l-0.6-0.2c-0.1,0-0.1-0.1,0-0.1l0.4-0.3c0.1,0,0.2-0.1,0.3,0L71,121c0.1,0,0.1,0.1,0,0.1
									l-0.4,0.3C70.6,121.6,70.4,121.6,70.4,121.5z"/>
								<path class="st26" d="M71.6,122l-0.6-0.2c-0.1,0-0.1-0.1,0-0.1l0.4-0.3c0.1,0,0.2-0.1,0.3,0l0.6,0.2c0.1,0,0.1,0.1,0,0.1
									l-0.4,0.3C71.8,122,71.7,122,71.6,122z"/>
								<path class="st26" d="M72.9,122.4l-0.6-0.2c-0.1,0-0.1-0.1,0-0.1l0.4-0.3c0.1,0,0.2-0.1,0.3,0l0.6,0.2c0.1,0,0.1,0.1,0,0.1
									l-0.4,0.3C73.1,122.5,73,122.5,72.9,122.4z"/>
								<path class="st26" d="M74.1,122.9l-0.6-0.2c-0.1,0-0.1-0.1,0-0.1l0.4-0.3c0.1,0,0.2-0.1,0.3,0l0.6,0.2c0.1,0,0.1,0.1,0,0.1
									l-0.4,0.3C74.3,122.9,74.2,122.9,74.1,122.9z"/>
								<path class="st26" d="M75.4,123.4l-0.6-0.2c-0.1,0-0.1-0.1,0-0.1l0.4-0.3c0.1,0,0.2-0.1,0.3,0l0.6,0.2c0.1,0,0.1,0.1,0,0.1
									l-0.4,0.3C75.6,123.4,75.5,123.4,75.4,123.4z"/>
								<path class="st26" d="M64,119.2l-2.1-0.7c-0.1,0-0.1-0.1-0.1-0.2l0.4-0.3c0.1-0.1,0.2-0.1,0.3,0l2.1,0.7
									c0.1,0,0.1,0.1,0.1,0.2l-0.4,0.3C64.3,119.3,64.1,119.3,64,119.2z"/>
								<path class="st26" d="M78.1,124.4l-2.1-0.7c-0.1,0-0.1-0.1-0.1-0.2l0.4-0.3c0.1-0.1,0.2-0.1,0.3,0l2.1,0.7
									c0.1,0,0.1,0.1,0.1,0.2l-0.4,0.3C78.4,124.4,78.2,124.4,78.1,124.4z"/>
							</g>
						</g>
					</g>
					<path class="st4" d="M80.9,119.3l-0.5,0.3c-0.2,0.1-0.5,0.2-0.8,0.1l-11.4-4.2c-0.3-0.1-0.3-0.3-0.1-0.4l0.5-0.4L80.9,119.3z"
						/>
				</g>
			</g>
			<g>
				<g>
					<path class="st5" d="M36.1,143.5l-3.6-12.4c-0.1-0.3-0.2-0.5-0.3-0.7l0.4-0.4l-1.6-0.6c0,0,0,0-0.1,0h-0.1
						c-0.7-0.3-1.5-0.2-2.2,0.2L12.3,139c-1.4,0.8-2.1,2.4-1.6,4l3.5,12.5c0.2,0.8,0.8,1.4,1.4,1.7h0.1h0.1l1.7,0.7l0.1-0.7
						c0.1-0.1,0.3-0.1,0.4-0.2l16.5-9.5C35.9,146.7,36.6,145,36.1,143.5z"/>
					<path class="st3" d="M28.8,159.1c0,0.2,0.2,0.2,0.3,0.3c0.3,0.1,0.7,0.1,1.1,0c0.3-0.1,0.5-0.2,0.7-0.4s0.3-0.4,0.3-0.6
						l-3.8-12.1l-2.4,0.8L28.8,159.1z"/>
					<path class="st4" d="M36.2,148.2l-16.5,9.5c-1.5,0.9-3.4,0.1-3.8-1.6l-3.5-12.5c-0.4-1.5,0.2-3.2,1.6-4l16.4-9.4
						c1.5-0.9,3.4-0.1,3.8,1.5l3.6,12.4C38.2,145.7,37.6,147.4,36.2,148.2z"/>
				</g>
				<g>
					<g>
						<g>
							<circle class="st3" cx="26.8" cy="192.3" r="1.2"/>
							<circle class="st3" cx="49.5" cy="192.3" r="1.2"/>
							<circle class="st3" cx="26.8" cy="179.4" r="1.2"/>
							<circle class="st3" cx="49.5" cy="179.4" r="1.2"/>
							<g>
								<path class="st3" d="M50.5,178l-7.2,4.1v1.5l7.2-4.1c1.1-0.6,1.5-1.9,1.2-3C51.4,177.2,51,177.7,50.5,178z"/>
								<path class="st3" d="M25.9,178c-0.6-0.3-1-0.9-1.2-1.5c-0.3,1.1,0.1,2.4,1.2,3l7.2,4.1v-1.5L25.9,178z"/>
								<path class="st3" d="M51.4,189.8c-0.5,0.8-1.3,1.3-2.2,1.3c-0.4,0-0.9-0.1-1.3-0.3l-9.7-5.6l-9.7,5.6
									c-0.4,0.2-0.8,0.3-1.3,0.3c-0.9,0-1.8-0.5-2.2-1.3c-0.1-0.2-0.2-0.3-0.2-0.5c-0.2,0.7-0.1,1.4,0.2,2
									c0.5,0.8,1.3,1.3,2.2,1.3c0.4,0,0.9-0.1,1.3-0.3l9.7-5.6l9.7,5.6c0.4,0.2,0.8,0.3,1.3,0.3c0.9,0,1.8-0.5,2.2-1.3
									c0.4-0.6,0.4-1.4,0.2-2C51.6,189.5,51.5,189.6,51.4,189.8z"/>
								<path class="st5" d="M27.1,191.1c0.4,0,0.9-0.1,1.3-0.3l9.7-5.6l9.7,5.6c0.4,0.2,0.8,0.3,1.3,0.3c0.9,0,1.8-0.5,2.2-1.3
									c0.1-0.2,0.2-0.4,0.2-0.5c-0.2-0.6-0.6-1.1-1.2-1.5l-7.2-4.1v-1.5l7.2-4.1c0.6-0.3,1-0.9,1.2-1.5c-0.1-0.2-0.1-0.4-0.2-0.5
									c-0.7-1.2-2.3-1.7-3.5-0.9l-9.7,5.6l-9.7-5.6c-1.2-0.7-2.8-0.3-3.5,0.9c-0.1,0.2-0.2,0.4-0.2,0.5c0.2,0.6,0.6,1.1,1.2,1.5
									l7.2,4.1v1.5l-7.2,4.1c-0.6,0.3-1,0.9-1.2,1.5c0.1,0.2,0.1,0.4,0.2,0.5C25.4,190.6,26.3,191.1,27.1,191.1z"/>
							</g>
						</g>
						<g>
							<path class="st3" d="M40.3,177.4c0,0.3-0.3,0.6-0.8,0.8c-0.4,0.2-0.8,0.2-1.3,0.2c-0.7,0-1.4-0.2-1.8-0.5
								c-0.2-0.1-0.3-0.4-0.3-0.5v5.2c0,0.3,0.2,0.5,0.3,0.6c0.4,0.3,1.1,0.5,1.8,0.5c0.5,0,0.9-0.1,1.3-0.2
								c0.4-0.2,0.7-0.5,0.8-0.7c0-0.1,0-0.1,0-0.2C40.3,182.5,40.3,177.3,40.3,177.4z"/>
							<path class="st4" d="M39.5,178.2c-0.4,0.2-0.8,0.2-1.3,0.2c-0.7,0-1.4-0.2-1.8-0.5c-0.2-0.1-0.4-0.4-0.3-0.6
								c0-0.3,0.3-0.5,0.8-0.7c0.4-0.2,0.8-0.2,1.3-0.2c0.7,0,1.4,0.2,1.8,0.5c0.2,0.1,0.4,0.4,0.3,0.6
								C40.2,177.7,39.9,178,39.5,178.2z"/>
						</g>
						<path class="st3" d="M36.9,177.1c0,0.2,0.1,0.3,0.2,0.4c0.2,0.2,0.6,0.3,1.1,0.3c0.3,0,0.5,0,0.8-0.1s0.4-0.3,0.5-0.4v-12.7
							H37L36.9,177.1L36.9,177.1z"/>
					</g>
					<g>
						<path class="st3" d="M57.8,162v-1.8H57c-0.2-0.2-0.4-0.4-0.7-0.6l-12.6-7.3c-1.9-1.1-4.2-1.1-6.1,0L20,162.4
							c-0.4,0.2-0.8,0.6-1,0.9l-0.5-0.1v1.8c0,1,0.5,2.1,1.5,2.7l12.6,7.3c1.9,1.1,4.2,1.1,6.1,0l17.5-10.1
							C57.4,164.3,57.9,163.1,57.8,162z"/>
						<path class="st5" d="M56.3,157.7l-12.6-7.3c-1.9-1.1-4.2-1.1-6.1,0l-17.6,10c-2,1.2-2.1,4.1,0,5.3l12.6,7.3
							c1.9,1.1,4.2,1.1,6.1,0l17.6-10C58.3,161.8,58.3,158.8,56.3,157.7z"/>
					</g>
				</g>
			</g>
			<g>
				<path class="st2" d="M72.7,207c4.3-3.3,11.4-5.3,18.9-5.3c0.5,0,1,0,1.6,0c0.1,0,0.1-0.1,0.2-0.1c2.9-2.2,7.6-3.5,12.6-3.5
					c3.3,0,6.4,0.6,9,1.6c3.1,1.3,5.2,3.2,5.4,5.1c0.3,1.9-1.2,3.4-2.4,4.4c-1.2,1-2.8,1.8-4.6,2.3c0,0.1,0,0.2,0.1,0.3
					c0.4,2.8-1.8,5.1-3.6,6.6c-4.3,3.3-11.4,5.3-18.9,5.3c-4.9,0-9.6-0.8-13.5-2.5c-4.7-1.9-7.8-4.8-8.2-7.7
					C68.6,210.7,70.8,208.4,72.7,207z"/>
				<g>
					<g>
						<path class="st6" d="M107.1,199.7c0.1,3.3,0.1,5.8,0.1,6.4c-0.1,0.9,0.2,2,0.6,2.5c0.9,1.1,2.7,0.5,4,0.1l4-1.2
							c1.5-0.4,2.4-1.6,2.6-2.5c0-0.6-0.5-1.2-1.1-1.2h-3.2c-0.9,0.1-1.7-0.2-2.3-0.8c-0.3-0.3-0.4-0.7-0.4-1
							c0.1-0.9,0.3-2.4,0.5-4.2l-4.9,0.9C107,199.1,107,199.4,107.1,199.7z"/>
						<g>
							<path class="st6" d="M97.4,204.1c-0.1,1,0.8,1.8,1.7,1.8c0.7,0,1.2-0.3,1.6-0.7c0.8-0.8,1.6-1.4,2.6-2
								c0.3-0.2,0.6-0.4,0.9-0.6c0.4-0.3,0.6-0.5,0.9-0.8c0.8-0.9,0.8-1.7,0.8-1.7c0-0.1,0-0.1-0.1-0.2c-0.1-0.3-0.3-0.5-0.5-0.7
								c-0.2-0.1-0.4-0.2-0.7-0.2h-0.3c-0.2,0-0.4,0-0.6,0c-0.6,0-1.4,0.4-1.9,0.7l0.9-3.4L98,198c0,0.3,0,0.7-0.1,0.9
								c0,1-0.1,2-0.3,2.9c-0.1,0.4-0.1,0.9-0.2,1.3c0,0.1,0,0.1,0,0.2c0,0.1,0,0.2,0,0.3C97.4,203.8,97.4,204,97.4,204.1z"/>
							<g>
								<path class="st3" d="M98,199.1c0,0.6,3.2,0.6,4.2-1l4.3-16.4c0.2-0.7,0.3-1.3,0.4-2c0-0.2,0.1-0.4,0.1-0.6h-0.1l-6.1-1.4
									v0.4C98.9,184,98,199,98,199.1z"/>
								<path class="st28" d="M105.8,200c0,0,0,1.3-1.6,2.5c-0.2,0.2-0.5,0.4-0.9,0.6c-0.9,0.6-1.8,1.2-2.6,2
									c-0.4,0.4-0.9,0.7-1.6,0.7c-1,0.1-1.9-0.3-1.7-1.8c0-0.1,0-0.3,0-0.5c0-0.1,0-0.2,0-0.2c0-0.1,0-0.2,0-0.2
									c0.1,0.5,0.7,0.6,1.1,0.6c0.7,0,1.2-0.2,1.7-0.6c0.8-0.8,6.5-4,3-4.2l0.4-0.1c1.7-0.2,1.9,0.4,2.1,0.9
									C105.7,199.9,105.8,199.9,105.8,200z"/>
							</g>
						</g>
						<path class="st29" d="M107.1,201.7c0.4,1.1,3.8,0.9,4.4-0.5c0,0,1.7-11.9,2.4-21.8l-7.1-2.3h-0.1l0.1,0.6l0.1,0.5
							C106.6,181.9,106.9,201.1,107.1,201.7z"/>
						<path class="st28" d="M117.3,203.8h-2c0.8,0.2,1.2,0.9,0.4,1.5c-0.9,0.7-8.3,2.5-8.5,0.8c0,0.3,0,0.6,0,0.8
							c0,0.6,0.2,1.3,0.6,1.8c0.9,1.2,2.7,0.5,4,0.1l4-1.2c1.5-0.4,2.4-1.6,2.6-2.5C118.4,204.4,117.9,203.9,117.3,203.8z"/>
					</g>
					<g>
						<g>
							<g>
								<circle class="st3" cx="102.4" cy="218.3" r="1.2"/>
								<circle class="st3" cx="79.7" cy="218.3" r="1.2"/>
								<circle class="st3" cx="102.4" cy="205.3" r="1.2"/>
								<circle class="st3" cx="79.7" cy="205.3" r="1.2"/>
								<g>
									<path class="st3" d="M78.7,204l7.2,4.1v1.5l-7.2-4.1c-1.1-0.6-1.5-1.9-1.2-3C77.8,203.1,78.2,203.6,78.7,204z"/>
									<path class="st3" d="M103.3,204c0.6-0.3,1-0.9,1.2-1.5c0.3,1.1-0.1,2.4-1.2,3l-7.2,4.1v-1.5L103.3,204z"/>
									<path class="st3" d="M77.8,215.7c0.5,0.8,1.3,1.3,2.2,1.3c0.4,0,0.9-0.1,1.3-0.3l9.7-5.6l9.7,5.6c0.4,0.2,0.8,0.3,1.3,0.3
										c0.9,0,1.8-0.5,2.2-1.3c0.1-0.2,0.2-0.3,0.2-0.5c0.2,0.7,0.1,1.4-0.2,2c-0.5,0.8-1.3,1.3-2.2,1.3c-0.4,0-0.9-0.1-1.3-0.3
										l-9.7-5.6l-9.7,5.6c-0.4,0.2-0.8,0.3-1.3,0.3c-0.9,0-1.8-0.5-2.2-1.3c-0.4-0.6-0.4-1.4-0.2-2
										C77.6,215.4,77.7,215.6,77.8,215.7z"/>
									<path class="st5" d="M102.1,217c-0.4,0-0.9-0.1-1.3-0.3l-9.7-5.6l-9.7,5.6c-0.4,0.2-0.8,0.3-1.3,0.3
										c-0.9,0-1.8-0.5-2.2-1.3c-0.1-0.2-0.2-0.4-0.2-0.5c0.2-0.6,0.6-1.1,1.2-1.5l7.2-4.1v-1.5l-7.2-4.1c-0.6-0.3-1-0.9-1.2-1.5
										c0.1-0.2,0.1-0.4,0.2-0.5c0.7-1.2,2.3-1.7,3.5-0.9l9.7,5.6l9.7-5.6c1.2-0.7,2.8-0.3,3.5,0.9c0.1,0.2,0.2,0.4,0.2,0.5
										c-0.2,0.6-0.6,1.1-1.2,1.5l-7.2,4.1v1.5l7.2,4.1c0.6,0.3,1,0.9,1.2,1.5c-0.1,0.2-0.1,0.4-0.2,0.5
										C103.8,216.6,102.9,217,102.1,217z"/>
								</g>
							</g>
							<g>
								<path class="st3" d="M88.9,203.3c0,0.3,0.3,0.6,0.8,0.8c0.4,0.2,0.8,0.2,1.3,0.2c0.7,0,1.4-0.2,1.8-0.5
									c0.2-0.1,0.3-0.4,0.3-0.5v5.2c0,0.3-0.2,0.5-0.3,0.6c-0.4,0.3-1.1,0.5-1.8,0.5c-0.5,0-0.9-0.1-1.3-0.2
									c-0.4-0.2-0.7-0.5-0.8-0.7c0-0.1,0-0.1,0-0.2C88.9,208.5,88.9,203.2,88.9,203.3z"/>
								<path class="st4" d="M89.7,204.1c0.4,0.2,0.8,0.2,1.3,0.2c0.7,0,1.4-0.2,1.8-0.5c0.2-0.1,0.4-0.4,0.3-0.6
									c0-0.3-0.3-0.5-0.8-0.7c-0.4-0.2-0.8-0.2-1.3-0.2c-0.7,0-1.4,0.2-1.8,0.5c-0.2,0.1-0.4,0.4-0.3,0.6
									C89,203.6,89.3,203.9,89.7,204.1z"/>
							</g>
							<path class="st3" d="M92.3,203c0,0.2-0.1,0.3-0.2,0.4c-0.2,0.2-0.6,0.3-1.1,0.3c-0.3,0-0.5,0-0.8-0.1s-0.4-0.3-0.5-0.4v-12.7
								h2.5L92.3,203L92.3,203z"/>
						</g>
						<g>
							<path class="st4" d="M71.4,187.9v-1.8h0.8c0.2-0.2,0.4-0.4,0.7-0.6l12.6-7.3c1.9-1.1,4.2-1.1,6.1,0l17.5,10.1
								c0.4,0.2,0.8,0.6,1,0.9l0.5-0.1v1.8c0,1-0.5,2.1-1.5,2.7l-12.6,7.3c-1.9,1.1-4.2,1.1-6.1,0l-17.5-10.1
								C71.8,190.2,71.3,189.1,71.4,187.9z"/>
							<path class="st5" d="M72.9,183.6l12.6-7.3c1.9-1.1,4.2-1.1,6.1,0l17.5,10.1c2,1.2,2.1,4.1,0,5.3L96.5,199
								c-1.9,1.1-4.2,1.1-6.1,0l-17.5-10.1C70.9,187.7,70.9,184.8,72.9,183.6z"/>
						</g>
					</g>
					<g>
						<g>
							<g>
								<g>
									<path class="st30" d="M90.6,176.5l3,11.8c1.4-0.7,2.7-1.6,3.8-2.6c3.1-2.6,6.8-5.8,9.1-7.7c1.2-1,1.7-2.7,1.2-4.2
										c-0.8-2.3-3.4-3.4-5.5-2.3l-8.9,4.5C92.5,176.6,91.6,176.7,90.6,176.5z"/>
									<path class="st29" d="M113.7,177.8c0.5,1.5,0,3.2-1.2,4.2c-2.3,1.9-6,5.1-9.1,7.7c-4.4,3.7-10.2,5.5-15.9,4.7
										c-2.2-0.3-8.7-2.7-10.1-6.6c-0.6-1.7-0.4-4.4,0-6.4c0.3-1.5,0.4-2.9,0.4-4.1c0-1.4,0.8-2.7,2-3.3c3.2-1.7,9.5-3.8,13.3,3.4
										c0.1,0.2,0.3,0.6,0.5,0.9c1.1,2.1,3.7,2.8,5.7,1.7l8.9-4.5C110.4,174.5,113,175.5,113.7,177.8z"/>
								</g>
								<path class="st31" d="M76.4,167c0.8,8.8,1.1,12.5,1.4,12.9c4.4,4.6,11,4.7,15.3,2.3c0.9-0.5,1.4-1.6,1.1-2.6
									c-0.3-1.2-0.7-2.9-1-4.4c0-0.1,0-0.2,0-0.3c-0.3-1.6-0.2-3.2,0.2-4.7c0-0.1,0-0.2,0.1-0.3c1.2-0.7,2.1-2,2.1-3.6
									c0-0.5-0.1-1-0.3-1.5l2-6.2v-0.1c-0.2-1.5-0.7-2.6-1.6-3.5s-2-1.7-3.4-2.6c-0.1,0-0.1-0.1-0.2-0.1c-0.3-0.2-0.6-0.3-0.8-0.5
									l-0.3-0.2l-0.7-0.4l-0.8-0.4l-2.3-1.3l-0.6-0.3l-0.3-0.2c0,0,0,0-0.1,0s-0.4,0.1-0.7,0.2c-0.6,0.3-1.4,0.7-1.6,0.6
									c-0.6-0.3-1.2-0.4-1.8-0.5c-1.5-0.2-3.1,0.2-4.2,1.1c-1.5,1.2-1.8,3.2-1.9,4.8C75.6,160.5,76.2,164.4,76.4,167z"/>
								<path class="st32" d="M90.9,167c0.3,3.2,1.8,7.2,2.3,7.9c-0.3-1.6-0.2-3.2,0.2-4.7c0-0.1,0-0.2,0.1-0.3
									c1.2-0.7,2.1-2,2.1-3.6c0-0.5-0.1-1-0.3-1.5l0.5-1.6l-4.3-2.9C90.6,162.2,90.7,164.9,90.9,167z"/>
								<g>
									<path class="st6" d="M93.8,145.2c-1.1,4.4-4,4.7-6.7,3.3c-3-1.6-4.8-5.3-4.9-8c-0.1-4.1,2.5-6.6,5.9-6.7
										C95.7,133.6,94.1,143.7,93.8,145.2z"/>
									<path class="st6" d="M83.9,142.8v8.8c0,0.4,0.4,0.8,1.1,1.1c1.2,0.4,2.9,0.3,3.8-0.3c0.4-0.2,0.5-0.5,0.5-0.8v-8.8H83.9z"
										/>
									<path class="st32" d="M92.1,152.4c0,0-0.6-1.2-1.4-1.6c-0.8-0.4-6.9,0.3-6.9-0.6c0-0.1,0.6-0.4,0.6-0.4V149
										c0,0-0.9,0.4-1.2,0.6c-0.6,0.5-1,1.7-0.2,2.5C85.4,154.6,92.1,152.4,92.1,152.4z"/>
								</g>
							</g>
							<g>
								<path class="st20" d="M81.8,143.8c1,4.1,3.5,3.8,6.3,3.1c3.1-0.8,4.5-5,4.6-7.4c0.1-3.8-2.3-6.2-5.5-6.3
									C80,132.9,81.4,142.4,81.8,143.8z"/>
								<path class="st31" d="M80.4,142c0.9,1.2,2.2,1.8,3.4,1.8c0.7,0,1.3-0.2,1.9-0.6c1.6-1.1,1.9-3.6,0.6-5.4
									c-1.2-1.6-3.2-2.3-4.8-1.6c-0.2,0.1-0.4,0.2-0.5,0.3C79.3,137.8,79.1,140.2,80.4,142z"/>
								<path class="st20" d="M76.8,146.2c-0.9-1.4-1-3.1-0.2-4.3c-0.5-1.6-0.2-3.3,1-4.5c0.2-0.2,0.4-0.3,0.6-0.5
									c1.8-1.2,4.4-0.8,6.1,1c1.9,2,2.1,5,0.3,6.7c-0.1,0.1-0.1,0.1-0.2,0.2c0,0.6-0.1,1.2-0.4,1.7c1.1,1.7,1,3.8-0.3,5
									c1.3,5-4,7.6-4,7.6s0.7-2.9-0.5-4.1c-1.7-1.7-2.4-2.9-1.7-4.2C76.4,149.4,76.2,147.6,76.8,146.2z"/>
								<path class="st20" d="M87.9,139.8c0.9,1.3,2.3,2,3.6,2c0.7,0,1.4-0.2,2-0.6c1.7-1.2,2-3.8,0.6-5.8c-1.2-1.8-6.1-2.4-7.5-2.2
									c-0.2,0,2,0.7,1.9,0.9C86.8,135.2,86.5,137.8,87.9,139.8z"/>
							</g>
							<g>
								<path class="st6" d="M105.8,165.7c2-0.6,4.3-1.4,5.6-1.8l0.9-0.3c1.6-0.2,3.9-4.7,4.6-3.3c0,0,2.4,0.2,1.4,2.5
									c-0.3,0.6-1.6,1.6-2.6,2.1c-0.8,0.5-1.4,0.6-2,0.7c-0.1,0-0.2,0.1-0.3,0.1c-0.1,0.1-3,2.4-6.3,4.2L105.8,165.7z"/>
								<path class="st31" d="M96.3,156c0,0,7.1,8.2,7.7,9.4c0.1,0.2,5-0.9,5-0.9c1.3,0.3,2.4,2.3,2.1,3.6c0,0-5.7,4.2-8.1,3.6
									c-1.2-0.3-11.6-8.9-12.1-10.9l0.7-6.3C92.8,154.9,96.3,156,96.3,156z"/>
							</g>
						</g>
						
							<ellipse transform="matrix(0.7996 -0.6005 0.6005 0.7996 -68.1927 83.4353)" class="st6" cx="90.9" cy="143.9" rx="1.2" ry="1.9"/>
					</g>
					<g>
						<path class="st3" d="M83,197.6c0,0.2-0.1,0.3-0.2,0.4c-0.2,0.2-0.6,0.3-1.1,0.3c-0.3,0-0.5,0-0.8-0.1s-0.4-0.3-0.5-0.4v-12.7
							H83V197.6z"/>
						<g>
							<path class="st4" d="M68.5,169.2l1.5-0.8c0.6-0.3,1.2-0.3,1.8,0l17.3,9.2c1.4,0.8,2.5,2.6,3,4.7l2.7,12
								c0.2,1-0.2,2.1-1.1,2.6l-1.5,0.8l0.1-1.6c-0.1,0-0.1,0-0.2-0.1l-17.9-9.8c-1.4-0.8-2.5-2.6-3-4.7L68.7,171
								c-0.1-0.4-0.1-0.7-0.1-1L68.5,169.2z"/>
							<path class="st3" d="M67.8,172.5l2.4,10.5c0.5,2.1,1.6,3.9,3,4.7l17.9,9.8c1.5,0.8,2.7-1,2.2-3.3l-2.4-10.5
								c-0.5-2.1-1.6-3.9-3-4.7L70,169.2C68.5,168.3,67.3,170.2,67.8,172.5z"/>
						</g>
					</g>
				</g>
			</g>
			<g>
				<path class="st18" d="M186.7,129.8c3.3-1.3,12.4-4.3,15.1-6.6c1.2-1,1.2-16.8,1.2-16.8c0-0.5-0.3-0.9-0.8-0.9l-3.6-0.2
					c-0.5,0-0.9,0.3-0.9,0.8c-0.1,1.9-0.2,10.9-0.3,13.1c0,0.5-0.4,1-0.9,1.1c-2.3,0.7-7.1,4.6-10.9,5.8c-0.3,0.1-0.6,0.1-0.8,0.2
					c-1.9,0.3-6.1-3.4-6.5-1.5c0,0-3.7,2-1.5,4c0.4,0.4,3.3,1.4,4.2,1.4C182.9,130.1,186.3,130,186.7,129.8z"/>
				<path class="st15" d="M185.6,126.1c1,0.3,1.7,2.9,1.1,3.7c0,0,12.6-2.3,15.6-6.1c1.5-1.8,1.3-11.4,1.4-17.2
					c0.1-1.9-1.5-3.5-3.4-3.4c-1.7,0.1-3.1,1.4-3.2,3.1c-0.2,3.8-0.5,11.4-0.6,12.9c0,0.2-0.1,0.3-0.3,0.4
					C195.5,120,185.6,126.1,185.6,126.1z"/>
			</g>
			<path class="st18" d="M177.1,120c-2.4,1.8-4.8,3.5-6.1,4.5c-0.2,0.2-1.5,0.8-2.9,1.4c-0.3-0.3-0.6-0.6-1-0.8l-5.1-2.9
				c0.4-0.2,0.8-0.2,1.3-0.2c1.6,0.1,3.9,0.1,5-0.4c0.2-0.1,0.4-0.2,0.7-0.4c1.3-0.8,2.6-2.2,3.8-3.6L177.1,120z"/>
			<path class="st15" d="M177.6,120.3c-1.6,1.2-5.5,3.4-5.5,3.4c0.2-1-2-3.1-2.8-2.7c0,0,2.1-2.4,3.2-3.6l4.4-0.7L177.6,120.3z"/>
		</g>
		<g>
			<g>
				<path class="st8" d="M147.2,139.5h-6.5v6.8c-0.1,0.4,0.3,0.7,0.5,1c0.6,0.5,1.7,0.8,2.8,0.8c0.7,0,1.4-0.1,2-0.4
					c0.7-0.3,1.1-0.7,1.2-1.1C147.2,146.4,147.2,139.5,147.2,139.5z"/>
				<path class="st25" d="M146,140.7c-0.6,0.2-1.3,0.4-2,0.4c-1.1,0-2.1-0.3-2.8-0.8c-0.3-0.2-0.6-0.6-0.5-1s0.5-0.8,1.2-1.1
					c0.6-0.2,1.3-0.4,2-0.4c1.1,0,2.1,0.3,2.8,0.8c0.3,0.2,0.6,0.6,0.5,1C147.2,140,146.7,140.4,146,140.7z"/>
				<g>
					<path class="st33" d="M143.9,139.7c0.9,0,1.7,0.2,2.3,0.5c0.4-0.2,0.6-0.5,0.7-0.7c0-0.2-0.2-0.5-0.4-0.6
						c-0.6-0.4-1.5-0.7-2.5-0.7c-0.7,0-1.3,0.1-1.8,0.3c-0.7,0.3-0.9,0.6-1,0.8c0,0.2,0.2,0.5,0.4,0.6c0.1,0.1,0.2,0.1,0.3,0.2
						c0.1-0.1,0.2-0.1,0.3-0.1C142.6,139.8,143.2,139.7,143.9,139.7z"/>
					<path class="st4" d="M146.2,140.2c-0.1,0.1-0.2,0.1-0.3,0.1c-0.2,0.1-0.5,0.2-0.8,0.2c-0.3,0.1-0.5,0.1-0.8,0.1
						c-0.1,0-0.2,0-0.2,0H144c-0.3,0-0.5,0-0.8-0.1c-0.5-0.1-1-0.2-1.4-0.5c0.1-0.1,0.2-0.1,0.3-0.1c0.3-0.1,0.6-0.2,0.9-0.2
						c0.2,0,0.5-0.1,0.8-0.1c0.1,0,0.1,0,0.2,0c0.2,0,0.4,0,0.6,0c0.3,0,0.5,0.1,0.7,0.1C145.6,139.9,145.9,140.1,146.2,140.2z"/>
				</g>
			</g>
			<path class="st25" d="M147.6,146.4c-0.1,0-0.3,0-0.4-0.1l-0.8-0.4c-0.2-0.1-0.3-0.3-0.2-0.5s0.3-0.3,0.5-0.2l0.8,0.4
				c0.1,0,0.1,0,0.1,0s0.1,0,0.1-0.1v-2.4c0-0.2-0.1-0.4-0.3-0.5l-1.1-0.5c-0.2-0.1-0.3-0.3-0.2-0.5s0.3-0.3,0.5-0.2l1.1,0.6
				c0.4,0.2,0.7,0.7,0.7,1.1v2.4c0,0.3-0.2,0.6-0.4,0.8C148,146.4,147.8,146.4,147.6,146.4z"/>
		</g>
		<g>
			<g>
				<path class="st8" d="M99.2,126h6.5v6.8c0.1,0.4-0.3,0.7-0.5,1c-0.6,0.5-1.7,0.8-2.8,0.8c-0.7,0-1.4-0.1-2-0.4
					c-0.7-0.3-1.1-0.7-1.2-1.1C99.1,133,99.2,126,99.2,126z"/>
				<path class="st25" d="M100.4,127.3c0.6,0.2,1.3,0.4,2,0.4c1.1,0,2.1-0.3,2.8-0.8c0.3-0.2,0.6-0.6,0.5-1s-0.5-0.8-1.2-1.1
					c-0.6-0.2-1.3-0.4-2-0.4c-1.1,0-2.1,0.3-2.8,0.8c-0.3,0.2-0.6,0.6-0.5,1C99.2,126.6,99.7,127,100.4,127.3z"/>
				<g>
					<path class="st33" d="M102.5,126.3c-0.9,0-1.7,0.2-2.3,0.5c-0.4-0.2-0.6-0.5-0.7-0.7c0-0.2,0.2-0.5,0.4-0.6
						c0.6-0.4,1.5-0.7,2.5-0.7c0.7,0,1.3,0.1,1.8,0.3c0.7,0.3,0.9,0.6,1,0.8c0,0.2-0.2,0.5-0.4,0.6c-0.1,0.1-0.2,0.1-0.3,0.2
						c-0.1-0.1-0.2-0.1-0.3-0.1C103.8,126.4,103.1,126.3,102.5,126.3z"/>
					<path class="st4" d="M100.2,126.8c0.1,0.1,0.2,0.1,0.3,0.1c0.2,0.1,0.5,0.2,0.8,0.2c0.3,0.1,0.5,0.1,0.8,0.1c0.1,0,0.2,0,0.2,0
						h0.1c0.3,0,0.5,0,0.8-0.1c0.5-0.1,1-0.2,1.4-0.5c-0.1-0.1-0.2-0.1-0.3-0.1c-0.3-0.1-0.6-0.2-0.9-0.2c-0.2,0-0.5-0.1-0.8-0.1
						c-0.1,0-0.1,0-0.2,0c-0.2,0-0.4,0-0.6,0c-0.3,0-0.5,0.1-0.7,0.1C100.8,126.5,100.5,126.6,100.2,126.8z"/>
				</g>
			</g>
			<path class="st25" d="M98.7,133c0.1,0,0.3,0,0.4-0.1l0.8-0.4c0.2-0.1,0.3-0.3,0.2-0.5c-0.1-0.2-0.3-0.3-0.5-0.2l-0.8,0.4
				c-0.1,0-0.1,0-0.1,0s-0.1,0-0.1-0.1v-2.4c0-0.2,0.1-0.4,0.3-0.5l1.1-0.5c0.2-0.1,0.3-0.3,0.2-0.5c-0.1-0.2-0.3-0.3-0.5-0.2
				l-1.1,0.6c-0.4,0.2-0.7,0.7-0.7,1.1v2.4c0,0.3,0.2,0.6,0.4,0.8C98.4,132.9,98.6,133,98.7,133z"/>
		</g>
		<g>
			<g>
				<path class="st33" d="M128.3,119.4l-4.1,0.2l1.8,6.1c0,0.3,0.4,0.6,0.8,0.8c0.4,0.2,0.9,0.2,1.4,0.2c0.6,0,1-0.1,1.4-0.2
					c0.5-0.2,0.8-0.5,0.8-0.8c0-0.1,1.9-6.2,1.9-6.2L128.3,119.4z"/>
				<g>
					<path class="st2" d="M130.9,121c-0.7,0.3-1.6,0.5-2.5,0.5c-1.4,0-2.7-0.4-3.5-1c-0.3-0.3-0.7-0.7-0.7-1.2
						c0.1-0.5,0.6-1.1,1.5-1.4c0.7-0.3,1.6-0.5,2.5-0.5c1.4,0,2.7,0.4,3.5,1c0.3,0.3,0.7,0.7,0.7,1.2
						C132.3,120.1,131.7,120.6,130.9,121z"/>
					<g>
						<path class="st33" d="M128.2,119.7c1.1,0,2.2,0.2,2.9,0.7c0.6-0.3,0.8-0.6,0.8-0.9s-0.3-0.6-0.5-0.8c-0.7-0.6-1.9-0.9-3.2-0.9
							c-0.9,0-1.7,0.1-2.3,0.4c-0.9,0.3-1.2,0.8-1.2,1.1c0,0.3,0.3,0.6,0.5,0.8c0.1,0.1,0.2,0.2,0.3,0.2c0.1-0.1,0.2-0.1,0.4-0.2
							C126.5,119.8,127.3,119.7,128.2,119.7z"/>
						<path class="st34" d="M131.1,120.3c-0.1,0.1-0.2,0.1-0.4,0.2c-0.3,0.1-0.7,0.2-1,0.3c-0.3,0.1-0.7,0.1-1,0.1
							c-0.1,0-0.2,0-0.3,0h-0.1c-0.3,0-0.7,0-1-0.1c-0.7-0.1-1.3-0.3-1.8-0.6c0.1-0.1,0.2-0.1,0.4-0.2c0.3-0.1,0.7-0.2,1.1-0.3
							c0.3-0.1,0.6-0.1,1-0.1c0.1,0,0.2,0,0.3,0c0.3,0,0.5,0,0.8,0s0.6,0.1,0.9,0.2C130.4,120,130.7,120.1,131.1,120.3z"/>
					</g>
				</g>
			</g>
			<path class="st35" d="M133.5,115.9c0,2.9-1.6,5-5.3,5c-3.1,0-5.1-2-5.2-4.8c0-0.1,0-0.1,0-0.2c0-1.3,0.4-2.4,1.2-3.3
				c1-1.2,2.4-1.9,4-1.9c1,0,1.9,0.3,2.7,0.8c1.3,0.8,2.2,2,2.5,3.6C133.5,115.3,133.5,115.6,133.5,115.9z"/>
			<path class="st36" d="M133.4,115c-0.1,0-0.2,0-0.4,0c-1.3,0-2.4-1.1-2.4-2.4c0-0.4,0.1-0.8,0.3-1.2
				C132.2,112.2,133.1,113.5,133.4,115z"/>
			<path class="st36" d="M125.5,114.4c0,1-0.8,1.9-1.9,1.9c-0.2,0-0.4,0-0.6-0.1c0-0.1,0-0.1,0-0.2c0-1.3,0.4-2.4,1.2-3.3
				C124.9,112.9,125.5,113.5,125.5,114.4z"/>
			<circle class="st35" cx="132.2" cy="111.6" r="2.4"/>
			<circle class="st35" cx="123.6" cy="113.4" r="1.9"/>
			<circle class="st36" cx="126.8" cy="118" r="1.3"/>
			<circle class="st36" cx="129.6" cy="115" r="1"/>
			<circle class="st36" cx="126.6" cy="111.2" r="0.9"/>
		</g>
		<g>
			<path class="st37" d="M184,139.7l0.1,0.1c0.1-0.1,0.2-0.2,0.4-0.3l7-2.2c0.5-0.1,1,0,1.4,0.3l1.9,1.8l0.1,0.1h0.1v0.5
				c0,0.3-0.2,0.5-0.5,0.6l-7,2.2c-0.5,0.2-1,0-1.4-0.4l-1.9-1.9c-0.1-0.1-0.2-0.3-0.2-0.5L184,139.7L184,139.7z"/>
			<path class="st4" d="M194.8,139.1l-1.9-1.8c-0.4-0.4-0.9-0.5-1.4-0.3l-7,2.2c-0.5,0.2-0.7,0.8-0.3,1.2l1.9,1.9
				c0.4,0.4,0.9,0.5,1.4,0.4l7-2.2C195.1,140.1,195.2,139.5,194.8,139.1z"/>
			<path class="st37" d="M187.1,142.3c0.1,0,0.2,0,0.3,0l6.9-2.2c0.3-0.1,0.4-0.5,0.2-0.7l-1.9-1.8c-0.2-0.2-0.4-0.3-0.6-0.3
				c-0.1,0-0.2,0-0.3,0l-7,2.2c-0.3,0.1-0.4,0.4-0.2,0.7l1.9,1.9C186.7,142.2,186.9,142.3,187.1,142.3z"/>
		</g>
		<g>
			<path class="st37" d="M40.9,116.2L40.9,116.2c0.2,0,0.3-0.1,0.5-0.2l7-2.2c0.5-0.1,1,0,1.4,0.3l1.9,1.8l0.1,0.1H52v0.5
				c0,0.3-0.2,0.5-0.5,0.6l-7,2.2c-0.5,0.2-1,0-1.4-0.4l-1.9-1.9c-0.1-0.1-0.2-0.3-0.2-0.5L40.9,116.2L40.9,116.2z"/>
			<path class="st4" d="M51.7,115.6l-1.9-1.8c-0.4-0.4-0.9-0.5-1.4-0.3l-7,2.2c-0.5,0.2-0.7,0.8-0.3,1.2l1.9,1.9
				c0.4,0.4,0.9,0.5,1.4,0.4l7-2.2C52,116.6,52.1,116,51.7,115.6z"/>
			<path class="st37" d="M44,118.7c0.1,0,0.2,0,0.3,0l6.9-2.2c0.3-0.1,0.4-0.5,0.2-0.7l-1.9-1.8c-0.2-0.2-0.4-0.3-0.6-0.3
				c-0.1,0-0.2,0-0.3,0l-7,2.2c-0.3,0.1-0.4,0.4-0.2,0.7l1.9,1.9C43.5,118.6,43.8,118.7,44,118.7z"/>
		</g>
		<g>
			<g>
				<g>
					<polygon class="st36" points="163.3,162.6 163.3,166.8 150.1,174.5 150.1,170.2 					"/>
					<polygon class="st2" points="158.5,166.2 158.5,168.7 152.1,172.5 152.1,169.9 					"/>
					<g>
						<polygon class="st8" points="139.8,164.2 139.8,164.9 149.5,170.5 149.5,173.4 139.8,167.8 139.8,168.6 150.1,174.5 
							150.1,170.2 						"/>
						<polygon class="st35" points="139.8,167.8 140.3,167.6 140.3,168.2 						"/>
						<polygon class="st38" points="149.5,170.5 149.5,173.4 140.3,168.1 140.3,165.2 						"/>
					</g>
					<polygon class="st35" points="139.8,164.2 153,156.5 163.3,162.6 150.1,170.2 					"/>
				</g>
				<g>
					<path class="st5" d="M162.1,164.8c-0.3-0.4-0.9-0.2-1.2,0.1c-0.4,0.3-0.7,0.9-0.8,1.4c0,0.4,0.1,1,0.6,1c0.5,0.1,1-0.4,1.3-0.8
						C162.3,166.1,162.6,165.3,162.1,164.8z"/>
					<path class="st3" d="M162.1,164.8c-0.1-0.2-0.3-0.2-0.5-0.2c-0.3,0-0.5,0.1-0.7,0.3c-0.4,0.3-0.7,0.9-0.8,1.4
						c0,0.4,0.1,1,0.6,1h0.1c0.5,0,0.9-0.4,1.2-0.8C162.3,166.1,162.6,165.3,162.1,164.8z M161.7,166.4c-0.1,0.2-0.5,0.7-0.9,0.7
						c0,0,0,0-0.1,0c-0.3,0-0.4-0.5-0.3-0.7c0.1-0.5,0.3-0.9,0.7-1.2c0.2-0.1,0.4-0.2,0.6-0.2c0.1,0,0.2,0,0.3,0.1
						C162.2,165.3,162,166,161.7,166.4z"/>
				</g>
			</g>
			<g>
				<g>
					<polygon class="st39" points="162.5,156.5 162.5,160.8 149.3,168.4 149.3,164.1 					"/>
					<polygon class="st2" points="157.7,160.2 157.7,162.7 151.3,166.5 151.3,163.9 					"/>
					<g>
						<polygon class="st8" points="138.9,158.2 138.9,158.9 148.7,164.5 148.7,167.4 138.9,161.8 138.9,162.5 149.3,168.4 
							149.3,164.1 						"/>
						<polygon class="st40" points="138.9,161.8 139.4,161.5 139.5,162.2 						"/>
						<polygon class="st38" points="148.7,164.5 148.7,167.4 139.4,162.1 139.4,159.2 						"/>
					</g>
					<polygon class="st40" points="138.9,158.2 152.1,150.5 162.5,156.5 149.3,164.1 					"/>
				</g>
				<g>
					<path class="st5" d="M161.3,158.8c-0.3-0.4-0.9-0.2-1.2,0.1c-0.4,0.3-0.7,0.9-0.8,1.4c0,0.4,0.1,1,0.6,1c0.5,0.1,1-0.4,1.3-0.8
						C161.5,160,161.7,159.3,161.3,158.8z"/>
					<path class="st3" d="M161.3,158.8c-0.1-0.2-0.3-0.2-0.5-0.2c-0.3,0-0.5,0.1-0.7,0.3c-0.4,0.3-0.7,0.9-0.8,1.4
						c0,0.4,0.1,1,0.6,1h0.1c0.5,0,0.9-0.4,1.2-0.8C161.5,160,161.7,159.3,161.3,158.8z M160.9,160.3c-0.1,0.2-0.5,0.7-0.9,0.7
						c0,0,0,0-0.1,0c-0.3,0-0.4-0.5-0.3-0.7c0.1-0.5,0.3-0.9,0.7-1.2c0.2-0.1,0.4-0.2,0.6-0.2c0.1,0,0.2,0,0.3,0.1
						C161.4,159.3,161.2,160,160.9,160.3z"/>
				</g>
			</g>
			<g>
				<g>
					<polygon class="st32" points="165.9,152.5 165.9,156.8 152.7,164.4 152.7,160.1 					"/>
					<polygon class="st2" points="161.1,156.2 161.1,158.7 154.7,162.5 154.7,159.9 					"/>
					<g>
						<polygon class="st8" points="142.3,154.2 142.3,154.9 152.1,160.5 152.1,163.4 142.3,157.8 142.3,158.5 152.7,164.4 
							152.7,160.1 						"/>
						<polygon class="st31" points="142.3,157.8 142.8,157.5 142.9,158.2 						"/>
						<polygon class="st38" points="152.1,160.5 152.1,163.4 142.8,158.1 142.8,155.2 						"/>
					</g>
					<polygon class="st31" points="142.3,154.2 155.5,146.5 165.9,152.5 152.7,160.1 					"/>
				</g>
				<g>
					<path class="st5" d="M164.7,154.8c-0.3-0.4-0.9-0.2-1.2,0.1c-0.4,0.3-0.7,0.9-0.8,1.4c0,0.4,0.1,1,0.6,1c0.5,0.1,1-0.4,1.3-0.8
						C164.9,156,165.1,155.3,164.7,154.8z"/>
					<path class="st3" d="M164.7,154.8c-0.1-0.2-0.3-0.2-0.5-0.2c-0.3,0-0.5,0.1-0.7,0.3c-0.4,0.3-0.7,0.9-0.8,1.4
						c0,0.4,0.1,1,0.6,1h0.1c0.5,0,0.9-0.4,1.2-0.8C164.9,156,165.1,155.3,164.7,154.8z M164.3,156.3c-0.1,0.2-0.5,0.7-0.9,0.7
						c0,0,0,0-0.1,0c-0.3,0-0.4-0.5-0.3-0.7c0.1-0.5,0.3-0.9,0.7-1.2c0.2-0.1,0.4-0.2,0.6-0.2c0.1,0,0.2,0,0.3,0.1
						C164.8,155.3,164.6,156,164.3,156.3z"/>
				</g>
			</g>
		</g>
		<path class="st12" d="M100.5,96.9c0.5,0.8,1.5,1.8,2.6,1.6c1-0.1,1.2-1.2,1.1-2.1c-0.1-1.1-0.7-2.2-1.6-2.9
			c-0.7-0.5-1.8-1-2.5-0.2C99.3,94.4,99.9,95.9,100.5,96.9z"/>
	</g>
</g>
</svg>
