<?xml version="1.0" encoding="utf-8"?>
<!-- Generator: Adobe Illustrator 21.0.0, SVG Export Plug-In . SVG Version: 6.00 Build 0)  -->
<svg version="1.1" id="Capa_1" xmlns="http://www.w3.org/2000/svg" xmlns:xlink="http://www.w3.org/1999/xlink" x="0px" y="0px"
	 viewBox="0 0 115 107" style="enable-background:new 0 0 115 107;" xml:space="preserve">
<style type="text/css">
	.st0{fill:#666666;}
	.st1{display:none;fill:#666666;}
</style>
<path class="st0" d="M78,30.2l-41.1,0.1h-3.7v48.5h48.5V30.2H78z M49.4,39.6c1.7,0,3,1.3,3,3c0,1.7-1.4,3.1-3,3.1c-1.6,0-3-1.4-3-3
	C46.4,40.9,47.7,39.6,49.4,39.6z M42.9,48.6c0.1-0.2,0.3-0.3,0.5-0.3c2.6,0,5.1,0.1,7.7,0.1c0.1,0,0.1,0.1,0.3,0.1
	c-0.5,2.1-1,4.2-1.6,6.3c-0.6,2.7-1.3,5.2-1.9,7.9c-0.3,1.3,0.4,1.9,1.7,1.7c2-0.5,3.5-1.6,4.1-3.5c0.9-2.7,1.5-5.6,2.3-8.6h-3.5
	c0.4-1.4,0.6-2.5,1-3.7c0.1-0.2,0.4-0.4,0.6-0.4h6.7c0.1,0,0.1,0.1,0.3,0.1c-0.3,1-0.5,2.2-0.6,2.8c0.5-0.4,1.2-1.2,2.1-1.7
	c1-0.6,2.1-1.4,3.3-1.6c3.6-0.6,6.1,2.1,5.8,6.1c-0.3,2.5-1.1,4.8-1.6,7.2c-0.1,0.7-0.3,1.4-0.3,2.1c0,0.3,0.3,0.9,0.5,1
	c0.3,0.1,1,0,1.2-0.3c0.5-0.6,0.8-1.4,1.3-2.1c0.1-0.2,0.2-0.3,0.3-0.6c0.5,0.2,1.1,0.4,1.6,0.6c0.1,0.1,0.3,0.5,0.2,0.6
	c-0.5,1.6-1.2,2.9-2.4,4c-1.5,1.3-4,1.6-5.8,0.6c-1.4-0.7-2.3-2.3-2-4.1c0.3-2.1,0.9-4.1,1.4-6.1c0.1-0.5,0.3-1,0.4-1.6
	c0.3-1.4-0.1-2.6-1-3.1c-1-0.6-2.7-0.5-3.6,0.5c-0.7,0.8-1.3,1.7-1.6,2.7c-0.8,2.7-1.4,5.4-2.1,8.2c-0.3,1-0.5,2.1-0.8,3.1
	c-0.1,0.3-0.4,0.6-0.6,0.6h-4.6c0.3-1,0.4-1.7,0.6-2.6c-0.1-0.1-0.1-0.1-0.1-0.1c-0.1,0.3-0.3,0.5-0.5,0.6c-1.4,1.5-3,2.3-5.1,2.3
	c-2.9-0.1-4.5-1.9-4.1-4.8c0.3-2.1,0.8-4.1,1.3-6.1c0.3-1.5,0.7-3,1.1-4.7c-0.7,0-1.2,0-1.8,0.2h-1.7C42.2,51,42.5,49.9,42.9,48.6z"
	/>
<title>tech-icon1</title>
<path class="st1" d="M95,22.5v0.3c-0.4-0.9-0.8-1.8-1.3-2.7c-1-1.7-2.8-2.4-4.6-3.1h0.4c-0.1,0-0.2-0.1-0.3-0.1H25.9
	c-0.1,0-0.1,0.1-0.2,0.1l0,0h0.2c-1,0.5-2,0.9-2.9,1.4c-1.7,1-2.3,2.8-3,4.5v63.2c0.4,1,0.8,1.9,1.3,2.8c0.4,0.6,1,1.2,1.7,1.6
	c0.9,0.6,1.9,1,2.9,1.4h63.3c1.3-0.5,2.6-1,3.6-1.9c0.1,0,0.1-0.1,0.2-0.2s0.2-0.2,0.3-0.4c0.1-0.1,0.2-0.3,0.3-0.4
	c0.6-0.9,1-1.9,1.4-2.9v0.2c0-0.1,0.1-0.2,0.1-0.2V22.7C95.1,22.6,95,22.5,95,22.5z M49.7,36c0,2.7-2.1,4.8-4.7,4.8
	c-2.5,0-4.6-2.1-4.6-4.7c0-2.6,2-4.7,4.6-4.7S49.7,33.4,49.7,36z M84.4,67c-0.7,2.4-1.8,4.5-3.7,6.2c-2.3,2-6.2,2.4-8.9,1
	c-2.2-1.1-3.6-3.6-3.1-6.4c0.5-3.2,1.4-6.3,2.2-9.4c0.2-0.8,0.4-1.6,0.6-2.4c0.5-2.2-0.2-4-1.6-4.8c-1.6-1-4.1-0.8-5.5,0.7
	c-1.1,1.2-2,2.7-2.5,4.2c-1.2,4.2-2.1,8.4-3.2,12.6c-0.4,1.6-0.7,3.2-1.2,4.8c-0.1,0.4-0.6,1-0.9,1h-7.1c0.4-1.5,0.6-2.7,0.9-4
	c-0.1-0.1-0.1-0.1-0.2-0.2c-0.2,0.4-0.5,0.7-0.8,1c-2.2,2.3-4.7,3.6-7.9,3.5c-4.5-0.2-7-3-6.4-7.4c0.5-3.2,1.3-6.3,2-9.4
	c0.5-2.3,1.1-4.6,1.7-7.2c-1.1,0-1.8,0-2.8,0.3h-2.7c0.6-2,1-3.9,1.6-5.7c0.1-0.3,0.5-0.5,0.8-0.5c4,0,7.9,0.1,11.9,0.1
	c0.1,0,0.2,0.1,0.4,0.2c-0.8,3.2-1.6,6.5-2.4,9.8c-1,4.1-2,8.1-2.9,12.2c-0.5,2,0.6,3,2.7,2.6c3.1-0.7,5.4-2.5,6.3-5.4
	c1.4-4.2,2.3-8.7,3.5-13.3h-5.4c0.6-2.1,1-3.9,1.6-5.7c0.1-0.3,0.6-0.6,0.9-0.6h10.4c0.1,0,0.2,0.1,0.5,0.2
	c-0.4,1.7-0.7,3.4-0.9,4.4c0.7-0.6,1.9-1.8,3.2-2.6c1.6-1,3.3-2.1,5.1-2.4c5.5-0.9,9.5,3.2,8.9,9.4c-0.4,3.8-1.7,7.4-2.5,11.1
	c-0.2,1.1-0.5,2.1-0.5,3.2c0,0.5,0.4,1.4,0.8,1.5c0.5,0.2,1.5,0,1.8-0.4c0.8-1,1.3-2.2,2-3.3c0.2-0.3,0.3-0.5,0.5-0.9
	c0.8,0.3,1.7,0.6,2.5,1C84.3,66.1,84.5,66.7,84.4,67z M20,17v5.8c0.7-1.7,1.3-3.5,3-4.5c0.8-0.5,1.8-0.8,2.7-1.3H20z M89.5,17
	c1.7,0.7,3.4,1.4,4.3,3c0.5,0.8,0.8,1.7,1.2,2.5V17H89.5z M23,90.6c-0.7-0.4-1.3-1-1.7-1.7c-0.5-0.9-0.9-1.8-1.3-2.8V92h5.9
	C24.9,91.6,23.9,91.2,23,90.6z M93.7,88.9c-0.1,0.2-0.2,0.4-0.4,0.5c-0.1,0.1-0.2,0.3-0.3,0.4c0,0.1-0.1,0.1-0.2,0.2
	c-1,1-2.4,1.5-3.7,2H95v-5.8C94.6,87.2,94.3,88.1,93.7,88.9z"/>
<path class="st1" d="M49.7,36c0,2.7-2.1,4.8-4.7,4.8c-2.5,0-4.6-2.1-4.6-4.7c0-2.6,2-4.7,4.6-4.7S49.7,33.4,49.7,36z"/>
<path class="st1" d="M84.4,67c-0.7,2.4-1.8,4.5-3.7,6.2c-2.3,2-6.2,2.4-8.9,1c-2.2-1.1-3.6-3.6-3.1-6.4c0.5-3.2,1.4-6.3,2.2-9.4
	c0.2-0.8,0.4-1.6,0.6-2.4c0.5-2.2-0.2-4-1.6-4.8c-1.6-1-4.1-0.8-5.5,0.7c-1.1,1.2-2,2.7-2.5,4.2c-1.2,4.2-2.1,8.4-3.2,12.6
	c-0.4,1.6-0.7,3.2-1.2,4.8c-0.1,0.4-0.6,1-0.9,1h-7.1c0.4-1.5,0.6-2.7,0.9-4c-0.1-0.1-0.1-0.1-0.2-0.2c-0.2,0.4-0.5,0.7-0.8,1
	c-2.2,2.3-4.7,3.6-7.9,3.5c-4.5-0.2-7-3-6.4-7.4c0.5-3.2,1.3-6.3,2-9.4c0.5-2.3,1.1-4.6,1.7-7.2c-1.1,0-1.8,0-2.8,0.3h-2.7
	c0.6-2,1-3.9,1.6-5.7c0.1-0.3,0.5-0.5,0.8-0.5c4,0,7.9,0.1,11.9,0.1c0.1,0,0.2,0.1,0.4,0.2c-0.8,3.2-1.6,6.5-2.4,9.8
	c-1,4.1-2,8.1-2.9,12.2c-0.5,2,0.6,3,2.7,2.6c3.1-0.7,5.4-2.5,6.3-5.4c1.4-4.2,2.3-8.7,3.5-13.3h-5.4c0.6-2.1,1-3.9,1.6-5.7
	c0.1-0.3,0.6-0.6,0.9-0.6h10.4c0.1,0,0.2,0.1,0.5,0.2c-0.4,1.7-0.7,3.4-0.9,4.4c0.7-0.6,1.9-1.8,3.2-2.6c1.6-1,3.3-2.1,5.1-2.4
	c5.5-0.9,9.5,3.2,8.9,9.4c-0.4,3.8-1.7,7.4-2.5,11.1c-0.2,1.1-0.5,2.1-0.5,3.2c0,0.5,0.4,1.4,0.8,1.5c0.5,0.2,1.5,0,1.8-0.4
	c0.8-1,1.3-2.2,2-3.3c0.2-0.3,0.3-0.5,0.5-0.9c0.8,0.3,1.7,0.6,2.5,1C84.3,66.1,84.5,66.7,84.4,67z"/>
</svg>
