<?xml version="1.0" encoding="utf-8"?>
<!-- Generator: Adobe Illustrator 21.0.0, SVG Export Plug-In . SVG Version: 6.00 Build 0)  -->
<svg version="1.1" id="Capa_1" xmlns="http://www.w3.org/2000/svg" xmlns:xlink="http://www.w3.org/1999/xlink" x="0px" y="0px"
	 viewBox="0 0 115 107" style="enable-background:new 0 0 115 107;" xml:space="preserve">
<style type="text/css">
	.st0{fill:#666666;}
</style>
<title>tech-icon1</title>
<g>
	<path class="st0" d="M35.4,29.4c14.7,0,29.4,0.1,44.2,0.1c0,0.4-0.1,0.8-0.1,1.1c-0.2,1.7-0.3,3.3-0.5,4.9
		c-0.1,1.3-0.2,2.5-0.3,3.9c-0.1,1.3-0.2,2.5-0.3,3.9c-0.1,1.3-0.2,2.5-0.3,3.9c-0.1,1.3-0.2,2.5-0.3,3.8c-0.1,1.1-0.2,2.3-0.3,3.4
		c-0.1,1.1-0.2,2.3-0.3,3.4s-0.2,2.3-0.3,3.4c-0.1,1.3-0.2,2.6-0.3,3.9c-0.1,1.1-0.2,2.3-0.3,3.4c-0.1,1.1-0.2,2.2-0.3,3.4
		c-0.1,0.5-0.1,1-0.2,1.5c0,0.2-0.1,0.2-0.2,0.2c-2.5,0.6-4.9,1.4-7.3,2c-3.3,1-6.6,1.8-9.9,2.8c-0.6,0.2-1,0.1-1.5,0
		c-5.3-1.5-10.6-2.9-15.9-4.5c-0.5-0.2-0.9-0.2-1.4-0.4c-0.1,0-0.2-0.1-0.2-0.2c-0.2-1.8-0.3-3.6-0.5-5.3c-0.2-1.9-0.3-3.9-0.5-5.8
		c-0.2-1.6-0.3-3.3-0.4-4.9c-0.2-1.6-0.3-3.3-0.4-4.9c-0.2-1.4-0.2-2.9-0.4-4.4c-0.2-1.4-0.2-2.9-0.4-4.4c-0.2-1.4-0.2-2.9-0.4-4.4
		c-0.1-1.4-0.2-2.6-0.3-4c-0.1-1.3-0.2-2.6-0.3-3.9C35.5,30.9,35.5,30.1,35.4,29.4z M39.9,33.5c0.1,0.8,0.2,1.6,0.2,2.4
		c0.1,1.1,0.2,2.3,0.3,3.4c0.1,1.2,0.2,2.4,0.3,3.5c0.1,1.2,0.2,2.3,0.3,3.5c0.1,1.1,0.2,2.3,0.3,3.4c0.1,1,0.2,2,0.2,3
		c0.1,1.2,0.2,2.3,0.3,3.5c0.1,1.1,0.2,2.3,0.3,3.4c0.1,1.1,0.2,2.3,0.3,3.4c0.1,1.2,0.2,2.3,0.3,3.5c0.1,1.2,0.2,2.4,0.3,3.6
		c0,0.2,0.1,0.2,0.2,0.2c0.8,0.2,1.6,0.5,2.4,0.6c3.8,1,7.6,2.1,11.4,3.2c0.2,0.1,0.5,0.1,0.7,0c2.4-0.7,4.9-1.4,7.3-2.1
		c2.1-0.6,4.4-1.2,6.5-1.8c0.1,0,0.2-0.1,0.2-0.2c0.1-0.6,0.1-1.3,0.2-1.9c0.1-1.1,0.2-2.3,0.3-3.4c0.1-1.1,0.2-2.2,0.3-3.4
		c0.1-1.3,0.2-2.6,0.3-3.9c0.1-1.1,0.2-2.2,0.3-3.3c0.1-1.1,0.2-2.3,0.3-3.4c0.1-1.3,0.2-2.5,0.3-3.8c0.2-1.4,0.2-2.9,0.4-4.3
		c0.1-1.3,0.2-2.5,0.3-3.8c0.2-1.4,0.2-2.6,0.3-4c0.1-0.5,0.1-0.9,0.2-1.4C63.4,33.6,51.6,33.6,39.9,33.5z"/>
	<path class="st0" d="M63.7,55c-0.1,0-0.2,0-0.3,0c-5.7,0-11.3,0-17,0c-0.3,0-0.3,0.1-0.3-0.2c-0.2-1.5-0.2-2.9-0.4-4.5
		c-0.2-1.5-0.2-2.9-0.4-4.5c-0.1-1.3-0.2-2.6-0.3-3.9c-0.1-0.7-0.2-1.5-0.2-2.2c8.4,0,16.9,0,25.4,0c0,0.2,0,0.5-0.1,0.7
		c-0.2,1.4-0.2,2.8-0.4,4.2c0,0.1-0.1,0.2-0.2,0.2s-0.2,0-0.2,0c-6.3,0-12.5,0-18.8,0c-0.1,0-0.2,0-0.3,0c0.2,1.8,0.3,3.4,0.5,5.2
		c6.2,0,12.3,0,18.5,0c-0.1,0.5-0.1,0.9-0.1,1.4c-0.1,1.3-0.2,2.6-0.3,3.9c-0.1,1.3-0.2,2.5-0.3,3.8c-0.2,1.4-0.2,2.9-0.4,4.3
		c-0.1,0.6-0.2,1.3-0.2,2c0,0.2-0.1,0.2-0.2,0.2c-3.3,0.9-6.6,1.8-9.9,2.8c-0.2,0.1-0.4,0.1-0.6,0c-3.3-1-6.6-1.8-9.9-2.8
		c-0.2,0-0.2-0.1-0.2-0.2c-0.1-1.2-0.2-2.4-0.3-3.6c-0.2-1.4-0.2-2.9-0.4-4.3v-0.1c1.7,0,3.4,0,5.1,0c0.1,0.5,0.1,1,0.1,1.5
		c0.1,0.9,0.2,1.7,0.2,2.5c0,0.1,0.1,0.2,0.2,0.2c1.8,0.5,3.6,1,5.4,1.5c0.1,0,0.2,0,0.2,0c1.8-0.5,3.6-1,5.4-1.5
		c0.1,0,0.2-0.1,0.2-0.2c0.2-1.4,0.2-2.9,0.4-4.4c0.1-0.6,0.1-1.3,0.2-1.9C63.7,55.1,63.7,55,63.7,55z"/>
</g>
</svg>
