<?xml version="1.0" encoding="utf-8"?>
<!-- Generator: Adobe Illustrator 21.0.0, SVG Export Plug-In . SVG Version: 6.00 Build 0)  -->
<svg version="1.1" id="Capa_1" xmlns="http://www.w3.org/2000/svg" xmlns:xlink="http://www.w3.org/1999/xlink" x="0px" y="0px"
	 viewBox="0 0 115 107" style="enable-background:new 0 0 115 107;" xml:space="preserve">
<style type="text/css">
	.st0{fill:#666666;}
</style>
<title>tech-icon1</title>
<path class="st0" d="M30.5,55.1c3.4,0,6.8,0,10.1,0c0.4,0,0.7,0.3,1,0.5c-0.4,0.2-0.6,0.6-1,0.6c-3.4,0.6-6.8,1.3-10.1,1.9
	C30.5,57.1,30.5,56,30.5,55.1z"/>
<path class="st0" d="M30.5,50.2c3.1,0.6,6,1,9.1,1.5c0.6,0.1,1.1,0.2,1.7,0.3c0.2,0.1,0.4,0.4,0.7,0.8c-4.1,0-7.8,0-11.5,0
	C30.5,52,30.5,51.1,30.5,50.2z"/>
<path class="st0" d="M84.5,41.1C78,42.6,74,46.4,72.2,52.2c-1.8,0-3.5-0.4-5.3-0.1c-4.5,0.7-7.7,4.7-7.6,9.4c0,0.7-0.2,1.2-0.8,1.6
	c-2.3,1.4-3.2,4.1-2.5,6.6c0.7,2.6,3,4.2,5.7,4.2c5.5,0,10.9,0,16.3,0c0.4,0,0.8,0,1.6,0c-2.3,2.2-4.2,4.5-7.9,3.5
	c0.3,0.7,0.5,1.2,0.6,1.7c-0.8,0.4-1.6,0.7-2.4,1.1c-0.7-1.3-0.6-3.5-3.2-2.4c0.3,0.9,0.6,2,1.1,3.2c-0.9,0.2-1.7,0.5-2.7,0.7
	c-0.2-0.9-0.3-1.8-0.5-2.6c-0.3-1.8-0.5-1.8-2.4-1.4c0.2,1.4,0.5,2.8,0.6,4.3c-0.9,0.1-1.8,0.2-2.8,0.2c0-1,0-2,0-3
	c-0.1-1.8,0.5-1.9-2-2.1c0,1.7,0,3.2,0,5c-1-0.1-1.9-0.1-2.8-0.2c0.2-1.5,0.5-2.8,0.6-4c0.4-2,0.4-2-1.6-3.2
	c-0.5,2.2-0.8,4.4-1.3,6.8c-0.9-0.2-1.7-0.5-2.7-0.6c0.4-0.9,0.6-1.9,0.9-2.8c0.4-1,0.6-2.1,1.2-3.2c0.9-1.6,0.2-2.8-0.7-4.2
	c-1.2,3.2-2.3,6.2-3.4,9.4c-0.9-0.4-1.7-0.7-2.5-1.2c1.7-2.9,3.2-5.7,4.8-8.3c0.6-0.9,0.9-1.8,0.9-2.9c0-2.9,1.5-5.2,3.5-7.1
	c0.4-0.3,0.6-0.9,0.7-1.3c0.6-6.1,5.7-11.1,11.9-11.2c1.3,0,1.9-0.5,2.6-1.5c2.8-4.2,6.6-7,10.9-9.3c0.2-0.2,0.7,0,0.9,0.2
	C82.8,38.7,83.7,39.8,84.5,41.1z"/>
<path class="st0" d="M74.2,55.2c0.3-0.8,0.9-1.1,1.7-1.3c1.9-0.5,3.7-0.9,5.7-1.5c0.6,2.2,1.2,4.3,1.7,6.4c0.1,0.4-0.2,0.9-0.5,1.3
	c-0.4,0.6-0.6,1.1,0,1.7c0.6,0.6,0.6,1.3,0.3,2.1c-0.6,1.9-1,3.7-1.6,5.7c-2.2-0.6-4.4-1-6.4-1.9c-0.6-0.2-0.9-1.3-1.3-1.9
	c1.7,0.5,3.5,0.9,5.2,1.3c0.1-0.1,0.2-0.2,0.2-0.2c-0.9-1.7-1.9-3.3-3-4.9c-0.1-0.2-0.2-0.2-0.4-0.2c-1.9,0-3.8,0-5.8,0
	c-0.1,0.1-0.1,0.2-0.2,0.3c1.3,1.3,2.6,2.6,3.8,3.8c-1.7,0.3-2.9-0.4-4-1.7c-0.9-1.1-2.1-2-3.2-3.2c1.7-1.7,3.2-3.2,4.8-4.8
	 M80.7,66.4c1.8-3.8,1.8-7.7-0.1-10.8c-1,1.8-2,3.4-2.9,5.1c-0.1,0.2,0,0.5,0.1,0.6C78.7,63,79.7,64.7,80.7,66.4z M70.1,60.3
	c1.1,0,2.1-0.2,3.2,0c2.2,0.4,3.7-0.5,4.5-2.6c0.4-0.9,1-1.8,1.6-2.8C75.2,55.1,72.3,56.8,70.1,60.3z"/>
<path class="st0" d="M60,25.7c0.7,0.1,1.6,0.2,2.6,0.2c-0.4,2-0.6,3.8-0.9,5.7c-0.3,1.7-0.6,3.2-0.9,4.9c-0.1,0.2-0.3,0.5-0.5,0.6
	c-0.2-0.2-0.5-0.4-0.5-0.6c0-3.5,0-7,0-10.5C59.8,26,59.9,25.9,60,25.7z"/>
<path class="st0" d="M39.7,75c-0.7-0.6-1.3-1.3-2-2c3-2.4,5.8-4.9,8.6-7.2c0.2,0,0.2,0,0.4,0.1c0,0.3,0.2,0.7,0,0.9
	C44.3,69.5,42,72.2,39.7,75z"/>
<path class="st0" d="M77.7,33c0.7,0.6,1.3,1.3,2,1.9c-3,2.4-5.8,4.9-9,7.5c0-0.6-0.2-1,0-1.2C73.1,38.5,75.4,35.8,77.7,33z"/>
<path class="st0" d="M43.6,78c-0.8-0.6-1.5-1-2.3-1.7c2.4-2.9,4.8-5.8,7.5-8.9c0.2,0.6,0.4,0.9,0.2,1.1C47.3,71.7,45.4,74.9,43.6,78
	z"/>
<path class="st0" d="M44.9,64.2c-2.8,2.4-5.7,4.7-8.6,7.2c-0.6-0.7-1-1.5-1.7-2.3c0.9-0.6,1.8-1,2.6-1.6c2.1-1.3,4.3-2.5,6.5-3.7
	c0.3-0.2,0.7-0.1,1.1-0.2C44.9,63.9,44.9,64,44.9,64.2z"/>
<path class="st0" d="M39.8,33.2c2.2,2.7,4.5,5.4,6.8,8.2c0.2,0.2,0,0.5,0,0.7c-0.2,0-0.6,0.1-0.6-0.1c-2.8-2.3-5.5-4.5-8.3-7
	C38.4,34.3,39,33.8,39.8,33.2z"/>
<path class="st0" d="M54.8,25.9c0.9-0.1,1.8-0.2,2.8-0.2c0,1.5,0,2.8,0,4.2c0,2.1,0,4.4,0,6.5c0,0.2-0.2,0.5-0.4,0.6
	c-0.2-0.2-0.6-0.4-0.6-0.6C56.1,33,55.5,29.5,54.8,25.9z"/>
<path class="st0" d="M33.6,40.7c3.2,1.9,6.2,3.5,9.3,5.3c0.2,0.2,0.3,0.5,0.5,0.6c-0.2,0.1-0.6,0.3-0.6,0.3
	c-3.3-1.2-6.7-2.4-10.1-3.7C32.8,42.4,33.2,41.7,33.6,40.7z"/>
<path class="st0" d="M34.7,38.9c0.6-0.8,1-1.5,1.7-2.3c2.8,2.4,5.6,4.6,8.3,7c0.2,0.2,0.2,0.5,0.2,0.7c-0.3,0-0.6,0.1-0.8,0
	c-2-1.1-4-2.3-5.9-3.4C36.9,40.2,35.8,39.6,34.7,38.9z"/>
<path class="st0" d="M73.8,30c0.9,0.6,1.6,1.1,2.3,1.7c-2.4,3-4.9,5.8-7.4,8.9c-0.2-0.5-0.5-0.8-0.4-0.9C70.1,36.4,72,33.2,73.8,30z
	"/>
<path class="st0" d="M48.5,40.2c-2.4-2.8-4.7-5.7-7.2-8.6c0.7-0.6,1.5-1,2.2-1.6c0.2,0.3,0.5,0.6,0.6,0.7c1.7,2.8,3.2,5.6,4.8,8.3
	C49.2,39.6,49.3,40,48.5,40.2z"/>
<path class="st0" d="M69.4,27.7c0.9,0.5,1.7,0.7,2.4,1.1c-0.1,0.2-0.1,0.5-0.2,0.6c-1.7,2.9-3.3,5.7-4.9,8.6
	c-0.2,0.3-0.6,0.5-0.7,0.6c-0.1-0.4-0.2-0.7-0.2-1C67,34.3,68.2,31.1,69.4,27.7z"/>
<path class="st0" d="M45.4,28.9c0.9-0.5,1.7-0.7,2.6-1.2c0.6,1.5,1,2.8,1.6,4.2c0.7,1.9,1.4,3.9,2.1,5.9c0.1,0.2-0.1,0.6-0.1,0.7
	c-0.2-0.1-0.6-0.1-0.6-0.2C49.1,35.3,47.3,32.1,45.4,28.9z"/>
<path class="st0" d="M43.4,61.6c-3.2,1.9-6.4,3.7-9.7,5.7c-0.4-0.8-0.7-1.6-1.2-2.4c0.3-0.2,0.6-0.3,0.8-0.5c3-1.1,6-2.2,9-3.2
	C42.8,61,43.3,60.7,43.4,61.6z"/>
<path class="st0" d="M64.6,26.3c0.9,0.2,1.8,0.5,2.8,0.6c-0.2,0.6-0.5,1.3-0.6,1.8c-0.9,2.7-1.9,5.4-3,8.1c-0.1,0.3-0.5,0.5-0.6,0.6
	c-0.1-0.3-0.3-0.6-0.3-0.8C63.4,33.3,64,29.9,64.6,26.3z"/>
<path class="st0" d="M31,59.9c2.5-0.5,4.9-0.9,7.2-1.3c1.1-0.2,2.2-0.5,3.3-0.6c0.2,0,0.6,0.1,0.6,0.2c0.1,0.2-0.1,0.6-0.2,0.6
	c-3.3,1.3-6.8,2.4-10.2,3.8C31.4,61.8,31.2,61,31,59.9z"/>
<path class="st0" d="M50,27c0.9-0.2,1.7-0.5,2.7-0.7c0.3,1.7,0.6,3.2,0.9,4.7c0.4,1.9,0.6,3.9,0.9,5.8c0,0.2-0.2,0.5-0.2,0.6
	c-0.2-0.2-0.6-0.2-0.6-0.4C52.5,33.9,51.3,30.5,50,27z"/>
<path class="st0" d="M31.7,45.3c3.5,1.3,6.8,2.4,10.1,3.7c0.2,0.1,0.3,0.4,0.5,0.6c-0.2,0.2-0.4,0.4-0.6,0.3
	c-3.5-0.6-7-1.3-10.4-1.9c-0.1,0-0.2-0.1-0.2-0.2C31.2,47.1,31.4,46.3,31.7,45.3z"/>
</svg>
