<?xml version="1.0" encoding="utf-8"?>
<!-- Generator: Adobe Illustrator 21.0.0, SVG Export Plug-In . SVG Version: 6.00 Build 0)  -->
<svg version="1.1" id="Capa_1" xmlns="http://www.w3.org/2000/svg" xmlns:xlink="http://www.w3.org/1999/xlink" x="0px" y="0px"
	 viewBox="0 0 115 107" style="enable-background:new 0 0 115 107;" xml:space="preserve">
<style type="text/css">
	.st0{fill:#666666;}
</style>
<title>tech-icon1</title>
<path class="st0" d="M33.1,29.8v48.6h48.6V29.8C81.8,29.8,33.1,29.8,33.1,29.8z M59,66c-1.6,0-3.3,0-4.9,0c-0.4,0-0.6-0.1-0.8-0.5
	c-1.4-2.5-2.7-5.1-4.1-7.6c-0.1-0.1-0.1-0.1-0.1-0.2C49,57.8,49,57.9,49,57.9c-1.4,2.6-2.8,5.2-4.2,7.9c-0.1,0.2-0.3,0.3-0.5,0.3
	c-1.6,0-3.1,0-4.7,0c-0.3,0-0.3-0.1-0.1-0.3c0.5-0.7,0.9-1.5,1.4-2.2c1.7-2.8,3.4-5.6,5-8.4c0.1-0.2,0.1-0.3,0-0.5
	c-2.1-3.5-4.1-7-6.2-10.5c-0.1-0.1-0.1-0.1-0.1-0.2c0-0.1,0.1-0.1,0.1-0.2c0.1-0.1,0.1,0,0.2,0c1.6,0,3,0,4.6,0
	c0.4,0,0.6,0.1,0.7,0.5c0.8,1.9,1.9,3.6,2.9,5.4c0.4,0.7,0.8,1.5,1.2,2.2c0.1,0.1,0.1,0.1,0.1,0.3c0.1-0.1,0.1-0.1,0.1-0.2
	c1.4-2.5,2.7-5.1,4-7.6c0.2-0.4,0.5-0.5,0.9-0.5c1.4,0,2.6,0,4,0c0.1,0,0.1,0,0.2,0c0.2,0.1,0.2,0.1,0.1,0.3
	c-0.7,1.1-1.4,2.3-2.1,3.4c-1.4,2.3-2.8,4.6-4.1,6.8c-0.1,0.1-0.1,0.3,0,0.4c2.2,3.6,4.3,7.2,6.5,10.8c0.1,0.1,0.1,0.3,0.2,0.5
	C59.1,66,59,66,59,66z M75.2,65.2c-1,0.4-2,0.7-3,0.9c-1.4,0.3-2.9,0.5-4.4,0.3c-2.2-0.1-4.3-0.8-5.8-2.4c-1.2-1.2-1.9-2.8-2.1-4.5
	c-0.2-1.4-0.2-2.8,0.3-4.3c1-3.2,3.2-5.2,6.5-6.1c1.3-0.3,2.6-0.5,3.9-0.3c0.1,0,0.1,0,0.2,0c0,0,0.1,0,0.1,0v-6.5
	c0-0.4,0-0.4,0.4-0.4c1.3,0,2.6,0,3.9,0c0.5,0,0.5,0,0.5,0.5c0,6.5,0,13.1,0,19.6c0,0.8,0.1,1.7,0.1,2.5c0,0.1,0,0.2,0,0.3
	C75.5,65,75.4,65.1,75.2,65.2z M70.5,52.8c-0.8-0.1-1.7-0.1-2.5,0.1c-1.6,0.5-2.8,1.5-3.3,3.2c-0.3,1.2-0.3,2.4,0.2,3.6
	c0.4,1,1,1.8,2,2.3c1.2,0.5,2.4,0.5,3.6,0.3c0.2,0,0.3-0.1,0.3-0.3c0-1.5,0-3,0-4.4c0-1.5,0-3,0-4.4C70.7,52.9,70.7,52.8,70.5,52.8z
	"/>
</svg>
