<?xml version="1.0" encoding="utf-8"?>
<!-- Generator: Adobe Illustrator 21.0.0, SVG Export Plug-In . SVG Version: 6.00 Build 0)  -->
<svg version="1.1" id="Capa_1" xmlns="http://www.w3.org/2000/svg" xmlns:xlink="http://www.w3.org/1999/xlink" x="0px" y="0px"
	 viewBox="0 0 115 107" style="enable-background:new 0 0 115 107;" xml:space="preserve">
<style type="text/css">
	.st0{fill:#666666;}
</style>
<title>tech-icon1</title>
<g>
	<path class="st0" d="M27.6,54c-0.1-0.9,0-1.8,0.1-2.7c0.5-4.2,2-8,4.5-11.3c3.2-4.2,7.4-7,12.5-8.5c1.2-0.4,2.3-0.5,3.5-0.7
		c1-0.1,2-0.2,3-0.2c5.7,0.1,10.8,2,15,5.8c1.1,1,2,2,2.9,3.1c0.2,0.3,0.1,0.4-0.1,0.4c-2,1.2-4.2,2.4-6.2,3.7
		c-0.5,0.4-1.2,0.6-1.7,1c-0.1,0.1-0.2,0.1-0.4-0.1c-1.7-1.7-3.7-2.9-6-3.7c-0.8-0.3-1.5-0.4-2.3-0.4c-0.5-0.1-1.2-0.1-1.7-0.1
		c-3.2,0.1-6.1,1.1-8.5,3.1c-2.4,2-4,4.5-4.7,7.7c-0.3,1.2-0.4,2.4-0.4,3.7c0.2,2.9,1.2,5.6,3.1,7.8c1.9,2.3,4.3,3.8,7.2,4.5
		c1.3,0.4,2.8,0.5,4.1,0.4c3.5-0.3,6.5-1.7,8.9-4.2c0.2-0.2,0.4-0.2,0.5-0.1c2.7,1.5,5.3,3.1,8,4.6c0.3,0.1,0.2,0.2,0.1,0.4
		c-3.8,4.7-8.7,7.7-14.7,8.7c-1.7,0.3-3.4,0.4-5,0.3c-2.5-0.1-4.9-0.7-7.1-1.6c-5.2-2-9.1-5.6-11.8-10.4c-1.2-2-2-4.3-2.5-6.6
		c-0.3-1.1-0.4-2-0.4-3.2C27.6,55.1,27.7,54.6,27.6,54z"/>
	<path class="st0" d="M70.3,61.8c0-0.5,0-1.2,0-1.7c0-0.2-0.1-0.3-0.3-0.3c-1.2,0-2.2,0-3.4,0c-0.2,0-0.3-0.1-0.3-0.3
		c0-1.2,0-2.2,0-3.4c0-0.2,0.1-0.3,0.3-0.3c1.2,0,2.2,0,3.4,0c0.2,0,0.4-0.1,0.4-0.3c0-1.2,0-2.2,0-3.4c0-0.2-0.1-0.3-0.3-0.3
		c-1.2,0-2.2,0-3.4,0c-0.3,0-0.4-0.1-0.4-0.4c0-1.1,0-2.2,0-3.3c0-0.2,0.1-0.3,0.3-0.3c1.2,0,2.2,0,3.4,0c0.2,0,0.3-0.1,0.3-0.3
		c0-1.2,0-2.2,0-3.4c0-0.2,0.1-0.3,0.3-0.3c1.2,0,2.3,0,3.4,0c0.2,0,0.3,0.1,0.3,0.3c0,1.2,0,2.2,0,3.4c0,0.3,0.1,0.4,0.4,0.4
		c1.2,0,2.2,0,3.4,0c0.2,0,0.3-0.1,0.3-0.3c0-1.2,0-2.2,0-3.4c0-0.3,0.1-0.4,0.4-0.4c1.1,0,2.2,0,3.3,0c0.2,0,0.4,0.1,0.4,0.3
		c0,1.2,0,2.2,0,3.4c0,0.3,0.1,0.3,0.4,0.3c1.2,0,2.2,0,3.4,0c0.2,0,0.3,0.1,0.3,0.3c0,1.2,0,2.2,0,3.4c0,0.2-0.1,0.3-0.3,0.3
		c-1.2,0-2.2,0-3.4,0c-0.2,0-0.4,0.1-0.4,0.3c0,1.2,0,2.2,0,3.4c0,0.2,0.1,0.3,0.3,0.3c1.2,0,2.2,0,3.4,0c0.3,0,0.4,0.1,0.4,0.4
		c0,1.1,0,2.2,0,3.3c0,0.2-0.1,0.3-0.3,0.3c-1.2,0-2.2,0-3.4,0c-0.2,0-0.3,0.1-0.3,0.3c0,1.2,0,2.2,0,3.4c0,0.2-0.1,0.3-0.3,0.3
		c-1.2,0-2.3,0-3.4,0c-0.2,0-0.3-0.1-0.3-0.3c0-1.2,0-2.2,0-3.4c0-0.3-0.1-0.4-0.4-0.4c-1.2,0-2.2,0-3.4,0c-0.2,0-0.3,0.1-0.3,0.3
		c0,1.2,0,2.2,0,3.4c0,0.2,0,0.4-0.3,0.4c-1.2,0-2.2,0-3.4,0c-0.2,0-0.3-0.1-0.3-0.3C70.4,63,70.3,62.4,70.3,61.8z M74.4,54.1
		c0,0.5,0,1.2,0,1.7c0,0.2,0.1,0.2,0.2,0.2c1.2,0,2.3,0,3.5,0c0.2,0,0.2-0.1,0.2-0.2c0-1.2,0-2.3,0-3.5c0-0.2-0.1-0.2-0.2-0.2
		c-1.2,0-2.3,0-3.5,0c-0.2,0-0.3,0.1-0.2,0.2C74.4,52.9,74.4,53.6,74.4,54.1z"/>
</g>
</svg>
