<?xml version="1.0" encoding="utf-8"?>
<!-- Generator: Adobe Illustrator 24.3.0, SVG Export Plug-In . SVG Version: 6.00 Build 0)  -->
<svg version="1.1" id="Layer_1" xmlns="http://www.w3.org/2000/svg" xmlns:xlink="http://www.w3.org/1999/xlink" x="0px" y="0px"
	 viewBox="0 0 225 232.7" style="enable-background:new 0 0 225 232.7;" xml:space="preserve">
<style type="text/css">
	.st0{opacity:5.000000e-02;enable-background:new    ;}
	.st1{fill:#315271;}
	.st2{opacity:0.3;}
	.st3{opacity:0.3;enable-background:new    ;}
	.st4{fill:#FFBD99;}
	.st5{fill:#EDEDEF;}
	.st6{opacity:0.2;enable-background:new    ;}
	.st7{opacity:0.4;enable-background:new    ;}
	.st8{fill:#FDBC99;}
	.st9{fill:#6885A5;}
	.st10{opacity:0.15;enable-background:new    ;}
	.st11{fill:#E8EBF5;}
	.st12{fill:#A7BCCE;}
	.st13{fill:#0B3B56;}
	.st14{fill:#0F4463;}
	.st15{fill:#1F5E77;}
	.st16{clip-path:url(#SVGID_2_);fill:#1C75BC;}
	.st17{fill:#1972CC;}
	.st18{opacity:0.5;enable-background:new    ;}
	.st19{fill:#BBCEE1;}
	.st20{fill:#FFFFFF;}
	.st21{fill-rule:evenodd;clip-rule:evenodd;fill:#9D4D36;}
	.st22{fill:#9D4D36;}
	.st23{fill:#0082D1;}
	.st24{fill:#0093ED;}
	.st25{fill:#F4C5A2;}
	.st26{fill:#FF8879;}
	.st27{opacity:0.1;enable-background:new    ;}
	.st28{fill:#DE495A;}
	.st29{fill:#F4767A;}
	.st30{fill:#ED5561;}
	.st31{fill:#D8395A;}
	.st32{fill:#FCEC32;}
	.st33{fill:#F5D012;}
	.st34{fill:#EAA10C;}
	.st35{fill:#79FF68;}
	.st36{fill:#50E85E;}
	.st37{fill:#3CC743;}
	.st38{fill:#9263C1;}
	.st39{fill:#8444B2;}
	.st40{fill:#7231A3;}
	.st41{fill:#E16450;}
	.st42{fill:#05CDFF;}
	.st43{fill:#55C7A6;}
</style>
<g>
	<g>
		<g class="st0">
			<path d="M123.1,152c-2.8-3.8-8.6-5.1-7.2-7.7c1-2.6,7.3-5.2,12.6-5.9c5.5-0.8,7.6,3,12.4,2.4c5.9-0.7,10.2,4.1,13,6.4
				c6.2,4.7-4.5,12.1-10.6,10.1C136.7,155.1,128,158.5,123.1,152z"/>
		</g>
		<g>
			<path class="st1" d="M128.6,138.6c0,1.8-2.4,3.9-5.5,5.1s-4.3,2.9-1.4,3.7c1.5,0.4,9.3-1.6,12.8-3.2c0.8-0.3,1.2-1,1.1-1.8
				c-0.1-1.4-1.2-2.4-0.9-4C135.1,136.4,128.7,133.9,128.6,138.6z"/>
		</g>
		<g class="st2">
			<g>
				<path d="M121.8,146.6c1.5,0.4,9.2-1.6,12.8-3.2c0.6-0.2,1-0.7,1.1-1.3c0,0.1,0,0.1,0,0.2c0.1,0.8-0.4,1.6-1.1,1.8
					c-3.5,1.6-11.3,3.6-12.8,3.2s-1.9-1-1.6-1.7C120.6,146.2,121.2,146.5,121.8,146.6z"/>
			</g>
			<g>
				<path d="M134.7,137.9c0,0.1,0,0.3,0,0.4v0.1C134.7,138.3,134.7,138.1,134.7,137.9z"/>
			</g>
		</g>
		<g class="st3">
			<path d="M129.7,139.9c-0.4-0.1-0.8-0.4-1.2-0.7c0.1-0.2,0.1-0.4,0.1-0.6c0-4.7,6.5-2.2,6.1-0.3c-0.1,0.3-0.1,0.7-0.1,1
				C133.2,140.2,131.4,140.4,129.7,139.9z"/>
		</g>
		<g class="st3">
			<path d="M135.7,142.3c0.1,0.8-0.4,1.6-1.1,1.8c-3.5,1.6-11.3,3.6-12.8,3.2c-1.8-0.5-2-1.3-1.2-2.1l0.2-0.2l0,0
				c1.1,1.5,3.5,1.1,4.7,0.7s3.8-1.4,5.6-1.9s1.8-1.9,1.7-2.8c-0.6-5.5,0.3-2.7,0.9-4.3l0,0c0.2,0.1,0.3,0.2,0.4,0.3h0.1l0,0
				l0.2,0.2l0.1,0.2l0,0l0.1,0.1c0.1,0.1,0.1,0.2,0.1,0.3c0,0,0,0,0,0.1s0,0.2,0,0.3C134.5,139.9,135.6,140.9,135.7,142.3z"/>
		</g>
		<g class="st3">
			<path d="M129.6,139.9c-0.4-0.1-0.8-0.4-1.2-0.7c0.1-0.2,0.1-0.4,0.1-0.6c0-4.7,6.5-2.2,6.1-0.3c-0.1,0.3-0.1,0.7-0.1,1
				C133.2,140.2,131.3,140.4,129.6,139.9z"/>
		</g>
		<g>
			<path class="st4" d="M119.7,87.7c-0.7,1.2-1.9,2.6-3.5,5c-0.6,1-0.9,2.2-0.8,3.4c0,0.8,0.3,1.5,0.7,2.1c0.5,0.7,0.7,1,0.9,1
				s0.5-0.4,0.5-0.4s0.2,0.6,0.6,0.6s0.4-0.7,0.4-0.7c0.2,0.1,0.4,0,0.6-0.1c0.2-0.3-0.1-0.9-0.1-0.9c0.2,0,0.4-0.1,0.4-0.3v-0.1
				c0-0.5-0.6-1.3-0.5-1.8s-0.2-0.4,0.4-1.2c0.8-0.8,1.4-1.8,1.8-2.8c0.2-1,0-1,0.7-1.8c5.7-6.5,0.4-1.9-0.3-2.5
				S120.4,86.4,119.7,87.7z"/>
		</g>
		<g class="st3">
			<path d="M116.5,94.8c0.1-1.4,1.6-2.5,2.7-4.2c0.9-1.3,1.8-2.5,2.8-3.7c1.3-0.2,5.1-3.4,0,2.4c-0.7,0.8-0.4,0.8-0.7,1.8
				c-0.4,1-1,2-1.8,2.8c-0.7,0.8-0.4,0.7-0.4,1.2s0.5,1.3,0.5,1.8c0,0.2-0.1,0.4-0.3,0.4h-0.1c0,0,0.3,0.6,0.1,0.9
				c-0.2,0.2-0.4,0.2-0.6,0.1c0,0,0,0.7-0.4,0.7s-0.6-0.6-0.6-0.6c-0.1,0.1-0.1,0.2-0.2,0.3C115.8,97.1,116.3,96.3,116.5,94.8z"/>
		</g>
		<g class="st3">
			<path d="M117.4,98c-0.5,0.6-0.8,0.4-1,0.1s0-0.6,0.1-0.7s-0.1-0.2-0.2-0.5s0.1-0.4,0-0.8c0-0.5,0.1-1,0.3-1.5
				c0.2-0.5,0.4-0.9,0.5-1.4c0.1-0.4,0.3-0.3,0.3,0.2s-0.3,1-0.7,2.2s-0.5,1.5,0,1.8s1.3-1.1,1.5-1.7s0.6-0.7,1.1-1.4l0,0
				c-0.4,0.6-0.2,0.5-0.2,1c0,0.2,0,0.4,0.1,0.5c-0.3,0.3-0.5,0.5-0.8,0.8C117.8,97,118,97.4,117.4,98z"/>
		</g>
		<g>
			<path class="st5" d="M124.8,74.2l-7,15.9c-0.2,1.8,2.6,2.9,3.6,1.9c2.1-2.2,9.3-12.2,10.2-16.9C132.6,69.5,126.9,70.2,124.8,74.2
				z"/>
		</g>
		<g>
			<path class="st5" d="M132.9,55.3c1.2,2.3-0.3,18.5-1.7,20.9c-0.5,0.8-2.7,6.4-3.8,6.2c-0.4-0.1-0.8-0.3-1.2-0.6
				c-1.8-1.8-1.2-12-1.2-16.1c0-3.9,0.9-10.5,5.5-11.6C131.4,53.9,132.5,54.4,132.9,55.3z"/>
		</g>
		<g class="st0">
			<path d="M132.9,55.3c1.2,2.3-0.3,18.5-1.7,20.9c-0.5,0.8-2.7,6.4-3.8,6.2c-0.4-0.1-0.8-0.3-1.2-0.6c-1.8-1.8-1.2-12-1.2-16.1
				c0-3.9,0.9-10.5,5.5-11.6C131.4,53.9,132.5,54.4,132.9,55.3z"/>
		</g>
		<g class="st6">
			<path d="M128.8,75.7L128.8,75.7c1.3-4.3,2.4-17.8,1.3-19.8c-0.2-0.4-0.4-0.9-0.6-1.3c0.3-0.1,0.6-0.2,0.9-0.3
				c1-0.3,2,0.2,2.4,1.1c1.1,2.1,0,15.5-1.3,19.8l0,0c-0.9,4.7-8.1,14.7-10.2,16.9c-0.7,0.5-1.6,0.5-2.3,0.1
				C121.6,89.2,128,80.1,128.8,75.7z"/>
		</g>
		<g>
			<path class="st1" d="M149.1,143.9c0,1.8,0.8,7.3-1.3,9s-5.5,1.8-4.9-1.8s1.9-6.9,1.7-10.3S149,140,149.1,143.9z"/>
		</g>
		<g class="st2">
			<g class="st7">
				<path d="M149.1,143.9c0,1.8,0.8,7.3-1.3,9s-5.1,1.8-4.9-1.1c5.5,2.2,4.7-3,4.8-6c0-1.8-0.2-3.6-0.6-5.4c0-0.2,0-0.3,0-0.5
					C148.3,140.9,149.1,142.4,149.1,143.9z"/>
			</g>
		</g>
		<g class="st3">
			<path d="M147.5,152c2.1-1.7,1.3-7.2,1.3-9c0-0.4-0.1-0.8-0.2-1.3c0.3,0.7,0.5,1.4,0.5,2.1c0,1.8,0.8,7.3-1.3,9
				c-1.8,1.4-4.6,1.8-4.9-0.5C143.8,153.7,146,153.3,147.5,152z"/>
		</g>
		<g class="st3">
			<path d="M144.7,140.8c-0.2-3.4,4.3-0.9,4.4,3.1c0,0.3,0,0.8,0.1,1.3c-0.8,0.5-3.6,1.1-4.8-0.5
				C144.6,143.5,144.7,142.1,144.7,140.8z"/>
		</g>
		<g>
			<path class="st1" d="M127.9,85.8l13.4,2.3l-6.6,50.6c-1.5,1-3.3,1.2-4.9,0.6c-0.4-0.1-0.8-0.4-1.2-0.7l0,0c0-0.1,0-0.3-0.1-0.4
				L127.9,85.8z"/>
		</g>
		<g class="st0">
			<path d="M134.5,96.3c0-1.7,0.5-3.4,1.4-4.8l0.3-4.2l5.1,0.9l-0.1,0.4c3.4,0.2,6,3.6,6,7.8c0,4.3-2.9,7.8-6.4,7.8
				c-0.6,0-1.1-0.1-1.6-0.3l-4.5,34.8c-0.8,0.6-1.8,0.9-2.8,0.9l3.2-39.8C134.7,98.7,134.5,97.5,134.5,96.3z"/>
		</g>
		<g>
			<path class="st1" d="M134,94.4c0-1.4,0.3-2.9,1-4.1l-0.5-3h3.3c0.8-0.4,1.7-0.7,2.6-0.7c0.9,0,1.8,0.2,2.7,0.7h5l1.9,55
				c0.1,1.5-0.9,2.7-2.4,3c-1.8,0.3-3.5-0.9-3.8-2.7l0,0l-7-41.9C135,99.1,134,96.8,134,94.4z"/>
		</g>
		<g class="st3">
			<path d="M131.4,90.4c0.2-1.3,0.3-2.7,0.3-4l4.5,0.8h0.9c-0.1,1.9-0.1,3.5-0.3,4.8C135,91.7,133.2,91.2,131.4,90.4z"/>
		</g>
		<g class="st0">
			<path d="M147.5,144.7l-4.2-54.9l-8.3,0.3l-0.5-2.9l13.6,0.1l1.9,55c0.1,1.5-0.9,2.7-2.4,3h-0.1
				C147.5,145.1,147.5,144.9,147.5,144.7z"/>
		</g>
		<g>
			<path class="st1" d="M142.9,56.5c-0.3,0.2-0.8,0.6-1.4,1c-2.1,2.2-4.4,3.5-4.3,14.4c0.1,8.2,0,15.4-0.4,19.3l1,0.1
				c-2.5-0.3-5-1-7.2-2.2c0.3,0.1,0.5,0.3,0.8,0.4c1-6.8-0.2-19.5-0.2-23.8c0-5.7,0.8-8,2.2-10.3l0,0c0.3-0.5,0.6-1.1,0.9-1.5h-0.2
				c2.8,0.4,5.6,1,8.3,2l0.6,0.2C143.1,56.3,143,56.4,142.9,56.5z"/>
		</g>
		<g class="st3">
			<path d="M128.2,85c0-3.3,0.4-6.8,0.3-9.5c-0.4-8-1.5-9.1-1.5-14.4c0-3,0.7-4.9,1.9-5.9c1.4-1.2,3.7-1.4,6.1-1.2h0.2
				c-0.4,0.5-0.7,1-0.9,1.5h-0.8c-1.5,2.3-1.5,4.6-1.5,10.3c0,4.3,1.2,17.8,0.2,24.6C129.8,89.3,128.2,87,128.2,85z"/>
		</g>
		<g>
			<path class="st5" d="M137.3,72c-0.1-10.8,2.1-12.2,4.3-14.4c0.6-0.4,1.1-0.8,1.4-1c0.1-0.1,0.2-0.2,0.3-0.3
				c1.3,0.5,2.7,1,3.9,1.7c1.7,1,3.1,2.2,3.1,4.2l-2,11.9c0,6.2,1.2,6.5,0.4,12.7c0,2.4-1.9,4.1-4.3,4.6c-2.4,0.7-4.9,0.9-7.4,0.6
				C137.2,88.1,137.4,80.1,137.3,72z M131.4,90.5c1-6.8-0.2-20.3-0.2-24.6c0-5.7,0.8-8,2.2-10.3l0,0c0.3-0.5,0.6-1.1,0.9-1.5h-0.2
				c-2.4-0.3-4.7-0.1-6.1,1.2c-1.2,1.1-1.9,3-1.9,5.9c0,5.3,1.2,6.4,1.5,14.4c0.1,2.7-0.3,6.2-0.3,9.5
				C127.4,87,129.1,89.3,131.4,90.5L131.4,90.5z"/>
		</g>
		<g class="st0">
			<path d="M141.9,84.3c-0.4-8.1,0-9,0-14.3c0-3,0.7-4.9,1.9-5.9c1.2-0.9,2.6-1.3,4-1.2c-0.3-1.5-1.3-2.8-2.6-3.6
				c-1.4-0.8-3-1.5-4.5-2c-3.1-1.1-9.3-3-13-1.7c0.1-0.1,0.3-0.3,0.4-0.4c3.2-2.7,10.9-0.3,14.5,0.9c1.6,0.5,3.1,1.2,4.5,2
				c1.7,1,3.1,2.2,3.1,4.2l-2,11.9c0,6.2,1.2,6.5,0.4,12.7c0,2.4-1.9,4.1-4.3,4.6c-0.3,0.1-1.9,0.4-2.4,0.5
				C142,89.3,142,86.4,141.9,84.3z"/>
		</g>
		<g>
			<path class="st8" d="M143.2,56.3c-0.1,0.1-0.2,0.3-0.4,0.4c-0.9,0.7-4.9,4-7.6,3c-3.8-1.3-1.7-4.3-0.8-5.5l-0.5-0.1
				c0.5-0.7,0.8-1.8,0.8-4.1c0-3.1,2.3-5,4.2-4.9s4.3,1.1,3.7,3.7C142.3,50.6,141.4,54.6,143.2,56.3z"/>
		</g>
		<g class="st0">
			<path d="M143.2,56.3c-0.1,0.1-0.2,0.3-0.4,0.4c-0.2,0.2-0.6,0.5-1.1,0.9c-2-1-1.8-4.2-1.7-7.2c0-1.5-1-3-2.6-4.9
				c0.5-0.2,1-0.4,1.6-0.3c1.9,0.1,4.3,1.1,3.7,3.7C142.3,50.6,141.4,54.6,143.2,56.3z"/>
		</g>
		<g>
			<path class="st8" d="M131.8,45.2c0,3.5-0.1,9,2.6,9.4s9.2-4.1,9.2-9.1s-3.9-7.7-7.3-6.8S131.8,43,131.8,45.2z"/>
		</g>
		<g class="st0">
			<path d="M143.6,45.5c0,5-6.5,9.5-9.2,9.1c-0.5-0.1-1-0.4-1.3-0.8c0.6,0.5,1.4,0.6,2.1,0.3c1.7-0.8,4.2-3,4.4-4.9
				c0.2-1.7,0.6-3.4,1.2-5c0,0,0-0.7,0.5-4.3C142.8,41.3,143.7,43.4,143.6,45.5z"/>
		</g>
		<g>
			<path class="st1" d="M133.2,39.7c-1.7,1.7-3.6,2.2,0.1,4c2.7,1.3,4-0.4,6,0.3c1.2,0.4,0.1,3.3,0.4,3.4s1,0.4,1.2-0.2
				c0.7-2.2,2.2-1,2.1,0.2s-1.3,2.6-1,3.7s0.8-1.1,2-3.5s1.3-6.7-2.2-8.9C139.2,37,135.5,37.4,133.2,39.7z"/>
		</g>
		<g class="st6">
			<path d="M141.9,38.9c3.5,2.1,3.4,6.5,2.2,8.9s-1.7,4.6-2,3.5s0.9-2.6,1-3.7s-1.4-2.4-2.1-0.2c-0.2,0.5-0.8,0.2-1.1,0.2
				c0.3-1,0.8-2,1.4-2.9c0.8-1.3,0.8-3.1-0.1-4.3c-1.9-2.8-5.4-1.9-6.7-1.5C136.7,37.3,139.7,37.4,141.9,38.9z"/>
		</g>
		<g>
			<path class="st4" d="M154.9,100.7c0,0.5-1.2,1.6-2.4,2.4s-3,1-3-0.8s3.7-3.8,4.3-3S154.9,99.8,154.9,100.7z"/>
		</g>
		<g class="st3">
			<path d="M154.9,100.7c0,0.5-1.2,1.6-2.4,2.4s-3,1-3-0.8s3.7-3.8,4.3-3S154.9,99.8,154.9,100.7z"/>
		</g>
		<g>
			<path class="st9" d="M142.4,134.5L142.4,134.5L142.4,134.5c0.3,0.1,0.7,0.1,1-0.1l23.6-13.7c0.9-0.6,1.4-1.5,1.5-2.6V101
				c0-0.4-0.1-0.7-0.4-0.9l0,0l0,0c0,0,0,0-0.1,0l-4.9-2.8l0,0c-0.3-0.2-0.8-0.2-1.1,0.1L138.5,111c-0.9,0.6-1.4,1.5-1.5,2.6v17.1
				c-0.1,0.4,0.1,0.8,0.5,1L142.4,134.5z"/>
		</g>
		<g>
			<path class="st9" d="M142,133.6v-17.1c0.1-1.1,0.6-2,1.5-2.6l23.6-13.7c0.3-0.2,0.7-0.2,1-0.1c0,0,0,0,0.1,0l0,0l0,0
				c0.3,0.2,0.4,0.6,0.4,0.9v17.1c-0.1,1.1-0.6,2-1.5,2.6l-23.6,13.7c-0.3,0.2-0.7,0.2-1,0.1l0,0l0,0
				C142.1,134.3,142,133.9,142,133.6z"/>
		</g>
		<g class="st6">
			<path d="M139.8,132.3v-17.1c0.1-1.1,0.6-2,1.5-2.6L164.9,99c0.3-0.2,0.8-0.3,1.1-0.1l0,0l-0.3-0.2l0,0c-0.3-0.2-0.8-0.2-1.1,0.1
				L141,112.4c-0.9,0.6-1.4,1.5-1.5,2.6v17.1c-0.1,0.4,0.1,0.8,0.4,1l0.3,0.1C139.9,133.1,139.7,132.7,139.8,132.3z"/>
		</g>
		<g>
			<path class="st5" d="M148.2,108.2v-2.4c0-0.7,0.4-1.3,1-1.7l6.4-3.7l0,0v2.3l1,0.6l1-0.6v-2.4c0.1-0.5-0.2-1-0.6-1.3l0,0l-1-0.6
				l0,0c-0.5-0.2-1-0.2-1.4,0.1l-6.4,3.7c-1.2,0.8-1.9,2.1-2,3.5v2.4l1,0.6L148.2,108.2z"/>
		</g>
		<g>
			<path d="M149.2,103l6.4-3.7c0.5-0.4,1.3-0.4,1.7,0.1c0.2,0.3,0.3,0.7,0.3,1v2.4l-1,0.6V101c0-0.6-0.4-0.9-1-0.6l0,0l-6.4,3.7
				c-0.6,0.4-1,1-1,1.7v2.4l-1,0.6v-2.3C147.3,105,148.1,103.8,149.2,103z"/>
		</g>
		<g>
			<path class="st5" d="M163.6,100.4V100c0-0.1,0-0.1-0.1-0.2l-1.6-1c-0.2-0.1-0.4-0.1-0.5,0l-0.8,0.4c-0.1,0-0.1,0.1-0.1,0.2v0.4
				l0,0c0,0.1,0,0.1,0.1,0.2l1.6,1c0.2,0.1,0.4,0.1,0.5,0l0.8-0.4C163.6,100.6,163.6,100.5,163.6,100.4L163.6,100.4z"/>
		</g>
		<g>
			<path d="M163.5,100.2l-0.8,0.4c-0.2,0.1-0.4,0.1-0.5,0l-1.6-1c-0.1,0-0.1-0.1-0.1-0.2l0,0v0.4l0,0c0,0.1,0,0.1,0.1,0.2l1.6,1
				c0.2,0.1,0.4,0.1,0.5,0l0.8-0.4c0.1,0,0.1-0.1,0.1-0.2l0,0V100C163.6,100.1,163.6,100.2,163.5,100.2z"/>
		</g>
		<g>
			<path class="st5" d="M145.3,111v-0.4c0-0.1,0-0.1-0.1-0.2l-1.7-1c-0.2-0.1-0.4-0.1-0.5,0l-0.8,0.4c-0.1,0-0.1,0.1-0.1,0.2v0.4
				l0,0c0,0.1,0,0.1,0.1,0.2l1.6,1c0.2,0.1,0.4,0.1,0.5,0l0.8-0.4C145.3,111.1,145.3,111.1,145.3,111L145.3,111z"/>
		</g>
		<g>
			<path d="M145.2,110.8l-0.8,0.4c-0.2,0.1-0.4,0.1-0.5,0l-1.6-1c-0.1,0-0.1-0.1-0.1-0.2l0,0v0.4l0,0c0,0.1,0,0.1,0.1,0.2l1.6,1
				c0.2,0.1,0.4,0.1,0.5,0l0.8-0.4c0.1,0,0.1-0.1,0.1-0.2l0,0v-0.4C145.3,110.7,145.3,110.7,145.2,110.8z"/>
		</g>
		<g>
			<path class="st4" d="M151.4,93.4c-0.1,2.2,0.1,3.2-0.8,4.2s-0.5,0.6-0.9,1.2c-0.4,0.7-0.7,1.4-0.8,2.2c-0.1,0.9-0.7,1.8-0.3,2.1
				s0.7-0.2,0.9-0.4s0.7-1.6,0.8-1.6c0.2,0.3,0.4,0.7,0.5,1.1c0.2,0.5,0.3,1.1,0.3,1.6c0.6-0.1,1.1-0.3,1.5-0.6
				c1.2-0.8,2.4-1.9,2.4-2.4c-0.1-1.4-0.9-3.4-0.7-4.3c0.3-1,0.5-2,0.6-3.1C154.9,92.5,151.4,91.8,151.4,93.4z"/>
		</g>
		<g class="st3">
			<path d="M152.7,92.4L152.7,92.4L152.7,92.4L152.7,92.4c0,0.2,0,0.4,0,0.7c-0.2,2.2-0.1,3.2-0.2,3.5c-0.2,1-1.2,2.3-0.9,3.7
				c0.1,0.4,0.2,1.8,0.4,3.2h0.1c0.2-0.1,0.4-0.2,0.5-0.3c1.2-0.8,2.4-1.9,2.4-2.4c-0.1-1.4-0.9-3.4-0.7-4.3c0.3-1,0.5-2,0.5-3l0,0
				v-0.1C154.9,92.8,153.7,92.4,152.7,92.4z"/>
		</g>
		<g>
			<path class="st5" d="M150,80l0.5,17.3c0.6,1.7,3.6,1.6,4.1,0.2c1-2.9,3.2-15,2-19.6C155,72.3,150.1,75.4,150,80z"/>
		</g>
		<g>
			<path class="st5" d="M149.1,59.4c2.1,1.5,7.7,16.9,7.4,19.6c-0.1,0.9,0.3,7-0.7,7.3c-0.4,0.1-0.9,0.1-1.3,0
				c-2.4-0.8-6.2-10.4-8-14c-1.7-3.5-3.7-9.9,0-12.8C147.2,58.8,148.4,58.8,149.1,59.4z"/>
		</g>
		<g class="st0">
			<path d="M154.2,79.5L154.2,79.5c-0.7-4.4-5.2-17.5-7.1-18.9c-0.3-0.2-0.7-0.5-1.1-0.9c0.1-0.2,0.3-0.3,0.4-0.4
				c0.8-0.7,1.9-0.7,2.7,0c1.9,1.4,6.6,14,7.3,18.5l0,0c1.2,4.6-1,16.8-2,19.6c-0.4,0.8-1.2,1.2-2.1,1.1
				C153.4,94.9,155.3,83.9,154.2,79.5z"/>
		</g>
		<g class="st0">
			<path d="M41.6,150.9c0.1-0.9,0.7-1.7,1.5-2.1L92,120.6c2.3-1.1,5-1.1,7.2,0l105.3,60.8c0.8,0.4,1.4,1.2,1.5,2.1l0,0
				c-0.1,0.9-0.7,1.7-1.5,2.1l-48.9,28.2c-2.3,1.1-5,1.1-7.2,0L43.1,153C42.2,152.6,41.7,151.8,41.6,150.9L41.6,150.9z"/>
		</g>
		<g>
			<polygon class="st9" points="65.9,106.4 65.9,150 25.9,173.1 22.3,171 22.3,127.4 26.6,124.9 30.3,127 30.3,161.4 58,145.5 
				58,106.8 62.3,104.3 			"/>
		</g>
		<g class="st3">
			<polygon points="25.9,173.1 65.9,150 65.9,106.4 61.6,108.9 61.6,147.5 30.3,165.6 30.3,127 25.9,129.5 			"/>
		</g>
		<g class="st10">
			<polygon points="58,106.8 62.3,104.3 65.9,106.4 61.6,108.9 61.6,147.5 58,145.5 			"/>
		</g>
		<g>
			<polygon class="st5" points="56.8,127 83.2,111.8 163.2,158 163.2,170.5 136.9,185.7 56.8,139.5 			"/>
		</g>
		<g>
			<polygon points="56.8,127 83.2,111.8 163.2,158 163.2,170.5 136.9,185.7 56.8,139.5 			"/>
		</g>
		<g>
			<polygon class="st9" points="158.4,159.8 158.4,203.4 118.4,226.5 114.8,224.4 114.8,180.8 119.1,178.3 122.7,180.4 122.7,214.8 
				150.4,198.9 150.4,160.2 154.8,157.7 			"/>
		</g>
		<g class="st3">
			<polygon points="118.4,226.5 158.4,203.4 158.4,159.8 154.1,162.3 154.1,200.9 122.7,219 122.7,180.4 118.4,182.9 			"/>
		</g>
		<g class="st10">
			<polygon points="150.4,160.2 154.8,157.7 158.4,159.8 154.1,162.3 154.1,200.9 150.4,198.9 			"/>
		</g>
		<g>
			<path class="st11" d="M8.1,127.2v-4.1l0,0c0.1-0.9,0.7-1.7,1.5-2.1l48.9-28.2c2.3-1.1,5-1.1,7.2,0L171,153.6
				c0.8,0.4,1.4,1.2,1.5,2.1l0,0v4.2l0,0c-0.1,0.9-0.7,1.7-1.5,2.1l-48.9,28.2c-2.3,1.1-5,1.1-7.2,0L9.6,129.4
				C8.8,129,8.2,128.2,8.1,127.2L8.1,127.2z"/>
		</g>
		<g>
			<path class="st12" d="M9.6,125.2L115,186.1c2.3,1.1,5,1.1,7.2,0l48.9-28.2c0.8-0.4,1.4-1.2,1.5-2.1v4.2c-0.1,0.9-0.7,1.7-1.5,2.1
				l-48.9,28.2c-2.3,1.1-5,1.1-7.2,0L9.6,129.4c-0.9-0.4-1.4-1.2-1.5-2.2l0,0v-4.1l0,0C8.2,124.1,8.8,124.9,9.6,125.2z"/>
		</g>
		<g class="st10">
			<path d="M58.2,139l28.1,16.2c0.3,0.2,0.7,0.2,1.1,0l9-5.2c0.2-0.1,0.3-0.3,0.2-0.4c0-0.1-0.1-0.2-0.2-0.2l-28-16.2
				c-0.3-0.2-0.7-0.2-1.1,0l-9,5.2c-0.2,0.1-0.3,0.2-0.2,0.4C58,138.9,58.1,139,58.2,139L58.2,139z"/>
		</g>
		<g>
			<path class="st13" d="M97.9,153.3v-0.6l0,0c0-0.2-0.1-0.3-0.3-0.4l-32.9-19c-0.4-0.2-0.9-0.2-1.3,0l-10.6,6.1
				c-0.1,0.1-0.2,0.2-0.3,0.4l0,0v0.6l0,0c0,0.2,0.1,0.3,0.3,0.4l32.9,19c0.4,0.2,0.9,0.2,1.3,0l10.6-6.1
				C97.8,153.6,97.9,153.5,97.9,153.3L97.9,153.3L97.9,153.3L97.9,153.3z"/>
		</g>
		<g>
			<path class="st14" d="M97.7,153.1l-10.6,6.1c-0.4,0.2-0.9,0.2-1.3,0l-32.9-19c-0.2-0.1-0.3-0.2-0.3-0.4l0,0v0.6l0,0
				c0,0.2,0.1,0.3,0.3,0.4l32.9,19c0.4,0.2,0.9,0.2,1.3,0l10.6-6.1c0.1-0.1,0.2-0.2,0.3-0.4l0,0l0,0l0,0v-0.6l0,0
				C97.9,152.9,97.8,153,97.7,153.1z"/>
		</g>
		<g>
			<path class="st5" d="M79.5,144.3c0.1,0.1,0,0.3-0.1,0.4l-1.1,0.6c-0.3,0.1-0.6,0.1-0.8,0l-1.1-0.6c-0.2-0.1-0.2-0.2-0.1-0.4
				c0,0.1,0.1,0.1,0.1,0.1l1.1,0.6c0.3,0.1,0.6,0.1,0.8,0l1.1-0.6C79.5,144.4,79.5,144.3,79.5,144.3z M66.7,139.1l1.1,0.6
				c0.3,0.1,0.6,0.1,0.8,0l1.1-0.6c0.2-0.1,0.2-0.2,0.1-0.4l-0.1,0.1l-1.1,0.6c-0.3,0.1-0.6,0.1-0.8,0l-1.1-0.6
				c-0.1,0-0.1-0.1-0.1-0.1C66.4,138.9,66.5,139,66.7,139.1z M70.1,143.9l1.1,0.7c0.3,0.1,0.6,0.1,0.8,0l1.1-0.7
				c0.2-0.1,0.2-0.2,0.1-0.4l-0.1,0.1l-1.1,0.6c-0.3,0.1-0.6,0.1-0.8,0l-1.1-0.6c-0.1,0-0.1-0.1-0.1-0.1
				C69.9,143.6,70,143.8,70.1,143.9z M78.1,146.7c0.2-0.1,0.2-0.2,0.1-0.4c0,0.1-0.1,0.1-0.1,0.1L77,147c-0.3,0.1-0.6,0.1-0.8,0
				l-1.1-0.7c-0.1,0-0.1-0.1-0.1-0.1c-0.1,0.1,0,0.3,0.1,0.4l1.1,0.6c0.3,0.1,0.6,0.1,0.8,0L78.1,146.7z M80.5,148.1
				c0.2-0.1,0.2-0.2,0.1-0.4c0,0.1-0.1,0.1-0.1,0.1l-1.1,0.7c-0.3,0.1-0.6,0.1-0.8,0l-1.1-0.7c-0.1,0-0.1-0.1-0.1-0.1
				c-0.1,0.1,0,0.3,0.1,0.4l1.1,0.6c0.3,0.1,0.6,0.1,0.8,0L80.5,148.1z M81.8,145.8l-1.1,0.7c-0.3,0.1-0.6,0.1-0.8,0l-1.1-0.7
				c-0.1,0-0.1-0.1-0.1-0.1c-0.1,0.1,0,0.3,0.1,0.4l1.1,0.6c0.3,0.1,0.6,0.1,0.8,0l1.1-0.6c0.2-0.1,0.2-0.2,0.1-0.4
				C81.9,145.7,81.9,145.8,81.8,145.8z M84.2,147.2l-1.1,0.7c-0.3,0.1-0.6,0.1-0.8,0l-1.1-0.7c-0.1,0-0.1-0.1-0.1-0.1
				c-0.1,0.1,0,0.3,0.1,0.4l1.1,0.6c0.3,0.1,0.6,0.1,0.8,0l1.1-0.6c0.2-0.1,0.2-0.2,0.1-0.4C84.3,147.1,84.3,147.2,84.2,147.2z
				 M75.7,145.3c0.2-0.1,0.2-0.2,0.1-0.4c0,0.1-0.1,0.1-0.1,0.1l-1.1,0.6c-0.3,0.1-0.6,0.1-0.8,0l-1.1-0.7c-0.1,0-0.1-0.1-0.1-0.1
				c-0.1,0.1,0,0.3,0.1,0.4l1.1,0.6c0.3,0.1,0.6,0.1,0.8,0L75.7,145.3z M67.7,142.5l1.1,0.7c0.3,0.1,0.6,0.1,0.8,0l1.1-0.7
				c0.2-0.1,0.2-0.2,0.1-0.4l-0.1,0.1l-1.1,0.6c-0.3,0.1-0.6,0.1-0.8,0l-1.1-0.6l-0.1-0.1C67.5,142.2,67.6,142.4,67.7,142.5z
				 M86.7,148.5c0,0.1-0.1,0.1-0.1,0.1l-1.1,0.7c-0.3,0.1-0.6,0.1-0.8,0l-1.1-0.7c-0.1,0-0.1-0.1-0.1-0.1c-0.1,0.1,0,0.3,0.1,0.4
				l1.1,0.6c0.3,0.1,0.6,0.1,0.8,0l1.1-0.6C86.8,148.7,86.8,148.6,86.7,148.5L86.7,148.5z M71.2,147.3l1.1,0.6
				c0.3,0.1,0.6,0.1,0.8,0l1.1-0.6c0.2-0.1,0.2-0.2,0.1-0.4l-0.1,0.1l-1.1,0.6c-0.3,0.1-0.6,0.1-0.8,0l-1.1-0.7
				c-0.1,0-0.1-0.1-0.1-0.1C71,147,71,147.2,71.2,147.3z M83,149.1l-0.1,0.1l-1.1,0.7c-0.3,0.1-0.6,0.1-0.8,0l-1.1-0.7
				c-0.1,0-0.1-0.1-0.1-0.1c-0.1,0.1,0,0.3,0.1,0.4l1.1,0.6c0.3,0.1,0.6,0.1,0.8,0l1.1-0.6C83,149.3,83.1,149.2,83,149.1z
				 M68.8,145.9l1.1,0.6c0.3,0.1,0.6,0.1,0.8,0l1.1-0.6c0.2-0.1,0.2-0.2,0.1-0.4l-0.1,0.1l-1.1,0.6c-0.3,0.1-0.6,0.1-0.8,0l-1.1-0.6
				c-0.1,0-0.1-0.1-0.1-0.1C68.6,145.6,68.6,145.8,68.8,145.9z M66.4,144.5l1.1,0.7c0.3,0.1,0.6,0.1,0.8,0l1.1-0.6
				c0.2-0.1,0.2-0.2,0.1-0.4l-0.1,0.1l-1.1,0.6c-0.3,0.1-0.6,0.1-0.8,0l-1.1-0.6l-0.1-0.1C66.2,144.2,66.2,144.4,66.4,144.5z
				 M78.4,151.4l1.1,0.6c0.3,0.1,0.6,0.1,0.8,0l1.1-0.6c0.2-0.1,0.2-0.2,0.1-0.4c0,0.1-0.1,0.1-0.1,0.1l-1.1,0.7
				c-0.3,0.1-0.6,0.1-0.8,0l-1.1-0.7c-0.1,0-0.1-0.1-0.1-0.1C78.2,151.2,78.2,151.3,78.4,151.4L78.4,151.4z M77.3,141.6l-0.1,0.1
				c-0.3,0.1-0.6,0.1-0.8,0l-1.1-0.7c-0.1,0-0.1-0.1-0.1-0.1c-0.1,0.1,0,0.3,0.1,0.4l1.1,0.6c0.3,0.1,0.6,0.1,0.8,0l0.1-0.1
				c0.2-0.1,0.2-0.2,0.1-0.4C77.5,141.5,77.4,141.6,77.3,141.6L77.3,141.6z M79.8,143l-0.2,0.1c-0.3,0.1-0.6,0.1-0.8,0l-1.1-0.6
				c-0.1,0-0.1-0.1-0.1-0.1c-0.1,0.1,0,0.3,0.1,0.4l1.1,0.6c0.3,0.1,0.6,0.1,0.8,0l0.2-0.1c0.2-0.1,0.2-0.2,0.1-0.4L79.8,143z
				 M82.2,144.4l-0.1,0.1c-0.3,0.1-0.6,0.1-0.8,0l-1.1-0.6c-0.1,0-0.1-0.1-0.1-0.1c-0.1,0.1,0,0.3,0.1,0.4l1.1,0.6
				c0.3,0.1,0.6,0.1,0.8,0l0.1-0.1c0.2-0.1,0.2-0.2,0.1-0.4C82.3,144.3,82.2,144.4,82.2,144.4L82.2,144.4z M68,137.1l1.1,0.7
				c0.3,0.1,0.6,0.1,0.8,0l0.1-0.1c0.2-0.1,0.2-0.2,0.1-0.4c0,0.1-0.1,0.1-0.1,0.1l-0.1,0.1c-0.3,0.1-0.6,0.1-0.8,0l-1.1-0.7
				c-0.1,0-0.1-0.1-0.1-0.1C67.8,136.9,67.8,137,68,137.1z M84.6,145.8l-0.1,0.1c-0.3,0.1-0.6,0.1-0.8,0l-1.1-0.6l-0.1-0.1
				c-0.1,0.1,0,0.3,0.1,0.4l1.1,0.7c0.3,0.1,0.6,0.1,0.8,0l0.1-0.1C84.8,146.1,84.8,146,84.6,145.8
				C84.7,145.7,84.6,145.7,84.6,145.8L84.6,145.8z M72.6,138.8l-0.1,0.1c-0.3,0.1-0.6,0.1-0.8,0l-1.1-0.6c-0.1,0-0.1-0.1-0.1-0.1
				c-0.1,0.1,0,0.3,0.1,0.4l1.1,0.6c0.3,0.1,0.6,0.1,0.8,0l0.1-0.1c0.2-0.1,0.2-0.2,0.1-0.4C72.6,138.8,72.6,138.8,72.6,138.8z
				 M75,140.2l-0.2,0.1c-0.3,0.1-0.6,0.1-0.8,0l-1.1-0.6c-0.1,0-0.1-0.1-0.1-0.1c-0.1,0.1,0,0.3,0.1,0.4l1.1,0.6
				c0.3,0.1,0.6,0.1,0.8,0l0.2-0.1c0.2-0.1,0.2-0.2,0.1-0.4C75.1,140.1,75,140.2,75,140.2z M91.8,149.9l-0.1,0.1
				c-0.3,0.1-0.6,0.1-0.8,0l-1.1-0.6c-0.1,0-0.1-0.1-0.1-0.1c-0.1,0.1,0,0.3,0.1,0.4l1.1,0.6c0.3,0.1,0.6,0.1,0.8,0l0.1-0.1
				c0.2-0.1,0.2-0.2,0.1-0.4C91.9,149.9,91.9,149.9,91.8,149.9L91.8,149.9z M69.1,140.5l1.1,0.6c0.3,0.1,0.6,0.1,0.8,0l1.1-0.6
				c0.2-0.1,0.2-0.2,0.1-0.4l-0.1,0.1l-1.1,0.6c-0.3,0.1-0.6,0.1-0.8,0l-1.1-0.6c-0.1,0-0.1-0.1-0.1-0.1
				C68.9,140.2,68.9,140.4,69.1,140.5z M66,143.8l1.1-0.6c0.2-0.1,0.2-0.2,0.1-0.4l-0.1,0.1l-1.1,0.6c-0.3,0.1-0.6,0.1-0.8,0
				l-1.2-0.6c-0.1,0-0.1-0.1-0.1-0.1c-0.1,0.1,0,0.3,0.1,0.4l1.1,0.6C65.4,143.9,65.7,143.9,66,143.8z M74.6,141.6l-1.1,0.6
				c-0.3,0.1-0.6,0.1-0.8,0l-1.1-0.6c-0.1,0-0.1-0.1-0.1-0.1c-0.1,0.1,0,0.3,0.1,0.4l1.1,0.7c0.3,0.1,0.6,0.1,0.8,0l1.1-0.7
				c0.2-0.1,0.2-0.2,0.1-0.4C74.7,141.6,74.7,141.6,74.6,141.6L74.6,141.6z M77,143l-1.1,0.6c-0.3,0.1-0.6,0.1-0.8,0L74,143
				c-0.1,0-0.1-0.1-0.1-0.1c-0.1,0.1,0,0.3,0.1,0.4l1.1,0.6c0.3,0.1,0.6,0.1,0.8,0l1.1-0.7c0.2-0.1,0.2-0.2,0.1-0.4
				C77.1,142.9,77.1,143,77,143z M85.7,153.4l-0.1,0.1l-1.1,0.6c-0.3,0.1-0.6,0.1-0.8,0l-2.8-1.6l-0.1-0.1c-0.1,0.1,0,0.3,0.1,0.4
				l2.8,1.6c0.3,0.1,0.6,0.1,0.8,0l1.1-0.7C85.7,153.7,85.8,153.5,85.7,153.4L85.7,153.4z M89.4,148.5l-0.2,0.1
				c-0.3,0.1-0.6,0.1-0.8,0l-1.1-0.6c-0.1,0-0.1-0.1-0.1-0.1c-0.1,0.1,0,0.3,0.1,0.4l1.1,0.7c0.3,0.1,0.6,0.1,0.8,0l0.2-0.1
				C89.6,148.8,89.6,148.7,89.4,148.5C89.5,148.5,89.4,148.5,89.4,148.5L89.4,148.5z M87,147.2l-0.1,0.1c-0.3,0.1-0.6,0.1-0.8,0
				l-1.1-0.6c-0.1,0-0.1-0.1-0.1-0.1c-0.1,0.1,0,0.3,0.1,0.4l1.1,0.7c0.3,0.1,0.6,0.1,0.8,0l0.1-0.1C87.2,147.5,87.2,147.4,87,147.2
				C87.1,147.1,87.1,147.1,87,147.2z M91.6,151.2l-0.1,0.1l-1.2,0.6c-0.3,0.1-0.6,0.1-0.8,0l-1.1-0.6c-0.1,0-0.1-0.1-0.1-0.1
				c-0.1,0.1,0,0.3,0.1,0.4l1.1,0.7c0.3,0.1,0.6,0.1,0.8,0l1.1-0.6C91.6,151.5,91.6,151.4,91.6,151.2L91.6,151.2z M76.9,151.1
				l-0.1,0.1l-1.1,0.6c-0.3,0.1-0.6,0.1-0.8,0l-1.1-0.6c-0.1,0-0.1-0.1-0.1-0.1c-0.1,0.1,0,0.3,0.1,0.4l1.1,0.7
				c0.3,0.1,0.6,0.1,0.8,0l1.1-0.6C76.9,151.3,76.9,151.2,76.9,151.1L76.9,151.1z M74.5,149.7l-0.1,0.1l-1.1,0.7
				c-0.3,0.1-0.6,0.1-0.8,0l-8.4-4.8c-0.1,0-0.1-0.1-0.1-0.1c-0.1,0.1,0,0.3,0.1,0.4l8.3,4.8c0.3,0.1,0.6,0.1,0.8,0l1.1-0.6
				C74.5,150,74.5,149.8,74.5,149.7L74.5,149.7z M80.9,153.4c0,0.1-0.1,0.1-0.1,0.1l-1.1,0.6c-0.3,0.1-0.6,0.1-0.8,0l-2.8-1.6
				c-0.1,0-0.1-0.1-0.1-0.1c-0.1,0.1,0,0.3,0.1,0.4l2.8,1.6c0.3,0.1,0.6,0.1,0.8,0l1.1-0.6C80.9,153.7,81,153.5,80.9,153.4
				L80.9,153.4z M60,141.4l-0.1,0.1l-1.1,0.6c-0.3,0.1-0.6,0.1-0.8,0l-1.1-0.6c-0.1,0-0.1-0.1-0.1-0.1c-0.1,0.1,0,0.3,0.1,0.4
				l1.1,0.6c0.3,0.1,0.6,0.1,0.8,0l1.1-0.6C60.1,141.6,60.1,141.5,60,141.4z M83.3,154.8c0,0.1-0.1,0.1-0.1,0.1l-1.1,0.7
				c-0.3,0.1-0.6,0.1-0.8,0l-1.1-0.7c-0.1,0-0.1-0.1-0.1-0.1c-0.1,0.1,0,0.3,0.1,0.4l1.1,0.6c0.3,0.1,0.6,0.1,0.8,0l1.1-0.6
				C83.3,155.1,83.4,154.9,83.3,154.8L83.3,154.8z M62.4,142.8l-0.1,0.1l-1.1,0.6c-0.3,0.1-0.6,0.1-0.8,0l-1.1-0.6
				c-0.1,0-0.1-0.1-0.1-0.1c-0.1,0.1,0,0.3,0.1,0.4l1.1,0.7c0.3,0.1,0.6,0.1,0.8,0l1.1-0.7C62.5,143,62.5,142.9,62.4,142.8
				L62.4,142.8z M57.6,140l-0.1,0.1l-1.1,0.6c-0.3,0.1-0.6,0.1-0.8,0l-1.5-0.9c-0.1,0-0.1-0.1-0.1-0.1c-0.1,0.1,0,0.3,0.1,0.4
				l1.5,0.9c0.3,0.1,0.6,0.1,0.8,0l1.1-0.6C57.7,140.2,57.7,140.1,57.6,140z M64.8,144.2l-0.1,0.1l-1.1,0.6c-0.3,0.1-0.6,0.1-0.8,0
				l-1.1-0.6l-0.1-0.1c-0.1,0.1,0,0.3,0.1,0.4l1.1,0.6c0.3,0.1,0.6,0.1,0.8,0l1.1-0.6C64.9,144.4,64.9,144.2,64.8,144.2L64.8,144.2z
				 M95.2,153.6l-1.1,0.6c-0.3,0.1-0.6,0.1-0.8,0l-2.5-1.4c-0.1,0-0.1-0.1-0.1-0.1c-0.1,0.1,0,0.3,0.1,0.4l2.5,1.4
				c0.3,0.1,0.6,0.1,0.8,0l1.1-0.6c0.2-0.1,0.2-0.2,0.1-0.4C95.3,153.5,95.2,153.5,95.2,153.6L95.2,153.6z M92.8,155l-1.1,0.6
				c-0.3,0.1-0.6,0.1-0.8,0l-3.8-2.2l-0.1-0.1c-0.1,0.1,0,0.3,0.1,0.4l3.8,2.2c0.3,0.1,0.6,0.1,0.8,0l1.1-0.7
				c0.2-0.1,0.2-0.2,0.1-0.4C92.9,154.9,92.9,154.9,92.8,155L92.8,155z M85.7,156.2c0,0.1-0.1,0.1-0.1,0.1l-1.1,0.7
				c-0.3,0.1-0.6,0.1-0.8,0l-1.1-0.7c-0.1,0-0.1-0.1-0.1-0.1c-0.1,0.1,0,0.3,0.1,0.4l1.1,0.6c0.3,0.1,0.6,0.1,0.8,0l1.1-0.6
				C85.8,156.4,85.8,156.3,85.7,156.2L85.7,156.2z M96.6,152.7l-0.1,0.1c-0.3,0.1-0.6,0.1-0.8,0l-1.1-0.7c-0.1,0-0.1-0.1-0.1-0.1
				c-0.1,0.1,0,0.3,0.1,0.4l1.1,0.6c0.3,0.1,0.6,0.1,0.8,0l0.1-0.1c0.2-0.1,0.2-0.2,0.1-0.4C96.7,152.7,96.7,152.7,96.6,152.7
				L96.6,152.7z M88,157.7l-1.1,0.6c-0.3,0.1-0.6,0.1-0.8,0l-1.1-0.6c-0.1,0-0.1-0.1-0.1-0.1c-0.1,0.1,0,0.3,0.1,0.4l1.1,0.7
				c0.3,0.1,0.6,0.1,0.8,0L88,158C88.2,157.9,88.2,157.8,88,157.7C88.1,157.7,88,157.7,88,157.7L88,157.7z M90.4,156.4l-1.1,0.7
				c-0.3,0.1-0.6,0.1-0.8,0l-1.1-0.7c-0.1,0-0.1-0.1-0.1-0.1c-0.1,0.1,0,0.3,0.1,0.4l1.1,0.6c0.3,0.1,0.6,0.1,0.8,0l1.1-0.6
				c0.2-0.1,0.2-0.2,0.1-0.4C90.5,156.3,90.4,156.3,90.4,156.4L90.4,156.4z M89.2,149.9c0,0-0.1,0.1-0.2,0.1l-1.1,0.6
				c-0.3,0.1-0.6,0.1-0.8,0L86,150l-0.1-0.1c-0.1,0.1,0,0.3,0.1,0.4l1.1,0.7c0.3,0.1,0.6,0.1,0.8,0l1.1-0.6
				C89.2,150.1,89.2,150,89.2,149.9L89.2,149.9z M61.6,141.8l1.1,0.6c0.3,0.1,0.6,0.1,0.8,0l1.1-0.6c0.2-0.1,0.2-0.2,0.1-0.4
				l-0.1,0.1l-1.1,0.6c-0.3,0.1-0.6,0.1-0.8,0l-1.1-0.6c-0.1,0-0.1-0.1-0.1-0.1C61.4,141.5,61.4,141.6,61.6,141.8L61.6,141.8z
				 M65.3,141.2l1.1,0.6c0.3,0.1,0.6,0.1,0.8,0l1.1-0.6c0.2-0.1,0.2-0.2,0.1-0.4c0,0.1-0.1,0.1-0.1,0.1l-1.1,0.6
				c-0.3,0.1-0.6,0.1-0.8,0l-1.1-0.6c-0.1,0-0.1-0.1-0.1-0.1C65.1,140.9,65.2,141,65.3,141.2L65.3,141.2z M62.9,139.8l1.1,0.6
				c0.3,0.1,0.6,0.1,0.8,0l1.1-0.6c0.2-0.1,0.2-0.2,0.1-0.4c0,0.1-0.1,0.1-0.1,0.1l-1.1,0.6c-0.3,0.1-0.6,0.1-0.8,0l-1.1-0.6
				c-0.1,0-0.1-0.1-0.1-0.1C62.7,139.5,62.8,139.6,62.9,139.8L62.9,139.8z M64.3,137.8l1.1,0.6c0.3,0.1,0.6,0.1,0.8,0l1.1-0.6
				c0.2-0.1,0.2-0.2,0.1-0.4c0,0.1-0.1,0.1-0.1,0.1l-1.1,0.7c-0.3,0.1-0.6,0.1-0.8,0l-1.1-0.7c-0.1,0-0.1-0.1-0.1-0.1
				C64.1,137.5,64.1,137.6,64.3,137.8L64.3,137.8z M85.4,150.5c0,0.1-0.1,0.1-0.1,0.1l-1.1,0.6c-0.3,0.1-0.6,0.1-0.8,0l-1.1-0.6
				c-0.1,0-0.1-0.1-0.1-0.1c-0.1,0.1,0,0.3,0.1,0.4l1.1,0.6c0.3,0.1,0.6,0.1,0.8,0l1.1-0.6C85.4,150.7,85.5,150.6,85.4,150.5
				L85.4,150.5z M75.6,149.4l1.1-0.6c0.2-0.1,0.2-0.2,0.1-0.4c0,0.1-0.1,0.1-0.1,0.1l-1.1,0.6c-0.3,0.1-0.6,0.1-0.8,0l-1.1-0.7
				c-0.1,0-0.1-0.1-0.1-0.1c-0.1,0.1,0,0.3,0.1,0.4l1.1,0.6C75,149.5,75.3,149.5,75.6,149.4L75.6,149.4z M78,150.7l1.1-0.6
				c0.2-0.1,0.2-0.2,0.1-0.4c0,0.1-0.1,0.1-0.1,0.1l-1.1,0.7c-0.3,0.1-0.6,0.1-0.8,0l-1.2-0.7c-0.1,0-0.1-0.1-0.1-0.1
				c-0.1,0.1,0,0.3,0.1,0.4l1.1,0.6C77.4,150.8,77.7,150.8,78,150.7z M56.3,138.7l4,2.3c0.3,0.1,0.6,0.1,0.8,0l1.1-0.6
				c0.2-0.1,0.2-0.2,0.1-0.4c0,0.1-0.1,0.1-0.1,0.1l-1.1,0.7c-0.3,0.1-0.6,0.1-0.8,0l-4-2.3c-0.1,0-0.1-0.1-0.1-0.1
				C56.1,138.4,56.2,138.6,56.3,138.7L56.3,138.7z M61.1,135.9L63,137c0.3,0.1,0.6,0.1,0.8,0l1.1-0.6c0.2-0.1,0.2-0.2,0.1-0.4
				c0,0.1-0.1,0.1-0.1,0.1l-1.1,0.7c-0.3,0.1-0.6,0.1-0.8,0l-1.8-1.1c-0.1,0-0.1-0.1-0.1-0.1C60.9,135.7,61,135.8,61.1,135.9
				L61.1,135.9z M63.5,134.5l3.2,1.9c0.3,0.1,0.6,0.1,0.8,0l0.1-0.1c0.2-0.1,0.2-0.2,0.1-0.4l-0.1,0.1l-0.1,0.1
				c-0.3,0.1-0.6,0.1-0.8,0l-3.2-1.8c-0.1,0-0.1-0.1-0.1-0.1C63.3,134.3,63.4,134.4,63.5,134.5L63.5,134.5z M88.1,154.8
				c0,0.1-0.1,0.1-0.1,0.1l-1.1,0.6c-0.3,0.1-0.6,0.1-0.8,0l-1.1-0.7c-0.1,0-0.1-0.1-0.1-0.1c-0.1,0.1,0,0.3,0.1,0.4l1.1,0.6
				c0.3,0.1,0.6,0.1,0.8,0l1.1-0.6C88.2,155.1,88.2,154.9,88.1,154.8L88.1,154.8z M58.8,137.3l2.9,1.7c0.3,0.1,0.6,0.1,0.8,0
				l1.1-0.6c0.2-0.1,0.2-0.2,0.1-0.4c0,0.1-0.1,0.1-0.1,0.1l-1.1,0.7c-0.3,0.1-0.6,0.1-0.8,0l-2.9-1.7c-0.1,0-0.1-0.1-0.1-0.1
				C58.5,137.1,58.6,137.2,58.8,137.3z M94.3,151.2l-0.1,0.1l-0.2,0.1c-0.3,0.1-0.6,0.1-0.8,0l-1.1-0.7c-0.1,0-0.1-0.1-0.1-0.1
				c-0.1,0.1,0,0.3,0.1,0.4l1.1,0.6c0.3,0.1,0.6,0.1,0.8,0l0.2-0.1C94.4,151.5,94.4,151.3,94.3,151.2L94.3,151.2z M87.8,151.8
				l-0.1,0.1l-1.1,0.6c-0.3,0.1-0.6,0.1-0.8,0l-1.1-0.6c-0.1,0-0.1-0.1-0.1-0.1c-0.1,0.1,0,0.3,0.1,0.4l1.1,0.6
				c0.3,0.1,0.6,0.1,0.8,0l1.1-0.6C87.8,152.1,87.9,152,87.8,151.8L87.8,151.8z"/>
		</g>
		<g>
			<path class="st14" d="M79.5,144.3c0.1,0.1,0,0.3-0.1,0.4l-1.1,0.6c-0.3,0.1-0.6,0.1-0.8,0l-1.1-0.6c-0.2-0.1-0.2-0.2-0.1-0.4
				c0,0.1,0.1,0.1,0.1,0.1l1.1,0.6c0.3,0.1,0.6,0.1,0.8,0l1.1-0.6C79.5,144.4,79.5,144.3,79.5,144.3z M66.7,139.1l1.1,0.6
				c0.3,0.1,0.6,0.1,0.8,0l1.1-0.6c0.2-0.1,0.2-0.2,0.1-0.4l-0.1,0.1l-1.1,0.6c-0.3,0.1-0.6,0.1-0.8,0l-1.1-0.6
				c-0.1,0-0.1-0.1-0.1-0.1C66.4,138.9,66.5,139,66.7,139.1z M70.1,143.9l1.1,0.7c0.3,0.1,0.6,0.1,0.8,0l1.1-0.7
				c0.2-0.1,0.2-0.2,0.1-0.4l-0.1,0.1l-1.1,0.6c-0.3,0.1-0.6,0.1-0.8,0l-1.1-0.6c-0.1,0-0.1-0.1-0.1-0.1
				C69.9,143.6,70,143.8,70.1,143.9z M78.1,146.7c0.2-0.1,0.2-0.2,0.1-0.4c0,0.1-0.1,0.1-0.1,0.1L77,147c-0.3,0.1-0.6,0.1-0.8,0
				l-1.1-0.7c-0.1,0-0.1-0.1-0.1-0.1c-0.1,0.1,0,0.3,0.1,0.4l1.1,0.6c0.3,0.1,0.6,0.1,0.8,0L78.1,146.7z M80.5,148.1
				c0.2-0.1,0.2-0.2,0.1-0.4c0,0.1-0.1,0.1-0.1,0.1l-1.1,0.7c-0.3,0.1-0.6,0.1-0.8,0l-1.1-0.7c-0.1,0-0.1-0.1-0.1-0.1
				c-0.1,0.1,0,0.3,0.1,0.4l1.1,0.6c0.3,0.1,0.6,0.1,0.8,0L80.5,148.1z M81.8,145.8l-1.1,0.7c-0.3,0.1-0.6,0.1-0.8,0l-1.1-0.7
				c-0.1,0-0.1-0.1-0.1-0.1c-0.1,0.1,0,0.3,0.1,0.4l1.1,0.6c0.3,0.1,0.6,0.1,0.8,0l1.1-0.6c0.2-0.1,0.2-0.2,0.1-0.4
				C81.9,145.7,81.9,145.8,81.8,145.8z M84.2,147.2l-1.1,0.7c-0.3,0.1-0.6,0.1-0.8,0l-1.1-0.7c-0.1,0-0.1-0.1-0.1-0.1
				c-0.1,0.1,0,0.3,0.1,0.4l1.1,0.6c0.3,0.1,0.6,0.1,0.8,0l1.1-0.6c0.2-0.1,0.2-0.2,0.1-0.4C84.3,147.1,84.3,147.2,84.2,147.2z
				 M75.7,145.3c0.2-0.1,0.2-0.2,0.1-0.4c0,0.1-0.1,0.1-0.1,0.1l-1.1,0.6c-0.3,0.1-0.6,0.1-0.8,0l-1.1-0.7c-0.1,0-0.1-0.1-0.1-0.1
				c-0.1,0.1,0,0.3,0.1,0.4l1.1,0.6c0.3,0.1,0.6,0.1,0.8,0L75.7,145.3z M67.7,142.5l1.1,0.7c0.3,0.1,0.6,0.1,0.8,0l1.1-0.7
				c0.2-0.1,0.2-0.2,0.1-0.4l-0.1,0.1l-1.1,0.6c-0.3,0.1-0.6,0.1-0.8,0l-1.1-0.6l-0.1-0.1C67.5,142.2,67.6,142.4,67.7,142.5z
				 M86.7,148.5c0,0.1-0.1,0.1-0.1,0.1l-1.1,0.7c-0.3,0.1-0.6,0.1-0.8,0l-1.1-0.7c-0.1,0-0.1-0.1-0.1-0.1c-0.1,0.1,0,0.3,0.1,0.4
				l1.1,0.6c0.3,0.1,0.6,0.1,0.8,0l1.1-0.6C86.8,148.7,86.8,148.6,86.7,148.5L86.7,148.5z M71.2,147.3l1.1,0.6
				c0.3,0.1,0.6,0.1,0.8,0l1.1-0.6c0.2-0.1,0.2-0.2,0.1-0.4l-0.1,0.1l-1.1,0.6c-0.3,0.1-0.6,0.1-0.8,0l-1.1-0.7
				c-0.1,0-0.1-0.1-0.1-0.1C71,147,71,147.2,71.2,147.3z M83,149.1l-0.1,0.1l-1.1,0.7c-0.3,0.1-0.6,0.1-0.8,0l-1.1-0.7
				c-0.1,0-0.1-0.1-0.1-0.1c-0.1,0.1,0,0.3,0.1,0.4l1.1,0.6c0.3,0.1,0.6,0.1,0.8,0l1.1-0.6C83,149.3,83.1,149.2,83,149.1z
				 M68.8,145.9l1.1,0.6c0.3,0.1,0.6,0.1,0.8,0l1.1-0.6c0.2-0.1,0.2-0.2,0.1-0.4l-0.1,0.1l-1.1,0.6c-0.3,0.1-0.6,0.1-0.8,0l-1.1-0.6
				c-0.1,0-0.1-0.1-0.1-0.1C68.6,145.6,68.6,145.8,68.8,145.9z M66.4,144.5l1.1,0.7c0.3,0.1,0.6,0.1,0.8,0l1.1-0.6
				c0.2-0.1,0.2-0.2,0.1-0.4l-0.1,0.1l-1.1,0.6c-0.3,0.1-0.6,0.1-0.8,0l-1.1-0.6l-0.1-0.1C66.2,144.2,66.2,144.4,66.4,144.5z
				 M78.4,151.4l1.1,0.6c0.3,0.1,0.6,0.1,0.8,0l1.1-0.6c0.2-0.1,0.2-0.2,0.1-0.4c0,0.1-0.1,0.1-0.1,0.1l-1.1,0.7
				c-0.3,0.1-0.6,0.1-0.8,0l-1.1-0.7c-0.1,0-0.1-0.1-0.1-0.1C78.2,151.2,78.2,151.3,78.4,151.4L78.4,151.4z M77.3,141.6l-0.1,0.1
				c-0.3,0.1-0.6,0.1-0.8,0l-1.1-0.7c-0.1,0-0.1-0.1-0.1-0.1c-0.1,0.1,0,0.3,0.1,0.4l1.1,0.6c0.3,0.1,0.6,0.1,0.8,0l0.1-0.1
				c0.2-0.1,0.2-0.2,0.1-0.4C77.5,141.5,77.4,141.6,77.3,141.6L77.3,141.6z M79.8,143l-0.2,0.1c-0.3,0.1-0.6,0.1-0.8,0l-1.1-0.6
				c-0.1,0-0.1-0.1-0.1-0.1c-0.1,0.1,0,0.3,0.1,0.4l1.1,0.6c0.3,0.1,0.6,0.1,0.8,0l0.2-0.1c0.2-0.1,0.2-0.2,0.1-0.4L79.8,143z
				 M82.2,144.4l-0.1,0.1c-0.3,0.1-0.6,0.1-0.8,0l-1.1-0.6c-0.1,0-0.1-0.1-0.1-0.1c-0.1,0.1,0,0.3,0.1,0.4l1.1,0.6
				c0.3,0.1,0.6,0.1,0.8,0l0.1-0.1c0.2-0.1,0.2-0.2,0.1-0.4C82.3,144.3,82.2,144.4,82.2,144.4L82.2,144.4z M68,137.1l1.1,0.7
				c0.3,0.1,0.6,0.1,0.8,0l0.1-0.1c0.2-0.1,0.2-0.2,0.1-0.4c0,0.1-0.1,0.1-0.1,0.1l-0.1,0.1c-0.3,0.1-0.6,0.1-0.8,0l-1.1-0.7
				c-0.1,0-0.1-0.1-0.1-0.1C67.8,136.9,67.8,137,68,137.1z M84.6,145.8l-0.1,0.1c-0.3,0.1-0.6,0.1-0.8,0l-1.1-0.6l-0.1-0.1
				c-0.1,0.1,0,0.3,0.1,0.4l1.1,0.7c0.3,0.1,0.6,0.1,0.8,0l0.1-0.1C84.8,146.1,84.8,146,84.6,145.8
				C84.7,145.7,84.6,145.7,84.6,145.8L84.6,145.8z M72.6,138.8l-0.1,0.1c-0.3,0.1-0.6,0.1-0.8,0l-1.1-0.6c-0.1,0-0.1-0.1-0.1-0.1
				c-0.1,0.1,0,0.3,0.1,0.4l1.1,0.6c0.3,0.1,0.6,0.1,0.8,0l0.1-0.1c0.2-0.1,0.2-0.2,0.1-0.4C72.6,138.8,72.6,138.8,72.6,138.8z
				 M75,140.2l-0.2,0.1c-0.3,0.1-0.6,0.1-0.8,0l-1.1-0.6c-0.1,0-0.1-0.1-0.1-0.1c-0.1,0.1,0,0.3,0.1,0.4l1.1,0.6
				c0.3,0.1,0.6,0.1,0.8,0l0.2-0.1c0.2-0.1,0.2-0.2,0.1-0.4C75.1,140.1,75,140.2,75,140.2z M91.8,149.9l-0.1,0.1
				c-0.3,0.1-0.6,0.1-0.8,0l-1.1-0.6c-0.1,0-0.1-0.1-0.1-0.1c-0.1,0.1,0,0.3,0.1,0.4l1.1,0.6c0.3,0.1,0.6,0.1,0.8,0l0.1-0.1
				c0.2-0.1,0.2-0.2,0.1-0.4C91.9,149.9,91.9,149.9,91.8,149.9L91.8,149.9z M69.1,140.5l1.1,0.6c0.3,0.1,0.6,0.1,0.8,0l1.1-0.6
				c0.2-0.1,0.2-0.2,0.1-0.4l-0.1,0.1l-1.1,0.6c-0.3,0.1-0.6,0.1-0.8,0l-1.1-0.6c-0.1,0-0.1-0.1-0.1-0.1
				C68.9,140.2,68.9,140.4,69.1,140.5z M66,143.8l1.1-0.6c0.2-0.1,0.2-0.2,0.1-0.4l-0.1,0.1l-1.1,0.6c-0.3,0.1-0.6,0.1-0.8,0
				l-1.2-0.6c-0.1,0-0.1-0.1-0.1-0.1c-0.1,0.1,0,0.3,0.1,0.4l1.1,0.6C65.4,143.9,65.7,143.9,66,143.8z M74.6,141.6l-1.1,0.6
				c-0.3,0.1-0.6,0.1-0.8,0l-1.1-0.6c-0.1,0-0.1-0.1-0.1-0.1c-0.1,0.1,0,0.3,0.1,0.4l1.1,0.7c0.3,0.1,0.6,0.1,0.8,0l1.1-0.7
				c0.2-0.1,0.2-0.2,0.1-0.4C74.7,141.6,74.7,141.6,74.6,141.6L74.6,141.6z M77,143l-1.1,0.6c-0.3,0.1-0.6,0.1-0.8,0L74,143
				c-0.1,0-0.1-0.1-0.1-0.1c-0.1,0.1,0,0.3,0.1,0.4l1.1,0.6c0.3,0.1,0.6,0.1,0.8,0l1.1-0.7c0.2-0.1,0.2-0.2,0.1-0.4
				C77.1,142.9,77.1,143,77,143z M85.7,153.4l-0.1,0.1l-1.1,0.6c-0.3,0.1-0.6,0.1-0.8,0l-2.8-1.6l-0.1-0.1c-0.1,0.1,0,0.3,0.1,0.4
				l2.8,1.6c0.3,0.1,0.6,0.1,0.8,0l1.1-0.7C85.7,153.7,85.8,153.5,85.7,153.4L85.7,153.4z M89.4,148.5l-0.2,0.1
				c-0.3,0.1-0.6,0.1-0.8,0l-1.1-0.6c-0.1,0-0.1-0.1-0.1-0.1c-0.1,0.1,0,0.3,0.1,0.4l1.1,0.7c0.3,0.1,0.6,0.1,0.8,0l0.2-0.1
				C89.6,148.8,89.6,148.7,89.4,148.5C89.5,148.5,89.4,148.5,89.4,148.5L89.4,148.5z M87,147.2l-0.1,0.1c-0.3,0.1-0.6,0.1-0.8,0
				l-1.1-0.6c-0.1,0-0.1-0.1-0.1-0.1c-0.1,0.1,0,0.3,0.1,0.4l1.1,0.7c0.3,0.1,0.6,0.1,0.8,0l0.1-0.1C87.2,147.5,87.2,147.4,87,147.2
				C87.1,147.1,87.1,147.1,87,147.2z M91.6,151.2l-0.1,0.1l-1.2,0.6c-0.3,0.1-0.6,0.1-0.8,0l-1.1-0.6c-0.1,0-0.1-0.1-0.1-0.1
				c-0.1,0.1,0,0.3,0.1,0.4l1.1,0.7c0.3,0.1,0.6,0.1,0.8,0l1.1-0.6C91.6,151.5,91.6,151.4,91.6,151.2L91.6,151.2z M76.9,151.1
				l-0.1,0.1l-1.1,0.6c-0.3,0.1-0.6,0.1-0.8,0l-1.1-0.6c-0.1,0-0.1-0.1-0.1-0.1c-0.1,0.1,0,0.3,0.1,0.4l1.1,0.7
				c0.3,0.1,0.6,0.1,0.8,0l1.1-0.6C76.9,151.3,76.9,151.2,76.9,151.1L76.9,151.1z M74.5,149.7l-0.1,0.1l-1.1,0.7
				c-0.3,0.1-0.6,0.1-0.8,0l-8.4-4.8c-0.1,0-0.1-0.1-0.1-0.1c-0.1,0.1,0,0.3,0.1,0.4l8.3,4.8c0.3,0.1,0.6,0.1,0.8,0l1.1-0.6
				C74.5,150,74.5,149.8,74.5,149.7L74.5,149.7z M80.9,153.4c0,0.1-0.1,0.1-0.1,0.1l-1.1,0.6c-0.3,0.1-0.6,0.1-0.8,0l-2.8-1.6
				c-0.1,0-0.1-0.1-0.1-0.1c-0.1,0.1,0,0.3,0.1,0.4l2.8,1.6c0.3,0.1,0.6,0.1,0.8,0l1.1-0.6C80.9,153.7,81,153.5,80.9,153.4
				L80.9,153.4z M60,141.4l-0.1,0.1l-1.1,0.6c-0.3,0.1-0.6,0.1-0.8,0l-1.1-0.6c-0.1,0-0.1-0.1-0.1-0.1c-0.1,0.1,0,0.3,0.1,0.4
				l1.1,0.6c0.3,0.1,0.6,0.1,0.8,0l1.1-0.6C60.1,141.6,60.1,141.5,60,141.4z M83.3,154.8c0,0.1-0.1,0.1-0.1,0.1l-1.1,0.7
				c-0.3,0.1-0.6,0.1-0.8,0l-1.1-0.7c-0.1,0-0.1-0.1-0.1-0.1c-0.1,0.1,0,0.3,0.1,0.4l1.1,0.6c0.3,0.1,0.6,0.1,0.8,0l1.1-0.6
				C83.3,155.1,83.4,154.9,83.3,154.8L83.3,154.8z M62.4,142.8l-0.1,0.1l-1.1,0.6c-0.3,0.1-0.6,0.1-0.8,0l-1.1-0.6
				c-0.1,0-0.1-0.1-0.1-0.1c-0.1,0.1,0,0.3,0.1,0.4l1.1,0.7c0.3,0.1,0.6,0.1,0.8,0l1.1-0.7C62.5,143,62.5,142.9,62.4,142.8
				L62.4,142.8z M57.6,140l-0.1,0.1l-1.1,0.6c-0.3,0.1-0.6,0.1-0.8,0l-1.5-0.9c-0.1,0-0.1-0.1-0.1-0.1c-0.1,0.1,0,0.3,0.1,0.4
				l1.5,0.9c0.3,0.1,0.6,0.1,0.8,0l1.1-0.6C57.7,140.2,57.7,140.1,57.6,140z M64.8,144.2l-0.1,0.1l-1.1,0.6c-0.3,0.1-0.6,0.1-0.8,0
				l-1.1-0.6l-0.1-0.1c-0.1,0.1,0,0.3,0.1,0.4l1.1,0.6c0.3,0.1,0.6,0.1,0.8,0l1.1-0.6C64.9,144.4,64.9,144.2,64.8,144.2L64.8,144.2z
				 M95.2,153.6l-1.1,0.6c-0.3,0.1-0.6,0.1-0.8,0l-2.5-1.4c-0.1,0-0.1-0.1-0.1-0.1c-0.1,0.1,0,0.3,0.1,0.4l2.5,1.4
				c0.3,0.1,0.6,0.1,0.8,0l1.1-0.6c0.2-0.1,0.2-0.2,0.1-0.4C95.3,153.5,95.2,153.5,95.2,153.6L95.2,153.6z M92.8,155l-1.1,0.6
				c-0.3,0.1-0.6,0.1-0.8,0l-3.8-2.2l-0.1-0.1c-0.1,0.1,0,0.3,0.1,0.4l3.8,2.2c0.3,0.1,0.6,0.1,0.8,0l1.1-0.7
				c0.2-0.1,0.2-0.2,0.1-0.4C92.9,154.9,92.9,154.9,92.8,155L92.8,155z M85.7,156.2c0,0.1-0.1,0.1-0.1,0.1l-1.1,0.7
				c-0.3,0.1-0.6,0.1-0.8,0l-1.1-0.7c-0.1,0-0.1-0.1-0.1-0.1c-0.1,0.1,0,0.3,0.1,0.4l1.1,0.6c0.3,0.1,0.6,0.1,0.8,0l1.1-0.6
				C85.8,156.4,85.8,156.3,85.7,156.2L85.7,156.2z M96.6,152.7l-0.1,0.1c-0.3,0.1-0.6,0.1-0.8,0l-1.1-0.7c-0.1,0-0.1-0.1-0.1-0.1
				c-0.1,0.1,0,0.3,0.1,0.4l1.1,0.6c0.3,0.1,0.6,0.1,0.8,0l0.1-0.1c0.2-0.1,0.2-0.2,0.1-0.4C96.7,152.7,96.7,152.7,96.6,152.7
				L96.6,152.7z M88,157.7l-1.1,0.6c-0.3,0.1-0.6,0.1-0.8,0l-1.1-0.6c-0.1,0-0.1-0.1-0.1-0.1c-0.1,0.1,0,0.3,0.1,0.4l1.1,0.7
				c0.3,0.1,0.6,0.1,0.8,0L88,158C88.2,157.9,88.2,157.8,88,157.7C88.1,157.7,88,157.7,88,157.7L88,157.7z M90.4,156.4l-1.1,0.7
				c-0.3,0.1-0.6,0.1-0.8,0l-1.1-0.7c-0.1,0-0.1-0.1-0.1-0.1c-0.1,0.1,0,0.3,0.1,0.4l1.1,0.6c0.3,0.1,0.6,0.1,0.8,0l1.1-0.6
				c0.2-0.1,0.2-0.2,0.1-0.4C90.5,156.3,90.4,156.3,90.4,156.4L90.4,156.4z M89.2,149.9c0,0-0.1,0.1-0.2,0.1l-1.1,0.6
				c-0.3,0.1-0.6,0.1-0.8,0L86,150l-0.1-0.1c-0.1,0.1,0,0.3,0.1,0.4l1.1,0.7c0.3,0.1,0.6,0.1,0.8,0l1.1-0.6
				C89.2,150.1,89.2,150,89.2,149.9L89.2,149.9z M61.6,141.8l1.1,0.6c0.3,0.1,0.6,0.1,0.8,0l1.1-0.6c0.2-0.1,0.2-0.2,0.1-0.4
				l-0.1,0.1l-1.1,0.6c-0.3,0.1-0.6,0.1-0.8,0l-1.1-0.6c-0.1,0-0.1-0.1-0.1-0.1C61.4,141.5,61.4,141.6,61.6,141.8L61.6,141.8z
				 M65.3,141.2l1.1,0.6c0.3,0.1,0.6,0.1,0.8,0l1.1-0.6c0.2-0.1,0.2-0.2,0.1-0.4c0,0.1-0.1,0.1-0.1,0.1l-1.1,0.6
				c-0.3,0.1-0.6,0.1-0.8,0l-1.1-0.6c-0.1,0-0.1-0.1-0.1-0.1C65.1,140.9,65.2,141,65.3,141.2L65.3,141.2z M62.9,139.8l1.1,0.6
				c0.3,0.1,0.6,0.1,0.8,0l1.1-0.6c0.2-0.1,0.2-0.2,0.1-0.4c0,0.1-0.1,0.1-0.1,0.1l-1.1,0.6c-0.3,0.1-0.6,0.1-0.8,0l-1.1-0.6
				c-0.1,0-0.1-0.1-0.1-0.1C62.7,139.5,62.8,139.6,62.9,139.8L62.9,139.8z M64.3,137.8l1.1,0.6c0.3,0.1,0.6,0.1,0.8,0l1.1-0.6
				c0.2-0.1,0.2-0.2,0.1-0.4c0,0.1-0.1,0.1-0.1,0.1l-1.1,0.7c-0.3,0.1-0.6,0.1-0.8,0l-1.1-0.7c-0.1,0-0.1-0.1-0.1-0.1
				C64.1,137.5,64.1,137.6,64.3,137.8L64.3,137.8z M85.4,150.5c0,0.1-0.1,0.1-0.1,0.1l-1.1,0.6c-0.3,0.1-0.6,0.1-0.8,0l-1.1-0.6
				c-0.1,0-0.1-0.1-0.1-0.1c-0.1,0.1,0,0.3,0.1,0.4l1.1,0.6c0.3,0.1,0.6,0.1,0.8,0l1.1-0.6C85.4,150.7,85.5,150.6,85.4,150.5
				L85.4,150.5z M75.6,149.4l1.1-0.6c0.2-0.1,0.2-0.2,0.1-0.4c0,0.1-0.1,0.1-0.1,0.1l-1.1,0.6c-0.3,0.1-0.6,0.1-0.8,0l-1.1-0.7
				c-0.1,0-0.1-0.1-0.1-0.1c-0.1,0.1,0,0.3,0.1,0.4l1.1,0.6C75,149.5,75.3,149.5,75.6,149.4L75.6,149.4z M78,150.7l1.1-0.6
				c0.2-0.1,0.2-0.2,0.1-0.4c0,0.1-0.1,0.1-0.1,0.1l-1.1,0.7c-0.3,0.1-0.6,0.1-0.8,0l-1.2-0.7c-0.1,0-0.1-0.1-0.1-0.1
				c-0.1,0.1,0,0.3,0.1,0.4l1.1,0.6C77.4,150.8,77.7,150.8,78,150.7z M56.3,138.7l4,2.3c0.3,0.1,0.6,0.1,0.8,0l1.1-0.6
				c0.2-0.1,0.2-0.2,0.1-0.4c0,0.1-0.1,0.1-0.1,0.1l-1.1,0.7c-0.3,0.1-0.6,0.1-0.8,0l-4-2.3c-0.1,0-0.1-0.1-0.1-0.1
				C56.1,138.4,56.2,138.6,56.3,138.7L56.3,138.7z M61.1,135.9L63,137c0.3,0.1,0.6,0.1,0.8,0l1.1-0.6c0.2-0.1,0.2-0.2,0.1-0.4
				c0,0.1-0.1,0.1-0.1,0.1l-1.1,0.7c-0.3,0.1-0.6,0.1-0.8,0l-1.8-1.1c-0.1,0-0.1-0.1-0.1-0.1C60.9,135.7,61,135.8,61.1,135.9
				L61.1,135.9z M63.5,134.5l3.2,1.9c0.3,0.1,0.6,0.1,0.8,0l0.1-0.1c0.2-0.1,0.2-0.2,0.1-0.4l-0.1,0.1l-0.1,0.1
				c-0.3,0.1-0.6,0.1-0.8,0l-3.2-1.8c-0.1,0-0.1-0.1-0.1-0.1C63.3,134.3,63.4,134.4,63.5,134.5L63.5,134.5z M88.1,154.8
				c0,0.1-0.1,0.1-0.1,0.1l-1.1,0.6c-0.3,0.1-0.6,0.1-0.8,0l-1.1-0.7c-0.1,0-0.1-0.1-0.1-0.1c-0.1,0.1,0,0.3,0.1,0.4l1.1,0.6
				c0.3,0.1,0.6,0.1,0.8,0l1.1-0.6C88.2,155.1,88.2,154.9,88.1,154.8L88.1,154.8z M58.8,137.3l2.9,1.7c0.3,0.1,0.6,0.1,0.8,0
				l1.1-0.6c0.2-0.1,0.2-0.2,0.1-0.4c0,0.1-0.1,0.1-0.1,0.1l-1.1,0.7c-0.3,0.1-0.6,0.1-0.8,0l-2.9-1.7c-0.1,0-0.1-0.1-0.1-0.1
				C58.5,137.1,58.6,137.2,58.8,137.3z M94.3,151.2l-0.1,0.1l-0.2,0.1c-0.3,0.1-0.6,0.1-0.8,0l-1.1-0.7c-0.1,0-0.1-0.1-0.1-0.1
				c-0.1,0.1,0,0.3,0.1,0.4l1.1,0.6c0.3,0.1,0.6,0.1,0.8,0l0.2-0.1C94.4,151.5,94.4,151.3,94.3,151.2L94.3,151.2z M87.8,151.8
				l-0.1,0.1l-1.1,0.6c-0.3,0.1-0.6,0.1-0.8,0l-1.1-0.6c-0.1,0-0.1-0.1-0.1-0.1c-0.1,0.1,0,0.3,0.1,0.4l1.1,0.6
				c0.3,0.1,0.6,0.1,0.8,0l1.1-0.6C87.8,152.1,87.9,152,87.8,151.8L87.8,151.8z"/>
		</g>
		<g>
			<path class="st5" d="M56.3,140.7c-0.3,0.1-0.6,0.1-0.8,0l-1.5-0.9c-0.2-0.1-0.2-0.4,0-0.5l1.1-0.7c0.3-0.1,0.6-0.1,0.8,0l1.6,0.9
				c0.2,0.1,0.2,0.4,0,0.5L56.3,140.7z M62.3,140.1c0.2-0.1,0.2-0.4,0-0.5l-4-2.3c-0.3-0.1-0.6-0.1-0.8,0l-1.1,0.6
				c-0.2,0.1-0.2,0.4,0,0.5l4,2.3c0.3,0.1,0.6,0.1,0.8,0L62.3,140.1z M59.9,141.5c0.2-0.1,0.2-0.4,0-0.5l-1.1-0.6
				c-0.3-0.1-0.6-0.1-0.8,0l-1.1,0.6c-0.2,0.1-0.2,0.4,0,0.5l1.1,0.6c0.3,0.1,0.6,0.1,0.8,0L59.9,141.5z M62.3,142.9
				c0.2-0.1,0.2-0.4,0-0.5l-1.1-0.6c-0.3-0.1-0.6-0.1-0.8,0l-1.1,0.6c-0.2,0.1-0.2,0.4,0,0.5l1.1,0.6c0.3,0.1,0.6,0.1,0.8,0
				L62.3,142.9z M64.7,144.2c0.2-0.1,0.2-0.4,0-0.5l-1.1-0.6c-0.3-0.1-0.6-0.1-0.8,0l-1.1,0.7c-0.2,0.1-0.2,0.4,0,0.5l1.1,0.6
				c0.3,0.1,0.6,0.1,0.8,0L64.7,144.2z M80.8,153.5c0.2-0.1,0.2-0.4,0-0.5l-2.8-1.6c-0.3-0.1-0.6-0.1-0.8,0l-1.1,0.7
				c-0.2,0.1-0.2,0.4,0,0.5l2.8,1.6c0.3,0.1,0.6,0.1,0.8,0L80.8,153.5z M85.6,153.5c0.2-0.1,0.2-0.4,0-0.5l-2.8-1.6
				c-0.3-0.1-0.6-0.1-0.8,0l-1.1,0.6c-0.2,0.1-0.2,0.4,0,0.5l2.8,1.6c0.3,0.1,0.6,0.1,0.8,0L85.6,153.5z M76.7,151.2
				c0.2-0.1,0.2-0.4,0-0.5l-1.1-0.6c-0.3-0.1-0.6-0.1-0.8,0l-1.1,0.6c-0.1,0-0.2,0.2-0.2,0.3s0.1,0.1,0.2,0.2l1.1,0.6
				c0.3,0.1,0.6,0.1,0.8,0L76.7,151.2z M74.3,149.8c0.2-0.1,0.2-0.4,0-0.5l-8.3-4.8c-0.3-0.1-0.6-0.1-0.8,0l-1.1,0.6
				c-0.1,0.1-0.2,0.2-0.1,0.4c0,0.1,0.1,0.1,0.1,0.1l8.3,4.8c0.3,0.1,0.6,0.1,0.8,0L74.3,149.8z M67.7,136.1c0.2-0.1,0.2-0.4,0-0.5
				l-3.2-1.8c-0.3-0.1-0.6-0.1-0.8,0l-0.1,0.1c-0.2,0.1-0.2,0.4,0,0.5l3.2,1.8c0.3,0.1,0.6,0.1,0.8,0L67.7,136.1z M70.1,137.4
				c0.2-0.1,0.2-0.4,0-0.5l-1.1-0.6c-0.3-0.1-0.6-0.1-0.8,0l-0.1,0.1c-0.2,0.1-0.2,0.4,0,0.5l1.1,0.6c0.3,0.1,0.6,0.1,0.8,0
				L70.1,137.4z M72.6,138.8c0.2-0.1,0.2-0.4,0-0.5l-1.1-0.6c-0.3-0.1-0.6-0.1-0.8,0l-0.1,0.1c-0.2,0.1-0.2,0.4,0,0.5l1.1,0.6
				c0.3,0.1,0.6,0.1,0.8,0L72.6,138.8z M75,140.2c0.2-0.1,0.2-0.4,0-0.5l-1.1-0.7c-0.3-0.1-0.6-0.1-0.8,0l-0.1,0.1
				c-0.1,0.1-0.2,0.2-0.1,0.4c0,0.1,0.1,0.1,0.1,0.1l1.1,0.6C74.4,140.3,74.7,140.3,75,140.2L75,140.2z M77.4,141.6
				c0.2-0.1,0.2-0.4,0-0.5l-1.1-0.7c-0.3-0.1-0.6-0.1-0.8,0l-0.1,0.1c-0.2,0.1-0.2,0.4,0,0.5l1.1,0.7c0.3,0.1,0.6,0.1,0.8,0
				L77.4,141.6z M79.8,143c0.2-0.1,0.2-0.4,0-0.5l-1.1-0.6c-0.3-0.1-0.6-0.1-0.8,0l-0.1,0.1c-0.2,0.1-0.2,0.4,0,0.5l1.1,0.6
				c0.3,0.1,0.6,0.1,0.8,0L79.8,143z M82.2,144.4c0.2-0.1,0.2-0.4,0-0.5l-1.2-0.7c-0.3-0.1-0.6-0.1-0.8,0l-0.1,0.1
				c-0.2,0.1-0.2,0.4,0,0.5l1.1,0.6c0.3,0.1,0.6,0.1,0.8,0L82.2,144.4z M84.6,145.8c0.2-0.1,0.2-0.4,0-0.5l-1.1-0.6
				c-0.3-0.1-0.6-0.1-0.8,0l-0.1,0.1c-0.1,0-0.2,0.2-0.2,0.3s0.1,0.1,0.2,0.2l1.1,0.6c0.3,0.1,0.6,0.1,0.8,0L84.6,145.8z M87,147.2
				c0.2-0.1,0.2-0.4,0-0.5l-1.2-0.7c-0.3-0.1-0.6-0.1-0.8,0l-0.1,0.1c-0.2,0.1-0.2,0.4,0,0.5l1.1,0.6c0.3,0.1,0.6,0.1,0.8,0
				L87,147.2z M89.4,148.6c0.2-0.1,0.2-0.4,0-0.5l-1.1-0.6c-0.3-0.1-0.6-0.1-0.8,0l-0.2,0.1c-0.2,0.1-0.2,0.4,0,0.5l1.1,0.6
				c0.3,0.1,0.6,0.1,0.8,0L89.4,148.6z M91.8,149.9c0.2-0.1,0.2-0.4,0-0.5l-1.1-0.7c-0.3-0.1-0.6-0.1-0.8,0l-0.1,0.1
				c-0.2,0.1-0.2,0.4,0,0.5l1.1,0.6C91.2,150,91.5,150,91.8,149.9L91.8,149.9z M94.2,151.3c0.2-0.1,0.2-0.4,0-0.5l-1.1-0.7
				c-0.3-0.1-0.6-0.1-0.8,0l-0.2,0.1c-0.2,0.1-0.2,0.4,0,0.5l1.1,0.7c0.3,0.1,0.6,0.1,0.8,0L94.2,151.3z M96.6,152.7
				c0.2-0.1,0.2-0.4,0-0.5l-1.1-0.7c-0.3-0.1-0.6-0.1-0.8,0l-0.1,0.1c-0.2,0.1-0.2,0.4,0,0.5l1.1,0.7c0.3,0.1,0.6,0.1,0.8,0
				L96.6,152.7z M64.7,141.5c0.2-0.1,0.2-0.4,0-0.5l-1.1-0.6c-0.3-0.1-0.6-0.1-0.8,0l-1.1,0.6c-0.2,0.1-0.2,0.4,0,0.5l1.1,0.6
				c0.3,0.1,0.6,0.1,0.8,0L64.7,141.5z M67.1,142.9c0.2-0.1,0.2-0.4,0-0.5l-1.1-0.6c-0.3-0.1-0.6-0.1-0.8,0l-1.1,0.6
				c-0.1,0-0.2,0.2-0.2,0.3s0.1,0.1,0.2,0.2l1.1,0.6c0.3,0.1,0.6,0.1,0.8,0L67.1,142.9z M69.5,144.2c0.2-0.1,0.2-0.4,0-0.5l-1.1-0.6
				c-0.3-0.1-0.6-0.1-0.8,0l-1.1,0.6c-0.2,0.1-0.2,0.4,0,0.5l1.1,0.6c0.3,0.1,0.6,0.1,0.8,0L69.5,144.2z M71.9,145.6
				c0.2-0.1,0.2-0.4,0-0.5l-1.1-0.6c-0.3-0.1-0.6-0.1-0.8,0l-1.1,0.6c-0.2,0.1-0.2,0.4,0,0.5l1.1,0.6c0.3,0.1,0.6,0.1,0.8,0
				L71.9,145.6z M74.3,147c0.2-0.1,0.2-0.4,0-0.5l-1.1-0.7c-0.3-0.1-0.6-0.1-0.8,0l-1.1,0.6c-0.1,0.1-0.2,0.2-0.1,0.4
				c0,0.1,0.1,0.1,0.1,0.1l1.1,0.6c0.3,0.1,0.6,0.1,0.8,0L74.3,147z M76.7,148.4c0.1-0.1,0.2-0.2,0.1-0.4c0-0.1-0.1-0.1-0.1-0.1
				l-1.1-0.6c-0.3-0.1-0.6-0.1-0.8,0l-1.1,0.6c-0.2,0.1-0.2,0.4,0,0.5l1.1,0.7c0.3,0.1,0.6,0.1,0.8,0L76.7,148.4z M79.1,149.8
				c0.2-0.1,0.2-0.4,0-0.5l-1.1-0.7c-0.3-0.1-0.6-0.1-0.8,0l-1.1,0.6c-0.2,0.1-0.2,0.4,0,0.5l1.1,0.7c0.3,0.1,0.6,0.1,0.8,0
				L79.1,149.8z M81.5,151.2c0.2-0.1,0.2-0.4,0-0.5l-1.1-0.6c-0.3-0.1-0.6-0.1-0.8,0l-1.1,0.6c-0.2,0.1-0.2,0.4,0,0.5l1.1,0.7
				c0.3,0.1,0.6,0.1,0.8,0L81.5,151.2z M70.9,142.2c0.2-0.1,0.2-0.4,0-0.5l-1.1-0.6c-0.3-0.1-0.6-0.1-0.8,0l-1.1,0.6
				c-0.2,0.1-0.2,0.4,0,0.5l1.1,0.6c0.3,0.1,0.6,0.1,0.8,0L70.9,142.2z M73.3,143.6c0.2-0.1,0.2-0.4,0-0.5l-1.1-0.7
				c-0.3-0.1-0.6-0.1-0.8,0l-1.1,0.7c-0.2,0.1-0.2,0.4,0,0.5l1.1,0.6c0.3,0.1,0.6,0.1,0.8,0L73.3,143.6z M75.7,145
				c0.2-0.1,0.2-0.4,0-0.5l-1.1-0.7c-0.3-0.1-0.6-0.1-0.8,0l-1.1,0.7c-0.2,0.1-0.2,0.4,0,0.5l1.1,0.6c0.3,0.1,0.6,0.1,0.8,0
				L75.7,145z M78.1,146.4c0.2-0.1,0.2-0.4,0-0.5l-1.1-0.7c-0.3-0.1-0.6-0.1-0.8,0l-1.1,0.6c-0.2,0.1-0.2,0.4,0,0.5l1.1,0.7
				c0.3,0.1,0.6,0.1,0.8,0L78.1,146.4z M80.5,147.8c0.2-0.1,0.2-0.4,0-0.5l-1.1-0.6c-0.3-0.1-0.6-0.1-0.8,0l-1.1,0.6
				c-0.2,0.1-0.2,0.4,0,0.5l1.1,0.7c0.3,0.1,0.6,0.1,0.8,0L80.5,147.8z M82.9,149.2c0.2-0.1,0.2-0.4,0-0.5l-1.1-0.6
				c-0.3-0.1-0.6-0.1-0.8,0l-1.1,0.6c-0.2,0.1-0.2,0.4,0,0.5l1.1,0.7c0.3,0.1,0.6,0.1,0.8,0L82.9,149.2z M85.3,150.6
				c0.2-0.1,0.2-0.4,0-0.5l-1.1-0.6c-0.3-0.1-0.6-0.1-0.8,0l-1.1,0.6c-0.2,0.1-0.2,0.4,0,0.5l1.1,0.6c0.3,0.1,0.6,0.1,0.8,0
				L85.3,150.6z M87.7,151.9c0.2-0.1,0.2-0.4,0-0.5l-1.1-0.6c-0.3-0.1-0.6-0.1-0.8,0l-1.1,0.6c-0.2,0.1-0.2,0.4,0,0.5l1.1,0.6
				c0.3,0.1,0.6,0.1,0.8,0L87.7,151.9z M92.8,154.9c0.2-0.1,0.2-0.4,0-0.5l-3.8-2.2c-0.3-0.1-0.6-0.1-0.8,0l-1.1,0.6
				c-0.2,0.1-0.2,0.4,0,0.5l3.8,2.2c0.3,0.1,0.6,0.1,0.8,0L92.8,154.9z M90.4,156.3c0.2-0.1,0.2-0.4,0-0.5l-1.1-0.7
				c-0.3-0.1-0.6-0.1-0.8,0l-1.1,0.6c-0.2,0.1-0.2,0.4,0,0.5l1.1,0.7c0.3,0.1,0.6,0.1,0.8,0L90.4,156.3z M88,157.7
				c0.2-0.1,0.2-0.4,0-0.5l-1.1-0.6c-0.3-0.1-0.6-0.1-0.8,0l-1.1,0.6c-0.2,0.1-0.2,0.4,0,0.5l1.1,0.6c0.3,0.1,0.6,0.1,0.8,0
				L88,157.7z M85.6,156.3c0.2-0.1,0.2-0.4,0-0.5l-1.1-0.6c-0.3-0.1-0.6-0.1-0.8,0l-1.1,0.6c-0.2,0.1-0.2,0.4,0,0.5l1.1,0.7
				c0.3,0.1,0.6,0.1,0.8,0L85.6,156.3z M88,154.9c0.2-0.1,0.2-0.4,0-0.5l-1.1-0.7c-0.3-0.1-0.6-0.1-0.8,0l-1.1,0.7
				c-0.2,0.1-0.2,0.4,0,0.5l1.1,0.7c0.3,0.1,0.6,0.1,0.8,0L88,154.9z M83.2,154.9c0.2-0.1,0.2-0.4,0-0.5l-1.2-0.7
				c-0.3-0.1-0.6-0.1-0.8,0l-1.1,0.6c-0.2,0.1-0.2,0.4,0,0.5l1.1,0.7c0.3,0.1,0.6,0.1,0.8,0L83.2,154.9z M63.6,138.1
				c0.2-0.1,0.2-0.4,0-0.5l-2.9-1.7c-0.3-0.1-0.6-0.1-0.8,0l-1.1,0.6c-0.2,0.1-0.2,0.4,0,0.5l2.9,1.7c0.3,0.1,0.6,0.1,0.8,0
				L63.6,138.1z M66,139.5c0.2-0.1,0.2-0.4,0-0.5l-1.1-0.6c-0.3-0.1-0.6-0.1-0.8,0L63,139c-0.2,0.1-0.2,0.4,0,0.5l1.1,0.6
				c0.3,0.1,0.6,0.1,0.8,0L66,139.5z M68.4,140.9c0.2-0.1,0.2-0.4,0-0.5l-1.1-0.6c-0.3-0.1-0.6-0.1-0.8,0l-1.1,0.6
				c-0.2,0.1-0.2,0.4,0,0.5l1.1,0.6c0.3,0.1,0.6,0.1,0.8,0L68.4,140.9z M77,143c0.2-0.1,0.2-0.4,0-0.5l-1.1-0.7
				c-0.3-0.1-0.6-0.1-0.8,0l-1.1,0.7c-0.2,0.1-0.2,0.4,0,0.5l1.1,0.6c0.3,0.1,0.6,0.1,0.8,0L77,143z M79.4,144.4
				c0.2-0.1,0.2-0.4,0-0.5l-1.1-0.7c-0.3-0.1-0.6-0.1-0.8,0l-1.1,0.7c-0.2,0.1-0.2,0.4,0,0.5l1.1,0.6c0.3,0.1,0.6,0.1,0.8,0
				L79.4,144.4z M81.8,145.8c0.2-0.1,0.2-0.4,0-0.5l-1.1-0.6c-0.3-0.1-0.6-0.1-0.8,0l-1.1,0.6c-0.2,0.1-0.2,0.4,0,0.5l1.1,0.7
				c0.3,0.1,0.6,0.1,0.8,0L81.8,145.8z M84.2,147.2c0.2-0.1,0.2-0.4,0-0.5l-1.1-0.6c-0.3-0.1-0.6-0.1-0.8,0l-1.1,0.6
				c-0.2,0.1-0.2,0.4,0,0.5l1.1,0.7c0.3,0.1,0.6,0.1,0.8,0L84.2,147.2z M86.6,148.6c0.2-0.1,0.2-0.4,0-0.5l-1.1-0.6
				c-0.3-0.1-0.6-0.1-0.8,0l-1.1,0.6c-0.2,0.1-0.2,0.4,0,0.5l1.1,0.7c0.3,0.1,0.6,0.1,0.8,0L86.6,148.6z M89,150
				c0.2-0.1,0.2-0.4,0-0.5l-1.1-0.6c-0.3-0.1-0.6-0.1-0.8,0l-1.1,0.6c-0.1,0-0.2,0.2-0.2,0.3s0.1,0.1,0.2,0.2l1.1,0.6
				c0.3,0.1,0.6,0.1,0.8,0L89,150z M91.4,151.4c0.2-0.1,0.2-0.4,0-0.5l-1.1-0.6c-0.3-0.1-0.6-0.1-0.8,0l-1.1,0.6
				c-0.2,0.1-0.2,0.4,0,0.5l1.1,0.6c0.3,0.1,0.6,0.1,0.8,0L91.4,151.4z M95.2,153.6c0.2-0.1,0.2-0.4,0-0.5l-2.5-1.4
				c-0.3-0.1-0.6-0.1-0.8,0l-1.1,0.6c-0.2,0.1-0.2,0.4,0,0.5l2.5,1.4c0.3,0.1,0.6,0.1,0.8,0L95.2,153.6z M72.2,140.3
				c0.1,0,0.2-0.2,0.2-0.3s-0.1-0.1-0.2-0.2l-1.1-0.6c-0.3-0.1-0.6-0.1-0.8,0l-1.1,0.6c-0.2,0.1-0.2,0.4,0,0.5l1.1,0.6
				c0.3,0.1,0.6,0.1,0.8,0L72.2,140.3z M74.6,141.7c0.2-0.1,0.2-0.4,0-0.5l-1.1-0.6c-0.3-0.1-0.6-0.1-0.8,0l-1.1,0.6
				c-0.2,0.1-0.2,0.4,0,0.5l1.1,0.6c0.3,0.1,0.6,0.1,0.8,0L74.6,141.7z M65,136.1c0.2-0.1,0.2-0.4,0-0.5l-1.8-1.1
				c-0.3-0.1-0.6-0.1-0.8,0l-1.1,0.6c-0.2,0.1-0.2,0.4,0,0.5l1.8,1.1c0.3,0.1,0.6,0.1,0.8,0L65,136.1z M67.4,137.5
				c0.2-0.1,0.2-0.4,0-0.5l-1.1-0.6c-0.3-0.1-0.6-0.1-0.8,0l-1.1,0.6c-0.2,0.1-0.2,0.4,0,0.5l1.1,0.7c0.3,0.1,0.6,0.1,0.8,0
				L67.4,137.5z M69.8,138.9c0.2-0.1,0.2-0.4,0-0.5l-1.1-0.6c-0.3-0.1-0.6-0.1-0.8,0l-1.1,0.6c-0.1,0-0.2,0.2-0.2,0.3
				s0.1,0.1,0.2,0.2l1.1,0.6c0.3,0.1,0.6,0.1,0.8,0L69.8,138.9z"/>
		</g>
		<g>
			<path class="st15" d="M56.3,140.7c-0.3,0.1-0.6,0.1-0.8,0l-1.5-0.9c-0.2-0.1-0.2-0.4,0-0.5l1.1-0.7c0.3-0.1,0.6-0.1,0.8,0
				l1.6,0.9c0.2,0.1,0.2,0.4,0,0.5L56.3,140.7z M62.3,140.1c0.2-0.1,0.2-0.4,0-0.5l-4-2.3c-0.3-0.1-0.6-0.1-0.8,0l-1.1,0.6
				c-0.2,0.1-0.2,0.4,0,0.5l4,2.3c0.3,0.1,0.6,0.1,0.8,0L62.3,140.1z M59.9,141.5c0.2-0.1,0.2-0.4,0-0.5l-1.1-0.6
				c-0.3-0.1-0.6-0.1-0.8,0l-1.1,0.6c-0.2,0.1-0.2,0.4,0,0.5l1.1,0.6c0.3,0.1,0.6,0.1,0.8,0L59.9,141.5z M62.3,142.9
				c0.2-0.1,0.2-0.4,0-0.5l-1.1-0.6c-0.3-0.1-0.6-0.1-0.8,0l-1.1,0.6c-0.2,0.1-0.2,0.4,0,0.5l1.1,0.6c0.3,0.1,0.6,0.1,0.8,0
				L62.3,142.9z M64.7,144.2c0.2-0.1,0.2-0.4,0-0.5l-1.1-0.6c-0.3-0.1-0.6-0.1-0.8,0l-1.1,0.7c-0.2,0.1-0.2,0.4,0,0.5l1.1,0.6
				c0.3,0.1,0.6,0.1,0.8,0L64.7,144.2z M80.8,153.5c0.2-0.1,0.2-0.4,0-0.5l-2.8-1.6c-0.3-0.1-0.6-0.1-0.8,0l-1.1,0.7
				c-0.2,0.1-0.2,0.4,0,0.5l2.8,1.6c0.3,0.1,0.6,0.1,0.8,0L80.8,153.5z M85.6,153.5c0.2-0.1,0.2-0.4,0-0.5l-2.8-1.6
				c-0.3-0.1-0.6-0.1-0.8,0l-1.1,0.6c-0.2,0.1-0.2,0.4,0,0.5l2.8,1.6c0.3,0.1,0.6,0.1,0.8,0L85.6,153.5z M76.7,151.2
				c0.2-0.1,0.2-0.4,0-0.5l-1.1-0.6c-0.3-0.1-0.6-0.1-0.8,0l-1.1,0.6c-0.1,0-0.2,0.2-0.2,0.3s0.1,0.1,0.2,0.2l1.1,0.6
				c0.3,0.1,0.6,0.1,0.8,0L76.7,151.2z M74.3,149.8c0.2-0.1,0.2-0.4,0-0.5l-8.3-4.8c-0.3-0.1-0.6-0.1-0.8,0l-1.1,0.6
				c-0.1,0.1-0.2,0.2-0.1,0.4c0,0.1,0.1,0.1,0.1,0.1l8.3,4.8c0.3,0.1,0.6,0.1,0.8,0L74.3,149.8z M67.7,136.1c0.2-0.1,0.2-0.4,0-0.5
				l-3.2-1.8c-0.3-0.1-0.6-0.1-0.8,0l-0.1,0.1c-0.2,0.1-0.2,0.4,0,0.5l3.2,1.8c0.3,0.1,0.6,0.1,0.8,0L67.7,136.1z M70.1,137.4
				c0.2-0.1,0.2-0.4,0-0.5l-1.1-0.6c-0.3-0.1-0.6-0.1-0.8,0l-0.1,0.1c-0.2,0.1-0.2,0.4,0,0.5l1.1,0.6c0.3,0.1,0.6,0.1,0.8,0
				L70.1,137.4z M72.6,138.8c0.2-0.1,0.2-0.4,0-0.5l-1.1-0.6c-0.3-0.1-0.6-0.1-0.8,0l-0.1,0.1c-0.2,0.1-0.2,0.4,0,0.5l1.1,0.6
				c0.3,0.1,0.6,0.1,0.8,0L72.6,138.8z M75,140.2c0.2-0.1,0.2-0.4,0-0.5l-1.1-0.7c-0.3-0.1-0.6-0.1-0.8,0l-0.1,0.1
				c-0.1,0.1-0.2,0.2-0.1,0.4c0,0.1,0.1,0.1,0.1,0.1l1.1,0.6C74.4,140.3,74.7,140.3,75,140.2L75,140.2z M77.4,141.6
				c0.2-0.1,0.2-0.4,0-0.5l-1.1-0.7c-0.3-0.1-0.6-0.1-0.8,0l-0.1,0.1c-0.2,0.1-0.2,0.4,0,0.5l1.1,0.7c0.3,0.1,0.6,0.1,0.8,0
				L77.4,141.6z M79.8,143c0.2-0.1,0.2-0.4,0-0.5l-1.1-0.6c-0.3-0.1-0.6-0.1-0.8,0l-0.1,0.1c-0.2,0.1-0.2,0.4,0,0.5l1.1,0.6
				c0.3,0.1,0.6,0.1,0.8,0L79.8,143z M82.2,144.4c0.2-0.1,0.2-0.4,0-0.5l-1.2-0.7c-0.3-0.1-0.6-0.1-0.8,0l-0.1,0.1
				c-0.2,0.1-0.2,0.4,0,0.5l1.1,0.6c0.3,0.1,0.6,0.1,0.8,0L82.2,144.4z M84.6,145.8c0.2-0.1,0.2-0.4,0-0.5l-1.1-0.6
				c-0.3-0.1-0.6-0.1-0.8,0l-0.1,0.1c-0.1,0-0.2,0.2-0.2,0.3s0.1,0.1,0.2,0.2l1.1,0.6c0.3,0.1,0.6,0.1,0.8,0L84.6,145.8z M87,147.2
				c0.2-0.1,0.2-0.4,0-0.5l-1.2-0.7c-0.3-0.1-0.6-0.1-0.8,0l-0.1,0.1c-0.2,0.1-0.2,0.4,0,0.5l1.1,0.6c0.3,0.1,0.6,0.1,0.8,0
				L87,147.2z M89.4,148.6c0.2-0.1,0.2-0.4,0-0.5l-1.1-0.6c-0.3-0.1-0.6-0.1-0.8,0l-0.2,0.1c-0.2,0.1-0.2,0.4,0,0.5l1.1,0.6
				c0.3,0.1,0.6,0.1,0.8,0L89.4,148.6z M91.8,149.9c0.2-0.1,0.2-0.4,0-0.5l-1.1-0.7c-0.3-0.1-0.6-0.1-0.8,0l-0.1,0.1
				c-0.2,0.1-0.2,0.4,0,0.5l1.1,0.6C91.2,150,91.5,150,91.8,149.9L91.8,149.9z M94.2,151.3c0.2-0.1,0.2-0.4,0-0.5l-1.1-0.7
				c-0.3-0.1-0.6-0.1-0.8,0l-0.2,0.1c-0.2,0.1-0.2,0.4,0,0.5l1.1,0.7c0.3,0.1,0.6,0.1,0.8,0L94.2,151.3z M96.6,152.7
				c0.2-0.1,0.2-0.4,0-0.5l-1.1-0.7c-0.3-0.1-0.6-0.1-0.8,0l-0.1,0.1c-0.2,0.1-0.2,0.4,0,0.5l1.1,0.7c0.3,0.1,0.6,0.1,0.8,0
				L96.6,152.7z M64.7,141.5c0.2-0.1,0.2-0.4,0-0.5l-1.1-0.6c-0.3-0.1-0.6-0.1-0.8,0l-1.1,0.6c-0.2,0.1-0.2,0.4,0,0.5l1.1,0.6
				c0.3,0.1,0.6,0.1,0.8,0L64.7,141.5z M67.1,142.9c0.2-0.1,0.2-0.4,0-0.5l-1.1-0.6c-0.3-0.1-0.6-0.1-0.8,0l-1.1,0.6
				c-0.1,0-0.2,0.2-0.2,0.3s0.1,0.1,0.2,0.2l1.1,0.6c0.3,0.1,0.6,0.1,0.8,0L67.1,142.9z M69.5,144.2c0.2-0.1,0.2-0.4,0-0.5l-1.1-0.6
				c-0.3-0.1-0.6-0.1-0.8,0l-1.1,0.6c-0.2,0.1-0.2,0.4,0,0.5l1.1,0.6c0.3,0.1,0.6,0.1,0.8,0L69.5,144.2z M71.9,145.6
				c0.2-0.1,0.2-0.4,0-0.5l-1.1-0.6c-0.3-0.1-0.6-0.1-0.8,0l-1.1,0.6c-0.2,0.1-0.2,0.4,0,0.5l1.1,0.6c0.3,0.1,0.6,0.1,0.8,0
				L71.9,145.6z M74.3,147c0.2-0.1,0.2-0.4,0-0.5l-1.1-0.7c-0.3-0.1-0.6-0.1-0.8,0l-1.1,0.6c-0.1,0.1-0.2,0.2-0.1,0.4
				c0,0.1,0.1,0.1,0.1,0.1l1.1,0.6c0.3,0.1,0.6,0.1,0.8,0L74.3,147z M76.7,148.4c0.1-0.1,0.2-0.2,0.1-0.4c0-0.1-0.1-0.1-0.1-0.1
				l-1.1-0.6c-0.3-0.1-0.6-0.1-0.8,0l-1.1,0.6c-0.2,0.1-0.2,0.4,0,0.5l1.1,0.7c0.3,0.1,0.6,0.1,0.8,0L76.7,148.4z M79.1,149.8
				c0.2-0.1,0.2-0.4,0-0.5l-1.1-0.7c-0.3-0.1-0.6-0.1-0.8,0l-1.1,0.6c-0.2,0.1-0.2,0.4,0,0.5l1.1,0.7c0.3,0.1,0.6,0.1,0.8,0
				L79.1,149.8z M81.5,151.2c0.2-0.1,0.2-0.4,0-0.5l-1.1-0.6c-0.3-0.1-0.6-0.1-0.8,0l-1.1,0.6c-0.2,0.1-0.2,0.4,0,0.5l1.1,0.7
				c0.3,0.1,0.6,0.1,0.8,0L81.5,151.2z M70.9,142.2c0.2-0.1,0.2-0.4,0-0.5l-1.1-0.6c-0.3-0.1-0.6-0.1-0.8,0l-1.1,0.6
				c-0.2,0.1-0.2,0.4,0,0.5l1.1,0.6c0.3,0.1,0.6,0.1,0.8,0L70.9,142.2z M73.3,143.6c0.2-0.1,0.2-0.4,0-0.5l-1.1-0.7
				c-0.3-0.1-0.6-0.1-0.8,0l-1.1,0.7c-0.2,0.1-0.2,0.4,0,0.5l1.1,0.6c0.3,0.1,0.6,0.1,0.8,0L73.3,143.6z M75.7,145
				c0.2-0.1,0.2-0.4,0-0.5l-1.1-0.7c-0.3-0.1-0.6-0.1-0.8,0l-1.1,0.7c-0.2,0.1-0.2,0.4,0,0.5l1.1,0.6c0.3,0.1,0.6,0.1,0.8,0
				L75.7,145z M78.1,146.4c0.2-0.1,0.2-0.4,0-0.5l-1.1-0.7c-0.3-0.1-0.6-0.1-0.8,0l-1.1,0.6c-0.2,0.1-0.2,0.4,0,0.5l1.1,0.7
				c0.3,0.1,0.6,0.1,0.8,0L78.1,146.4z M80.5,147.8c0.2-0.1,0.2-0.4,0-0.5l-1.1-0.6c-0.3-0.1-0.6-0.1-0.8,0l-1.1,0.6
				c-0.2,0.1-0.2,0.4,0,0.5l1.1,0.7c0.3,0.1,0.6,0.1,0.8,0L80.5,147.8z M82.9,149.2c0.2-0.1,0.2-0.4,0-0.5l-1.1-0.6
				c-0.3-0.1-0.6-0.1-0.8,0l-1.1,0.6c-0.2,0.1-0.2,0.4,0,0.5l1.1,0.7c0.3,0.1,0.6,0.1,0.8,0L82.9,149.2z M85.3,150.6
				c0.2-0.1,0.2-0.4,0-0.5l-1.1-0.6c-0.3-0.1-0.6-0.1-0.8,0l-1.1,0.6c-0.2,0.1-0.2,0.4,0,0.5l1.1,0.6c0.3,0.1,0.6,0.1,0.8,0
				L85.3,150.6z M87.7,151.9c0.2-0.1,0.2-0.4,0-0.5l-1.1-0.6c-0.3-0.1-0.6-0.1-0.8,0l-1.1,0.6c-0.2,0.1-0.2,0.4,0,0.5l1.1,0.6
				c0.3,0.1,0.6,0.1,0.8,0L87.7,151.9z M92.8,154.9c0.2-0.1,0.2-0.4,0-0.5l-3.8-2.2c-0.3-0.1-0.6-0.1-0.8,0l-1.1,0.6
				c-0.2,0.1-0.2,0.4,0,0.5l3.8,2.2c0.3,0.1,0.6,0.1,0.8,0L92.8,154.9z M90.4,156.3c0.2-0.1,0.2-0.4,0-0.5l-1.1-0.7
				c-0.3-0.1-0.6-0.1-0.8,0l-1.1,0.6c-0.2,0.1-0.2,0.4,0,0.5l1.1,0.7c0.3,0.1,0.6,0.1,0.8,0L90.4,156.3z M88,157.7
				c0.2-0.1,0.2-0.4,0-0.5l-1.1-0.6c-0.3-0.1-0.6-0.1-0.8,0l-1.1,0.6c-0.2,0.1-0.2,0.4,0,0.5l1.1,0.6c0.3,0.1,0.6,0.1,0.8,0
				L88,157.7z M85.6,156.3c0.2-0.1,0.2-0.4,0-0.5l-1.1-0.6c-0.3-0.1-0.6-0.1-0.8,0l-1.1,0.6c-0.2,0.1-0.2,0.4,0,0.5l1.1,0.7
				c0.3,0.1,0.6,0.1,0.8,0L85.6,156.3z M88,154.9c0.2-0.1,0.2-0.4,0-0.5l-1.1-0.7c-0.3-0.1-0.6-0.1-0.8,0l-1.1,0.7
				c-0.2,0.1-0.2,0.4,0,0.5l1.1,0.7c0.3,0.1,0.6,0.1,0.8,0L88,154.9z M83.2,154.9c0.2-0.1,0.2-0.4,0-0.5l-1.2-0.7
				c-0.3-0.1-0.6-0.1-0.8,0l-1.1,0.6c-0.2,0.1-0.2,0.4,0,0.5l1.1,0.7c0.3,0.1,0.6,0.1,0.8,0L83.2,154.9z M63.6,138.1
				c0.2-0.1,0.2-0.4,0-0.5l-2.9-1.7c-0.3-0.1-0.6-0.1-0.8,0l-1.1,0.6c-0.2,0.1-0.2,0.4,0,0.5l2.9,1.7c0.3,0.1,0.6,0.1,0.8,0
				L63.6,138.1z M66,139.5c0.2-0.1,0.2-0.4,0-0.5l-1.1-0.6c-0.3-0.1-0.6-0.1-0.8,0L63,139c-0.2,0.1-0.2,0.4,0,0.5l1.1,0.6
				c0.3,0.1,0.6,0.1,0.8,0L66,139.5z M68.4,140.9c0.2-0.1,0.2-0.4,0-0.5l-1.1-0.6c-0.3-0.1-0.6-0.1-0.8,0l-1.1,0.6
				c-0.2,0.1-0.2,0.4,0,0.5l1.1,0.6c0.3,0.1,0.6,0.1,0.8,0L68.4,140.9z M77,143c0.2-0.1,0.2-0.4,0-0.5l-1.1-0.7
				c-0.3-0.1-0.6-0.1-0.8,0l-1.1,0.7c-0.2,0.1-0.2,0.4,0,0.5l1.1,0.6c0.3,0.1,0.6,0.1,0.8,0L77,143z M79.4,144.4
				c0.2-0.1,0.2-0.4,0-0.5l-1.1-0.7c-0.3-0.1-0.6-0.1-0.8,0l-1.1,0.7c-0.2,0.1-0.2,0.4,0,0.5l1.1,0.6c0.3,0.1,0.6,0.1,0.8,0
				L79.4,144.4z M81.8,145.8c0.2-0.1,0.2-0.4,0-0.5l-1.1-0.6c-0.3-0.1-0.6-0.1-0.8,0l-1.1,0.6c-0.2,0.1-0.2,0.4,0,0.5l1.1,0.7
				c0.3,0.1,0.6,0.1,0.8,0L81.8,145.8z M84.2,147.2c0.2-0.1,0.2-0.4,0-0.5l-1.1-0.6c-0.3-0.1-0.6-0.1-0.8,0l-1.1,0.6
				c-0.2,0.1-0.2,0.4,0,0.5l1.1,0.7c0.3,0.1,0.6,0.1,0.8,0L84.2,147.2z M86.6,148.6c0.2-0.1,0.2-0.4,0-0.5l-1.1-0.6
				c-0.3-0.1-0.6-0.1-0.8,0l-1.1,0.6c-0.2,0.1-0.2,0.4,0,0.5l1.1,0.7c0.3,0.1,0.6,0.1,0.8,0L86.6,148.6z M89,150
				c0.2-0.1,0.2-0.4,0-0.5l-1.1-0.6c-0.3-0.1-0.6-0.1-0.8,0l-1.1,0.6c-0.1,0-0.2,0.2-0.2,0.3s0.1,0.1,0.2,0.2l1.1,0.6
				c0.3,0.1,0.6,0.1,0.8,0L89,150z M91.4,151.4c0.2-0.1,0.2-0.4,0-0.5l-1.1-0.6c-0.3-0.1-0.6-0.1-0.8,0l-1.1,0.6
				c-0.2,0.1-0.2,0.4,0,0.5l1.1,0.6c0.3,0.1,0.6,0.1,0.8,0L91.4,151.4z M95.2,153.6c0.2-0.1,0.2-0.4,0-0.5l-2.5-1.4
				c-0.3-0.1-0.6-0.1-0.8,0l-1.1,0.6c-0.2,0.1-0.2,0.4,0,0.5l2.5,1.4c0.3,0.1,0.6,0.1,0.8,0L95.2,153.6z M72.2,140.3
				c0.1,0,0.2-0.2,0.2-0.3s-0.1-0.1-0.2-0.2l-1.1-0.6c-0.3-0.1-0.6-0.1-0.8,0l-1.1,0.6c-0.2,0.1-0.2,0.4,0,0.5l1.1,0.6
				c0.3,0.1,0.6,0.1,0.8,0L72.2,140.3z M74.6,141.7c0.2-0.1,0.2-0.4,0-0.5l-1.1-0.6c-0.3-0.1-0.6-0.1-0.8,0l-1.1,0.6
				c-0.2,0.1-0.2,0.4,0,0.5l1.1,0.6c0.3,0.1,0.6,0.1,0.8,0L74.6,141.7z M65,136.1c0.2-0.1,0.2-0.4,0-0.5l-1.8-1.1
				c-0.3-0.1-0.6-0.1-0.8,0l-1.1,0.6c-0.2,0.1-0.2,0.4,0,0.5l1.8,1.1c0.3,0.1,0.6,0.1,0.8,0L65,136.1z M67.4,137.5
				c0.2-0.1,0.2-0.4,0-0.5l-1.1-0.6c-0.3-0.1-0.6-0.1-0.8,0l-1.1,0.6c-0.2,0.1-0.2,0.4,0,0.5l1.1,0.7c0.3,0.1,0.6,0.1,0.8,0
				L67.4,137.5z M69.8,138.9c0.2-0.1,0.2-0.4,0-0.5l-1.1-0.6c-0.3-0.1-0.6-0.1-0.8,0l-1.1,0.6c-0.1,0-0.2,0.2-0.2,0.3
				s0.1,0.1,0.2,0.2l1.1,0.6c0.3,0.1,0.6,0.1,0.8,0L69.8,138.9z"/>
		</g>
		<g class="st10">
			<path d="M122.6,142.6c-0.8,0.4-1.9,0.4-2.7,0l-44.8-25.9c-0.4-0.1-0.7-0.6-0.5-1c0.1-0.2,0.3-0.4,0.5-0.5l14.8-8.6
				c0.8-0.4,1.9-0.4,2.7,0l44.8,25.9c0.4,0.1,0.7,0.6,0.5,1c-0.1,0.2-0.3,0.4-0.5,0.5L122.6,142.6z"/>
		</g>
		<g>
			<path class="st15" d="M104.4,135L104.4,135c0-0.2-0.2-0.4-0.4-0.5l-11.4-6.6c-0.5-0.3-1.1-0.3-1.7-0.1L79,132.5
				c-0.3,0.1-0.5,0.3-0.6,0.6c0,0,0,0,0,0.1l0,0v1.2l0,0c0,0.2,0.2,0.5,0.4,0.6l15.2,8.7c0.3,0.2,0.7,0.2,1.1,0.2s0.7-0.1,1-0.3
				l8.1-6.9c0.1-0.1,0.2-0.3,0.2-0.4l0,0L104.4,135z"/>
		</g>
		<g>
			<path class="st15" d="M104,134.5l-11.4-6.6c-0.5-0.3-1.1-0.3-1.7-0.1l-7.3,2.9l15.6,9l5-4.2C104.6,135.1,104.5,134.7,104,134.5z"
				/>
		</g>
		<g>
			<path class="st13" d="M104.4,135c0,0.2-0.1,0.3-0.2,0.4l-8.1,6.9c-0.3,0.2-0.6,0.3-1,0.3s-0.7,0-1.1-0.2l-15.1-8.7
				c-0.2-0.1-0.4-0.3-0.4-0.6l0,0v1.2l0,0c0,0.2,0.2,0.5,0.4,0.6l15.2,8.7c0.3,0.2,0.7,0.2,1.1,0.2s0.7-0.1,1-0.3l8.1-6.9
				c0.1-0.1,0.2-0.3,0.2-0.4l0,0L104.4,135L104.4,135z"/>
		</g>
		<g class="st10">
			<path d="M104.4,135c0,0.2-0.1,0.3-0.2,0.4l-5,4.2v1.3l5-4.2c0.1-0.1,0.2-0.3,0.2-0.4l0,0V135z"/>
		</g>
		<g>
			<path class="st5" d="M70.4,84.1L69,84.9l0,0c-0.3,0.2-0.4,0.5-0.4,0.9v32c0.1,1,0.6,1.9,1.4,2.4l44.8,25.9c0.3,0.2,0.7,0.2,1,0.1
				l0,0l1.3-0.8l0,0c0.3-0.2,0.4-0.5,0.4-0.9v-32c-0.1-0.9-0.6-1.8-1.3-2.3l-44.9-26C71.1,84,70.7,84,70.4,84.1L70.4,84.1L70.4,84.1
				z"/>
		</g>
		<g>
			<path class="st13" d="M70.4,84.1L69,84.9l0,0c-0.3,0.2-0.4,0.5-0.4,0.9v32c0.1,1,0.6,1.9,1.4,2.4l44.8,25.9
				c0.3,0.2,0.7,0.2,1,0.1l0,0l1.3-0.8l0,0c0.3-0.2,0.4-0.5,0.4-0.9v-32c-0.1-0.9-0.6-1.8-1.3-2.3l-44.9-26
				C71.1,84,70.7,84,70.4,84.1L70.4,84.1L70.4,84.1z"/>
		</g>
		<g>
			<path class="st13" d="M68.6,117.8c0.1,1,0.6,1.8,1.4,2.3l44.8,25.9c0.8,0.4,1.3,0.1,1.3-0.8v-32c-0.1-0.9-0.6-1.8-1.3-2.3L70,85
				c-0.8-0.4-1.4-0.1-1.4,0.8V117.8z"/>
		</g>
		<g>
			<g>
				<g>
					<g>
						<defs>
							<path id="SVGID_1_" d="M114.8,142.9L70,117c-0.3-0.2-0.5-0.6-0.6-0.9V86.2c0-0.3,0.2-0.5,0.6-0.3l44.8,25.9
								c0.3,0.2,0.5,0.6,0.5,0.9v29.9C115.3,142.9,115.1,143,114.8,142.9z"/>
						</defs>
						<clipPath id="SVGID_2_">
							<use xlink:href="#SVGID_1_"  style="overflow:visible;"/>
						</clipPath>
						<rect x="69.4" y="85.7" class="st16" width="0" height="57.3"/>
					</g>
				</g>
				<g>
					<g>
						<path id="SVGID_111_" class="st17" d="M114.8,142.9L70,117c-0.3-0.2-0.5-0.6-0.6-0.9V86.2c0-0.3,0.2-0.5,0.6-0.3l44.8,25.9
							c0.3,0.2,0.5,0.6,0.5,0.9v29.9C115.3,142.9,115.1,143,114.8,142.9z"/>
					</g>
				</g>
			</g>
		</g>
		<g class="st10">
			<path d="M96.7,166.3c-0.7,0.4-1.6,0.4-2.3,0l-7.3-4.2c-0.4-0.1-0.6-0.5-0.4-0.9c0.1-0.2,0.2-0.4,0.4-0.4l12.7-7.3
				c0.7-0.4,1.6-0.4,2.3,0l7.3,4.2c0.4,0.1,0.6,0.5,0.4,0.9c-0.1,0.2-0.2,0.4-0.4,0.4L96.7,166.3z"/>
		</g>
		<g>
			<path class="st5" d="M102.2,159.4v-0.6l0,0c0-0.4-0.3-0.8-0.7-1c-1.1-0.6-2.4-0.6-3.5,0l-2.8,1.6c-0.4,0.2-0.7,0.6-0.7,1l0,0v0.6
				l0,0c0,0.4,0.3,0.8,0.7,1c1.1,0.5,2.4,0.5,3.5,0l2.8-1.6C101.9,160.2,102.2,159.8,102.2,159.4L102.2,159.4z"/>
		</g>
		<g>
			<path d="M101.5,159.8l-2.8,1.6c-1.1,0.5-2.4,0.5-3.5,0c-0.4-0.2-0.7-0.6-0.7-1v0.6l0,0c0,0.4,0.3,0.8,0.7,1
				c1.1,0.5,2.4,0.5,3.5,0l2.8-1.6c0.4-0.2,0.7-0.6,0.7-1l0,0v-0.6l0,0C102.2,159.3,101.9,159.6,101.5,159.8z"/>
		</g>
		<g>
			<path class="st5" d="M101.5,157.8c-1.7-0.9-3.8-0.8-5.4,0.3c-1,0.6-1.8,1.6-1.5,2.5c0.1,0.3,0.4,0.6,0.7,0.8
				c0.1,0.1,0.2,0.1,0.3,0.1c1,0.4,2.2,0.4,3.2-0.1l2.8-1.6c0.5-0.4,0.4-1.2,0-1.7C101.5,158.1,101.4,158,101.5,157.8z"/>
		</g>
		<g class="st10">
			<path d="M54.4,129.6c1.5,0.8,3.3,0.8,4.8,0c0.8-0.3,1.2-1.1,0.9-1.8c-0.1-0.4-0.5-0.7-0.9-0.9c-1.5-0.8-3.3-0.8-4.8,0
				c-0.6,0.2-0.9,0.8-1,1.4l0,0C53.5,128.8,53.9,129.3,54.4,129.6z"/>
		</g>
		<g>
			<path class="st1" d="M59,119.3c-1.4-0.7-3-0.7-4.4,0c-0.5,0.2-0.9,0.7-0.9,1.3l0,0c0,3.3,0.7,7,0.7,7.6l0,0c0,0.4,0.3,0.8,0.7,1
				c1.1,0.5,2.3,0.5,3.4,0c0.4-0.2,0.7-0.6,0.7-1c0-0.7,0.7-4.3,0.7-7.6C59.8,120,59.5,119.5,59,119.3z"/>
		</g>
		<g>
			<path class="st1" d="M59,119.3c-0.6-0.3-1.2-0.5-1.9-0.5c0,0.1,0.1,0.1,0.1,0.2c0.1,0.4,0.2,0.9,0.2,1.3c0,3.5-0.1,7.4-0.1,8.1
				c0,0.3,0,0.7-0.1,1v0.1c0.5,0,1-0.2,1.4-0.4s0.7-0.6,0.7-1c0-0.7,0.7-4.3,0.7-7.6C59.9,120,59.5,119.5,59,119.3z"/>
		</g>
		<g>
			<path class="st5" d="M54.6,121.8c1.4,0.7,3,0.7,4.4,0c0.5-0.2,0.8-0.7,0.9-1.2c0-0.6-0.4-1-0.9-1.3c-1.4-0.7-3-0.7-4.4,0
				c-0.5,0.2-0.9,0.7-0.9,1.3l0,0C53.8,121.1,54.1,121.6,54.6,121.8z"/>
		</g>
		<g class="st18">
			<path d="M54.6,121.8c1.4,0.7,3,0.7,4.4,0c0.5-0.2,0.8-0.7,0.9-1.2c0-0.6-0.4-1-0.9-1.3c-1.4-0.7-3-0.7-4.4,0
				c-0.5,0.2-0.9,0.7-0.9,1.3l0,0C53.8,121.1,54.1,121.6,54.6,121.8z"/>
		</g>
		<g>
			<path class="st1" d="M58.7,119L58.7,119c-0.2-0.2-0.2-0.2-0.3-0.3c-1-0.5-2.2-0.5-3.2,0l0,0c-0.1,0-0.2,0.1-0.2,0.2l-0.1,0.1
				c-0.4,0.4-0.7,1-0.7,1.6l0,0c0,0.5,0.3,0.9,0.8,1.1c1.2,0.6,2.6,0.6,3.8,0c0.4-0.2,0.7-0.6,0.8-1.1C59.4,120,59.2,119.4,58.7,119
				z"/>
		</g>
		<g>
			<path class="st1" d="M58.7,119L58.7,119c-0.2-0.2-0.2-0.2-0.3-0.3c-0.3-0.2-0.7-0.3-1.1-0.3l0.6,3.6c0.3-0.1,0.6-0.2,0.8-0.3
				c0.4-0.2,0.7-0.6,0.8-1.1C59.4,120,59.2,119.4,58.7,119z"/>
		</g>
		<g>
			<path class="st9" d="M55.2,120.6c1,0.5,2.2,0.5,3.2,0c0.5-0.2,0.7-0.8,0.5-1.3c-0.1-0.2-0.3-0.4-0.5-0.5c-1-0.5-2.2-0.5-3.2,0
				c-0.4,0.2-0.6,0.5-0.7,0.9l0,0C54.6,120,54.9,120.4,55.2,120.6z"/>
		</g>
		<g>
			<path class="st1" d="M55.2,120.6c1,0.5,2.2,0.5,3.2,0c0.5-0.2,0.7-0.8,0.5-1.3c-0.1-0.2-0.3-0.4-0.5-0.5c-1-0.5-2.2-0.5-3.2,0
				c-0.4,0.2-0.6,0.5-0.7,0.9l0,0C54.6,120,54.9,120.4,55.2,120.6z"/>
		</g>
		<g class="st0">
			<path d="M27.4,205.9l24.7-14.1c6.4-3.7,16.7-3.7,23.1,0s6.4,9.6,0,13.3c-0.6,0.3-25.3,14.5-25.7,14.7l-0.4,0.2l0,0
				c-6.4,2.9-15.8,2.7-21.7-0.7C21,215.5,21,209.6,27.4,205.9z"/>
		</g>
		<g class="st0">
			<path d="M78.6,216.3c3.7-4.1,10.4-5.6,9.2-8.5c-0.7-2.8-1.7-3.5-7.5-4.3c-6-0.8-5.1,2.6-10.1,5.4S72.1,223.5,78.6,216.3z"/>
		</g>
		<g>
			<path class="st19" d="M55.7,212.4v-2.8l0,0c0-2.4-1.6-4.9-4.8-6.8c-6.5-3.7-16.9-3.7-23.4,0c-3.2,1.9-4.9,4.3-4.9,6.7l0,0v2.8
				l0,0c0,2.4,1.6,4.9,4.8,6.7c6.4,3.7,16.9,3.7,23.4,0C54.1,217.3,55.7,214.9,55.7,212.4L55.7,212.4z"/>
		</g>
		<g>
			<path class="st12" d="M50.8,216.4c-6.5,3.7-16.9,3.7-23.4,0c-3.2-1.9-4.8-4.3-4.8-6.7v2.8c0,2.4,1.6,4.9,4.8,6.7
				c6.4,3.7,16.9,3.7,23.4,0c3.2-1.9,4.8-4.3,4.8-6.7l0,0v-2.8l0,0C55.7,212.1,54.1,214.5,50.8,216.4z"/>
		</g>
		<g class="st3">
			<path d="M43.3,207.2c-2.6-1.3-5.7-1.3-8.3,0c-2.3,1.3-2.3,3.5,0,4.8c2.6,1.3,5.7,1.3,8.3,0C45.6,210.7,45.6,208.6,43.3,207.2z"/>
		</g>
		<g>
			<path class="st5" d="M43,185.8L43,185.8c-0.1-0.7-0.5-1.3-1.1-1.6c-1.7-0.9-3.8-0.9-5.5,0c-0.6,0.3-1.1,0.9-1.1,1.6l0,0v23.9l0,0
				c0.1,0.7,0.5,1.3,1.1,1.6c1.7,0.9,3.8,0.9,5.5,0c0.6-0.3,1.1-0.9,1.1-1.6l0,0V185.8z"/>
		</g>
		<g>
			<path d="M43,185.8c-0.1-0.7-0.5-1.3-1.1-1.6c-0.8-0.5-1.8-0.7-2.7-0.7v28.4c1,0,1.9-0.2,2.7-0.7c0.6-0.3,1.1-0.9,1.1-1.6l0,0
				V185.8z"/>
		</g>
		<g>
			<path class="st9" d="M60.2,185.6l-18.6,11l-5.2-9.6l-2.5-16l0.5-0.3c0.3-0.2,0.7-0.3,1.1-0.1l25.8,14.9
				C61,185.4,60.6,185.4,60.2,185.6z"/>
		</g>
		<g>
			<path class="st20" d="M60.2,185.6l-18.6,11l-5.2-9.6l-2.5-16l0.5-0.3c0.3-0.2,0.7-0.3,1.1-0.1l25.8,14.9
				C61,185.4,60.6,185.4,60.2,185.6z"/>
		</g>
		<g>
			<path class="st1" d="M26.1,175.9l3.2-6.5l6.1,6.3l2.3-0.7v14.4c-0.9,0.2-1.7,0.3-2.6,0.3l0,0c-5.3,0.2-9.8-4-9.9-9.3
				C25.1,178.8,25.4,177.3,26.1,175.9z"/>
		</g>
		<g>
			<g>
				<path class="st4" d="M64.1,189.3c0.1,2.1,0.6,4.1,1.5,5.9c2.1,4.4,3.8,7.3,5.2,7.3s4.2,1.2,2.6,2.9s-3,1.9-5.5,0.9
					s-3.6-4.7-6.9-4.7c-1.1,0.2-2.2-0.6-2.3-1.7c-0.1-0.4,0-0.8,0.1-1.1c0.9-2.4,1.1-5.1,0.6-7.6v-0.1
					C60.4,192,63.4,190.6,64.1,189.3z"/>
			</g>
			<g>
				<path class="st21" d="M58.6,199.9c0-1,0.1-2,0.5-3c2.6-0.4,5.9,2.5,7.5,4.7l0.4,0.5l0,0c0.1,0.1,0.3,0.3,0.4,0.4
					c1.2,1.6,2.4,2.7,3.9,1.6c1.3-1,0.5-1.2-0.6-1.7h0.1c1.5,0,4.2,1.2,2.6,2.9s-3,1.9-5.5,0.9s-3.6-4.7-6.9-4.7
					C59.9,201.7,58.8,201,58.6,199.9L58.6,199.9z"/>
			</g>
			<g>
				<path class="st22" d="M64.1,189.3c0.1,2.1,0.6,4.1,1.5,5.9c2.1,4.4,3.8,7.3,5.2,7.3s4.2,1.2,2.6,2.9s-3,1.9-5.5,0.9
					s-3.6-4.7-6.9-4.7c-1,0.1-2-0.5-2.2-1.5l0,0c0.7-0.3,2.4,0.4,3.5,0.6c1.6,0.3,0.6-2.7,0.5-6.7c0-0.8-0.1-1.8-0.3-3.3
					C63.1,190.4,63.7,189.9,64.1,189.3z"/>
			</g>
			<g>
				<path class="st22" d="M60.6,201.2c1.1,0.3,1.5-0.2,1.2,1.1s1,6.1,0.7,6.4c-0.1,0.3-0.5,0.3-0.7,0.2l-0.1-0.1
					c-0.3-0.2-1.1-5.6-2-6.7S59.6,200.8,60.6,201.2z"/>
			</g>
			<g>
				<path class="st23" d="M26.9,166.5l-3.1,6.5c-2.3,4.8-0.3,10.6,4.5,12.9c1.4,0.7,2.9,1,4.5,1l0,0c1.7,0,3.4-0.5,5-1.2l14.2-6.6
					c0.2-0.2,0.6-0.2,0.7,0c0.1,0.1,0.1,0.2,0.1,0.3l0.3,1.5c0.5,2.7,1.6,5.2,3.3,7.4l1.7,2.3c1,1.4,2.8,2,4.5,1.4
					c1.2-0.4,1.8-1.6,1.6-2.8l-3.4-16.3c-0.8-4.1-4.8-6.7-8.9-5.8c-0.2,0-0.5,0.1-0.7,0.2L33,172.9L26.9,166.5z"/>
			</g>
			<g>
				<path class="st23" d="M15.9,174.7c0.3,7.7,15.7-2.9,15.7-3.3l1.4,1.5l18.2-5.6c4-1.2,8.2,1,9.4,5c0.1,0.2,0.1,0.4,0.2,0.7
					l3.4,16.3c0.2,1.2-0.5,2.4-1.6,2.8c-0.2,0.1-0.4,0.1-0.6,0.1l-3.5-4.7c-1.6-2.2-2.7-4.7-3.3-7.4l-0.3-1.6
					c-0.1-0.3-0.3-0.5-0.6-0.4c-0.1,0-0.2,0.1-0.3,0.1l-1.8,0.8l0,0c-0.1,0-0.2,0-0.3,0.1l-14.2,6.7c-1.6,0.7-3.3,1.1-5,1.2l0,0
					c-2.2,0.1-4.3-0.6-6-1.9c-0.3,0-0.6,0.1-0.8,0.1l0,0c-5.3,0.2-9.8-3.9-10-9.2C15.9,175.5,15.9,175.1,15.9,174.7z"/>
			</g>
		</g>
		<g>
			<g>
				<path class="st4" d="M74.3,196.9c0.1,2.1,0.6,4.1,1.5,5.9c2.1,4.4,3.8,7.3,5.2,7.3s4.2,1.2,2.6,2.9s-3,1.9-5.5,0.9
					s-3.6-4.7-6.9-4.7c-1.1,0.2-2.2-0.6-2.3-1.7c-0.1-0.4,0-0.8,0.1-1.1c0.9-2.4,1.1-5.1,0.6-7.6v-0.1
					C70.6,199.6,73.6,198.2,74.3,196.9z"/>
			</g>
			<g>
				<path class="st21" d="M68.8,207.6c0-1,0.1-2,0.5-3c2.6-0.4,5.9,2.5,7.5,4.7l0.4,0.5l0,0c0.1,0.1,0.3,0.3,0.4,0.4
					c1.2,1.6,2.4,2.7,3.9,1.6c1.3-1,0.5-1.2-0.6-1.7H81c1.5,0,4.2,1.2,2.6,2.9s-3,1.9-5.5,0.9s-3.6-4.7-6.9-4.7
					C70.1,209.3,69,208.6,68.8,207.6L68.8,207.6z"/>
			</g>
			<g>
				<path class="st22" d="M74.3,196.9c0.1,2.1,0.6,4.1,1.5,5.9c2.1,4.4,3.8,7.3,5.2,7.3s4.2,1.2,2.6,2.9s-3,1.9-5.5,0.9
					s-3.6-4.7-6.9-4.7c-1,0.1-2-0.5-2.2-1.5l0,0c0.7-0.3,2.4,0.4,3.5,0.6c1.6,0.3,0.6-2.7,0.5-6.7c0-0.8-0.1-1.8-0.3-3.3
					C73.3,198,73.9,197.6,74.3,196.9z"/>
			</g>
			<g>
				<path class="st22" d="M70.8,208.8c1.1,0.3,1.5-0.2,1.2,1.1s1,6.1,0.7,6.4c-0.1,0.3-0.5,0.3-0.7,0.2l-0.1-0.1
					c-0.3-0.2-1.1-5.6-2-6.7S69.8,208.4,70.8,208.8z"/>
			</g>
			<g>
				<path class="st24" d="M37.1,174.1l-3.1,6.5c-2.3,4.8-0.3,10.6,4.5,12.9c1.4,0.7,2.9,1,4.5,1l0,0c1.7,0,3.4-0.5,5-1.2l14.2-6.6
					c0.2-0.2,0.6-0.2,0.7,0c0.1,0.1,0.1,0.2,0.1,0.3l0.3,1.5c0.5,2.7,1.6,5.2,3.3,7.4l1.7,2.3c1,1.4,2.8,2,4.5,1.4
					c1.2-0.4,1.8-1.6,1.6-2.8L71,180.5c-0.8-4.1-4.8-6.7-8.9-5.8c-0.2,0-0.5,0.1-0.7,0.2l-18.2,5.6L37.1,174.1z"/>
			</g>
			<g>
				<path class="st24" d="M26.1,182.4c0.4,7.7,15.7-2.9,15.7-3.3l1.4,1.5l18.2-5.6c4-1.2,8.2,1,9.4,5c0.1,0.2,0.1,0.4,0.2,0.7
					l3.4,16.3c0.2,1.2-0.5,2.4-1.6,2.8c-0.2,0.1-0.4,0.1-0.6,0.1l-3.5-4.7c-1.6-2.2-2.7-4.7-3.3-7.4l-0.3-1.6
					c-0.1-0.3-0.3-0.5-0.6-0.4c-0.1,0-0.2,0.1-0.3,0.1l-1.8,0.8l0,0c-0.1,0-0.2,0-0.3,0.1L48,193.3c-1.6,0.7-3.3,1.1-5,1.2l0,0
					c-2.2,0.1-4.3-0.6-6-1.9c-0.3,0-0.6,0.1-0.8,0.1l0,0c-5.3,0.2-9.8-3.9-10-9.2C26.1,183.1,26.1,182.7,26.1,182.4z"/>
			</g>
		</g>
		<g>
			<path class="st4" d="M37.8,140.9c-0.7-0.2-1.3,3.8,0.7,4.8s-10.4,0.9-9.5-0.2s0.6-2.2,1.3-2.2s3.8-3,2.1-6.1s3.6-2.7,4.2-1.9
				s3,1.4,2.4,2.5S38.9,141.3,37.8,140.9z"/>
		</g>
		<g class="st6">
			<path d="M37.8,140.9c-0.7-0.2-1.3,3.8,0.7,4.8s-10.4,0.9-9.5-0.2s0.6-2.2,1.3-2.2s3.8-3,2.1-6.1s3.6-2.7,4.2-1.9s3,1.4,2.4,2.5
				S38.9,141.3,37.8,140.9z"/>
		</g>
		<g>
			<path class="st4" d="M42,129.4c-0.3-1-1.5-1.6-2.5-1.3c-0.4,0.1-0.8,0.4-1,0.8c-1.7,2.1-1.8,3-3.8,5.3c-0.2,0.2-0.4,0.4-0.5,0.5
				c0-0.2,0-0.4-0.1-0.6c-0.3-1.2-1.2-2-2.1-1.8s-1.2,1.4-0.9,2.6c0.1,0.6,0.5,1.1,0.9,1.5c1.3,2.2,1.7,3,4,3.9
				c1.9,0.8,4.3,1.1,4.8-0.4c0.4-1.2,1.6-2.2,1.6-4c0-1.2-0.6-3.4-0.5-4.4C42.1,130.8,42.1,130.1,42,129.4z"/>
		</g>
		<path class="st25" d="M42,131.5c0.1-0.4,0.1-0.8,0.1-1.3c0-0.3,0-0.6-0.1-0.8c-0.3-1-1.5-1.6-2.5-1.3c-0.4,0.1-0.8,0.4-1,0.8
			c-1.7,2.1-1.8,3-3.8,5.3c-0.2,0.2-0.4,0.4-0.5,0.5c0-0.2,0-0.4-0.1-0.6c-0.3-1.2-1.2-2-2.1-1.8c-0.9,0.2-1.2,1.4-0.9,2.6
			c0.1,0.6,0.5,1.1,0.9,1.5c1.3,2.2,1.7,3,4,3.9c0.3,0.1,0.5,0.2,0.8,0.3c-0.4,0.7-0.4,1.6-0.2,2.6c0.1,0.5,0.1,1.8,0.2,3.1
			c1.6-0.1,2.6-0.2,1.9-0.6c-2-1-1.4-5-0.7-4.8c0,0,0,0,0.1,0s0.3,0,0.4,0c1.1,0.1,2.1-0.1,2.4-1c0.4-1.2,1.6-2.2,1.6-4
			C42.5,134.7,41.8,132.5,42,131.5z"/>
		<g>
			<path class="st25" d="M54.9,143.6c0,0,2.3-2.3,3.2-2.3s3.5,0.3,4.9,0.4c1.4,0.1,1.8,0.7,2.4,0.2s-0.8-1.6-1.9-1.6
				s-1.2-0.4-1.2-1.1s3.9-3.4,3.3-4s-2.3,1.4-3.1,1.4c-0.5,0-0.5-0.6-0.9-0.6s-0.4,0.1-0.6,0.1s-0.1-0.1-0.4-0.1s-0.4,0.2-0.6,0.2
				s-0.2-0.1-0.4-0.1c-0.7,0.1-1.3,0.5-1.8,0.9c-0.7,0.6-1.8,1.1-2.8,1.8c-1,0.9-1.6,2.1-1.6,3.4C53.4,143.7,54.1,144.4,54.9,143.6z
				"/>
		</g>
		<g>
			<path class="st26" d="M25.2,146c0.3-1.7,2-2.9,3.8-2.6h0.1l13.7,2.5c0.3,0.1,0.6,0.1,0.9,0c0.3,0,0.5,0.1,0.7,0.3
				c1.2,0.8,2,2.1,2.1,3.6c0,0.4-0.1,0.7-0.3,1c-1.1,0.5-2.2,0.7-3.4,0.5L28.3,150c-1.9-0.2-3.3-1.9-3.1-3.7
				C25.1,146.2,25.1,146.1,25.2,146z"/>
		</g>
		<path class="st25" d="M63.5,140.3c-1.1,0-1.2-0.4-1.2-1.1s3.9-3.4,3.3-4c0,0-0.1-0.1-0.2-0.1c-1.1,1.1-3.5,3.4-5,3.6
			c-1.9,0.2-3.7,0.9-5.1,2.2L55,139l-10.7,6.6c-0.2,0.1-0.4,0.2-0.7,0.3c0.2,0.1,0.5,0.2,0.7,0.3c1.2,0.8,1.9,2.1,2,3.5
			c0,0.4-0.1,0.7-0.3,1c0.1,0,0.2-0.1,0.3-0.1c0,0.1-0.1,0.2-0.2,0.3c0.6-0.3,1.2-0.7,1.8-1.1l7.5-6.7l0.3-0.3
			c0.8-0.7,1.9-1.6,2.4-1.6c0.9,0,3.5,0.3,4.9,0.4s1.8,0.7,2.4,0.2C66,141.4,64.6,140.3,63.5,140.3z"/>
		<g class="st27">
			<path d="M28.5,143.4c1.6,1.3,14.6,4.4,16.7,3.7c0.7,0.8,1,1.7,1.1,2.7c0,0.4-0.1,0.7-0.3,1c-1.1,0.5-2.2,0.7-3.4,0.5L28.1,150
				c-1.9-0.2-3.3-1.9-3.1-3.7c0-0.1,0-0.2,0.1-0.4C25.5,144.4,26.9,143.3,28.5,143.4z"/>
		</g>
		<g>
			<path class="st28" d="M28.7,143.3c3.2,0,6.3,0.7,9.2,2c2,0.9,3.9,2,5.7,3.2l0.1,0.1l0.1,0.1c0.3,0.2,0.5,0.4,0.8,0.6
				c0.9,0.5,1.8,0.8,2.8,0.9c1.4,0.3,0.6,1.1-0.7,1.7c0.8,3.6,3.2,4.8,2.1,7.9c-1,2.7-3,2.4-3.5,5.6s-0.3,12.6-0.7,13
				s-6.2,2.7-11.7,0.4l-0.2-0.1c-3.4-1.4-5.4-2.6-6.1-3.7c0.5-1,0.7-2.1,0.7-3.2c0-4.3-0.5-4.9-1.5-9.2c0-0.1-0.1-0.2-0.1-0.3
				c-0.1-0.2-0.1-0.4-0.2-0.6c-0.3-0.7-0.6-1.4-1-2.1c-2-3.8-3-8.2-2.8-12.5C21.6,143.4,27.1,143.2,28.7,143.3z"/>
		</g>
		<g>
			<path class="st28" d="M54.4,157.1c-2.8-0.1-8.7,0.8-9.1,8.1s-7.9,2.4-6.1-3.8s1.2-9.2,6.1-8.8s11.6,0.1,12.7,1.8
				S56.6,157.2,54.4,157.1z"/>
		</g>
		<g>
			<path class="st28" d="M58,154.4c-1-1.5-6.5-1.4-11.1-1.6c-0.1-0.3-0.2-0.6-0.3-0.9c0.7-0.2,1.5-0.2,2.2-0.1
				c-2.4-1.1-3.2-2.4-5.8-3.9c-0.8-0.4-1.6-0.8-2.6-1.2l-0.7-0.4c-0.2-0.1-0.5-0.2-0.7-0.4l-1.1-0.5c-2.9-1.3-6-2-9.2-2H28h-0.3
				h-0.1h-0.4h-0.1l-0.5,0.1h-0.1l-0.5,0.1l0,0c-1.7,0.3-3.5,0.9-4.2,2.4h-0.1c0,0.1,0,0.1,0,0.2c0,0.1,0,0.1-0.1,0.2l0,0h0.1
				c-0.3,3.9,0.3,7.8,1.8,11.3c0.3,0.7,0.6,1.4,0.8,2.1c0,0.2,0.1,0.4,0.1,0.6c0,0.1,0.1,0.2,0.1,0.4c0.6,4.3,1,5,0.7,9.3
				c-0.1,1.1-0.4,2.2-1,3.2c0.6,1.2,2.5,2.5,5.8,4.2l0.2,0.1c2.7,1.3,5.7,1.8,8.6,1.4l0,0c0,0.3,0,0.6,0,0.9l0,0c0.3,0,0.7,0,1-0.1
				H40l0.8-0.1h0.1l0.8-0.2l0,0c0.6-0.1,1-0.3,1.4-0.4l0.1-0.1l0.4-0.1l0.1-0.1l0.2-0.1H44c0.1,0,0.1-0.1,0.2-0.1
				c0.3-0.4,0.2-7.6,0.5-11.5c0.1-0.5,0.1-1,0.2-1.5c0.5-3.2,2.6-2.9,3.5-5.6c0.1-0.2,0.2-0.5,0.3-0.7c0-0.1,0-0.1,0-0.2
				c0-0.1,0-0.3,0-0.4c1.6-0.9,3.5-1.3,5.3-1.2C56.6,157.2,59.1,156.1,58,154.4z M22.1,146c1.7-0.8,3.5-1.2,5.4-1.1
				c3.2,0,6.3,0.7,9.2,2c1.1,0.5,2.5,1.2,3.8,2l0.7,0.4l0.1,0.1l0.6,0.4l0.3,0.2l0.1,0.1c0.7,0.5,0.5,1.3,0,2.4l0,0
				c-0.1,0.2-0.2,0.5-0.3,0.7c-0.6,1.4-1.2,2.4-1.6,3.4c-0.3-0.9-0.5-1.8-0.6-2.7C39.3,148.5,30.6,150.3,22.1,146z"/>
		</g>
		<g>
			<path class="st1" d="M27,125.6c0.3-0.5,0.7-1,1.2-1.4l0.2-0.2l0.1-0.1l0.2-0.2l0,0c1.6-1.2,3.5-1.8,5.4-1.7c4.5,0,8,3,8,6.6
				c0,0.8-0.2,1.6-0.5,2.3l0,0c-1.2,3.6-1.7,2.7-2.1,6.2c-1.1,8.2,3.3,7,3.8,10.9c-1.2-0.8-2.4-1.5-3.7-2.1l0,0
				c-1.7-0.8-2.3,0.1-5.6-0.6s-5.6-1.5-8-7.1C24.5,134.7,24.5,129.2,27,125.6z"/>
		</g>
		<g class="st6">
			<path d="M42.1,128.8c0,0.8-0.2,1.6-0.5,2.3l0,0c-1.2,3.6-1.7,2.7-2.1,6.2c-1.1,8.2,3.3,7,3.8,10.9c-1.2-0.8-2.4-1.5-3.7-2.1l0,0
				c-1.7-0.8-2.3,0.1-5.6-0.6s-5.6-1.5-8-7.1c0-0.1-0.1-0.2-0.1-0.4c2.6,4.4,9.2,6,8.7,1.8c-0.9-7.6,2.3-10.1,3.1-13.3
				c0.8-2.8-4.1-3.7-6.7-3.8c1-0.3,2-0.5,3.1-0.5C38.5,122.1,42.1,125.1,42.1,128.8z"/>
		</g>
		<g>
			<path class="st28" d="M42.5,152.3c0.3-1.7,2-2.9,3.7-2.6l0,0l13.7,2.6c0.3,0.1,0.6,0.1,0.9,0c0.3,0,0.5,0.1,0.7,0.3
				c1.2,0.8,2,2.1,2.1,3.6c0,0.4-0.1,0.7-0.3,1c-1.1,0.5-2.2,0.6-3.4,0.5l-14.5-1.3c-1.9-0.2-3.3-1.9-3.1-3.7
				C42.4,152.6,42.5,152.4,42.5,152.3z"/>
		</g>
		<path class="st25" d="M82.8,139c-0.1-0.2-0.3-0.2-0.3-0.2s0.3-0.6,0-0.8s-2.4,1-2.9,1.4c-0.5,0.3-1.1,0.6-1.7,0.8
			c-0.5,0.2-0.9,0.3-1.4,0.3c0-0.1,1-1.5,1-1.8s0.2-0.9-0.3-1.1s-0.9,0.9-1.7,1.6c-0.7,0.5-1.2,1.3-1.5,2.1s-0.3,0.1-0.5,1.6
			c-0.1,1-0.7,1.6-1.7,2.3v-0.1L61.6,152c-0.2,0.1-0.4,0.2-0.7,0.3c0.2,0.1,0.5,0.2,0.7,0.3c1,0.6,1.6,1.5,1.9,2.4v0.1
			c0.1,0.3,0.2,0.6,0.2,1s-0.1,0.7-0.3,1c0.1,0,0.2-0.1,0.3-0.1c0,0.1-0.1,0.2-0.2,0.3c0.7-0.3,1.3-0.6,1.8-1.1l7.3-6.4
			c0.9-0.7,1.7-1.5,2.4-2.4c0.9-1.1,4.1-1.6,5.2-2.8s0.9-1.6,0.9-1.6s0.1,0,0.5-0.6s0.2-1,0.2-1c0.4-0.5,0.7-1,1-1.5
			C83.1,139.4,83,139.1,82.8,139z"/>
		<g>
			<path class="st28" d="M45.9,149.7c1.6,1.3,14.6,4.4,16.7,3.7c0.7,0.8,1,1.7,1.1,2.7c0,0.4-0.1,0.7-0.3,1
				c-1.1,0.5-2.2,0.6-3.4,0.5l-14.5-1.3c-1.9-0.2-3.2-1.9-3-3.8c0-0.1,0-0.1,0-0.2C42.8,150.8,44.2,149.6,45.9,149.7z"/>
		</g>
		<g>
			<path class="st19" d="M11.2,138.8c0-0.6,0.3-1.2,0.8-1.5c0.2-0.2,0.4-0.2,0.7-0.1l0,0l17.2,9.9l0,0c-0.2-0.1-0.5,0-0.6,0.1
				c-0.5,0.4-0.8,0.9-0.8,1.5l5.8,40.1c0,0.1,0,0.3,0.1,0.4l0,0l5.3,10.7c0.1,0.1,0.2,0.2,0.3,0.3l0,0l-25.8-15l0,0
				c-0.1-0.1-0.2-0.2-0.3-0.3l-5.3-10.7l0,0c-0.1-0.1-0.1-0.3-0.1-0.4L11.2,138.8z"/>
		</g>
		<g>
			<path class="st9" d="M29.2,147.2c0.5-0.3,0.9-0.1,0.9,0.4l6.3,39.5l5.2,9.6l18.6-11c0.8-0.5,1.5-0.1,1.5,0.9
				c-0.1,1.1-0.6,2.1-1.5,2.6l0,0l-19.4,11c-0.5,0.3-1,0.2-1.2-0.2l-5.3-10.7l0,0c-0.1-0.1-0.1-0.3-0.1-0.4l-5.8-40.1
				C28.4,148.1,28.7,147.5,29.2,147.2z"/>
		</g>
		<g>
			<path class="st12" d="M29.2,147.2c0.5-0.3,0.9-0.1,0.9,0.4l6.3,39.5l5.2,7.4l18.6-8.8c0.8-0.5,1.5-0.1,1.5,0.9
				c-0.1,1.1-0.6,2.1-1.5,2.6l0,0l-19.4,11c-0.5,0.3-1,0.2-1.2-0.2l-5.3-10.7l0,0c-0.1-0.1-0.1-0.3-0.1-0.4l-5.8-40.1
				C28.4,148.1,28.7,147.5,29.2,147.2z"/>
		</g>
		<g class="st10">
			<path d="M12.7,137.1L12.7,137.1l17.2,9.9l0,0c-0.2-0.1-0.5,0-0.6,0.1l-17.2-10C12.2,137.1,12.4,137,12.7,137.1z"/>
		</g>
		<g class="st10">
			<path d="M34.2,188.9c0,0.1,0,0.3,0.1,0.4l0,0l5.3,10.8c0.1,0.1,0.2,0.2,0.3,0.3l0,0l-25.8-15l0,0c-0.1-0.1-0.2-0.2-0.3-0.3
				l-5.3-10.7l0,0c-0.1-0.1-0.1-0.3-0.1-0.4L34.2,188.9z"/>
		</g>
		<g>
			<path class="st29" d="M89.1,36.2l-16.3-9.4c-0.5-0.3-1.1-0.3-1.6,0.1l0,0l-3.7,2l1.7,2.3l0.6,0.7v16.2c0,0.9,0.5,1.8,1.3,2.3
				l12.2,7.1l0.1,0.7l2.5,3.5l3.8-2.3l0,0c0.4-0.2,0.6-0.6,0.6-1V38.7C90.4,37.7,89.9,36.8,89.1,36.2z"/>
		</g>
		<g>
			<path class="st30" d="M85.3,38.5l-16.6-9.6c-0.6-0.3-1.3-0.1-1.7,0.5c-0.1,0.2-0.2,0.4-0.2,0.6v19.9c0,0.9,0.5,1.8,1.3,2.3
				l16.5,9.6c0.6,0.3,1.4,0.1,1.7-0.5c0.1-0.2,0.1-0.4,0.1-0.6V40.9C86.6,40,86.1,39,85.3,38.5z"/>
		</g>
		<g>
			<path class="st31" d="M86.6,60.6V40.9c0-0.3-0.1-0.7-0.2-1l3.8-2.2c0.1,0.3,0.2,0.6,0.2,0.9v19.8c0,0.4-0.2,0.8-0.6,1.1l0,0
				L86,61.7C86.4,61.5,86.6,61.1,86.6,60.6z"/>
		</g>
		<g>
			<path class="st20" d="M84.1,51.1c-0.1,0.8-0.1,1.5-0.3,2.2c-0.2,0.9-0.9,1.2-1.6,0.5c-0.5-0.5-0.9-1-1.2-1.5
				c-0.4-0.6-0.8-1.3-1.2-2c-0.2-0.4-0.6-0.7-1-0.8c-1.5-0.6-2.9-1.2-4.3-1.8c-0.4-0.2-0.8-0.1-1.1,0.2c-0.5,0.4-1,0.8-1.6,1.1
				c-0.5,0.4-1.3,0.3-1.7-0.3v-0.1c-0.3-0.4-0.6-1-0.6-1.5c-0.3-1.8-0.2-3.7,0.3-5.5c0.2-0.7,0.6-1.3,1-1.9c0.6-0.9,1.7-1.2,2.7-0.7
				l0,0c0.8,0.4,1.5,1,2,1.7c0.5,0.5,1.2,0.9,1.9,1.1c0.2,0,0.3,0,0.5,0c1.1-0.4,2.4-0.2,3.3,0.7c0.7,0.6,1.2,1.4,1.6,2.3
				C83.5,46.7,84,48.9,84.1,51.1z M71.8,42.2c-0.1,0.3-0.2,0.5-0.1,0.8c0,0.2,0.2,0.4,0.4,0.5c0.2,0,0.3,0.1,0.5,0.2
				c0.1,0,0.2,0.2,0.2,0.3c0,0.2,0,0.4,0,0.6c0,0.4,0.3,0.8,0.8,0.8l0,0l0,0c0.1,0,0.2,0,0.2-0.2s0-0.6,0-1l1,0.4
				c0.1-0.1,0.1-0.2,0.1-0.3c0.1-0.4-0.1-0.9-0.5-1L74,43.1c-0.1,0-0.2-0.1-0.2-0.2V42c0-0.1,0-0.1,0-0.2c-0.3-0.3-0.6-0.4-1-0.4
				v1.2L71.8,42.2z M80.7,46.3c0,0.5,0.3,0.9,0.8,1.2c0.2,0.2,0.6,0.1,0.7-0.2l0,0c0-0.1,0.1-0.2,0.1-0.2c0.1-0.5-0.2-1.1-0.7-1.3
				c-0.2-0.1-0.4-0.2-0.6-0.1C80.7,45.8,80.7,46,80.7,46.3z M80.3,47.2c0-0.5-0.2-1-0.7-1.2c-0.2-0.2-0.6-0.1-0.8,0.1l0,0
				c-0.1,0.1-0.1,0.2-0.1,0.4c0,0.5,0.3,1,0.7,1.2c0.2,0.1,0.4,0.2,0.6,0.1C80.2,47.7,80.3,47.5,80.3,47.2z M80.3,44.6
				c0-0.5-0.3-0.9-0.7-1.1c-0.2-0.2-0.6-0.1-0.8,0.1c-0.1,0.1-0.1,0.2-0.1,0.4c0,0.5,0.2,1,0.7,1.2c0.2,0.1,0.4,0.2,0.6,0.1
				C80.2,45.1,80.3,44.9,80.3,44.6z"/>
		</g>
		<g>
			<path class="st32" d="M124.9,18.8l-16.3-9.4c-0.5-0.3-1.1-0.3-1.6,0.1l0,0l-3.6,2.1l1.7,2.3l0.6,0.7v16.2c0,0.9,0.5,1.8,1.3,2.3
				l12.2,7.1l0.1,0.7l2.5,3.5l3.8-2.2l0,0c0.3-0.2,0.6-0.6,0.6-1v-20C126.2,20.2,125.7,19.4,124.9,18.8z"/>
		</g>
		<g>
			<path class="st33" d="M121.1,21.1l-16.6-9.5c-0.6-0.3-1.3-0.1-1.7,0.5c-0.1,0.2-0.2,0.4-0.2,0.6v19.8c0,0.9,0.5,1.8,1.3,2.3
				l16.5,9.6c0.6,0.3,1.4,0.1,1.7-0.5c0.1-0.2,0.2-0.4,0.2-0.6V23.5C122.4,22.5,122,21.6,121.1,21.1z"/>
		</g>
		<g>
			<path class="st34" d="M122.5,43.2V23.5c0-0.3-0.1-0.7-0.2-1l3.8-2.2c0.1,0.3,0.2,0.6,0.2,0.9v19.7c0,0.4-0.2,0.8-0.6,1l0,0
				l-3.8,2.2C122.2,44,122.4,43.6,122.5,43.2z"/>
		</g>
		<g>
			<path class="st20" d="M119.2,30.5c0,1-0.3,2.1-0.7,3c-0.9,1.7-2.7,2.5-4.6,2.1c-1.5-0.3-2.9-1.1-4-2.3c-1.8-1.8-2.9-4.2-3.2-6.7
				c-0.2-1.3,0-2.6,0.5-3.8c0.6-1.3,1.8-2.3,3.2-2.5c1-0.1,2,0.1,2.9,0.5c1.5,0.7,2.9,1.9,3.8,3.3c1.1,1.5,1.8,3.3,2,5.2v0.2
				C119.2,29.9,119.2,30.2,119.2,30.5z M112.4,26.1V28c0,0.2,0.1,0.4,0.2,0.6c0.9,1.3,1.7,2.7,2.6,4c0.1,0.1,0.2,0.2,0.3,0.3
				c0.2,0.1,0.4,0,0.5-0.1v-0.1c0-0.2,0-0.5-0.2-0.7c-0.8-1.2-1.5-2.3-2.3-3.5c-0.1-0.1-0.1-0.3-0.1-0.5v-3.3c0-0.3-0.2-0.7-0.4-0.9
				c-0.2-0.1-0.4-0.1-0.5,0.1l0,0c0,0.1-0.1,0.1-0.1,0.2V26.1L112.4,26.1z"/>
		</g>
		<g>
			<path class="st35" d="M197.7,93.1l-16.4-9.4c-0.5-0.3-1.1-0.3-1.6,0.1l0,0l-3.6,2.1l1.7,2.3l0.6,0.7v16.2c0,1,0.5,1.9,1.4,2.3
				l12.2,7.1l0.1,0.7l2.5,3.5l3.8-2.3l0,0c0.4-0.2,0.6-0.6,0.6-1.1V95.5C199,94.5,198.5,93.6,197.7,93.1z"/>
		</g>
		<g>
			<path class="st36" d="M193.8,95.4l-16.6-9.5c-0.6-0.3-1.3-0.1-1.7,0.4c-0.1,0.2-0.2,0.4-0.2,0.6v19.8c0,1,0.5,1.9,1.4,2.3
				l16.5,9.6c0.6,0.3,1.4,0.1,1.7-0.5c0.1-0.2,0.2-0.4,0.2-0.6V97.8C195.2,96.8,194.7,95.9,193.8,95.4z"/>
		</g>
		<g>
			<path class="st37" d="M195.2,117.5V97.8c0-0.3-0.1-0.6-0.2-0.9l3.8-2.2c0.1,0.3,0.2,0.6,0.2,0.9v19.7c0,0.4-0.2,0.8-0.6,1.1l0,0
				l-3.9,2.3C194.9,118.5,195.2,118,195.2,117.5z"/>
		</g>
		<g>
			<path class="st20" d="M191.3,101.2v9.8c0,0.7-0.4,0.7-0.8,0.5c-0.3-0.2-0.6-0.3-0.8-0.5c-0.5-0.3-0.8-0.8-0.8-1.4v-9.4
				c0-0.3-0.1-0.5-0.3-0.6s-0.4-0.3-0.6-0.5c-0.2-0.3-0.1-0.5,0.1-0.7l1.3-1c0.2-0.2,0.5-0.2,0.7,0c0.2,0.1,0.3,0.3,0.4,0.5
				c0.5,0.9,1,1.9,1.6,2.8c0.1,0.1,0.1,0.2,0.1,0.3c0.1,0.3-0.1,0.4-0.4,0.3C191.7,101.4,191.5,101.3,191.3,101.2z"/>
		</g>
		<g>
			<path class="st20" d="M187.7,105.2v3.9c0,0.2-0.1,0.4-0.3,0.4c-0.1,0-0.1,0-0.2,0c-0.6-0.2-1.1-0.5-1.5-0.9
				c-0.2-0.3-0.4-0.6-0.4-1V100c0-0.3,0.2-0.6,0.6-0.4c0.6,0.2,1.1,0.5,1.6,1c0.2,0.3,0.3,0.6,0.3,1
				C187.7,102.8,187.7,104,187.7,105.2z"/>
		</g>
		<g>
			<path class="st20" d="M184.2,104.3v2.7c0,0.5-0.3,0.7-0.8,0.5c-0.3-0.2-0.6-0.3-0.9-0.5c-0.5-0.3-0.8-0.8-0.7-1.3v-5.5
				c0-0.2,0.2-0.4,0.4-0.4h0.1c0.6,0.2,1.1,0.5,1.6,1c0.2,0.3,0.4,0.6,0.3,1C184.1,102.6,184.2,103.4,184.2,104.3z"/>
		</g>
		<g>
			<path class="st20" d="M180.6,103.3v1.7c0,0.6-0.3,0.7-0.8,0.5c-0.3-0.1-0.5-0.3-0.8-0.5c-0.5-0.3-0.8-0.8-0.8-1.4v-3.3
				c0-0.5,0.3-0.7,0.8-0.5c0.3,0.1,0.6,0.3,0.9,0.5c0.5,0.3,0.8,0.9,0.8,1.4L180.6,103.3z"/>
		</g>
		<g>
			<path class="st38" d="M216.4,55.4L200.1,46c-0.5-0.3-1.1-0.3-1.6,0.1l0,0l-3.6,2.1l1.7,2.3l0.6,0.7v16.2c0,1,0.6,1.8,1.4,2.3
				l12.2,7.1l0.1,0.7l2.5,3.5l3.8-2.3l0,0c0.4-0.2,0.6-0.6,0.6-1.1V57.8C217.7,56.8,217.2,55.9,216.4,55.4z"/>
		</g>
		<g>
			<path class="st39" d="M212.6,57.7L196,48.2c-0.6-0.4-1.4-0.2-1.7,0.4c-0.1,0.2-0.2,0.4-0.2,0.6V69c0,1,0.5,1.9,1.4,2.3l16.5,9.6
				c0.6,0.3,1.4,0.1,1.7-0.5c0.1-0.2,0.2-0.4,0.2-0.6V60.1C214,59.1,213.5,58.2,212.6,57.7z"/>
		</g>
		<g>
			<path class="st40" d="M214,79.8V60.1c0-0.3-0.1-0.7-0.2-1l3.9-2.2c0.1,0.3,0.2,0.6,0.2,0.9v19.8c0,0.4-0.2,0.9-0.6,1.1l0,0
				l-3.8,2.2C213.9,80.6,214.1,80.2,214,79.8z"/>
		</g>
		<g>
			<path class="st20" d="M207.8,67.9c-0.3-0.1-0.6,0-0.8,0.2c-0.4,0.4-0.8,0.8-1.2,1.1c-0.4,0.3-0.6,0.8-0.6,1.2v0.1l0,0
				c0,0-0.3-0.1-0.5-0.2c-0.8-0.3-1.4-0.8-2-1.4c0-0.1-0.1-0.1-0.1-0.2c0.1-0.6,0-1.1-0.2-1.6c-0.4-1-0.7-2-1.1-3
				c-0.1-0.3-0.3-0.6-0.5-0.9c0-0.1-0.1-0.2-0.1-0.2v-1.1c0-0.1,0.1-0.2,0.1-0.2c0.5-0.3,1-0.3,1.5-0.3c0.3,0,0.6,0.1,0.9,0.3
				c0.8,0.6,1.7,1.1,2.5,1.7c0.1,0.1,0.2,0.1,0.2,0.2c0.7,0.8,1.3,1.8,1.7,2.7c0.1,0.1,0.1,0.3,0.1,0.4
				C207.9,67.1,207.9,67.5,207.8,67.9z M204.2,64.2c-0.1,0-0.2-0.1-0.3-0.1c-0.4-0.1-0.6,0.1-0.6,0.4c0,0.1,0,0.2,0,0.3
				c0.1,0.2,0.3,0.5,0.5,0.7s0.4,0.4,0.6,0.6c0.1,0.1,0.1,0.2,0.1,0.2l0,0c-0.2-0.1-0.4-0.2-0.5-0.4c-0.2-0.2-0.3-0.3-0.5-0.5
				l-0.2,0.3c-0.1,0.1-0.1,0.2,0,0.2l0,0c0.2,0.2,0.4,0.4,0.6,0.5c0.1,0.1,0.2,0.2,0.2,0.4c0,0,0,0.1,0,0.2l0.4,0.3V67l0.2,0.1
				c0.5,0.1,0.7-0.1,0.6-0.6c0-0.3-0.2-0.5-0.4-0.7s-0.4-0.4-0.6-0.6l-0.2-0.2c0-0.1,0-0.1,0-0.2h0.2c0.2,0.1,0.3,0.2,0.5,0.4
				c0.1,0.1,0.2,0.2,0.3,0.3l0.3-0.4c-0.2-0.2-0.4-0.4-0.6-0.6c-0.1-0.1-0.1-0.2-0.1-0.3V64c-0.1-0.1-0.3-0.2-0.4-0.3L204.2,64.2z"
				/>
		</g>
		<g>
			<path class="st20" d="M208.6,74.3c-0.6-0.4-1.1-0.8-1.7-1.1c-0.4-0.2-0.8-0.6-0.9-1.1c-0.1-0.4-0.2-0.8-0.2-1.2
				c0-0.3,0.2-0.6,0.4-0.8l1.3-1.2c0.1-0.1,0.3-0.1,0.5,0l0,0l0,0c0.2,0.2,0.4,0.4,0.4,0.7c0,0.2,0,0.3-0.1,0.4
				c-0.4,0.4-0.8,0.8-1.3,1.2l0.6,0.8c0.5-0.5,1-0.9,1.4-1.4c0.2-0.2,0.2-0.4,0.1-0.7c-0.1-0.5-0.3-1-0.6-1.3
				c-0.1-0.1-0.1-0.2-0.1-0.3c0.1-0.7,0.2-1.4,0.3-2.2c0-0.2,0.2-0.4,0.4-0.4c0.1,0,0.1,0,0.2,0c0.6,0.2,1,0.8,1,1.5
				c-0.1,1.3-0.2,2.5-0.3,3.8c0,0.1-0.1,0.1-0.1,0.2l-1.6,1.5c-0.1,0.1-0.1,0.2-0.1,0.3L208.6,74.3z"/>
		</g>
		<g>
			<path class="st20" d="M201,66.9l-0.1-0.2c-0.3-0.8-0.6-1.7-0.9-2.5c0-0.1-0.1-0.2-0.1-0.3c0-0.3,0.2-0.4,0.4-0.3
				c0.2,0.1,0.4,0.3,0.5,0.6l0.4,1l0.7,2c0.1,0.4,0.2,0.9,0.1,1.3c-0.1,0.4-0.4,0.7-0.6,1l-2.3-1.5c0.2-0.3,0.3-0.6,0.5-0.8
				c0-0.1,0-0.2,0-0.3c-0.4-1.2-0.8-2.4-1.2-3.6c0-0.1,0-0.2,0-0.3c0.1-1.2,0.2-2.5,0.3-3.7c0-0.5,0.4-0.7,0.8-0.4
				c0.5,0.3,0.8,0.8,0.8,1.3c0,0.8,0,1.6-0.1,2.4v0.1H200c-0.3-0.1-0.6,0.1-0.7,0.4l0,0c0,0.1,0,0.1,0,0.2c0,0.2,0,0.5,0.1,0.7
				c0.3,0.9,0.6,1.9,1,2.8c0,0.1,0.1,0.1,0.2,0.1S200.9,66.9,201,66.9z"/>
		</g>
		<g>
			<path class="st20" d="M206.9,60.5l-0.6,0.8l-0.1-0.1l-2.6-1.7c-0.1-0.1-0.1-0.1-0.2-0.2c-0.1-0.5-0.2-0.9-0.4-1.4l0.2,0.2
				c0.2,0.1,0.4,0.2,0.6,0.2c0.3,0,0.5,0.1,0.6,0.3c0.2,0.2,0.3,0.3,0.4,0.5c0.1,0.1,0.2,0.1,0.3,0.1c0.2,0,0.3,0,0.5,0.1
				s0.4,0.3,0.5,0.5c0.2,0.2,0.4,0.4,0.6,0.6C206.8,60.4,206.8,60.4,206.9,60.5z"/>
		</g>
		<g>
			<path class="st20" d="M205.8,62.6l-1.6-1l-0.3-0.2c-0.5-0.4-0.5-0.4-0.4-1l0.2,0.1l2,1.4c0.1,0,0.2,0.2,0.1,0.3
				C205.9,62.3,205.8,62.4,205.8,62.6z"/>
		</g>
		<g>
			<polygon class="st41" points="81,95 75,91.5 75,94.2 81,97.6 			"/>
		</g>
		<g>
			<polygon class="st41" points="86.6,107.6 81.8,104.9 81.8,107.5 86.6,110.2 			"/>
		</g>
		<g>
			<polygon class="st41" points="79.1,108 76.2,106.4 76.2,109.1 79.1,110.7 			"/>
		</g>
		<g>
			<path class="st41" d="M97.2,118.5v2.6l5.7,3.3V122v-0.1L97.2,118.5z"/>
		</g>
		<g>
			<polygon class="st42" points="91.2,119.7 89.9,119 89.9,121.6 91.2,122.3 			"/>
		</g>
		<g>
			<polygon class="st43" points="73.9,90.9 71.1,89.2 71.1,92 73.9,93.6 			"/>
		</g>
		<g>
			<polygon class="st43" points="101.5,106.8 99.2,105.4 99.2,108 101.5,109.3 			"/>
		</g>
		<g>
			<polygon class="st43" points="98.1,104.8 92.9,101.8 92.9,104.4 98.1,107.4 			"/>
		</g>
		<g>
			<polygon class="st43" points="91.9,101.2 85.4,97.5 85.4,100.1 91.9,103.8 			"/>
		</g>
		<g>
			<polygon class="st43" points="78.5,98.2 71.1,94 71.1,96.7 78.5,100.9 			"/>
		</g>
		<g>
			<polygon class="st43" points="85.5,102.2 79.5,98.8 79.5,101.5 85.5,104.9 			"/>
		</g>
		<g>
			<polygon class="st43" points="89.6,104.7 86.5,102.9 86.5,105.5 89.6,107.3 			"/>
		</g>
		<g>
			<polygon class="st43" points="93.3,106.8 90.7,105.3 90.7,107.9 93.3,109.4 			"/>
		</g>
		<g>
			<polygon class="st43" points="80.8,104.3 74.9,100.9 74.9,103.6 80.8,106.9 			"/>
		</g>
		<g>
			<polygon class="st43" points="89.6,109.3 87.6,108.2 87.6,110.9 89.6,111.9 			"/>
		</g>
		<g>
			<polygon class="st43" points="95.2,112.6 94.1,112 94.1,114.6 95.2,115.2 			"/>
		</g>
		<g>
			<polygon class="st43" points="93.1,111.4 90.6,109.9 90.6,112.6 93.1,114 			"/>
		</g>
		<g>
			<polygon class="st43" points="73.8,100.3 71.1,98.7 71.1,101.4 73.8,103 			"/>
		</g>
		<g>
			<polygon class="st43" points="90.7,114.7 85.2,111.6 85.2,114.2 90.7,117.3 			"/>
		</g>
		<g>
			<polygon class="st43" points="96.2,117.9 91.7,115.3 91.7,117.9 96.2,120.5 			"/>
		</g>
		<g>
			<polygon class="st43" points="75.2,105.8 71.1,103.4 71.1,106.1 75.2,108.5 			"/>
		</g>
		<g>
			<polygon class="st43" points="73.2,109.3 71.1,108.1 71.1,110.8 73.2,112 			"/>
		</g>
		<g>
			<polygon class="st43" points="80.8,113.7 74.2,109.9 74.2,112.6 80.8,116.4 			"/>
		</g>
		<g>
			<polygon class="st43" points="85.5,116.4 81.8,114.3 81.8,117 85.5,119.1 			"/>
		</g>
		<g>
			<polygon class="st43" points="88.9,118.4 86.5,117 86.5,119.7 88.9,121 			"/>
		</g>
		<g>
			<polygon class="st43" points="75.3,115.3 71.1,112.8 71.1,115.6 75.3,118 			"/>
		</g>
		<g>
			<polygon class="st41" points="78.9,117.3 76.4,115.9 76.4,118.6 78.9,120 			"/>
		</g>
		<g>
			<polygon class="st42" points="84,120.3 80,118 80,120.6 84,122.9 			"/>
		</g>
	</g>
</g>
</svg>
