<?xml version="1.0" encoding="utf-8"?>
<!-- Generator: Adobe Illustrator 21.0.0, SVG Export Plug-In . SVG Version: 6.00 Build 0)  -->
<svg version="1.1" id="Capa_1" xmlns="http://www.w3.org/2000/svg" xmlns:xlink="http://www.w3.org/1999/xlink" x="0px" y="0px"
	 viewBox="0 0 115 107" style="enable-background:new 0 0 115 107;" xml:space="preserve">
<style type="text/css">
	.st0{fill:#666666;}
</style>
<title>tech-icon1</title>
<g>
	<path class="st0" d="M48.1,43.9c-1.2,0-2,0.1-2.4,0.3v7.6c0.5,0.1,1.1,0.1,1.9,0.1c3.1,0,5.1-1.6,5.1-4.2
		C52.7,45.3,51.1,43.9,48.1,43.9z"/>
	<path class="st0" d="M32.2,28.5v48.6h48.6V28.5C80.8,28.5,32.2,28.5,32.2,28.5z M56.2,53.8c-2,1.9-5,2.7-8.4,2.7
		c-0.8,0-1.5,0-2-0.1v9.3h-5.8V40c1.8-0.3,4.3-0.5,7.9-0.5c3.6,0,6.2,0.7,7.9,2.1c1.7,1.3,2.8,3.4,2.8,6
		C58.6,50.1,57.7,52.3,56.2,53.8z M64.9,66c-2.5,0-4.7-0.5-6.1-1.3l1-4.2c1.1,0.6,3.3,1.4,5.1,1.4c1.7,0,2.5-0.6,2.5-1.6
		c0-1-0.6-1.4-2.8-2.1c-3.9-1.3-5.4-3.4-5.4-5.6c0-3.5,3-6.2,7.6-6.2c2.2,0,4.1,0.5,5.3,1.1l-1,4c-0.8-0.5-2.5-1.1-4.1-1.1
		c-1.4,0-2.2,0.6-2.2,1.6c0,0.9,0.7,1.4,3,2.1c3.6,1.2,5.1,3,5.1,5.8C73.1,63.4,70.3,66,64.9,66z"/>
</g>
</svg>
