<?xml version="1.0" encoding="utf-8"?>
<!-- Generator: Adobe Illustrator 21.0.0, SVG Export Plug-In . SVG Version: 6.00 Build 0)  -->
<svg version="1.1" id="Capa_1" xmlns="http://www.w3.org/2000/svg" xmlns:xlink="http://www.w3.org/1999/xlink" x="0px" y="0px"
	 viewBox="0 0 115 107" style="enable-background:new 0 0 115 107;" xml:space="preserve">
<style type="text/css">
	.st0{fill:#666666;}
</style>
<title>tech-icon1</title>
<g>
	<path class="st0" d="M49.9,32.2v-5.7h-0.3c-4.2,0-7.7,2.4-9.6,5.7c0.1,0,0.3,0,0.4,0H49.9z"/>
	<path class="st0" d="M64.3,26.3c0-1-0.8-1.7-1.7-1.7H55c-1,0-1.7,0.8-1.7,1.7v5.9h11V26.3z"/>
	<path class="st0" d="M77.1,35.6H40.4c-3.9,0-7.2,3.3-7.2,7.2V54c0,4,3.3,7.2,7.2,7.2h10.2c2.1,0,4.2-0.8,5.6-2.4l0,0
		c0.6-0.6,1.5-1,2.4-1c0.9,0,1.8,0.3,2.4,1l0,0c1.5,1.5,3.5,2.4,5.6,2.4H77c3.9,0,7.2-3.2,7.2-7.2V42.8
		C84.4,38.8,81.1,35.6,77.1,35.6L77.1,35.6z"/>
	<path class="st0" d="M61.3,62.3L61.3,62.3c-0.7-0.6-1.5-1-2.4-1c-0.9,0-1.8,0.3-2.4,1l0,0c-1.5,1.5-3.5,2.4-5.6,2.4h-12
		c0.9,10.2,9.5,18.3,19.9,18.3s19.2-8,20-18.3H66.9C64.8,64.6,62.8,63.8,61.3,62.3L61.3,62.3z M64.9,71.9c-1.9,0.6-4,1-6,1
		c-2.1,0-4.1-0.3-6-1c-0.9-0.3-1.4-1.2-1.1-2.1c0.3-0.9,1.2-1.4,2.1-1.1c3.2,1,6.7,1,9.9,0c0.9-0.3,1.9,0.2,2.1,1.1
		C66.2,70.6,65.8,71.6,64.9,71.9z"/>
	<path class="st0" d="M77.6,32.2c-1.9-3.5-5.5-5.7-9.6-5.7h-0.3v5.7h9.4C77.3,32.2,77.4,32.2,77.6,32.2L77.6,32.2z"/>
</g>
</svg>
