<?xml version="1.0" encoding="utf-8"?>
<!-- Generator: Adobe Illustrator 24.3.0, SVG Export Plug-In . SVG Version: 6.00 Build 0)  -->
<svg version="1.1" id="home_banner" xmlns="http://www.w3.org/2000/svg" xmlns:xlink="http://www.w3.org/1999/xlink" x="0px"
	 y="0px" viewBox="0 0 225 232.7" style="enable-background:new 0 0 225 232.7;" xml:space="preserve">
<style type="text/css">
	.st0{fill:#F4767A;}
	.st1{fill:#ED5561;}
	.st2{fill:#BBCEE1;}
	.st3{fill:#D8395A;}
	.st4{opacity:0.4;}
	.st5{fill:#FFFFFF;}
	.st6{fill:#933E31;}
	.st7{fill:#0082D1;}
	.st8{fill:#9D4D36;}
	.st9{fill:#A7BCCE;}
	.st10{fill:#0093ED;}
	.st11{fill:#E8EBF5;}
	.st12{fill:#0F4463;}
	.st13{fill:#0B3B56;}
	.st14{fill:#1F5E77;}
	.st15{fill:#07304B;}
	.st16{fill:url(#SVGID_1_);}
	.st17{fill:#FED4BD;}
	.st18{fill:#F4C5A2;}
	.st19{fill:#DE495A;}
	.st20{fill:#1C75BC;}
	.st21{fill:#EF4136;}
	.st22{fill:#91A6B7;}
	.st23{fill:#79FF68;}
	.st24{fill:#50E85E;}
	.st25{fill:#3CC743;}
	.st26{fill:#9263C1;}
	.st27{fill:#8444B2;}
	.st28{fill:#7231A3;}
	.st29{fill:#FFA8E1;}
	.st30{fill:#FF7AD2;}
	.st31{fill:#DE64C6;}
	.st32{fill:#FCEC32;}
	.st33{fill:#F5D012;}
	.st34{fill:#EAA10C;}
	.st35{fill:#EDF0F8;}
	.st36{fill:#F0CEC9;}
	.st37{fill:#FFFBF0;}
	.st38{fill:#F5DDD8;}
	.st39{fill:#DFBAB8;}
</style>
<path class="st0" d="M83.5,54.3l-16.3-9.4c-0.5-0.3-1.1-0.3-1.6,0.1l0,0l-3.7,2l1.7,2.3l0.6,0.7v16.2c0,1,0.5,1.9,1.3,2.3l12.2,7.1
	l0.1,0.7l2.5,3.5l3.8-2.3l0,0l0,0l0,0c0.4-0.2,0.6-0.6,0.6-1V56.8C84.8,55.8,84.3,54.9,83.5,54.3z"/>
<path class="st1" d="M79.7,56.6L63.1,47c-0.6-0.3-1.3-0.1-1.7,0.5c-0.1,0.2-0.2,0.4-0.2,0.6V68c0,1,0.5,1.9,1.3,2.3L79,79.9
	c0.6,0.3,1.4,0.1,1.7-0.5c0.1-0.2,0.1-0.4,0.1-0.6V59C81,58,80.5,57.1,79.7,56.6z"/>
<path class="st2" d="M80.4,79.8L80.4,79.8L80.4,79.8z"/>
<path class="st3" d="M81,78.7V59c0-0.3-0.1-0.7-0.2-1l3.8-2.2c0.1,0.3,0.2,0.6,0.2,0.9v19.8c0,0.4-0.2,0.8-0.6,1.1l0,0l0,0l0,0
	l-3.8,2.2C80.8,79.5,81,79.1,81,78.7z"/>
<g class="st4">
	<polygon class="st5" points="73.1,87.1 73.1,88.1 75.2,89.3 75.2,88.4 	"/>
</g>
<path class="st6" d="M65,202.7c-3.3,0-2.2-2.5-2.2-2.5c-4.9-1.5-7.3-0.7-7.3-0.7c-0.7,2.6-1,5.3-0.8,8c0,0.5,0.4,0.8,0.8,1
	c3.2,1.3,6.6,1.7,10,1.1c3.6-0.4,7.5-3.7,6.6-7.1C71.5,200.4,68.3,202.6,65,202.7z"/>
<path class="st7" d="M63.5,171.6c-1.3-1.6-3.4-2.3-5.4-1.6l-29.6,5.7l1.1,7.6c3,3.6,7.9,5.1,12.5,3.7c4.6-1.3,9.1-3.3,13.1-6l-1,21
	c3,0.8,6.1,0.4,8.8-1.1c0.7-0.4,1.3-20.6,1.6-25.8C64.7,173.8,64.3,172.6,63.5,171.6z"/>
<path class="st8" d="M79.2,208.8c-3.4,0-2.3-2.6-2.3-2.6c-5.1-1.6-7.6-0.7-7.6-0.7c-0.8,2.7-1,5.5-0.8,8.3c0,0.5,0.4,0.9,0.9,1.1
	c3.3,1.3,6.9,1.7,10.3,1.2c3.8-0.4,7.7-3.9,6.8-7.4C85.9,206.4,82.7,208.7,79.2,208.8z"/>
<polygon class="st2" points="45.5,200.4 20.1,185.7 20.1,189.3 45.5,203.9 "/>
<polygon class="st5" points="43.2,172.4 20.1,185.7 45.5,200.4 68.6,187.1 "/>
<polygon class="st9" points="68.7,187.1 45.5,200.4 45.5,203.9 68.7,190.6 "/>
<path class="st10" d="M77.7,176.4c-1.3-1.7-3.6-2.4-5.6-1.7l-30.7,5.9l1.2,7.9c3.2,3.8,8.3,5.3,13,3.9c4.8-1.3,9.4-3.4,13.6-6.2
	L68,208c3.1,0.8,6.3,0.4,9.1-1.1c0.7-0.4,1.4-21.4,1.6-26.8C78.9,178.8,78.5,177.5,77.7,176.4z"/>
<path class="st11" d="M22.8,132l52.5-30.5c2.2-1.3,5-1.3,7.2,0l82.7,47.8c1.5,0.9,2,2.8,1.1,4.3c-0.3,0.5-0.7,0.9-1.1,1.1
	l-51.3,29.8c-2.6,1.5-5.9,1.5-8.6,0l-82.5-47.7c-1.4-0.8-1.8-2.5-1-3.9C22,132.6,22.3,132.2,22.8,132z"/>
<path class="st9" d="M22.8,136.9l82.5,47.7c2.6,1.5,5.9,1.5,8.6,0l51.3-29.8c1-0.6,1.6-1.6,1.6-2.7v4l0,0c0,1.1-0.6,2.1-1.6,2.7
	l-51.3,29.8c-2.6,1.5-5.9,1.5-8.6,0l-82.5-47.7c-0.9-0.5-1.4-1.4-1.4-2.5l0,0v-3.9C21.4,135.5,21.9,136.4,22.8,136.9z"/>
<path class="st2" d="M22.8,136.9l82.5,47.7c1.2,0.7,2.5,1.1,3.9,1.1v3.9c-1.4,0-2.7-0.4-3.9-1.1l-82.5-47.7
	c-0.9-0.5-1.4-1.4-1.4-2.5l0,0v-3.9C21.4,135.5,21.9,136.4,22.8,136.9z"/>
<path class="st12" d="M61.5,143l8.9-5.1c0.4-0.2,0.9-0.2,1.4,0l27.5,15.9c0.3,0.2,0.4,0.5,0.2,0.8c0,0.1-0.1,0.1-0.2,0.2l-8.7,5
	c-0.5,0.3-1.1,0.3-1.6,0L61.5,144c-0.3-0.2-0.3-0.5-0.2-0.7C61.4,143.1,61.5,143,61.5,143z"/>
<path class="st13" d="M61.5,143.9L89,159.8c0.5,0.3,1.1,0.3,1.6,0l8.7-5c0.2-0.1,0.3-0.3,0.3-0.5v1l0,0c0,0.2-0.1,0.4-0.3,0.5
	l-8.7,5c-0.5,0.3-1.1,0.3-1.6,0L61.5,145c-0.2-0.1-0.3-0.3-0.3-0.5l0,0v-1.1C61.3,143.7,61.4,143.8,61.5,143.9z"/>
<polygon class="st14" points="70.3,139.3 71.5,138.6 72.7,139.4 71.6,140 "/>
<polygon class="st14" points="71.9,140.2 73.1,139.6 74.3,140.3 73.2,140.9 "/>
<polygon class="st14" points="73.5,141.1 74.6,140.5 75.9,141.2 74.8,141.8 "/>
<polygon class="st14" points="75.1,142 76.2,141.4 77.5,142.1 76.4,142.8 "/>
<polygon class="st14" points="76.7,142.9 77.8,142.3 79.1,143 77.9,143.7 "/>
<polygon class="st14" points="78.3,143.8 79.4,143.2 80.6,143.9 79.5,144.6 "/>
<polygon class="st14" points="79.8,144.8 80.9,144.1 82.2,144.8 81.1,145.5 "/>
<polygon class="st14" points="81.4,145.7 82.5,145 83.8,145.7 82.7,146.4 "/>
<polygon class="st14" points="83,146.6 84.1,145.9 85.4,146.6 84.3,147.3 "/>
<polygon class="st14" points="84.6,147.5 85.7,146.8 87,147.6 85.8,148.2 "/>
<polygon class="st14" points="86.2,148.4 87.3,147.7 88.5,148.5 87.4,149.1 "/>
<polygon class="st14" points="87.7,149.3 88.9,148.6 90.1,149.4 89,150 "/>
<polygon class="st14" points="90.4,149.6 91.7,150.3 90.6,150.9 89.3,150.2 "/>
<polygon class="st14" points="70.2,140.9 68.9,140.1 70,139.5 71.3,140.2 "/>
<polygon class="st14" points="72.9,141.1 71.8,141.8 70.5,141 71.6,140.4 "/>
<polygon class="st14" points="74.4,142 73.3,142.7 72.1,141.9 73.2,141.3 "/>
<polygon class="st14" points="76,142.9 74.9,143.6 73.7,142.9 74.8,142.2 "/>
<polygon class="st14" points="77.6,143.9 76.5,144.5 75.2,143.8 76.3,143.1 "/>
<polygon class="st14" points="79.2,144.8 78.1,145.4 76.8,144.7 77.9,144 "/>
<polygon class="st14" points="80.8,145.7 79.7,146.3 78.4,145.6 79.5,144.9 "/>
<polygon class="st14" points="82.4,146.6 81.2,147.2 80,146.5 81.1,145.9 "/>
<polygon class="st14" points="83.9,147.5 82.8,148.1 81.6,147.4 82.7,146.8 "/>
<polygon class="st14" points="85.5,148.4 84.4,149 83.1,148.3 84.2,147.7 "/>
<polygon class="st14" points="87.1,149.3 86,149.9 84.7,149.2 85.8,148.6 "/>
<polygon class="st14" points="88.7,150.2 87.6,150.9 86.3,150.1 87.4,149.5 "/>
<polygon class="st14" points="89,150.4 90.3,151.1 89.2,151.8 87.9,151 "/>
<polygon class="st14" points="68.7,141.7 67.5,141 68.6,140.3 69.8,141 "/>
<polygon class="st14" points="71.4,141.9 70.3,142.6 69.1,141.9 70.2,141.2 "/>
<polygon class="st14" points="70.6,142.8 71.7,142.1 73,142.9 71.9,143.5 "/>
<polygon class="st14" points="74.6,143.8 73.5,144.4 72.2,143.7 73.3,143 "/>
<polygon class="st14" points="76.2,144.7 75.1,145.3 73.8,144.6 74.9,143.9 "/>
<polygon class="st14" points="77.8,145.6 76.6,146.2 75.4,145.5 76.5,144.9 "/>
<polygon class="st14" points="79.3,146.5 78.2,147.1 76.9,146.4 78.1,145.8 "/>
<polygon class="st14" points="80.9,147.4 79.8,148.1 78.5,147.3 79.7,146.7 "/>
<polygon class="st14" points="82.5,148.3 81.4,149 80.1,148.2 81.2,147.6 "/>
<polygon class="st14" points="84.1,149.2 83,149.9 81.7,149.1 82.8,148.5 "/>
<polygon class="st14" points="85.7,150.1 84.6,150.8 83.3,150.1 84.4,149.4 "/>
<polygon class="st14" points="84.9,151 86,150.3 87.2,151.1 86.1,151.7 "/>
<polygon class="st14" points="87.6,151.2 88.8,152 87.7,152.6 86.4,151.9 "/>
<polygon class="st14" points="67.3,142.5 66,141.8 67.1,141.1 68.4,141.9 "/>
<polygon class="st14" points="67.6,142.7 68.7,142.1 70,142.8 68.9,143.4 "/>
<polygon class="st14" points="69.2,143.6 70.3,143 71.6,143.7 70.4,144.3 "/>
<polygon class="st14" points="70.8,144.5 71.9,143.9 73.2,144.6 72,145.2 "/>
<polygon class="st14" points="72.3,145.4 73.5,144.8 74.7,145.5 73.6,146.2 "/>
<polygon class="st14" points="73.9,146.3 75,145.7 76.3,146.4 75.2,147.1 "/>
<polygon class="st14" points="75.5,147.2 76.6,146.6 77.9,147.3 76.8,148 "/>
<polygon class="st14" points="77.1,148.2 78.2,147.5 79.5,148.2 78.4,148.9 "/>
<polygon class="st14" points="78.7,149.1 79.8,148.4 81.1,149.2 79.9,149.8 "/>
<polygon class="st14" points="80.2,150 81.4,149.3 82.6,150.1 81.5,150.7 "/>
<polygon class="st14" points="81.8,150.9 82.9,150.2 84.2,151 83.1,151.6 "/>
<polygon class="st14" points="83.4,151.8 84.5,151.2 85.8,151.9 84.7,152.5 "/>
<polygon class="st14" points="86.1,152.1 87.4,152.8 86.3,153.4 85,152.7 "/>
<polygon class="st14" points="65.8,143.4 64.6,142.6 65.7,142 67,142.7 "/>
<polygon class="st14" points="66.2,143.5 67.3,142.9 68.5,143.6 67.4,144.3 "/>
<polygon class="st14" points="67.7,144.4 68.9,143.8 70.1,144.5 69,145.2 "/>
<polygon class="st14" points="69.3,145.4 70.4,144.7 71.7,145.4 70.6,146.1 "/>
<polygon class="st14" points="70.9,146.3 72,145.6 73.3,146.4 72.2,147 "/>
<polygon class="st14" points="72.5,147.2 73.6,146.5 74.9,147.3 73.8,147.9 "/>
<polygon class="st14" points="74.1,148.1 75.2,147.4 76.4,148.2 75.3,148.8 "/>
<polygon class="st14" points="75.7,149 76.8,148.4 78,149.1 76.9,149.7 "/>
<polygon class="st14" points="77.2,149.9 78.3,149.3 79.6,150 78.5,150.6 "/>
<polygon class="st14" points="78.8,150.8 79.9,150.2 81.2,150.9 80.1,151.6 "/>
<polygon class="st14" points="80.4,151.7 81.5,151.1 82.8,151.8 81.7,152.5 "/>
<polygon class="st14" points="82,152.6 83.1,152 84.3,152.7 83.2,153.4 "/>
<polygon class="st14" points="84.7,152.9 85.9,153.6 84.8,154.3 83.6,153.6 "/>
<polygon class="st14" points="64.2,142.8 65.5,143.6 64.4,144.2 63.1,143.5 "/>
<polygon class="st14" points="67.1,144.5 66,145.1 64.7,144.4 65.8,143.7 "/>
<polygon class="st14" points="68.7,145.4 67.6,146 66.3,145.3 67.4,144.6 "/>
<polygon class="st14" points="70.3,146.3 69.2,146.9 67.9,146.2 69,145.6 "/>
<polygon class="st14" points="71.8,147.2 70.7,147.8 69.5,147.1 70.6,146.5 "/>
<polygon class="st14" points="73.4,148.1 72.3,148.8 71,148 72.2,147.4 "/>
<polygon class="st14" points="73.7,148.3 75.3,149.2 75.3,149.2 75.6,149.4 76.9,150.1 76.9,150.1 77.5,150.5 78.5,151 78.5,151 
	79.5,151.6 81.3,152.6 80.2,153.3 78.3,152.2 77.4,151.7 77.4,151.7 76.4,151.1 75.8,150.8 75.8,150.8 74.5,150 74.2,149.8 
	74.2,149.8 72.6,148.9 "/>
<polygon class="st14" points="82.9,153.6 81.8,154.2 80.5,153.5 81.6,152.8 "/>
<polygon class="st14" points="84.5,154.5 83.4,155.1 82.1,154.4 83.2,153.7 "/>
<polygon class="st14" points="92.5,152 93.6,151.4 94.9,152.1 93.8,152.8 "/>
<polygon class="st14" points="94.1,152.9 95.2,152.3 96.4,153 95.3,153.7 "/>
<polygon class="st14" points="95.7,153.9 96.8,153.2 98,153.9 96.9,154.6 "/>
<polygon class="st14" points="93.4,152.9 92.3,153.6 91,152.9 92.2,152.2 "/>
<polygon class="st14" points="95,153.9 93.9,154.5 92.6,153.8 93.7,153.1 "/>
<polygon class="st14" points="96.6,154.8 95.5,155.4 94.2,154.7 95.3,154 "/>
<polygon class="st14" points="92,153.8 90.9,154.4 89.6,153.7 90.7,153.1 "/>
<polygon class="st14" points="93.6,154.7 92.4,155.3 91.2,154.6 92.3,154 "/>
<polygon class="st14" points="95.1,155.6 94,156.2 92.8,155.5 93.9,154.9 "/>
<polygon class="st14" points="88.2,154.5 89.3,153.9 90.5,154.6 89.4,155.3 "/>
<polygon class="st14" points="89.7,155.4 90.8,154.8 92.1,155.5 91,156.2 "/>
<polygon class="st14" points="91.3,156.4 92.4,155.7 93.7,156.4 92.6,157.1 "/>
<polygon class="st14" points="86.7,155.4 87.8,154.7 89.1,155.4 88,156.1 "/>
<polygon class="st14" points="88.3,156.3 89.4,155.6 90.7,156.4 89.6,157 "/>
<polygon class="st14" points="89.9,157.2 91,156.5 92.3,157.3 91.1,157.9 "/>
<polygon class="st14" points="87.7,156.3 86.5,156.9 85.3,156.2 86.4,155.6 "/>
<polygon class="st14" points="89.2,157.2 88.1,157.8 86.8,157.1 88,156.5 "/>
<path class="st14" d="M81.3,134.4l8.8-5.1c0.4-0.2,0.8-0.2,1.2,0l20.8,12c0.3,0.1,0.3,0.5,0.2,0.7c0,0.1-0.1,0.2-0.2,0.2l-8.6,5
	c-0.4,0.3-1,0.3-1.4,0l-20.8-12c-0.2-0.1-0.3-0.4-0.2-0.6C81.2,134.6,81.2,134.5,81.3,134.4z"/>
<path class="st15" d="M81.3,135.3l20.8,12c0.4,0.3,1,0.3,1.4,0l8.6-5c0.2-0.1,0.3-0.3,0.3-0.4v1.1l0,0c0,0.2-0.1,0.4-0.3,0.4l-8.6,5
	c-0.4,0.3-1,0.3-1.4,0l-20.8-12c-0.1-0.1-0.2-0.2-0.2-0.4l0,0v-1.1C81.1,135,81.2,135.2,81.3,135.3z"/>
<path class="st13" d="M81.3,135.3l20.8,12c0.2,0.1,0.4,0.2,0.7,0.2v1.1c-0.2,0-0.5-0.1-0.7-0.2l-20.8-12c-0.1-0.1-0.2-0.2-0.2-0.4
	l0,0v-1.1C81.1,135,81.2,135.2,81.3,135.3z"/>
<polygon class="st12" points="104,135.2 87.9,125.9 87.9,133.9 104,143.2 "/>
<polygon class="st15" points="90.1,124.6 87.9,125.9 104,135.2 106.3,133.9 "/>
<polygon class="st15" points="106.3,133.9 104,135.2 104,143.2 106.3,141.9 "/>
<linearGradient id="SVGID_1_" gradientUnits="userSpaceOnUse" x1="89.7699" y1="-522.4851" x2="105.2298" y2="-471.6351" gradientTransform="matrix(1 0 0 -1 0 -384)">
	<stop  offset="0" style="stop-color:#1C75BC"/>
	<stop  offset="0.28" style="stop-color:#2077BC"/>
	<stop  offset="0.54" style="stop-color:#2B7EBC"/>
	<stop  offset="0.8" style="stop-color:#3E88BC"/>
	<stop  offset="1" style="stop-color:#5394BC"/>
</linearGradient>
<polygon class="st16" points="71.6,85.2 120.7,113.6 120.7,149.8 71.6,121.2 "/>
<polygon class="st15" points="120.7,113.6 122.3,112.7 122.3,148.8 120.7,149.8 "/>
<polygon class="st14" points="71.6,85.2 73.2,84.2 122.3,112.7 120.7,113.6 "/>
<path class="st13" d="M71.6,85.2v36l49.1,28.6v-36.1L71.6,85.2z M119.6,147.8l-46.8-27.2V87.2l46.8,27.1L119.6,147.8z"/>
<path class="st17" d="M53.4,129.8c-0.5,5.2-4.3,9-8.5,8.6s-7.2-4.9-6.7-10.1c0.5-5.2,4.3-9,8.5-8.6S53.9,124.6,53.4,129.8z"/>
<path class="st18" d="M59.6,141.8c0,0,1.8,0.4,2.5,0.5s3,0.6,4,0.3s-0.9-1-1.3-1.3s-0.4-1.2,0.6-1.5s3.2-0.2,4.4-0.3
	s-1.2-3.7-3.1-4.1c-1.8-0.4-3.6-0.1-5.3,0.7c-1.6,0.8-2.5,2.2-3.3,2.4L59.6,141.8z"/>
<path class="st1" d="M59.8,136.9L47.3,140l-0.6,7.9l14.7-5C61.8,140.1,59.8,136.9,59.8,136.9z"/>
<path class="st1" d="M29.1,140.3c0,0-3.5,4.3,0,10.3c0,0,2.4,3.3,9,0.1L29.1,140.3z"/>
<path class="st19" d="M39.3,135.2c3.4-0.1,6.7,0.8,9.6,2.6c0.2,0.6,0.6,1.1,1.2,1.4c0.8,0.6,5,2.2,5,2.2s-1.8,24.5,0.3,36.4
	c0,0-9.1,7.1-23.2,0c0,0-2.1-30.1-3-37.6C29.1,140.3,31.5,137.4,39.3,135.2z"/>
<polygon class="st2" points="37,175.7 11.6,161 20.1,185.8 45.5,200.4 "/>
<polygon class="st5" points="14.4,159.4 11.6,161 37,175.7 39.8,174 "/>
<polygon class="st9" points="39.8,174 37,175.7 45.5,200.4 48.4,198.8 "/>
<path class="st18" d="M76.4,152.7c0,0,1.4-1.4,1.9-1.8s2.4-2.2,3.4-2.4s-0.7,1.6-1,2.1s1.1-0.5,2-0.8c1.1-0.4,2.3-0.3,3.3,0.1
	c2.4,0.9,2.3,5.7,0.3,5.1c-3.2-0.9-4.7,1.6-6.6,2.2c-0.9,0.2-1.8,0.4-2.7,0.5L76.4,152.7z"/>
<path class="st1" d="M55.1,141.5l10.5,13.9l10.9-3.2c0,0,2.3,3,1.6,6.1L63.5,164l-11.8-13C51.7,150.9,47.7,142.6,55.1,141.5z"/>
<path class="st8" d="M49.2,115.3c0,0,0.8,1.9-3,2.5s-8.7,2.4-9.9,6.5c-0.8,2.6,0.1,5.4,1.4,7.7c0.4,0.8,1,1.5,1.5,2.2
	c2,0.4,4,0,5.7-1c1.3-1,2.3-2.3,3-3.7c0,0,2.3,1,3-1c0.5-1.4,2.2-1.8,3.1-2.5C54.1,126,59.3,117.4,49.2,115.3z"/>
<polygon class="st2" points="193.4,189.4 176.6,179.6 176.6,185.9 193.4,195.7 "/>
<polygon class="st5" points="194,169.6 176.6,179.6 193.4,189.4 210.9,179.4 "/>
<polygon class="st9" points="210.9,179.4 193.4,189.4 193.4,195.7 210.9,185.6 "/>
<polygon class="st2" points="193.4,179.1 176.6,169.3 176.6,175.6 193.4,185.4 "/>
<polygon class="st5" points="194,159.3 176.6,169.3 193.4,179.1 210.9,169.1 "/>
<polygon class="st9" points="210.9,169.1 193.4,179.1 193.4,185.4 210.9,175.3 "/>
<polygon class="st2" points="165,205.9 148.1,196.1 148.1,202.4 165,212.2 "/>
<polygon class="st5" points="165.5,186.1 148.1,196.1 165,205.9 182.4,195.9 "/>
<polygon class="st9" points="182.4,195.9 165,205.9 165,212.2 182.4,202.1 "/>
<polygon class="st2" points="165,195.6 148.1,185.8 148.1,192.1 165,201.9 "/>
<polygon class="st5" points="165.5,175.8 148.1,185.8 165,195.6 182.4,185.6 "/>
<polygon class="st9" points="182.4,185.6 165,195.6 165,201.9 182.4,191.8 "/>
<polygon class="st2" points="136.5,222.4 119.7,212.6 119.7,218.9 136.5,228.7 "/>
<polygon class="st5" points="137.1,202.6 119.7,212.6 136.5,222.4 153.9,212.4 "/>
<polygon class="st9" points="153.9,212.4 136.5,222.4 136.5,228.7 153.9,218.6 "/>
<polygon class="st2" points="136.5,212.1 119.7,202.3 119.7,208.6 136.5,218.4 "/>
<polygon class="st5" points="137.1,192.3 119.7,202.3 136.5,212.1 153.9,202.1 "/>
<polygon class="st9" points="153.9,202.1 136.5,212.1 136.5,218.4 153.9,208.3 "/>
<path class="st20" d="M141.7,205.9l-1.1-0.6c-0.8,0.3-1.6,0.5-2.5,0.6v0.9h-2.6v-0.9c-0.8-0.1-1.7-0.3-2.5-0.6l-1,0.6l-1.8-1
	l1.1-0.6c-0.5-0.4-0.8-0.9-1-1.4h-1.5v-1.5h1.5c0.2-0.6,0.5-1.1,1-1.4l-1.1-0.6l1.8-1.1l1.1,0.6c0.8-0.3,1.6-0.5,2.5-0.6v-0.9h2.6
	v0.9c0.8,0.1,1.7,0.3,2.5,0.6l1-0.6l1.8,1.1l-1.1,0.6c0.5,0.4,0.8,0.9,1,1.4h1.5v1.5h-1.5c-0.2,0.6-0.5,1.1-1,1.4l1.1,0.6
	L141.7,205.9z M134.5,203.4c1.5,0.8,3.3,0.8,4.8,0c1.3-0.8,1.3-2,0-2.8c-1.5-0.8-3.3-0.8-4.8,0C133.2,201.5,133.2,202.7,134.5,203.4
	"/>
<polygon class="st21" points="166.8,181.3 168.4,184.8 170.1,188.3 164.1,187.3 158,186.4 162.4,183.8 "/>
<path class="st22" d="M187.4,168.4c-0.9-0.5-0.5-1.3,1.2-2.3c0.7-0.4,1.5-0.7,2.3-0.9c0.6-0.2,1.1-0.1,1.6,0.1
	c0.2,0.1,0.3,0.2,0.4,0.4c0.1,0.1,0.2,0.3,0.2,0.4l1.6-0.4c-0.1-0.3-0.2-0.5-0.4-0.7s-0.4-0.4-0.7-0.5c-0.9-0.5-2-0.7-3-0.5
	c-1.3,0.2-2.5,0.6-3.5,1.2c-0.9,0.4-1.7,1.1-2.1,2c-0.2,0.6,0.1,1.2,0.9,1.7c0.5,0.3,1.1,0.5,1.8,0.6l1.2-0.7
	C188.5,168.8,187.9,168.6,187.4,168.4z"/>
<path class="st22" d="M195,170.3c0.2-0.4,0.2-0.8,0-1.2c-0.1-0.3-0.2-0.5-0.1-0.8c0.1-0.2,0.2-0.4,0.4-0.5s0.5-0.2,0.8-0.2
	s0.5,0,0.8,0.2c0.2,0.1,0.3,0.2,0.5,0.4c0.1,0.1,0.2,0.3,0.3,0.4l1.6-0.4c-0.2-0.5-0.7-1-1.2-1.2c-0.6-0.4-1.3-0.5-2-0.5
	s-1.4,0.2-2,0.6c-0.3,0.1-0.5,0.3-0.8,0.6c-0.1,0.2-0.3,0.4-0.3,0.6c0,0.3,0,0.5,0.1,0.8s0.1,0.6,0.1,0.9c-0.1,0.2-0.2,0.4-0.4,0.5
	s-0.5,0.2-0.8,0.2s-0.6-0.1-0.8-0.2c-0.5-0.3-0.8-0.7-1-1.2l-1.4,0.8c0.3,0.5,0.8,0.9,1.3,1.2c0.6,0.4,1.4,0.6,2.1,0.6
	c0.8,0,1.5-0.2,2.1-0.6C194.5,170.9,194.8,170.6,195,170.3z"/>
<path class="st22" d="M202.3,169.4c-0.6-0.3-1.3-0.5-2-0.5s-1.4,0.2-2.1,0.6c-0.3,0.2-0.5,0.4-0.8,0.6c-0.1,0.2-0.2,0.4-0.3,0.6
	c0,0.3,0,0.5,0.1,0.8s0.1,0.6,0.1,0.9c-0.1,0.2-0.2,0.4-0.4,0.5s-0.5,0.2-0.8,0.2s-0.6-0.1-0.8-0.2c-0.5-0.3-0.8-0.7-1-1.2l-1.4,0.8
	c0.3,0.5,0.8,0.9,1.3,1.2c0.6,0.4,1.4,0.6,2.1,0.6c0.8,0,1.5-0.2,2.1-0.6c0.4-0.2,0.7-0.5,0.9-0.9s0.2-0.8,0-1.2
	c-0.1-0.3-0.2-0.5-0.1-0.8c0.1-0.2,0.2-0.4,0.4-0.5s0.5-0.2,0.8-0.2s0.5,0,0.8,0.2c0.2,0.1,0.3,0.2,0.5,0.4c0.1,0.1,0.2,0.3,0.3,0.4
	l1.6-0.4C203.2,170.1,202.8,169.7,202.3,169.4z"/>
<path class="st23" d="M193.1,113.2l-16.4-9.4c-0.5-0.3-1.2-0.3-1.6,0.1l0,0l-3.6,2.1l1.7,2.3l0.6,0.7v16.2c0,1,0.5,1.8,1.4,2.3
	l12.2,7.1l0.1,0.7l2.5,3.5l3.8-2.3l0,0l0,0l0,0c0.4-0.2,0.6-0.6,0.6-1.1v-19.8C194.4,114.6,193.9,113.7,193.1,113.2z"/>
<path class="st24" d="M189.2,115.5l-16.6-9.5c-0.6-0.3-1.3-0.1-1.7,0.4c-0.1,0.2-0.2,0.4-0.2,0.6v19.8c0,1,0.5,1.9,1.4,2.3l16.5,9.6
	c0.6,0.3,1.4,0.1,1.7-0.5c0.1-0.2,0.2-0.4,0.2-0.6v-19.7C190.6,116.9,190.1,116,189.2,115.5z"/>
<path class="st2" d="M190,138.7L190,138.7L190,138.7L190,138.7z"/>
<path class="st25" d="M190.6,137.6v-19.7c0-0.3-0.1-0.6-0.2-0.9l3.8-2.2c0.1,0.3,0.2,0.6,0.2,0.9v19.7c0,0.4-0.2,0.8-0.6,1.1l0,0
	l0,0l0,0l-3.9,2.3C190.4,138.5,190.6,138,190.6,137.6z"/>
<path class="st26" d="M211.8,73.8l-16.4-9.4c-0.5-0.3-1.2-0.3-1.6,0.1l0,0l-3.6,2.1l1.7,2.3l0.6,0.7v16.2c0,0.9,0.5,1.8,1.4,2.3
	l12.2,7.1l0.1,0.7l2.5,3.5l3.8-2.3l0,0l0,0l0,0c0.4-0.2,0.6-0.6,0.6-1.1V76.2C213.1,75.3,212.6,74.3,211.8,73.8z"/>
<path class="st27" d="M208,76.1l-16.6-9.5c-0.6-0.3-1.3-0.1-1.7,0.4c-0.1,0.2-0.2,0.4-0.2,0.6v19.8c0,1,0.5,1.9,1.4,2.3l16.5,9.6
	c0.6,0.3,1.4,0.1,1.7-0.5c0.1-0.2,0.2-0.4,0.2-0.6V78.5C209.4,77.5,208.8,76.6,208,76.1z"/>
<path class="st2" d="M208.7,99.3L208.7,99.3L208.7,99.3L208.7,99.3z"/>
<path class="st28" d="M209.3,98.2V78.5c0-0.3-0.1-0.7-0.2-1l3.9-2.2c0.1,0.3,0.2,0.6,0.2,0.9V96c0,0.4-0.2,0.8-0.6,1.1l0,0l0,0l0,0
	l-3.8,2.2C209.1,99.1,209.4,98.6,209.3,98.2z"/>
<path class="st29" d="M157.1,74.1l-16.4-9.4c-0.5-0.3-1.1-0.3-1.6,0.1l0,0l-3.6,2.1l1.7,2.3l0.6,0.7V86c0,1,0.5,1.9,1.4,2.3
	l12.2,7.1l0.1,0.7l2.5,3.5l3.8-2.2l0,0l0,0l0,0c0.4-0.2,0.6-0.6,0.6-1V76.5C158.5,75.5,157.9,74.6,157.1,74.1z"/>
<path class="st30" d="M153.3,76.4l-16.5-9.6c-0.6-0.3-1.3-0.1-1.7,0.5c-0.1,0.2-0.1,0.4-0.2,0.5v19.9c0,1,0.5,1.8,1.3,2.3l16.5,9.6
	c0.6,0.3,1.4,0.1,1.7-0.5c0.1-0.2,0.2-0.4,0.2-0.6V78.8C154.7,77.8,154.1,76.9,153.3,76.4z"/>
<path class="st2" d="M154,99.6L154,99.6z"/>
<path class="st31" d="M154.7,98.5V78.8c0-0.3-0.1-0.7-0.2-1l3.8-2.2c0.1,0.3,0.2,0.6,0.2,0.9v19.8c0,0.4-0.2,0.8-0.6,1l0,0l0,0l0,0
	l-3.8,2.2C154.4,99.3,154.7,98.9,154.7,98.5z"/>
<path class="st32" d="M121.3,35.9L105,26.5c-0.5-0.3-1.1-0.3-1.6,0.1l0,0l-3.6,2.1l1.7,2.3l0.6,0.7v16.2c0,1,0.5,1.9,1.3,2.3
	l12.2,7.1l0.1,0.7l2.5,3.5l3.8-2.2l0,0l0,0c0.3-0.2,0.6-0.6,0.6-1v-20C122.6,37.4,122.1,36.4,121.3,35.9z"/>
<path class="st33" d="M117.5,38.2l-16.6-9.5c-0.6-0.3-1.3-0.1-1.7,0.5c-0.1,0.2-0.2,0.4-0.2,0.6v19.8c0,1,0.5,1.9,1.3,2.3l16.5,9.6
	c0.6,0.3,1.4,0.1,1.7-0.5c0.1-0.2,0.2-0.4,0.2-0.6V40.6C118.9,39.6,118.3,38.7,117.5,38.2z"/>
<path class="st2" d="M118.2,61.4L118.2,61.4z"/>
<path class="st34" d="M118.9,60.3V40.6c0-0.3-0.1-0.6-0.2-1l3.8-2.2c0.1,0.3,0.2,0.6,0.2,0.9V58c0,0.4-0.2,0.8-0.6,1l0,0l0,0
	l-3.8,2.2C118.6,61.1,118.8,60.7,118.9,60.3z"/>
<polygon class="st33" points="77.7,92.7 77.7,93.6 81.7,95.9 81.7,95 "/>
<polygon class="st35" points="77.7,94.4 77.7,95.4 81.7,97.7 81.7,96.7 "/>
<polygon class="st35" points="77.7,96.2 77.7,97.1 81.7,99.4 81.7,98.5 "/>
<polygon class="st35" points="108,116.4 108,115.4 83.2,101.1 83.2,102.1 "/>
<polygon class="st35" points="77.7,97.9 77.7,98.9 81.7,101.2 81.7,100.2 "/>
<polygon class="st35" points="77.7,99.7 77.7,100.6 81.7,102.9 81.7,102 "/>
<polygon class="st24" points="108,118.2 108,117.2 83.2,102.9 83.2,103.8 "/>
<polygon class="st35" points="77.7,104.9 77.7,105.9 81.7,108.2 81.7,107.2 "/>
<polygon class="st33" points="77.7,106.7 77.7,107.6 81.7,109.9 81.7,109 "/>
<polygon class="st35" points="77.7,113.7 77.7,114.6 81.7,117 81.7,116 "/>
<polygon class="st35" points="77.7,115.4 77.7,116.4 81.7,118.7 81.7,117.8 "/>
<polygon class="st24" points="98.9,127.7 83.2,118.6 83.2,119.6 98.9,128.6 "/>
<polygon class="st35" points="99.7,128.1 99.7,129.1 108,133.9 108,132.9 "/>
<polygon class="st35" points="91.1,121.4 83.2,116.9 83.2,117.8 91.1,122.4 "/>
<polygon class="st35" points="91.9,121.9 91.9,122.8 108,132.2 108,131.2 "/>
<polygon class="st35" points="105.9,124.7 105.9,125.7 108,126.9 108,125.9 "/>
<polygon class="st1" points="94.4,116.3 83.2,109.9 83.2,110.8 94.4,117.3 "/>
<polygon class="st35" points="89.8,99.7 83.2,95.9 83.2,96.8 89.8,100.6 "/>
<polygon class="st35" points="100.6,105.9 90.6,100.1 90.6,101.1 100.6,106.8 "/>
<polygon class="st35" points="94.8,104.3 87.8,100.2 87.8,101.2 94.8,105.2 "/>
<polygon class="st1" points="102.1,108.5 95.6,104.8 95.6,105.7 102.1,109.5 "/>
<polygon class="st35" points="103,109 103,110 108,112.9 108,111.9 "/>
<polygon class="st1" points="84.5,100.1 84.5,101.1 89.8,104.1 89.8,103.2 "/>
<polygon class="st35" points="106,112.5 90.6,103.6 90.6,104.6 106,113.5 "/>
<polygon class="st35" points="97.2,112.7 87.1,106.9 87.1,107.8 97.2,113.6 "/>
<polygon class="st35" points="106,117.8 98,113.2 98,114.1 106,118.7 "/>
<polygon class="st35" points="105.1,122.5 95.2,116.8 95.2,117.7 105.1,123.4 "/>
<polygon class="st24" points="99.7,121.1 99.7,122.1 105.1,125.2 105.1,124.2 "/>
<polygon class="st35" points="85.1,112.7 83.2,111.6 83.2,112.6 85.1,113.7 "/>
<polygon class="st35" points="88.8,114.8 88.8,115.8 98.9,121.6 98.9,120.7 "/>
<polygon class="st35" points="87.9,114.4 86,113.2 86,114.2 87.9,115.3 "/>
<polygon class="st35" points="97,121.3 86,115 86,115.9 97,122.3 "/>
<polygon class="st35" points="109.8,111.2 109.8,111.5 110.9,112.1 110.9,111.8 "/>
<polygon class="st35" points="109.8,111.7 109.8,112 110.9,112.6 110.9,112.3 "/>
<polygon class="st35" points="109.8,112.2 109.8,112.4 110.9,113.1 110.9,112.8 "/>
<polygon class="st35" points="118.2,117.8 118.2,117.5 111.3,113.5 111.3,113.8 "/>
<polygon class="st35" points="109.8,112.7 109.8,112.9 110.9,113.6 110.9,113.3 "/>
<polygon class="st35" points="109.8,113.1 109.8,113.4 110.9,114.1 110.9,113.8 "/>
<polygon class="st35" points="118.2,118.2 118.2,118 111.3,114 111.3,114.3 "/>
<polygon class="st35" points="109.8,114.6 109.8,114.8 110.9,115.5 110.9,115.2 "/>
<polygon class="st35" points="109.8,115.1 109.8,115.3 110.9,116 110.9,115.7 "/>
<polygon class="st35" points="109.8,117 109.8,117.3 110.9,117.9 110.9,117.6 "/>
<polygon class="st35" points="109.8,117.5 109.8,117.8 110.9,118.4 110.9,118.1 "/>
<polygon class="st35" points="115.6,120.8 111.3,118.4 111.3,118.6 115.6,121.1 "/>
<polygon class="st35" points="115.9,121 115.9,121.2 118.2,122.6 118.2,122.3 "/>
<polygon class="st35" points="113.5,119.1 111.3,117.9 111.3,118.1 113.5,119.4 "/>
<polygon class="st35" points="113.7,119.3 113.7,119.5 118.2,122.1 118.2,121.8 "/>
<polygon class="st35" points="117.6,120 117.6,120.3 118.2,120.6 118.2,120.4 "/>
<polygon class="st35" points="114.4,117.7 111.3,115.9 111.3,116.2 114.4,118 "/>
<polygon class="st35" points="113.1,113.1 111.3,112.1 111.3,112.4 113.1,113.4 "/>
<polygon class="st35" points="116.1,114.9 113.4,113.3 113.4,113.5 116.1,115.1 "/>
<polygon class="st35" points="114.5,114.4 112.6,113.3 112.6,113.6 114.5,114.7 "/>
<polygon class="st35" points="116.5,115.6 114.7,114.6 114.7,114.8 116.5,115.8 "/>
<polygon class="st35" points="116.8,115.7 116.8,116 118.2,116.8 118.2,116.5 "/>
<polygon class="st35" points="111.7,113.3 111.7,113.5 113.1,114.4 113.1,114.1 "/>
<polygon class="st35" points="117.6,116.7 113.4,114.2 113.4,114.5 117.6,116.9 "/>
<polygon class="st35" points="115.2,116.7 112.4,115.1 112.4,115.4 115.2,117 "/>
<polygon class="st35" points="117.6,118.1 115.4,116.9 115.4,117.1 117.6,118.4 "/>
<polygon class="st35" points="117.3,119.4 114.6,117.9 114.6,118.1 117.3,119.7 "/>
<polygon class="st35" points="115.9,119.1 115.9,119.3 117.3,120.2 117.3,119.9 "/>
<polygon class="st35" points="111.8,116.7 111.3,116.4 111.3,116.7 111.8,117 "/>
<polygon class="st35" points="112.8,117.3 112.8,117.6 115.6,119.2 115.6,118.9 "/>
<polygon class="st35" points="112.6,117.2 112.1,116.9 112.1,117.1 112.6,117.4 "/>
<polygon class="st35" points="115.1,119.1 112.1,117.4 112.1,117.6 115.1,119.4 "/>
<polygon class="st35" points="109.8,119.4 109.8,119.6 110.9,120.3 110.9,120 "/>
<polygon class="st35" points="109.8,119.9 109.8,120.1 110.9,120.8 110.9,120.5 "/>
<polygon class="st35" points="109.8,120.3 109.8,120.6 110.9,121.2 110.9,121 "/>
<polygon class="st35" points="118.2,125.9 118.2,125.7 111.3,121.7 111.3,122 "/>
<polygon class="st35" points="109.8,120.8 109.8,121.1 110.9,121.7 110.9,121.5 "/>
<polygon class="st35" points="109.8,121.3 109.8,121.6 110.9,122.2 110.9,121.9 "/>
<polygon class="st35" points="118.2,126.4 118.2,126.1 111.3,122.2 111.3,122.4 "/>
<polygon class="st35" points="109.8,122.8 109.8,123 110.9,123.7 110.9,123.4 "/>
<polygon class="st35" points="109.8,123.2 109.8,123.5 110.9,124.1 110.9,123.9 "/>
<polygon class="st35" points="109.8,125.2 109.8,125.4 110.9,126.1 110.9,125.8 "/>
<polygon class="st35" points="109.8,125.6 109.8,125.9 110.9,126.6 110.9,126.3 "/>
<polygon class="st35" points="115.6,129 111.3,126.5 111.3,126.8 115.6,129.3 "/>
<polygon class="st35" points="115.9,129.1 115.9,129.4 118.2,130.7 118.2,130.5 "/>
<polygon class="st35" points="113.5,127.3 111.3,126 111.3,126.3 113.5,127.6 "/>
<polygon class="st35" points="113.7,127.4 113.7,127.7 118.2,130.2 118.2,130 "/>
<polygon class="st35" points="117.6,128.2 117.6,128.5 118.2,128.8 118.2,128.5 "/>
<polygon class="st35" points="114.4,125.9 111.3,124.1 111.3,124.4 114.4,126.2 "/>
<polygon class="st35" points="113.1,121.3 111.3,120.2 111.3,120.5 113.1,121.6 "/>
<polygon class="st35" points="116.1,123 113.4,121.4 113.4,121.7 116.1,123.3 "/>
<polygon class="st35" points="114.5,122.6 112.6,121.5 112.6,121.7 114.5,122.8 "/>
<polygon class="st35" points="116.5,123.8 114.7,122.7 114.7,123 116.5,124 "/>
<polygon class="st35" points="116.8,123.9 116.8,124.1 118.2,124.9 118.2,124.7 "/>
<polygon class="st35" points="111.7,121.4 111.7,121.7 113.1,122.5 113.1,122.3 "/>
<polygon class="st35" points="117.6,124.8 113.4,122.4 113.4,122.7 117.6,125.1 "/>
<polygon class="st35" points="115.2,124.9 112.4,123.3 112.4,123.6 115.2,125.2 "/>
<polygon class="st35" points="117.6,126.3 115.4,125 115.4,125.3 117.6,126.6 "/>
<polygon class="st35" points="117.3,127.6 114.6,126 114.6,126.3 117.3,127.9 "/>
<polygon class="st35" points="115.9,127.2 115.9,127.5 117.3,128.3 117.3,128.1 "/>
<polygon class="st35" points="111.8,124.9 111.3,124.6 111.3,124.9 111.8,125.2 "/>
<polygon class="st35" points="112.8,125.5 112.8,125.8 115.6,127.3 115.6,127.1 "/>
<polygon class="st35" points="112.6,125.3 112.1,125 112.1,125.3 112.6,125.6 "/>
<polygon class="st35" points="115.1,127.3 112.1,125.5 112.1,125.8 115.1,127.5 "/>
<polygon class="st35" points="109.8,127.5 109.8,127.8 110.9,128.4 110.9,128.2 "/>
<polygon class="st35" points="109.8,128 109.8,128.3 110.9,128.9 110.9,128.7 "/>
<polygon class="st35" points="109.8,128.5 109.8,128.8 110.9,129.4 110.9,129.1 "/>
<polygon class="st35" points="118.2,134.1 118.2,133.8 111.3,129.9 111.3,130.1 "/>
<polygon class="st35" points="109.8,129 109.8,129.2 110.9,129.9 110.9,129.6 "/>
<polygon class="st35" points="109.8,129.5 109.8,129.7 110.9,130.4 110.9,130.1 "/>
<polygon class="st35" points="118.2,134.6 118.2,134.3 111.3,130.3 111.3,130.6 "/>
<polygon class="st35" points="109.8,130.9 109.8,131.2 110.9,131.8 110.9,131.6 "/>
<polygon class="st35" points="109.8,131.4 109.8,131.7 110.9,132.3 110.9,132 "/>
<polygon class="st35" points="109.8,133.3 109.8,133.6 110.9,134.2 110.9,134 "/>
<polygon class="st35" points="109.8,133.8 109.8,134.1 110.9,134.7 110.9,134.4 "/>
<polygon class="st35" points="115.6,137.2 111.3,134.7 111.3,134.9 115.6,137.4 "/>
<polygon class="st35" points="115.9,137.3 115.9,137.6 118.2,138.9 118.2,138.6 "/>
<polygon class="st35" points="113.5,135.5 111.3,134.2 111.3,134.5 113.5,135.7 "/>
<polygon class="st35" points="113.7,135.6 113.7,135.9 118.2,138.4 118.2,138.1 "/>
<polygon class="st35" points="117.6,136.4 117.6,136.6 118.2,137 118.2,136.7 "/>
<polygon class="st35" points="114.4,134.1 111.3,132.3 111.3,132.5 114.4,134.3 "/>
<polygon class="st35" points="113.1,129.5 111.3,128.4 111.3,128.7 113.1,129.7 "/>
<polygon class="st35" points="116.1,131.2 113.4,129.6 113.4,129.9 116.1,131.4 "/>
<polygon class="st35" points="114.5,130.7 112.6,129.6 112.6,129.9 114.5,131 "/>
<polygon class="st35" points="116.5,131.9 114.7,130.9 114.7,131.1 116.5,132.2 "/>
<polygon class="st35" points="116.8,132 116.8,132.3 118.2,133.1 118.2,132.9 "/>
<polygon class="st35" points="111.7,129.6 111.7,129.9 113.1,130.7 113.1,130.4 "/>
<polygon class="st35" points="117.6,133 113.4,130.6 113.4,130.8 117.6,133.3 "/>
<polygon class="st35" points="115.2,133.1 112.4,131.4 112.4,131.7 115.2,133.3 "/>
<polygon class="st35" points="117.6,134.4 115.4,133.2 115.4,133.4 117.6,134.7 "/>
<polygon class="st35" points="117.3,135.8 114.6,134.2 114.6,134.4 117.3,136 "/>
<polygon class="st35" points="115.9,135.4 115.9,135.6 117.3,136.5 117.3,136.2 "/>
<polygon class="st35" points="111.8,133.1 111.3,132.8 111.3,133 111.8,133.3 "/>
<polygon class="st35" points="112.8,133.6 112.8,133.9 115.6,135.5 115.6,135.2 "/>
<polygon class="st35" points="112.6,133.5 112.1,133.2 112.1,133.5 112.6,133.8 "/>
<polygon class="st35" points="115.1,135.4 112.1,133.7 112.1,133.9 115.1,135.7 "/>
<polygon class="st35" points="109.8,135.7 109.8,136 110.9,136.6 110.9,136.3 "/>
<polygon class="st35" points="109.8,136.2 109.8,136.4 110.9,137.1 110.9,136.8 "/>
<polygon class="st35" points="109.8,136.7 109.8,136.9 110.9,137.6 110.9,137.3 "/>
<polygon class="st35" points="118.2,142.2 118.2,142 111.3,138 111.3,138.3 "/>
<polygon class="st35" points="109.8,137.1 109.8,137.4 110.9,138.1 110.9,137.8 "/>
<polygon class="st35" points="109.8,137.6 109.8,137.9 110.9,138.5 110.9,138.3 "/>
<polygon class="st35" points="118.2,142.7 118.2,142.5 111.3,138.5 111.3,138.8 "/>
<polygon class="st35" points="109.8,139.1 109.8,139.3 110.9,140 110.9,139.7 "/>
<polygon class="st35" points="109.8,139.6 109.8,139.8 110.9,140.5 110.9,140.2 "/>
<polygon class="st35" points="117.6,144.5 117.6,144.8 118.2,145.1 118.2,144.9 "/>
<polygon class="st35" points="114.4,142.2 111.3,140.4 111.3,140.7 114.4,142.5 "/>
<polygon class="st35" points="113.1,137.6 111.3,136.6 111.3,136.8 113.1,137.9 "/>
<polygon class="st35" points="116.1,139.3 113.4,137.8 113.4,138 116.1,139.6 "/>
<polygon class="st35" points="114.5,138.9 112.6,137.8 112.6,138.1 114.5,139.2 "/>
<polygon class="st35" points="116.5,140.1 114.7,139 114.7,139.3 116.5,140.3 "/>
<polygon class="st35" points="116.8,140.2 116.8,140.5 118.2,141.3 118.2,141 "/>
<polygon class="st35" points="111.7,137.8 111.7,138 113.1,138.9 113.1,138.6 "/>
<polygon class="st35" points="117.6,141.2 113.4,138.7 113.4,139 117.6,141.4 "/>
<polygon class="st35" points="115.2,141.2 112.4,139.6 112.4,139.9 115.2,141.5 "/>
<polygon class="st35" points="117.6,142.6 115.4,141.3 115.4,141.6 117.6,142.9 "/>
<polygon class="st35" points="117.3,143.9 114.6,142.3 114.6,142.6 117.3,144.2 "/>
<polygon class="st35" points="115.9,143.5 115.9,143.8 117.3,144.7 117.3,144.4 "/>
<polygon class="st35" points="111.8,141.2 111.3,140.9 111.3,141.2 111.8,141.5 "/>
<polygon class="st35" points="112.8,141.8 112.8,142.1 115.6,143.7 115.6,143.4 "/>
<polygon class="st35" points="112.6,141.7 112.1,141.4 112.1,141.6 112.6,141.9 "/>
<polygon class="st35" points="115.1,143.6 112.1,141.8 112.1,142.1 115.1,143.9 "/>
<path class="st24" d="M75.1,91.2l-1.3-0.8c-0.1,0-0.1,0-0.1,0.1l0,0v1.6c0,0.1,0,0.1,0.1,0.2L75,93h0.1c0,0,0,0,0-0.1v-1.5
	C75.2,91.3,75.1,91.2,75.1,91.2z"/>
<path class="st24" d="M75.1,93.6l-1.3-0.8h-0.1c0,0,0,0,0,0.1v1.6c0,0.1,0,0.2,0.1,0.2l1.3,0.8h0.1l0,0v-1.6
	C75.2,93.7,75.1,93.6,75.1,93.6z"/>
<path class="st24" d="M75.1,95.9l-1.3-0.8c-0.1,0-0.1,0-0.1,0.1l0,0v1.6c0,0.1,0,0.1,0.1,0.2l1.3,0.8h0.1c0,0,0,0,0-0.1v-1.6
	C75.2,96,75.1,96,75.1,95.9z"/>
<path class="st24" d="M75.1,98.3l-1.3-0.8h-0.1c0,0,0,0,0,0.1v1.6c0,0.1,0,0.2,0.1,0.2l1.3,0.8h0.1c0,0,0,0,0-0.1v-1.6
	C75.2,98.4,75.1,98.3,75.1,98.3z"/>
<path class="st24" d="M75.1,100.7l-1.3-0.8c-0.1,0-0.1,0-0.1,0.1l0,0v1.6c0,0.1,0,0.1,0.1,0.2l1.3,0.8h0.1c0,0,0,0,0-0.1v-1.6
	C75.2,100.8,75.1,100.7,75.1,100.7z"/>
<path class="st24" d="M75.1,103.1l-1.3-0.8h-0.1c0,0,0,0,0,0.1v1.6c0,0.1,0,0.2,0.1,0.2L75,105h0.1c0,0,0,0,0-0.1v-1.6
	C75.2,103.2,75.1,103.1,75.1,103.1z"/>
<path class="st24" d="M75.1,105.4l-1.3-0.8c-0.1,0-0.1,0-0.1,0.1l0,0v1.6c0,0.1,0,0.1,0.1,0.2l1.3,0.8h0.1l0,0v-1.6
	C75.2,105.5,75.1,105.5,75.1,105.4z"/>
<path class="st24" d="M75.1,107.8l-1.3-0.8h-0.1c0,0,0,0,0,0.1v1.6c0,0.1,0,0.2,0.1,0.2l1.3,0.8h0.1c0,0,0,0,0-0.1V108
	C75.2,107.9,75.1,107.8,75.1,107.8z"/>
<path class="st24" d="M75.1,110.2l-1.3-0.8h-0.1c0,0,0,0,0,0.1v1.6c0,0.1,0,0.1,0.1,0.2L75,112h0.1l0,0v-1.5
	C75.2,110.3,75.1,110.2,75.1,110.2z"/>
<path class="st24" d="M75.1,112.6l-1.3-0.8h-0.1c0,0,0,0,0,0.1v1.6c0,0.1,0,0.2,0.1,0.2l1.3,0.8h0.1c0,0,0,0,0-0.1v-1.6
	C75.2,112.7,75.1,112.6,75.1,112.6z"/>
<path class="st24" d="M75.1,114.9l-1.3-0.8h-0.1c0,0,0,0,0,0.1v1.6c0,0.1,0,0.2,0.1,0.2l1.3,0.8h0.1l0,0v-1.6
	C75.2,115,75.1,115,75.1,114.9z"/>
<path class="st24" d="M75.1,117.3l-1.3-0.8h-0.1c0,0,0,0,0,0.1v1.6c0,0.1,0,0.2,0.1,0.2l1.3,0.8h0.1c0,0,0,0,0-0.1v-1.6
	C75.2,117.4,75.1,117.3,75.1,117.3z"/>
<path class="st12" d="M101.6,162.6c-1.7-0.6-3.5-0.3-4.9,0.8c-2.7,1.8-4.5,4.2-3.4,5.1s3.2,1.9,4.6,1.4S106,165.4,101.6,162.6z"/>
<polygon class="st1" points="157.9,152.2 136.8,164.1 123.4,156.3 144.5,144.4 "/>
<polygon class="st36" points="141,163.8 141,164.3 162.1,152.2 162.1,151.9 "/>
<polygon class="st37" points="162.1,151.9 141,163.8 127.5,156.1 148.6,144.1 "/>
<polygon class="st38" points="141,163.8 141,164.3 127.5,156.5 127.5,156.1 "/>
<polygon class="st39" points="148.5,145.4 156.6,150.1 156.2,150.3 148.1,145.6 "/>
<polygon class="st39" points="147.6,145.9 155.8,150.6 155.4,150.8 147.3,146.1 "/>
<polygon class="st39" points="145.7,147 156.9,153.4 156.5,153.6 145.3,147.2 "/>
<polygon class="st39" points="144.9,147.4 156.1,153.9 155.7,154.1 144.5,147.6 "/>
<polygon class="st39" points="144.1,147.9 155.3,154.3 154.9,154.5 143.8,148.1 "/>
<polygon class="st39" points="143.4,148.3 154.5,154.8 154.2,154.9 143,148.5 "/>
<polygon class="st39" points="142.6,148.7 153.8,155.2 153.4,155.4 142.2,148.9 "/>
<polygon class="st39" points="141.8,149.2 153,155.6 152.6,155.8 141.4,149.4 "/>
<polygon class="st39" points="141,149.6 152.2,156.1 151.9,156.3 140.7,149.8 "/>
<polygon class="st39" points="140.2,150.1 151.4,156.5 151.1,156.7 139.9,150.2 "/>
<polygon class="st39" points="139.5,150.5 150.7,156.9 150.3,157.1 139.1,150.7 "/>
<polygon class="st39" points="138.7,150.9 149.9,157.4 149.5,157.6 138.4,151.1 "/>
<polygon class="st39" points="137.9,151.4 149.1,157.8 148.8,158 137.6,151.6 "/>
<polygon class="st39" points="137.2,151.8 148.3,158.3 148,158.5 136.8,152 "/>
<polygon class="st39" points="136.4,152.2 147.6,158.7 147.2,158.9 136,152.4 "/>
<polygon class="st39" points="135.6,152.7 146.8,159.1 146.4,159.3 135.2,152.9 "/>
<polygon class="st39" points="134.8,153.1 146,159.6 145.7,159.8 134.5,153.3 "/>
<path class="st9" d="M125.7,159.1h-2v2.1h2c0.7,0,1.3,0.6,1.3,1.3v3.4c0,0.7-0.6,1.3-1.3,1.3l0,0h-2.9v2.1h2.9
	c1.9,0,3.5-1.5,3.5-3.5l0,0v-3.5C129.2,160.6,127.6,159.1,125.7,159.1z"/>
<path class="st2" d="M125,158v12c0,1.9-2.8,3.4-6.2,3.4s-6.2-1.5-6.2-3.4v-12H125z"/>
<path class="st5" d="M112.6,158c0,1.9,2.8,3.4,6.2,3.4s6.2-1.6,6.2-3.4s-2.8-3.4-6.2-3.4S112.6,156.1,112.6,158z"/>
<path class="st9" d="M113.8,157.9c0,1.4,2.2,2.6,5,2.6s5-1.2,5-2.6s-2.2-2.6-5-2.6S113.8,156.5,113.8,157.9z"/>
<path class="st8" d="M118.8,157c-2.2,0-4,0.7-4.7,1.8c0.7,1,2.5,1.8,4.7,1.8s4-0.7,4.7-1.8C122.8,157.7,121,157,118.8,157z"/>
<path class="st9" d="M121.1,161.1v12c1.1-0.2,2.1-0.7,2.9-1.3v-12C123.2,160.4,122.2,160.9,121.1,161.1z"/>
<path class="st5" d="M147.1,90.7h-0.4l-0.4-0.1c-0.3-0.1-0.6-0.4-0.9-0.6c-0.2-0.2-0.4-0.4-0.7-0.6c-0.6-0.4-1.4-0.6-2.1-0.6
	c-0.2,0-0.4,0-0.6-0.1c-0.5-0.1-0.9-0.4-1.2-0.9c-0.4-0.5-0.6-1-0.9-1.6c-0.4-1-0.7-2.1-0.8-3.2v-0.4v-0.5c0-0.1,0-0.1,0-0.2
	c0-0.5,0.1-1.1,0.3-1.6c0.5-1.4,1.9-2.2,3.4-1.9c0.5,0.1,1,0.4,1.4,0.7c0.3,0.2,0.6,0.5,1,0.8c0.3,0.2,0.6,0.4,1,0.4
	c0.3,0,0.6,0.1,1,0.1c0.6,0,1.2,0.2,1.8,0.6c0.7,0.5,1.3,1.2,1.7,2v0.1l0,0h-0.1c-0.5,0.1-0.9,0.3-1.2,0.6c-0.4,0.5-0.7,1.1-0.7,1.7
	c0,0.8,0.2,1.5,0.7,2.2c0.2,0.3,0.4,0.6,0.7,0.8l0,0c-0.4,0.6-1,1.1-1.5,1.5c-0.3,0.3-0.7,0.5-1.1,0.6L147.1,90.7z"/>
<path class="st5" d="M147.9,77.7l0.5,0.1h0.1c0.1,0,0.1,0.1,0.1,0.2c-0.1,1-0.8,1.8-1.8,2c-0.5,0.1-1,0.1-1.4-0.1
	c-0.1,0-0.1-0.1-0.1-0.1c0-0.5,0.3-1.1,0.7-1.4c0.4-0.4,0.9-0.6,1.4-0.6h0.2L147.9,77.7z"/>
<path class="st5" d="M186.6,118.5h-0.1l-10,4.6c-0.1,0-0.1,0-0.1,0c-0.5-1-1-2-1.5-2.9v-0.1h0.1l7.6-3.5h0.1L186.6,118.5
	L186.6,118.5z"/>
<path class="st5" d="M177.2,124.7h0.1l4-1.8c0.1,0,0.1,0,0.2,0l3.8,1.9h0.1l-0.1,0.1l-4,1.8c-0.1,0.1-0.1,0.1-0.1,0.2
	c0.9,1.7,1.7,3.5,2.6,5.2v0.1h-0.1l-3.6-1.9c-0.1,0-0.1-0.1-0.1-0.1L177.2,124.7L177.2,124.7z"/>
<path class="st5" d="M106.6,35.3c0.1,0,0.2,0.1,0.2,0.3c0.2,0.5,0.4,0.9,0.5,1.4c0.1,0.1,0.1,0.2,0.2,0.2c0.6,0.1,1.3,0.3,1.8,0.6
	c0.6,0.3,1.1,0.7,1.6,1.2c0,0,0,0.1,0.1,0.1c0.1-0.1,0.2-0.2,0.3-0.4l0.4-0.5c0,0,0.1-0.1,0.2,0l0,0c0.1,0.1,0.2,0.2,0.1,0.3
	c0,0,0,0,0,0.1c-0.2,0.3-0.4,0.5-0.7,0.8c0.2,0.3,0.4,0.5,0.6,0.8c0.6,0.9,1.1,1.9,1.3,2.9c0,0.1,0,0.2,0,0.3s0,0.2-0.1,0.2
	c-0.1,0.1-0.2,0.1-0.3,0l-1.2-0.6l-6.5-3.3c-0.1-0.1-0.2-0.1-0.3-0.2c-0.1-0.1-0.1-0.3-0.1-0.4c0.2-0.8,0.8-1.5,1.6-1.7
	c0.2,0,0.4-0.1,0.6-0.1c-0.1-0.2-0.2-0.5-0.3-0.8s-0.2-0.5-0.3-0.8c0-0.1,0-0.2,0-0.2L106.6,35.3z M111.5,40.8
	c0-0.3-0.2-0.5-0.4-0.6c-0.1,0-0.2,0-0.3,0.1v0.1c0,0.3,0.2,0.5,0.4,0.6C111.3,41.1,111.4,41,111.5,40.8
	C111.5,40.9,111.5,40.9,111.5,40.8z M107.6,38.8c0-0.3-0.2-0.5-0.4-0.6c-0.1-0.1-0.2,0-0.3,0.1v0.1c0,0.2,0.2,0.5,0.4,0.6
	C107.4,39.1,107.6,39,107.6,38.8L107.6,38.8z"/>
<path class="st5" d="M108.1,49.2c0,0.4,0,0.7,0,1.1s0,0.8,0,1.2c0,0.3-0.2,0.5-0.4,0.6c-0.1,0-0.3,0-0.4,0c-0.6-0.3-1-0.9-1-1.6
	c0-0.7,0-1.4,0.1-2.1c0-0.1,0-0.1-0.1-0.1l-1.3-0.7c-0.2-0.1-0.4-0.3-0.3-0.6c0.1-1.6,0.1-3.1,0.2-4.7c0-0.7,0-1.3,0.1-2
	c0-0.2,0.1-0.3,0.3-0.2l2.4,1.2L113,44c0.2,0.1,0.4,0.3,0.4,0.6l-0.1,2.4c0,1.2-0.1,2.3-0.1,3.5v0.8c0,0.2-0.1,0.3-0.4,0.2l-1.3-0.7
	l-0.1-0.1v0.1c0,0.7,0,1.5-0.1,2.2c0,0.3-0.2,0.6-0.5,0.6c-0.1,0-0.2,0-0.3-0.1c-0.6-0.3-1-0.9-1.1-1.5c0-0.7,0.1-1.4,0.1-2.2
	c0-0.1,0-0.1-0.1-0.1l-1.1-0.6L108.1,49.2z"/>
<path class="st5" d="M113.7,47.4c0-0.7,0-1.3,0.1-2c0-0.1,0-0.1,0-0.2c0.1-0.3,0.4-0.5,0.7-0.4h0.1c0.1,0,0.2,0.1,0.3,0.2
	c0.4,0.3,0.7,0.7,0.8,1.1c0,0.2,0,0.3,0,0.5v0.7c0,0.5,0,0.9,0,1.3c0,0.5,0,1.1-0.1,1.6c0,0.1,0,0.1,0,0.2c-0.1,0.3-0.4,0.5-0.6,0.4
	l0,0c-0.3-0.1-0.6-0.3-0.8-0.6c-0.3-0.3-0.4-0.7-0.4-1.1c0-0.3,0-0.6,0-0.9L113.7,47.4L113.7,47.4z"/>
<path class="st5" d="M104.3,42.5c0,0.7,0,1.3-0.1,2c0,0.3-0.1,0.5-0.4,0.6c-0.1,0.1-0.3,0.1-0.5,0c-0.6-0.3-1-0.8-1-1.5
	s0.1-1.3,0.1-2c0-0.5,0-0.9,0-1.4c0-0.2,0-0.5,0-0.7c0-0.3,0.3-0.5,0.6-0.5h0.1l0.2,0.1c0.6,0.3,0.9,0.9,0.9,1.5
	C104.3,41.2,104.3,41.9,104.3,42.5L104.3,42.5z"/>
<path class="st5" d="M69.4,70.1L69.4,70.1c-0.2-0.3-0.2-0.4-0.2-0.6c0-1,0-2.1,0-3.2c0-0.2,0-0.2-0.2-0.2l-2.6-0.2l-0.8-0.1
	c-0.2,0-0.3-0.1-0.3-0.3c0-0.4,0-0.8,0.1-1.1c0.1-0.4,0.1-1.1,0.1-1.6c0-0.7,0.1-1.5,0.1-2.2s0.1-1.2,0.1-1.8s0.1-1.5,0.1-2.2
	c0-0.2,0.1-0.4,0.2-0.5s0.1-0.1,0.2-0.1l3.5,1.3c0.1,0,0.1,0.1,0.1,0.1c0.1,0.2,0.1,0.3,0.1,0.5c0,1.3,0,2.5,0,3.8s0,2.5,0,3.7v0.1
	c0,0.1,0.1,0.2,0.2,0.2l1.3,0.1l2,0.2l0.9,0.1c0.1,0,0.2-0.1,0.2-0.2l0,0c0-0.4-0.1-0.8-0.1-1.2c0-0.4,0-0.8-0.1-1.3
	c0-0.1,0-0.1,0-0.2c0-0.2,0.2-0.4,0.5-0.4c0,0,0,0,0.1,0s0.2,0,0.2,0.1c0.5,0.2,1.1,0.3,1.7,0.3c0.1,0,0.2,0,0.4,0
	c0.1,0,0.2,0.1,0.2,0.3s0,0.4,0,0.6c0,0.7,0,1.3,0.2,2c0.1,0.2,0.1,0.4,0,0.5s-0.2,0.2-0.4,0.2c-0.2,0-0.4,0-0.7,0l-1-0.1
	c-0.2,0-0.2,0.1-0.2,0.2c0,0.7,0.1,1.4,0.1,2.1c0,0.2,0,0.5,0,0.8c0,0.2-0.2,0.4-0.3,0.4l0,0c-0.3,0-0.5,0-0.8,0H70h-0.1L69.4,70.1z
	"/>
<path class="st5" d="M198.9,89h-0.2l-5-1h-0.2c0-0.2,0.1-0.4,0.1-0.6c0.3-1.4,0.6-2.9,0.9-4.3c0-0.1,0.1-0.2,0.1-0.2l1-0.6
	c0.1,0,0.1-0.1,0.1-0.2c0-0.4-0.1-0.8-0.1-1.2c0-0.1,0-0.2,0.1-0.3L199,77c0,0,0,0,0.1-0.1h0.1l2.5,2.1l1.5,1.2
	c0.1,0,0.1,0.1,0.1,0.1c0,0.4,0.1,0.9,0.1,1.3c0,0.1,0.1,0.2,0.1,0.2l1.1,0.6c0.1,0,0.2,0.1,0.3,0.3c0.5,1.4,1,2.8,1.6,4.2
	c0.1,0.2,0.1,0.3,0.2,0.5l0,0l-0.3,0.1l-4.7,1.5c-0.1,0-0.2,0-0.3,0c-0.4-0.2-0.7-0.4-1.1-0.6c-0.1-0.1-0.2-0.1-0.3,0L198.9,89z
	 M200,79.3v0.5c0.1,0.6,0.1,1.1,0.1,1.7s0.1,1.3,0.2,2c0,0.1,0.1,0.2,0.2,0.2l3.7,1.7l0.3,0.1v-0.1c-0.4-1.1-0.8-2.3-1.2-3.4
	c0-0.1-0.1-0.2-0.2-0.2l-1.8-1.5L200,79.3z M195.3,86l0.1-0.1l3.6-2.2c0.1,0,0.1-0.1,0.1-0.2c0-0.5-0.1-0.9-0.1-1.4
	c-0.1-0.8-0.1-1.6-0.2-2.4v-0.3l0,0l-0.1,0.1l-2.5,2.7c-0.1,0.1-0.1,0.2-0.1,0.2c-0.2,1-0.4,2.1-0.6,3.1
	C195.4,85.6,195.3,85.8,195.3,86z M204,86.7h-0.1l-3.9-1.9c-0.1,0-0.2,0-0.2,0l-3.5,2.2l-0.1,0.1h0.1c1.2,0.2,2.5,0.5,3.7,0.8
	c0.1,0,0.2,0,0.3,0l2.3-0.7L204,86.7z"/>
</svg>
