<?xml version="1.0" encoding="utf-8"?>
<!-- Generator: Adobe Illustrator 23.0.3, SVG Export Plug-In . SVG Version: 6.00 Build 0)  -->
<svg version="1.1" id="Layer_1" xmlns="http://www.w3.org/2000/svg" xmlns:xlink="http://www.w3.org/1999/xlink" x="0px" y="0px"
	 viewBox="0 0 100 100" style="enable-background:new 0 0 100 100;" xml:space="preserve">
<style type="text/css">
	.st0{stroke:#FFFFFF;stroke-width:0.5;stroke-miterlimit:10;}
</style>
<title>time</title>
<g>
	<g id="Layer_1-2">
		<g id="time">
			<path class="st0" d="M88.6,24.2H73.3C69.3,11.4,55.7,4.2,42.9,8.1c-7.7,2.4-13.8,8.4-16.1,16.1H11.4c-2.4,0-4.3,1.9-4.3,4.3v45.8
				c0,2.4,1.9,4.3,4.3,4.3h28.4l-1,5.7h-1.6c-0.4,0-0.9,0.2-1.1,0.6l-4.3,5.7c-0.5,0.6-0.4,1.5,0.3,2c0,0,0,0,0,0
				c0.3,0.2,0.6,0.3,0.9,0.3h34.4c0.8,0,1.4-0.6,1.4-1.4c0-0.3-0.1-0.6-0.3-0.8L64,84.9c-0.3-0.4-0.7-0.6-1.1-0.6h-1.6l-1-5.7h28.4
				c2.4,0,4.3-1.9,4.3-4.3V28.5C92.9,26.2,91,24.3,88.6,24.2z M28.6,30c0.2-2.8,0.9-5.5,2.1-8l3.7,2.1l1.4-2.5l-3.7-2.1
				c1.6-2.3,3.6-4.3,5.9-5.9l2.1,3.7l2.5-1.5l-2.1-3.6c2.5-1.2,5.2-2,8-2.2v4.2h2.9V10c2.8,0.2,5.5,0.9,8,2.2l-2.1,3.6l2.5,1.5
				l2.1-3.7c2.3,1.6,4.3,3.6,5.9,5.9l-3.7,2.1l1.4,2.5l3.7-2.1c1.2,2.5,2,5.2,2.2,8h-4.2v2.9h4.2c-0.2,2.8-0.9,5.5-2.2,8l-3.7-2.1
				l-1.4,2.5l3.7,2.2c-1.6,2.3-3.6,4.3-5.9,5.9l-2.1-3.7L57.3,47l2.1,3.7c-2.5,1.2-5.2,2-8,2.1v-4.2h-2.9v4.2
				c-2.8-0.2-5.5-0.9-8-2.1l2.1-3.7l-2.5-1.4l-2.1,3.7c-2.3-1.6-4.3-3.6-5.9-5.9l3.6-2.1l-1.4-2.4l-3.7,2.1c-1.2-2.5-2-5.2-2.1-8
				h4.2V30H28.6z M62.2,87.2l2.1,2.9H35.7l2.1-2.9H62.2z M41.7,84.4l1-5.7h14.7l1,5.7H41.7z M90.1,74.4c0,0.8-0.6,1.4-1.4,1.4
				c0,0,0,0,0,0H11.4c-0.8,0-1.4-0.6-1.4-1.4V70h80.1V74.4z M90.1,67.2H9.9V28.5c0-0.8,0.6-1.4,1.4-1.4h14.7
				c-0.3,1.4-0.4,2.9-0.4,4.3c0,13.4,10.9,24.3,24.3,24.3s24.3-10.9,24.3-24.3c0-1.4-0.1-2.9-0.4-4.3h14.7c0.8,0,1.4,0.6,1.4,1.4
				V67.2z"/>
			<path class="st0" d="M49.3,32.6c0.4,0.2,1,0.2,1.4,0l10-5.7l-1.4-2.5l-7.9,4.5V17.1h-2.8v14.3C48.6,31.9,48.8,32.4,49.3,32.6z"/>
			<path class="st0" d="M12.8,61.5h22.9v2.9H12.8V61.5z"/>
			<path class="st0" d="M70,50h2.9v2.9H70V50z"/>
			<path class="st0" d="M64.3,55.7h22.9v2.9H64.3V55.7z"/>
			<path class="st0" d="M64.3,61.5h22.9v2.9H64.3V61.5z"/>
			<path class="st0" d="M75.8,50h11.4v2.9H75.8V50z"/>
			<path class="st0" d="M27.1,50H30v2.9h-2.9V50z"/>
			<path class="st0" d="M12.8,55.7h22.9v2.9H12.8V55.7z"/>
			<path class="st0" d="M12.8,50h11.4v2.9H12.8V50z"/>
		</g>
	</g>
</g>
</svg>
