<?xml version="1.0" encoding="utf-8"?>
<!-- Generator: Adobe Illustrator 23.0.3, SVG Export Plug-In . SVG Version: 6.00 Build 0)  -->
<svg version="1.1" id="Layer_1" xmlns="http://www.w3.org/2000/svg" xmlns:xlink="http://www.w3.org/1999/xlink" x="0px" y="0px"
	 viewBox="0 0 100 100" style="enable-background:new 0 0 100 100;" xml:space="preserve">
<title>training_session</title>
<g>
	<g id="Layer_1-2">
		<path id="training_session" d="M43.2,60.9c-0.6,0-1.1-0.5-1.1-1.1c0,0,0,0,0,0V49.4c-0.1-0.6,0.4-1.2,1-1.2s1.2,0.4,1.2,1
			c0,0.1,0,0.1,0,0.2v10.3C44.4,60.4,43.9,60.9,43.2,60.9C43.3,60.9,43.3,60.9,43.2,60.9z M31.5,83.4v6.5c0.1,0.6-0.4,1.2-1,1.2
			c-0.6,0.1-1.2-0.4-1.2-1c0-0.1,0-0.1,0-0.2v-6.5c0-1.9-2.2-2.7-3.5-3c-3.7-0.9-7.5-0.9-11.2,0c-1.6,0.4-3.5,1.3-3.5,3v6.5
			c0,0.6-0.5,1.1-1.1,1.1S9,90.5,9,89.9v-6.5c0-2.5,1.8-4.3,5.1-5.2c1.1-0.3,2.3-0.5,3.4-0.6c-2-1.5-3.1-3.8-3-6.2
			c0-3.6,2.2-5.9,5.7-5.9s5.7,2.2,5.7,5.9c0.1,2.4-1,4.8-3,6.3c1.1,0.1,2.3,0.3,3.4,0.6C29.7,79,31.5,80.9,31.5,83.4z M16.8,71.3
			c0,2.7,1.6,4.9,3.5,4.9c1.9,0,3.5-2.2,3.5-4.9c0-3-1.9-3.7-3.5-3.7C18.7,67.7,16.8,68.3,16.8,71.3z M61.3,83.4v6.5
			c0.1,0.6-0.4,1.2-1,1.2c-0.6,0.1-1.2-0.4-1.2-1c0-0.1,0-0.1,0-0.2v-6.5c0-1.9-2.2-2.7-3.5-3c-3.7-0.9-7.5-0.9-11.2,0
			c-1.6,0.4-3.5,1.3-3.5,3v6.5c0,0.6-0.5,1.1-1.1,1.1s-1.1-0.5-1.1-1.1c0,0,0,0,0,0v-6.5c0-2.5,1.8-4.3,5.1-5.2
			c1.1-0.3,2.3-0.5,3.4-0.6c-2-1.5-3.1-3.8-3-6.2c0-3.6,2.2-5.9,5.7-5.9s5.7,2.2,5.7,5.9c0.1,2.4-1,4.8-3,6.3
			c1.1,0.1,2.3,0.3,3.4,0.6C59.3,79,61.2,80.9,61.3,83.4L61.3,83.4z M46.5,71.3c0,2.7,1.6,4.9,3.5,4.9s3.5-2.3,3.5-4.9
			c0-3-1.9-3.7-3.5-3.7S46.5,68.3,46.5,71.3z M91,83.4v6.5c0.1,0.6-0.4,1.2-1,1.2c-0.6,0.1-1.2-0.4-1.2-1c0-0.1,0-0.1,0-0.2v-6.5
			c0-1.9-2.2-2.7-3.5-3c-3.7-0.9-7.5-0.9-11.2,0c-1.6,0.4-3.5,1.3-3.5,3v6.5c0,0.6-0.5,1.1-1.1,1.1s-1.1-0.5-1.1-1.1v-6.5
			c0-2.5,1.8-4.3,5.1-5.2c1.1-0.3,2.2-0.5,3.4-0.6c-2-1.5-3.1-3.8-3-6.2c0-3.6,2.2-5.9,5.7-5.9s5.7,2.2,5.7,5.9c0.1,2.4-1,4.8-3,6.3
			c1.1,0.1,2.3,0.3,3.4,0.6c3.3,0.8,5.2,2.7,5.2,5.2L91,83.4z M76.3,71.3c0,2.7,1.6,4.9,3.5,4.9s3.5-2.2,3.5-4.9
			c0-3-1.9-3.7-3.5-3.7S76.3,68.3,76.3,71.3z M36.6,37.5c-0.2,0-0.5,0-0.7,0c-2.3,0-4.5-0.8-6.3-2.3c-1.7,0.6-3.5,0.9-5.4,0.9
			C15.8,36.1,9,30,9,22.6S15.8,9,24.1,9s15.2,6.1,15.2,13.6c0,3.6-1.6,7.1-4.3,9.5c0.6,1.3,1.3,2.5,2.3,3.6c0.3,0.3,0.4,0.8,0.2,1.2
			C37.4,37.2,37,37.5,36.6,37.5L36.6,37.5z M34,35.1c-0.7-0.9-1.2-2-1.4-3.1c-0.1-0.4,0-0.8,0.4-1.1c2.6-2,4.1-5.1,4.1-8.3
			c0-6.3-5.8-11.4-13-11.4s-12.9,5.1-12.9,11.4S17,34,24.1,34c1.8,0,3.6-0.3,5.2-1c0.1,0,0.3-0.1,0.4-0.1c0.3,0,0.5,0.1,0.8,0.3
			C31.5,34.1,32.7,34.8,34,35.1z M33.5,23.3c0-0.6-0.5-1.1-1.1-1.1l0,0h-2.8c-0.6,0-1.1,0.5-1.1,1.1c0,0.6,0.5,1.1,1.1,1.1l0,0h2.8
			C33,24.4,33.5,23.9,33.5,23.3L33.5,23.3z M25.6,22.2h-2.8c-0.6,0-1.1,0.5-1.1,1.1c0,0.6,0.5,1.1,1.1,1.1l0,0h2.8
			c0.6,0,1.1-0.5,1.1-1.1C26.7,22.7,26.2,22.2,25.6,22.2z M18.8,22.2H16c-0.6,0-1.1,0.5-1.1,1.1c0,0.6,0.5,1.1,1.1,1.1c0,0,0,0,0,0
			h2.8c0.6,0,1.1-0.5,1.1-1.1S19.4,22.2,18.8,22.2z M91,12.6v26.1c0,2-1.6,3.7-3.6,3.7c0,0,0,0,0,0H73.6c-0.8,1-1.7,1.9-2.6,2.8
			c-3.6,3.3-7.6,5.4-11,5.8v8.8c0,0.6-0.5,1.1-1.1,1.1l0,0c-0.6,0-1.1-0.5-1.1-1.1l0,0V50c0-0.6,0.5-1.1,1.1-1.1l0,0l0,0
			c3,0,7.1-2,10.6-5.3c2-1.8,4.6-5.2,4.4-6.8c0-0.2-0.2-0.5-0.4-0.6c-1-0.6-1.6-0.4-2.1,0.1s-1.2,1.3-1.8,1.9
			c-2.7,3-5.5,6.1-10.7,6.1H44.3c-2.5,0-6,1.5-6,4.5v10.9c0.1,0.6-0.4,1.2-1,1.2s-1.2-0.4-1.2-1c0-0.1,0-0.1,0-0.2V48.8
			c0-4.1,4.2-6.7,8.2-6.7H48c-2.8-1.3-4.8-4.6-4.8-8.6c0-4.6,2.8-7.5,7.2-7.5s7.2,2.9,7.2,7.5c0,4-2,7.3-4.8,8.6h6
			c3.1,0,5.2-1.4,7.1-3.2V12.6c0-2,1.6-3.6,3.7-3.6c0,0,0,0,0,0h17.7C89.4,9,91,10.6,91,12.6C91,12.6,91,12.6,91,12.6z M50.5,40.5
			c2.8,0,5-3.1,5-6.9c0-4.6-3.1-5.2-5-5.2s-5,0.7-5,5.2C45.5,37.4,47.7,40.5,50.5,40.5z M88.8,12.6c0-0.8-0.6-1.4-1.4-1.4H69.7
			c-0.8,0-1.4,0.6-1.4,1.4v23.9c0.5-0.6,1.1-1.2,1.7-1.8c1.2-1.3,3.3-1.5,4.8-0.5c0.8,0.5,1.4,1.3,1.5,2.2c0,1.3-0.3,2.5-1,3.6h12.2
			c0.8,0,1.4-0.6,1.4-1.4c0,0,0,0,0,0L88.8,12.6z M84.1,16.1c-0.6,0-1.1,0.5-1.1,1.1c0,0,0,0,0,0v11.7c0,0.6,0.5,1.1,1.1,1.1
			s1.1-0.5,1.1-1.1l0,0V17.2C85.2,16.6,84.7,16.1,84.1,16.1z M78.5,19.9c-0.6,0-1.1,0.5-1.1,1.1l0,0v7.9c0,0.6,0.5,1.1,1.1,1.1
			s1.1-0.5,1.1-1.1l0,0V21C79.6,20.4,79.1,19.9,78.5,19.9C78.5,19.9,78.5,19.9,78.5,19.9z M72.9,23.3c-0.6,0-1.1,0.5-1.1,1.1l0,0
			v4.4c0,0.6,0.5,1.1,1.1,1.1s1.1-0.5,1.1-1.1v-4.4C74,23.8,73.5,23.3,72.9,23.3C72.9,23.3,72.9,23.3,72.9,23.3z"/>
	</g>
</g>
</svg>
