<?xml version="1.0" encoding="utf-8"?>
<!-- Generator: Adobe Illustrator 24.3.0, SVG Export Plug-In . SVG Version: 6.00 Build 0)  -->
<svg version="1.1" id="Layer_1" xmlns="http://www.w3.org/2000/svg" xmlns:xlink="http://www.w3.org/1999/xlink" x="0px" y="0px"
	 viewBox="0 0 80 40" style="enable-background:new 0 0 80 40;" xml:space="preserve">
<style type="text/css">
	.st0{fill:#0093ED;}
	.st1{fill:#747475;}
</style>
<path class="st0" d="M22.7,22.7c-1.3,0-2.4-0.4-3.4-1.3l0.2-1.2v-0.1c0.2-1.3,1.1-3.5,3.2-3.5c1.7,0,3,1.4,3,2.9l0,0
	c0.1,1.6-1.1,2.8-2.6,2.9C22.9,22.7,22.8,22.7,22.7,22.7z M22.7,13.7c-2.8,0-4.9,1.9-5.9,4.8c-1.4-2-2.3-4.2-2.9-6.5h-3v7.9
	c0.1,1.6-1.2,2.9-2.6,3c-1.5,0.1-2.9-1.2-3-2.6c0-0.1,0-0.2,0-0.3v-8h-3v7.9c-0.1,3.3,2.4,6,5.7,6.1s6-2.4,6.1-5.7
	c0-0.2,0-0.3,0-0.5v-1.3c0.5,1.3,1.3,2.4,2.2,3.6l-2,9.8h3l1.4-7.5c1.3,0.7,2.7,1.2,4.2,1.2c3.4-0.1,6-2.8,5.9-6.1l0,0l0,0
	C28.4,16.3,25.8,13.8,22.7,13.7z"/>
<path class="st1" d="M38.1,14l1.9,7.9l2.2-7.9h2.6l-3.4,11.5h-2.6l-2-8.1L35,25.5h-2.6L29.2,14h2.6l2.2,7.9l1.9-7.9H38.1z
	 M50.9,13.7c-3.4,0-6.1,2.7-6.1,6c0,3.4,2.7,6.1,6,6.1s6.1-2.7,6.1-6l0,0l0,0C56.9,16.5,54.3,13.8,50.9,13.7
	C51,13.7,50.9,13.7,50.9,13.7z M50.9,23.3c-2,0-3.5-1.6-3.5-3.6s1.6-3.5,3.6-3.5c1.9,0,3.5,1.6,3.5,3.6c0,1.9-1.5,3.5-3.4,3.5
	C51,23.3,51,23.3,50.9,23.3L50.9,23.3z M64.3,16.5c-1.7,0-3,1.3-3.2,2.9v0.1v5.8h-2.6V13.8H61v1.9c0.7-1.2,2-1.8,3.4-1.8h0.7v2.6
	H64.3z M73.1,19.3c1.9-1.1,3.2-3,3.2-5.3h-2.6c0,1.9-1.6,3.4-3.5,3.5H70V8.6h-2.5v17H70v-5.5h0.4c0.3,0,0.5,0.1,0.6,0.4l3.7,4.9h3.2
	L73.1,19.3L73.1,19.3z"/>
</svg>
