<?xml version="1.0" encoding="utf-8"?>
<!-- Generator: Adobe Illustrator 24.3.0, SVG Export Plug-In . SVG Version: 6.00 Build 0)  -->
<svg version="1.1" id="Layer_1" xmlns="http://www.w3.org/2000/svg" xmlns:xlink="http://www.w3.org/1999/xlink" x="0px" y="0px"
	 viewBox="0 0 100 100" style="enable-background:new 0 0 100 100;" xml:space="preserve">
<style type="text/css">
	.st0{stroke:#000000;stroke-width:0.8;stroke-miterlimit:10;}
	.st1{fill:#0093ED;}
</style>
<g id="_1">
	<path class="st0" d="M69.6,29.3c0-0.3-0.2-0.8-0.4-0.9c-0.6-0.2-0.5-0.7-0.5-1.2c0-4.4,0-8.7,0-13c0.1-3.6-2.7-6.6-6.3-6.8
		c-0.1,0-0.3,0-0.4,0c-10.7,0-21.4,0-32.1,0c-3.6-0.1-6.5,2.7-6.6,6.3c0,0.1,0,0.3,0,0.4c0,1.2,0,2.4,0,3.7c-1,0.1-1.1,0.7-1.1,1.5
		s0,1.2,0,1.9s0,1.3,0.8,1.5c0.1,0,0.3,0.3,0.3,0.5c0,0.7,0,1.5,0,2.3c-0.9,0.1-1.1,0.7-1.1,1.5c0,1.2,0,2.4,0,3.6
		c0,0.8,0.1,1.5,1,1.7v1.7c-0.8,0.1-1.1,0.6-1,1.4c0,1.4,0,2.7,0,4.1c0,0.3,0.1,0.9,0.3,1c0.7,0.3,0.6,0.8,0.6,1.4
		c0,14.7,0.1,29.4,0.1,44c-0.1,3.8,3,6.9,6.8,7c0.1,0,0.2,0,0.4,0c10.4-0.1,20.8,0,31.3,0c4.3,0,7-2.8,7-7.1V83h-1.8v2.5
		c0,2.7-1.4,4.6-3.7,5.1c-0.5,0.1-0.9,0.1-1.4,0.1H30.1c-2.6,0.1-4.8-1.8-4.9-4.4c0-0.2,0-0.3,0-0.5V14.1c-0.1-2.6,1.9-4.7,4.5-4.8
		c0.1,0,0.2,0,0.3,0h4.6c0,0.4,0,0.7,0,1c0,2.1,1.7,3.8,3.7,3.9c5.1,0,10.1,0,15.2,0c2.1,0,3.8-1.8,3.8-3.9c0-0.3,0-0.6,0-1.1
		c2.1,0,4.1,0.1,6.2,0.3c1.9,0.3,3.2,2.3,3.3,4.4c0,0.2,0,0.4,0,0.6v26.3h1.9v-1.8c0-0.6-0.2-1.2,0.6-1.5c0.2-0.1,0.3-0.5,0.3-0.8
		C69.7,34.1,69.7,31.7,69.6,29.3z M53.1,12.3H38.9c-1.9,0-2.6-1-2.3-2.9h18.7C55.7,11.2,55,12.2,53.1,12.3L53.1,12.3z"/>
	<path class="st1" d="M36.3,85.3H58c0.7,0,1.3,0.6,1.3,1.3v0c0,0.7-0.6,1.3-1.3,1.3H36.3c-0.7,0-1.3-0.6-1.3-1.3v0
		C35.1,85.9,35.6,85.3,36.3,85.3z"/>
	<path d="M70.9,52.1V47c-0.1-2.9,2.2-5.3,5.1-5.4c0.1,0,0.2,0,0.3,0c3.4,0,6.8,0,10.2,0c2.9,0,5.3,2.3,5.3,5.2c0,0,0,0.1,0,0.1
		c0,3.4,0,6.8,0,10.3c0,2.6-1.9,4.9-4.4,5.3c-0.3,0.1-0.7,0.1-1,0.1c-3.4,0-6.8,0-10.2,0c-2.9,0.1-5.3-2.2-5.4-5.1
		c0-0.1,0-0.2,0-0.3L70.9,52.1z M81.4,45.1h-5.2c-0.9-0.1-1.8,0.6-1.9,1.6c0,0.1,0,0.2,0,0.3c0,3.4,0,6.9,0,10.3
		C74.3,58.2,75,59,76,59.1c0.1,0,0.2,0,0.3,0h10.4c0.9,0.1,1.7-0.6,1.8-1.6c0-0.1,0-0.2,0-0.3c0-3.4,0-6.9,0-10.3
		c0.1-0.9-0.6-1.8-1.6-1.8c-0.1,0-0.2,0-0.3,0H81.4z"/>
	<path d="M60.5,66c1,0,2,0.1,3,0.2c2.3,0.5,4,2.6,4,5c0,1.2,0,2.3,0,3.5c0,2.8-2.2,5.2-5,5.3c-1.4,0.1-2.8,0.1-4.2,0
		c-2.6-0.2-4.6-2.4-4.7-5c-0.1-1.4,0-2.9,0-4.3c0.3-2.6,2.4-4.5,5-4.6c0.6,0,1.3,0,1.9,0L60.5,66z M63.9,73c0-0.6,0-1.2,0-1.7
		c0-0.9-0.7-1.7-1.6-1.7c0,0-0.1,0-0.1,0c-1.2,0-2.4,0-3.6,0c-0.9,0-1.7,0.7-1.7,1.6c0,0,0,0.1,0,0.1c0,1.2,0,2.3,0,3.5
		c0,0.9,0.7,1.7,1.7,1.7c0,0,0,0,0.1,0h3.5c0.9,0,1.7-0.7,1.8-1.6c0,0,0-0.1,0-0.1C63.9,74.2,63.9,73.6,63.9,73z"/>
	<path d="M84.9,73.1c0.1,0.8,0.1,1.7,0,2.5c-0.4,2.4-2.4,4.3-4.9,4.4c-1.5,0.1-3,0.1-4.5,0c-2.5-0.3-4.4-2.4-4.5-4.9
		c-0.1-1.4-0.1-2.8,0-4.1c0.2-2.7,2.3-4.8,5-4.9c1.3,0,2.5,0,3.8,0c2.7,0,5,2.2,5.1,4.9C84.9,71.7,84.9,72.4,84.9,73.1L84.9,73.1z
		 M77.9,69.6h-1.7c-0.9-0.1-1.7,0.7-1.8,1.6c0,0.1,0,0.1,0,0.2c0,1.1,0,2.3,0,3.4c0,0.9,0.7,1.7,1.6,1.8c0.1,0,0.1,0,0.2,0h3.4
		c0.9,0.1,1.7-0.7,1.8-1.6c0,0,0-0.1,0-0.1c0-1.2,0-2.3,0-3.5c0-0.9-0.7-1.7-1.6-1.8c0,0-0.1,0-0.1,0H77.9z"/>
	<path d="M60.5,48.5c0.9,0,1.8,0.1,2.7,0.2c2.4,0.5,4.2,2.5,4.2,5c0,1.2,0,2.5,0,3.7c-0.1,2.8-2.3,5.1-5.1,5.1c-1.2,0-2.3,0-3.5,0
		c-2.8,0.1-5.2-2.1-5.3-4.9c-0.1-1.5-0.1-2.9,0-4.4c0.3-2.5,2.3-4.4,4.8-4.6C59,48.6,59.7,48.6,60.5,48.5L60.5,48.5z M63.9,55.5
		v-1.7c0.1-0.9-0.6-1.7-1.6-1.8c-0.1,0-0.1,0-0.2,0c-1.2,0-2.3,0-3.5,0c-0.9,0-1.7,0.7-1.7,1.6c0,0,0,0.1,0,0.1v3.4
		c-0.1,0.9,0.7,1.7,1.6,1.8c0,0,0.1,0,0.1,0c1.2,0,2.4,0,3.6,0c0.9,0,1.7-0.7,1.7-1.6c0,0,0-0.1,0-0.1L63.9,55.5z"/>
</g>
</svg>
