<?xml version="1.0" encoding="utf-8"?>
<!-- Generator: Adobe Illustrator 24.3.0, SVG Export Plug-In . SVG Version: 6.00 Build 0)  -->
<svg version="1.1" id="Layer_1" xmlns="http://www.w3.org/2000/svg" xmlns:xlink="http://www.w3.org/1999/xlink" x="0px" y="0px"
	 viewBox="0 0 100 100" style="enable-background:new 0 0 100 100;" xml:space="preserve">
<style type="text/css">
	.st0{stroke:#000000;stroke-width:0.8;stroke-miterlimit:10;}
	.st1{fill:#0093ED;}
</style>
<g id="_1">
	<path class="st0" d="M69.6,29.3c0-0.3-0.2-0.8-0.4-0.9c-0.6-0.2-0.5-0.7-0.5-1.2c0-4.4,0-8.7,0-13c0.1-3.6-2.7-6.6-6.3-6.8
		c-0.1,0-0.3,0-0.4,0c-10.7,0-21.4,0-32.1,0c-3.6-0.1-6.5,2.7-6.6,6.3c0,0.1,0,0.3,0,0.4c0,1.2,0,2.4,0,3.7c-1,0.1-1.1,0.7-1.1,1.5
		s0,1.2,0,1.9s0,1.3,0.8,1.5c0.1,0,0.3,0.3,0.3,0.5c0,0.7,0,1.5,0,2.3c-0.9,0.1-1.1,0.7-1.1,1.5c0,1.2,0,2.4,0,3.6
		c0,0.8,0.1,1.5,1,1.7v1.7c-0.8,0.1-1.1,0.6-1,1.4c0,1.4,0,2.7,0,4.1c0,0.3,0.1,0.9,0.3,1c0.7,0.3,0.6,0.8,0.6,1.4
		c0,14.7,0.1,29.4,0.1,44c-0.1,3.8,3,6.9,6.8,7c0.1,0,0.2,0,0.4,0c10.4-0.1,20.8,0,31.3,0c4.3,0,7-2.8,7-7.1V83h-1.8v2.5
		c0,2.7-1.4,4.6-3.7,5.1c-0.5,0.1-0.9,0.1-1.4,0.1H30.1c-2.6,0.1-4.8-1.8-4.9-4.4c0-0.2,0-0.3,0-0.5V14.1c-0.1-2.6,1.9-4.7,4.5-4.8
		c0.1,0,0.2,0,0.3,0h4.6c0,0.4,0,0.7,0,1c0,2.1,1.7,3.8,3.7,3.9c5.1,0,10.1,0,15.2,0c2.1,0,3.8-1.8,3.8-3.9c0-0.3,0-0.6,0-1.1
		c2.1,0,4.1,0.1,6.2,0.3c1.9,0.3,3.2,2.3,3.3,4.4c0,0.2,0,0.4,0,0.6v26.3h1.9v-1.8c0-0.6-0.2-1.2,0.6-1.5c0.2-0.1,0.3-0.5,0.3-0.8
		C69.7,34.1,69.7,31.7,69.6,29.3z M53.1,12.3H38.9c-1.9,0-2.6-1-2.3-2.9h18.7C55.7,11.2,55,12.2,53.1,12.3L53.1,12.3z"/>
	<path class="st1" d="M36.3,85.3H58c0.7,0,1.3,0.6,1.3,1.3v0c0,0.7-0.6,1.3-1.3,1.3H36.3c-0.7,0-1.3-0.6-1.3-1.3v0
		C35.1,85.9,35.6,85.3,36.3,85.3z"/>
	<path d="M88.5,57.8c-2-4.1-5.2-6.9-8.8-7.9c-2.3-0.6-4.8-0.3-6.8,1c-4,1.5-8.4,1.5-12.4,0.1c-2-1.2-4.4-1.6-6.7-0.9
		c-3.5,0.9-6.7,3.8-8.7,7.8c-3.5,6.9-2.4,15,2.5,18.3c2,1.3,4.5,1.7,6.8,1.1c3.3-0.9,6.4-3.4,8.4-7.2c2.4-0.9,5.1-0.9,7.5,0
		c2.1,3.8,5.2,6.4,8.6,7.3c0.8,0.2,1.5,0.3,2.3,0.3c1.6,0,3.2-0.5,4.6-1.4C90.9,73.1,92,64.8,88.5,57.8z M84.2,73.7
		c-1.3,0.8-2.9,1.1-4.4,0.7c-2.6-0.7-5.1-3-6.7-6.1c-0.2-0.4-0.6-0.7-1-0.9H72c-3.3-1.4-6.9-1.5-10.2-0.2h-0.1
		c-0.1,0-0.2,0.1-0.3,0.1c-0.4,0.2-0.8,0.5-1,0.9c-1.6,3.1-4.1,5.3-6.6,6c-1.4,0.4-3,0.2-4.2-0.6c-3.5-2.4-4.1-8.9-1.5-14.2
		c1.6-3.2,4.1-5.4,6.7-6.1c1.5-0.4,3.1-0.2,4.3,0.6c0.1,0.1,0.2,0.1,0.4,0.2h0.1c4.8,1.6,10,1.6,14.7-0.3c0.1,0,0.2-0.1,0.3-0.2
		c1.3-0.9,2.9-1.1,4.4-0.6c2.6,0.7,5.2,3,6.8,6.2C88.4,64.7,87.8,71.3,84.2,73.7z"/>
	<path d="M66.9,46c-0.9,0-1.6,0.7-1.6,1.6v5.8c0,0.9,0.7,1.6,1.6,1.6c0.9,0,1.6-0.7,1.6-1.6v-5.9C68.4,46.7,67.7,46,66.9,46z"/>
	<path d="M55.5,57.1c-2.8,0-5,2.2-5,5s2.2,5,5,5s5-2.2,5-5S58.2,57.1,55.5,57.1z M55.5,64c-1,0-1.9-0.8-1.9-1.9s0.8-1.9,1.9-1.9
		c1,0,1.9,0.8,1.9,1.9C57.3,63.1,56.5,64,55.5,64C55.5,64,55.5,64,55.5,64L55.5,64z"/>
	<path d="M79.1,57.1c-0.9,0-1.6,0.7-1.6,1.6v7.4c0,0.9,0.7,1.6,1.6,1.6c0.9,0,1.6-0.7,1.6-1.6v-7.4C80.6,57.8,79.9,57.1,79.1,57.1
		C79.1,57.1,79.1,57.1,79.1,57.1z"/>
	<path d="M82.8,60.8h-7.4c-0.9,0-1.6,0.7-1.6,1.6s0.7,1.6,1.6,1.6h7.4c0.9,0,1.6-0.7,1.6-1.6S83.6,60.8,82.8,60.8z"/>
</g>
</svg>
