<?xml version="1.0" encoding="utf-8"?>
<!-- Generator: Adobe Illustrator 24.3.0, SVG Export Plug-In . SVG Version: 6.00 Build 0)  -->
<svg version="1.1" id="Layer_1" xmlns="http://www.w3.org/2000/svg" xmlns:xlink="http://www.w3.org/1999/xlink" x="0px" y="0px"
	 viewBox="0 0 100 100" style="enable-background:new 0 0 100 100;" xml:space="preserve">
<style type="text/css">
	.st0{stroke:#000000;stroke-width:0.8;stroke-miterlimit:10;}
	.st1{fill:#0093ED;}
</style>
<g id="_1">
	<path class="st0" d="M69.6,29.3c0-0.3-0.2-0.8-0.4-0.9c-0.6-0.2-0.5-0.7-0.5-1.2c0-4.4,0-8.7,0-13c0.1-3.6-2.7-6.6-6.3-6.8
		c-0.1,0-0.3,0-0.4,0c-10.7,0-21.4,0-32.1,0c-3.6-0.1-6.5,2.7-6.6,6.3c0,0.1,0,0.3,0,0.4c0,1.2,0,2.4,0,3.7c-1,0.1-1.1,0.7-1.1,1.5
		s0,1.2,0,1.9s0,1.3,0.8,1.5c0.1,0,0.3,0.3,0.3,0.5c0,0.7,0,1.5,0,2.3c-0.9,0.1-1.1,0.7-1.1,1.5c0,1.2,0,2.4,0,3.6
		c0,0.8,0.1,1.5,1,1.7v1.7c-0.8,0.1-1.1,0.6-1,1.4c0,1.4,0,2.7,0,4.1c0,0.3,0.1,0.9,0.3,1c0.7,0.3,0.6,0.8,0.6,1.4
		c0,14.7,0.1,29.4,0.1,44c-0.1,3.8,3,6.9,6.8,7c0.1,0,0.2,0,0.4,0c10.4-0.1,20.8,0,31.3,0c4.3,0,7-2.8,7-7.1V83h-1.8v2.5
		c0,2.7-1.4,4.6-3.7,5.1c-0.5,0.1-0.9,0.1-1.4,0.1H30.1c-2.6,0.1-4.8-1.8-4.9-4.4c0-0.2,0-0.3,0-0.5V14.1c-0.1-2.6,1.9-4.7,4.5-4.8
		c0.1,0,0.2,0,0.3,0h4.6c0,0.4,0,0.7,0,1c0,2.1,1.7,3.8,3.7,3.9c5.1,0,10.1,0,15.2,0c2.1,0,3.8-1.8,3.8-3.9c0-0.3,0-0.6,0-1.1
		c2.1,0,4.1,0.1,6.2,0.3c1.9,0.3,3.2,2.3,3.3,4.4c0,0.2,0,0.4,0,0.6v26.3h1.9v-1.8c0-0.6-0.2-1.2,0.6-1.5c0.2-0.1,0.3-0.5,0.3-0.8
		C69.7,34.1,69.7,31.7,69.6,29.3z M53.1,12.3H38.9c-1.9,0-2.6-1-2.3-2.9h18.7C55.7,11.2,55,12.2,53.1,12.3L53.1,12.3z"/>
	<path class="st1" d="M36.3,85.3H58c0.7,0,1.3,0.6,1.3,1.3v0c0,0.7-0.6,1.3-1.3,1.3H36.3c-0.7,0-1.3-0.6-1.3-1.3v0
		C35.1,85.9,35.6,85.3,36.3,85.3z"/>
	<path d="M74.8,54.2v-9.9c0-0.7-0.5-1.2-1.2-1.2c0,0,0,0,0,0h-13c-0.7,0-1.2,0.5-1.2,1.2c0,0,0,0,0,0v9.9c-1.4,0.5-2.4,1.9-2.4,3.4
		v13c0,2,1.6,3.6,3.6,3.7c0,0,0,0,0,0h2.4v4.1c0,0.7,0.5,1.2,1.2,1.2l0,0H70c0.7,0,1.2-0.5,1.2-1.2l0,0v-4.2h2.4
		c2,0,3.6-1.6,3.7-3.6c0,0,0,0,0,0v-13C77.2,56.1,76.3,54.8,74.8,54.2z M61.8,45.6h10.6V54H61.8L61.8,45.6z M68.7,77.2h-3.2v-2.9
		h3.2L68.7,77.2z M74.8,70.7c0,0.7-0.5,1.2-1.2,1.2l0,0h-13c-0.7,0-1.2-0.5-1.2-1.2l0,0v-13c0-0.7,0.5-1.2,1.2-1.2c0,0,0,0,0,0h13
		c0.7,0,1.2,0.5,1.2,1.2c0,0,0,0,0,0V70.7z"/>
	<path d="M64.9,47.3c-0.7,0-1.2,0.6-1.2,1.2v2.6c0.1,0.7,0.7,1.2,1.3,1.1c0.6-0.1,1.1-0.5,1.1-1.1v-2.6
		C66.1,47.8,65.6,47.3,64.9,47.3L64.9,47.3z"/>
	<path d="M69.3,47.3c-0.7,0-1.2,0.6-1.2,1.2v2.6c0.1,0.7,0.7,1.2,1.3,1.1c0.6-0.1,1.1-0.5,1.1-1.1v-2.6C70.5,47.8,70,47.3,69.3,47.3
		L69.3,47.3z"/>
	<circle cx="67.1" cy="68.3" r="1.2"/>
</g>
</svg>
