<?xml version="1.0" encoding="utf-8"?>
<!-- Generator: Adobe Illustrator 24.3.0, SVG Export Plug-In . SVG Version: 6.00 Build 0)  -->
<svg version="1.1" id="Layer_1" xmlns="http://www.w3.org/2000/svg" xmlns:xlink="http://www.w3.org/1999/xlink" x="0px" y="0px"
	 viewBox="0 0 100 100" style="enable-background:new 0 0 100 100;" xml:space="preserve">
<style type="text/css">
	.st0{stroke:#000000;stroke-width:0.8;stroke-miterlimit:10;}
	.st1{fill:#0093ED;}
	.st2{stroke:#000000;stroke-miterlimit:10;}
</style>
<g id="_1">
	<path class="st0" d="M69.6,29.3c0-0.3-0.2-0.8-0.4-0.9c-0.6-0.2-0.5-0.7-0.5-1.2c0-4.4,0-8.7,0-13c0.1-3.6-2.7-6.6-6.3-6.8
		c-0.1,0-0.3,0-0.4,0c-10.7,0-21.4,0-32.1,0c-3.6-0.1-6.5,2.7-6.6,6.3c0,0.1,0,0.3,0,0.4c0,1.2,0,2.4,0,3.7c-1,0.1-1.1,0.7-1.1,1.5
		s0,1.2,0,1.9s0,1.3,0.8,1.5c0.1,0,0.3,0.3,0.3,0.5c0,0.7,0,1.5,0,2.3c-0.9,0.1-1.1,0.7-1.1,1.5c0,1.2,0,2.4,0,3.6
		c0,0.8,0.1,1.5,1,1.7v1.7c-0.8,0.1-1.1,0.6-1,1.4c0,1.4,0,2.7,0,4.1c0,0.3,0.1,0.9,0.3,1c0.7,0.3,0.6,0.8,0.6,1.4
		c0,14.7,0.1,29.4,0.1,44c-0.1,3.8,3,6.9,6.8,7c0.1,0,0.2,0,0.4,0c10.4-0.1,20.8,0,31.3,0c4.3,0,7-2.8,7-7.1V83h-1.8v2.5
		c0,2.7-1.4,4.6-3.7,5.1c-0.5,0.1-0.9,0.1-1.4,0.1H30.1c-2.6,0.1-4.8-1.8-4.9-4.4c0-0.2,0-0.3,0-0.5V14.1c-0.1-2.6,1.9-4.7,4.5-4.8
		c0.1,0,0.2,0,0.3,0h4.6c0,0.4,0,0.7,0,1c0,2.1,1.7,3.8,3.7,3.9c5.1,0,10.1,0,15.2,0c2.1,0,3.8-1.8,3.8-3.9c0-0.3,0-0.6,0-1.1
		c2.1,0,4.1,0.1,6.2,0.3c1.9,0.3,3.2,2.3,3.3,4.4c0,0.2,0,0.4,0,0.6v26.3h1.9v-1.8c0-0.6-0.2-1.2,0.6-1.5c0.2-0.1,0.3-0.5,0.3-0.8
		C69.7,34.1,69.7,31.7,69.6,29.3z M53.1,12.3H38.9c-1.9,0-2.6-1-2.3-2.9h18.7C55.7,11.2,55,12.2,53.1,12.3L53.1,12.3z"/>
	<path class="st1" d="M36.3,85.3H58c0.7,0,1.3,0.6,1.3,1.3v0c0,0.7-0.6,1.3-1.3,1.3H36.3c-0.7,0-1.3-0.6-1.3-1.3v0
		C35.1,85.9,35.6,85.3,36.3,85.3z"/>
</g>
<path class="st2" d="M84.7,70.1c-0.3,1.2-1.2,2.2-2.4,2.6c-4.6,2.1-9.1,4.2-13.7,6.3c-1,0.5-2.3,0.5-3.3,0
	c-5.2-2.6-9.7-6.5-13.1-11.4c-0.7-0.9-1.3-2-1.8-3c-0.4-0.8-0.5-1.7-0.2-2.6c0.5-1.7,2-2.9,3.8-3h0.5c-0.1-0.2-0.2-0.4-0.3-0.6
	c-1.7-3.6-3.3-7.1-5-10.7c-0.7-1.2-0.7-2.6-0.1-3.9c0.6-1.4,2-2.3,3.5-2.3c1.5-0.1,2.9,0.7,3.6,2c1,1.9,1.9,4,2.8,5.9
	c0.1,0.1,0.1,0.3,0.2,0.4c2.2-2.8,6-2,7.3,1.1c2.2-2.8,5.9-2,7.3,1.1c0.4-0.4,0.7-0.7,1.1-1c1.8-1.2,4.3-0.7,5.5,1.1
	c0.1,0.1,0.2,0.3,0.2,0.4c0.8,1.6,1.4,3.3,1.9,5c1,3.5,1.7,7.1,1.8,10.7c0,0.2,0,0.3,0.1,0.5L84.7,70.1z M82.7,68.3L82.7,68.3
	c-0.2-1.4-0.3-2.9-0.5-4.3c-0.4-3.4-1.4-6.8-2.7-10c-0.2-0.4-0.5-0.7-0.8-1c-0.8-0.7-2.1-0.6-2.8,0.2c-0.3,0.3-0.4,0.7-0.5,1
	c0,0.4,0,0.9,0.2,1.3c0.1,0.4,0,0.9-0.4,1.1c-0.3,0.3-0.8,0.3-1.1,0c-0.2-0.2-0.4-0.4-0.5-0.6c-0.5-1-1-2.1-1.5-3.2
	c-0.3-0.7-0.9-1.2-1.6-1.4c-1.1-0.3-2.2,0.3-2.4,1.4c-0.1,0.3-0.1,0.7,0,1c0,0.2,0.1,0.3,0.1,0.5c0.3,0.5,0.1,1.1-0.4,1.4
	c-0.5,0.3-1.1,0.1-1.4-0.4c-0.1-0.1-0.1-0.2-0.1-0.3c-0.5-1-1-2.1-1.5-3.1c-0.1-0.3-0.3-0.6-0.6-0.9c-0.7-0.9-1.9-1.1-2.8-0.4
	c-0.3,0.2-0.6,0.6-0.7,1c-0.2,0.5-0.2,1.1,0.1,1.7c0.2,0.5-0.1,1.1-0.6,1.3c-0.5,0.2-1,0-1.3-0.5c-0.1-0.1-0.1-0.2-0.2-0.3l-4-8.6
	c-0.1-0.2-0.2-0.4-0.3-0.6c-0.5-0.7-1.4-1.1-2.2-0.9c-0.8,0.2-1.4,0.8-1.5,1.7c-0.1,0.6,0.1,1.2,0.3,1.7c2.2,4.7,4.3,9.3,6.5,13.9
	c0.1,0.2,0.2,0.4,0.3,0.7c0.1,0.4-0.1,0.9-0.5,1.1c-0.4,0.2-0.9,0.1-1.2-0.3c-0.2-0.2-0.3-0.4-0.4-0.6c-0.4-0.6-1.1-0.9-1.8-0.8
	c-1.1,0.1-1.9,1-1.9,2.1c0,0.2,0.1,0.5,0.2,0.7c0.4,1,1,1.9,1.7,2.8c3.1,4.5,7.4,8.1,12.3,10.6c0.5,0.3,1.1,0.3,1.6,0
	c2.4-1.2,4.9-2.3,7.3-3.4l6.7-3.1c0.6-0.2,0.9-0.8,0.8-1.3C82.7,68.9,82.7,68.6,82.7,68.3z"/>
<path d="M46,27.7H31.8c-1.4,0-1.9-0.5-1.9-1.9c0-1.7,0-3.3,0-5c0-1.2,0.5-1.7,1.7-1.7h28.6c1.2,0,1.7,0.5,1.8,1.7c0,1.7,0,3.4,0,5.2
	c0,1.1-0.5,1.7-1.7,1.7L46,27.7z M58.3,22.1H33.6c-0.4,0-0.8,0.3-0.8,0.8V24c0,0.4,0.3,0.8,0.8,0.8h24.7c0.4,0,0.8-0.3,0.8-0.8v-1.1
	C59.1,22.4,58.8,22.1,58.3,22.1L58.3,22.1z"/>
<path d="M29.9,39c0-2.2,0-4.5,0-6.7c0-1.3,0.5-1.8,1.8-1.8h10.8c1.2,0,1.7,0.5,1.7,1.8c0,4.5,0,9.1,0,13.6c0,1.2-0.5,1.7-1.7,1.7
	H31.6c-1.1,0-1.7-0.5-1.7-1.7C29.9,43.6,29.9,41.3,29.9,39z M32.8,44.7h8.4V33.5h-8.4V44.7z"/>
<path d="M38.5,53.4h-6.8c-1.2,0-1.9-0.5-1.8-1.5s0.7-1.4,1.8-1.4h13.5c1.1,0,1.8,0.5,1.8,1.4s-0.6,1.4-1.8,1.4L38.5,53.4L38.5,53.4z
	"/>
<path d="M38.5,59c-2.2,0-4.5,0-6.8,0c-1.1,0-1.8-0.5-1.8-1.4s0.7-1.4,1.8-1.4h13.5c1.1,0,1.8,0.5,1.8,1.4s-0.7,1.5-1.8,1.5
	C43,59.1,40.7,59,38.5,59z"/>
<path d="M38.4,64.8h-6.7c-1.1,0-1.8-0.5-1.8-1.4s0.6-1.5,1.7-1.5h13.7c0.8-0.1,1.5,0.5,1.6,1.3c0.1,0.7-0.3,1.3-1,1.5
	c-0.3,0-0.5,0-0.8,0C42.9,64.8,40.7,64.8,38.4,64.8z"/>
<path d="M38.4,70.4h-6.7c-1.1,0-1.8-0.5-1.8-1.4s0.6-1.4,1.7-1.5h13.7c0.8-0.1,1.5,0.5,1.6,1.3c0.1,0.7-0.3,1.3-1,1.5
	c-0.3,0-0.5,0-0.8,0L38.4,70.4z"/>
</svg>
