<?xml version="1.0" encoding="utf-8"?>
<!-- Generator: Adobe Illustrator 24.1.0, SVG Export Plug-In . SVG Version: 6.00 Build 0)  -->
<svg version="1.1" id="Layer_1" xmlns="http://www.w3.org/2000/svg" xmlns:xlink="http://www.w3.org/1999/xlink" x="0px" y="0px"
	 viewBox="0 0 524.8 473" style="enable-background:new 0 0 524.8 473;" xml:space="preserve">
<style type="text/css">
	.st0{opacity:0.5;fill:url(#SVGID_1_);}
	.st1{opacity:0.5;fill:url(#SVGID_2_);}
	.st2{opacity:0.5;fill:url(#SVGID_3_);}
	.st3{opacity:0.5;fill:url(#SVGID_4_);}
	.st4{opacity:0.5;fill:url(#SVGID_5_);}
	.st5{opacity:0.5;fill:url(#SVGID_6_);}
	.st6{fill:#C9B3FF;}
	.st7{opacity:0.5;fill:#61DCFF;}
	.st8{opacity:0.5;fill:#00B3FC;}
	.st9{opacity:0.5;fill:#2E57AA;}
	.st10{fill:#00B3FC;}
	.st11{fill:#FFAD97;}
	.st12{fill:#FF9522;}
	.st13{fill:#0745A8;}
	.st14{fill:#FFC5B3;}
	.st15{fill:#002F68;}
	.st16{fill:#37A0F5;}
	.st17{fill:#61DCFF;}
	.st18{fill:#41A0E2;}
	.st19{fill:#FFFFFF;}
	.st20{fill:#FFB41F;}
	.st21{fill:#2DC6EA;}
	.st22{fill:#0E58C4;}
	.st23{fill:#2E57AA;}
	.st24{fill:#3470D7;}
	.st25{fill:#3970C9;}
	.st26{fill:#9E6EEA;}
	.st27{fill:#8C5DD1;}
	.st28{fill:#B188FF;}
	.st29{fill:#FFA08D;}
	.st30{fill:#FFBD48;}
	.st31{opacity:0.5;fill:#FFFFFF;}
	.st32{opacity:0.5;}
	.st33{fill:#92EAFF;}
	.st34{fill:#97EBFF;}
</style>
<g>
	<linearGradient id="SVGID_1_" gradientUnits="userSpaceOnUse" x1="92.4816" y1="177.5963" x2="156.2088" y2="287.975">
		<stop  offset="0" style="stop-color:#FFFFFF"/>
		<stop  offset="8.669516e-02" style="stop-color:#F8FDFF"/>
		<stop  offset="0.217" style="stop-color:#E3F7FF"/>
		<stop  offset="0.3749" style="stop-color:#C1EDFE"/>
		<stop  offset="0.5544" style="stop-color:#92DFFE"/>
		<stop  offset="0.7519" style="stop-color:#56CDFD"/>
		<stop  offset="0.9617" style="stop-color:#0EB7FC"/>
		<stop  offset="1" style="stop-color:#00B3FC"/>
	</linearGradient>
	<path class="st0" d="M165.2,269.6c-19.1-10-51.1-27.8-74.6-43.1s-39-25.3-25.5-33.1c15.6-9.1,37,8.4,63.3,25.7
		c28.7,19,41.4,29.6,55,39.8c8.7,6.6,6.7,8.7,2.3,11.9C181.6,273.9,175.9,275.2,165.2,269.6z"/>
	
		<linearGradient id="SVGID_2_" gradientUnits="userSpaceOnUse" x1="-1047.9622" y1="325.8654" x2="-985.7438" y2="433.6307" gradientTransform="matrix(-1 0 0 -1 -733.4996 765.774)">
		<stop  offset="0" style="stop-color:#FFFFFF"/>
		<stop  offset="8.669516e-02" style="stop-color:#F8FDFF"/>
		<stop  offset="0.217" style="stop-color:#E3F7FF"/>
		<stop  offset="0.3749" style="stop-color:#C1EDFE"/>
		<stop  offset="0.5544" style="stop-color:#92DFFE"/>
		<stop  offset="0.7519" style="stop-color:#56CDFD"/>
		<stop  offset="0.9617" style="stop-color:#0EB7FC"/>
		<stop  offset="1" style="stop-color:#00B3FC"/>
	</linearGradient>
	<path class="st1" d="M250.4,346.2c19.1,10,51.1,27.8,74.6,43.1c23.6,15.3,30.3,26.9,16.7,34.8c-15.6,9.1-41.5-5-67.7-22.3
		c-28.7-19-47.8-32.7-55-39.8c-1.3-11.7,2.4-11.7,8.8-15.7C234.6,342,239.7,340.7,250.4,346.2z"/>
	
		<linearGradient id="SVGID_3_" gradientUnits="userSpaceOnUse" x1="-1059.1763" y1="189.8113" x2="-995.7723" y2="299.6301" gradientTransform="matrix(-1 0 0 1 -656.6712 0)">
		<stop  offset="0" style="stop-color:#FFFFFF"/>
		<stop  offset="8.669516e-02" style="stop-color:#F8FDFF"/>
		<stop  offset="0.217" style="stop-color:#E3F7FF"/>
		<stop  offset="0.3749" style="stop-color:#C1EDFE"/>
		<stop  offset="0.5544" style="stop-color:#92DFFE"/>
		<stop  offset="0.7519" style="stop-color:#56CDFD"/>
		<stop  offset="0.9617" style="stop-color:#0EB7FC"/>
		<stop  offset="1" style="stop-color:#00B3FC"/>
	</linearGradient>
	<path class="st2" d="M337.3,285.8c19.1-10,51.1-27.8,74.6-43.1c23.6-15.3,34.9-27.2,21.3-35.1c-15.6-9.1-45,1.4-71.2,18.8
		c-28.7,19-41.4,29.6-55,39.8c-8.7,6.6-4.1,12,4.3,17.4C319.8,288.9,326.6,291.4,337.3,285.8z"/>
	<linearGradient id="SVGID_4_" gradientUnits="userSpaceOnUse" x1="50.9879" y1="450.9038" x2="88.3137" y2="386.2537">
		<stop  offset="0" style="stop-color:#FFFFFF"/>
		<stop  offset="8.669516e-02" style="stop-color:#F8FDFF"/>
		<stop  offset="0.217" style="stop-color:#E3F7FF"/>
		<stop  offset="0.3749" style="stop-color:#C1EDFE"/>
		<stop  offset="0.5544" style="stop-color:#92DFFE"/>
		<stop  offset="0.7519" style="stop-color:#56CDFD"/>
		<stop  offset="0.9617" style="stop-color:#0EB7FC"/>
		<stop  offset="1" style="stop-color:#00B3FC"/>
	</linearGradient>
	<polygon class="st3" points="64.7,458.8 0,421.5 74.7,378.4 139.3,415.7 	"/>
	
		<linearGradient id="SVGID_5_" gradientUnits="userSpaceOnUse" x1="-832.6635" y1="462.1528" x2="-795.1224" y2="397.1299" gradientTransform="matrix(-1 0 0 1 -381.8284 0)">
		<stop  offset="0" style="stop-color:#FFFFFF"/>
		<stop  offset="8.669516e-02" style="stop-color:#F8FDFF"/>
		<stop  offset="0.217" style="stop-color:#E3F7FF"/>
		<stop  offset="0.3749" style="stop-color:#C1EDFE"/>
		<stop  offset="0.5544" style="stop-color:#92DFFE"/>
		<stop  offset="0.7519" style="stop-color:#56CDFD"/>
		<stop  offset="0.9617" style="stop-color:#0EB7FC"/>
		<stop  offset="1" style="stop-color:#00B3FC"/>
	</linearGradient>
	<polygon class="st4" points="431.2,473 507.6,429.4 432.9,386.3 356.5,429.9 	"/>
	
		<linearGradient id="SVGID_6_" gradientUnits="userSpaceOnUse" x1="-671.4204" y1="235.2543" x2="-651.4118" y2="200.5984" gradientTransform="matrix(-1 0 0 -1 -381.8284 399.9002)">
		<stop  offset="0" style="stop-color:#FFFFFF"/>
		<stop  offset="8.669516e-02" style="stop-color:#F8FDFF"/>
		<stop  offset="0.217" style="stop-color:#E3F7FF"/>
		<stop  offset="0.3749" style="stop-color:#C1EDFE"/>
		<stop  offset="0.5544" style="stop-color:#92DFFE"/>
		<stop  offset="0.7519" style="stop-color:#56CDFD"/>
		<stop  offset="0.9617" style="stop-color:#0EB7FC"/>
		<stop  offset="1" style="stop-color:#00B3FC"/>
	</linearGradient>
	<polygon class="st5" points="284.1,161.7 314.9,179.3 275.1,202.3 244.2,184.7 	"/>
</g>
<g>
	<g>
		<path class="st6" d="M150.4,199.2l59.7-34.5c5.2-3,13.4-3.4,17.9-0.8l38,21.9c0.1-0.8,0.1-1.6,0.2-2.4L229.1,162
			c-5.2-3-14.2-2.6-20.1,0.8l-60.5,34.9C149.2,198.2,149.8,198.7,150.4,199.2z"/>
	</g>
	<g>
		<path class="st6" d="M519.6,308.6L490.8,292c-0.1,0.8-0.1,1.7-0.2,2.5l27.8,16c2.5,1.4,3.9,3.4,3.9,5.5c0,2.6-2.1,5.3-5.7,7.4
			l-69.5,40.1c0.4,0.6,0.8,1.3,1.3,1.9l69.4-40c4.4-2.5,6.9-5.9,6.9-9.4C524.6,313.1,522.8,310.5,519.6,308.6z"/>
	</g>
	<g>
		<path class="st6" d="M503.7,299.5l-18.3-10.6c-6.2-3.6-11.4-13.6-11.4-21.8v-95.4h-2.3v95.4c0,9.2,5.6,19.8,12.5,23.8l19.5,11.2
			V299.5z"/>
	</g>
	<path class="st6" d="M520,327.3L266.1,180.7v2.6l252.7,146c2.4,1.4,3.7,3.3,3.7,5.3c0,2.5-2,5.2-5.5,7.2l-96.4,55.7v2.6l97.5-56.3
		c4.2-2.4,6.7-5.8,6.7-9.1C524.8,331.7,523.1,329.2,520,327.3z"/>
	<path class="st6" d="M197.5,307.7L113.2,259c-0.7,0.5-1.3,1-2,1.4l85.2,49.2c2.4,1.4,3.7,3.3,3.7,5.3c0,2.5-2,5.2-5.5,7.2
		l-96.4,55.7v2.6l97.5-56.3c4.2-2.4,6.7-5.8,6.7-9.1C202.4,312,200.7,309.5,197.5,307.7z"/>
	<path class="st6" d="M86.4,239.4c0-2,1.3-3.9,3.7-5.3l114.3-66c-0.6-0.5-1.1-1.1-1.7-1.6L89,232.2c-3.1,1.8-4.9,4.4-4.9,7.2
		c0,3.4,2.4,6.7,6.7,9.1l97.5,56.3v-2.6l-96.4-55.7C88.4,244.6,86.4,242,86.4,239.4z"/>
</g>
<g>
	<g>
		<polygon class="st7" points="137.7,88 94.6,112.9 94.6,165.5 137.7,140.6 		"/>
		<polygon class="st8" points="119.9,147.8 97.9,160.5 97.9,136.6 119.9,123.9 		"/>
		<polygon class="st8" points="122.8,99.6 122.8,117.9 134.8,111 134.8,92.7 		"/>
		<polygon class="st9" points="122.8,123.5 122.8,145.6 134.8,138.7 134.8,116.6 		"/>
		<polygon class="st9" points="119.9,104.5 97.9,117.2 97.9,114.8 119.9,102.1 		"/>
		<polygon class="st9" points="119.9,109.5 97.9,122.3 97.9,119.8 119.9,107.1 		"/>
		<polygon class="st9" points="119.9,114.7 97.9,127.4 97.9,125 119.9,112.3 		"/>
		<polygon class="st9" points="119.9,119.7 97.9,132.4 97.9,130 119.9,117.3 		"/>
	</g>
	<g>
		<path class="st7" d="M197.3,87.3c0,7.8-4.7,16.8-10.6,20.2c-5.8,3.4-10.6-0.2-10.6-8s4.7-16.8,10.6-20.2
			C192.6,75.9,197.3,79.5,197.3,87.3z"/>
		<path class="st10" d="M192.1,90.8c0,3.3-2,7.1-4.5,8.5c-2.5,1.4-4.5-0.1-4.5-3.4c0-3.3,2-7.1,4.5-8.5
			C190.1,86,192.1,87.5,192.1,90.8z"/>
	</g>
	<polygon class="st7" points="151,101.7 151,109.5 162.9,102.6 162.9,94.7 	"/>
	<polygon class="st7" points="179.7,60 179.7,67.8 191.7,60.9 191.7,53.1 	"/>
	<g>
		<path class="st7" d="M173.7,67c0,7.8-4.7,16.8-10.6,20.2c-5.8,3.4-10.6-0.2-10.6-8s4.7-16.8,10.6-20.2
			C169,55.6,173.7,59.2,173.7,67z"/>
		<path class="st10" d="M168.5,70.5c0,3.3-2,7.1-4.5,8.5c-2.5,1.4-4.5-0.1-4.5-3.4c0-3.3,2-7.1,4.5-8.5
			C166.5,65.7,168.5,67.2,168.5,70.5z"/>
	</g>
	<g>
		<path class="st11" d="M196.5,115.9c-0.3-3.2-2.2-11.3-4.2-15.2c-0.1-0.6-0.9-5.5-0.5-8c0.4-2.7-0.7-4.9-2.4-4.4
			c-1.6,0.5-2.3,3.4-2.3,6.2c0,1,0,2.6,0,2.6s-1.3-1.5-1.9-2.2c-0.7-0.9-1.4,0-0.7,1.5c0.3,0.7,0.7,1.6,1.6,2.7
			c0.7,0.9,1.8,3.4,2.2,4.3c0.5,4.3,0.8,10.6,0.8,14.6c0,9.9-2.8,13.8-2.8,13.8l6.5,1.7C192.8,133.6,197,121.7,196.5,115.9z"/>
		<path class="st12" d="M186,126.7c0,0,8.5-2.5,8.6,4.6c0.3,16.4-8.7,12.8-8.7,11.6l-2.1-5.7L186,126.7z"/>
		<path class="st13" d="M188.8,263.9c-0.9,2.1-3,1.9-7.2,0.4c-3.7-1.3-6.8-2.9-9.5-4.8c-2.7-2-2.7-2.2-3-3.6
			c-0.5-1.9,2.2-2.9,6.7-1.5c0.4,0.1,0.9,0.3,1.2,0.4c-0.8,0.1-1.7,0.4-2.1,1.1c-0.8,1.5,1.7,3.2,4.4,4.5c2.7,1.3,4.9,1.3,6.3,0.7
			c1-0.4,2.3-1,3-1.3C189,261.8,189.4,262.6,188.8,263.9z"/>
		<path class="st14" d="M164.7,264c0.4-0.7,1.2-1,2.1-1.1c2.5,0.8,3.7,1.4,3.7,1.4s-0.7-11.6-1.4-20.6c-1.2-7.8-2.5-17.4-2.4-22.3
			c0-0.5-0.1-14.6-0.1-15.4c1.2,0.6,9.2,1.7,11.9,1.5c0,0.4-0.5,14.1-0.5,19c0,7.6,0.3,16.9,0.3,16.3h0c0.2,6.1,0.4,15.1,0,19.9
			c-0.2,2.5-0.1,4.1,0.1,5.3c-0.6,0.3-2,0.9-3,1.3c-1.4,0.6-3.6,0.6-6.3-0.7C166.5,267.2,163.9,265.5,164.7,264z"/>
		<path class="st14" d="M175.1,256c0.4-0.7,1.2-1,2.1-1.1c2.5,0.8,3.7,1.4,3.7,1.4s-0.3-8.7-0.7-15.4c-0.4-5.6-1.1-31.3-1.2-35
			c3.9-0.6,8.1,0.4,11.1-2.2c0,0.9,0,14.6,0.1,15.5c0.4,4.5-0.5,10.8-0.9,15.3c-0.3,3.8-0.1,16.2-0.5,20.2c-0.2,2.5-0.1,4.1,0.1,5.3
			c-0.6,0.3-2,0.9-3,1.3c-1.3,0.6-3.6,0.6-6.3-0.7C176.8,259.2,174.2,257.6,175.1,256z"/>
		<path class="st13" d="M178.5,271.9c-0.9,2.1-3,1.9-7.2,0.4c-3.7-1.3-6.8-2.9-9.5-4.8c-2.7-2-2.7-2.2-3-3.6
			c-0.5-1.9,2.2-2.9,6.7-1.5c0.4,0.1,0.9,0.3,1.2,0.4c-0.8,0.1-1.7,0.4-2.1,1.1c-0.8,1.5,1.7,3.2,4.4,4.5c2.7,1.3,4.9,1.3,6.3,0.7
			c1-0.4,2.3-1,3-1.3C178.6,269.8,179,270.6,178.5,271.9z"/>
		<path class="st10" d="M190.6,208.7c-11.5,7.7-22,3.1-25,1.6c-0.1-6.7-0.3-23.1,1.3-30.6c0.8-4,2.8-9.8,2.8-9.8l18.6-1.2
			c0,0,4.1,5.2,4.9,12.6c0.7,6.4-0.1,9.8-0.6,13.7C192.2,198.2,190.7,206.1,190.6,208.7z"/>
		<g>
			<path class="st15" d="M183.5,108.3c4.9,0.8,8.4,3.3,8.4,6.3c0,0.1,0,0.2,0,0.2c0,0.6-0.2,1.2-0.5,1.7c-0.4-0.7-1-1.4-1.8-2
				c-1.5-1.1-3.6-1.9-6.1-2.3V108.3z"/>
			<path class="st16" d="M183.4,108.4c4.8,0.8,8.3,3.2,8.3,6.2c0,0.1,0,0.1,0,0.2c0,0.6-0.2,1.2-0.5,1.7c-0.4-0.7-1-1.4-1.8-1.9
				c-1.5-1.1-3.6-1.9-6-2.3V108.4z"/>
			<g>
				<path class="st15" d="M175.7,110.5l-12.7,7.3c-0.7,0.4-1.4,0-1.4-1v-5.1c0-1,0.6-2.2,1.4-2.6l12.7-7.3c0.7-0.4,1.4,0,1.4,1v5.1
					C177.1,108.9,176.5,110,175.7,110.5z"/>
				<path class="st15" d="M163.6,118.7l-1.4-0.8l0.4-1c0,0,1.7,0.7,1.7,0.8C164.3,117.6,163.6,118.7,163.6,118.7z"/>
				<g>
					<polygon class="st15" points="178,102.5 176.6,101.7 176,102.3 177.3,103.4 					"/>
				</g>
				<path class="st17" d="M177.2,111.3l-12.7,7.3c-0.7,0.4-1.4,0-1.4-1v-5.1c0-1,0.6-2.2,1.4-2.6l12.7-7.3c0.7-0.4,1.4,0,1.4,1v5.1
					C178.5,109.7,177.9,110.9,177.2,111.3z"/>
				<polygon class="st17" points="178,102.5 183,105.3 168.6,121.5 163.6,118.7 				"/>
				<g>
					<path class="st18" d="M164.5,118.3l1.9,1.1c0.4,0.2,0.7,0,0.7-0.5v-2.6c0-0.5-0.3-1.1-0.7-1.3l-1.9-1.1c-0.4-0.2-0.7,0-0.7,0.5
						v2.6C163.8,117.5,164.1,118,164.5,118.3z"/>
					<polygon class="st18" points="164,113.9 164.2,113.7 164.3,113.8 164.1,114 					"/>
					<polygon class="st18" points="167,119.3 166.8,119.4 166.7,119.3 167,119.2 					"/>
					<path class="st19" d="M164.6,118.2l1.9,1.1c0.4,0.2,0.7,0,0.7-0.5v-2.6c0-0.5-0.3-1.1-0.7-1.3l-1.9-1.1c-0.4-0.2-0.7,0-0.7,0.5
						v2.6C163.9,117.4,164.2,117.9,164.6,118.2z"/>
					<path class="st18" d="M164.7,116.1c0,0.6,0.4,1.3,0.8,1.6c0.5,0.3,0.8,0,0.8-0.6c0-0.6-0.4-1.3-0.8-1.6
						C165.1,115.2,164.7,115.5,164.7,116.1z"/>
				</g>
				<path class="st16" d="M182.1,114.1l-12.7,7.3c-0.7,0.4-1.4,0-1.4-1v-5.1c0-1,0.6-2.2,1.4-2.6l12.7-7.3c0.7-0.4,1.4,0,1.4,1v5.1
					C183.5,112.5,182.8,113.7,182.1,114.1z"/>
				<path class="st16" d="M170.8,122.8l-2.2-1.3c0,0,0.9-1.4,1-1.4c0.1,0,1.8,0.4,1.8,0.4L170.8,122.8z"/>
				<polygon class="st15" points="185.1,106.5 183,105.3 182.2,106.1 183.2,107.6 				"/>
				<path class="st15" d="M184.1,115.5c-0.9,0.3-4,1.5-6.3,2.9c-1.6,1-6.1,4.3-6.1,4.3c-0.7,0.4-1.4,0-1.4-1v-5.1
					c0-1.1,0.5-1.7,1-2.3c1-1.2,3-3.3,6.2-5.2c2.8-1.6,6.4-2.4,7.3-2.6c0.5-0.1,0.8,0.4,0.8,1.2v5.1c0,0.9-0.3,1.9-1.1,2.4
					C184.5,115.3,184.2,115.4,184.1,115.5z"/>
				<g>
					<path class="st15" d="M183.5,111.5v-4.4c0.5-0.1,0.8-0.2,1.1-0.2c0.4,0,0.8,0.4,0.8,1.1v4.7c0,0.8-0.3,1.7-1,2.2
						c-0.1,0.1-0.4,0.2-0.7,0.3c-0.9,0.4-3.7,1.4-5.8,2.7c-1.4,0.9-4.5,3.1-6,4.2c-0.6,0.5-1.2,0-1.2-0.9v-0.6l11.5-6.6
						C182.8,113.7,183.5,112.5,183.5,111.5z"/>
					<path class="st15" d="M171.5,114.5c0.9-1.1,3-3.4,6-5.2c1.9-1.1,4.4-1.9,5.9-2.3v4.4c0,1-0.6,2.2-1.4,2.6l-11.5,6.6v-4.1
						C170.6,115.6,171.1,115.1,171.5,114.5z"/>
				</g>
				<g>
					<path class="st15" d="M180,109.7c0-0.3,0-0.5-0.1-0.8c1-0.4,1.7,0.3,1.7,1.6c0,1.4-0.9,3.1-2,3.7c-0.9,0.5-1.6,0.2-1.9-0.7
						c0.1,0,0.2-0.1,0.3-0.1C179.1,112.8,180,111.1,180,109.7z"/>
					<path class="st18" d="M179.6,109c0.1,0,0.2-0.1,0.3-0.1c0.1,0.2,0.1,0.5,0.1,0.8c0,1.4-0.9,3.1-2,3.7c-0.1,0-0.2,0.1-0.3,0.1
						c-0.1-0.2-0.1-0.5-0.1-0.8C177.6,111.3,178.5,109.7,179.6,109z"/>
				</g>
				<g>
					<path class="st15" d="M174,113.1c0-0.3,0-0.5-0.1-0.8c1-0.4,1.7,0.3,1.7,1.6c0,1.4-0.9,3.1-2,3.7c-0.9,0.5-1.6,0.2-1.9-0.7
						c0.1,0,0.2-0.1,0.3-0.1C173.1,116.2,174,114.6,174,113.1z"/>
					<path class="st18" d="M173.7,112.5c0.1,0,0.2-0.1,0.3-0.1c0.1,0.2,0.1,0.5,0.1,0.8c0,1.4-0.9,3.1-2,3.7c-0.1,0-0.2,0.1-0.3,0.1
						c-0.1-0.2-0.1-0.5-0.1-0.8C171.7,114.8,172.6,113.1,173.7,112.5z"/>
				</g>
				<polygon class="st15" points="172.8,110.2 177.5,107.5 176.9,107.2 172.3,109.9 				"/>
			</g>
		</g>
		<path class="st14" d="M177.2,108.2c-1,0.7-4.9,1.6-6,10.2c-1,7.6,0.7,9.6,2.3,10.2c0.9,0.4,3.9,0.3,3.9,0.3l-0.1,6.4
			c0,0,3.8,1.5,7.4,0c3.6-1.5,3.6-1.5,3.6-1.5s-1.4-2.4-1.2-6.6c0.3-5.2,2.1-12.7,0.8-15.4C185.4,106.9,180,106.3,177.2,108.2z"/>
		<path class="st20" d="M190.6,170.1c-1.7,2-8.4,3.8-11.1,4.1c-4.1,0.5-8.5-1.3-10.4-4.3c2.5-7.7,0.3-15.3,0.3-15.3
			s-2.4-9.2,0.2-14.4c2.6-5.2,5.1-5.5,7.6-6.4c2.6-0.9,11.9-0.7,11.9-0.7s5.5,5.9,3.7,13.7C190.2,158.3,189.8,163.2,190.6,170.1z"/>
		<path class="st12" d="M186.8,134.5c0,0-2.8,3.4-6.5,2.5c-3.7-1-5.7-2.3-5.7-2.3s0.6-1.4,3-1.6c3.7-0.4,8.5-1.7,8.5-1.7
			L186.8,134.5z"/>
		<path class="st15" d="M170.9,115.5c0.3,2.9,2.7,3.8,4.8,6.1c2.2,2.3,3.3,4.4,8,7.8c1.7,1.2,1.3,10.7,4.6,17.5
			c3.5,7.2,1.5,8.5,1.5,8.5s10-3.2,5.9-14.3c-1.5-4.1-7.2-7.4-7.4-11.7c-0.1-2,2.5-3.9,3.4-7.7c2.7-11.7-2.8-15-7.9-16.1
			C174.5,103.6,170.3,109.4,170.9,115.5z"/>
		<path class="st14" d="M173.4,119.7c0,0,2.3-3.9,3.2,0c0.9,3.6-2.2,4.8-2.2,4.8L173.4,119.7z"/>
		<path class="st20" d="M189.1,127c0,0,0.1,2.5-0.4,3c-0.7,0.7-3.3,1.6-4.2,1.2c-0.8-0.3-2-2-2.1-2.8
			C185.8,128.2,189.1,127,189.1,127z"/>
		<path class="st14" d="M163.2,144.4c0,0-4.7,4.3-8.8,5.1c-2.2-1.4-8.3-5.8-10-8c-1.4-1.8-2.6-3.9-3.7-6c-1.8,0.8-3.1,2.1-4,3.7
			c1.2,1.4,3.7,7.1,7.9,11.8c1.5,1.7,4,5.2,8.4,6.5c1.5,0.4,6,0.2,8.4-0.6c1.6-0.6,8.4-3.7,8.4-3.7L163.2,144.4z"/>
		<path class="st12" d="M175.4,136.8c1.8,0.5,4.3,2.5,3.4,6.6c-1.4,6.2-4.9,7.6-7.6,9.6c-0.9,0.7-3.7,1.9-3.7,1.9s-2.8-2.5-4.1-5
			c-1.3-2.5-2.1-4.5-2.1-4.5S167.9,134.7,175.4,136.8z"/>
		<path class="st20" d="M162.2,144.1l-1.6,2c0,0,0.2,2.3,2.5,5.1c2.2,2.8,3.7,4,3.7,4l2.6-1.1c0,0-3.2-2.3-5-5.3
			C162.6,145.9,162.2,144.1,162.2,144.1z"/>
		<g>
			<g>
				<polygon class="st17" points="168.9,116.1 169.6,116.5 169.6,121.6 168.9,121.1 				"/>
				<polygon class="st21" points="169.6,116.5 169.9,116.4 169.9,121.4 169.6,121.6 				"/>
				<polygon class="st19" points="169.9,116.4 169.6,116.5 168.9,116.1 169.1,116 				"/>
			</g>
			<g>
				<path class="st22" d="M169.3,116.6c0.4,0.4,1.3,1.2,1.6,1.5c2.1,1.7,5.5,2.8,9.4,2.8c3.9,0,7.3-1.1,9.4-2.8
					c0.6-0.5,1.1-1.1,1.5-1.7c0.3-0.5,1-2.1,1-2.7l0.2,2.9l-0.7,1.5c0,0.1,0,0.2,0,0.2c0,3.5-5.1,6.4-11.4,6.4
					c-4.6,0-8.5-1.5-10.3-3.7l-0.8-4.3L169.3,116.6z"/>
				<path class="st13" d="M169.1,116.7c0.3,0.3,1.3,1.2,1.6,1.5c2.1,1.7,5.6,2.8,9.6,2.8c4,0,7.5-1.1,9.6-2.8
					c0.6-0.5,1.1-1.1,1.5-1.7c0.3-0.6,0.8-1.8,0.8-2.4c0,0,0.4,1.9-0.1,4.7c-1.5,3.3-5.4,6.2-11.8,6.2c-4,0-7.6-1.2-9.6-2.9
					c-0.3-0.3-1.3-1.2-1.6-1.5V116.7z"/>
			</g>
			<g>
				<path class="st22" d="M178.7,104.5c1.4-0.9,3.2-0.9,5.3,0.2c3.2,1.8,6.7,6.8,7.3,12c-0.7,2-3.2,2.8-3.7,2.6
					c-0.6-5.1-3.5-10-7.3-12.2c-0.1,0-0.1-0.1-0.2-0.1c-1-0.6-2-0.9-2.9-0.9c-0.4,0-0.8,0-1.2,0c-0.4,0.1-0.7,0.2-0.7,0.2
					L178.7,104.5z"/>
			</g>
			<path class="st13" d="M178.7,104.4c1.7-0.9,3.4-1,5.5,0.1c3.2,1.8,6.7,6.8,7.3,12c-0.5,2.1-3,2.9-3.5,3.1
				c-0.7-5.5-3.8-10.5-7.5-12.7c-0.1,0-0.1-0.1-0.2-0.1c-1-0.6-2-0.9-2.9-0.9c-0.7,0-1.4,0.1-2,0.4l0,0L178.7,104.4z"/>
		</g>
		<path class="st14" d="M141.2,136.5c0,0-0.4-4.2,0-5.9c0.4-1.7-0.2-2.2-0.7-1.5c-0.5,0.8-0.5,3.9-1,3.5c-0.5-0.4-2.2-5.3-4.2-6.4
			c-2-1.1-2.4,0.3-3.5,2.9c-1.3,3,2.7,7.8,4.8,10C138.4,141.2,141.2,136.5,141.2,136.5z"/>
	</g>
	<polygon class="st9" points="143.5,100.8 143.5,108.6 155.5,101.7 155.5,93.8 	"/>
</g>
<g>
	<g>
		<polygon class="st23" points="337.6,2.2 495.8,93.5 495.8,218.6 337.6,127.2 		"/>
		<polygon class="st15" points="499.5,91.4 495.8,93.5 495.8,218.6 499.5,216.5 		"/>
		<g>
			<polygon class="st17" points="492.6,95.8 492.6,170 340.5,82.2 340.5,8 			"/>
			<polygon class="st10" points="492.6,212.6 340.5,124.8 340.5,82.2 492.6,170 			"/>
		</g>
		<polygon class="st24" points="398.8,115.9 436.2,137.5 448.2,186.9 372,142.9 		"/>
		<path class="st19" d="M353.4,38.8c0.1-3.3,2.1-4.9,4.7-3.4c0.6,0.3,1.1,0.8,1.7,1.4c1.1-1.6,2.9-1.9,5-0.7
			c2.4,1.4,4.5,4.6,5.4,7.9c0.8-0.5,1.9-0.5,3.1,0.2c1.7,1,3.2,3.1,4,5.4c0.5-0.1,1.1,0.1,1.7,0.4c1.7,1,3.1,3.3,3.5,5.6L353.4,38.8
			z"/>
		<path class="st19" d="M483.1,113.7c-0.1-4.1-2.5-8.7-5.6-10.5c-0.7-0.4-1.4-0.6-2-0.7c-1.3-3.3-3.5-6.3-6-7.8
			c-2.9-1.7-5.4-0.8-6.5,1.9c-1-1.7-2.3-3.2-3.7-4c-2.1-1.2-3.9-0.7-4.8,0.9c-0.6-0.8-1.3-1.4-2-1.9c-2-1.2-3.7-0.4-4.2,1.8
			L483.1,113.7z"/>
		<path class="st19" d="M383.7,63.3c0.2-2,1.6-2.9,3.3-1.9c0.8,0.4,1.5,1.2,2.1,2.2c0.7-1.3,2-1.7,3.6-0.8c1.8,1.1,3.4,3.6,3.9,6.1
			c0.5-0.1,1-0.1,1.6,0.3c1.2,0.7,2.3,2.4,2.7,4.1L383.7,63.3z"/>
		<path class="st19" d="M437.8,104.5c0.2-1.8,1.5-2.6,3-1.7c0.7,0.4,1.4,1.1,1.9,2c0.6-1.2,1.9-1.6,3.3-0.8c1.7,1,3.1,3.3,3.6,5.6
			c0.4-0.1,0.9-0.1,1.4,0.3c1.1,0.7,2.1,2.2,2.4,3.7L437.8,104.5z"/>
		<path class="st19" d="M346.7,54.8c0.2-1.8,1.5-2.6,3-1.7c0.7,0.4,1.4,1.1,1.9,2c0.6-1.2,1.9-1.6,3.3-0.8c1.7,1,3.1,3.3,3.6,5.6
			c0.4-0.1,0.9-0.1,1.4,0.3c1.1,0.7,2.1,2.2,2.4,3.7L346.7,54.8z"/>
		<path class="st19" d="M427.5,91.1c0.2-1.8,1.5-2.6,3-1.7c0.7,0.4,1.4,1.1,1.9,2c0.6-1.2,1.9-1.6,3.3-0.8c1.7,1,3.1,3.3,3.6,5.6
			c0.4-0.1,0.9-0.1,1.4,0.3c1.1,0.7,2.1,2.2,2.4,3.7L427.5,91.1z"/>
		<path class="st24" d="M448.8,125.8c0.5-2.1,2.4-0.5,3.9,0.4c-0.9-2.9-0.2-5.8,2-4.2c0-1.3,0.4-2.6,1.5-2.3
			c0.2,0.1,0.4,0.2,0.6,0.4c-0.3-1.1-0.2-2.2,0.5-2.8c1.4-1.4,3.7,0.9,4.4,3.7c1.8-0.3,4.1,0.4,5.1,3.6c2.9-0.5,5.8,6,4.4,8.1
			c1.9,1.4,2.9,5.2,1.4,5.8c3.1,4.2,2.9,10-0.4,10.3c0.4,4-2.6,5.7-5.3,1.6c-0.3,0.2-0.7,0.3-1.1,0.3c-0.4,2.1-0.7,4.8-0.8,6.8
			c-0.1,3.8,0,8.6,0,13c0,3.8,0.5,9,0.6,10.5l-6.3-3.6c0.4-1,1.3-3.8,1.6-6.6c0.3-3.4,0.4-12.8-0.7-15.2c-1.1-2.4-4-7-5-10.4
			c-0.4-1.3-0.7-2.6-0.8-3.6c-2.5-1.7-4.9-6-3.3-8.9C449.7,130.6,448.3,127.7,448.8,125.8z M456.4,145.9c1.5,2.9,4.6,7.7,4.6,7.7
			s0-3.4,0.2-6.3c-0.1-0.2-0.2-0.5-0.3-0.7c-1.1,0.1-2.2-0.9-3.3-2.6c-0.4-0.6-0.7-1.2-1-1.8c-0.4,0.1-0.9,0.1-1.3-0.1
			C455.4,143.2,455.7,144.6,456.4,145.9z"/>
		<path class="st24" d="M388.3,85c-0.5-2.8-2.4-3.3-3.9-4.1c0.9-1.8,0.2-5.5-2-6.4c0-1.3-0.4-3.1-1.5-4c-0.2-0.2-0.4-0.3-0.6-0.3
			c0.3-0.8,0.2-2.1-0.5-3.4c-1.4-3.1-3.7-3.3-4.4-1.4c-1.8-2.3-4.1-4.3-5.1-2.4c-2.9-3.9-5.8-0.7-4.4,3c-1.9-0.7-2.9,1.9-1.4,4.3
			c-3.1,0.7-2.9,6.6,0.4,10.8c-0.4,3.6,2.6,8.7,5.3,7.7c0.3,0.6,0.7,1.1,1.1,1.6c0.4,2.5,0.7,5.6,0.8,7.7c0.1,4,0,8.6,0,13
			c0,3.8-0.5,8.4-0.6,9.7l6.3,3.6c-0.4-1.4-1.3-5.4-1.6-8.5c-0.3-3.8-0.4-13.3,0.7-14.4c1.1-1.1,4-2.4,5-4.5
			c0.4-0.9,0.7-1.8,0.8-2.7c2.5,1.2,4.9-0.3,3.3-5C387.4,88.8,388.8,87.6,388.3,85z M380.7,96.4c-1.5,1.2-4.6,2.4-4.6,2.4
			s0-3.4-0.2-6.6c0.1-0.1,0.2-0.2,0.3-0.4c1.1,1.4,2.2,1.7,3.3,1.2c0.4-0.1,0.7-0.3,1-0.6c0.4,0.6,0.9,1.1,1.3,1.5
			C381.7,94.8,381.4,95.8,380.7,96.4z"/>
		<path class="st24" d="M451.9,168.9c-0.1-0.7,0.1-1.4,0.3-1.7c0.6-0.6,1.5-0.2,2.4,0.6c0.1-0.9,0.3-1.7,1.1-1.6
			c0.5,0.1,1.1,0.6,1.5,1.3c-0.1-0.8,0.1-1.5,0.4-1.9c0.5-0.7,1.5-0.6,2.5,0.2c0.9,0.7,1.6,1.9,2,3.2c0.3,0.2,0.6,0.3,0.9,0.6
			c0.6,0.4,1.1,0.7,1.7,1.5c0.7,1.1,1.1,2.3,0.9,3.3c1.1,0.6,2.2,1.7,2.7,3.4c0.6,2-0.3,2.6-1.3,2.8c0.3,0.7,0.4,1.5,0.2,2.2
			c-0.4,1.5-1.8,1.1-3.1,0.2c-0.9,1.1-2.9,0.1-4.2-1.7c-1,0.5-3.3-0.8-4.2-3.1c-0.7,0.8-2,0.6-3.2-0.9c-1.3-1.6-1.3-3.2-0.8-4.4
			c-0.5-0.5-0.9-1.4-1.1-2.2C450.4,169.3,451,168.6,451.9,168.9z"/>
		<path class="st24" d="M367.8,114.8c-0.1-0.7,0.1-1.4,0.3-1.7c0.6-0.6,1.5-0.2,2.4,0.6c0.1-0.9,0.3-1.7,1.1-1.6
			c0.5,0.1,1.1,0.6,1.5,1.3c-0.1-0.8,0.1-1.5,0.4-1.9c0.5-0.7,1.5-0.6,2.5,0.2c0.9,0.7,1.6,1.9,2,3.2c0.3,0.2,0.6,0.3,0.9,0.6
			c0.6,0.4,1.1,0.7,1.7,1.5c0.7,1.1,1.1,2.3,0.9,3.3c1.1,0.6,2.2,1.7,2.7,3.4c0.6,2-0.3,2.6-1.3,2.8c0.3,0.7,0.4,1.5,0.2,2.2
			c-0.4,1.5-1.8,1.1-3.1,0.2c-0.9,1.1-2.9,0.1-4.2-1.7c-1,0.5-3.3-0.8-4.2-3.1c-0.7,0.8-2,0.6-3.2-0.9c-1.3-1.6-1.3-3.2-0.8-4.4
			c-0.5-0.5-0.9-1.4-1.1-2.2C366.2,115.1,366.9,114.4,367.8,114.8z"/>
		<path class="st24" d="M352.7,113.8c-0.1-0.4,0-0.9,0.2-1c0.4-0.4,0.9-0.1,1.5,0.4c0.1-0.6,0.2-1,0.7-1c0.3,0,0.7,0.4,1,0.8
			c-0.1-0.5,0-0.9,0.2-1.2c0.3-0.5,1-0.4,1.6,0.1c0.6,0.5,1,1.2,1.3,2c0.2,0.1,0.3,0.2,0.6,0.4c0.4,0.3,0.7,0.5,1,0.9
			c0.5,0.7,0.7,1.4,0.6,2.1c0.7,0.4,1.4,1,1.7,2.1c0.4,1.3-0.2,1.7-0.8,1.7c0.2,0.5,0.2,1,0.1,1.4c-0.3,0.9-1.2,0.7-1.9,0.1
			c-0.6,0.7-1.8,0.1-2.6-1.1c-0.6,0.3-2.1-0.5-2.6-1.9c-0.5,0.5-1.3,0.3-2-0.6c-0.8-1-0.8-2-0.5-2.7c-0.3-0.3-0.6-0.9-0.7-1.4
			C351.7,114.1,352.1,113.6,352.7,113.8z"/>
		<path class="st24" d="M445.8,153.7c-0.1-0.4,0-0.9,0.2-1c0.4-0.4,0.9-0.1,1.5,0.4c0.1-0.6,0.2-1,0.7-1c0.3,0,0.7,0.4,1,0.8
			c-0.1-0.5,0-0.9,0.2-1.2c0.3-0.5,1-0.4,1.6,0.1c0.6,0.5,1,1.2,1.3,2c0.2,0.1,0.3,0.2,0.6,0.4c0.4,0.3,0.7,0.5,1,0.9
			c0.5,0.7,0.7,1.4,0.6,2.1c0.7,0.4,1.4,1,1.7,2.1c0.4,1.3-0.2,1.7-0.8,1.7c0.2,0.5,0.2,1,0.1,1.4c-0.3,0.9-1.2,0.7-1.9,0.1
			c-0.6,0.7-1.8,0.1-2.6-1.1c-0.6,0.3-2.1-0.5-2.6-1.9c-0.5,0.5-1.3,0.3-2-0.6c-0.8-1-0.8-2-0.5-2.7c-0.3-0.3-0.6-0.9-0.7-1.4
			C444.8,154,445.3,153.5,445.8,153.7z"/>
		<path class="st24" d="M347.3,97c-0.1-0.5,0-1.1,0.3-1.3c0.5-0.5,1.2-0.2,1.9,0.5c0.1-0.7,0.3-1.3,0.9-1.3c0.4,0.1,0.9,0.5,1.2,1
			c-0.1-0.6,0.1-1.2,0.3-1.5c0.4-0.6,1.2-0.5,2,0.1c0.7,0.6,1.3,1.5,1.6,2.6c0.2,0.2,0.4,0.3,0.8,0.5c0.5,0.3,0.9,0.6,1.3,1.2
			c0.6,0.9,0.8,1.8,0.8,2.6c0.9,0.5,1.8,1.3,2.2,2.7c0.4,1.6-0.2,2.1-1,2.2c0.2,0.6,0.3,1.2,0.2,1.7c-0.4,1.2-1.5,0.9-2.5,0.2
			c-0.7,0.9-2.3,0.1-3.3-1.4c-0.8,0.4-2.7-0.6-3.3-2.5c-0.6,0.6-1.6,0.4-2.6-0.7c-1-1.2-1.1-2.6-0.7-3.5c-0.4-0.4-0.7-1.1-0.9-1.7
			C346.1,97.3,346.6,96.7,347.3,97z"/>
		<path class="st24" d="M472.5,170c-0.1-0.5,0-1.1,0.3-1.3c0.5-0.5,1.2-0.2,1.9,0.5c0.1-0.7,0.3-1.3,0.9-1.3c0.4,0.1,0.9,0.5,1.2,1
			c-0.1-0.6,0.1-1.2,0.3-1.5c0.4-0.6,1.2-0.5,2,0.1c0.7,0.6,1.3,1.5,1.6,2.6c0.2,0.2,0.4,0.3,0.8,0.5c0.5,0.3,0.9,0.6,1.3,1.2
			c0.6,0.9,0.8,1.8,0.8,2.6c0.9,0.5,1.8,1.3,2.2,2.7c0.4,1.6-0.2,2.1-1,2.2c0.2,0.6,0.3,1.2,0.2,1.7c-0.4,1.2-1.5,0.9-2.5,0.2
			c-0.7,0.9-2.3,0.1-3.3-1.4c-0.8,0.4-2.7-0.6-3.3-2.5c-0.6,0.6-1.6,0.4-2.6-0.7c-1-1.2-1.1-2.6-0.7-3.5c-0.4-0.4-0.7-1.1-0.9-1.7
			C471.3,170.3,471.8,169.8,472.5,170z"/>
		<path class="st19" d="M415.2,133.7l2.8-6.9l1.2,0.7l-1.3,7.7C416.9,134.7,416,134.2,415.2,133.7z"/>
		<path class="st19" d="M411.7,142.3l2.9-7.2c1,0.6,2,1.1,3,1.6l-1.4,8.2C414.7,144,413.2,143.2,411.7,142.3z"/>
		<path class="st19" d="M407.7,152l3.4-8.3c1.6,0.9,3.2,1.8,4.8,2.7l-1.9,9.4C411.9,154.5,409.8,153.2,407.7,152z"/>
		<path class="st19" d="M413.5,157.9l-1.6,8.1l-8.1-4.7l3.1-7.5C409.1,155.1,411.3,156.5,413.5,157.9z"/>
	</g>
	<polygon class="st25" points="499.5,91.4 495.8,93.5 337.6,2.2 341.1,0 	"/>
</g>
<g>
	<g>
		<path class="st15" d="M348.5,152c2.3,0,4.2,1.1,4.2,2.5c0,1.4-1.9,2.5-4.2,2.5s-4.2-1.1-4.2-2.5C344.3,153.1,346.2,152,348.5,152z
			"/>
		<path class="st16" d="M348.6,152c1.7,0,3.1,0.8,3.1,1.7c0,0.9-1.4,1.7-3.1,1.7c-1.7,0-3.1-0.8-3.1-1.7
			C345.5,152.7,346.9,152,348.6,152z"/>
		<path class="st15" d="M348.5,156.3c0,0-0.7,2.3-0.9,5c-0.1,2.7,0.2,7.2-1.6,9.2c-1.8,2.1-3.2-0.6-3.3-3.5
			c-0.1-2.9,1.6-12.5,1.6-12.5L348.5,156.3z"/>
	</g>
	<path class="st14" d="M348,161.2c0,0-0.5-0.7-1.4-0.4c-0.5,0.1-1.6,0.8-2,0.8c-0.4-0.1-1.4-0.8-1.4-0.8l0.4-2.4c0,0-2.3,1-2.8,3
		c-0.5,2-1.5,2.6-3.5,3.3c-2.1,0.7-4.4,2.2-4.4,2.2l3.2,5.3c0,0,5.3-4.7,5.8-5.3c0.5-0.5,2.4-2.4,2.7-2.7c0.3-0.4,1.4-1.5,1.7-1.7
		C347,162,348,161.2,348,161.2z"/>
	<path class="st14" d="M347.6,242.8c0,0-6.4,12.1-7.8,17.2c-0.8,2.7-2.6,13.1-2.6,13.1s1.2-1.6,3-2.1c1.1-0.3,2.8-0.5,4,0.9
		c1.8,2.3,2.1,4.1-0.7,6.7c-1.2,1.2-3.4,3-5.2,4.7c-2.3,2-4.8,3.9-7,3.8c-2.4-0.2-3.9-1.3-3.8-4.1c0.1-1.5,1.3-4.1,1.4-5
		c0.3-2.5,0.8-18,1.8-27.6c0.5-4.9,1.8-7.6,1.8-7.6L347.6,242.8z"/>
	<path class="st14" d="M320.7,227.6c0,0-6.4,12.1-7.8,17.2c-0.8,2.7-3.6,14.3-3.6,14.3s3.6-3,7.2-1.7c3.2,1.1,1.6,3.5-1.2,6.1
		c-1.2,1.2-2.9,2.3-4.7,3.9c-2.3,2-2.9,2.6-4.1,3c-2.3,0.7-5,0.4-4.9-2.4c0.1-1.5,0.3-4.4,0.4-5.2c0.3-2.5,0.8-18,1.8-27.6
		c0.5-4.9,1.8-7.6,1.8-7.6L320.7,227.6z"/>
	<path class="st26" d="M332.2,213.8c0,0,9.5,13.4,12.4,19c0.9,1.8,3.4,5.9,3.4,7.9c0,2.2-0.7,4.8-0.7,4.8s-5.8,4.7-10.5,3.9
		c-5.5-1-7.3-4.1-7.3-4.1s-7.7-9.4-11-12.6c-3.3-3.2-8.7-9.7-10.6-14.5c-1.4-3.6-2.5-12.6,0-15.4C310.4,200,332.2,213.8,332.2,213.8
		z"/>
	<path class="st26" d="M320.2,207.4l-0.6,19.3c0,0-0.6,7-1.1,9.5c-2.2,2.2-4.7,3.3-7,3c-5.1-0.8-8.8-4.2-8.8-4.2s-5.3-20.1-4.2-24.5
		c1.1-4.4,4.6-9.4,4.6-9.4L320.2,207.4z"/>
	<path class="st20" d="M330.7,164.1c0,0,4.8,1.4,6.4,4.4c1.8,3.4,3.7,9.2,2,15c-1.7,5.8-5.8,15.5-6.5,17.3c-0.7,1.8,2.4,5,1.7,6.3
		c-0.7,1.3-2.4,3-1.5,3.5c1,0.5,1.5,3.5,1.5,3.5s-12.5,5.6-20.4,2.5c-7.9-3.1-14.4-9.6-14.4-9.6s0.9-3.9,2.5-6
		c1.6-2.1,0.3-5.8,1.7-6.9c1.4-1.1,4.2-1.6,3.9-3.3c-0.2-1.7-1.4-18.3,2.5-23.6c3.9-5.3,11.1-5.9,11.1-5.9L330.7,164.1z"/>
	<g>
		<path class="st22" d="M324.3,138.2c-4.5,0.7-7.8,3.1-7.8,5.8c0,0.1,0,0.1,0,0.2c0,0.6,0.2,1.1,0.5,1.6c0.4-0.7,0.9-1.3,1.7-1.8
			c1.4-1,3.4-1.8,5.6-2.2V138.2z"/>
		<path class="st16" d="M324.3,138.4c-4.4,0.7-7.7,3-7.7,5.7c0,0.1,0,0.1,0,0.2c0,0.6,0.2,1.1,0.5,1.6c0.4-0.7,0.9-1.3,1.6-1.8
			c1.4-1,3.3-1.8,5.5-2.1V138.4z"/>
		<g>
			<path class="st15" d="M331.4,140.3l11.8,6.8c0.7,0.4,1.3,0,1.3-0.9v-4.8c0-0.9-0.6-2-1.3-2.4l-11.8-6.8c-0.7-0.4-1.3,0-1.3,0.9
				v4.8C330.2,138.8,330.8,139.9,331.4,140.3z"/>
			<path class="st15" d="M342.7,147.9l1.3-0.8l-0.4-1c0,0-1.6,0.7-1.6,0.7C342,146.9,342.7,147.9,342.7,147.9z"/>
			<g>
				<polygon class="st15" points="329.3,132.9 330.6,132.1 331.2,132.7 330,133.8 				"/>
			</g>
			<path class="st17" d="M330.1,141l11.8,6.8c0.7,0.4,1.3,0,1.3-0.9v-4.8c0-0.9-0.6-2-1.3-2.4l-11.8-6.8c-0.7-0.4-1.3,0-1.3,0.9v4.8
				C328.9,139.6,329.4,140.6,330.1,141z"/>
			<polygon class="st17" points="329.3,132.9 324.7,135.5 338.1,150.5 342.7,147.9 			"/>
			<g>
				<path class="st18" d="M341.9,147.5l-1.8,1c-0.3,0.2-0.6,0-0.6-0.5v-2.4c0-0.5,0.3-1,0.6-1.2l1.8-1c0.3-0.2,0.6,0,0.6,0.5v2.4
					C342.5,146.8,342.2,147.3,341.9,147.5z"/>
				<polygon class="st18" points="342.3,143.4 342.1,143.3 342.1,143.4 342.3,143.5 				"/>
				<polygon class="st18" points="339.5,148.5 339.7,148.6 339.8,148.5 339.6,148.4 				"/>
				<path class="st19" d="M341.8,147.4l-1.8,1c-0.3,0.2-0.6,0-0.6-0.5v-2.4c0-0.5,0.3-1,0.6-1.2l1.8-1c0.3-0.2,0.6,0,0.6,0.5v2.4
					C342.4,146.7,342.1,147.2,341.8,147.4z"/>
				<path class="st18" d="M341.7,145.5c0,0.6-0.3,1.2-0.8,1.5c-0.4,0.2-0.8,0-0.8-0.6c0-0.6,0.3-1.2,0.8-1.5
					C341.3,144.6,341.7,144.9,341.7,145.5z"/>
			</g>
			<path class="st15" d="M325.6,143.6l11.8,6.8c0.7,0.4,1.3,0,1.3-0.9v-4.8c0-0.9-0.6-2-1.3-2.4l-11.8-6.8c-0.7-0.4-1.3,0-1.3,0.9
				v4.8C324.3,142.2,324.9,143.2,325.6,143.6z"/>
			<path class="st15" d="M336.1,151.7l2-1.2c0,0-0.8-1.3-0.9-1.3c-0.1,0-1.7,0.4-1.7,0.4L336.1,151.7z"/>
			<polygon class="st15" points="322.7,136.6 324.7,135.5 325.5,136.3 324.6,137.6 			"/>
			<path class="st16" d="M323.7,144.9c0.9,0.3,3.7,1.4,5.9,2.7c1.4,0.9,5.6,4,5.6,4c0.7,0.4,1.3,0,1.3-0.9v-4.8c0-1-0.5-1.6-0.9-2.1
				c-0.9-1.1-2.7-3.1-5.8-4.8c-2.6-1.5-5.9-2.3-6.8-2.4c-0.4-0.1-0.8,0.4-0.8,1.1v4.8c0,0.8,0.3,1.7,1,2.2
				C323.3,144.7,323.6,144.9,323.7,144.9z"/>
			<g>
				<path class="st15" d="M324.3,141.2v-4.1c-0.4-0.1-0.8-0.2-1-0.2c-0.4,0-0.7,0.4-0.7,1v4.4c0,0.7,0.3,1.6,0.9,2
					c0.1,0.1,0.4,0.2,0.6,0.3c0.9,0.3,3.5,1.3,5.4,2.5c1.3,0.8,4.1,2.9,5.5,3.9c0.6,0.4,1.1,0,1.1-0.8v-0.5l-10.7-6.1
					C324.9,143.2,324.3,142.2,324.3,141.2z"/>
				<path class="st15" d="M335.4,144c-0.8-1-2.8-3.2-5.6-4.8c-1.8-1-4.1-1.8-5.4-2.1v4.1c0,0.9,0.6,2,1.3,2.4l10.7,6.1V146
					C336.2,145.1,335.8,144.5,335.4,144z"/>
			</g>
			<g>
				<path class="st15" d="M327.5,139.5c0-0.3,0-0.5,0.1-0.7c-0.9-0.4-1.6,0.3-1.6,1.5c0,1.3,0.8,2.9,1.8,3.5
					c0.8,0.5,1.5,0.2,1.7-0.7c-0.1,0-0.2-0.1-0.2-0.1C328.4,142.4,327.5,140.9,327.5,139.5z"/>
				<path class="st18" d="M327.9,138.9c-0.1,0-0.2-0.1-0.2-0.1c-0.1,0.2-0.1,0.4-0.1,0.7c0,1.3,0.8,2.9,1.8,3.5
					c0.1,0,0.2,0.1,0.2,0.1c0.1-0.2,0.1-0.4,0.1-0.7C329.7,141.1,328.9,139.5,327.9,138.9z"/>
			</g>
			<g>
				<path class="st15" d="M333,142.7c0-0.3,0-0.5,0.1-0.7c-0.9-0.4-1.6,0.3-1.6,1.5c0,1.3,0.8,2.9,1.8,3.5c0.8,0.5,1.5,0.2,1.7-0.7
					c-0.1,0-0.2-0.1-0.2-0.1C333.9,145.6,333,144.1,333,142.7z"/>
				<path class="st18" d="M333.4,142.2c-0.1,0-0.2-0.1-0.2-0.1c-0.1,0.2-0.1,0.4-0.1,0.7c0,1.3,0.8,2.9,1.8,3.5
					c0.1,0,0.2,0.1,0.2,0.1c0.1-0.2,0.1-0.4,0.1-0.7C335.2,144.3,334.4,142.7,333.4,142.2z"/>
			</g>
			<polygon class="st15" points="334.1,140.1 329.8,137.6 330.4,137.2 334.7,139.7 			"/>
		</g>
	</g>
	<path class="st14" d="M330.7,139.5c-2.6-1.8-7.5-1.2-9.6,3.3c-1.2,2.5,0.5,9.2,0.8,13.9c0.2,3.8-1.1,6-1.1,6s0,0,3.3,1.3
		c3.3,1.3,6.7,0,6.7,0l-0.1-5.8c0,0,3.5-0.5,4.1-1.1c1.5-1.4,2.3-5.4,1.6-10.6C335.3,138.9,331.6,140.2,330.7,139.5z"/>
	<path class="st14" d="M347.9,158.7c0,0,0.2,0.3,0.5,0.7c0.3,0.4,0.1,0.7-0.1,0.8c-0.2,0.1-0.3,0.1-0.3,0.1s0.3,0.5,0.5,0.9
		c0.2,0.4-0.4,0.6-0.5,0.6c-0.1,0,0.4,0.4,0.4,0.8c0,0.4-0.8,0.3-0.8,0.3S347.4,159.7,347.9,158.7z"/>
	<g>
		<path class="st15" d="M363,159.9c2.3,0,4.2,1.1,4.2,2.5c0,1.4-1.9,2.5-4.2,2.5c-2.3,0-4.2-1.1-4.2-2.5
			C358.8,161,360.7,159.9,363,159.9z"/>
		<path class="st16" d="M363.1,159.9c1.7,0,3.1,0.8,3.1,1.7c0,0.9-1.4,1.7-3.1,1.7c-1.7,0-3.1-0.8-3.1-1.7
			C360,160.7,361.4,159.9,363.1,159.9z"/>
		<path class="st15" d="M363,164.2c0,0-0.7,2.3-0.9,5c-0.1,2.7,0.2,7.2-1.6,9.2c-1.8,2.1-3.2-0.6-3.3-3.5
			c-0.1-2.9,1.6-12.5,1.6-12.5L363,164.2z"/>
	</g>
	<path class="st14" d="M334.9,166.9c2.8,0.3,8.1,10.9,10.7,16.1c1.9-1.7,5.5-4.8,9.7-7.6c1.1-0.8,0.3-5.9,2.7-7.4
		c0.1,1.4,1.4,1.4,2.2,1.4c1.6-0.1,2.1-0.5,2.2-1.6c0.4-0.1,0.9-0.1,1.4,0.4c0.5-0.1,1.5,0.7,1.3,1.5c1.1,0.8,0.8,2.7,0.1,3.7
		c-1.4,1.9-4.4,4-6.1,6.3c-1.6,2.1-9.7,12.9-15.4,14.7c-0.4-0.1-1.9-0.1-3-1.2c-3.7-3.7-9.2-13-9.4-18.6
		C331,170.2,333,166.7,334.9,166.9z"/>
	<path class="st15" d="M333.9,148.6c0.4-1.3,1.3-4.3,1.5-5.5c0.3-1.4,0.3-3.5-1.6-5.5c-1.9-2-8.6-2.7-11-1.3
		c-2.4,1.4-7.6,4-5.8,12.3c1.5,6.7,2.9,7.5,4.9,9.1c1.8,1.4,4.9,1.7,4.9,1.7s1.7-1.3,2.1-3.8c0.1-0.8,0-3.2,0-3.2s-1.8-3.5-0.4-4.8
		c1.5-1.3,3,0.8,3.3,1.6c1.2,3,0.6,8.7,0.6,8.7s1.8,1.2,3.6,0.7c1-0.2,0.1-4,0.1-4S334.2,153.7,333.9,148.6z"/>
	<g>
		<g>
			<polygon class="st17" points="337.8,145.5 337.1,145.9 337.1,150.6 337.8,150.2 			"/>
			<polygon class="st18" points="337.1,145.9 336.9,145.8 336.9,150.4 337.1,150.6 			"/>
			<polygon class="st19" points="336.9,145.8 337.1,145.9 337.8,145.5 337.6,145.4 			"/>
		</g>
		<g>
			<path class="st22" d="M337.4,146c-0.3,0.3-1.2,1.1-1.5,1.3c-1.9,1.6-5.1,2.6-8.7,2.6c-3.6,0-6.8-1-8.7-2.6c-0.6-0.5-1-1-1.4-1.6
				c-0.3-0.5-0.5-1.4-0.5-2l-0.1,0.9l0.2,2.6h0c0,0.1,0,0.2,0,0.2c0,3.3,4.7,5.9,10.6,5.9c4.3,0,7.9-1.4,9.6-3.5l0.8-4L337.4,146z"
				/>
			<path class="st13" d="M337.6,146c-0.3,0.3-1.2,1.1-1.5,1.4c-1.9,1.6-5.2,2.6-8.9,2.6c-3.7,0-6.9-1-8.9-2.6
				c-0.6-0.5-1.1-1-1.4-1.6c-0.3-0.5-0.5-1.1-0.5-1.6v3.2h0c0,0.1,0,0.2,0,0.2c0,3.3,4.8,6,10.7,6c3.7,0,7-1.1,8.9-2.7
				c0.3-0.3,1.2-1.1,1.5-1.4V146z"/>
		</g>
		<g>
			<path class="st18" d="M322.2,157.2l-0.2-0.1C322,157.1,322.1,157.2,322.2,157.2z"/>
			<path class="st18" d="M322.2,157.2L322.2,157.2C322.2,157.2,322.2,157.2,322.2,157.2L322.2,157.2z"/>
			<path class="st22" d="M328.7,134.8c-1.3-0.9-3-0.9-4.9,0.2c-3,1.7-6.2,6.3-6.8,11.1c0.7,1.9,3,2.6,3.5,2.4
				c0.6-4.7,3.3-9.3,6.7-11.3c0.1,0,0.1-0.1,0.2-0.1c0.9-0.5,1.8-0.8,2.7-0.9c0.4,0,0.7,0,1.1,0c0.3,0.1,0.7,0.1,0.7,0.1
				L328.7,134.8z"/>
		</g>
		<path class="st13" d="M328.7,134.7c-1.6-0.8-3.2-1-5.1,0.1c-3,1.7-6.2,6.3-6.8,11.1c0.5,2,2.7,2.7,3.2,2.9c0.7-5.1,3.5-9.7,7-11.8
			c0.1,0,0.1-0.1,0.2-0.1c0.9-0.5,1.8-0.8,2.7-0.9c0.7,0,1.3,0.1,1.8,0.4l0,0L328.7,134.7z"/>
	</g>
	<path class="st27" d="M322.3,219.8c0.5,1.4,1.4,4.1,2.4,5.3c1.4,1.7-1.8,2.2-4,2.5c-2.2,0.3-5.9-2.3-7.2-4.5
		c-1.2-2.2-1.5-5.5-1.5-5.6C315.1,219.4,318.5,220.8,322.3,219.8z"/>
	<path class="st27" d="M306.5,216.5c0.1,0.8,0.4,2.2,0.8,3.6c0.7,2.2-0.7,3.9-2.7,2.4c-2-1.5-3.9-4-4.5-6.1
		c-0.4-1.4-0.6-4.2-0.7-5.3C301.2,213.4,303.5,215.2,306.5,216.5z"/>
	<path class="st12" d="M328.9,210.7c0,0-4.8,2.3-10.4,0.9c-5.6-1.4-9.2-4.1-9.2-4.1s7.3,0.6,10.9,1.3
		C323.8,209.6,328.9,210.7,328.9,210.7z"/>
	<path class="st12" d="M327.1,206c0,0-9.7,0.7-15.2-2c-5.4-2.7-6.8-6-6.8-6s2,1.1,6.8,3.2C316.8,203.2,327.1,206,327.1,206z"/>
	<path class="st12" d="M330.2,198.7c0,0-8.5,2.4-13.2,0.9c-4.7-1.4-7.8-2.8-7.8-2.8S324.7,196.7,330.2,198.7z"/>
</g>
<g>
	<g>
		<g>
			<g>
				<path class="st26" d="M113.1,356.7v-33.1c0-7.7-4.7-11.2-10.4-7.9l-28.7,16.6c-5.7,3.3-10.4,12.3-10.4,20v33.1L113.1,356.7z"/>
				<path class="st26" d="M70.5,389.6l-7-4.2c0,0,2.6-9,3.5-8.7c0.9,0.3,12.2,4.4,12.2,4.4L70.5,389.6z"/>
				<polygon class="st26" points="109.1,315.1 116.7,319.7 114.8,324.4 104.9,319.7 				"/>
				<path class="st27" d="M120.1,361v-33.1c0-7.7-4.7-11.2-10.4-7.9l-28.7,16.6c-5.7,3.3-10.4,12.3-10.4,20v33.1L120.1,361z"/>
			</g>
			<g>
				<path class="st26" d="M166.4,321.5l-42.6-24.8c-4.3-2.5-7.8,0.3-7.9,6.1l-0.3,30.3c-0.1,5.8,3.4,12.6,7.7,15l35.5,21.4v-1.9
					l7.6,4.4c4.3,2.5,7.8-0.2,7.8-5.9v-29.7C174.1,330.7,170.6,324,166.4,321.5z"/>
				<polygon class="st26" points="112,300 118.9,296.2 122.8,300.5 114.7,305.9 				"/>
				<path class="st28" d="M159.6,325.3L117,300.4c-4.3-2.5-7.8,0.3-7.9,6.1l-0.3,30.3c-0.1,5.8,3.4,12.6,7.7,15l42.3,25.5v-2.1
					l0.8,0.5c4.3,2.5,7.8-0.2,7.8-5.9v-29.7C167.4,334.4,163.9,327.7,159.6,325.3z"/>
			</g>
			<g>
				<path class="st26" d="M168.2,376.9l-52-30c-2.2-1.3-6.1-1.1-8.6,0.4l-42,24.2c-2.5,1.5-2.8,3.7-0.6,5l68,39.3
					C142.8,401,155,388.5,168.2,376.9z"/>
				<rect x="63.5" y="363.1" class="st26" width="16.6" height="11.5"/>
				<path class="st28" d="M163.2,375.8c1.7-2.1,3.4-4.2,5.1-6.2c-30.4-17.7-59.4-34.3-59.4-34.3l-43.3,25.1c-2.5,1.5-2.8,3.7-0.6,5
					l73.7,42.6C146.4,396.9,154.9,386.4,163.2,375.8z"/>
				<path class="st6" d="M163.9,379.8c3-2.6,6.1-5,9.3-7.4l-63.8-36.8l-41.1,23.7c-2.5,1.4-2.8,3.6-0.6,4.9l70.5,40.7
					C146.4,396.1,154.9,387.6,163.9,379.8z"/>
				<g>
					<path class="st26" d="M115.1,362.7c0,0.7-1.1,1.3-2.5,1.3s-2.5-0.6-2.5-1.3c0-0.7,1.1-1.3,2.5-1.3S115.1,362,115.1,362.7z"/>
					<path class="st26" d="M109.8,365.3c0,0-2.1,0.3-6.1,2.6c-3.1,1.7-6.6,5.7-6.6,5.7s4.3-2.5,7.5-4.6
						C108.1,366.5,109.8,365.3,109.8,365.3z"/>
					<path class="st26" d="M128.8,352.9c0,0-2.1,0.3-6.1,2.6c-3.1,1.7-6.6,5.7-6.6,5.7s4.3-2.5,7.5-4.6
						C127.1,354.1,128.8,352.9,128.8,352.9z"/>
					<path class="st26" d="M97.1,352.9c0,0,2.1,0.3,6.1,2.6c3.1,1.7,6.6,5.7,6.6,5.7s-4.3-2.5-7.5-4.6
						C98.8,354.1,97.1,352.9,97.1,352.9z"/>
					<path class="st26" d="M116.9,364.9c0,0,2.1,0.3,6.1,2.6c3.1,1.7,6.6,5.7,6.6,5.7s-4.3-2.5-7.5-4.6
						C118.6,366.1,116.9,364.9,116.9,364.9z"/>
				</g>
			</g>
			<g>
				<path class="st26" d="M170.3,389.5v-33.1c0-7.7-4.7-11.2-10.4-7.9l-28.7,16.6c-5.7,3.3-10.4,12.3-10.4,20v33.1L170.3,389.5z"/>
				<path class="st26" d="M127.7,422.4l-7-4.2c0,0,2.6-9,3.5-8.7c0.9,0.3,12.2,4.4,12.2,4.4L127.7,422.4z"/>
				<polygon class="st26" points="166.4,347.8 174,352.4 172.1,357.1 162.2,352.4 				"/>
				<path class="st27" d="M177.3,393.7v-33.1c0-7.7-4.7-11.2-10.4-7.9l-28.7,16.6c-5.7,3.3-10.4,12.3-10.4,20v33.1L177.3,393.7z"/>
			</g>
			<path class="st26" d="M137,319.9c0,0-1.6,8.5-1.9,13.5c-0.3,5,1.9,13.5,1.9,13.5s0.1-7.6,0-13.5C136.9,327.5,137,319.9,137,319.9
				z"/>
		</g>
		<g>
			<path class="st12" d="M115.8,294.9c0,0-2,1.3-5.8,5c-3.2,3.1-6.3,8-7.1,9.6c-0.3,0.6-1,2.8-1.3,3.5c-2.2,0-4.8-0.8-8.4-1.4
				c-3-0.5-3.8-1-5.5-0.9c-1.7,0.1-1.7,1.6-1.3,1.8c0.4,0.1,1.4,1.7,0.8,3.9c-0.6,2.2-1.7,2.3-1.7,2.3s0,2.2,1.7,2.5
				c2.8,0.6,6.4,2,9.6,2.6c4.6,0.8,7.3,1.9,8.4,0.9c2.2-2,4.2-4.2,4.2-4.2s-0.3-10.9,1.6-14.9c1.9-4.1,6.3-8.3,6.3-8.3L115.8,294.9z
				"/>
			<path class="st17" d="M79.1,399.5c0,0-2.9,4.2-7,7c-3.5,2.5-3.3,3.3-3.6,5.6c-0.4,3.1,3.5,3.5,6.1,1.9c1-0.6,2.6-0.5,3.9-1.3
				c2.3-1.3,4.6-4.3,6.4-4.8c2.9-0.8,4.6-0.5,5.5-2.7c1-2.4,0.7-4.2,0-6.2C89,394.8,79.1,399.5,79.1,399.5z"/>
			<path class="st17" d="M98.1,413c0,0-2.9,4.2-7,7c-3.5,2.5-3.3,3.3-3.6,5.6c-0.4,3.1,3.5,3.5,6.1,1.9c1-0.6,2.6-0.5,3.9-1.3
				c2.3-1.3,4.6-4.3,6.4-4.8c2.9-0.8,4.6-0.5,5.5-2.7c1-2.4,0.7-4.2,0-6.2C108,408.3,98.1,413,98.1,413z"/>
			<path class="st13" d="M137.9,346.5l-24.9-8.7c0,0-4.7,3.1-11.7,7.4c-4.1,2.5-14.3,8.5-17.9,11c-2.2,1.6-3.5,6.2-4.4,13.9
				c-1.4,12.7-2.5,30.3-2.5,30.3s2.5,3.5,8.3,3.5c4.4,0,7.7-1.4,7.7-1.4l0.9-32.3l19.1-11c0,0-10.8,6.7-12.4,12.7
				c-1.3,4.8-1.7,8.5-1.9,14.4c-0.4,12.9-0.5,26.7-0.5,26.7s0.8,4.3,6.6,4.2c4.4,0,8-3.6,8-3.6l1.2-34.9c0,0,16.5-11.8,20.8-16.8
				C139.1,356.4,137.9,346.5,137.9,346.5z"/>
			<g>
				<path class="st20" d="M117.9,296.8c0,0-7.4,6-8.3,14.5c-0.2,2.1-0.6,10.5-1,16.9c-0.1,2,1.4,3.8,1.3,5.5
					c-0.1,1.3-1.8,2.5-2.2,3.3c-0.9,2-0.7,3.1,0.9,4.5c4.5,4,16,10.8,29.4,10.4c2-1.3,2.1-3.7,2.1-6.7c0-3.7-1.3-6-1.1-10.1
					c0.2-3.8,2.2-6.6,2.8-11c0.8-6.7,0.2-14.7,0-16.2c-0.6-4.2-10-8.7-10-8.7S124.9,294,117.9,296.8z"/>
				<g>
					<path class="st29" d="M120.6,296.5l-0.2,3.4c0,0-2.5,5.2-1.9,6.9c0.4,1.2,3.9,0.5,5.1,0.7c2.4,0.5,7.6-8.5,7.6-8.5
						s-1.2-0.7-1.4-2.3c-0.2-1.6-0.5-6.4-0.5-6.4L120.6,296.5z"/>
					<path class="st14" d="M130.3,279c-2.5-3.1-9.5-5.8-14.2,1c-4.8,7.2-0.3,18.9,4,18.2c2.4-0.4,7.7-2.5,10.1-6.4
						C132.8,287.6,132.2,281.5,130.3,279z"/>
				</g>
			</g>
			<path class="st12" d="M120.4,299.9c0,0-3.1,3.7-3.2,6.2c-0.1,2.5,4.8,6.4,9.7,1.4c4.9-5,6-7.6,6-7.6l-1.7-0.9
				c0,0-3.4,3.6-5.3,5.2c-1.8,1.7-3.9,2.8-5.8,2C118.6,305.5,120.2,302.2,120.4,299.9z"/>
			<path class="st12" d="M117.5,342.9c0,0,3.3,3.2,8.1,3.6c4.8,0.3,9-0.6,9-0.6c0,0-5.8-0.8-8.6-1.4
				C123.2,343.9,117.5,342.9,117.5,342.9z"/>
			<path class="st15" d="M126.6,273c4.2,1.1,6.3,1.9,6.4,4.2c1.1,0.8,1.8,2,2.2,3.2c0.5,1.5,0.4,3.7,0,5.8c-2.2,4.8-4.7,5.1-4.7,5.1
				s0.7-2.6,0.1-3.8c-0.5-1-2.1-1.1-2.6,0.6c-0.6,0.2-1.3,0.1-1.3,0.1l0.5-3.5c0,0-2.6,1.3-5.6-0.4c-2.8-1.6-5.5-0.7-6.4,0.2
				c-0.6-1.5-0.7-6.3,0.6-7.1c-1.1-0.9-1.7-1.7-2.3-2.6C116.5,275.3,121.9,271,126.6,273z"/>
			<g>
				<path class="st22" d="M134.9,283.3c0,0,0.1,0.1,0.1,0.1c0.3-0.5,0.5-1,0.5-1.6c0,0,0-0.1,0-0.1c0-0.5-0.1-0.9-0.4-1.4
					c0,0.1,0.2,0.6,0.2,1.2C135.3,282.1,135.2,282.7,134.9,283.3z"/>
				<polygon class="st16" points="126.6,293 128.9,291.7 127.7,290.8 126.2,291 				"/>
				<path class="st16" d="M114,279.1l2.4-1.4l0.9,3.1c0,0-1.3,0.6-1.3,0.6C116.1,281.4,114,279.1,114,279.1z"/>
				<path class="st16" d="M117.2,285.3c0,0,2.2,3.3,3.5,4.1c1.4,0.8,7.4,2.2,7.4,2.2c0.6,0.4,1.2,0,1.2-0.9v-4.4
					c0-0.9-0.3-1.6-0.9-2c-0.2-0.1-0.5-0.3-0.9-0.4c-1.5-0.4-3.8-1-6.7-2.6c-2.4-1.4-3-2.6-3.5-3.4c-0.1-0.2-0.3-0.4-0.6-0.4
					c-0.4-0.1-0.7,0.4-0.7,1v4.4C116,283.9,116.6,284.9,117.2,285.3z"/>
				<polygon class="st17" points="122.6,295.3 126.6,293 123.2,289.8 121.7,290.7 				"/>
				<polygon class="st17" points="110.1,281.4 114.1,279 114.7,284.2 				"/>
				<path class="st17" d="M114.9,286.6l10.9,6.3c0.6,0.4,1.2,0,1.2-0.9v-4.4c0-0.9-0.5-1.9-1.2-2.2l-10.9-6.3
					c-0.6-0.4-1.2,0-1.2,0.9v4.4C113.8,285.2,114.3,286.2,114.9,286.6z"/>
				<path class="st15" d="M110.8,289l10.9,6.3c0.6,0.4,1.2,0,1.2-0.9V290c0-0.9-0.5-1.9-1.2-2.2l-10.9-6.3c-0.6-0.4-1.2,0-1.2,0.9
					v4.4C109.7,287.6,110.2,288.6,110.8,289z"/>
				<path class="st15" d="M121.3,296l1.2-0.7l-0.4-0.9c0,0-1.5,0.6-1.5,0.7C120.7,295.1,121.3,296,121.3,296z"/>
				<polygon class="st15" points="108.8,282.1 110.1,281.4 110.6,281.9 109.5,282.9 				"/>
				<path class="st16" d="M109.6,289.7l10.9,6.3c0.6,0.4,1.2,0,1.2-0.9v-4.4c0-0.9-0.5-1.9-1.2-2.2l-10.9-6.3
					c-0.6-0.4-1.2,0-1.2,0.9v4.4C108.4,288.3,109,289.3,109.6,289.7z"/>
				<path class="st15" d="M120.2,288.8l-10.3-6c-0.5-0.3-1,0-1,0.8v3.8c0,0.7,0.4,1.6,1,1.9l10.3,6c0.5,0.3,1,0,1-0.8v-3.8
					C121.2,290,120.8,289.1,120.2,288.8z"/>
				<polygon class="st19" points="113.4,286 116.3,287.6 116.3,287.1 113.4,285.5 				"/>
				<path class="st18" d="M125.9,292.5l-1.7,1c-0.3,0.2-0.6,0-0.6-0.4v-2.2c0-0.4,0.3-0.9,0.6-1.1l1.7-1c0.3-0.2,0.6,0,0.6,0.4v2.2
					C126.5,291.9,126.2,292.3,125.9,292.5z"/>
				<polygon class="st18" points="126.3,288.7 126.1,288.6 126.1,288.7 126.2,288.8 				"/>
				<polygon class="st18" points="123.7,293.4 123.9,293.5 124,293.4 123.7,293.3 				"/>
				<path class="st19" d="M125.8,292.4l-1.7,1c-0.3,0.2-0.6,0-0.6-0.4v-2.2c0-0.4,0.3-0.9,0.6-1.1l1.7-1c0.3-0.2,0.6,0,0.6,0.4v2.2
					C126.3,291.8,126.1,292.3,125.8,292.4z"/>
				<path class="st18" d="M125.7,290.6c0,0.5-0.3,1.1-0.7,1.4c-0.4,0.2-0.7,0-0.7-0.5c0-0.5,0.3-1.1,0.7-1.4
					C125.4,289.9,125.7,290.1,125.7,290.6z"/>
				<polygon class="st15" points="121.4,283.7 117.4,281.4 117.9,281.1 121.9,283.4 				"/>
				<g>
					<path class="st22" d="M128.1,273.5L128.1,273.5c-1.1-0.6-2.5-0.6-4.1,0.3c-2.4,1.4-4.5,4.4-5.5,7.6l3,1.7
						c1-3.2,3.1-6.2,5.5-7.6c0.1,0,0.2-0.1,0.3-0.1c0.8-0.4,1.6-0.8,2.3-0.8c1.2,0,2.1,0.2,2.1,0.2L128.1,273.5z"/>
					<path class="st13" d="M128,273.3c-1.2-0.4-2.6-0.6-4.1,0.3c-2.4,1.4-4.5,4.4-5.6,7.7l3,1.7c1.1-3.3,3.2-6.3,5.6-7.7
						c0.1-0.1,0.2-0.1,0.3-0.1c0.8-0.4,1.7-0.8,2.4-0.8c1.2,0,2.1,0.4,2.1,0.4S130.3,274,128,273.3z"/>
				</g>
				<polygon class="st17" points="129,286.5 128.4,286.8 128.4,291.2 129,290.8 				"/>
				<path class="st22" d="M135.4,285.1v-3.2h0c0,0.5-0.2,1.1-0.5,1.6c-0.4,0.6-1,1.2-1.7,1.7c-1.1,0.8-2.4,1.3-4.3,1.9c0,0,0,0,0,0
					l-0.1,0.1l0.1,3.3C132.7,289.4,135.4,287.4,135.4,285.1C135.4,285.1,135.4,285.1,135.4,285.1z"/>
				<path class="st13" d="M135.5,285.1v-3.3h0c0,0.6-0.2,1.1-0.5,1.6c-0.4,0.6-1,1.2-1.7,1.7c-1.2,0.8-2.5,1.4-4.5,2v3.4
					C132.7,289.6,135.5,287.6,135.5,285.1C135.5,285.2,135.5,285.1,135.5,285.1z"/>
				<polygon class="st21" points="128.4,286.8 128.2,286.7 128.2,291.1 128.4,291.2 				"/>
				<polygon class="st19" points="128.2,286.7 128.4,286.8 129,286.5 128.8,286.3 				"/>
			</g>
			<path class="st14" d="M83.7,311.7c-2.3-1-3.5-1.7-5.9-1.8c-3.8-0.2-6.2,1.1-7.9,1.2c-0.5,0-1.9,0.2-1.2,1
				c-0.8-0.1-1.5,0.2-0.5,1.2c-1.2,0.3-0.5,1.2,0.4,1.5c-0.4,0.8,4.6,1.4,5.7,1.3c1.2-0.1,6.1-0.4,9.2,1.6
				C85.6,319.1,84.3,311.9,83.7,311.7z"/>
			<path class="st20" d="M83.7,311.7c-0.1-0.2,3.3,0.6,3.3,0.6s2,1.7,1.2,4.1c-0.8,2.4-1.7,2.7-1.7,2.7l-4-1.2
				C82.6,317.8,84.5,314.1,83.7,311.7z"/>
			<path class="st12" d="M142.5,305.4c-2.4-3.3-5.4-2.8-5.4-2.8c-1.7,0.9-3.6,7.6-4.5,11.2c-0.9,3.6,2.4,15.3,2.6,15.9
				c-1.6,0.6-7.7,1.9-9.1,2.3c-3.3,0.9-2.9,2.9-3,4.6c-0.1,1.7,1.4,2.9,2.4,5c1,2.1,9.1,0.4,11.5-0.6c3-1.3,5.9-1.6,7.5-4
				c1-1.4,0-3.2,0.8-6.4C147.1,322.3,145.4,309.3,142.5,305.4z"/>
			<path class="st30" d="M124.6,334.5l-3.6,1.9c0,0,1.5,0.7,2.5,2c0.9,1.2,0,3.2,0,3.2s3.4-0.5,4.2-1.7
				C129,338.1,127.3,334.2,124.6,334.5z"/>
			<path class="st14" d="M120.5,334.9c-2-0.4-4.1-0.7-5.1-1c-1-0.3-0.2,1.3,1.3,2c1.5,0.7,1.8,2.6,1.8,2.6s-1.6,1.8-2.8,2.9
				c-0.7,0.7-3,1.2-4.1,2.2c-1.1,1,0.6,0.8,1.9,1.6s5.1,2.2,6.9,0.3c1.8-1.9,4-4,4.3-5.1C125,339.1,124.7,335.6,120.5,334.9z"/>
		</g>
	</g>
	<g>
		<polygon class="st7" points="35.1,332.5 123.3,383.4 123.3,306.2 35.1,255.3 		"/>
		<polygon class="st9" points="55.3,337.1 37.4,326.8 37.4,330.3 55.3,340.6 		"/>
		<polygon class="st9" points="55.3,330.2 37.4,319.9 37.4,323.4 55.3,333.7 		"/>
		<polygon class="st9" points="55.3,323 37.4,312.7 37.4,316.2 55.3,326.5 		"/>
		<polygon class="st9" points="55.3,316.1 37.4,305.9 37.4,309.3 55.3,319.6 		"/>
		<polygon class="st9" points="55.3,308.9 37.4,298.7 37.4,302.1 55.3,312.4 		"/>
		<polygon class="st9" points="55.3,302.1 37.4,291.8 37.4,295.3 55.3,305.5 		"/>
		<polygon class="st9" points="55.3,294.9 37.4,284.6 37.4,288.1 55.3,298.3 		"/>
		<polygon class="st9" points="55.3,288 37.4,277.7 37.4,281.2 55.3,291.5 		"/>
		<polygon class="st9" points="55.3,271.6 37.4,261.4 37.4,270.7 55.3,280.9 		"/>
		<polygon class="st8" points="120.1,309.3 102.2,299 102.2,308.3 120.1,318.6 		"/>
		<polygon class="st31" points="113.2,318.3 113.2,327.6 120.1,331.6 120.1,322.3 		"/>
		<polygon class="st31" points="113.2,332.3 113.2,341.6 120.1,345.5 120.1,336.2 		"/>
		<polygon class="st31" points="113.2,346.2 113.2,355.5 120.1,359.5 120.1,350.1 		"/>
		<polygon class="st31" points="113.2,360.1 113.2,369.4 120.1,373.4 120.1,364.1 		"/>
		<polygon class="st8" points="94.1,294.3 76.3,284 76.3,304.7 94.1,315 		"/>
		<polygon class="st8" points="95.6,331 77.8,320.7 77.8,341.4 95.6,351.7 		"/>
		<path class="st31" d="M86.7,332.3C86.7,332.3,86.7,332.2,86.7,332.3c-0.7-0.4-1.3-0.4-1.8-0.2l-9.2-17.1l-0.1-0.1l-19.3-11.1v0.7
			l19.1,11l9.1,16.9c-0.5,0.4-0.8,1.2-0.8,2.2c0,2.2,1.3,4.8,3,5.7c1.7,1,3-0.1,3-2.3C89.7,335.8,88.4,333.2,86.7,332.3z"/>
		<path class="st9" d="M86.7,334.1C86.7,334.1,86.7,334.1,86.7,334.1c-0.9-0.5-1.6,0-1.6,1.2l0,0c0,1.2,0.7,2.5,1.6,3
			c0.9,0.5,1.6,0,1.6-1.2C88.3,335.9,87.6,334.6,86.7,334.1z"/>
		<path class="st9" d="M85.2,297.4C85.2,297.4,85.2,297.4,85.2,297.4c-0.9-0.5-1.6,0-1.6,1.2c0,0.4,0.1,0.7,0.2,1.1l-9.8,6.7
			l-17.7-10.2v0.7l17.9,10.3l9.9-6.7c0.3,0.5,0.6,0.9,1,1.2c0.9,0.5,1.6,0,1.6-1.2C86.7,299.3,86,297.9,85.2,297.4z"/>
		<path class="st31" d="M85.2,298.1C85.2,298.1,85.2,298.1,85.2,298.1c-0.6-0.3-1.1,0-1.1,0.8l0,0c0,0.8,0.5,1.7,1.1,2
			c0.6,0.3,1.1,0,1.1-0.8C86.2,299.3,85.8,298.4,85.2,298.1z"/>
		<path class="st31" d="M100.8,317.5C100.8,317.5,100.8,317.5,100.8,317.5c-2.9-1.6-5.2,0.1-5.2,3.9l0,0c0,3.8,2.3,8.3,5.2,9.9
			c2.9,1.7,5.2-0.1,5.2-3.9S103.7,319.1,100.8,317.5z"/>
		<path class="st9" d="M100.8,320.3C100.8,320.3,100.8,320.3,100.8,320.3c-1.7-1-3.1,0.1-3.1,2.3l0,0c0,2.3,1.4,4.9,3.1,5.9
			c1.7,1,3.1-0.1,3.1-2.3C103.9,323.9,102.5,321.3,100.8,320.3z"/>
		<g class="st32">
			<path class="st8" d="M100,330.8v30.4l-26.3-15.5l0.1-12.8l-17-8.5v1.9l15.3,7.7l-0.1,12.7l29.6,17.5v-32.4c0,0-0.4-0.2-0.9-0.4
				C100.5,331.1,100,330.8,100,330.8z"/>
		</g>
	</g>
</g>
<g>
	<path class="st21" d="M226.6,349c0,0,1,4.1,1.8,6.9c0.8,2.7,0.9,4.2,1.6,6.9c0.7,2.7-1.7,2.8-3.4,2.8c-2.5,0-5.3-1.6-6.5-2.1
		c-3-1.2-2.4-4.6-2.7-7.3c-0.3-2.6-1.8-7.7-1.3-9.5C216.6,344.9,226.6,349,226.6,349z"/>
	<path class="st21" d="M251.1,342.6c0,0,2.9,4.1,6.8,6.8c3.4,2.4,3.2,3.2,3.5,5.4c0.4,3-3.4,3.4-6,1.8c-0.9-0.6-2.5-0.5-3.8-1.3
		c-2.2-1.3-4.5-4.2-6.3-4.7c-2.9-0.8-4.5-0.5-5.4-2.6c-1-2.3-0.7-4.1,0-6C241.4,338,251.1,342.6,251.1,342.6z"/>
	<path class="st14" d="M253.5,222.8c0,0,1.3,2.7,3.3,7.4c1.5,3.6,3.9,9.7,3.9,9.7s6.1-2.7,10.6-3.8c0.7-0.2,2.5-1,3.1-1.2
		c1,2,2.4,3.6,3.4,5.6c-2.4,1.5-7.6,4.8-10.7,6.2c-4.8,2.2-9,2.4-10.8,1.6c-1.9-0.8-8.8-14.9-8.8-14.9L253.5,222.8z"/>
	<path class="st21" d="M243.8,212.9c0,0,2.7-2.2,8,3c5.3,5.2,6.3,14.9,6.3,14.9s-3.5,4.1-9.5,3.1C242.5,233,243.8,212.9,243.8,212.9
		z"/>
	<path class="st13" d="M243.3,252.2c5,1.5,9.6,3.3,9.6,3.3s3.2,23.4,4.1,37.5c1.1,16-3,49.4-3,49.4s-0.6,3.4-6.4,2.9
		c-4.5-0.4-7.9-4.3-7.9-4.3l2.9-38.2l-5.2-22.5C238.3,267.3,242.3,265,243.3,252.2z"/>
	<path class="st13" d="M213.6,344.7c0,0,3.5-25.1,10.3-40.3c0.6-11.5-3.7-24.7-1.1-36.2c3.3-14.3,8.4-13.9,8.4-13.9
		c-0.3-2.4,5-2,10.4-0.9c0,9.6-0.1,19.1,0,28.7l-0.1-0.6c0,0-0.8,19-3.7,29.3c-3.9,13.7-7.1,39.3-7.1,39.3s-7.7,2.7-12.9,0.1
		C212.6,347.6,213.6,344.7,213.6,344.7z"/>
	<path class="st15" d="M231.2,267.8c0,0-1.9,6.4-3.3,8.5c-1.4,2.1-5.9,3.3-5.9,3.3s-0.7-8.7,1.4-13.9
		C225.5,260.6,231.2,267.8,231.2,267.8z"/>
	<path class="st17" d="M245.1,214.1c-1,0.4-1.5,1.4-1.5,1.4l-12.1,0.2c0,0-9.8,2-12.1,9.6c-0.2,2.4,0.1,7.9,0.5,10.4
		c0.4,0.2,2.6-0.2,2.8,0.3c3.1,8.9,1.3,20.7,0.6,29.6c11,7.9,24.1,3.8,30.8-1.1C251.6,247.1,259.1,226.8,245.1,214.1z"/>
	<g>
		<path class="st11" d="M242.3,213.8l-9.2-6.7l-1.9,10.8c0,0,1.9,2.2,4.6,3.7c2.3,1.2,5.1,2.3,7.6,3.1c1.1-1.9,0-4.5,0-4.5
			L242.3,213.8z"/>
		<path class="st14" d="M232,195.3c-2,2.6-2.7,9.1,0.1,13.6c2.5,4,8.1,6.3,10.6,6.7c4.5,0.7,9.3-11.7,4.2-19.2
			C242.1,189.2,234.6,192,232,195.3z"/>
		<path class="st15" d="M236,190.6c-4.2,1.1-6.3,1.9-6.4,4.2c-1.1,0.8-1.8,2-2.2,3.2c-0.5,1.5-0.4,3.7,0,5.8
			c2.2,4.8,4.7,5.1,4.7,5.1s-0.7-2.6-0.1-3.8c0.5-1,2.1-1.1,2.6,0.6c0.6,0.2,1.3,0.1,1.3,0.1l-0.5-3.5c0,0,2.6,1.3,5.6-0.4
			c2.8-1.6,5.5-0.7,6.4,0.2c0.6-1.5,0.7-6.3-0.6-7.1c1.1-0.9,1.7-1.7,2.3-2.6C246.1,192.9,240.6,188.6,236,190.6z"/>
	</g>
	<path class="st21" d="M242.6,215.5c0.6,3.4,0.8,9.1,0.8,9.1s3.5-2.7,5.2-3c-0.5-2.5-3-7.2-3-7.2C245.3,214.9,243.8,216,242.6,215.5
		z"/>
	<path class="st21" d="M232.1,212.9c0,0-1.6,1.9-1.8,2.8c-0.6,2.9,3.4,6.8,5.7,9.8c6.4-0.8,7.3-0.8,7.3-0.8s-3.5-3.9-5.5-5.5
		C233.1,215.4,232.1,212.9,232.1,212.9z"/>
	<path class="st14" d="M241.8,252.8c0,0,1.2,1.6,1.2,2.1c0,0.5-2.4,0.6-2.7-0.3C240,253.8,241.8,252.8,241.8,252.8z"/>
	<path class="st15" d="M244.2,247.1c2.6,1.3,3.1,3.9,1.4,4.8c-1.7,0.9-3.2,0.6-3.2,0.6s-0.9,3.7-1,6c0,1.7-0.4,5.2-0.8,6.5
		c-0.9,2.8-3.7,2.4-3.9-1.1c-0.2-3.5,0.1-13.5,2.6-16.1C240.2,246.8,242.7,246.4,244.2,247.1z"/>
	<path class="st14" d="M224.5,236.8c-0.7,5.9-2.6,12.4-2.6,12.4s10.4,3.7,12.4,3.5c1.1-0.1,2.4-0.4,3.2-0.6
		c-0.1,0.7-0.1,0.7-0.3,1.5c1.3-0.2,4.4,0,5.9,0.9c0.7,0.4,0.4,1.5-0.2,2.3c0.6,0.7,0.8,1.3-0.1,2.2c0.5,0.6,0.1,1.6-0.6,2.2
		c0.1,0.5,0.4,1.1-0.5,1.5c-2.2,1.1-4.1,0.3-5.8-0.5c-1.6-0.7-1.9-1.9-3.2-3c-0.7-0.6-4.2-0.9-9-1.2c-4.2-0.3-7.6-1.4-10-2.2
		c-2-0.6-2.2-3-1.8-6.4c0.7-6.3,2.2-12.7,3.5-14.9C217.1,231.3,224.5,236.8,224.5,236.8z"/>
	<path class="st21" d="M223.3,219.7c-7.2,1-8.5,9.7-10.5,20.6c5.1,2.5,8.2,4.4,12.7,2.8c0.4-2.1,1.4-4.5,1.9-7.8
		C228.5,229.2,227.3,219.2,223.3,219.7z"/>
	<g>
		<path class="st22" d="M227.7,200.9c0,0-0.1,0.1-0.1,0.1c-0.3-0.5-0.5-1-0.5-1.6c0,0,0-0.1,0-0.1c0-0.5,0.1-0.9,0.4-1.4
			c0,0.1-0.2,0.6-0.2,1.2C227.2,199.7,227.4,200.3,227.7,200.9z"/>
		<polygon class="st16" points="235.9,210.6 233.6,209.3 234.9,208.4 236.4,208.7 		"/>
		<path class="st16" d="M248.5,196.7l-2.4-1.4l-0.9,3.1c0,0,1.3,0.6,1.3,0.6C246.5,199,248.5,196.7,248.5,196.7z"/>
		<path class="st16" d="M245.3,202.9c0,0-2.2,3.3-3.5,4.1c-1.4,0.8-7.4,2.2-7.4,2.2c-0.6,0.4-1.2,0-1.2-0.9v-4.4
			c0-0.9,0.3-1.6,0.9-2c0.2-0.1,0.5-0.3,0.9-0.4c1.5-0.4,3.8-1,6.7-2.6c2.4-1.4,3-2.6,3.5-3.4c0.1-0.2,0.3-0.4,0.6-0.4
			c0.4-0.1,0.7,0.4,0.7,1v4.4C246.5,201.5,246,202.5,245.3,202.9z"/>
		<polygon class="st17" points="240,212.9 236,210.6 239.3,207.4 240.8,208.3 		"/>
		<polygon class="st17" points="252.5,199 248.4,196.6 247.9,201.8 		"/>
		<path class="st17" d="M247.6,204.2l-10.9,6.3c-0.6,0.4-1.2,0-1.2-0.9v-4.4c0-0.9,0.5-1.9,1.2-2.2l10.9-6.3c0.6-0.4,1.2,0,1.2,0.9
			v4.4C248.8,202.8,248.3,203.8,247.6,204.2z"/>
		<path class="st15" d="M251.7,206.6l-10.9,6.3c-0.6,0.4-1.2,0-1.2-0.9v-4.4c0-0.9,0.5-1.9,1.2-2.2l10.9-6.3c0.6-0.4,1.2,0,1.2,0.9
			v4.4C252.9,205.2,252.4,206.2,251.7,206.6z"/>
		<path class="st15" d="M241.2,213.7l-1.2-0.7l0.4-0.9c0,0,1.5,0.6,1.5,0.7C241.9,212.8,241.2,213.7,241.2,213.7z"/>
		<polygon class="st15" points="253.7,199.7 252.5,199 252,199.5 253.1,200.5 		"/>
		<path class="st16" d="M253,207.3l-10.9,6.3c-0.6,0.4-1.2,0-1.2-0.9v-4.4c0-0.9,0.5-1.9,1.2-2.2l10.9-6.3c0.6-0.4,1.2,0,1.2,0.9
			v4.4C254.1,205.9,253.6,206.9,253,207.3z"/>
		<path class="st15" d="M242.3,206.4l10.3-6c0.5-0.3,1,0,1,0.8v3.8c0,0.7-0.4,1.6-1,1.9l-10.3,6c-0.5,0.3-1,0-1-0.8v-3.8
			C241.3,207.6,241.8,206.7,242.3,206.4z"/>
		<polygon class="st19" points="249.1,203.6 246.3,205.2 246.3,204.7 249.1,203.1 		"/>
		<path class="st18" d="M236.6,210.1l1.7,1c0.3,0.2,0.6,0,0.6-0.4v-2.2c0-0.4-0.3-0.9-0.6-1.1l-1.7-1c-0.3-0.2-0.6,0-0.6,0.4v2.2
			C236.1,209.5,236.3,210,236.6,210.1z"/>
		<polygon class="st18" points="236.3,206.4 236.4,206.2 236.5,206.3 236.3,206.5 		"/>
		<polygon class="st18" points="238.9,211 238.7,211.2 238.6,211 238.8,210.9 		"/>
		<path class="st19" d="M236.8,210.1l1.7,1c0.3,0.2,0.6,0,0.6-0.4v-2.2c0-0.4-0.3-0.9-0.6-1.1l-1.7-1c-0.3-0.2-0.6,0-0.6,0.4v2.2
			C236.2,209.4,236.5,209.9,236.8,210.1z"/>
		<path class="st18" d="M236.9,208.2c0,0.5,0.3,1.1,0.7,1.4c0.4,0.2,0.7,0,0.7-0.5c0-0.5-0.3-1.1-0.7-1.4
			C237.2,207.5,236.9,207.7,236.9,208.2z"/>
		<polygon class="st15" points="241.1,201.3 245.2,199 244.7,198.7 240.6,201 		"/>
		<g>
			<path class="st22" d="M234.5,191.1L234.5,191.1c1.1-0.6,2.5-0.6,4.1,0.3c2.4,1.4,4.5,4.4,5.5,7.6l-3,1.7c-1-3.2-3.1-6.2-5.5-7.6
				c-0.1,0-0.2-0.1-0.3-0.1c-0.8-0.4-1.6-0.8-2.3-0.8c-1.2,0-2.1,0.2-2.1,0.2L234.5,191.1z"/>
			<path class="st13" d="M234.5,190.9c1.2-0.4,2.6-0.6,4.1,0.3c2.4,1.4,4.5,4.4,5.6,7.7l-3,1.7c-1.1-3.3-3.2-6.3-5.6-7.7
				c-0.1-0.1-0.2-0.1-0.3-0.1c-0.8-0.4-1.7-0.8-2.4-0.8c-1.2,0-2.1,0.4-2.1,0.4S232.3,191.6,234.5,190.9z"/>
		</g>
		<polygon class="st17" points="233.5,204.1 234.2,204.4 234.2,208.8 233.5,208.4 		"/>
		<path class="st22" d="M227.2,202.7v-3.2h0c0,0.5,0.2,1.1,0.5,1.6c0.4,0.6,1,1.2,1.7,1.7c1.1,0.8,2.4,1.3,4.3,1.9c0,0,0,0,0,0
			l0.1,0.1l-0.1,3.3C229.9,207,227.2,205.1,227.2,202.7C227.2,202.7,227.2,202.7,227.2,202.7z"/>
		<path class="st13" d="M227.1,202.7v-3.3h0c0,0.6,0.2,1.1,0.5,1.6c0.4,0.6,1,1.2,1.7,1.7c1.2,0.8,2.5,1.4,4.5,2v3.4
			C229.9,207.2,227.1,205.2,227.1,202.7C227.1,202.8,227.1,202.7,227.1,202.7z"/>
		<polygon class="st21" points="234.2,204.4 234.4,204.3 234.4,208.7 234.2,208.8 		"/>
		<polygon class="st19" points="234.4,204.3 234.2,204.4 233.5,204.1 233.7,204 		"/>
	</g>
	<g>
		<path class="st15" d="M279.7,235.9c0.8-3.1,1.9-5.3,2.8-6.8l0,0l0,0c0.6-1,1.3-2.1,1.8-2.8c0.3-0.4,1.4-0.7,1.8-0.8
			c1.5-0.3,4.2-0.8,6.5,0.5c2.2,1.3,1.7,3.9-2.1,4.6c-0.8,0.2-3,0-4-0.2c-0.1,0.8-2.5,9.2-3.4,11.8c-0.9,2.6-3.3,3.9-4.1,2.6
			C278.2,243.5,278.5,240.6,279.7,235.9z"/>
		<path class="st13" d="M292.1,225.7c0,0,1.5,1.3-0.6,2.4c-2.1,1.1-5.4,0.5-6.2-0.1c-1-0.7-1.5-1.4-0.3-2.3
			C286.3,224.8,289.9,224.8,292.1,225.7z"/>
		<path class="st16" d="M291.3,225.4c0,0,1.3,1.2-0.4,2.1c-1.7,0.9-4.4,0.4-5,0c-0.8-0.5-1.2-1.1-0.2-1.9
			C286.7,224.9,289.5,224.7,291.3,225.4z"/>
	</g>
	<path class="st14" d="M273.2,235.5c0,0,3.2-1.7,6.2-3.4c1.6-0.9,2.3-1.3,3.2-1.5c1.4-0.4,2.4-0.5,2.7-0.2c0.6,0.4-0.4,1.6-2.4,1.9
		c-1.3,1.5-2.3,2-3.2,3.5c-0.4,1.7-1.1,4.9-1.1,4.9l-2.6,0.1L273.2,235.5z"/>
	<path class="st14" d="M286.6,232.9c-1.7-0.4-3.3,0.1-3.2,1.2c0,0.4,0.4,0.7,1,0.7c-0.7,0.2-1.1,0.3-1.1,1c0,0.3,0.6,0.6,0.9,0.5
		c-1.6,0.7-1.2,1.9-0.5,1.9c-0.8,0.4-1.4,1.6-0.1,1.8c1.4,0.2,3.1-0.6,2.9-1.8c0.9-0.5,0.7-1.7,0-2c0.9-0.4,0.7-1.3,0.1-1.8
		C287.4,234.2,287.6,233.1,286.6,232.9z"/>
	<path class="st13" d="M240.9,246.9c1.2-0.3,2.6-0.2,3.7,0.4c0.6,0.4,1.3,1.3,0.8,1.9c-0.7,0.8-5.7,1.5-6.3-0.7
		C238.8,247.6,240.1,247.1,240.9,246.9z"/>
	<path class="st16" d="M241.3,246.8c0.8-0.2,1.9-0.2,2.6,0.3c0.5,0.3,1,0.9,0.6,1.4c-0.5,0.6-4.1,1-4.5-0.5
		C239.8,247.3,240.7,247,241.3,246.8z"/>
</g>
<g>
	<g>
		<g>
			<g>
				<path class="st15" d="M390.1,445.8c0-0.8-1.2-1.4-2.7-1.4c-1.5,0-2.7,0.6-2.7,1.4c0,0.8,1.2,1.4,2.7,1.4
					C388.9,447.3,390.1,446.6,390.1,445.8z"/>
				
					<rect x="384.7" y="440.9" transform="matrix(-1 -1.224647e-16 1.224647e-16 -1 774.8604 886.7144)" class="st15" width="5.4" height="4.9"/>
			</g>
			<g>
				<path class="st15" d="M361.5,429.4c0-0.8-1.2-1.4-2.7-1.4c-1.5,0-2.7,0.6-2.7,1.4c0,0.8,1.2,1.4,2.7,1.4
					C360.3,430.8,361.5,430.2,361.5,429.4z"/>
				
					<rect x="356.2" y="424.4" transform="matrix(-1 -1.224647e-16 1.224647e-16 -1 717.703 853.8322)" class="st15" width="5.4" height="4.9"/>
			</g>
			<g>
				<path class="st15" d="M463.1,403.5c0-0.8-1.2-1.4-2.7-1.4c-1.5,0-2.7,0.6-2.7,1.4c0,0.8,1.2,1.4,2.7,1.4
					C461.9,404.9,463.1,404.3,463.1,403.5z"/>
				
					<rect x="457.8" y="398.6" transform="matrix(-1 -1.224647e-16 1.224647e-16 -1 920.915 802.0506)" class="st15" width="5.4" height="4.9"/>
			</g>
			<polygon class="st15" points="355,395.5 387.4,414.4 387.4,443.1 355,424.1 			"/>
			<polygon class="st13" points="387.4,414.4 465.5,369.4 465.5,398 387.4,443.1 			"/>
			<polygon class="st33" points="465.5,367.6 387.4,412.6 355,393.7 432.9,348.9 			"/>
			<polygon class="st17" points="465.5,369.4 465.5,367.6 387.4,412.6 387.4,414.4 			"/>
			<polygon class="st21" points="355,393.7 355,395.5 387.4,414.4 387.4,412.6 			"/>
		</g>
		<g>
			<g>
				<path class="st15" d="M424.7,378.2l-12.8-6.1c-1.5-0.7-3.5-0.7-4.7,0l-12,7c-1.2,0.7-1.1,1.8,0.1,2.7l10.6,7.4
					c1.4,1,3.9,1.2,5.2,0.4l14.2-8.2C426.7,380.4,426.4,379,424.7,378.2z"/>
				
					<rect x="424.3" y="378.1" transform="matrix(-1 -1.224647e-16 1.224647e-16 -1 850.4901 758.1678)" class="st15" width="1.9" height="1.9"/>
				<path class="st25" d="M424.7,376.4l-12.8-6.1c-1.5-0.7-3.5-0.7-4.7,0l-12,7c-1.2,0.7-1.1,1.8,0.1,2.7l10.6,7.4
					c1.4,1,3.9,1.2,5.2,0.4l14.2-8.2C426.7,378.6,426.4,377.2,424.7,376.4z"/>
			</g>
			<g>
				<polygon class="st13" points="453.6,346.6 358.9,401.4 358.9,332.8 453.6,277.7 				"/>
				<polygon class="st15" points="358.9,401.4 356.1,400 356.1,331.3 358.9,332.8 				"/>
				<polygon class="st25" points="450.8,276.3 453.6,277.7 358.9,332.8 356.1,331.3 				"/>
			</g>
			<g>
				<path class="st15" d="M416.9,379.5c0-1.5-2.3-2.8-5.2-2.8c-2.9,0-5.2,1.2-5.2,2.8c0,1.5,2.3,2.8,5.2,2.8
					C414.6,382.3,416.9,381.1,416.9,379.5z"/>
				<path class="st15" d="M406.5,362.5c0,0-0.3-4.1,5.2-7.5c3.4-2.1,5.2,1.1,5.2,1.1v23.4h-10.4V362.5z"/>
			</g>
		</g>
	</g>
	<g>
		<g>
			<polygon class="st7" points="342.6,280.1 296.2,307 296.2,380.7 342.6,353.9 			"/>
			<polygon class="st8" points="339,286.5 317,299.2 317,321.1 339,308.3 			"/>
			<polygon class="st8" points="339,312.6 317,325.4 317,347.2 339,334.5 			"/>
			<polygon class="st8" points="339,340.2 317,353 317,362.9 339,350.2 			"/>
			<path class="st9" d="M310.7,310.4c-0.1,3.3-2.2,6.8-4.6,7.8c-2.5,1-4.4-0.9-4.3-4.1c0.1-3.3,2.2-6.8,4.6-7.8
				C308.9,305.2,310.8,307.1,310.7,310.4z"/>
			<path class="st9" d="M310.7,327.2c-0.1,3.3-2.2,6.8-4.6,7.8c-2.5,1-4.4-0.9-4.3-4.1c0.1-3.3,2.2-6.8,4.6-7.8
				C308.9,322.1,310.8,324,310.7,327.2z"/>
			<path class="st31" d="M308.4,328.2c0,1.5-1,3.2-2.2,3.6c-1.2,0.5-2.1-0.4-2-1.9c0-1.5,1-3.2,2.2-3.6
				C307.5,325.8,308.4,326.7,308.4,328.2z"/>
			<path class="st9" d="M310.7,344.1c-0.1,3.3-2.2,6.8-4.6,7.8c-2.5,1-4.4-0.9-4.3-4.1c0.1-3.3,2.2-6.8,4.6-7.8
				C308.9,339,310.8,340.8,310.7,344.1z"/>
			<path class="st9" d="M310.7,361c-0.1,3.3-2.2,6.8-4.6,7.8c-2.5,1-4.4-0.9-4.3-4.1c0.1-3.3,2.2-6.8,4.6-7.8
				C308.9,355.8,310.8,357.7,310.7,361z"/>
		</g>
		<g>
			<polygon class="st9" points="350.8,377.6 315.1,398.2 315.1,372.5 317,371.4 317,395.2 350.8,375.7 			"/>
		</g>
		<g>
			<polygon class="st7" points="402.6,227.4 356.2,254.4 356.2,309.7 402.6,282.9 			"/>
			<polygon class="st8" points="400.6,231.2 358.5,255.7 358.5,259.2 400.6,234.9 			"/>
			<polygon class="st8" points="389.6,245.7 389.6,247.8 400.6,241.4 400.6,239.3 			"/>
			<polygon class="st8" points="359.4,303 359.4,305.1 370.4,298.8 370.4,296.7 			"/>
			<polygon class="st8" points="392.8,248.7 392.8,250.8 400.6,246.3 400.6,244.2 			"/>
			<polygon class="st9" points="382.5,297 380.6,298.1 380.6,311.6 382.5,310.5 			"/>
			<polygon class="st9" points="429.6,269.7 427.7,270.8 427.7,284.2 429.6,283.1 			"/>
			<path class="st9" d="M395.1,265.1c-0.3,11.1-7.3,22.7-15.6,26.1c-8.3,3.4-14.9-2.9-14.6-13.9c0.3-11.1,7.3-22.7,15.6-26.1
				C388.9,247.8,395.4,254,395.1,265.1z"/>
			<path class="st31" d="M387,268.6c-0.1,4.7-3.1,9.6-6.6,11.1c-3.5,1.4-6.3-1.2-6.2-5.9c0.1-4.7,3.1-9.6,6.6-11.1
				C384.3,261.3,387.1,263.9,387,268.6z"/>
		</g>
		<g>
			<polygon class="st7" points="443.4,200.3 412.2,218.4 412.2,278.6 443.4,260.6 			"/>
			<polygon class="st8" points="441.1,205.8 416.2,220.3 416.2,223.9 441.1,209.5 			"/>
			<polygon class="st8" points="428.9,220.1 416.2,227.4 416.2,228.8 428.9,221.5 			"/>
			<polygon class="st8" points="426.4,224.6 416.2,230.5 416.2,231.9 426.4,226 			"/>
			<polygon class="st8" points="426.4,227.7 416.2,233.6 416.2,235 426.4,229.1 			"/>
			<polygon class="st8" points="428.9,235.1 416.2,242.4 416.2,243.8 428.9,236.5 			"/>
			<polygon class="st8" points="426.4,239.6 416.2,245.6 416.2,246.9 426.4,241 			"/>
			<polygon class="st8" points="426.4,242.7 416.2,248.6 416.2,250 426.4,244.1 			"/>
			<polygon class="st8" points="428.9,250.1 416.2,257.4 416.2,258.8 428.9,251.5 			"/>
			<polygon class="st8" points="426.4,254.6 416.2,260.5 416.2,261.9 426.4,256 			"/>
			<polygon class="st8" points="426.4,257.7 416.2,263.6 416.2,265 426.4,259.1 			"/>
			<polygon class="st8" points="430.1,219.4 430.1,231.2 440,225.4 440,213.6 			"/>
			<polygon class="st8" points="430.1,234.1 430.1,245.9 440,240.1 440,228.3 			"/>
			<polygon class="st8" points="430.1,248.8 430.1,260.7 440,254.9 440,243 			"/>
			<polygon class="st8" points="430.1,263.5 430.1,265.8 440,260.1 440,257.7 			"/>
		</g>
	</g>
</g>
<g>
	<polygon class="st21" points="282.1,163.9 274.6,168.2 274.6,202.6 282.1,198.3 	"/>
	<polygon class="st17" points="244.1,185 274.6,202.6 274.6,168.2 244.1,150.6 	"/>
	<polygon class="st21" points="272,197.2 246.2,182.3 246.2,183.9 272,198.8 	"/>
	<polygon class="st21" points="272,193.6 246.2,178.7 246.2,180.3 272,195.2 	"/>
	<polygon class="st34" points="244.1,150.6 251.6,146.5 282.1,163.9 274.6,168.2 	"/>
	<g>
		<path class="st16" d="M280.4,195.1c0,1.3-0.9,2.8-1.9,3.2c-1,0.4-1.8-0.3-1.8-1.7c0-1.3,0.9-2.8,1.9-3.2
			C279.6,193,280.4,193.7,280.4,195.1z"/>
		<path class="st19" d="M279.7,195.3c0,0.9-0.6,1.8-1.2,2.1c-0.7,0.3-1.2-0.2-1.1-1.1c0-0.9,0.6-1.8,1.2-2.1
			C279.3,194,279.8,194.4,279.7,195.3z"/>
		<path class="st19" d="M279.6,189.3c0,0.8-0.5,1.6-1.1,1.8c-0.6,0.2-1-0.2-1-1c0-0.8,0.5-1.6,1.1-1.8
			C279.2,188.1,279.6,188.5,279.6,189.3z"/>
		<path class="st19" d="M279.6,184.3c0,0.8-0.5,1.6-1.1,1.8c-0.6,0.2-1-0.2-1-1c0-0.8,0.5-1.6,1.1-1.8
			C279.2,183.1,279.6,183.5,279.6,184.3z"/>
	</g>
</g>
</svg>
