<svg id="Layer_1" data-name="Layer 1" xmlns="http://www.w3.org/2000/svg" viewBox="0 0 150 150"><defs><style>.cls-1{fill:#454545;stroke:#454545;stroke-miterlimit:10;}</style></defs><title>watch</title><path class="cls-1" d="M93.32,40H54.51A12.37,12.37,0,0,0,42.16,52.38v3.8a1.45,1.45,0,0,0,1.45,1.47,1.43,1.43,0,0,0,.93-.41,1.38,1.38,0,0,0,.4-1V51.73A9.08,9.08,0,0,1,54,42.66H93.83a9.08,9.08,0,0,1,9.06,9.07v35.6h2.78V52.38A12.37,12.37,0,0,0,93.32,40Zm12.34,57.43H102.9s0,0,0,0v4.93a9.08,9.08,0,0,1-9.06,9.07H54a9.08,9.08,0,0,1-9.06-9.07V63.52a1.44,1.44,0,0,0-1.45-1.47,1.33,1.33,0,0,0-.92.4,1.36,1.36,0,0,0-.41,1v38.31a12.37,12.37,0,0,0,12.35,12.37H93.32a12.37,12.37,0,0,0,12.35-12.37V97.47S105.67,97.45,105.66,97.45Z"/><path class="cls-1" d="M96.82,40.17,94.24,26a8.3,8.3,0,0,0-8-6.65H61.56a8.31,8.31,0,0,0-8,6.65L51,40.17a1.76,1.76,0,0,0,1.73,2.08H95.09a1.75,1.75,0,0,0,1.35-.63A1.73,1.73,0,0,0,96.82,40.17Zm-43.11.07L56,25.83a5.11,5.11,0,0,1,4.77-4H87a5.1,5.1,0,0,1,4.77,4l2.34,14.41Z"/><path class="cls-1" d="M51,113.92l2.58,14.2a8.3,8.3,0,0,0,8,6.66H86.28a8.3,8.3,0,0,0,8-6.66l2.58-14.2a1.76,1.76,0,0,0-1.73-2.08H52.74a1.77,1.77,0,0,0-1.35.63A1.74,1.74,0,0,0,51,113.92Zm43.12-.07-2.34,14.41a5.1,5.1,0,0,1-4.77,4H60.81a5.11,5.11,0,0,1-4.77-4l-2.33-14.41Z"/><path class="cls-1" d="M108.47,59.42h-3.79a1.76,1.76,0,0,0-1.76,1.77V77.07a1.76,1.76,0,0,0,1.76,1.76h3.79a5,5,0,0,0,5-5V64.46A5,5,0,0,0,108.47,59.42ZM111,73.8a1.5,1.5,0,0,1-1.5,1.5h-3.58V63h3.58a1.51,1.51,0,0,1,1.5,1.51Z"/><path class="cls-1" d="M73.92,68.25a8.82,8.82,0,1,0,8.82,8.82A8.83,8.83,0,0,0,73.92,68.25Zm0,14.62a5.81,5.81,0,1,1,5.8-5.8A5.81,5.81,0,0,1,73.92,82.87Z"/><rect class="cls-1" x="102.89" y="95.62" width="2.79" height="6.18" rx="0.88"/><rect class="cls-1" x="102.89" y="83.56" width="2.79" height="6.18" rx="0.88"/><circle class="cls-1" cx="104.28" cy="92.68" r="1.18"/></svg>